  0
SECTION
  2
HEADER
  9
$ACADVER
  1
AC1014
  9
$HANDSEED
  5
FFFF
  9
$MEASUREMENT
 70
     1
  0
ENDSEC
  0
SECTION
  2
TABLES
  0
TABLE
  2
VPORT
  5
8
330
0
100
AcDbSymbolTable
 70
     4
  0
VPORT
  5
2E
330
8
100
AcDbSymbolTableRecord
100
AcDbViewportTableRecord
  2
*ACTIVE
 70
     0
 10
0.0
 20
0.0
 11
1.0
 21
1.0
 12
210.0
 22
148.5
 13
0.0
 23
0.0
 14
10.0
 24
10.0
 15
10.0
 25
10.0
 16
0.0
 26
0.0
 36
1.0
 17
0.0
 27
0.0
 37
0.0
 40
341.0
 41
1.24
 42
50.0
 43
0.0
 44
0.0
 50
0.0
 51
0.0
 71
     0
 72
   100
 73
     1
 74
     3
 75
     0
 76
     0
 77
     0
 78
     0
  0
ENDTAB
  0
TABLE
  2
LTYPE
  5
5
330
0
100
AcDbSymbolTable
 70
     1
  0
LTYPE
  5
14
330
5
100
AcDbSymbolTableRecord
100
AcDbLinetypeTableRecord
  2
BYBLOCK
 70
     0
  3

 72
    65
 73
     0
 40
0.0
  0
LTYPE
  5
15
330
5
100
AcDbSymbolTableRecord
100
AcDbLinetypeTableRecord
  2
BYLAYER
 70
     0
  3

 72
    65
 73
     0
 40
0.0
  0
LTYPE
  5
16
330
5
100
AcDbSymbolTableRecord
100
AcDbLinetypeTableRecord
  2
CONTINUOUS
 70
     0
  3
Solid line
 72
    65
 73
     0
 40
0.0
  0
ENDTAB
  0
TABLE
  2
LAYER
  5
2
100
AcDbSymbolTable
 70
2
  0
LAYER
  5
50
100
AcDbSymbolTableRecord
100
AcDbLayerTableRecord
  2
0
 70
0
  6
CONTINUOUS
  0
LAYER
  5
51
100
AcDbSymbolTableRecord
100
AcDbLayerTableRecord
  2
Calque_1
 70
0
  6
CONTINUOUS
  0
ENDTAB
  0
TABLE
  2
STYLE
  5
3
330
0
100
AcDbSymbolTable
 70
     1
  0
STYLE
  5
11
330
3
100
AcDbSymbolTableRecord
100
AcDbTextStyleTableRecord
  2
STANDARD
 70
     0
 40
0.0
 41
1.0
 50
0.0
 71
     0
 42
2.5
  3
txt
  4

  0
ENDTAB
  0
TABLE
  2
VIEW
  5
6
330
0
100
AcDbSymbolTable
 70
     0
  0
ENDTAB
  0
TABLE
  2
UCS
  5
7
330
0
100
AcDbSymbolTable
 70
     0
  0
ENDTAB
  0
TABLE
  2
APPID
  5
9
330
0
100
AcDbSymbolTable
 70
     2
  0
APPID
  5
12
330
9
100
AcDbSymbolTableRecord
100
AcDbRegAppTableRecord
  2
ACAD
 70
     0
  0
ENDTAB
  0
TABLE
  2
DIMSTYLE
  5
A
330
0
100
AcDbSymbolTable
 70
     1
  0
DIMSTYLE
105
27
330
A
100
AcDbSymbolTableRecord
100
AcDbDimStyleTableRecord
  2
ISO-25
 70
     0
  3

  4

  5

  6

  7

 40
1.0
 41
2.5
 42
0.625
 43
3.75
 44
1.25
 45
0.0
 46
0.0
 47
0.0
 48
0.0
140
2.5
141
2.5
142
0.0
143
0.03937007874016
144
1.0
145
0.0
146
1.0
147
0.625
 71
     0
 72
     0
 73
     0
 74
     0
 75
     0
 76
     0
 77
     1
 78
     8
170
     0
171
     3
172
     1
173
     0
174
     0
175
     0
176
     0
177
     0
178
     0
270
     2
271
     2
272
     2
273
     2
274
     3
340
11
275
     0
280
     0
281
     0
282
     0
283
     0
284
     8
285
     0
286
     0
287
     3
288
     0
  0
ENDTAB
  0
TABLE
  2
BLOCK_RECORD
  5
1
330
0
100
AcDbSymbolTable
 70
     1
  0
BLOCK_RECORD
  5
1F
330
1
100
AcDbSymbolTableRecord
100
AcDbBlockTableRecord
  2
*MODEL_SPACE
  0
BLOCK_RECORD
  5
1B
330
1
100
AcDbSymbolTableRecord
100
AcDbBlockTableRecord
  2
*PAPER_SPACE
  0
ENDTAB
  0
ENDSEC
  0
SECTION
  2
BLOCKS
  0
BLOCK
  5
20
330
1F
100
AcDbEntity
  8
0
100
AcDbBlockBegin
  2
*MODEL_SPACE
 70
     0
 10
0.0
 20
0.0
 30
0.0
  3
*MODEL_SPACE
  1

  0
ENDBLK
  5
21
330
1F
100
AcDbEntity
  8
0
100
AcDbBlockEnd
  0
BLOCK
  5
1C
330
1B
100
AcDbEntity
 67
     1
  8
0
100
AcDbBlockBegin
  2
*PAPER_SPACE
  1

  0
ENDBLK
  5
1D
330
1B
100
AcDbEntity
 67
     1
  8
0
100
AcDbBlockEnd
  0
ENDSEC
  0
SECTION
  2
ENTITIES
  0
LWPOLYLINE
  5
100
100
AcDbEntity
  8
Calque_1
 62
7
100
AcDbPolyline
 90
6
 70
0
 10
0.035278
 20
128.469235
 30
0.0
 10
0.035278
 20
0.031665
 30
0.0
 10
29.968472
 20
0.031665
 30
0.0
 10
29.968472
 20
128.469235
 30
0.0
 10
0.035278
 20
128.469235
 30
0.0
 10
0.035278
 20
128.469235
 30
0.0
  0
LWPOLYLINE
  5
101
100
AcDbEntity
  8
Calque_1
 62
7
100
AcDbPolyline
 90
34
 70
0
 10
7.531806
 20
127.119860
 30
0.0
 10
7.851333
 20
127.087549
 30
0.0
 10
8.149130
 20
126.994906
 30
0.0
 10
8.418765
 20
126.848364
 30
0.0
 10
8.653803
 20
126.654357
 30
0.0
 10
8.847809
 20
126.419320
 30
0.0
 10
8.994351
 20
126.149685
 30
0.0
 10
9.086995
 20
125.851887
 30
0.0
 10
9.119306
 20
125.532360
 30
0.0
 10
9.086995
 20
125.213211
 30
0.0
 10
8.994351
 20
124.916413
 30
0.0
 10
8.847809
 20
124.648190
 30
0.0
 10
8.653803
 20
124.414772
 30
0.0
 10
8.418765
 20
124.222385
 30
0.0
 10
8.149130
 20
124.077255
 30
0.0
 10
7.851333
 20
123.985611
 30
0.0
 10
7.531806
 20
123.953679
 30
0.0
 10
7.212657
 20
123.985611
 30
0.0
 10
6.915859
 20
124.077255
 30
0.0
 10
6.647637
 20
124.222385
 30
0.0
 10
6.414218
 20
124.414772
 30
0.0
 10
6.221831
 20
124.648190
 30
0.0
 10
6.076701
 20
124.916413
 30
0.0
 10
5.985057
 20
125.213211
 30
0.0
 10
5.953125
 20
125.532360
 30
0.0
 10
5.985057
 20
125.851887
 30
0.0
 10
6.076701
 20
126.149685
 30
0.0
 10
6.221831
 20
126.419320
 30
0.0
 10
6.414218
 20
126.654357
 30
0.0
 10
6.647637
 20
126.848364
 30
0.0
 10
6.915859
 20
126.994906
 30
0.0
 10
7.212657
 20
127.087549
 30
0.0
 10
7.531806
 20
127.119860
 30
0.0
 10
7.531806
 20
127.119860
 30
0.0
  0
LWPOLYLINE
  5
102
100
AcDbEntity
  8
Calque_1
 62
7
100
AcDbPolyline
 90
6
 70
0
 10
15.045972
 20
118.053471
 30
0.0
 10
26.458333
 20
118.053471
 30
0.0
 10
26.458333
 20
105.644513
 30
0.0
 10
15.045972
 20
105.644513
 30
0.0
 10
15.045972
 20
118.053471
 30
0.0
 10
15.045972
 20
118.053471
 30
0.0
  0
LWPOLYLINE
  5
103
100
AcDbEntity
  8
Calque_1
 62
7
100
AcDbPolyline
 90
66
 70
0
 10
13.167431
 20
101.490554
 30
0.0
 10
13.690854
 20
101.464067
 30
0.0
 10
14.199269
 20
101.386330
 30
0.0
 10
14.690087
 20
101.259933
 30
0.0
 10
15.160718
 20
101.087463
 30
0.0
 10
15.608575
 20
100.871510
 30
0.0
 10
16.031068
 20
100.614663
 30
0.0
 10
16.425609
 20
100.319509
 30
0.0
 10
16.789610
 20
99.988637
 30
0.0
 10
17.120482
 20
99.624636
 30
0.0
 10
17.415636
 20
99.230095
 30
0.0
 10
17.672484
 20
98.807602
 30
0.0
 10
17.888437
 20
98.359745
 30
0.0
 10
18.060906
 20
97.889114
 30
0.0
 10
18.187304
 20
97.398296
 30
0.0
 10
18.265040
 20
96.889881
 30
0.0
 10
18.291528
 20
96.366457
 30
0.0
 10
18.265040
 20
95.843132
 30
0.0
 10
18.187304
 20
95.334997
 30
0.0
 10
18.060906
 20
94.844614
 30
0.0
 10
17.888437
 20
94.374547
 30
0.0
 10
17.672484
 20
93.927358
 30
0.0
 10
17.415636
 20
93.505610
 30
0.0
 10
17.120482
 20
93.111865
 30
0.0
 10
16.789610
 20
92.748687
 30
0.0
 10
16.425609
 20
92.418637
 30
0.0
 10
16.031068
 20
92.124280
 30
0.0
 10
15.608575
 20
91.868177
 30
0.0
 10
15.160718
 20
91.652892
 30
0.0
 10
14.690087
 20
91.480987
 30
0.0
 10
14.199269
 20
91.355024
 30
0.0
 10
13.690854
 20
91.277568
 30
0.0
 10
13.167431
 20
91.251179
 30
0.0
 10
12.644106
 20
91.277568
 30
0.0
 10
12.135971
 20
91.355024
 30
0.0
 10
11.645588
 20
91.480987
 30
0.0
 10
11.175521
 20
91.652892
 30
0.0
 10
10.728332
 20
91.868177
 30
0.0
 10
10.306584
 20
92.124280
 30
0.0
 10
9.912839
 20
92.418637
 30
0.0
 10
9.549661
 20
92.748687
 30
0.0
 10
9.219611
 20
93.111865
 30
0.0
 10
8.925254
 20
93.505610
 30
0.0
 10
8.669151
 20
93.927358
 30
0.0
 10
8.453866
 20
94.374547
 30
0.0
 10
8.281960
 20
94.844614
 30
0.0
 10
8.155998
 20
95.334997
 30
0.0
 10
8.078541
 20
95.843132
 30
0.0
 10
8.052153
 20
96.366457
 30
0.0
 10
8.078541
 20
96.889881
 30
0.0
 10
8.155998
 20
97.398296
 30
0.0
 10
8.281960
 20
97.889114
 30
0.0
 10
8.453866
 20
98.359745
 30
0.0
 10
8.669151
 20
98.807602
 30
0.0
 10
8.925254
 20
99.230095
 30
0.0
 10
9.219611
 20
99.624636
 30
0.0
 10
9.549661
 20
99.988637
 30
0.0
 10
9.912839
 20
100.319509
 30
0.0
 10
10.306584
 20
100.614663
 30
0.0
 10
10.728332
 20
100.871510
 30
0.0
 10
11.175521
 20
101.087463
 30
0.0
 10
11.645588
 20
101.259933
 30
0.0
 10
12.135971
 20
101.386330
 30
0.0
 10
12.644106
 20
101.464067
 30
0.0
 10
13.167431
 20
101.490554
 30
0.0
 10
13.167431
 20
101.490554
 30
0.0
  0
LWPOLYLINE
  5
104
100
AcDbEntity
  8
Calque_1
 62
7
100
AcDbPolyline
 90
66
 70
0
 10
13.167431
 20
81.285207
 30
0.0
 10
13.690854
 20
81.258819
 30
0.0
 10
14.199269
 20
81.181362
 30
0.0
 10
14.690087
 20
81.055399
 30
0.0
 10
15.160718
 20
80.883494
 30
0.0
 10
15.608575
 20
80.668209
 30
0.0
 10
16.031068
 20
80.412106
 30
0.0
 10
16.425609
 20
80.117749
 30
0.0
 10
16.789610
 20
79.787700
 30
0.0
 10
17.120482
 20
79.424521
 30
0.0
 10
17.415636
 20
79.030777
 30
0.0
 10
17.672484
 20
78.609028
 30
0.0
 10
17.888437
 20
78.161839
 30
0.0
 10
18.060906
 20
77.691772
 30
0.0
 10
18.187304
 20
77.201389
 30
0.0
 10
18.265040
 20
76.693254
 30
0.0
 10
18.291528
 20
76.169929
 30
0.0
 10
18.265040
 20
75.646505
 30
0.0
 10
18.187304
 20
75.138090
 30
0.0
 10
18.060906
 20
74.647273
 30
0.0
 10
17.888437
 20
74.176641
 30
0.0
 10
17.672484
 20
73.728785
 30
0.0
 10
17.415636
 20
73.306291
 30
0.0
 10
17.120482
 20
72.911750
 30
0.0
 10
16.789610
 20
72.547749
 30
0.0
 10
16.425609
 20
72.216877
 30
0.0
 10
16.031068
 20
71.921723
 30
0.0
 10
15.608575
 20
71.664876
 30
0.0
 10
15.160718
 20
71.448923
 30
0.0
 10
14.690087
 20
71.276454
 30
0.0
 10
14.199269
 20
71.150056
 30
0.0
 10
13.690854
 20
71.072319
 30
0.0
 10
13.167431
 20
71.045832
 30
0.0
 10
12.644106
 20
71.072319
 30
0.0
 10
12.135971
 20
71.150056
 30
0.0
 10
11.645588
 20
71.276454
 30
0.0
 10
11.175521
 20
71.448923
 30
0.0
 10
10.728332
 20
71.664876
 30
0.0
 10
10.306584
 20
71.921723
 30
0.0
 10
9.912839
 20
72.216877
 30
0.0
 10
9.549661
 20
72.547749
 30
0.0
 10
9.219611
 20
72.911750
 30
0.0
 10
8.925254
 20
73.306291
 30
0.0
 10
8.669151
 20
73.728785
 30
0.0
 10
8.453866
 20
74.176641
 30
0.0
 10
8.281960
 20
74.647273
 30
0.0
 10
8.155998
 20
75.138090
 30
0.0
 10
8.078541
 20
75.646505
 30
0.0
 10
8.052153
 20
76.169929
 30
0.0
 10
8.078541
 20
76.693254
 30
0.0
 10
8.155998
 20
77.201389
 30
0.0
 10
8.281960
 20
77.691772
 30
0.0
 10
8.453866
 20
78.161839
 30
0.0
 10
8.669151
 20
78.609028
 30
0.0
 10
8.925254
 20
79.030777
 30
0.0
 10
9.219611
 20
79.424521
 30
0.0
 10
9.549661
 20
79.787700
 30
0.0
 10
9.912839
 20
80.117749
 30
0.0
 10
10.306584
 20
80.412106
 30
0.0
 10
10.728332
 20
80.668209
 30
0.0
 10
11.175521
 20
80.883494
 30
0.0
 10
11.645588
 20
81.055399
 30
0.0
 10
12.135971
 20
81.181362
 30
0.0
 10
12.644106
 20
81.258819
 30
0.0
 10
13.167431
 20
81.285207
 30
0.0
 10
13.167431
 20
81.285207
 30
0.0
  0
LWPOLYLINE
  5
105
100
AcDbEntity
  8
Calque_1
 62
7
100
AcDbPolyline
 90
34
 70
0
 10
21.201944
 20
64.607638
 30
0.0
 10
21.836813
 20
64.543717
 30
0.0
 10
22.427980
 20
64.360370
 30
0.0
 10
22.962825
 20
64.070217
 30
0.0
 10
23.428727
 20
63.685879
 30
0.0
 10
23.813065
 20
63.219977
 30
0.0
 10
24.103218
 20
62.685132
 30
0.0
 10
24.286566
 20
62.093964
 30
0.0
 10
24.350486
 20
61.459096
 30
0.0
 10
24.286566
 20
60.824227
 30
0.0
 10
24.103218
 20
60.233060
 30
0.0
 10
23.813065
 20
59.698215
 30
0.0
 10
23.428727
 20
59.232313
 30
0.0
 10
22.962825
 20
58.847975
 30
0.0
 10
22.427980
 20
58.557822
 30
0.0
 10
21.836813
 20
58.374475
 30
0.0
 10
21.201944
 20
58.310554
 30
0.0
 10
20.567076
 20
58.374475
 30
0.0
 10
19.975909
 20
58.557822
 30
0.0
 10
19.441064
 20
58.847975
 30
0.0
 10
18.975162
 20
59.232313
 30
0.0
 10
18.590824
 20
59.698215
 30
0.0
 10
18.300670
 20
60.233060
 30
0.0
 10
18.117323
 20
60.824227
 30
0.0
 10
18.053403
 20
61.459096
 30
0.0
 10
18.117323
 20
62.093964
 30
0.0
 10
18.300670
 20
62.685132
 30
0.0
 10
18.590824
 20
63.219977
 30
0.0
 10
18.975162
 20
63.685879
 30
0.0
 10
19.441064
 20
64.070217
 30
0.0
 10
19.975909
 20
64.360370
 30
0.0
 10
20.567076
 20
64.543717
 30
0.0
 10
21.201944
 20
64.607638
 30
0.0
 10
21.201944
 20
64.607638
 30
0.0
  0
LWPOLYLINE
  5
106
100
AcDbEntity
  8
Calque_1
 62
7
100
AcDbPolyline
 90
34
 70
0
 10
21.201944
 20
50.637638
 30
0.0
 10
21.836813
 20
50.573717
 30
0.0
 10
22.427980
 20
50.390370
 30
0.0
 10
22.962825
 20
50.100217
 30
0.0
 10
23.428727
 20
49.715879
 30
0.0
 10
23.813065
 20
49.249977
 30
0.0
 10
24.103218
 20
48.715132
 30
0.0
 10
24.286566
 20
48.123964
 30
0.0
 10
24.350486
 20
47.489096
 30
0.0
 10
24.286566
 20
46.854227
 30
0.0
 10
24.103218
 20
46.263060
 30
0.0
 10
23.813065
 20
45.728215
 30
0.0
 10
23.428727
 20
45.262313
 30
0.0
 10
22.962825
 20
44.877975
 30
0.0
 10
22.427980
 20
44.587822
 30
0.0
 10
21.836813
 20
44.404475
 30
0.0
 10
21.201944
 20
44.340554
 30
0.0
 10
20.567076
 20
44.404475
 30
0.0
 10
19.975909
 20
44.587822
 30
0.0
 10
19.441064
 20
44.877975
 30
0.0
 10
18.975162
 20
45.262313
 30
0.0
 10
18.590824
 20
45.728215
 30
0.0
 10
18.300670
 20
46.263060
 30
0.0
 10
18.117323
 20
46.854227
 30
0.0
 10
18.053403
 20
47.489096
 30
0.0
 10
18.117323
 20
48.123964
 30
0.0
 10
18.300670
 20
48.715132
 30
0.0
 10
18.590824
 20
49.249977
 30
0.0
 10
18.975162
 20
49.715879
 30
0.0
 10
19.441064
 20
50.100217
 30
0.0
 10
19.975909
 20
50.390370
 30
0.0
 10
20.567076
 20
50.573717
 30
0.0
 10
21.201944
 20
50.637638
 30
0.0
 10
21.201944
 20
50.637638
 30
0.0
  0
LWPOLYLINE
  5
107
100
AcDbEntity
  8
Calque_1
 62
7
100
AcDbPolyline
 90
34
 70
0
 10
21.201944
 20
36.667638
 30
0.0
 10
21.836813
 20
36.603717
 30
0.0
 10
22.427980
 20
36.420370
 30
0.0
 10
22.962825
 20
36.130217
 30
0.0
 10
23.428727
 20
35.745879
 30
0.0
 10
23.813065
 20
35.279977
 30
0.0
 10
24.103218
 20
34.745132
 30
0.0
 10
24.286566
 20
34.153964
 30
0.0
 10
24.350486
 20
33.519096
 30
0.0
 10
24.286566
 20
32.884227
 30
0.0
 10
24.103218
 20
32.293060
 30
0.0
 10
23.813065
 20
31.758215
 30
0.0
 10
23.428727
 20
31.292313
 30
0.0
 10
22.962825
 20
30.907975
 30
0.0
 10
22.427980
 20
30.617822
 30
0.0
 10
21.836813
 20
30.434475
 30
0.0
 10
21.201944
 20
30.370554
 30
0.0
 10
20.567076
 20
30.434475
 30
0.0
 10
19.975909
 20
30.617822
 30
0.0
 10
19.441064
 20
30.907975
 30
0.0
 10
18.975162
 20
31.292313
 30
0.0
 10
18.590824
 20
31.758215
 30
0.0
 10
18.300670
 20
32.293060
 30
0.0
 10
18.117323
 20
32.884227
 30
0.0
 10
18.053403
 20
33.519096
 30
0.0
 10
18.117323
 20
34.153964
 30
0.0
 10
18.300670
 20
34.745132
 30
0.0
 10
18.590824
 20
35.279977
 30
0.0
 10
18.975162
 20
35.745879
 30
0.0
 10
19.441064
 20
36.130217
 30
0.0
 10
19.975909
 20
36.420370
 30
0.0
 10
20.567076
 20
36.603717
 30
0.0
 10
21.201944
 20
36.667638
 30
0.0
 10
21.201944
 20
36.667638
 30
0.0
  0
LWPOLYLINE
  5
108
100
AcDbEntity
  8
Calque_1
 62
7
100
AcDbPolyline
 90
34
 70
0
 10
21.201944
 20
21.850971
 30
0.0
 10
21.836718
 20
21.787037
 30
0.0
 10
22.427841
 20
21.603657
 30
0.0
 10
22.962680
 20
21.313463
 30
0.0
 10
23.428604
 20
20.929088
 30
0.0
 10
23.812978
 20
20.463165
 30
0.0
 10
24.103172
 20
19.928326
 30
0.0
 10
24.286552
 20
19.337203
 30
0.0
 10
24.350486
 20
18.702429
 30
0.0
 10
24.286552
 20
18.067655
 30
0.0
 10
24.103172
 20
17.476533
 30
0.0
 10
23.812978
 20
16.941693
 30
0.0
 10
23.428604
 20
16.475770
 30
0.0
 10
22.962680
 20
16.091395
 30
0.0
 10
22.427841
 20
15.801202
 30
0.0
 10
21.836718
 20
15.617821
 30
0.0
 10
21.201944
 20
15.553888
 30
0.0
 10
20.567171
 20
15.617821
 30
0.0
 10
19.976048
 20
15.801202
 30
0.0
 10
19.441209
 20
16.091395
 30
0.0
 10
18.975285
 20
16.475770
 30
0.0
 10
18.590911
 20
16.941693
 30
0.0
 10
18.300717
 20
17.476533
 30
0.0
 10
18.117337
 20
18.067655
 30
0.0
 10
18.053403
 20
18.702429
 30
0.0
 10
18.117337
 20
19.337203
 30
0.0
 10
18.300717
 20
19.928326
 30
0.0
 10
18.590911
 20
20.463165
 30
0.0
 10
18.975285
 20
20.929088
 30
0.0
 10
19.441209
 20
21.313463
 30
0.0
 10
19.976048
 20
21.603657
 30
0.0
 10
20.567171
 20
21.787037
 30
0.0
 10
21.201944
 20
21.850971
 30
0.0
 10
21.201944
 20
21.850971
 30
0.0
  0
LWPOLYLINE
  5
109
100
AcDbEntity
  8
Calque_1
 62
7
100
AcDbPolyline
 90
34
 70
0
 10
6.632222
 20
4.617776
 30
0.0
 10
6.951749
 20
4.585845
 30
0.0
 10
7.249547
 20
4.494200
 30
0.0
 10
7.519182
 20
4.349070
 30
0.0
 10
7.754219
 20
4.156682
 30
0.0
 10
7.948226
 20
3.923262
 30
0.0
 10
8.094768
 20
3.655037
 30
0.0
 10
8.187411
 20
3.358235
 30
0.0
 10
8.219722
 20
3.039082
 30
0.0
 10
8.187411
 20
2.719559
 30
0.0
 10
8.094768
 20
2.421763
 30
0.0
 10
7.948226
 20
2.152128
 30
0.0
 10
7.754219
 20
1.917090
 30
0.0
 10
7.519182
 20
1.723081
 30
0.0
 10
7.249547
 20
1.576538
 30
0.0
 10
6.951749
 20
1.483893
 30
0.0
 10
6.632222
 20
1.451582
 30
0.0
 10
6.313074
 20
1.483893
 30
0.0
 10
6.016275
 20
1.576538
 30
0.0
 10
5.748053
 20
1.723081
 30
0.0
 10
5.514635
 20
1.917090
 30
0.0
 10
5.322247
 20
2.152128
 30
0.0
 10
5.177118
 20
2.421763
 30
0.0
 10
5.085474
 20
2.719559
 30
0.0
 10
5.053542
 20
3.039082
 30
0.0
 10
5.085474
 20
3.358235
 30
0.0
 10
5.177118
 20
3.655037
 30
0.0
 10
5.322247
 20
3.923262
 30
0.0
 10
5.514635
 20
4.156682
 30
0.0
 10
5.748053
 20
4.349070
 30
0.0
 10
6.016275
 20
4.494200
 30
0.0
 10
6.313074
 20
4.585845
 30
0.0
 10
6.632222
 20
4.617776
 30
0.0
 10
6.632222
 20
4.617776
 30
0.0
  0
ENDSEC
  0
SECTION
  2
OBJECTS
  0
DICTIONARY
  5
C
330
0
100
AcDbDictionary
  3
ACAD_GROUP
350
D
  3
ACAD_MLINESTYLE
350
17
  0
DICTIONARY
  5
D
330
C
100
AcDbDictionary
  0
DICTIONARY
  5
1A
330
C
100
AcDbDictionary
  0
DICTIONARY
  5
17
330
C
100
AcDbDictionary
  3
STANDARD
350
18
  0
DICTIONARY
  5
19
330
C
100
AcDbDictionary
  0
ENDSEC
  0
EOF
