  0
SECTION
  2
HEADER
  9
$ACADVER
  1
AC1014
  9
$HANDSEED
  5
FFFF
  9
$MEASUREMENT
 70
     1
  0
ENDSEC
  0
SECTION
  2
TABLES
  0
TABLE
  2
VPORT
  5
8
330
0
100
AcDbSymbolTable
 70
     4
  0
VPORT
  5
2E
330
8
100
AcDbSymbolTableRecord
100
AcDbViewportTableRecord
  2
*ACTIVE
 70
     0
 10
0.0
 20
0.0
 11
1.0
 21
1.0
 12
210.0
 22
148.5
 13
0.0
 23
0.0
 14
10.0
 24
10.0
 15
10.0
 25
10.0
 16
0.0
 26
0.0
 36
1.0
 17
0.0
 27
0.0
 37
0.0
 40
341.0
 41
1.24
 42
50.0
 43
0.0
 44
0.0
 50
0.0
 51
0.0
 71
     0
 72
   100
 73
     1
 74
     3
 75
     0
 76
     0
 77
     0
 78
     0
  0
ENDTAB
  0
TABLE
  2
LTYPE
  5
5
330
0
100
AcDbSymbolTable
 70
     1
  0
LTYPE
  5
14
330
5
100
AcDbSymbolTableRecord
100
AcDbLinetypeTableRecord
  2
BYBLOCK
 70
     0
  3

 72
    65
 73
     0
 40
0.0
  0
LTYPE
  5
15
330
5
100
AcDbSymbolTableRecord
100
AcDbLinetypeTableRecord
  2
BYLAYER
 70
     0
  3

 72
    65
 73
     0
 40
0.0
  0
LTYPE
  5
16
330
5
100
AcDbSymbolTableRecord
100
AcDbLinetypeTableRecord
  2
CONTINUOUS
 70
     0
  3
Solid line
 72
    65
 73
     0
 40
0.0
  0
ENDTAB
  0
TABLE
  2
LAYER
  5
2
100
AcDbSymbolTable
 70
2
  0
LAYER
  5
50
100
AcDbSymbolTableRecord
100
AcDbLayerTableRecord
  2
0
 70
0
  6
CONTINUOUS
  0
LAYER
  5
51
100
AcDbSymbolTableRecord
100
AcDbLayerTableRecord
  2
Calque_1
 70
0
  6
CONTINUOUS
  0
ENDTAB
  0
TABLE
  2
STYLE
  5
3
330
0
100
AcDbSymbolTable
 70
     1
  0
STYLE
  5
11
330
3
100
AcDbSymbolTableRecord
100
AcDbTextStyleTableRecord
  2
STANDARD
 70
     0
 40
0.0
 41
1.0
 50
0.0
 71
     0
 42
2.5
  3
txt
  4

  0
ENDTAB
  0
TABLE
  2
VIEW
  5
6
330
0
100
AcDbSymbolTable
 70
     0
  0
ENDTAB
  0
TABLE
  2
UCS
  5
7
330
0
100
AcDbSymbolTable
 70
     0
  0
ENDTAB
  0
TABLE
  2
APPID
  5
9
330
0
100
AcDbSymbolTable
 70
     2
  0
APPID
  5
12
330
9
100
AcDbSymbolTableRecord
100
AcDbRegAppTableRecord
  2
ACAD
 70
     0
  0
ENDTAB
  0
TABLE
  2
DIMSTYLE
  5
A
330
0
100
AcDbSymbolTable
 70
     1
  0
DIMSTYLE
105
27
330
A
100
AcDbSymbolTableRecord
100
AcDbDimStyleTableRecord
  2
ISO-25
 70
     0
  3

  4

  5

  6

  7

 40
1.0
 41
2.5
 42
0.625
 43
3.75
 44
1.25
 45
0.0
 46
0.0
 47
0.0
 48
0.0
140
2.5
141
2.5
142
0.0
143
0.03937007874016
144
1.0
145
0.0
146
1.0
147
0.625
 71
     0
 72
     0
 73
     0
 74
     0
 75
     0
 76
     0
 77
     1
 78
     8
170
     0
171
     3
172
     1
173
     0
174
     0
175
     0
176
     0
177
     0
178
     0
270
     2
271
     2
272
     2
273
     2
274
     3
340
11
275
     0
280
     0
281
     0
282
     0
283
     0
284
     8
285
     0
286
     0
287
     3
288
     0
  0
ENDTAB
  0
TABLE
  2
BLOCK_RECORD
  5
1
330
0
100
AcDbSymbolTable
 70
     1
  0
BLOCK_RECORD
  5
1F
330
1
100
AcDbSymbolTableRecord
100
AcDbBlockTableRecord
  2
*MODEL_SPACE
  0
BLOCK_RECORD
  5
1B
330
1
100
AcDbSymbolTableRecord
100
AcDbBlockTableRecord
  2
*PAPER_SPACE
  0
ENDTAB
  0
ENDSEC
  0
SECTION
  2
BLOCKS
  0
BLOCK
  5
20
330
1F
100
AcDbEntity
  8
0
100
AcDbBlockBegin
  2
*MODEL_SPACE
 70
     0
 10
0.0
 20
0.0
 30
0.0
  3
*MODEL_SPACE
  1

  0
ENDBLK
  5
21
330
1F
100
AcDbEntity
  8
0
100
AcDbBlockEnd
  0
BLOCK
  5
1C
330
1B
100
AcDbEntity
 67
     1
  8
0
100
AcDbBlockBegin
  2
*PAPER_SPACE
  1

  0
ENDBLK
  5
1D
330
1B
100
AcDbEntity
 67
     1
  8
0
100
AcDbBlockEnd
  0
ENDSEC
  0
SECTION
  2
ENTITIES
  0
LWPOLYLINE
  5
100
100
AcDbEntity
  8
Calque_1
 62
7
100
AcDbPolyline
 90
6
 70
0
 10
0.034228
 20
128.471804
 30
0.0
 10
0.034228
 20
0.034234
 30
0.0
 10
29.967422
 20
0.034234
 30
0.0
 10
29.967422
 20
128.471804
 30
0.0
 10
0.034228
 20
128.471804
 30
0.0
 10
0.034228
 20
128.471804
 30
0.0
  0
LWPOLYLINE
  5
101
100
AcDbEntity
  8
Calque_1
 62
7
100
AcDbPolyline
 90
34
 70
0
 10
7.530756
 20
127.122429
 30
0.0
 10
7.850283
 20
127.090117
 30
0.0
 10
8.148081
 20
126.997475
 30
0.0
 10
8.417716
 20
126.850931
 30
0.0
 10
8.652753
 20
126.656926
 30
0.0
 10
8.846760
 20
126.421888
 30
0.0
 10
8.993302
 20
126.152253
 30
0.0
 10
9.085945
 20
125.854455
 30
0.0
 10
9.118256
 20
125.534929
 30
0.0
 10
9.085945
 20
125.215781
 30
0.0
 10
8.993302
 20
124.918982
 30
0.0
 10
8.846760
 20
124.650758
 30
0.0
 10
8.652753
 20
124.417340
 30
0.0
 10
8.417716
 20
124.224952
 30
0.0
 10
8.148081
 20
124.079825
 30
0.0
 10
7.850283
 20
123.988179
 30
0.0
 10
7.530756
 20
123.956248
 30
0.0
 10
7.211608
 20
123.988179
 30
0.0
 10
6.914809
 20
124.079825
 30
0.0
 10
6.646587
 20
124.224952
 30
0.0
 10
6.413169
 20
124.417340
 30
0.0
 10
6.220781
 20
124.650758
 30
0.0
 10
6.075652
 20
124.918982
 30
0.0
 10
5.984007
 20
125.215781
 30
0.0
 10
5.952075
 20
125.534929
 30
0.0
 10
5.984007
 20
125.854455
 30
0.0
 10
6.075652
 20
126.152253
 30
0.0
 10
6.220781
 20
126.421888
 30
0.0
 10
6.413169
 20
126.656926
 30
0.0
 10
6.646587
 20
126.850931
 30
0.0
 10
6.914809
 20
126.997475
 30
0.0
 10
7.211608
 20
127.090117
 30
0.0
 10
7.530756
 20
127.122429
 30
0.0
 10
7.530756
 20
127.122429
 30
0.0
  0
LWPOLYLINE
  5
102
100
AcDbEntity
  8
Calque_1
 62
7
100
AcDbPolyline
 90
6
 70
0
 10
15.044923
 20
118.056040
 30
0.0
 10
26.457284
 20
118.056040
 30
0.0
 10
26.457284
 20
105.647081
 30
0.0
 10
15.044923
 20
105.647081
 30
0.0
 10
15.044923
 20
118.056040
 30
0.0
 10
15.044923
 20
118.056040
 30
0.0
  0
LWPOLYLINE
  5
103
100
AcDbEntity
  8
Calque_1
 62
7
100
AcDbPolyline
 90
66
 70
0
 10
13.166381
 20
101.493123
 30
0.0
 10
13.689805
 20
101.466622
 30
0.0
 10
14.198220
 20
101.388887
 30
0.0
 10
14.689037
 20
101.262488
 30
0.0
 10
15.159669
 20
101.090020
 30
0.0
 10
15.607525
 20
100.874069
 30
0.0
 10
16.030018
 20
100.617221
 30
0.0
 10
16.424560
 20
100.322065
 30
0.0
 10
16.788561
 20
99.991193
 30
0.0
 10
17.119432
 20
99.627194
 30
0.0
 10
17.414587
 20
99.232653
 30
0.0
 10
17.671434
 20
98.810158
 30
0.0
 10
17.887387
 20
98.362302
 30
0.0
 10
18.059857
 20
97.891671
 30
0.0
 10
18.186254
 20
97.400853
 30
0.0
 10
18.263991
 20
96.892438
 30
0.0
 10
18.290477
 20
96.369015
 30
0.0
 10
18.263991
 20
95.845690
 30
0.0
 10
18.186254
 20
95.337555
 30
0.0
 10
18.059857
 20
94.847171
 30
0.0
 10
17.887387
 20
94.377104
 30
0.0
 10
17.671434
 20
93.929915
 30
0.0
 10
17.414587
 20
93.508167
 30
0.0
 10
17.119432
 20
93.114422
 30
0.0
 10
16.788561
 20
92.751245
 30
0.0
 10
16.424560
 20
92.421194
 30
0.0
 10
16.030018
 20
92.126836
 30
0.0
 10
15.607525
 20
91.870734
 30
0.0
 10
15.159669
 20
91.655449
 30
0.0
 10
14.689037
 20
91.483545
 30
0.0
 10
14.198220
 20
91.357581
 30
0.0
 10
13.689805
 20
91.280125
 30
0.0
 10
13.166381
 20
91.253737
 30
0.0
 10
12.643056
 20
91.280125
 30
0.0
 10
12.134921
 20
91.357581
 30
0.0
 10
11.644539
 20
91.483545
 30
0.0
 10
11.174471
 20
91.655449
 30
0.0
 10
10.727282
 20
91.870734
 30
0.0
 10
10.305534
 20
92.126836
 30
0.0
 10
9.911790
 20
92.421194
 30
0.0
 10
9.548611
 20
92.751245
 30
0.0
 10
9.218562
 20
93.114422
 30
0.0
 10
8.924204
 20
93.508167
 30
0.0
 10
8.668102
 20
93.929915
 30
0.0
 10
8.452816
 20
94.377104
 30
0.0
 10
8.280911
 20
94.847171
 30
0.0
 10
8.154949
 20
95.337555
 30
0.0
 10
8.077492
 20
95.845690
 30
0.0
 10
8.051104
 20
96.369015
 30
0.0
 10
8.077492
 20
96.892438
 30
0.0
 10
8.154949
 20
97.400853
 30
0.0
 10
8.280911
 20
97.891671
 30
0.0
 10
8.452816
 20
98.362302
 30
0.0
 10
8.668102
 20
98.810158
 30
0.0
 10
8.924204
 20
99.232653
 30
0.0
 10
9.218562
 20
99.627194
 30
0.0
 10
9.548611
 20
99.991193
 30
0.0
 10
9.911790
 20
100.322065
 30
0.0
 10
10.305534
 20
100.617221
 30
0.0
 10
10.727282
 20
100.874069
 30
0.0
 10
11.174471
 20
101.090020
 30
0.0
 10
11.644539
 20
101.262488
 30
0.0
 10
12.134921
 20
101.388887
 30
0.0
 10
12.643056
 20
101.466622
 30
0.0
 10
13.166381
 20
101.493123
 30
0.0
 10
13.166381
 20
101.493123
 30
0.0
  0
LWPOLYLINE
  5
104
100
AcDbEntity
  8
Calque_1
 62
7
100
AcDbPolyline
 90
66
 70
0
 10
13.166381
 20
81.287776
 30
0.0
 10
13.689805
 20
81.261388
 30
0.0
 10
14.198220
 20
81.183929
 30
0.0
 10
14.689037
 20
81.057968
 30
0.0
 10
15.159669
 20
80.886064
 30
0.0
 10
15.607525
 20
80.670776
 30
0.0
 10
16.030018
 20
80.414674
 30
0.0
 10
16.424560
 20
80.120316
 30
0.0
 10
16.788561
 20
79.790268
 30
0.0
 10
17.119432
 20
79.427090
 30
0.0
 10
17.414587
 20
79.033345
 30
0.0
 10
17.671434
 20
78.611595
 30
0.0
 10
17.887387
 20
78.164408
 30
0.0
 10
18.059857
 20
77.694339
 30
0.0
 10
18.186254
 20
77.203958
 30
0.0
 10
18.263991
 20
76.695823
 30
0.0
 10
18.290477
 20
76.172498
 30
0.0
 10
18.263991
 20
75.649075
 30
0.0
 10
18.186254
 20
75.140657
 30
0.0
 10
18.059857
 20
74.649842
 30
0.0
 10
17.887387
 20
74.179211
 30
0.0
 10
17.671434
 20
73.731352
 30
0.0
 10
17.414587
 20
73.308860
 30
0.0
 10
17.119432
 20
72.914319
 30
0.0
 10
16.788561
 20
72.550317
 30
0.0
 10
16.424560
 20
72.219445
 30
0.0
 10
16.030018
 20
71.924292
 30
0.0
 10
15.607525
 20
71.667444
 30
0.0
 10
15.159669
 20
71.451490
 30
0.0
 10
14.689037
 20
71.279022
 30
0.0
 10
14.198220
 20
71.152626
 30
0.0
 10
13.689805
 20
71.074887
 30
0.0
 10
13.166381
 20
71.048415
 30
0.0
 10
12.643056
 20
71.074887
 30
0.0
 10
12.134921
 20
71.152626
 30
0.0
 10
11.644539
 20
71.279022
 30
0.0
 10
11.174471
 20
71.451490
 30
0.0
 10
10.727282
 20
71.667444
 30
0.0
 10
10.305534
 20
71.924292
 30
0.0
 10
9.911790
 20
72.219445
 30
0.0
 10
9.548611
 20
72.550317
 30
0.0
 10
9.218562
 20
72.914319
 30
0.0
 10
8.924204
 20
73.308860
 30
0.0
 10
8.668102
 20
73.731352
 30
0.0
 10
8.452816
 20
74.179211
 30
0.0
 10
8.280911
 20
74.649842
 30
0.0
 10
8.154949
 20
75.140657
 30
0.0
 10
8.077492
 20
75.649075
 30
0.0
 10
8.051104
 20
76.172498
 30
0.0
 10
8.077492
 20
76.695823
 30
0.0
 10
8.154949
 20
77.203958
 30
0.0
 10
8.280911
 20
77.694339
 30
0.0
 10
8.452816
 20
78.164408
 30
0.0
 10
8.668102
 20
78.611595
 30
0.0
 10
8.924204
 20
79.033345
 30
0.0
 10
9.218562
 20
79.427090
 30
0.0
 10
9.548611
 20
79.790268
 30
0.0
 10
9.911790
 20
80.120316
 30
0.0
 10
10.305534
 20
80.414674
 30
0.0
 10
10.727282
 20
80.670776
 30
0.0
 10
11.174471
 20
80.886064
 30
0.0
 10
11.644539
 20
81.057968
 30
0.0
 10
12.134921
 20
81.183929
 30
0.0
 10
12.643056
 20
81.261388
 30
0.0
 10
13.166381
 20
81.287776
 30
0.0
 10
13.166381
 20
81.287776
 30
0.0
  0
LWPOLYLINE
  5
105
100
AcDbEntity
  8
Calque_1
 62
7
100
AcDbPolyline
 90
34
 70
0
 10
21.200895
 20
64.610206
 30
0.0
 10
21.835763
 20
64.546286
 30
0.0
 10
22.426931
 20
64.362937
 30
0.0
 10
22.961776
 20
64.072785
 30
0.0
 10
23.427678
 20
63.688446
 30
0.0
 10
23.812016
 20
63.222545
 30
0.0
 10
24.102169
 20
62.687700
 30
0.0
 10
24.285516
 20
62.096532
 30
0.0
 10
24.349437
 20
61.461665
 30
0.0
 10
24.285516
 20
60.826795
 30
0.0
 10
24.102169
 20
60.235629
 30
0.0
 10
23.812016
 20
59.700784
 30
0.0
 10
23.427678
 20
59.234881
 30
0.0
 10
22.961776
 20
58.850542
 30
0.0
 10
22.426931
 20
58.560389
 30
0.0
 10
21.835763
 20
58.377044
 30
0.0
 10
21.200895
 20
58.313123
 30
0.0
 10
20.566027
 20
58.377044
 30
0.0
 10
19.974859
 20
58.560389
 30
0.0
 10
19.440014
 20
58.850542
 30
0.0
 10
18.974112
 20
59.234881
 30
0.0
 10
18.589774
 20
59.700784
 30
0.0
 10
18.299621
 20
60.235629
 30
0.0
 10
18.116274
 20
60.826795
 30
0.0
 10
18.052353
 20
61.461665
 30
0.0
 10
18.116274
 20
62.096532
 30
0.0
 10
18.299621
 20
62.687700
 30
0.0
 10
18.589774
 20
63.222545
 30
0.0
 10
18.974112
 20
63.688446
 30
0.0
 10
19.440014
 20
64.072785
 30
0.0
 10
19.974859
 20
64.362937
 30
0.0
 10
20.566027
 20
64.546286
 30
0.0
 10
21.200895
 20
64.610206
 30
0.0
 10
21.200895
 20
64.610206
 30
0.0
  0
LWPOLYLINE
  5
106
100
AcDbEntity
  8
Calque_1
 62
7
100
AcDbPolyline
 90
34
 70
0
 10
21.200895
 20
50.640206
 30
0.0
 10
21.835763
 20
50.576286
 30
0.0
 10
22.426931
 20
50.392937
 30
0.0
 10
22.961776
 20
50.102785
 30
0.0
 10
23.427678
 20
49.718446
 30
0.0
 10
23.812016
 20
49.252545
 30
0.0
 10
24.102169
 20
48.717700
 30
0.0
 10
24.285516
 20
48.126532
 30
0.0
 10
24.349437
 20
47.491665
 30
0.0
 10
24.285516
 20
46.856795
 30
0.0
 10
24.102169
 20
46.265629
 30
0.0
 10
23.812016
 20
45.730784
 30
0.0
 10
23.427678
 20
45.264881
 30
0.0
 10
22.961776
 20
44.880542
 30
0.0
 10
22.426931
 20
44.590389
 30
0.0
 10
21.835763
 20
44.407044
 30
0.0
 10
21.200895
 20
44.343123
 30
0.0
 10
20.566027
 20
44.407044
 30
0.0
 10
19.974859
 20
44.590389
 30
0.0
 10
19.440014
 20
44.880542
 30
0.0
 10
18.974112
 20
45.264881
 30
0.0
 10
18.589774
 20
45.730784
 30
0.0
 10
18.299621
 20
46.265629
 30
0.0
 10
18.116274
 20
46.856795
 30
0.0
 10
18.052353
 20
47.491665
 30
0.0
 10
18.116274
 20
48.126532
 30
0.0
 10
18.299621
 20
48.717700
 30
0.0
 10
18.589774
 20
49.252545
 30
0.0
 10
18.974112
 20
49.718446
 30
0.0
 10
19.440014
 20
50.102785
 30
0.0
 10
19.974859
 20
50.392937
 30
0.0
 10
20.566027
 20
50.576286
 30
0.0
 10
21.200895
 20
50.640206
 30
0.0
 10
21.200895
 20
50.640206
 30
0.0
  0
LWPOLYLINE
  5
107
100
AcDbEntity
  8
Calque_1
 62
7
100
AcDbPolyline
 90
34
 70
0
 10
21.200895
 20
36.670206
 30
0.0
 10
21.835763
 20
36.606286
 30
0.0
 10
22.426931
 20
36.422937
 30
0.0
 10
22.961776
 20
36.132785
 30
0.0
 10
23.427678
 20
35.748446
 30
0.0
 10
23.812016
 20
35.282545
 30
0.0
 10
24.102169
 20
34.747700
 30
0.0
 10
24.285516
 20
34.156532
 30
0.0
 10
24.349437
 20
33.521665
 30
0.0
 10
24.285516
 20
32.886795
 30
0.0
 10
24.102169
 20
32.295629
 30
0.0
 10
23.812016
 20
31.760784
 30
0.0
 10
23.427678
 20
31.294881
 30
0.0
 10
22.961776
 20
30.910542
 30
0.0
 10
22.426931
 20
30.620389
 30
0.0
 10
21.835763
 20
30.437044
 30
0.0
 10
21.200895
 20
30.373123
 30
0.0
 10
20.566027
 20
30.437044
 30
0.0
 10
19.974859
 20
30.620389
 30
0.0
 10
19.440014
 20
30.910542
 30
0.0
 10
18.974112
 20
31.294881
 30
0.0
 10
18.589774
 20
31.760784
 30
0.0
 10
18.299621
 20
32.295629
 30
0.0
 10
18.116274
 20
32.886795
 30
0.0
 10
18.052353
 20
33.521665
 30
0.0
 10
18.116274
 20
34.156532
 30
0.0
 10
18.299621
 20
34.747700
 30
0.0
 10
18.589774
 20
35.282545
 30
0.0
 10
18.974112
 20
35.748446
 30
0.0
 10
19.440014
 20
36.132785
 30
0.0
 10
19.974859
 20
36.422937
 30
0.0
 10
20.566027
 20
36.606286
 30
0.0
 10
21.200895
 20
36.670206
 30
0.0
 10
21.200895
 20
36.670206
 30
0.0
  0
LWPOLYLINE
  5
108
100
AcDbEntity
  8
Calque_1
 62
7
100
AcDbPolyline
 90
34
 70
0
 10
21.200895
 20
21.853540
 30
0.0
 10
21.835669
 20
21.789605
 30
0.0
 10
22.426791
 20
21.606226
 30
0.0
 10
22.961631
 20
21.316031
 30
0.0
 10
23.427554
 20
20.931655
 30
0.0
 10
23.811929
 20
20.465735
 30
0.0
 10
24.102123
 20
19.930895
 30
0.0
 10
24.285503
 20
19.339772
 30
0.0
 10
24.349437
 20
18.704998
 30
0.0
 10
24.285503
 20
18.070224
 30
0.0
 10
24.102123
 20
17.479101
 30
0.0
 10
23.811929
 20
16.944262
 30
0.0
 10
23.427554
 20
16.478338
 30
0.0
 10
22.961631
 20
16.093963
 30
0.0
 10
22.426791
 20
15.803771
 30
0.0
 10
21.835669
 20
15.620388
 30
0.0
 10
21.200895
 20
15.556456
 30
0.0
 10
20.566121
 20
15.620388
 30
0.0
 10
19.974999
 20
15.803771
 30
0.0
 10
19.440159
 20
16.093963
 30
0.0
 10
18.974236
 20
16.478338
 30
0.0
 10
18.589861
 20
16.944262
 30
0.0
 10
18.299667
 20
17.479101
 30
0.0
 10
18.116287
 20
18.070224
 30
0.0
 10
18.052353
 20
18.704998
 30
0.0
 10
18.116287
 20
19.339772
 30
0.0
 10
18.299667
 20
19.930895
 30
0.0
 10
18.589861
 20
20.465735
 30
0.0
 10
18.974236
 20
20.931655
 30
0.0
 10
19.440159
 20
21.316031
 30
0.0
 10
19.974999
 20
21.606226
 30
0.0
 10
20.566121
 20
21.789605
 30
0.0
 10
21.200895
 20
21.853540
 30
0.0
 10
21.200895
 20
21.853540
 30
0.0
  0
LWPOLYLINE
  5
109
100
AcDbEntity
  8
Calque_1
 62
7
100
AcDbPolyline
 90
34
 70
0
 10
6.631173
 20
4.620345
 30
0.0
 10
6.950700
 20
4.588426
 30
0.0
 10
7.248498
 20
4.496760
 30
0.0
 10
7.518132
 20
4.351642
 30
0.0
 10
7.753170
 20
4.159251
 30
0.0
 10
7.947177
 20
3.925825
 30
0.0
 10
8.093718
 20
3.657601
 30
0.0
 10
8.186362
 20
3.360816
 30
0.0
 10
8.218673
 20
3.041651
 30
0.0
 10
8.186362
 20
2.722119
 30
0.0
 10
8.093718
 20
2.424318
 30
0.0
 10
7.947177
 20
2.154683
 30
0.0
 10
7.753170
 20
1.919648
 30
0.0
 10
7.518132
 20
1.725648
 30
0.0
 10
7.248498
 20
1.579119
 30
0.0
 10
6.950700
 20
1.486465
 30
0.0
 10
6.631173
 20
1.454151
 30
0.0
 10
6.312024
 20
1.486465
 30
0.0
 10
6.015226
 20
1.579119
 30
0.0
 10
5.747004
 20
1.725648
 30
0.0
 10
5.513585
 20
1.919648
 30
0.0
 10
5.321198
 20
2.154683
 30
0.0
 10
5.176068
 20
2.424318
 30
0.0
 10
5.084424
 20
2.722119
 30
0.0
 10
5.052492
 20
3.041651
 30
0.0
 10
5.084424
 20
3.360816
 30
0.0
 10
5.176068
 20
3.657601
 30
0.0
 10
5.321198
 20
3.925825
 30
0.0
 10
5.513585
 20
4.159251
 30
0.0
 10
5.747004
 20
4.351642
 30
0.0
 10
6.015226
 20
4.496760
 30
0.0
 10
6.312024
 20
4.588426
 30
0.0
 10
6.631173
 20
4.620345
 30
0.0
 10
6.631173
 20
4.620345
 30
0.0
  0
ENDSEC
  0
SECTION
  2
OBJECTS
  0
DICTIONARY
  5
C
330
0
100
AcDbDictionary
  3
ACAD_GROUP
350
D
  3
ACAD_MLINESTYLE
350
17
  0
DICTIONARY
  5
D
330
C
100
AcDbDictionary
  0
DICTIONARY
  5
1A
330
C
100
AcDbDictionary
  0
DICTIONARY
  5
17
330
C
100
AcDbDictionary
  3
STANDARD
350
18
  0
DICTIONARY
  5
19
330
C
100
AcDbDictionary
  0
ENDSEC
  0
EOF
