999
Inkscape export via "Better DXF Output" (bob@bobcookdev.com)
  0
SECTION
  2
HEADER
  9
$ACADVER
  1
AC1014
  9
$HANDSEED
  5
FFFF
  0
ENDSEC
  0
SECTION
  2
TABLES
  0
TABLE
  2
VPORT
  5
8
330
0
100
AcDbSymbolTable
 70
     4
  0
VPORT
  5
2E
330
8
100
AcDbSymbolTableRecord
100
AcDbViewportTableRecord
  2
*ACTIVE
 70
     0
 10
0.0
 20
0.0
 11
1.0
 21
1.0
 12
4.25
 22
5.5
 13
0.0
 23
0.0
 14
10.0
 24
10.0
 15
10.0
 25
10.0
 16
0.0
 26
0.0
 36
1.0
 17
0.0
 27
0.0
 37
0.0
 40
11
 41
1.24
 42
50.0
 43
0.0
 44
0.0
 50
0.0
 51
0.0
 71
     0
 72
   100
 73
     1
 74
     3
 75
     0
 76
     0
 77
     0
 78
     0
  0
ENDTAB
  0
TABLE
  2
LTYPE
  5
5
330
0
100
AcDbSymbolTable
 70
     1
  0
LTYPE
  5
14
330
5
100
AcDbSymbolTableRecord
100
AcDbLinetypeTableRecord
  2
BYBLOCK
 70
     0
  3

 72
    65
 73
     0
 40
0.0
  0
LTYPE
  5
15
330
5
100
AcDbSymbolTableRecord
100
AcDbLinetypeTableRecord
  2
BYLAYER
 70
     0
  3

 72
    65
 73
     0
 40
0.0
  0
LTYPE
  5
16
330
5
100
AcDbSymbolTableRecord
100
AcDbLinetypeTableRecord
  2
CONTINUOUS
 70
     0
  3
Solid line
 72
    65
 73
     0
 40
0.0
  0
ENDTAB
  0
TABLE
  2
LAYER
  5
2
330
0
100
AcDbSymbolTable
 70
1
  0
LAYER
  5
10
330
2
100
AcDbSymbolTableRecord
100
AcDbLayerTableRecord
  2
0
 70
     0
 62
     7
  6
CONTINUOUS
  0
ENDTAB
  0
TABLE
  2
STYLE
  5
3
330
0
100
AcDbSymbolTable
 70
     1
  0
STYLE
  5
11
330
3
100
AcDbSymbolTableRecord
100
AcDbTextStyleTableRecord
  2
STANDARD
 70
     0
 40
0.0
 41
1.0
 50
0.0
 71
     0
 42
2.5
  3
txt
  4

  0
ENDTAB
  0
TABLE
  2
VIEW
  5
6
330
0
100
AcDbSymbolTable
 70
     0
  0
ENDTAB
  0
TABLE
  2
UCS
  5
7
330
0
100
AcDbSymbolTable
 70
     0
  0
ENDTAB
  0
TABLE
  2
APPID
  5
9
330
0
100
AcDbSymbolTable
 70
     2
  0
APPID
  5
12
330
9
100
AcDbSymbolTableRecord
100
AcDbRegAppTableRecord
  2
ACAD
 70
     0
  0
ENDTAB
  0
TABLE
  2
DIMSTYLE
  5
A
330
0
100
AcDbSymbolTable
 70
     1
  0
DIMSTYLE
105
27
330
A
100
AcDbSymbolTableRecord
100
AcDbDimStyleTableRecord
  2
ISO-25
 70
     0
  3

  4

  5

  6

  7

 40
1.0
 41
2.5
 42
0.625
 43
3.75
 44
1.25
 45
0.0
 46
0.0
 47
0.0
 48
0.0
140
2.5
141
2.5
142
0.0
143
0.03937007874016
144
1.0
145
0.0
146
1.0
147
0.625
 71
     0
 72
     0
 73
     0
 74
     0
 75
     0
 76
     0
 77
     1
 78
     8
170
     0
171
     3
172
     1
173
     0
174
     0
175
     0
176
     0
177
     0
178
     0
270
     2
271
     2
272
     2
273
     2
274
     3
340
11
275
     0
280
     0
281
     0
282
     0
283
     0
284
     8
285
     0
286
     0
287
     3
288
     0
  0
ENDTAB
  0
TABLE
  2
BLOCK_RECORD
  5
1
330
0
100
AcDbSymbolTable
 70
     1
  0
BLOCK_RECORD
  5
1F
330
1
100
AcDbSymbolTableRecord
100
AcDbBlockTableRecord
  2
*MODEL_SPACE
  0
BLOCK_RECORD
  5
1B
330
1
100
AcDbSymbolTableRecord
100
AcDbBlockTableRecord
  2
*PAPER_SPACE
  0
ENDTAB
  0
ENDSEC
  0
SECTION
  2
BLOCKS
  0
BLOCK
  5
20
330
1F
100
AcDbEntity
  8
0
100
AcDbBlockBegin
  2
*MODEL_SPACE
 70
     0
 10
0.0
 20
0.0
 30
0.0
  3
*MODEL_SPACE
  1

  0
ENDBLK
  5
21
330
1F
100
AcDbEntity
  8
0
100
AcDbBlockEnd
  0
BLOCK
  5
1C
330
1B
100
AcDbEntity
 67
     1
  8
0
100
AcDbBlockBegin
  2
*PAPER_SPACE
  1

  0
ENDBLK
  5
1D
330
1B
100
AcDbEntity
 67
     1
  8
0
100
AcDbBlockEnd
  0
ENDSEC
  0
SECTION
  2
ENTITIES
0
LINE
8
Layer 1
62
4
5
100
100
AcDbEntity
100
AcDbLine
10
0.052917
20
128.442778
30
0.0
11
0.052917
21
0.049306
31
0.0
0
LINE
8
Layer 1
62
4
5
101
100
AcDbEntity
100
AcDbLine
10
0.052917
20
0.049306
30
0.0
11
50.747083
21
0.049306
31
0.0
0
LINE
8
Layer 1
62
4
5
102
100
AcDbEntity
100
AcDbLine
10
50.747083
20
0.049306
30
0.0
11
50.747083
21
128.442778
31
0.0
0
LINE
8
Layer 1
62
4
5
103
100
AcDbEntity
100
AcDbLine
10
50.747083
20
128.442778
30
0.0
11
0.052917
21
128.442778
31
0.0
0
LINE
8
Layer 1
62
4
5
104
100
AcDbEntity
100
AcDbLine
10
0.052917
20
128.442778
30
0.0
11
0.052917
21
128.442778
31
0.0
0
LINE
8
Layer 1
62
4
5
105
100
AcDbEntity
100
AcDbLine
10
7.496528
20
127.181597
30
0.0
11
8.152390
21
127.049277
31
0.0
0
LINE
8
Layer 1
62
4
5
106
100
AcDbEntity
100
AcDbLine
10
8.152390
20
127.049277
30
0.0
11
8.687813
21
126.688368
31
0.0
0
LINE
8
Layer 1
62
4
5
107
100
AcDbEntity
100
AcDbLine
10
8.687813
20
126.688368
30
0.0
11
9.048722
21
126.152945
31
0.0
0
LINE
8
Layer 1
62
4
5
108
100
AcDbEntity
100
AcDbLine
10
9.048722
20
126.152945
30
0.0
11
9.181042
21
125.497083
31
0.0
0
LINE
8
Layer 1
62
4
5
109
100
AcDbEntity
100
AcDbLine
10
9.181042
20
125.497083
30
0.0
11
9.048722
21
124.841222
31
0.0
0
LINE
8
Layer 1
62
4
5
10a
100
AcDbEntity
100
AcDbLine
10
9.048722
20
124.841222
30
0.0
11
8.687813
21
124.305799
31
0.0
0
LINE
8
Layer 1
62
4
5
10b
100
AcDbEntity
100
AcDbLine
10
8.687813
20
124.305799
30
0.0
11
8.152390
21
123.944889
31
0.0
0
LINE
8
Layer 1
62
4
5
10c
100
AcDbEntity
100
AcDbLine
10
8.152390
20
123.944889
30
0.0
11
7.496528
21
123.812569
31
0.0
0
LINE
8
Layer 1
62
4
5
10d
100
AcDbEntity
100
AcDbLine
10
7.496528
20
123.812569
30
0.0
11
6.840666
21
123.944889
31
0.0
0
LINE
8
Layer 1
62
4
5
10e
100
AcDbEntity
100
AcDbLine
10
6.840666
20
123.944889
30
0.0
11
6.305243
21
124.305799
31
0.0
0
LINE
8
Layer 1
62
4
5
10f
100
AcDbEntity
100
AcDbLine
10
6.305243
20
124.305799
30
0.0
11
5.944334
21
124.841222
31
0.0
0
LINE
8
Layer 1
62
4
5
110
100
AcDbEntity
100
AcDbLine
10
5.944334
20
124.841222
30
0.0
11
5.812014
21
125.497083
31
0.0
0
LINE
8
Layer 1
62
4
5
111
100
AcDbEntity
100
AcDbLine
10
5.812014
20
125.497083
30
0.0
11
5.944334
21
126.152945
31
0.0
0
LINE
8
Layer 1
62
4
5
112
100
AcDbEntity
100
AcDbLine
10
5.944334
20
126.152945
30
0.0
11
6.305243
21
126.688368
31
0.0
0
LINE
8
Layer 1
62
4
5
113
100
AcDbEntity
100
AcDbLine
10
6.305243
20
126.688368
30
0.0
11
6.840666
21
127.049277
31
0.0
0
LINE
8
Layer 1
62
4
5
114
100
AcDbEntity
100
AcDbLine
10
6.840666
20
127.049277
30
0.0
11
7.496528
21
127.181597
31
0.0
0
LINE
8
Layer 1
62
4
5
115
100
AcDbEntity
100
AcDbLine
10
7.496528
20
127.181597
30
0.0
11
7.496528
21
127.181597
31
0.0
0
LINE
8
Layer 1
62
4
5
116
100
AcDbEntity
100
AcDbLine
10
19.032361
20
113.529097
30
0.0
11
31.582431
21
113.529097
31
0.0
0
LINE
8
Layer 1
62
4
5
117
100
AcDbEntity
100
AcDbLine
10
31.582431
20
113.529097
30
0.0
11
31.582431
21
95.687361
31
0.0
0
LINE
8
Layer 1
62
4
5
118
100
AcDbEntity
100
AcDbLine
10
31.582431
20
95.687361
30
0.0
11
19.032361
21
95.687361
31
0.0
0
LINE
8
Layer 1
62
4
5
119
100
AcDbEntity
100
AcDbLine
10
19.032361
20
95.687361
30
0.0
11
19.032361
21
113.529097
31
0.0
0
LINE
8
Layer 1
62
4
5
11a
100
AcDbEntity
100
AcDbLine
10
19.032361
20
113.529097
30
0.0
11
19.032361
21
113.529097
31
0.0
0
LINE
8
Layer 1
62
4
5
11b
100
AcDbEntity
100
AcDbLine
10
40.154931
20
113.149861
30
0.0
11
41.497387
21
112.878929
31
0.0
0
LINE
8
Layer 1
62
4
5
11c
100
AcDbEntity
100
AcDbLine
10
41.497387
20
112.878929
30
0.0
11
42.593482
21
112.140009
31
0.0
0
LINE
8
Layer 1
62
4
5
11d
100
AcDbEntity
100
AcDbLine
10
42.593482
20
112.140009
30
0.0
11
43.332401
21
111.043915
31
0.0
0
LINE
8
Layer 1
62
4
5
11e
100
AcDbEntity
100
AcDbLine
10
43.332401
20
111.043915
30
0.0
11
43.603333
21
109.701458
31
0.0
0
LINE
8
Layer 1
62
4
5
11f
100
AcDbEntity
100
AcDbLine
10
43.603333
20
109.701458
30
0.0
11
43.332401
21
108.359002
31
0.0
0
LINE
8
Layer 1
62
4
5
120
100
AcDbEntity
100
AcDbLine
10
43.332401
20
108.359002
30
0.0
11
42.593482
21
107.262907
31
0.0
0
LINE
8
Layer 1
62
4
5
121
100
AcDbEntity
100
AcDbLine
10
42.593482
20
107.262907
30
0.0
11
41.497387
21
106.523987
31
0.0
0
LINE
8
Layer 1
62
4
5
122
100
AcDbEntity
100
AcDbLine
10
41.497387
20
106.523987
30
0.0
11
40.154931
21
106.253056
31
0.0
0
LINE
8
Layer 1
62
4
5
123
100
AcDbEntity
100
AcDbLine
10
40.154931
20
106.253056
30
0.0
11
38.812474
21
106.523987
31
0.0
0
LINE
8
Layer 1
62
4
5
124
100
AcDbEntity
100
AcDbLine
10
38.812474
20
106.523987
30
0.0
11
37.716380
21
107.262907
31
0.0
0
LINE
8
Layer 1
62
4
5
125
100
AcDbEntity
100
AcDbLine
10
37.716380
20
107.262907
30
0.0
11
36.977460
21
108.359002
31
0.0
0
LINE
8
Layer 1
62
4
5
126
100
AcDbEntity
100
AcDbLine
10
36.977460
20
108.359002
30
0.0
11
36.706528
21
109.701458
31
0.0
0
LINE
8
Layer 1
62
4
5
127
100
AcDbEntity
100
AcDbLine
10
36.706528
20
109.701458
30
0.0
11
36.977460
21
111.043915
31
0.0
0
LINE
8
Layer 1
62
4
5
128
100
AcDbEntity
100
AcDbLine
10
36.977460
20
111.043915
30
0.0
11
37.716380
21
112.140009
31
0.0
0
LINE
8
Layer 1
62
4
5
129
100
AcDbEntity
100
AcDbLine
10
37.716380
20
112.140009
30
0.0
11
38.812474
21
112.878929
31
0.0
0
LINE
8
Layer 1
62
4
5
12a
100
AcDbEntity
100
AcDbLine
10
38.812474
20
112.878929
30
0.0
11
40.154931
21
113.149861
31
0.0
0
LINE
8
Layer 1
62
4
5
12b
100
AcDbEntity
100
AcDbLine
10
40.154931
20
113.149861
30
0.0
11
40.154931
21
113.149861
31
0.0
0
LINE
8
Layer 1
62
4
5
12c
100
AcDbEntity
100
AcDbLine
10
10.362847
20
113.114583
30
0.0
11
11.706681
21
112.843651
31
0.0
0
LINE
8
Layer 1
62
4
5
12d
100
AcDbEntity
100
AcDbLine
10
11.706681
20
112.843651
30
0.0
11
12.805808
21
112.104732
31
0.0
0
LINE
8
Layer 1
62
4
5
12e
100
AcDbEntity
100
AcDbLine
10
12.805808
20
112.104732
30
0.0
11
13.547760
21
111.008637
31
0.0
0
LINE
8
Layer 1
62
4
5
12f
100
AcDbEntity
100
AcDbLine
10
13.547760
20
111.008637
30
0.0
11
13.820069
21
109.666181
31
0.0
0
LINE
8
Layer 1
62
4
5
130
100
AcDbEntity
100
AcDbLine
10
13.820069
20
109.666181
30
0.0
11
13.547760
21
108.323724
31
0.0
0
LINE
8
Layer 1
62
4
5
131
100
AcDbEntity
100
AcDbLine
10
13.547760
20
108.323724
30
0.0
11
12.805808
21
107.227630
31
0.0
0
LINE
8
Layer 1
62
4
5
132
100
AcDbEntity
100
AcDbLine
10
12.805808
20
107.227630
30
0.0
11
11.706681
21
106.488710
31
0.0
0
LINE
8
Layer 1
62
4
5
133
100
AcDbEntity
100
AcDbLine
10
11.706681
20
106.488710
30
0.0
11
10.362847
21
106.217778
31
0.0
0
LINE
8
Layer 1
62
4
5
134
100
AcDbEntity
100
AcDbLine
10
10.362847
20
106.217778
30
0.0
11
9.020391
21
106.488710
31
0.0
0
LINE
8
Layer 1
62
4
5
135
100
AcDbEntity
100
AcDbLine
10
9.020391
20
106.488710
30
0.0
11
7.924296
21
107.227630
31
0.0
0
LINE
8
Layer 1
62
4
5
136
100
AcDbEntity
100
AcDbLine
10
7.924296
20
107.227630
30
0.0
11
7.185376
21
108.323724
31
0.0
0
LINE
8
Layer 1
62
4
5
137
100
AcDbEntity
100
AcDbLine
10
7.185376
20
108.323724
30
0.0
11
6.914444
21
109.666181
31
0.0
0
LINE
8
Layer 1
62
4
5
138
100
AcDbEntity
100
AcDbLine
10
6.914444
20
109.666181
30
0.0
11
7.185376
21
111.008637
31
0.0
0
LINE
8
Layer 1
62
4
5
139
100
AcDbEntity
100
AcDbLine
10
7.185376
20
111.008637
30
0.0
11
7.924296
21
112.104732
31
0.0
0
LINE
8
Layer 1
62
4
5
13a
100
AcDbEntity
100
AcDbLine
10
7.924296
20
112.104732
30
0.0
11
9.020391
21
112.843651
31
0.0
0
LINE
8
Layer 1
62
4
5
13b
100
AcDbEntity
100
AcDbLine
10
9.020391
20
112.843651
30
0.0
11
10.362847
21
113.114583
31
0.0
0
LINE
8
Layer 1
62
4
5
13c
100
AcDbEntity
100
AcDbLine
10
10.362847
20
113.114583
30
0.0
11
10.362847
21
113.114583
31
0.0
0
LINE
8
Layer 1
62
4
5
13d
100
AcDbEntity
100
AcDbLine
10
10.354028
20
99.647292
30
0.0
11
11.504508
21
99.415261
31
0.0
0
LINE
8
Layer 1
62
4
5
13e
100
AcDbEntity
100
AcDbLine
10
11.504508
20
99.415261
30
0.0
11
12.443584
21
98.782335
31
0.0
0
LINE
8
Layer 1
62
4
5
13f
100
AcDbEntity
100
AcDbLine
10
12.443584
20
98.782335
30
0.0
11
13.076511
21
97.843258
31
0.0
0
LINE
8
Layer 1
62
4
5
140
100
AcDbEntity
100
AcDbLine
10
13.076511
20
97.843258
30
0.0
11
13.308542
21
96.692778
31
0.0
0
LINE
8
Layer 1
62
4
5
141
100
AcDbEntity
100
AcDbLine
10
13.308542
20
96.692778
30
0.0
11
13.076511
21
95.540920
31
0.0
0
LINE
8
Layer 1
62
4
5
142
100
AcDbEntity
100
AcDbLine
10
13.076511
20
95.540920
30
0.0
11
12.443584
21
94.598811
31
0.0
0
LINE
8
Layer 1
62
4
5
143
100
AcDbEntity
100
AcDbLine
10
12.443584
20
94.598811
30
0.0
11
11.504508
21
93.962853
31
0.0
0
LINE
8
Layer 1
62
4
5
144
100
AcDbEntity
100
AcDbLine
10
11.504508
20
93.962853
30
0.0
11
10.354028
21
93.729444
31
0.0
0
LINE
8
Layer 1
62
4
5
145
100
AcDbEntity
100
AcDbLine
10
10.354028
20
93.729444
30
0.0
11
9.203548
21
93.962853
31
0.0
0
LINE
8
Layer 1
62
4
5
146
100
AcDbEntity
100
AcDbLine
10
9.203548
20
93.962853
30
0.0
11
8.264471
21
94.598811
31
0.0
0
LINE
8
Layer 1
62
4
5
147
100
AcDbEntity
100
AcDbLine
10
8.264471
20
94.598811
30
0.0
11
7.631544
21
95.540920
31
0.0
0
LINE
8
Layer 1
62
4
5
148
100
AcDbEntity
100
AcDbLine
10
7.631544
20
95.540920
30
0.0
11
7.399514
21
96.692778
31
0.0
0
LINE
8
Layer 1
62
4
5
149
100
AcDbEntity
100
AcDbLine
10
7.399514
20
96.692778
30
0.0
11
7.631544
21
97.843258
31
0.0
0
LINE
8
Layer 1
62
4
5
14a
100
AcDbEntity
100
AcDbLine
10
7.631544
20
97.843258
30
0.0
11
8.264471
21
98.782335
31
0.0
0
LINE
8
Layer 1
62
4
5
14b
100
AcDbEntity
100
AcDbLine
10
8.264471
20
98.782335
30
0.0
11
9.203548
21
99.415261
31
0.0
0
LINE
8
Layer 1
62
4
5
14c
100
AcDbEntity
100
AcDbLine
10
9.203548
20
99.415261
30
0.0
11
10.354028
21
99.647292
31
0.0
0
LINE
8
Layer 1
62
4
5
14d
100
AcDbEntity
100
AcDbLine
10
10.354028
20
99.647292
30
0.0
11
10.354028
21
99.647292
31
0.0
0
LINE
8
Layer 1
62
4
5
14e
100
AcDbEntity
100
AcDbLine
10
40.137292
20
99.497361
30
0.0
11
41.287772
21
99.265331
31
0.0
0
LINE
8
Layer 1
62
4
5
14f
100
AcDbEntity
100
AcDbLine
10
41.287772
20
99.265331
30
0.0
11
42.226848
21
98.632404
31
0.0
0
LINE
8
Layer 1
62
4
5
150
100
AcDbEntity
100
AcDbLine
10
42.226848
20
98.632404
30
0.0
11
42.859775
21
97.693327
31
0.0
0
LINE
8
Layer 1
62
4
5
151
100
AcDbEntity
100
AcDbLine
10
42.859775
20
97.693327
30
0.0
11
43.091806
21
96.542847
31
0.0
0
LINE
8
Layer 1
62
4
5
152
100
AcDbEntity
100
AcDbLine
10
43.091806
20
96.542847
30
0.0
11
42.859775
21
95.390989
31
0.0
0
LINE
8
Layer 1
62
4
5
153
100
AcDbEntity
100
AcDbLine
10
42.859775
20
95.390989
30
0.0
11
42.226848
21
94.448881
31
0.0
0
LINE
8
Layer 1
62
4
5
154
100
AcDbEntity
100
AcDbLine
10
42.226848
20
94.448881
30
0.0
11
41.287772
21
93.812922
31
0.0
0
LINE
8
Layer 1
62
4
5
155
100
AcDbEntity
100
AcDbLine
10
41.287772
20
93.812922
30
0.0
11
40.137292
21
93.579514
31
0.0
0
LINE
8
Layer 1
62
4
5
156
100
AcDbEntity
100
AcDbLine
10
40.137292
20
93.579514
30
0.0
11
38.986812
21
93.812922
31
0.0
0
LINE
8
Layer 1
62
4
5
157
100
AcDbEntity
100
AcDbLine
10
38.986812
20
93.812922
30
0.0
11
38.047735
21
94.448881
31
0.0
0
LINE
8
Layer 1
62
4
5
158
100
AcDbEntity
100
AcDbLine
10
38.047735
20
94.448881
30
0.0
11
37.414808
21
95.390989
31
0.0
0
LINE
8
Layer 1
62
4
5
159
100
AcDbEntity
100
AcDbLine
10
37.414808
20
95.390989
30
0.0
11
37.182778
21
96.542847
31
0.0
0
LINE
8
Layer 1
62
4
5
15a
100
AcDbEntity
100
AcDbLine
10
37.182778
20
96.542847
30
0.0
11
37.414808
21
97.693327
31
0.0
0
LINE
8
Layer 1
62
4
5
15b
100
AcDbEntity
100
AcDbLine
10
37.414808
20
97.693327
30
0.0
11
38.047735
21
98.632404
31
0.0
0
LINE
8
Layer 1
62
4
5
15c
100
AcDbEntity
100
AcDbLine
10
38.047735
20
98.632404
30
0.0
11
38.986812
21
99.265331
31
0.0
0
LINE
8
Layer 1
62
4
5
15d
100
AcDbEntity
100
AcDbLine
10
38.986812
20
99.265331
30
0.0
11
40.137292
21
99.497361
31
0.0
0
LINE
8
Layer 1
62
4
5
15e
100
AcDbEntity
100
AcDbLine
10
40.137292
20
99.497361
30
0.0
11
40.137292
21
99.497361
31
0.0
0
LINE
8
Layer 1
62
4
5
15f
100
AcDbEntity
100
AcDbLine
10
25.038403
20
92.485903
30
0.0
11
25.347083
21
92.485903
31
0.0
0
LINE
8
Layer 1
62
4
5
160
100
AcDbEntity
100
AcDbLine
10
25.347083
20
92.485903
30
0.0
11
26.538571
21
92.365940
31
0.0
0
LINE
8
Layer 1
62
4
5
161
100
AcDbEntity
100
AcDbLine
10
26.538571
20
92.365940
30
0.0
11
27.648043
21
92.021842
31
0.0
0
LINE
8
Layer 1
62
4
5
162
100
AcDbEntity
100
AcDbLine
10
27.648043
20
92.021842
30
0.0
11
28.651814
21
91.477296
31
0.0
0
LINE
8
Layer 1
62
4
5
163
100
AcDbEntity
100
AcDbLine
10
28.651814
20
91.477296
30
0.0
11
29.526197
21
90.755988
31
0.0
0
LINE
8
Layer 1
62
4
5
164
100
AcDbEntity
100
AcDbLine
10
29.526197
20
90.755988
30
0.0
11
30.247504
21
89.881606
31
0.0
0
LINE
8
Layer 1
62
4
5
165
100
AcDbEntity
100
AcDbLine
10
30.247504
20
89.881606
30
0.0
11
30.792050
21
88.877835
31
0.0
0
LINE
8
Layer 1
62
4
5
166
100
AcDbEntity
100
AcDbLine
10
30.792050
20
88.877835
30
0.0
11
31.136148
21
87.768363
31
0.0
0
LINE
8
Layer 1
62
4
5
167
100
AcDbEntity
100
AcDbLine
10
31.136148
20
87.768363
30
0.0
11
31.256111
21
86.576875
31
0.0
0
LINE
8
Layer 1
62
4
5
168
100
AcDbEntity
100
AcDbLine
10
31.256111
20
86.576875
30
0.0
11
31.136148
21
85.385387
31
0.0
0
LINE
8
Layer 1
62
4
5
169
100
AcDbEntity
100
AcDbLine
10
31.136148
20
85.385387
30
0.0
11
30.792050
21
84.275915
31
0.0
0
LINE
8
Layer 1
62
4
5
16a
100
AcDbEntity
100
AcDbLine
10
30.792050
20
84.275915
30
0.0
11
30.247504
21
83.272144
31
0.0
0
LINE
8
Layer 1
62
4
5
16b
100
AcDbEntity
100
AcDbLine
10
30.247504
20
83.272144
30
0.0
11
29.526197
21
82.397761
31
0.0
0
LINE
8
Layer 1
62
4
5
16c
100
AcDbEntity
100
AcDbLine
10
29.526197
20
82.397761
30
0.0
11
28.651814
21
81.676454
31
0.0
0
LINE
8
Layer 1
62
4
5
16d
100
AcDbEntity
100
AcDbLine
10
28.651814
20
81.676454
30
0.0
11
27.648043
21
81.131908
31
0.0
0
LINE
8
Layer 1
62
4
5
16e
100
AcDbEntity
100
AcDbLine
10
27.648043
20
81.131908
30
0.0
11
26.538571
21
80.787810
31
0.0
0
LINE
8
Layer 1
62
4
5
16f
100
AcDbEntity
100
AcDbLine
10
26.538571
20
80.787810
30
0.0
11
25.347083
21
80.667847
31
0.0
0
LINE
8
Layer 1
62
4
5
170
100
AcDbEntity
100
AcDbLine
10
25.347083
20
80.667847
30
0.0
11
24.155217
21
80.787810
31
0.0
0
LINE
8
Layer 1
62
4
5
171
100
AcDbEntity
100
AcDbLine
10
24.155217
20
80.787810
30
0.0
11
23.044746
21
81.131908
31
0.0
0
LINE
8
Layer 1
62
4
5
172
100
AcDbEntity
100
AcDbLine
10
23.044746
20
81.131908
30
0.0
11
22.039562
21
81.676454
31
0.0
0
LINE
8
Layer 1
62
4
5
173
100
AcDbEntity
100
AcDbLine
10
22.039562
20
81.676454
30
0.0
11
21.163561
21
82.397761
31
0.0
0
LINE
8
Layer 1
62
4
5
174
100
AcDbEntity
100
AcDbLine
10
21.163561
20
82.397761
30
0.0
11
20.440634
21
83.272144
31
0.0
0
LINE
8
Layer 1
62
4
5
175
100
AcDbEntity
100
AcDbLine
10
20.440634
20
83.272144
30
0.0
11
19.894675
21
84.275915
31
0.0
0
LINE
8
Layer 1
62
4
5
176
100
AcDbEntity
100
AcDbLine
10
19.894675
20
84.275915
30
0.0
11
19.549578
21
85.385387
31
0.0
0
LINE
8
Layer 1
62
4
5
177
100
AcDbEntity
100
AcDbLine
10
19.549578
20
85.385387
30
0.0
11
19.429236
21
86.576875
31
0.0
0
LINE
8
Layer 1
62
4
5
178
100
AcDbEntity
100
AcDbLine
10
19.429236
20
86.576875
30
0.0
11
19.542114
21
87.732567
31
0.0
0
LINE
8
Layer 1
62
4
5
179
100
AcDbEntity
100
AcDbLine
10
19.542114
20
87.732567
30
0.0
11
19.866329
21
88.812512
31
0.0
0
LINE
8
Layer 1
62
4
5
17a
100
AcDbEntity
100
AcDbLine
10
19.866329
20
88.812512
30
0.0
11
20.380250
21
89.795002
31
0.0
0
LINE
8
Layer 1
62
4
5
17b
100
AcDbEntity
100
AcDbLine
10
20.380250
20
89.795002
30
0.0
11
21.062248
21
90.658332
31
0.0
0
LINE
8
Layer 1
62
4
5
17c
100
AcDbEntity
100
AcDbLine
10
21.062248
20
90.658332
30
0.0
11
21.890692
21
91.380793
31
0.0
0
LINE
8
Layer 1
62
4
5
17d
100
AcDbEntity
100
AcDbLine
10
21.890692
20
91.380793
30
0.0
11
22.843952
21
91.940680
31
0.0
0
LINE
8
Layer 1
62
4
5
17e
100
AcDbEntity
100
AcDbLine
10
22.843952
20
91.940680
30
0.0
11
23.900399
21
92.316286
31
0.0
0
LINE
8
Layer 1
62
4
5
17f
100
AcDbEntity
100
AcDbLine
10
23.900399
20
92.316286
30
0.0
11
25.038403
21
92.485903
31
0.0
0
LINE
8
Layer 1
62
4
5
180
100
AcDbEntity
100
AcDbLine
10
25.038403
20
92.485903
30
0.0
11
25.038403
21
92.485903
31
0.0
0
LINE
8
Layer 1
62
4
5
181
100
AcDbEntity
100
AcDbLine
10
40.631181
20
77.431111
30
0.0
11
41.822668
21
77.310769
31
0.0
0
LINE
8
Layer 1
62
4
5
182
100
AcDbEntity
100
AcDbLine
10
41.822668
20
77.310769
30
0.0
11
42.932141
21
76.965672
31
0.0
0
LINE
8
Layer 1
62
4
5
183
100
AcDbEntity
100
AcDbLine
10
42.932141
20
76.965672
30
0.0
11
43.935912
21
76.419714
31
0.0
0
LINE
8
Layer 1
62
4
5
184
100
AcDbEntity
100
AcDbLine
10
43.935912
20
76.419714
30
0.0
11
44.810294
21
75.696787
31
0.0
0
LINE
8
Layer 1
62
4
5
185
100
AcDbEntity
100
AcDbLine
10
44.810294
20
75.696787
30
0.0
11
45.531602
21
74.820785
31
0.0
0
LINE
8
Layer 1
62
4
5
186
100
AcDbEntity
100
AcDbLine
10
45.531602
20
74.820785
30
0.0
11
46.076148
21
73.815602
31
0.0
0
LINE
8
Layer 1
62
4
5
187
100
AcDbEntity
100
AcDbLine
10
46.076148
20
73.815602
30
0.0
11
46.420245
21
72.705130
31
0.0
0
LINE
8
Layer 1
62
4
5
188
100
AcDbEntity
100
AcDbLine
10
46.420245
20
72.705130
30
0.0
11
46.540208
21
71.513264
31
0.0
0
LINE
8
Layer 1
62
4
5
189
100
AcDbEntity
100
AcDbLine
10
46.540208
20
71.513264
30
0.0
11
46.420245
21
70.321776
31
0.0
0
LINE
8
Layer 1
62
4
5
18a
100
AcDbEntity
100
AcDbLine
10
46.420245
20
70.321776
30
0.0
11
46.076148
21
69.212304
31
0.0
0
LINE
8
Layer 1
62
4
5
18b
100
AcDbEntity
100
AcDbLine
10
46.076148
20
69.212304
30
0.0
11
45.531602
21
68.208533
31
0.0
0
LINE
8
Layer 1
62
4
5
18c
100
AcDbEntity
100
AcDbLine
10
45.531602
20
68.208533
30
0.0
11
44.810294
21
67.334150
31
0.0
0
LINE
8
Layer 1
62
4
5
18d
100
AcDbEntity
100
AcDbLine
10
44.810294
20
67.334150
30
0.0
11
43.935912
21
66.612843
31
0.0
0
LINE
8
Layer 1
62
4
5
18e
100
AcDbEntity
100
AcDbLine
10
43.935912
20
66.612843
30
0.0
11
42.932141
21
66.068297
31
0.0
0
LINE
8
Layer 1
62
4
5
18f
100
AcDbEntity
100
AcDbLine
10
42.932141
20
66.068297
30
0.0
11
41.822668
21
65.724199
31
0.0
0
LINE
8
Layer 1
62
4
5
190
100
AcDbEntity
100
AcDbLine
10
41.822668
20
65.724199
30
0.0
11
40.631181
21
65.604236
31
0.0
0
LINE
8
Layer 1
62
4
5
191
100
AcDbEntity
100
AcDbLine
10
40.631181
20
65.604236
30
0.0
11
39.439314
21
65.724199
31
0.0
0
LINE
8
Layer 1
62
4
5
192
100
AcDbEntity
100
AcDbLine
10
39.439314
20
65.724199
30
0.0
11
38.328842
21
66.068297
31
0.0
0
LINE
8
Layer 1
62
4
5
193
100
AcDbEntity
100
AcDbLine
10
38.328842
20
66.068297
30
0.0
11
37.323659
21
66.612843
31
0.0
0
LINE
8
Layer 1
62
4
5
194
100
AcDbEntity
100
AcDbLine
10
37.323659
20
66.612843
30
0.0
11
36.447657
21
67.334150
31
0.0
0
LINE
8
Layer 1
62
4
5
195
100
AcDbEntity
100
AcDbLine
10
36.447657
20
67.334150
30
0.0
11
35.724731
21
68.208533
31
0.0
0
LINE
8
Layer 1
62
4
5
196
100
AcDbEntity
100
AcDbLine
10
35.724731
20
68.208533
30
0.0
11
35.178772
21
69.212304
31
0.0
0
LINE
8
Layer 1
62
4
5
197
100
AcDbEntity
100
AcDbLine
10
35.178772
20
69.212304
30
0.0
11
34.833675
21
70.321776
31
0.0
0
LINE
8
Layer 1
62
4
5
198
100
AcDbEntity
100
AcDbLine
10
34.833675
20
70.321776
30
0.0
11
34.713333
21
71.513264
31
0.0
0
LINE
8
Layer 1
62
4
5
199
100
AcDbEntity
100
AcDbLine
10
34.713333
20
71.513264
30
0.0
11
34.833675
21
72.705130
31
0.0
0
LINE
8
Layer 1
62
4
5
19a
100
AcDbEntity
100
AcDbLine
10
34.833675
20
72.705130
30
0.0
11
35.178772
21
73.815602
31
0.0
0
LINE
8
Layer 1
62
4
5
19b
100
AcDbEntity
100
AcDbLine
10
35.178772
20
73.815602
30
0.0
11
35.724731
21
74.820785
31
0.0
0
LINE
8
Layer 1
62
4
5
19c
100
AcDbEntity
100
AcDbLine
10
35.724731
20
74.820785
30
0.0
11
36.447657
21
75.696787
31
0.0
0
LINE
8
Layer 1
62
4
5
19d
100
AcDbEntity
100
AcDbLine
10
36.447657
20
75.696787
30
0.0
11
37.323659
21
76.419714
31
0.0
0
LINE
8
Layer 1
62
4
5
19e
100
AcDbEntity
100
AcDbLine
10
37.323659
20
76.419714
30
0.0
11
38.328842
21
76.965672
31
0.0
0
LINE
8
Layer 1
62
4
5
19f
100
AcDbEntity
100
AcDbLine
10
38.328842
20
76.965672
30
0.0
11
39.439314
21
77.310769
31
0.0
0
LINE
8
Layer 1
62
4
5
1a0
100
AcDbEntity
100
AcDbLine
10
39.439314
20
77.310769
30
0.0
11
40.631181
21
77.431111
31
0.0
0
LINE
8
Layer 1
62
4
5
1a1
100
AcDbEntity
100
AcDbLine
10
40.631181
20
77.431111
30
0.0
11
40.631181
21
77.431111
31
0.0
0
LINE
8
Layer 1
62
4
5
1a2
100
AcDbEntity
100
AcDbLine
10
10.257014
20
75.014583
30
0.0
11
11.599470
21
74.743651
31
0.0
0
LINE
8
Layer 1
62
4
5
1a3
100
AcDbEntity
100
AcDbLine
10
11.599470
20
74.743651
30
0.0
11
12.695565
21
74.004732
31
0.0
0
LINE
8
Layer 1
62
4
5
1a4
100
AcDbEntity
100
AcDbLine
10
12.695565
20
74.004732
30
0.0
11
13.434485
21
72.908637
31
0.0
0
LINE
8
Layer 1
62
4
5
1a5
100
AcDbEntity
100
AcDbLine
10
13.434485
20
72.908637
30
0.0
11
13.705417
21
71.566181
31
0.0
0
LINE
8
Layer 1
62
4
5
1a6
100
AcDbEntity
100
AcDbLine
10
13.705417
20
71.566181
30
0.0
11
13.434485
21
70.223724
31
0.0
0
LINE
8
Layer 1
62
4
5
1a7
100
AcDbEntity
100
AcDbLine
10
13.434485
20
70.223724
30
0.0
11
12.695565
21
69.127630
31
0.0
0
LINE
8
Layer 1
62
4
5
1a8
100
AcDbEntity
100
AcDbLine
10
12.695565
20
69.127630
30
0.0
11
11.599470
21
68.388710
31
0.0
0
LINE
8
Layer 1
62
4
5
1a9
100
AcDbEntity
100
AcDbLine
10
11.599470
20
68.388710
30
0.0
11
10.257014
21
68.117778
31
0.0
0
LINE
8
Layer 1
62
4
5
1aa
100
AcDbEntity
100
AcDbLine
10
10.257014
20
68.117778
30
0.0
11
8.914558
21
68.388710
31
0.0
0
LINE
8
Layer 1
62
4
5
1ab
100
AcDbEntity
100
AcDbLine
10
8.914558
20
68.388710
30
0.0
11
7.818463
21
69.127630
31
0.0
0
LINE
8
Layer 1
62
4
5
1ac
100
AcDbEntity
100
AcDbLine
10
7.818463
20
69.127630
30
0.0
11
7.079543
21
70.223724
31
0.0
0
LINE
8
Layer 1
62
4
5
1ad
100
AcDbEntity
100
AcDbLine
10
7.079543
20
70.223724
30
0.0
11
6.808611
21
71.566181
31
0.0
0
LINE
8
Layer 1
62
4
5
1ae
100
AcDbEntity
100
AcDbLine
10
6.808611
20
71.566181
30
0.0
11
7.079543
21
72.908637
31
0.0
0
LINE
8
Layer 1
62
4
5
1af
100
AcDbEntity
100
AcDbLine
10
7.079543
20
72.908637
30
0.0
11
7.818463
21
74.004732
31
0.0
0
LINE
8
Layer 1
62
4
5
1b0
100
AcDbEntity
100
AcDbLine
10
7.818463
20
74.004732
30
0.0
11
8.914558
21
74.743651
31
0.0
0
LINE
8
Layer 1
62
4
5
1b1
100
AcDbEntity
100
AcDbLine
10
8.914558
20
74.743651
30
0.0
11
10.257014
21
75.014583
31
0.0
0
LINE
8
Layer 1
62
4
5
1b2
100
AcDbEntity
100
AcDbLine
10
10.257014
20
75.014583
30
0.0
11
10.257014
21
75.014583
31
0.0
0
LINE
8
Layer 1
62
4
5
1b3
100
AcDbEntity
100
AcDbLine
10
40.587083
20
59.651111
30
0.0
11
41.778571
21
59.530769
31
0.0
0
LINE
8
Layer 1
62
4
5
1b4
100
AcDbEntity
100
AcDbLine
10
41.778571
20
59.530769
30
0.0
11
42.888043
21
59.185672
31
0.0
0
LINE
8
Layer 1
62
4
5
1b5
100
AcDbEntity
100
AcDbLine
10
42.888043
20
59.185672
30
0.0
11
43.891814
21
58.639714
31
0.0
0
LINE
8
Layer 1
62
4
5
1b6
100
AcDbEntity
100
AcDbLine
10
43.891814
20
58.639714
30
0.0
11
44.766197
21
57.916787
31
0.0
0
LINE
8
Layer 1
62
4
5
1b7
100
AcDbEntity
100
AcDbLine
10
44.766197
20
57.916787
30
0.0
11
45.487504
21
57.040785
31
0.0
0
LINE
8
Layer 1
62
4
5
1b8
100
AcDbEntity
100
AcDbLine
10
45.487504
20
57.040785
30
0.0
11
46.032050
21
56.035602
31
0.0
0
LINE
8
Layer 1
62
4
5
1b9
100
AcDbEntity
100
AcDbLine
10
46.032050
20
56.035602
30
0.0
11
46.376148
21
54.925130
31
0.0
0
LINE
8
Layer 1
62
4
5
1ba
100
AcDbEntity
100
AcDbLine
10
46.376148
20
54.925130
30
0.0
11
46.496111
21
53.733264
31
0.0
0
LINE
8
Layer 1
62
4
5
1bb
100
AcDbEntity
100
AcDbLine
10
46.496111
20
53.733264
30
0.0
11
46.376148
21
52.541776
31
0.0
0
LINE
8
Layer 1
62
4
5
1bc
100
AcDbEntity
100
AcDbLine
10
46.376148
20
52.541776
30
0.0
11
46.032050
21
51.432304
31
0.0
0
LINE
8
Layer 1
62
4
5
1bd
100
AcDbEntity
100
AcDbLine
10
46.032050
20
51.432304
30
0.0
11
45.487504
21
50.428533
31
0.0
0
LINE
8
Layer 1
62
4
5
1be
100
AcDbEntity
100
AcDbLine
10
45.487504
20
50.428533
30
0.0
11
44.766197
21
49.554150
31
0.0
0
LINE
8
Layer 1
62
4
5
1bf
100
AcDbEntity
100
AcDbLine
10
44.766197
20
49.554150
30
0.0
11
43.891814
21
48.832843
31
0.0
0
LINE
8
Layer 1
62
4
5
1c0
100
AcDbEntity
100
AcDbLine
10
43.891814
20
48.832843
30
0.0
11
42.888043
21
48.288297
31
0.0
0
LINE
8
Layer 1
62
4
5
1c1
100
AcDbEntity
100
AcDbLine
10
42.888043
20
48.288297
30
0.0
11
41.778571
21
47.944199
31
0.0
0
LINE
8
Layer 1
62
4
5
1c2
100
AcDbEntity
100
AcDbLine
10
41.778571
20
47.944199
30
0.0
11
40.587083
21
47.824236
31
0.0
0
LINE
8
Layer 1
62
4
5
1c3
100
AcDbEntity
100
AcDbLine
10
40.587083
20
47.824236
30
0.0
11
39.395217
21
47.944199
31
0.0
0
LINE
8
Layer 1
62
4
5
1c4
100
AcDbEntity
100
AcDbLine
10
39.395217
20
47.944199
30
0.0
11
38.284745
21
48.288297
31
0.0
0
LINE
8
Layer 1
62
4
5
1c5
100
AcDbEntity
100
AcDbLine
10
38.284745
20
48.288297
30
0.0
11
37.279562
21
48.832843
31
0.0
0
LINE
8
Layer 1
62
4
5
1c6
100
AcDbEntity
100
AcDbLine
10
37.279562
20
48.832843
30
0.0
11
36.403560
21
49.554150
31
0.0
0
LINE
8
Layer 1
62
4
5
1c7
100
AcDbEntity
100
AcDbLine
10
36.403560
20
49.554150
30
0.0
11
35.680633
21
50.428533
31
0.0
0
LINE
8
Layer 1
62
4
5
1c8
100
AcDbEntity
100
AcDbLine
10
35.680633
20
50.428533
30
0.0
11
35.134675
21
51.432304
31
0.0
0
LINE
8
Layer 1
62
4
5
1c9
100
AcDbEntity
100
AcDbLine
10
35.134675
20
51.432304
30
0.0
11
34.789578
21
52.541776
31
0.0
0
LINE
8
Layer 1
62
4
5
1ca
100
AcDbEntity
100
AcDbLine
10
34.789578
20
52.541776
30
0.0
11
34.669236
21
53.733264
31
0.0
0
LINE
8
Layer 1
62
4
5
1cb
100
AcDbEntity
100
AcDbLine
10
34.669236
20
53.733264
30
0.0
11
34.789578
21
54.925130
31
0.0
0
LINE
8
Layer 1
62
4
5
1cc
100
AcDbEntity
100
AcDbLine
10
34.789578
20
54.925130
30
0.0
11
35.134675
21
56.035602
31
0.0
0
LINE
8
Layer 1
62
4
5
1cd
100
AcDbEntity
100
AcDbLine
10
35.134675
20
56.035602
30
0.0
11
35.680633
21
57.040785
31
0.0
0
LINE
8
Layer 1
62
4
5
1ce
100
AcDbEntity
100
AcDbLine
10
35.680633
20
57.040785
30
0.0
11
36.403560
21
57.916787
31
0.0
0
LINE
8
Layer 1
62
4
5
1cf
100
AcDbEntity
100
AcDbLine
10
36.403560
20
57.916787
30
0.0
11
37.279562
21
58.639714
31
0.0
0
LINE
8
Layer 1
62
4
5
1d0
100
AcDbEntity
100
AcDbLine
10
37.279562
20
58.639714
30
0.0
11
38.284745
21
59.185672
31
0.0
0
LINE
8
Layer 1
62
4
5
1d1
100
AcDbEntity
100
AcDbLine
10
38.284745
20
59.185672
30
0.0
11
39.395217
21
59.530769
31
0.0
0
LINE
8
Layer 1
62
4
5
1d2
100
AcDbEntity
100
AcDbLine
10
39.395217
20
59.530769
30
0.0
11
40.587083
21
59.651111
31
0.0
0
LINE
8
Layer 1
62
4
5
1d3
100
AcDbEntity
100
AcDbLine
10
40.587083
20
59.651111
30
0.0
11
40.587083
21
59.651111
31
0.0
0
LINE
8
Layer 1
62
4
5
1d4
100
AcDbEntity
100
AcDbLine
10
10.706806
20
56.581944
30
0.0
11
12.049262
21
56.311013
31
0.0
0
LINE
8
Layer 1
62
4
5
1d5
100
AcDbEntity
100
AcDbLine
10
12.049262
20
56.311013
30
0.0
11
13.145356
21
55.572093
31
0.0
0
LINE
8
Layer 1
62
4
5
1d6
100
AcDbEntity
100
AcDbLine
10
13.145356
20
55.572093
30
0.0
11
13.884276
21
54.475998
31
0.0
0
LINE
8
Layer 1
62
4
5
1d7
100
AcDbEntity
100
AcDbLine
10
13.884276
20
54.475998
30
0.0
11
14.155208
21
53.133542
31
0.0
0
LINE
8
Layer 1
62
4
5
1d8
100
AcDbEntity
100
AcDbLine
10
14.155208
20
53.133542
30
0.0
11
13.884276
21
51.791085
31
0.0
0
LINE
8
Layer 1
62
4
5
1d9
100
AcDbEntity
100
AcDbLine
10
13.884276
20
51.791085
30
0.0
11
13.145356
21
50.694991
31
0.0
0
LINE
8
Layer 1
62
4
5
1da
100
AcDbEntity
100
AcDbLine
10
13.145356
20
50.694991
30
0.0
11
12.049262
21
49.956071
31
0.0
0
LINE
8
Layer 1
62
4
5
1db
100
AcDbEntity
100
AcDbLine
10
12.049262
20
49.956071
30
0.0
11
10.706806
21
49.685139
31
0.0
0
LINE
8
Layer 1
62
4
5
1dc
100
AcDbEntity
100
AcDbLine
10
10.706806
20
49.685139
30
0.0
11
9.364349
21
49.956071
31
0.0
0
LINE
8
Layer 1
62
4
5
1dd
100
AcDbEntity
100
AcDbLine
10
9.364349
20
49.956071
30
0.0
11
8.268255
21
50.694991
31
0.0
0
LINE
8
Layer 1
62
4
5
1de
100
AcDbEntity
100
AcDbLine
10
8.268255
20
50.694991
30
0.0
11
7.529335
21
51.791085
31
0.0
0
LINE
8
Layer 1
62
4
5
1df
100
AcDbEntity
100
AcDbLine
10
7.529335
20
51.791085
30
0.0
11
7.258403
21
53.133542
31
0.0
0
LINE
8
Layer 1
62
4
5
1e0
100
AcDbEntity
100
AcDbLine
10
7.258403
20
53.133542
30
0.0
11
7.529335
21
54.475998
31
0.0
0
LINE
8
Layer 1
62
4
5
1e1
100
AcDbEntity
100
AcDbLine
10
7.529335
20
54.475998
30
0.0
11
8.268255
21
55.572093
31
0.0
0
LINE
8
Layer 1
62
4
5
1e2
100
AcDbEntity
100
AcDbLine
10
8.268255
20
55.572093
30
0.0
11
9.364349
21
56.311013
31
0.0
0
LINE
8
Layer 1
62
4
5
1e3
100
AcDbEntity
100
AcDbLine
10
9.364349
20
56.311013
30
0.0
11
10.706806
21
56.581944
31
0.0
0
LINE
8
Layer 1
62
4
5
1e4
100
AcDbEntity
100
AcDbLine
10
10.706806
20
56.581944
30
0.0
11
10.706806
21
56.581944
31
0.0
0
LINE
8
Layer 1
62
4
5
1e5
100
AcDbEntity
100
AcDbLine
10
40.587083
20
41.571250
30
0.0
11
41.778571
21
41.450908
31
0.0
0
LINE
8
Layer 1
62
4
5
1e6
100
AcDbEntity
100
AcDbLine
10
41.778571
20
41.450908
30
0.0
11
42.888043
21
41.105811
31
0.0
0
LINE
8
Layer 1
62
4
5
1e7
100
AcDbEntity
100
AcDbLine
10
42.888043
20
41.105811
30
0.0
11
43.891814
21
40.559853
31
0.0
0
LINE
8
Layer 1
62
4
5
1e8
100
AcDbEntity
100
AcDbLine
10
43.891814
20
40.559853
30
0.0
11
44.766197
21
39.836926
31
0.0
0
LINE
8
Layer 1
62
4
5
1e9
100
AcDbEntity
100
AcDbLine
10
44.766197
20
39.836926
30
0.0
11
45.487504
21
38.960924
31
0.0
0
LINE
8
Layer 1
62
4
5
1ea
100
AcDbEntity
100
AcDbLine
10
45.487504
20
38.960924
30
0.0
11
46.032050
21
37.955741
31
0.0
0
LINE
8
Layer 1
62
4
5
1eb
100
AcDbEntity
100
AcDbLine
10
46.032050
20
37.955741
30
0.0
11
46.376148
21
36.845269
31
0.0
0
LINE
8
Layer 1
62
4
5
1ec
100
AcDbEntity
100
AcDbLine
10
46.376148
20
36.845269
30
0.0
11
46.496111
21
35.653403
31
0.0
0
LINE
8
Layer 1
62
4
5
1ed
100
AcDbEntity
100
AcDbLine
10
46.496111
20
35.653403
30
0.0
11
46.376148
21
34.461915
31
0.0
0
LINE
8
Layer 1
62
4
5
1ee
100
AcDbEntity
100
AcDbLine
10
46.376148
20
34.461915
30
0.0
11
46.032050
21
33.352443
31
0.0
0
LINE
8
Layer 1
62
4
5
1ef
100
AcDbEntity
100
AcDbLine
10
46.032050
20
33.352443
30
0.0
11
45.487504
21
32.348672
31
0.0
0
LINE
8
Layer 1
62
4
5
1f0
100
AcDbEntity
100
AcDbLine
10
45.487504
20
32.348672
30
0.0
11
44.766197
21
31.474289
31
0.0
0
LINE
8
Layer 1
62
4
5
1f1
100
AcDbEntity
100
AcDbLine
10
44.766197
20
31.474289
30
0.0
11
43.891814
21
30.752982
31
0.0
0
LINE
8
Layer 1
62
4
5
1f2
100
AcDbEntity
100
AcDbLine
10
43.891814
20
30.752982
30
0.0
11
42.888043
21
30.208436
31
0.0
0
LINE
8
Layer 1
62
4
5
1f3
100
AcDbEntity
100
AcDbLine
10
42.888043
20
30.208436
30
0.0
11
41.778571
21
29.864338
31
0.0
0
LINE
8
Layer 1
62
4
5
1f4
100
AcDbEntity
100
AcDbLine
10
41.778571
20
29.864338
30
0.0
11
40.587083
21
29.744375
31
0.0
0
LINE
8
Layer 1
62
4
5
1f5
100
AcDbEntity
100
AcDbLine
10
40.587083
20
29.744375
30
0.0
11
39.395217
21
29.864338
31
0.0
0
LINE
8
Layer 1
62
4
5
1f6
100
AcDbEntity
100
AcDbLine
10
39.395217
20
29.864338
30
0.0
11
38.284745
21
30.208436
31
0.0
0
LINE
8
Layer 1
62
4
5
1f7
100
AcDbEntity
100
AcDbLine
10
38.284745
20
30.208436
30
0.0
11
37.279562
21
30.752982
31
0.0
0
LINE
8
Layer 1
62
4
5
1f8
100
AcDbEntity
100
AcDbLine
10
37.279562
20
30.752982
30
0.0
11
36.403560
21
31.474289
31
0.0
0
LINE
8
Layer 1
62
4
5
1f9
100
AcDbEntity
100
AcDbLine
10
36.403560
20
31.474289
30
0.0
11
35.680633
21
32.348672
31
0.0
0
LINE
8
Layer 1
62
4
5
1fa
100
AcDbEntity
100
AcDbLine
10
35.680633
20
32.348672
30
0.0
11
35.134675
21
33.352443
31
0.0
0
LINE
8
Layer 1
62
4
5
1fb
100
AcDbEntity
100
AcDbLine
10
35.134675
20
33.352443
30
0.0
11
34.789578
21
34.461915
31
0.0
0
LINE
8
Layer 1
62
4
5
1fc
100
AcDbEntity
100
AcDbLine
10
34.789578
20
34.461915
30
0.0
11
34.669236
21
35.653403
31
0.0
0
LINE
8
Layer 1
62
4
5
1fd
100
AcDbEntity
100
AcDbLine
10
34.669236
20
35.653403
30
0.0
11
34.789578
21
36.845269
31
0.0
0
LINE
8
Layer 1
62
4
5
1fe
100
AcDbEntity
100
AcDbLine
10
34.789578
20
36.845269
30
0.0
11
35.134675
21
37.955741
31
0.0
0
LINE
8
Layer 1
62
4
5
1ff
100
AcDbEntity
100
AcDbLine
10
35.134675
20
37.955741
30
0.0
11
35.680633
21
38.960924
31
0.0
0
LINE
8
Layer 1
62
4
5
200
100
AcDbEntity
100
AcDbLine
10
35.680633
20
38.960924
30
0.0
11
36.403560
21
39.836926
31
0.0
0
LINE
8
Layer 1
62
4
5
201
100
AcDbEntity
100
AcDbLine
10
36.403560
20
39.836926
30
0.0
11
37.279562
21
40.559853
31
0.0
0
LINE
8
Layer 1
62
4
5
202
100
AcDbEntity
100
AcDbLine
10
37.279562
20
40.559853
30
0.0
11
38.284745
21
41.105811
31
0.0
0
LINE
8
Layer 1
62
4
5
203
100
AcDbEntity
100
AcDbLine
10
38.284745
20
41.105811
30
0.0
11
39.395217
21
41.450908
31
0.0
0
LINE
8
Layer 1
62
4
5
204
100
AcDbEntity
100
AcDbLine
10
39.395217
20
41.450908
30
0.0
11
40.587083
21
41.571250
31
0.0
0
LINE
8
Layer 1
62
4
5
205
100
AcDbEntity
100
AcDbLine
10
40.587083
20
41.571250
30
0.0
11
40.587083
21
41.571250
31
0.0
0
LINE
8
Layer 1
62
4
5
206
100
AcDbEntity
100
AcDbLine
10
10.327569
20
39.190000
30
0.0
11
11.670026
21
38.919068
31
0.0
0
LINE
8
Layer 1
62
4
5
207
100
AcDbEntity
100
AcDbLine
10
11.670026
20
38.919068
30
0.0
11
12.766120
21
38.180148
31
0.0
0
LINE
8
Layer 1
62
4
5
208
100
AcDbEntity
100
AcDbLine
10
12.766120
20
38.180148
30
0.0
11
13.505040
21
37.084053
31
0.0
0
LINE
8
Layer 1
62
4
5
209
100
AcDbEntity
100
AcDbLine
10
13.505040
20
37.084053
30
0.0
11
13.775972
21
35.741597
31
0.0
0
LINE
8
Layer 1
62
4
5
20a
100
AcDbEntity
100
AcDbLine
10
13.775972
20
35.741597
30
0.0
11
13.505040
21
34.399141
31
0.0
0
LINE
8
Layer 1
62
4
5
20b
100
AcDbEntity
100
AcDbLine
10
13.505040
20
34.399141
30
0.0
11
12.766120
21
33.303046
31
0.0
0
LINE
8
Layer 1
62
4
5
20c
100
AcDbEntity
100
AcDbLine
10
12.766120
20
33.303046
30
0.0
11
11.670026
21
32.564126
31
0.0
0
LINE
8
Layer 1
62
4
5
20d
100
AcDbEntity
100
AcDbLine
10
11.670026
20
32.564126
30
0.0
11
10.327569
21
32.293194
31
0.0
0
LINE
8
Layer 1
62
4
5
20e
100
AcDbEntity
100
AcDbLine
10
10.327569
20
32.293194
30
0.0
11
8.985113
21
32.564126
31
0.0
0
LINE
8
Layer 1
62
4
5
20f
100
AcDbEntity
100
AcDbLine
10
8.985113
20
32.564126
30
0.0
11
7.889019
21
33.303046
31
0.0
0
LINE
8
Layer 1
62
4
5
210
100
AcDbEntity
100
AcDbLine
10
7.889019
20
33.303046
30
0.0
11
7.150099
21
34.399141
31
0.0
0
LINE
8
Layer 1
62
4
5
211
100
AcDbEntity
100
AcDbLine
10
7.150099
20
34.399141
30
0.0
11
6.879167
21
35.741597
31
0.0
0
LINE
8
Layer 1
62
4
5
212
100
AcDbEntity
100
AcDbLine
10
6.879167
20
35.741597
30
0.0
11
7.150099
21
37.084053
31
0.0
0
LINE
8
Layer 1
62
4
5
213
100
AcDbEntity
100
AcDbLine
10
7.150099
20
37.084053
30
0.0
11
7.889019
21
38.180148
31
0.0
0
LINE
8
Layer 1
62
4
5
214
100
AcDbEntity
100
AcDbLine
10
7.889019
20
38.180148
30
0.0
11
8.985113
21
38.919068
31
0.0
0
LINE
8
Layer 1
62
4
5
215
100
AcDbEntity
100
AcDbLine
10
8.985113
20
38.919068
30
0.0
11
10.327569
21
39.190000
31
0.0
0
LINE
8
Layer 1
62
4
5
216
100
AcDbEntity
100
AcDbLine
10
10.327569
20
39.190000
30
0.0
11
10.327569
21
39.190000
31
0.0
0
LINE
8
Layer 1
62
4
5
217
100
AcDbEntity
100
AcDbLine
10
40.692917
20
23.826528
30
0.0
11
41.884404
21
23.706565
31
0.0
0
LINE
8
Layer 1
62
4
5
218
100
AcDbEntity
100
AcDbLine
10
41.884404
20
23.706565
30
0.0
11
42.993877
21
23.362466
31
0.0
0
LINE
8
Layer 1
62
4
5
219
100
AcDbEntity
100
AcDbLine
10
42.993877
20
23.362466
30
0.0
11
43.997648
21
22.817920
31
0.0
0
LINE
8
Layer 1
62
4
5
21a
100
AcDbEntity
100
AcDbLine
10
43.997648
20
22.817920
30
0.0
11
44.872030
21
22.096611
31
0.0
0
LINE
8
Layer 1
62
4
5
21b
100
AcDbEntity
100
AcDbLine
10
44.872030
20
22.096611
30
0.0
11
45.593338
21
21.222229
31
0.0
0
LINE
8
Layer 1
62
4
5
21c
100
AcDbEntity
100
AcDbLine
10
45.593338
20
21.222229
30
0.0
11
46.137884
21
20.218458
31
0.0
0
LINE
8
Layer 1
62
4
5
21d
100
AcDbEntity
100
AcDbLine
10
46.137884
20
20.218458
30
0.0
11
46.481981
21
19.108986
31
0.0
0
LINE
8
Layer 1
62
4
5
21e
100
AcDbEntity
100
AcDbLine
10
46.481981
20
19.108986
30
0.0
11
46.601944
21
17.917500
31
0.0
0
LINE
8
Layer 1
62
4
5
21f
100
AcDbEntity
100
AcDbLine
10
46.601944
20
17.917500
30
0.0
11
46.481981
21
16.725636
31
0.0
0
LINE
8
Layer 1
62
4
5
220
100
AcDbEntity
100
AcDbLine
10
46.481981
20
16.725636
30
0.0
11
46.137884
21
15.615166
31
0.0
0
LINE
8
Layer 1
62
4
5
221
100
AcDbEntity
100
AcDbLine
10
46.137884
20
15.615166
30
0.0
11
45.593338
21
14.609984
31
0.0
0
LINE
8
Layer 1
62
4
5
222
100
AcDbEntity
100
AcDbLine
10
45.593338
20
14.609984
30
0.0
11
44.872030
21
13.733982
31
0.0
0
LINE
8
Layer 1
62
4
5
223
100
AcDbEntity
100
AcDbLine
10
44.872030
20
13.733982
30
0.0
11
43.997648
21
13.011054
31
0.0
0
LINE
8
Layer 1
62
4
5
224
100
AcDbEntity
100
AcDbLine
10
43.997648
20
13.011054
30
0.0
11
42.993877
21
12.465092
31
0.0
0
LINE
8
Layer 1
62
4
5
225
100
AcDbEntity
100
AcDbLine
10
42.993877
20
12.465092
30
0.0
11
41.884404
21
12.119990
31
0.0
0
LINE
8
Layer 1
62
4
5
226
100
AcDbEntity
100
AcDbLine
10
41.884404
20
12.119990
30
0.0
11
40.692917
21
11.999639
31
0.0
0
LINE
8
Layer 1
62
4
5
227
100
AcDbEntity
100
AcDbLine
10
40.692917
20
11.999639
30
0.0
11
39.501429
21
12.119981
31
0.0
0
LINE
8
Layer 1
62
4
5
228
100
AcDbEntity
100
AcDbLine
10
39.501429
20
12.119981
30
0.0
11
38.391957
21
12.465080
31
0.0
0
LINE
8
Layer 1
62
4
5
229
100
AcDbEntity
100
AcDbLine
10
38.391957
20
12.465080
30
0.0
11
37.388186
21
13.011042
31
0.0
0
LINE
8
Layer 1
62
4
5
22a
100
AcDbEntity
100
AcDbLine
10
37.388186
20
13.011042
30
0.0
11
36.513803
21
13.733972
31
0.0
0
LINE
8
Layer 1
62
4
5
22b
100
AcDbEntity
100
AcDbLine
10
36.513803
20
13.733972
30
0.0
11
35.792496
21
14.609976
31
0.0
0
LINE
8
Layer 1
62
4
5
22c
100
AcDbEntity
100
AcDbLine
10
35.792496
20
14.609976
30
0.0
11
35.247950
21
15.615162
31
0.0
0
LINE
8
Layer 1
62
4
5
22d
100
AcDbEntity
100
AcDbLine
10
35.247950
20
15.615162
30
0.0
11
34.903852
21
16.725634
31
0.0
0
LINE
8
Layer 1
62
4
5
22e
100
AcDbEntity
100
AcDbLine
10
34.903852
20
16.725634
30
0.0
11
34.783889
21
17.917500
31
0.0
0
LINE
8
Layer 1
62
4
5
22f
100
AcDbEntity
100
AcDbLine
10
34.783889
20
17.917500
30
0.0
11
34.903852
21
19.108986
31
0.0
0
LINE
8
Layer 1
62
4
5
230
100
AcDbEntity
100
AcDbLine
10
34.903852
20
19.108986
30
0.0
11
35.247950
21
20.218458
31
0.0
0
LINE
8
Layer 1
62
4
5
231
100
AcDbEntity
100
AcDbLine
10
35.247950
20
20.218458
30
0.0
11
35.792496
21
21.222229
31
0.0
0
LINE
8
Layer 1
62
4
5
232
100
AcDbEntity
100
AcDbLine
10
35.792496
20
21.222229
30
0.0
11
36.513803
21
22.096611
31
0.0
0
LINE
8
Layer 1
62
4
5
233
100
AcDbEntity
100
AcDbLine
10
36.513803
20
22.096611
30
0.0
11
37.388186
21
22.817920
31
0.0
0
LINE
8
Layer 1
62
4
5
234
100
AcDbEntity
100
AcDbLine
10
37.388186
20
22.817920
30
0.0
11
38.391957
21
23.362466
31
0.0
0
LINE
8
Layer 1
62
4
5
235
100
AcDbEntity
100
AcDbLine
10
38.391957
20
23.362466
30
0.0
11
39.501429
21
23.706565
31
0.0
0
LINE
8
Layer 1
62
4
5
236
100
AcDbEntity
100
AcDbLine
10
39.501429
20
23.706565
30
0.0
11
40.692917
21
23.826528
31
0.0
0
LINE
8
Layer 1
62
4
5
237
100
AcDbEntity
100
AcDbLine
10
40.692917
20
23.826528
30
0.0
11
40.692917
21
23.826528
31
0.0
0
LINE
8
Layer 1
62
4
5
238
100
AcDbEntity
100
AcDbLine
10
19.032361
20
23.456111
30
0.0
11
31.423681
21
23.456111
31
0.0
0
LINE
8
Layer 1
62
4
5
239
100
AcDbEntity
100
AcDbLine
10
31.423681
20
23.456111
30
0.0
11
31.423681
21
11.876195
31
0.0
0
LINE
8
Layer 1
62
4
5
23a
100
AcDbEntity
100
AcDbLine
10
31.423681
20
11.876195
30
0.0
11
19.032361
21
11.876195
31
0.0
0
LINE
8
Layer 1
62
4
5
23b
100
AcDbEntity
100
AcDbLine
10
19.032361
20
11.876195
30
0.0
11
19.032361
21
23.456111
31
0.0
0
LINE
8
Layer 1
62
4
5
23c
100
AcDbEntity
100
AcDbLine
10
19.032361
20
23.456111
30
0.0
11
19.032361
21
23.456111
31
0.0
0
LINE
8
Layer 1
62
4
5
23d
100
AcDbEntity
100
AcDbLine
10
10.503958
20
21.215972
30
0.0
11
11.846414
21
20.945030
31
0.0
0
LINE
8
Layer 1
62
4
5
23e
100
AcDbEntity
100
AcDbLine
10
11.846414
20
20.945030
30
0.0
11
12.942509
21
20.206093
31
0.0
0
LINE
8
Layer 1
62
4
5
23f
100
AcDbEntity
100
AcDbLine
10
12.942509
20
20.206093
30
0.0
11
13.681429
21
19.109995
31
0.0
0
LINE
8
Layer 1
62
4
5
240
100
AcDbEntity
100
AcDbLine
10
13.681429
20
19.109995
30
0.0
11
13.952361
21
17.767569
31
0.0
0
LINE
8
Layer 1
62
4
5
241
100
AcDbEntity
100
AcDbLine
10
13.952361
20
17.767569
30
0.0
11
13.681429
21
16.423709
31
0.0
0
LINE
8
Layer 1
62
4
5
242
100
AcDbEntity
100
AcDbLine
10
13.681429
20
16.423709
30
0.0
11
12.942509
21
15.324590
31
0.0
0
LINE
8
Layer 1
62
4
5
243
100
AcDbEntity
100
AcDbLine
10
12.942509
20
15.324590
30
0.0
11
11.846414
21
14.582659
31
0.0
0
LINE
8
Layer 1
62
4
5
244
100
AcDbEntity
100
AcDbLine
10
11.846414
20
14.582659
30
0.0
11
10.503958
21
14.310361
31
0.0
0
LINE
8
Layer 1
62
4
5
245
100
AcDbEntity
100
AcDbLine
10
10.503958
20
14.310361
30
0.0
11
9.160124
21
14.582659
31
0.0
0
LINE
8
Layer 1
62
4
5
246
100
AcDbEntity
100
AcDbLine
10
9.160124
20
14.582659
30
0.0
11
8.060998
21
15.324590
31
0.0
0
LINE
8
Layer 1
62
4
5
247
100
AcDbEntity
100
AcDbLine
10
8.060998
20
15.324590
30
0.0
11
7.319046
21
16.423709
31
0.0
0
LINE
8
Layer 1
62
4
5
248
100
AcDbEntity
100
AcDbLine
10
7.319046
20
16.423709
30
0.0
11
7.046736
21
17.767569
31
0.0
0
LINE
8
Layer 1
62
4
5
249
100
AcDbEntity
100
AcDbLine
10
7.046736
20
17.767569
30
0.0
11
7.319046
21
19.109995
31
0.0
0
LINE
8
Layer 1
62
4
5
24a
100
AcDbEntity
100
AcDbLine
10
7.319046
20
19.109995
30
0.0
11
8.060998
21
20.206093
31
0.0
0
LINE
8
Layer 1
62
4
5
24b
100
AcDbEntity
100
AcDbLine
10
8.060998
20
20.206093
30
0.0
11
9.160124
21
20.945030
31
0.0
0
LINE
8
Layer 1
62
4
5
24c
100
AcDbEntity
100
AcDbLine
10
9.160124
20
20.945030
30
0.0
11
10.503958
21
21.215972
31
0.0
0
LINE
8
Layer 1
62
4
5
24d
100
AcDbEntity
100
AcDbLine
10
10.503958
20
21.215972
30
0.0
11
10.503958
21
21.215972
31
0.0
0
LINE
8
Layer 1
62
4
5
24e
100
AcDbEntity
100
AcDbLine
10
7.496528
20
4.688333
30
0.0
11
8.152390
21
4.556019
31
0.0
0
LINE
8
Layer 1
62
4
5
24f
100
AcDbEntity
100
AcDbLine
10
8.152390
20
4.556019
30
0.0
11
8.687813
21
4.195118
31
0.0
0
LINE
8
Layer 1
62
4
5
250
100
AcDbEntity
100
AcDbLine
10
8.687813
20
4.195118
30
0.0
11
9.048722
21
3.659693
31
0.0
0
LINE
8
Layer 1
62
4
5
251
100
AcDbEntity
100
AcDbLine
10
9.048722
20
3.659693
30
0.0
11
9.181042
21
3.003805
31
0.0
0
LINE
8
Layer 1
62
4
5
252
100
AcDbEntity
100
AcDbLine
10
9.181042
20
3.003805
30
0.0
11
9.048722
21
2.346578
31
0.0
0
LINE
8
Layer 1
62
4
5
253
100
AcDbEntity
100
AcDbLine
10
9.048722
20
2.346578
30
0.0
11
8.687813
21
1.808121
31
0.0
0
LINE
8
Layer 1
62
4
5
254
100
AcDbEntity
100
AcDbLine
10
8.687813
20
1.808121
30
0.0
11
8.152390
21
1.444174
31
0.0
0
LINE
8
Layer 1
62
4
5
255
100
AcDbEntity
100
AcDbLine
10
8.152390
20
1.444174
30
0.0
11
7.496528
21
1.310472
31
0.0
0
LINE
8
Layer 1
62
4
5
256
100
AcDbEntity
100
AcDbLine
10
7.496528
20
1.310472
30
0.0
11
6.840666
21
1.444170
31
0.0
0
LINE
8
Layer 1
62
4
5
257
100
AcDbEntity
100
AcDbLine
10
6.840666
20
1.444170
30
0.0
11
6.305243
21
1.808111
31
0.0
0
LINE
8
Layer 1
62
4
5
258
100
AcDbEntity
100
AcDbLine
10
6.305243
20
1.808111
30
0.0
11
5.944334
21
2.346566
31
0.0
0
LINE
8
Layer 1
62
4
5
259
100
AcDbEntity
100
AcDbLine
10
5.944334
20
2.346566
30
0.0
11
5.812014
21
3.003805
31
0.0
0
LINE
8
Layer 1
62
4
5
25a
100
AcDbEntity
100
AcDbLine
10
5.812014
20
3.003805
30
0.0
11
5.944334
21
3.659693
31
0.0
0
LINE
8
Layer 1
62
4
5
25b
100
AcDbEntity
100
AcDbLine
10
5.944334
20
3.659693
30
0.0
11
6.305243
21
4.195118
31
0.0
0
LINE
8
Layer 1
62
4
5
25c
100
AcDbEntity
100
AcDbLine
10
6.305243
20
4.195118
30
0.0
11
6.840666
21
4.556019
31
0.0
0
LINE
8
Layer 1
62
4
5
25d
100
AcDbEntity
100
AcDbLine
10
6.840666
20
4.556019
30
0.0
11
7.496528
21
4.688333
31
0.0
0
LINE
8
Layer 1
62
4
5
25e
100
AcDbEntity
100
AcDbLine
10
7.496528
20
4.688333
30
0.0
11
7.496528
21
4.688333
31
0.0
  0
ENDSEC
  0
SECTION
  2
OBJECTS
  0
DICTIONARY
  5
C
330
0
100
AcDbDictionary
  3
ACAD_GROUP
350
D
  3
ACAD_MLINESTYLE
350
17
  0
DICTIONARY
  5
D
330
C
100
AcDbDictionary
  0
DICTIONARY
  5
1A
330
C
100
AcDbDictionary
  0
DICTIONARY
  5
17
330
C
100
AcDbDictionary
  3
STANDARD
350
18
  0
DICTIONARY
  5
19
330
C
100
AcDbDictionary
  0
ENDSEC
  0
EOF
