<?xml version="1.0" encoding="UTF-8" standalone="no"?>
<!-- Creator: CorelDRAW -->

<svg
   xmlns:dc="http://purl.org/dc/elements/1.1/"
   xmlns:cc="http://creativecommons.org/ns#"
   xmlns:rdf="http://www.w3.org/1999/02/22-rdf-syntax-ns#"
   xmlns:svg="http://www.w3.org/2000/svg"
   xmlns="http://www.w3.org/2000/svg"
   xmlns:sodipodi="http://sodipodi.sourceforge.net/DTD/sodipodi-0.dtd"
   xmlns:inkscape="http://www.inkscape.org/namespaces/inkscape"
   xml:space="preserve"
   width="2.0073in"
   height="5.07931in"
   style="shape-rendering:geometricPrecision; text-rendering:geometricPrecision; image-rendering:optimizeQuality; fill-rule:evenodd; clip-rule:evenodd"
   viewBox="0 0 0.701781 1.7758"
   id="svg3569"
   version="1.1"
   inkscape:version="0.91 r13725"
   sodipodi:docname="TALKO_1_0_layout_by_dsc.svg"><metadata
     id="metadata3762"><rdf:RDF><cc:Work
         rdf:about=""><dc:format>image/svg+xml</dc:format><dc:type
           rdf:resource="http://purl.org/dc/dcmitype/StillImage" /><dc:title></dc:title></cc:Work></rdf:RDF></metadata><sodipodi:namedview
     pagecolor="#ffffff"
     bordercolor="#666666"
     borderopacity="1"
     objecttolerance="10"
     gridtolerance="10"
     guidetolerance="10"
     inkscape:pageopacity="0"
     inkscape:pageshadow="2"
     inkscape:window-width="1920"
     inkscape:window-height="1031"
     id="namedview3760"
     showgrid="false"
     inkscape:zoom="1.3379931"
     inkscape:cx="125.25222"
     inkscape:cy="170.68906"
     inkscape:window-x="0"
     inkscape:window-y="0"
     inkscape:window-maximized="1"
     inkscape:current-layer="svg3569" /><defs
     id="defs3571"><style
       type="text/css"
       id="style3573"><![CDATA[
    .str0 {stroke:black;stroke-width:0.00104884;stroke-linejoin:bevel}
    .str1 {stroke:#373435;stroke-width:0.00242803}
    .str5 {stroke:black;stroke-width:0.00485606;stroke-linejoin:bevel}
    .str4 {stroke:black;stroke-width:0.00728409;stroke-linejoin:bevel}
    .str3 {stroke:black;stroke-width:0.00971213;stroke-linejoin:bevel}
    .str2 {stroke:#373535;stroke-width:0.00242803}
    .fil6 {fill:none}
    .fil0 {fill:#E6E7E8}
    .fil1 {fill:#ED3237}
    .fil2 {fill:#FEFEFE}
    .fil5 {fill:black}
    .fil4 {fill:#373435;fill-rule:nonzero}
    .fil7 {fill:#ED3237;fill-rule:nonzero}
    .fil3 {fill:#FEFEFE;fill-rule:nonzero}
   ]]></style></defs><polygon
     style="fill:#e6e7e8;stroke:#000000;stroke-width:0.00104884;stroke-linejoin:bevel"
     id="polygon3577"
     points="0.701256,0.000524422 0.701256,1.77528 0.000524422,1.77528 0.000524422,0.000524422 "
     class="fil0 str0" /><circle
     style="fill:#ed3237"
     id="circle3579"
     r="0.087403603"
     cy="0.26724899"
     cx="0.55463898"
     class="fil1" /><path
     style="fill:#fefefe;stroke:#000000;stroke-width:0.00104884;stroke-linejoin:bevel"
     inkscape:connector-curvature="0"
     id="path3581"
     d="m 0.254117,1.62266 0,-0.1818 0.188792,0 0,0.1818 -0.188792,0 z m -3.0419e-4,-0.17907 0,0 z"
     class="fil2 str0" /><circle
     style="fill:#fefefe;stroke:#373435;stroke-width:0.00242803"
     id="circle3583"
     r="0.040205698"
     cy="0.44129199"
     cx="0.144862"
     class="fil2 str1" /><circle
     style="fill:#fefefe;stroke:#373435;stroke-width:0.00242803"
     id="circle3585"
     r="0.040205698"
     cy="0.44129199"
     cx="0.55607802"
     class="fil2 str1" /><circle
     style="fill:#fefefe;stroke:#373435;stroke-width:0.00242803"
     id="circle3587"
     r="0.0541902"
     cy="0.26724899"
     cx="0.143113"
     class="fil2 str1" /><circle
     style="fill:#fefefe;stroke:#373435;stroke-width:0.00242803"
     id="circle3589"
     r="0.0541902"
     cy="0.26724899"
     cx="0.55463898"
     class="fil2 str1" /><path
     style="fill:#fefefe;fill-rule:nonzero;stroke:#373535;stroke-width:0.00242803"
     inkscape:connector-curvature="0"
     id="path3591"
     d="m 0.0779489,0.0192068 0.0517429,0 c 0.0115331,0 0.0209824,0.0094245 0.0209824,0.0209769 l 0,0.002088 c 0,0.011551 -0.009449,0.0209769 -0.0209824,0.0209769 l -0.0517429,0 c -0.0115318,0 -0.0209769,-0.0094258 -0.0209769,-0.0209769 l 0,-0.002088 c 0,-0.0115524 0.0094451,-0.0209769 0.0209769,-0.0209769 z m 0,0 z"
     class="fil3 str2" /><path
     style="fill:#ed3237"
     inkscape:connector-curvature="0"
     id="path3593"
     d="m 0.440763,0.703237 -0.009108,0 0,0.007283 0.014721,0 C 0.451366,0.71040025 0.4570172,0.704571 0.457148,0.6991396 l 0,-0.0130926 0,-0.0813941 0,-0.0130926 C 0.45701724,0.5861293 0.451366,0.5802997 0.446376,0.5801799 l -0.106676,0 0,0.007283 0.101063,0 c 0.005028,1.7618e-4 0.00924,0.001897 0.009159,0.008954 l -4.13e-6,0.008237 -5.23e-5,0 2.615e-5,0.0267125 -2.615e-5,0.0546816 5.23e-5,0 4.13e-6,0.008237 c 8.121e-5,0.007057 -0.004131,0.008778 -0.009159,0.008954 z"
     class="fil1" /><circle
     style="fill:#fefefe;stroke:#373435;stroke-width:0.00242803"
     id="circle3595"
     r="0.087403603"
     cy="0.57937002"
     cx="0.35024199"
     class="fil2 str1" /><path
     style="fill:#fefefe;fill-rule:nonzero;stroke:#373535;stroke-width:0.00242803"
     inkscape:connector-curvature="0"
     id="path3597"
     d="m 0.0779489,1.71242 0.0517429,0 c 0.0115331,0 0.0209824,0.00942 0.0209824,0.020977 l 0,0.00209 c 0,0.011551 -0.009449,0.020977 -0.0209824,0.020977 l -0.0517429,0 c -0.0115318,0 -0.0209769,-0.00943 -0.0209769,-0.020977 l 0,-0.00209 c 0,-0.011552 0.0094451,-0.020977 0.0209769,-0.020977 z m 0,0 z"
     class="fil3 str2" /><circle
     style="fill:#fefefe;stroke:#373435;stroke-width:0.00242803"
     id="circle3599"
     r="0.0576864"
     cy="0.57937002"
     cx="0.35024199"
     class="fil2 str1" /><path
     style="fill:#373435;fill-rule:nonzero"
     inkscape:connector-curvature="0"
     id="path3601"
     d="m 0.478995,0.914335 0.0102214,-6.3867e-4 c 2.1748e-4,0.001659 6.717e-4,0.002921 0.001352,0.003795 0.0011,0.001408 0.002687,0.002105 0.004742,0.002105 0.001529,0 0.002712,-3.5649e-4 0.003544,-0.001076 8.2586e-4,-7.1987e-4 0.001239,-0.001554 0.001239,-0.002501 0,-8.9743e-4 -3.8816e-4,-0.001707 -0.001182,-0.00242 -7.9283e-4,-7.1161e-4 -0.002622,-0.001383 -0.005503,-0.002015 -0.00471,-0.00106 -0.008069,-0.00246 -0.0100755,-0.004216 -0.002023,-0.001756 -0.003034,-0.00399 -0.003034,-0.006709 0,-0.001788 5.1754e-4,-0.00348 0.001553,-0.005067 0.001036,-0.001586 0.00259,-0.002833 0.00467,-0.003747 0.00208,-9.0569e-4 0.004928,-0.00136 0.008546,-0.00136 0.004442,0 0.007833,8.2586e-4 0.0101636,0.002476 0.002332,0.001652 0.003715,0.004282 0.00416,0.007883 l -0.0101237,5.9049e-4 c -2.6703e-4,-0.001561 -8.3412e-4,-0.002702 -0.0017,-0.003415 -8.5752e-4,-7.0335e-4 -0.002047,-0.00106 -0.003561,-0.00106 -0.001254,0 -0.002193,2.5877e-4 -0.002824,7.9283e-4 -6.3041e-4,5.258e-4 -9.4561e-4,0.001174 -9.4561e-4,0.001934 0,5.5058e-4 2.5877e-4,0.001045 7.7631e-4,0.001489 5.0928e-4,4.6111e-4 0.001708,8.823e-4 0.003609,0.001279 0.004694,0.001012 0.008052,0.00204 0.0100838,0.003075 0.002032,0.001036 0.003513,0.002315 0.004435,0.003853 9.2221e-4,0.001529 0.001392,0.003246 0.001392,0.005146 0,0.002226 -6.2215e-4,0.004282 -0.001853,0.00616 -0.001231,0.001886 -0.002954,0.003309 -0.005171,0.004281 -0.002209,9.7039e-4 -0.005002,0.001456 -0.008367,0.001456 -0.005908,0 -0.0100039,-0.001133 -0.0122778,-0.003415 -0.002282,-0.002274 -0.003569,-0.005163 -0.003868,-0.008676 z"
     class="fil4" /><path
     style="fill:#373435;fill-rule:nonzero"
     inkscape:connector-curvature="0"
     d="m 0.514109,0.913316 c 0,-0.003835 0.001295,-0.007007 0.003884,-0.009492 0.002599,-0.002493 0.006095,-0.00374 0.010505,-0.00374 0.005042,0 0.008853,0.001466 0.0114272,0.004387 0.002072,0.002355 0.003108,0.005261 0.003108,0.008707 0,0.003869 -0.001287,0.007042 -0.003853,0.009518 -0.002566,0.002468 -0.006118,0.003707 -0.0106577,0.003707 -0.004047,0 -0.007316,-0.001028 -0.009817,-0.003085 C 0.5156375,0.920777 0.5141085,0.917443 0.5141085,0.9133154 Z m 0.009671,-2.34e-5 c 0,0.002249 4.5285e-4,0.003909 0.001368,0.004977 9.0569e-4,0.001076 0.002047,0.001619 0.003423,0.001619 0.001392,0 0.002533,-5.3406e-4 0.003423,-0.001595 8.9881e-4,-0.00106 0.001343,-0.002751 0.001343,-0.005098 0,-0.002176 -4.5285e-4,-0.003803 -0.001352,-0.004871 -8.9881e-4,-0.00106 -0.002015,-0.001594 -0.003342,-0.001594 -0.001408,0 -0.002574,5.4094e-4 -0.003488,0.001617 -9.1533e-4,0.001085 -0.001376,0.002736 -0.001376,0.004946 z"
     class="fil4"
     id="1" /><path
     style="fill:#373435;fill-rule:nonzero"
     inkscape:connector-curvature="0"
     d="m 0.574214,0.925836 -0.009014,0 0,-0.004078 C 0.563857,0.923433 0.562505,0.924631 0.561137,0.925334 0.55977,0.92604699 0.558087,0.926403 0.556095,0.926403 0.553441,0.926403 0.551361,0.9256088 0.549847,0.924023 0.548343,0.922437 0.54759,0.919985 0.54759,0.916682 l 0,-0.0160231 0.009696,0 0,0.0138469 c 0,0.001577 2.9043e-4,0.002702 8.7404e-4,0.003367 5.9049e-4,6.6344e-4 0.001408,9.9516e-4 0.002468,9.9516e-4 0.001158,0 0.002096,-4.4596e-4 0.002833,-0.001327 7.3639e-4,-8.9055e-4 0.0011,-0.002478 0.0011,-0.004768 l 0,-0.012114 0.009654,0 0,0.0251764 z"
     class="fil4"
     id="12" /><path
     style="fill:#373435;fill-rule:nonzero"
     inkscape:connector-curvature="0"
     d="m 0.580067,0.900659 0.008991,0 0,0.004095 C 0.590401,0.903079 0.59176,0.90189 0.593136,0.901168 0.594512,0.90044812 0.596188,0.900083 0.598161,0.900083 c 0.00267,0 0.004758,8.0246e-4 0.006272,0.002388 0.001504,0.001586 0.002257,0.004038 0.002257,0.007356 l 0,0.0160079 -0.009694,0 0,-0.0138469 c 0,-0.001577 -2.918e-4,-0.002695 -8.7404e-4,-0.00335 -5.9186e-4,-6.6344e-4 -0.001408,-9.869e-4 -0.002469,-9.869e-4 -0.001164,0 -0.00212,4.4458e-4 -0.00284,0.001327 -7.2951e-4,8.8229e-4 -0.001093,0.002476 -0.001093,0.004767 l 0,0.0120906 -0.009654,0 0,-0.0251764 z"
     class="fil4"
     id="123" /><path
     style="fill:#373435;fill-rule:nonzero"
     inkscape:connector-curvature="0"
     d="m 0.638966,0.891078 0,0.0347577 -0.009032,0 0,-0.003723 c -0.00127,0.001579 -0.00242,0.002647 -0.003463,0.003206 -0.001392,7.1988e-4 -0.002937,0.001085 -0.004645,0.001085 -0.003431,0 -0.006054,-0.001303 -0.007866,-0.003909 -0.001805,-0.002606 -0.00271,-0.005778 -0.00271,-0.00951 0,-0.004175 9.9516e-4,-0.007364 0.003002,-0.009573 0.001999,-0.002217 0.004539,-0.003327 0.007614,-0.003327 0.001506,0 0.002866,2.6015e-4 0.004096,7.6117e-4 0.001221,5.1066e-4 0.002306,0.001262 0.003261,0.002274 l 0,-0.0120411 0.009744,0 z m -0.009679,0.0221 c 0,-0.001982 -4.1293e-4,-0.003455 -0.001254,-0.004427 C 0.62719888,0.90778061 0.626139,0.907295 0.62486,0.907295 c -0.001125,0 -0.002063,4.6936e-4 -0.002824,0.0014 -7.6117e-4,9.3047e-4 -0.001141,0.002493 -0.001141,0.004694 0,0.002056 3.9641e-4,0.003561 0.001173,0.004516 7.8594e-4,9.5525e-4 0.001756,0.001433 0.002906,0.001433 0.001239,0 0.002266,-4.7762e-4 0.003083,-0.001441 8.2586e-4,-9.7039e-4 0.001231,-0.002541 0.001231,-0.004718 z"
     class="fil4"
     id="1234" /><path
     style="fill:#373435;fill-rule:nonzero"
     inkscape:connector-curvature="0"
     id="path3607"
     d="m 0.497819,1.14115 0.0178524,0 c 0.003884,0 0.006798,9.222e-4 0.008732,0.00277 0.001934,0.00185 0.002906,0.00448 0.002906,0.00789 0,0.00351 -0.001053,0.00626 -0.003164,0.00823 C 0.5220324,1.16202 0.5188114,1.163 0.5144824,1.163 l -0.005876,0 0,0.0129 -0.0107871,0 0,-0.034758 z m 0.0107871,0.014817 0.00263,0 c 0.002072,0 0.00352,-3.565e-4 0.004362,-0.00108 8.3412e-4,-7.198e-4 0.001254,-0.00164 0.001254,-0.00276 0,-0.00109 -3.6338e-4,-0.00202 -0.001092,-0.00278 -7.2125e-4,-7.598e-4 -0.002088,-0.00114 -0.004095,-0.00114 l -0.00306,0 0,0.00775 z"
     class="fil4" /><path
     style="fill:#373435;fill-rule:nonzero"
     inkscape:connector-curvature="0"
     d="m 0.532642,1.14115 0.009656,0 0,0.00657 -0.009656,0 0,-0.00657 z m 0,0.00958 0.009656,0 0,0.025176 -0.009656,0 0,-0.025176 z"
     class="fil4"
     id="path3609" /><path
     style="fill:#373435;fill-rule:nonzero"
     inkscape:connector-curvature="0"
     d="m 0.5601,1.14115 0,0.00958 0.005309,0 0,0.00704 -0.005309,0 0,0.00893 c 0,0.00108 1.0599e-4,0.00179 3.0832e-4,0.00214 3.152e-4,5.341e-4 8.6578e-4,8.093e-4 0.001659,8.093e-4 7.1162e-4,0 0.001708,-2.106e-4 0.002985,-6.235e-4 l 7.1299e-4,0.00667 c -0.002388,5.176e-4 -0.004612,7.777e-4 -0.006685,7.777e-4 -0.002403,0 -0.004175,-3.083e-4 -0.005309,-9.236e-4 -0.001141,-6.152e-4 -0.001982,-0.00155 -0.002524,-0.00281 -5.5057e-4,-0.00125 -8.176e-4,-0.00329 -8.176e-4,-0.00611 l 0,-0.00886 -0.003561,0 0,-0.00704 0.003561,0 0,-0.00463 0.00967,-0.00495 z"
     class="fil4"
     id="path3611" /><path
     style="fill:#373435;fill-rule:nonzero"
     inkscape:connector-curvature="0"
     d="M 0.588789,1.16607 0.597957,1.16711 C 0.59745598,1.16902 0.596622,1.17068 0.595473,1.17208 0.594317,1.17348 0.592844,1.17456 0.591046,1.17534 0.589258,1.1761095 0.586976,1.1765 0.584208,1.1765 c -0.00267,0 -0.004896,-2.505e-4 -0.006669,-7.446e-4 -0.00178,-5.011e-4 -0.003309,-0.0013 -0.004588,-0.00242 -0.001287,-0.00112 -0.00229,-0.00242 -0.00301,-0.00392 -7.2951e-4,-0.0015 -0.001093,-0.00349 -0.001093,-0.00597 0,-0.00259 4.3633e-4,-0.00475 0.001327,-0.00647 6.4692e-4,-0.00126 0.001529,-0.00239 0.002655,-0.0034 0.001125,-0.001 0.002274,-0.00176 0.003463,-0.00224 0.001877,-7.763e-4 0.004289,-0.00117 0.007226,-0.00117 0.004111,0 0.007244,7.364e-4 0.009404,0.00221 0.002153,0.00146 0.003675,0.00362 0.004541,0.00645 l -0.00908,0.00121 c -2.8355e-4,-0.00108 -8.0109e-4,-0.00189 -0.001554,-0.00243 -7.5291e-4,-5.506e-4 -0.001756,-8.176e-4 -0.003027,-8.176e-4 -0.001594,0 -0.002889,5.739e-4 -0.003876,0.00171 -9.869e-4,0.00115 -0.001481,0.00288 -0.001481,0.0052 0,0.00207 4.9414e-4,0.00364 0.001473,0.00472 9.7864e-4,0.00108 0.002226,0.00161 0.003747,0.00161 0.001262,0 0.002323,-3.248e-4 0.003189,-9.717e-4 8.5752e-4,-6.469e-4 0.001504,-0.00164 0.001934,-0.00299 z"
     class="fil4"
     id="path3613" /><path
     style="fill:#373435;fill-rule:nonzero"
     inkscape:connector-curvature="0"
     d="m 0.60156,1.14115 0.009654,0 0,0.012802 c 0.00131,-0.00136 0.002614,-0.00233 0.003909,-0.00291 0.001294,-5.905e-4 0.002831,-8.823e-4 0.004604,-8.823e-4 0.002622,0 0.004685,8.025e-4 0.006199,0.0024 0.001504,0.0016 0.002257,0.00405 0.002257,0.00735 l 0,0.016008 -0.009694,0 0,-0.013847 c 0,-0.00158 -2.918e-4,-0.0027 -8.7404e-4,-0.00335 -5.9186e-4,-6.634e-4 -0.001408,-9.869e-4 -0.002469,-9.869e-4 -0.001164,0 -0.00212,4.446e-4 -0.00284,0.00133 -7.2951e-4,8.823e-4 -0.001093,0.00248 -0.001093,0.00477 l 0,0.012091 -0.009654,0 0,-0.034758 z"
     class="fil4"
     id="path3615" /><path
     style="fill:#373435;fill-rule:nonzero"
     inkscape:connector-curvature="0"
     id="path3617"
     d="m 0.481423,1.40719 0.0102214,-6.387e-4 c 2.1748e-4,0.00166 6.717e-4,0.00292 0.001352,0.00379 0.0011,0.00141 0.002687,0.0021 0.004742,0.0021 0.001529,0 0.002712,-3.565e-4 0.003544,-0.00108 8.2586e-4,-7.199e-4 0.001239,-0.00155 0.001239,-0.0025 0,-8.975e-4 -3.8816e-4,-0.00171 -0.001182,-0.00242 -7.9283e-4,-7.116e-4 -0.002622,-0.00138 -0.005503,-0.00202 -0.00471,-0.00106 -0.008069,-0.00246 -0.0100755,-0.00422 -0.002023,-0.00176 -0.003034,-0.00399 -0.003034,-0.00671 0,-0.00179 5.1754e-4,-0.00348 0.001553,-0.00507 0.001036,-0.00159 0.00259,-0.00283 0.00467,-0.00375 0.00208,-9.057e-4 0.004928,-0.00136 0.008546,-0.00136 0.004442,0 0.007833,8.259e-4 0.0101636,0.00248 0.002332,0.00165 0.003715,0.00428 0.00416,0.00788 l -0.0101237,5.905e-4 c -2.6703e-4,-0.00156 -8.3412e-4,-0.0027 -0.0017,-0.00342 -8.5752e-4,-7.033e-4 -0.002047,-0.00106 -0.003561,-0.00106 -0.001254,0 -0.002193,2.587e-4 -0.002824,7.928e-4 -6.3041e-4,5.258e-4 -9.4561e-4,0.00117 -9.4561e-4,0.00193 0,5.506e-4 2.5877e-4,0.00104 7.7631e-4,0.00149 5.0928e-4,4.611e-4 0.001708,8.823e-4 0.003609,0.00128 0.004694,0.00101 0.008052,0.00204 0.0100838,0.00307 0.002032,0.00104 0.003513,0.00232 0.004435,0.00385 9.2221e-4,0.00153 0.001392,0.00325 0.001392,0.00515 0,0.00223 -6.2215e-4,0.00428 -0.001853,0.00616 -0.001231,0.00189 -0.002954,0.00331 -0.005171,0.00428 -0.002209,9.704e-4 -0.005002,0.00146 -0.008367,0.00146 -0.005908,0 -0.0100039,-0.00113 -0.0122778,-0.00341 -0.002282,-0.00227 -0.003569,-0.00516 -0.003868,-0.00868 z"
     class="fil4" /><path
     style="fill:#373435;fill-rule:nonzero"
     inkscape:connector-curvature="0"
     d="m 0.517768,1.42828 0,-0.034758 0.009031,0 0,0.00372 c 0.001255,-0.00157 0.002396,-0.00263 0.00344,-0.00318 0.001408,-7.446e-4 0.002962,-0.00112 0.00467,-0.00112 0.003367,0 0.005972,0.0013 0.007817,0.00387 0.001838,0.00257 0.00276,0.00576 0.00276,0.00956 0,0.00418 -0.001003,0.00738 -0.00301,0.00959 -0.002007,0.0022 -0.004548,0.0033 -0.007608,0.0033 -0.001489,0 -0.002848,-2.519e-4 -0.00407,-7.53e-4 C 0.529576,1.4179984 0.528475,1.417249 0.527512,1.416249 l 0,0.012026 -0.009744,0 z M 0.527447,1.406179 c 0,0.00199 4.1293e-4,0.00347 0.001254,0.00443 8.3412e-4,9.635e-4 0.001894,0.00145 0.003173,0.00145 0.001125,0 0.002063,-4.611e-4 0.002824,-0.00139 7.5979e-4,-9.236e-4 0.001141,-0.00249 0.001141,-0.0047 0,-0.00204 -3.9641e-4,-0.00354 -0.001189,-0.00449 -7.8594e-4,-9.621e-4 -0.001756,-0.00144 -0.002889,-0.00144 -0.001239,0 -0.002267,4.858e-4 -0.003085,0.00145 -8.2448e-4,9.635e-4 -0.001229,0.00253 -0.001229,0.00469 z"
     class="fil4"
     id="path3619" /><path
     style="fill:#373435;fill-rule:nonzero"
     inkscape:connector-curvature="0"
     d="m 0.578059,1.4085 -0.0193417,0 c 1.7068e-4,0.00155 5.9187e-4,0.0027 0.001255,0.00346 9.3047e-4,0.00109 0.002153,0.00164 0.003649,0.00164 9.4699e-4,0 0.001854,-2.354e-4 0.002703,-7.116e-4 5.258e-4,-3.001e-4 0.001085,-8.259e-4 0.001683,-0.00159 l 0.009508,8.74e-4 c -0.001456,0.00253 -0.003204,0.00435 -0.005259,0.00545 -0.002056,0.00109 -0.005002,0.00164 -0.008845,0.00164 -0.003335,0 -0.005957,-4.694e-4 -0.007875,-0.00141 -0.00191,-9.387e-4 -0.003496,-0.00244 -0.004751,-0.00448 -0.001254,-0.00205 -0.001884,-0.00445 -0.001884,-0.00722 0,-0.00393 0.001262,-0.00712 0.003778,-0.00955 0.002526,-0.00244 0.006005,-0.00366 0.0104485,-0.00366 0.003601,0 0.00645,5.506e-4 0.00853,0.00164 0.002088,0.00108 0.003682,0.00267 0.004767,0.00473 0.001092,0.00207 0.001634,0.00477 0.001634,0.00809 l 0,0.00109 z M 0.568251,1.40388 C 0.56805692,1.40201 0.5675559,1.40067 0.566747,1.39987 0.5659294,1.3990607 0.564861,1.39866 0.563534,1.39866 c -0.001537,0 -0.00276,6.153e-4 -0.003682,0.00183 -5.8361e-4,7.611e-4 -9.5525e-4,0.00189 -0.001109,0.00339 l 0.009508,0 z"
     class="fil4"
     id="path3621" /><path
     style="fill:#373435;fill-rule:nonzero"
     inkscape:connector-curvature="0"
     d="m 0.610446,1.4085 -0.0193417,0 c 1.7068e-4,0.00155 5.9187e-4,0.0027 0.001255,0.00346 9.3047e-4,0.00109 0.002153,0.00164 0.003649,0.00164 9.4699e-4,0 0.001854,-2.354e-4 0.002703,-7.116e-4 5.258e-4,-3.001e-4 0.001085,-8.259e-4 0.001683,-0.00159 l 0.009508,8.74e-4 c -0.001456,0.00253 -0.003204,0.00435 -0.005259,0.00545 -0.002056,0.00109 -0.005002,0.00164 -0.008845,0.00164 -0.003335,0 -0.005957,-4.694e-4 -0.007875,-0.00141 -0.00191,-9.387e-4 -0.003496,-0.00244 -0.004751,-0.00448 -0.001254,-0.00205 -0.001884,-0.00445 -0.001884,-0.00722 0,-0.00393 0.001262,-0.00712 0.003778,-0.00955 0.002526,-0.00244 0.006005,-0.00366 0.0104485,-0.00366 0.003601,0 0.00645,5.506e-4 0.00853,0.00164 0.002088,0.00108 0.003682,0.00267 0.004767,0.00473 0.001092,0.00207 0.001634,0.00477 0.001634,0.00809 l 0,0.00109 z M 0.600638,1.40388 C 0.60044392,1.40201 0.5999429,1.40067 0.599134,1.39987 0.5983164,1.3990607 0.597248,1.39866 0.595921,1.39866 c -0.001537,0 -0.00276,6.153e-4 -0.003682,0.00183 -5.8361e-4,7.611e-4 -9.5525e-4,0.00189 -0.001109,0.00339 l 0.009508,0 z"
     class="fil4"
     id="path3623" /><path
     style="fill:#373435;fill-rule:nonzero"
     inkscape:connector-curvature="0"
     d="m 0.641394,1.38394 0,0.034758 -0.009032,0 0,-0.00372 c -0.00127,0.00158 -0.00242,0.00265 -0.003463,0.00321 -0.001392,7.198e-4 -0.002937,0.00108 -0.004645,0.00108 -0.003431,0 -0.006054,-0.0013 -0.007866,-0.00391 -0.001805,-0.00261 -0.00271,-0.00578 -0.00271,-0.00951 0,-0.00417 9.9516e-4,-0.00736 0.003002,-0.00957 0.001999,-0.00222 0.004539,-0.00333 0.007614,-0.00333 0.001506,0 0.002866,2.601e-4 0.004096,7.611e-4 0.001221,5.107e-4 0.002306,0.00126 0.003261,0.00227 l 0,-0.012041 0.009744,0 z m -0.009679,0.0221 c 0,-0.00198 -4.1293e-4,-0.00345 -0.001254,-0.00443 -8.3412e-4,-9.704e-4 -0.001894,-0.00146 -0.003173,-0.00146 -0.001125,0 -0.002063,4.694e-4 -0.002824,0.0014 -7.6117e-4,9.305e-4 -0.001141,0.00249 -0.001141,0.00469 0,0.00206 3.9641e-4,0.00356 0.001173,0.00452 7.8594e-4,9.552e-4 0.001756,0.00143 0.002906,0.00143 0.001239,0 0.002266,-4.776e-4 0.003083,-0.00144 8.2586e-4,-9.704e-4 0.001231,-0.00254 0.001231,-0.00472 z"
     class="fil4"
     id="path3625" /><path
     style="fill:#373435;fill-rule:nonzero"
     inkscape:connector-curvature="0"
     id="path3627"
     d="m 0.497883,1.63673 0.0201097,0 c 0.00335,0 0.005924,8.327e-4 0.007712,0.00249 0.001798,0.00166 0.002695,0.00371 0.002695,0.00616 0,0.00206 -6.3867e-4,0.00382 -0.001917,0.00529 -8.5752e-4,9.786e-4 -0.002105,0.00176 -0.003747,0.00232 0.002493,5.988e-4 0.004329,0.00164 0.005511,0.00309 0.001173,0.00147 0.001763,0.0033 0.001763,0.00551 0,0.0018 -4.1981e-4,0.00342 -0.001254,0.00486 -8.41e-4,0.00144 -0.001982,0.00257 -0.00344,0.00341 -8.9744e-4,5.176e-4 -0.002257,8.988e-4 -0.004078,0.00113 -0.00242,3.152e-4 -0.004022,4.777e-4 -0.004815,4.777e-4 l -0.0185406,0 0,-0.034758 z m 0.0108353,0.013636 0.00467,0 c 0.001675,0 0.002841,-2.918e-4 0.003504,-8.672e-4 6.5518e-4,-5.822e-4 9.7865e-4,-0.00142 9.7865e-4,-0.0025 0,-0.00101 -3.2347e-4,-0.0018 -9.7865e-4,-0.00237 -6.6344e-4,-5.753e-4 -0.001805,-8.575e-4 -0.003431,-8.575e-4 l -0.004743,0 0,0.0066 z m 0,0.013652 0.00548,0 c 0.001853,0 0.003156,-3.235e-4 0.003909,-9.786e-4 7.5979e-4,-6.552e-4 0.001141,-0.00154 0.001141,-0.00265 0,-0.00103 -3.7301e-4,-0.00185 -0.001126,-0.00248 -7.5153e-4,-6.236e-4 -0.002063,-9.388e-4 -0.003949,-9.388e-4 l -0.005455,0 0,0.00704 z"
     class="fil4" /><path
     style="fill:#373435;fill-rule:nonzero"
     inkscape:connector-curvature="0"
     d="m 0.56294,1.66129 -0.0193417,0 c 1.7068e-4,0.00155 5.9187e-4,0.0027 0.001255,0.00346 9.3047e-4,0.00109 0.002153,0.00164 0.003649,0.00164 9.4699e-4,0 0.001854,-2.354e-4 0.002703,-7.116e-4 5.258e-4,-3.001e-4 0.001085,-8.259e-4 0.001683,-0.00159 l 0.009508,8.74e-4 c -0.001456,0.00253 -0.003204,0.00435 -0.005259,0.00545 -0.002056,0.00109 -0.005002,0.00164 -0.008845,0.00164 -0.003335,0 -0.005957,-4.694e-4 -0.007875,-0.00141 -0.00191,-9.387e-4 -0.003496,-0.00244 -0.004751,-0.00448 -0.001254,-0.00205 -0.001884,-0.00445 -0.001884,-0.00722 0,-0.00393 0.001262,-0.00712 0.003778,-0.00955 0.002526,-0.00244 0.006005,-0.00366 0.0104485,-0.00366 0.003601,0 0.00645,5.506e-4 0.00853,0.00164 0.002088,0.00108 0.003682,0.00267 0.004767,0.00473 0.001092,0.00207 0.001634,0.00477 0.001634,0.00809 l 0,0.00109 z M 0.553132,1.65667 C 0.55293792,1.6548 0.5524369,1.65346 0.551628,1.65266 0.5508104,1.6518507 0.549742,1.65145 0.548415,1.65145 c -0.001537,0 -0.00276,6.153e-4 -0.003682,0.00183 -5.8361e-4,7.611e-4 -9.5525e-4,0.00189 -0.001109,0.00339 l 0.009508,0 z"
     class="fil4"
     id="path3629" /><path
     style="fill:#373435;fill-rule:nonzero"
     inkscape:connector-curvature="0"
     d="m 0.567376,1.64631 0.008991,0 0,0.00409 C 0.57771,1.64872 0.579069,1.64754 0.580445,1.64681 0.581821,1.6460901 0.583497,1.64573 0.58547,1.64573 c 0.00267,0 0.004758,8.025e-4 0.006272,0.00239 0.001504,0.00159 0.002257,0.00404 0.002257,0.00736 l 0,0.016008 -0.009694,0 0,-0.013847 c 0,-0.00158 -2.918e-4,-0.0027 -8.7404e-4,-0.00335 -5.9186e-4,-6.635e-4 -0.001408,-9.869e-4 -0.002469,-9.869e-4 -0.001164,0 -0.00212,4.446e-4 -0.00284,0.00133 -7.2951e-4,8.823e-4 -0.001093,0.00248 -0.001093,0.00477 l 0,0.012091 -0.009654,0 0,-0.025176 z"
     class="fil4"
     id="path3631" /><path
     style="fill:#373435;fill-rule:nonzero"
     inkscape:connector-curvature="0"
     d="m 0.626275,1.63673 0,0.034758 -0.009032,0 0,-0.00372 c -0.00127,0.00158 -0.00242,0.00265 -0.003463,0.00321 -0.001392,7.198e-4 -0.002937,0.00108 -0.004645,0.00108 -0.003431,0 -0.006054,-0.0013 -0.007866,-0.00391 -0.001805,-0.00261 -0.00271,-0.00578 -0.00271,-0.00951 0,-0.00417 9.9516e-4,-0.00736 0.003002,-0.00957 0.001999,-0.00222 0.004539,-0.00333 0.007614,-0.00333 0.001506,0 0.002866,2.601e-4 0.004096,7.611e-4 0.001221,5.107e-4 0.002306,0.00126 0.003261,0.00227 l 0,-0.012041 0.009744,0 z m -0.009679,0.0221 c 0,-0.00198 -4.1293e-4,-0.00345 -0.001254,-0.00443 -8.3412e-4,-9.704e-4 -0.001894,-0.00146 -0.003173,-0.00146 -0.001125,0 -0.002063,4.694e-4 -0.002824,0.0014 -7.6117e-4,9.305e-4 -0.001141,0.00249 -0.001141,0.00469 0,0.00206 3.9641e-4,0.00356 0.001173,0.00452 7.8594e-4,9.552e-4 0.001756,0.00143 0.002906,0.00143 0.001239,0 0.002266,-4.776e-4 0.003083,-0.00144 C 0.61619186,1.6625696 0.616597,1.661 0.616597,1.65882 Z"
     class="fil4"
     id="path3633" /><path
     style="fill:#373435;fill-rule:nonzero"
     inkscape:connector-curvature="0"
     id="path3635"
     d="m 0.287145,0.685777 0.0201097,0 c 0.00335,0 0.005924,8.3274e-4 0.007712,0.002491 0.001798,0.00166 0.002695,0.003715 0.002695,0.00616 0,0.002055 -6.3867e-4,0.00382 -0.001917,0.005292 -8.5752e-4,9.7865e-4 -0.002105,0.001756 -0.003747,0.002322 0.002493,5.9875e-4 0.004329,0.001635 0.005511,0.003091 0.001173,0.001466 0.001763,0.003302 0.001763,0.005511 0,0.001805 -4.1981e-4,0.003423 -0.001254,0.004864 -8.41e-4,0.00144 -0.001982,0.002574 -0.00344,0.003415 -8.9744e-4,5.1754e-4 -0.002257,8.9881e-4 -0.004078,0.001133 -0.00242,3.152e-4 -0.004022,4.7762e-4 -0.004815,4.7762e-4 l -0.0185406,0 0,-0.0347577 z m 0.0108353,0.0136363 0.00467,0 c 0.001675,0 0.002841,-2.918e-4 0.003504,-8.6715e-4 6.5518e-4,-5.8224e-4 9.7865e-4,-0.001416 9.7865e-4,-0.0025 0,-0.001012 -3.2347e-4,-0.001805 -9.7865e-4,-0.002372 -6.6344e-4,-5.7535e-4 -0.001805,-8.5752e-4 -0.003431,-8.5752e-4 l -0.004743,0 0,0.006596 z m 0,0.0136515 0.00548,0 c 0.001853,0 0.003156,-3.2346e-4 0.003909,-9.7864e-4 7.5979e-4,-6.5519e-4 0.001141,-0.001537 0.001141,-0.002647 0,-0.001027 -3.7301e-4,-0.001853 -0.001126,-0.002476 -7.5153e-4,-6.2353e-4 -0.002063,-9.3873e-4 -0.003949,-9.3873e-4 l -0.005455,0 0,0.00704 z"
     class="fil4" /><path
     style="fill:#373435;fill-rule:nonzero"
     inkscape:connector-curvature="0"
     d="M 0.333048,0.703508 0.32383,0.70253624 c 3.4824e-4,-0.00161 8.4926e-4,-0.002881 0.001504,-0.003803 6.5656e-4,-9.2359e-4 0.001595,-0.001725 0.002833,-0.002405 8.823e-4,-4.9277e-4 0.002105,-8.7404e-4 0.00365,-0.001141 0.001546,-2.6703e-4 0.003221,-4.0468e-4 0.005025,-4.0468e-4 0.002889,0 0.005219,1.6242e-4 0.006968,4.8589e-4 0.001756,3.2346e-4 0.003221,0.001003 0.004387,0.002032 8.2586e-4,7.1161e-4 0.001473,0.001715 0.00195,0.003019 4.6936e-4,0.00131 7.0474e-4,0.002549 7.0474e-4,0.003738 l 0,0.0111202 c 0,0.001181 7.983e-5,0.002111 2.2573e-4,0.002783 1.5416e-4,6.717e-4 4.7762e-4,0.001531 9.869e-4,0.002574 l -0.009056,0 c -3.6337e-4,-6.4693e-4 -5.9874e-4,-0.001141 -7.1161e-4,-0.001481 -1.1287e-4,-3.3998e-4 -2.1886e-4,-8.7404e-4 -3.3172e-4,-0.001602 -0.001262,0.001222 -0.002526,0.002088 -0.003771,0.002606 -0.001708,6.9647e-4 -0.00369,0.001045 -0.005948,0.001045 -0.003003,0 -0.005286,-6.9648e-4 -0.006846,-0.002088 -0.001554,-0.001385 -0.002332,-0.0031 -0.002332,-0.00514 0,-0.001917 5.5883e-4,-0.003488 0.001683,-0.004718 0.001125,-0.001237 0.003189,-0.002153 0.006208,-0.002751 0.003626,-7.2814e-4 0.005972,-0.001237 0.007049,-0.001529 0.001068,-2.9043e-4 0.002209,-6.7996e-4 0.003407,-0.001149 0,-0.001189 -2.4226e-4,-0.002015 -7.2814e-4,-0.002493 -4.9414e-4,-4.6937e-4 -0.001352,-7.1162e-4 -0.00259,-7.1162e-4 -0.001577,0 -0.002758,2.5877e-4 -0.003553,7.6117e-4 -6.1389e-4,3.9641e-4 -0.001116,0.001141 -0.001496,0.002226 z M 0.341415,0.708582 C 0.340088,0.70905962 0.338703,0.70948081 0.337272,0.709844 0.335313,0.71036154 0.334066,0.71088 0.333549,0.711381 c -5.4232e-4,5.258e-4 -8.0934e-4,0.001118 -8.0934e-4,0.001781 0,7.5979e-4 2.6702e-4,0.001375 7.9282e-4,0.001861 5.3406e-4,4.7762e-4 0.001312,7.1988e-4 0.00234,7.1988e-4 0.001076,0 0.002072,-2.5877e-4 0.003002,-7.7631e-4 9.2221e-4,-5.258e-4 0.001577,-0.001166 0.001967,-0.00191 3.8816e-4,-7.5154e-4 5.7398e-4,-0.001732 5.7398e-4,-0.002929 l 0,-0.001546 z"
     class="fil4"
     id="path3637" /><path
     style="fill:#373435;fill-rule:nonzero"
     inkscape:connector-curvature="0"
     d="m 0.356638,0.695358 0.008991,0 0,0.004095 C 0.366972,0.697778 0.368331,0.696589 0.369707,0.695867 0.371083,0.69514712 0.372759,0.694782 0.374732,0.694782 c 0.00267,0 0.004758,8.0246e-4 0.006272,0.002388 0.001504,0.001586 0.002257,0.004038 0.002257,0.007356 l 0,0.0160079 -0.009694,0 0,-0.0138469 c 0,-0.001577 -2.918e-4,-0.002695 -8.7404e-4,-0.00335 -5.9186e-4,-6.6344e-4 -0.001408,-9.869e-4 -0.002469,-9.869e-4 -0.001164,0 -0.00212,4.4458e-4 -0.00284,0.001327 -7.2951e-4,8.8229e-4 -0.001093,0.002476 -0.001093,0.004767 l 0,0.0120906 -0.009654,0 0,-0.0251764 z"
     class="fil4"
     id="path3639" /><polygon
     style="fill:#373435;fill-rule:nonzero"
     points="0.398891,0.703702 0.406101,0.695358 0.417981,0.695358 0.408942,0.70418 0.4185,0.720535 0.407615,0.720535 0.402516,0.710435 0.398891,0.713987 0.398891,0.720535 0.389026,0.720535 0.389026,0.685777 0.398891,0.685777 "
     class="fil4"
     id="polygon3641" /><path
     style="fill:#373435;fill-rule:nonzero"
     inkscape:connector-curvature="0"
     id="path3643"
     d="m 0.506238,0.163086 -0.0122365,0 -0.001683,0.005738 -0.0109743,0 0.0130624,-0.0347577 0.0117093,0 0.0130706,0.0347577 -0.0112413,0 -0.001707,-0.005738 z M 0.503988,0.155568 0.500144,0.1430727 0.496324,0.155568 l 0.007664,0 z"
     class="fil4" /><path
     style="fill:#373435;fill-rule:nonzero"
     inkscape:connector-curvature="0"
     d="m 0.548036,0.168824 -0.009014,0 0,-0.004078 C 0.537679,0.166421 0.536327,0.167619 0.534959,0.168322 0.533592,0.16903499 0.531909,0.169391 0.529917,0.169391 0.527263,0.169391 0.525183,0.1685968 0.523669,0.167011 0.522165,0.165425 0.521412,0.162973 0.521412,0.15967 l 0,-0.0160231 0.009696,0 0,0.0138469 c 0,0.001577 2.9043e-4,0.002702 8.7404e-4,0.003367 5.9049e-4,6.6344e-4 0.001408,9.9516e-4 0.002468,9.9516e-4 0.001158,0 0.002096,-4.4596e-4 0.002833,-0.001327 7.3639e-4,-8.9055e-4 0.0011,-0.002478 0.0011,-0.004768 l 0,-0.012114 0.009654,0 0,0.0251764 z"
     class="fil4"
     id="path3645" /><path
     style="fill:#373435;fill-rule:nonzero"
     inkscape:connector-curvature="0"
     d="m 0.5804,0.134066 0,0.0347577 -0.009032,0 0,-0.003723 c -0.00127,0.001579 -0.00242,0.002647 -0.003463,0.003206 -0.001392,7.1988e-4 -0.002937,0.001085 -0.004645,0.001085 -0.003431,0 -0.006054,-0.001303 -0.007866,-0.003909 -0.001805,-0.002606 -0.00271,-0.005778 -0.00271,-0.00951 0,-0.004175 9.9516e-4,-0.007364 0.003002,-0.009573 0.001999,-0.002217 0.004539,-0.003327 0.007614,-0.003327 0.001506,0 0.002866,2.6015e-4 0.004096,7.6117e-4 0.001221,5.1066e-4 0.002306,0.001262 0.003261,0.002274 l 0,-0.0120411 0.009744,0 z m -0.009679,0.0221 c 0,-0.001982 -4.1293e-4,-0.003455 -0.001254,-0.004427 -8.3412e-4,-9.7039e-4 -0.001894,-0.001456 -0.003173,-0.001456 -0.001125,0 -0.002063,4.6936e-4 -0.002824,0.0014 -7.6117e-4,9.3047e-4 -0.001141,0.002493 -0.001141,0.004694 0,0.002056 3.9641e-4,0.003561 0.001173,0.004516 7.8594e-4,9.5525e-4 0.001756,0.001433 0.002906,0.001433 0.001239,0 0.002266,-4.7762e-4 0.003083,-0.001441 8.2586e-4,-9.7039e-4 0.001231,-0.002541 0.001231,-0.004718 z"
     class="fil4"
     id="path3647" /><path
     style="fill:#373435;fill-rule:nonzero"
     inkscape:connector-curvature="0"
     d="m 0.586631,0.134066 0.009656,0 0,0.006571 -0.009656,0 0,-0.006571 z m 0,0.009581 0.009656,0 0,0.0251764 -0.009656,0 0,-0.0251764 z"
     class="fil4"
     id="path3649" /><path
     style="fill:#373435;fill-rule:nonzero"
     inkscape:connector-curvature="0"
     d="m 0.601263,0.156304 c 0,-0.003835 0.001295,-0.007007 0.003884,-0.009492 0.002599,-0.002493 0.006095,-0.00374 0.010505,-0.00374 0.005042,0 0.008853,0.001466 0.0114272,0.004387 0.002072,0.002355 0.003108,0.005261 0.003108,0.008707 0,0.003869 -0.001287,0.007042 -0.003853,0.009518 -0.002566,0.002468 -0.006118,0.003707 -0.0106577,0.003707 -0.004047,0 -0.007316,-0.001028 -0.009817,-0.003085 C 0.6027915,0.163765 0.6012625,0.160431 0.6012625,0.1563034 Z m 0.009671,-2.34e-5 c 0,0.002249 4.5285e-4,0.003909 0.001368,0.004977 9.0569e-4,0.001076 0.002047,0.001619 0.003423,0.001619 0.001392,0 0.002533,-5.3406e-4 0.003423,-0.001595 8.9881e-4,-0.00106 0.001343,-0.002751 0.001343,-0.005098 0,-0.002176 -4.5285e-4,-0.003803 -0.001352,-0.004871 -8.9881e-4,-0.00106 -0.002015,-0.001594 -0.003342,-0.001594 -0.001408,0 -0.002574,5.4094e-4 -0.003488,0.001617 -9.1533e-4,0.001085 -0.001376,0.002736 -0.001376,0.004946 z"
     class="fil4"
     id="path3651" /><path
     style="fill:#373435;fill-rule:nonzero"
     inkscape:connector-curvature="0"
     id="path3653"
     d="m 0.103768,0.156231 0,-0.007226 0.0165902,0 0,0.0148173 c -0.003173,0.002161 -0.005981,0.003642 -0.008425,0.00442 -0.002443,7.8457e-4 -0.005341,0.001173 -0.008691,0.001173 -0.0041279,0 -0.0074864,-7.0336e-4 -0.0100838,-0.002111 -0.0026056,-0.0014 -0.0046207,-0.003496 -0.0060453,-0.006281 -0.0014329,-0.002783 -0.0021527,-0.005972 -0.0021527,-0.009573 0,-0.003796 7.8457e-4,-0.007098 0.0023468,-0.009906 0.0015705,-0.0028 0.0038595,-0.004928 0.0068781,-0.006385 0.0023551,-0.001125 0.0055278,-0.001683 0.0095098,-0.001683 0.003836,0 0.006709,3.4824e-4 0.008619,0.001045 0.001901,6.951e-4 0.00348,0.001771 0.004742,0.003237 0.001254,0.001456 0.002201,0.003309 0.002833,0.005559 l -0.010359,0.001844 c -4.2945e-4,-0.00131 -0.001158,-0.002314 -0.002178,-0.00301 -0.00101,-6.951e-4 -0.002314,-0.001043 -0.003893,-0.001043 -0.002355,0 -0.0042325,8.176e-4 -0.0056324,0.002451 -0.0013998,0.001643 -0.0021032,0.004224 -0.0021032,0.00777 0,0.003762 7.1162e-4,0.006449 0.002128,0.00806 0.0014081,0.00161 0.0033833,0.002418 0.0059159,0.002418 0.001198,0 0.002347,-1.7756e-4 0.003431,-5.258e-4 0.001092,-3.4824e-4 0.002347,-9.3873e-4 0.003747,-0.001771 l 0,-0.003279 -0.007178,0 z"
     class="fil4" /><path
     style="fill:#373435;fill-rule:nonzero"
     inkscape:connector-curvature="0"
     d="M 0.134893,0.151797 0.125675,0.15082524 c 3.4824e-4,-0.00161 8.4926e-4,-0.002881 0.001504,-0.003803 6.5656e-4,-9.2359e-4 0.001595,-0.001725 0.002833,-0.002405 8.8229e-4,-4.9277e-4 0.002105,-8.7404e-4 0.00365,-0.001141 0.001546,-2.6703e-4 0.003221,-4.0467e-4 0.005025,-4.0467e-4 0.002889,0 0.005219,1.6241e-4 0.006968,4.8588e-4 0.001756,3.2346e-4 0.003221,0.001003 0.004387,0.002032 8.2586e-4,7.1161e-4 0.001473,0.001715 0.00195,0.003019 4.6936e-4,0.00131 7.0474e-4,0.002549 7.0474e-4,0.003738 l 0,0.0111202 c 0,0.001181 7.983e-5,0.002111 2.2573e-4,0.002783 1.5416e-4,6.717e-4 4.7762e-4,0.001531 9.869e-4,0.002574 l -0.009056,0 c -3.6337e-4,-6.4693e-4 -5.9874e-4,-0.001141 -7.1161e-4,-0.001481 -1.1287e-4,-3.3998e-4 -2.1886e-4,-8.7404e-4 -3.3172e-4,-0.001602 -0.001262,0.001222 -0.002526,0.002088 -0.003771,0.002606 -0.001708,6.9647e-4 -0.00369,0.001045 -0.005948,0.001045 -0.003003,0 -0.005286,-6.9648e-4 -0.006846,-0.002088 -0.001554,-0.001385 -0.002332,-0.0031 -0.002332,-0.00514 0,-0.001917 5.5883e-4,-0.003488 0.001683,-0.004718 0.001125,-0.001237 0.003189,-0.002153 0.006208,-0.002751 0.003626,-7.2814e-4 0.005972,-0.001237 0.007049,-0.001529 0.001068,-2.9043e-4 0.002209,-6.7996e-4 0.003407,-0.001149 0,-0.001189 -2.4226e-4,-0.002015 -7.2814e-4,-0.002493 -4.9414e-4,-4.6937e-4 -0.001352,-7.1162e-4 -0.00259,-7.1162e-4 -0.001577,0 -0.002758,2.5877e-4 -0.003553,7.6117e-4 -6.1389e-4,3.9641e-4 -0.001116,0.001141 -0.001496,0.002226 z M 0.14326,0.156871 C 0.141933,0.15734862 0.140548,0.15776981 0.139117,0.158133 0.137158,0.15865054 0.135911,0.159169 0.135394,0.15967 c -5.4231e-4,5.258e-4 -8.0934e-4,0.001118 -8.0934e-4,0.001781 0,7.5979e-4 2.6702e-4,0.001375 7.9282e-4,0.001861 5.3406e-4,4.7762e-4 0.001312,7.1988e-4 0.00234,7.1988e-4 0.001076,0 0.002072,-2.5877e-4 0.003002,-7.7631e-4 9.2221e-4,-5.258e-4 0.001577,-0.001166 0.001967,-0.00191 3.8816e-4,-7.5154e-4 5.7398e-4,-0.001732 5.7398e-4,-0.002929 l 0,-0.001546 z"
     class="fil4"
     id="path3655" /><path
     style="fill:#373435;fill-rule:nonzero"
     inkscape:connector-curvature="0"
     d="m 0.169295,0.134066 0,0.009581 0.005309,0 0,0.00704 -0.005309,0 0,0.008934 c 0,0.001076 1.0599e-4,0.001788 3.0832e-4,0.002136 3.1521e-4,5.3406e-4 8.6578e-4,8.0934e-4 0.001659,8.0934e-4 7.1162e-4,0 0.001708,-2.1059e-4 0.002985,-6.2352e-4 l 7.1299e-4,0.006669 c -0.002388,5.1754e-4 -0.004612,7.7768e-4 -0.006685,7.7768e-4 -0.002403,0 -0.004175,-3.0832e-4 -0.005309,-9.2358e-4 -0.001141,-6.1527e-4 -0.001982,-0.001554 -0.002524,-0.002808 -5.5057e-4,-0.001254 -8.176e-4,-0.003294 -8.176e-4,-0.00611 l 0,-0.008861 -0.003561,0 0,-0.00704 0.003561,0 0,-0.004629 0.009671,-0.004952 z"
     class="fil4"
     id="path3657" /><path
     style="fill:#373435;fill-rule:nonzero"
     inkscape:connector-curvature="0"
     d="m 0.207152,0.158627 -0.0193417,0 c 1.7068e-4,0.001554 5.9187e-4,0.002703 0.001255,0.003463 9.3047e-4,0.001093 0.002153,0.001635 0.003649,0.001635 9.4699e-4,0 0.001854,-2.3537e-4 0.002703,-7.1162e-4 5.258e-4,-3.0006e-4 0.001085,-8.2586e-4 0.001683,-0.001587 l 0.009508,8.7404e-4 c -0.001456,0.002533 -0.003204,0.004345 -0.005259,0.005447 -0.002056,0.001093 -0.005002,0.001643 -0.008845,0.001643 -0.003335,0 -0.005957,-4.6937e-4 -0.007875,-0.001408 -0.00191,-9.3873e-4 -0.003496,-0.002436 -0.004751,-0.004484 -0.001254,-0.002047 -0.001884,-0.00445 -0.001884,-0.007218 0,-0.003934 0.001262,-0.007122 0.003778,-0.00955 0.002526,-0.002436 0.006005,-0.003659 0.0104485,-0.003659 0.003601,0 0.00645,5.5057e-4 0.00853,0.001643 0.002088,0.001085 0.003682,0.00267 0.004767,0.004734 0.001092,0.002073 0.001634,0.004768 0.001634,0.008085 l 0,0.001093 z M 0.197344,0.154006 C 0.19714992,0.152135 0.1966489,0.1508 0.19584,0.149999 0.1950224,0.14918966 0.193954,0.148785 0.192627,0.148785 c -0.001537,0 -0.00276,6.1527e-4 -0.003682,0.001829 -5.8361e-4,7.6117e-4 -9.5525e-4,0.001886 -0.001109,0.003392 l 0.009508,0 z"
     class="fil4"
     id="path3659" /><path
     style="fill:#373435;fill-rule:nonzero"
     inkscape:connector-curvature="0"
     id="path3661"
     d="m 0.0295934,0.527963 0.0201097,0 c 0.0033502,0 0.0059242,8.3274e-4 0.0077122,0.002491 0.0017976,0.00166 0.0026951,0.003715 0.0026951,0.00616 0,0.002055 -6.3867e-4,0.00382 -0.0019174,0.005292 -8.5752e-4,9.7864e-4 -0.0021046,0.001756 -0.0037467,0.002322 0.0024927,5.9875e-4 0.0043289,0.001635 0.0055112,0.003091 0.0011727,0.001466 0.0017632,0.003302 0.0017632,0.005511 0,0.001805 -4.1981e-4,0.003423 -0.0012539,0.004864 -8.41e-4,0.00144 -0.0019821,0.002574 -0.0034397,0.003415 -8.9744e-4,5.1754e-4 -0.0022573,8.9881e-4 -0.0040784,0.001133 -0.0024198,3.152e-4 -0.0040219,4.7762e-4 -0.0048148,4.7762e-4 l -0.0185406,0 0,-0.0347577 z m 0.0108353,0.0136363 0.0046702,0 c 0.0016751,0 0.002841,-2.918e-4 0.0035044,-8.6715e-4 6.5518e-4,-5.8224e-4 9.7864e-4,-0.001416 9.7864e-4,-0.0025 0,-0.001012 -3.2346e-4,-0.001805 -9.7864e-4,-0.002372 C 0.04793986,0.5352848 0.0467988,0.53500263 0.0451718,0.53500263 l -0.0047432,0 0,0.006596 z m 0,0.0136515 0.0054796,0 c 0.0018527,0 0.0031562,-3.2346e-4 0.0039091,-9.7864e-4 7.5979e-4,-6.5519e-4 0.0011411,-0.001537 0.0011411,-0.002647 0,-0.001027 -3.7301e-4,-0.001853 -0.0011259,-0.002476 -7.5153e-4,-6.2352e-4 -0.0020633,-9.3872e-4 -0.003949,-9.3872e-4 l -0.0054548,0 0,0.00704 z"
     class="fil4" /><path
     style="fill:#373435;fill-rule:nonzero"
     inkscape:connector-curvature="0"
     d="m 0.0946506,0.552524 -0.0193417,0 c 1.7068e-4,0.001554 5.9187e-4,0.002703 0.0012553,0.003463 9.3047e-4,0.001093 0.0021527,0.001635 0.0036489,0.001635 9.4699e-4,0 0.0018541,-2.3537e-4 0.0027033,-7.1162e-4 5.258e-4,-3.0006e-4 0.0010846,-8.2586e-4 0.0016834,-0.001587 l 0.0095084,8.7404e-4 c -0.0014563,0.002533 -0.0032043,0.004345 -0.0052594,0.005447 -0.0020564,0.001093 -0.005002,0.001643 -0.008845,0.001643 -0.0033351,0 -0.0059572,-4.6936e-4 -0.0078746,-0.001408 -0.0019105,-9.3873e-4 -0.0034961,-0.002436 -0.0047515,-0.004484 -0.0012539,-0.002047 -0.0018843,-0.00445 -0.0018843,-0.007218 0,-0.003934 0.0012622,-0.007122 0.0037783,-0.00955 0.0025258,-0.002436 0.0060054,-0.003659 0.0104485,-0.003659 0.0036007,0 0.00645,5.5057e-4 0.0085298,0.001643 0.0020881,0.001085 0.003682,0.00267 0.0047666,0.004734 0.0010915,0.002073 0.0016338,0.004768 0.0016338,0.008085 l 0,0.001093 z M 0.0848421,0.547903 C 0.08464802,0.546032 0.084147,0.544697 0.0833377,0.543896 0.0825201,0.54308666 0.081452,0.542682 0.0801251,0.542682 c -0.0015375,0 -0.0027598,6.1527e-4 -0.003682,0.001829 -5.8361e-4,7.6117e-4 -9.5525e-4,0.001886 -0.0011094,0.003392 l 0.0095084,0 z"
     class="fil4"
     id="path3663" /><path
     style="fill:#373435;fill-rule:nonzero"
     inkscape:connector-curvature="0"
     d="m 0.0990868,0.537545 0.0089909,0 0,0.004095 c 0.001343,-0.001675 0.002702,-0.002864 0.004078,-0.003586 0.001376,-7.1988e-4 0.003052,-0.001085 0.005025,-0.001085 0.00267,0 0.004758,8.0246e-4 0.006272,0.002388 0.001504,0.001586 0.002257,0.004038 0.002257,0.007356 l 0,0.0160079 -0.009694,0 0,-0.0138469 c 0,-0.001577 -2.918e-4,-0.002695 -8.7404e-4,-0.00335 -5.9186e-4,-6.6344e-4 -0.001408,-9.869e-4 -0.002469,-9.869e-4 -0.001164,0 -0.00212,4.4459e-4 -0.00284,0.001327 -7.2951e-4,8.8229e-4 -0.001093,0.002476 -0.001093,0.004767 l 0,0.0120906 -0.0096543,0 0,-0.0251764 z"
     class="fil4"
     id="path3665" /><path
     style="fill:#373435;fill-rule:nonzero"
     inkscape:connector-curvature="0"
     d="m 0.157986,0.527963 0,0.0347577 -0.009032,0 0,-0.003723 c -0.00127,0.001579 -0.00242,0.002647 -0.003463,0.003206 -0.001392,7.1988e-4 -0.002937,0.001085 -0.004645,0.001085 -0.003431,0 -0.006054,-0.001303 -0.007866,-0.003909 -0.001805,-0.002606 -0.00271,-0.005778 -0.00271,-0.00951 0,-0.004175 9.9516e-4,-0.007364 0.003002,-0.009573 0.001999,-0.002217 0.004539,-0.003327 0.007614,-0.003327 0.001506,0 0.002866,2.6015e-4 0.004096,7.6117e-4 0.001221,5.1066e-4 0.002306,0.001262 0.003261,0.002274 l 0,-0.0120411 0.009744,0 z m -0.009679,0.0221 c 0,-0.001982 -4.1293e-4,-0.003455 -0.001254,-0.004427 C 0.14621888,0.54466561 0.145159,0.54418 0.14388,0.54418 c -0.001125,0 -0.002063,4.6936e-4 -0.002824,0.0014 -7.6117e-4,9.3047e-4 -0.001141,0.002493 -0.001141,0.004694 0,0.002056 3.9641e-4,0.003561 0.001173,0.004516 7.8594e-4,9.5525e-4 0.001756,0.001433 0.002906,0.001433 0.001239,0 0.002266,-4.7762e-4 0.003083,-0.001441 8.2586e-4,-9.7039e-4 0.001231,-0.002541 0.001231,-0.004718 z"
     class="fil4"
     id="path3667" /><path
     style="fill:#373435;fill-rule:nonzero"
     inkscape:connector-curvature="0"
     id="path3669"
     d="m 0.554216,0.545361 c 0,-0.005672 0.001587,-0.0100906 0.004743,-0.0132468 0.003163,-0.003164 0.007566,-0.004743 0.0132069,-0.004743 0.005787,0 0.0102448,0.001554 0.0133776,0.004662 0.003123,0.0031 0.004694,0.007453 0.004694,0.0130459 0,0.004062 -6.8822e-4,0.007397 -0.002056,0.009994 -0.001367,0.002597 -0.003342,0.004621 -0.005923,0.006069 -0.00259,0.001449 -0.005803,0.002169 -0.009663,0.002169 -0.003917,0 -0.007163,-6.2352e-4 -0.009736,-0.001869 -0.002566,-0.001254 -0.004645,-0.003229 -0.006248,-0.005932 -0.001595,-0.002702 -0.002396,-0.006085 -0.002396,-0.0101485 z m 0.0107472,4.955e-5 c 0,0.003511 6.483e-4,0.006029 0.00195,0.007566 0.001303,0.001529 0.003083,0.002299 0.005325,0.002299 0.002307,0 0.004095,-7.5291e-4 0.005357,-0.00225 0.001262,-0.001504 0.001902,-0.0042 0.001902,-0.008084 0,-0.003277 -6.6344e-4,-0.005665 -0.001983,-0.007178 -0.001319,-0.001506 -0.003107,-0.002259 -0.005374,-0.002259 -0.002161,0 -0.003901,7.6117e-4 -0.005211,0.002299 -0.001312,0.001529 -0.001967,0.00407 -0.001967,0.007608 z"
     class="fil4" /><path
     style="fill:#373435;fill-rule:nonzero"
     inkscape:connector-curvature="0"
     d="m 0.595377,0.537545 0.008991,0 0,0.004095 C 0.605711,0.539965 0.60707,0.538776 0.608446,0.538054 0.609822,0.53733412 0.611498,0.536969 0.613471,0.536969 c 0.00267,0 0.004758,8.0246e-4 0.006272,0.002388 C 0.621247,0.540943 0.622,0.543395 0.622,0.546713 l 0,0.0160079 -0.009694,0 0,-0.0138469 c 0,-0.001577 -2.918e-4,-0.002695 -8.7404e-4,-0.00335 -5.9186e-4,-6.6344e-4 -0.001408,-9.869e-4 -0.002469,-9.869e-4 -0.001164,0 -0.00212,4.4459e-4 -0.00284,0.001327 -7.2951e-4,8.8229e-4 -0.001093,0.002476 -0.001093,0.004767 l 0,0.0120906 -0.009654,0 0,-0.0251764 z"
     class="fil4"
     id="path3671" /><path
     style="fill:#373435;fill-rule:nonzero"
     inkscape:connector-curvature="0"
     d="m 0.655716,0.552524 -0.0193417,0 c 1.7068e-4,0.001554 5.9187e-4,0.002703 0.001255,0.003463 9.3047e-4,0.001093 0.002153,0.001635 0.003649,0.001635 9.4699e-4,0 0.001854,-2.3537e-4 0.002703,-7.1162e-4 5.258e-4,-3.0006e-4 0.001085,-8.2586e-4 0.001683,-0.001587 l 0.009508,8.7404e-4 c -0.001456,0.002533 -0.003204,0.004345 -0.005259,0.005447 -0.002056,0.001093 -0.005002,0.001643 -0.008845,0.001643 -0.003335,0 -0.005957,-4.6936e-4 -0.007875,-0.001408 -0.00191,-9.3873e-4 -0.003496,-0.002436 -0.004751,-0.004484 -0.001254,-0.002047 -0.001884,-0.00445 -0.001884,-0.007218 0,-0.003934 0.001262,-0.007122 0.003778,-0.00955 0.002526,-0.002436 0.006005,-0.003659 0.0104485,-0.003659 0.003601,0 0.00645,5.5057e-4 0.00853,0.001643 0.002088,0.001085 0.003682,0.00267 0.004767,0.004734 0.001092,0.002073 0.001634,0.004768 0.001634,0.008085 l 0,0.001093 z M 0.645908,0.547903 C 0.64571392,0.546032 0.6452129,0.544697 0.644404,0.543896 0.6435864,0.54308666 0.642518,0.542682 0.641191,0.542682 c -0.001537,0 -0.00276,6.1527e-4 -0.003682,0.001829 -5.8361e-4,7.6117e-4 -9.5525e-4,0.001886 -0.001109,0.003392 l 0.009508,0 z"
     class="fil4"
     id="path3673" /><path
     style="fill:#373435;fill-rule:nonzero"
     inkscape:connector-curvature="0"
     d="m 0.545613,0.619693 0.0102214,-6.3867e-4 c 2.1748e-4,0.001659 6.717e-4,0.002921 0.001352,0.003795 0.0011,0.001408 0.002687,0.002105 0.004742,0.002105 0.001529,0 0.002712,-3.5649e-4 0.003544,-0.001076 8.2586e-4,-7.1987e-4 0.001239,-0.001554 0.001239,-0.002501 0,-8.9743e-4 -3.8815e-4,-0.001707 -0.001182,-0.00242 -7.9283e-4,-7.1161e-4 -0.002622,-0.001383 -0.005503,-0.002015 -0.00471,-0.00106 -0.008069,-0.00246 -0.0100755,-0.004216 -0.002023,-0.001756 -0.003034,-0.00399 -0.003034,-0.006709 0,-0.001788 5.1754e-4,-0.00348 0.001553,-0.005067 0.001036,-0.001586 0.00259,-0.002833 0.00467,-0.003747 0.00208,-9.0569e-4 0.004928,-0.00136 0.008546,-0.00136 0.004442,0 0.007833,8.2586e-4 0.0101636,0.002476 0.002332,0.001652 0.003715,0.004282 0.00416,0.007883 l -0.0101237,5.9049e-4 c -2.6703e-4,-0.001561 -8.3412e-4,-0.002702 -0.0017,-0.003415 -8.5752e-4,-7.0335e-4 -0.002047,-0.00106 -0.003561,-0.00106 -0.001254,0 -0.002193,2.5877e-4 -0.002824,7.9283e-4 -6.3041e-4,5.258e-4 -9.4561e-4,0.001174 -9.4561e-4,0.001934 0,5.5058e-4 2.5877e-4,0.001045 7.7631e-4,0.001489 5.0928e-4,4.6111e-4 0.001708,8.823e-4 0.003609,0.001279 0.004694,0.001012 0.008052,0.00204 0.0100838,0.003075 0.002032,0.001036 0.003513,0.002315 0.004435,0.003853 9.2221e-4,0.001529 0.001392,0.003246 0.001392,0.005146 0,0.002226 -6.2215e-4,0.004282 -0.001853,0.00616 -0.001231,0.001886 -0.002954,0.003309 -0.005171,0.004281 -0.002209,9.7039e-4 -0.005002,0.001456 -0.008367,0.001456 -0.005908,0 -0.0100039,-0.001133 -0.0122778,-0.003415 -0.002282,-0.002274 -0.003569,-0.005163 -0.003868,-0.008676 z"
     class="fil4"
     id="path3675" /><path
     style="fill:#373435;fill-rule:nonzero"
     inkscape:connector-curvature="0"
     d="m 0.58191,0.596435 0.009654,0 0,0.0128022 c 0.00131,-0.00136 0.002614,-0.00233 0.003909,-0.002914 0.001294,-5.9049e-4 0.002831,-8.823e-4 0.004604,-8.823e-4 0.002622,0 0.004685,8.0247e-4 0.006199,0.002396 0.001504,0.001602 0.002257,0.004047 0.002257,0.007347 l 0,0.0160079 -0.009694,0 0,-0.0138469 c 0,-0.001577 -2.918e-4,-0.002695 -8.7404e-4,-0.00335 -5.9186e-4,-6.6345e-4 -0.001408,-9.8691e-4 -0.002469,-9.8691e-4 -0.001164,0 -0.00212,4.4459e-4 -0.00284,0.001327 -7.2951e-4,8.823e-4 -0.001093,0.002476 -0.001093,0.004767 l 0,0.0120906 -0.009654,0 0,-0.0347577 z"
     class="fil4"
     id="path3677" /><path
     style="fill:#373435;fill-rule:nonzero"
     inkscape:connector-curvature="0"
     d="m 0.613115,0.618673 c 0,-0.003835 0.001295,-0.007007 0.003884,-0.009492 0.002599,-0.002493 0.006095,-0.00374 0.010505,-0.00374 0.005042,0 0.008853,0.001466 0.0114272,0.004387 0.002072,0.002355 0.003108,0.005261 0.003108,0.008707 0,0.003869 -0.001287,0.007042 -0.003853,0.009518 -0.002566,0.002468 -0.006118,0.003707 -0.0106577,0.003707 -0.004047,0 -0.007316,-0.001028 -0.009817,-0.003085 C 0.6146435,0.626134 0.6131145,0.6228 0.6131145,0.6186724 Z m 0.009671,-2.34e-5 c 0,0.002249 4.5285e-4,0.003909 0.001368,0.004977 9.0569e-4,0.001076 0.002047,0.001619 0.003423,0.001619 0.001392,0 0.002533,-5.3406e-4 0.003423,-0.001595 8.9881e-4,-0.00106 0.001343,-0.002751 0.001343,-0.005098 0,-0.002176 -4.5285e-4,-0.003803 -0.001352,-0.004871 -8.9881e-4,-0.00106 -0.002015,-0.001594 -0.003342,-0.001594 -0.001408,0 -0.002574,5.4094e-4 -0.003488,0.001617 -9.1533e-4,0.001085 -0.001376,0.002736 -0.001376,0.004946 z"
     class="fil4"
     id="12345" /><path
     style="fill:#373435;fill-rule:nonzero"
     inkscape:connector-curvature="0"
     d="m 0.65833,0.596435 0,0.009581 0.005309,0 0,0.00704 -0.005309,0 0,0.008934 c 0,0.001076 1.0598e-4,0.001788 3.0832e-4,0.002136 3.152e-4,5.3406e-4 8.6578e-4,8.0934e-4 0.001659,8.0934e-4 7.1162e-4,0 0.001708,-2.1059e-4 0.002985,-6.2352e-4 l 7.1299e-4,0.006669 c -0.002388,5.1754e-4 -0.004612,7.7768e-4 -0.006685,7.7768e-4 -0.002403,0 -0.004175,-3.0832e-4 -0.005309,-9.2358e-4 -0.001141,-6.1527e-4 -0.001982,-0.001554 -0.002524,-0.002808 -5.5057e-4,-0.001254 -8.176e-4,-0.003294 -8.176e-4,-0.00611 l 0,-0.008861 -0.003561,0 0,-0.00704 0.003561,0 0,-0.004629 0.009671,-0.004952 z"
     class="fil4"
     id="123456" /><path
     style="fill:#373435;fill-rule:nonzero"
     inkscape:connector-curvature="0"
     id="path3681"
     d="m 0.395341,0.0264138 0.0159584,0 c 0.003141,0 0.005682,4.2807e-4 0.007624,0.0012787 0.001934,8.5752e-4 0.003536,0.0020798 0.004798,0.0036737 0.001264,0.0016022 0.002178,0.0034549 0.002751,0.0055759 5.6709e-4,0.0021197 8.5064e-4,0.0043619 8.5064e-4,0.0067335 0,0.0037136 -4.2119e-4,0.0065945 -0.00127,0.0086426 -8.4238e-4,0.0020468 -0.002015,0.0037632 -0.003521,0.0051382 -0.001498,0.0013847 -0.003108,0.0023069 -0.004831,0.002768 -0.002355,6.3178e-4 -0.004491,9.4699e-4 -0.006402,9.4699e-4 l -0.0159584,0 0,-0.0347577 z m 0.0107389,0.0078732 0,0.0189865 0.00263,0 c 0.002249,0 0.003844,-2.4363e-4 0.004791,-7.4465e-4 9.4561e-4,-4.9414e-4 0.00169,-0.0013682 0.002233,-0.002607 5.3406e-4,-0.0012374 8.0108e-4,-0.0032525 8.0108e-4,-0.006037 0,-0.003682 -5.9874e-4,-0.0061981 -0.001796,-0.007558 -0.001206,-0.0013599 -0.003196,-0.0020399 -0.005981,-0.0020399 l -0.002679,0 z"
     class="fil4" /><path
     style="fill:#373435;fill-rule:nonzero"
     inkscape:connector-curvature="0"
     d="m 0.460277,0.0509749 -0.0193417,0 c 1.7068e-4,0.001554 5.9187e-4,0.0027033 0.001255,0.0034631 9.3047e-4,0.0010929 0.002153,0.0016352 0.003649,0.0016352 9.4699e-4,0 0.001854,-2.3537e-4 0.002703,-7.1162e-4 5.258e-4,-3.0006e-4 0.001085,-8.2586e-4 0.001683,-0.001587 l 0.009508,8.7404e-4 c -0.001456,0.0025326 -0.003204,0.0043454 -0.005259,0.0054466 -0.002056,0.0010929 -0.005002,0.0016435 -0.008845,0.0016435 -0.003335,0 -0.005957,-4.6937e-4 -0.007875,-0.0014081 -0.00191,-9.3873e-4 -0.003496,-0.0024363 -0.004751,-0.0044844 -0.001254,-0.0020468 -0.001884,-0.00445 -0.001884,-0.007218 0,-0.0039339 0.001262,-0.0071217 0.003778,-0.0095497 0.002526,-0.0024363 0.006005,-0.0036586 0.0104485,-0.0036586 0.003601,0 0.00645,5.5057e-4 0.00853,0.0016435 0.002088,0.0010846 0.003682,0.0026703 0.004767,0.0047336 0.001092,0.0020729 0.001634,0.004768 0.001634,0.0080852 l 0,0.0010929 z M 0.450469,0.0463542 C 0.45027492,0.0444836 0.4497739,0.0431485 0.448965,0.0423474 0.4481474,0.04153806 0.447079,0.0411334 0.445752,0.0411334 c -0.001537,0 -0.00276,6.1527e-4 -0.003682,0.0018293 -5.8361e-4,7.6117e-4 -9.5525e-4,0.0018857 -0.001109,0.0033915 l 0.009508,0 z"
     class="fil4"
     id="path3683" /><polygon
     style="fill:#373435;fill-rule:nonzero"
     points="0.474724,0.0611715 0.465045,0.0611715 0.465045,0.0264138 0.474724,0.0264138 "
     class="fil4"
     id="polygon3685" /><path
     style="fill:#373435;fill-rule:nonzero"
     inkscape:connector-curvature="0"
     d="M 0.489679,0.044145 0.480461,0.04317324 c 3.4824e-4,-0.0016104 8.4926e-4,-0.0028809 0.001504,-0.0038031 6.5656e-4,-9.2359e-4 0.001595,-0.0017247 0.002833,-0.0024046 8.8229e-4,-4.9277e-4 0.002105,-8.7404e-4 0.00365,-0.0011411 0.001546,-2.6703e-4 0.003221,-4.0468e-4 0.005025,-4.0468e-4 0.002889,0 0.005219,1.6242e-4 0.006968,4.8589e-4 0.001756,3.2346e-4 0.003221,0.0010034 0.004387,0.0020316 8.2586e-4,7.1161e-4 0.001473,0.001715 0.00195,0.0030185 4.6936e-4,0.0013104 7.0473e-4,0.0025492 7.0473e-4,0.0037384 l 0,0.0111202 c 0,0.001181 7.984e-5,0.0021115 2.2574e-4,0.0027831 1.5416e-4,6.717e-4 4.7762e-4,0.0015306 9.869e-4,0.0025739 l -0.009056,0 c -3.6338e-4,-6.4693e-4 -5.9875e-4,-0.0011411 -7.1161e-4,-0.001481 -1.1287e-4,-3.3998e-4 -2.1886e-4,-8.7404e-4 -3.3172e-4,-0.0016022 -0.001262,0.0012223 -0.002526,0.0020881 -0.003771,0.0026056 -0.001708,6.9647e-4 -0.00369,0.0010447 -0.005948,0.0010447 -0.003003,0 -0.005286,-6.9648e-4 -0.006846,-0.0020881 -0.001554,-0.0013847 -0.002332,-0.0030997 -0.002332,-0.0051396 0,-0.0019174 5.5883e-4,-0.0034879 0.001683,-0.0047184 0.001125,-0.0012374 0.003189,-0.0021527 0.006208,-0.0027515 0.003626,-7.2814e-4 0.005972,-0.0012374 0.007049,-0.0015292 0.001068,-2.9043e-4 0.002209,-6.7996e-4 0.003407,-0.0011493 0,-0.0011892 -2.4226e-4,-0.0020151 -7.2814e-4,-0.0024927 -4.9414e-4,-4.6937e-4 -0.001352,-7.1162e-4 -0.00259,-7.1162e-4 -0.001577,0 -0.002758,2.5877e-4 -0.003553,7.6117e-4 -6.1389e-4,3.9641e-4 -0.001116,0.0011411 -0.001496,0.0022257 z M 0.498046,0.0492185 C 0.496719,0.04969612 0.495334,0.05011731 0.493903,0.0504807 0.491944,0.05099824 0.490697,0.0515172 0.49018,0.0520182 c -5.4232e-4,5.258e-4 -8.0934e-4,0.0011177 -8.0934e-4,0.0017811 0,7.5979e-4 2.6702e-4,0.0013751 7.9282e-4,0.0018609 5.3406e-4,4.7762e-4 0.001312,7.1988e-4 0.00234,7.1988e-4 0.001076,0 0.002072,-2.5877e-4 0.003002,-7.7631e-4 9.2221e-4,-5.258e-4 0.001577,-0.0011658 0.001967,-0.0019105 3.8816e-4,-7.5154e-4 5.7398e-4,-0.0017316 5.7398e-4,-0.0029291 l 0,-0.0015457 z"
     class="fil4"
     id="path3687" /><path
     style="fill:#373435;fill-rule:nonzero"
     inkscape:connector-curvature="0"
     d="m 0.539781,0.0264138 0,0.0347577 -0.009032,0 0,-0.0037233 C 0.529479,0.059027 0.528329,0.0600951 0.527286,0.0606539 0.525894,0.06137378 0.524349,0.0617385 0.522641,0.0617385 0.51921,0.0617385 0.516587,0.060435 0.514775,0.0578294 0.51297,0.0552238 0.512065,0.0520511 0.512065,0.0483196 c 0,-0.0041747 9.9516e-4,-0.0073639 0.003002,-0.0095731 0.001999,-0.0022174 0.004539,-0.0033268 0.007614,-0.0033268 0.001506,0 0.002866,2.6015e-4 0.004096,7.6117e-4 0.001221,5.1066e-4 0.002306,0.0012622 0.003261,0.0022739 l 0,-0.0120411 0.009744,0 z m -0.009679,0.0221 c 0,-0.0019821 -4.1293e-4,-0.0034549 -0.001254,-0.0044266 -8.3412e-4,-9.7039e-4 -0.001894,-0.0014563 -0.003173,-0.0014563 -0.001125,0 -0.002063,4.6936e-4 -0.002824,0.0013998 -7.6117e-4,9.3047e-4 -0.001141,0.0024927 -0.001141,0.0046936 0,0.0020564 3.9641e-4,0.0035608 0.001173,0.0045161 7.8594e-4,9.5525e-4 0.001756,0.0014329 0.002906,0.0014329 0.001239,0 0.002266,-4.7762e-4 0.003083,-0.0014411 8.2586e-4,-9.7039e-4 0.001231,-0.0025409 0.001231,-0.0047184 z"
     class="fil4"
     id="path3689" /><path
     style="fill:#373435;fill-rule:nonzero"
     inkscape:connector-curvature="0"
     d="m 0.545754,0.0359952 0.009032,0 0,0.0041197 C 0.55566004,0.0383338 0.556557,0.0371033 0.557481,0.0364316 0.55840321,0.0357599 0.559544,0.0354199 0.560904,0.0354199 c 0.001423,0 0.002977,4.4596e-4 0.004669,0.0013283 l -0.002985,0.006878 c -0.001134,-4.7762e-4 -0.00204,-7.1162e-4 -0.002703,-7.1162e-4 -0.001262,0 -0.002242,5.258e-4 -0.002937,0.0015623 -9.9654e-4,0.0014728 -0.001498,0.0042243 -0.001498,0.0082545 l 0,0.0084403 -0.009696,0 0,-0.0251764 z"
     class="fil4"
     id="path3691" /><path
     style="fill:#373435;fill-rule:nonzero"
     inkscape:connector-curvature="0"
     d="m 0.567563,0.0264138 0.009656,0 0,0.0065711 -0.009656,0 0,-0.0065711 z m 0,0.0095814 0.009656,0 0,0.0251764 -0.009656,0 0,-0.0251764 z"
     class="fil4"
     id="path3693" /><path
     style="fill:#373435;fill-rule:nonzero"
     inkscape:connector-curvature="0"
     d="m 0.611328,0.0509749 -0.0193417,0 c 1.7068e-4,0.001554 5.9187e-4,0.0027033 0.001255,0.0034631 9.3047e-4,0.0010929 0.002153,0.0016352 0.003649,0.0016352 9.4699e-4,0 0.001854,-2.3537e-4 0.002703,-7.1162e-4 5.258e-4,-3.0006e-4 0.001085,-8.2586e-4 0.001683,-0.001587 l 0.009508,8.7404e-4 c -0.001456,0.0025326 -0.003204,0.0043454 -0.005259,0.0054466 -0.002056,0.0010929 -0.005002,0.0016435 -0.008845,0.0016435 -0.003335,0 -0.005957,-4.6937e-4 -0.007875,-0.0014081 -0.00191,-9.3873e-4 -0.003496,-0.0024363 -0.004751,-0.0044844 -0.001254,-0.0020468 -0.001884,-0.00445 -0.001884,-0.007218 0,-0.0039339 0.001262,-0.0071217 0.003778,-0.0095497 0.002526,-0.0024363 0.006005,-0.0036586 0.0104485,-0.0036586 0.003601,0 0.00645,5.5057e-4 0.00853,0.0016435 0.002088,0.0010846 0.003682,0.0026703 0.004767,0.0047336 0.001092,0.0020729 0.001634,0.004768 0.001634,0.0080852 l 0,0.0010929 z M 0.60152,0.0463542 C 0.60132592,0.0444836 0.6008249,0.0431485 0.600016,0.0423474 0.5991984,0.04153806 0.59813,0.0411334 0.596803,0.0411334 c -0.001537,0 -0.00276,6.1527e-4 -0.003682,0.0018293 -5.8361e-4,7.6117e-4 -9.5525e-4,0.0018857 -0.001109,0.0033915 l 0.009508,0 z m -0.0129233,-0.0205323 0.00823,0 0.003886,0.0070652 -0.004549,0 -0.007566,-0.0070652 z"
     class="fil4"
     id="1234567" /><path
     style="fill:#373435;fill-rule:nonzero"
     inkscape:connector-curvature="0"
     d="m 0.615861,0.0359952 0.009032,0 0,0.0041197 C 0.62576704,0.0383338 0.626664,0.0371033 0.627588,0.0364316 0.62851021,0.0357599 0.629651,0.0354199 0.631011,0.0354199 c 0.001423,0 0.002977,4.4596e-4 0.004669,0.0013283 l -0.002985,0.006878 c -0.001134,-4.7762e-4 -0.00204,-7.1162e-4 -0.002703,-7.1162e-4 -0.001262,0 -0.002242,5.258e-4 -0.002937,0.0015623 -9.9654e-4,0.0014728 -0.001498,0.0042243 -0.001498,0.0082545 l 0,0.0084403 -0.009696,0 0,-0.0251764 z"
     class="fil4"
     id="12345678" /><path
     style="fill:#373435;fill-rule:nonzero"
     inkscape:connector-curvature="0"
     d="m 0.666051,0.0509749 -0.0193417,0 c 1.7068e-4,0.001554 5.9187e-4,0.0027033 0.001255,0.0034631 9.3047e-4,0.0010929 0.002153,0.0016352 0.003649,0.0016352 9.4699e-4,0 0.001854,-2.3537e-4 0.002703,-7.1162e-4 5.258e-4,-3.0006e-4 0.001085,-8.2586e-4 0.001683,-0.001587 l 0.009508,8.7404e-4 c -0.001456,0.0025326 -0.003204,0.0043454 -0.005259,0.0054466 -0.002056,0.0010929 -0.005002,0.0016435 -0.008845,0.0016435 -0.003335,0 -0.005957,-4.6937e-4 -0.007875,-0.0014081 -0.00191,-9.3873e-4 -0.003496,-0.0024363 -0.004751,-0.0044844 -0.001254,-0.0020468 -0.001884,-0.00445 -0.001884,-0.007218 0,-0.0039339 0.001262,-0.0071217 0.003778,-0.0095497 0.002526,-0.0024363 0.006005,-0.0036586 0.0104485,-0.0036586 0.003601,0 0.00645,5.5057e-4 0.00853,0.0016435 0.002088,0.0010846 0.003682,0.0026703 0.004767,0.0047336 0.001092,0.0020729 0.001634,0.004768 0.001634,0.0080852 l 0,0.0010929 z M 0.656243,0.0463542 C 0.65604892,0.0444836 0.6555479,0.0431485 0.654739,0.0423474 0.6539214,0.04153806 0.652853,0.0411334 0.651526,0.0411334 c -0.001537,0 -0.00276,6.1527e-4 -0.003682,0.0018293 -5.8361e-4,7.6117e-4 -9.5525e-4,0.0018857 -0.001109,0.0033915 l 0.009508,0 z"
     class="fil4"
     id="123456789" /><path
     style="fill:#000000"
     inkscape:connector-curvature="0"
     id="path3698"
     d="m 0.348363,1.71981 4.2119e-4,0 0,-0.00253 4.2119e-4,0 0,-8.424e-4 4.2119e-4,0 0,-8.424e-4 4.2119e-4,0 0,-8.424e-4 4.2118e-4,0 0,-4.225e-4 4.2119e-4,0 0,-4.198e-4 4.2257e-4,0 0,-4.226e-4 4.1981e-4,0 0,-4.212e-4 0.001686,0 0,-4.212e-4 4.2119e-4,0 0,-4.212e-4 4.2119e-4,0 0,-4.212e-4 0.004212,0 0,4.212e-4 4.2257e-4,0 0,8.424e-4 0.001685,0 0,4.212e-4 8.4237e-4,0 0,8.424e-4 4.2119e-4,0 0,4.225e-4 4.2119e-4,0 0,4.212e-4 4.2119e-4,0 0,4.212e-4 4.2119e-4,0 0,0.00126 4.2119e-4,0 0,4.212e-4 4.2119e-4,0 0,0.00506 -4.2119e-4,0 0,8.424e-4 -4.2119e-4,0 0,8.424e-4 -4.2119e-4,0 0,8.424e-4 -8.4238e-4,0 0,4.211e-4 -4.2119e-4,0 0,4.212e-4 -4.2118e-4,0 0,4.212e-4 -4.2119e-4,0 0,4.212e-4 -8.4238e-4,0 0,4.212e-4 -4.2257e-4,0 0,4.212e-4 -4.1981e-4,0 0,4.212e-4 -0.005056,0 0,-4.212e-4 -4.2119e-4,0 0,-4.212e-4 -4.2119e-4,0 0,-4.212e-4 -8.4238e-4,0 0,-4.212e-4 -8.4237e-4,0 0,-8.424e-4 -4.2257e-4,0 0,-4.211e-4 -4.2119e-4,0 0,-4.212e-4 -4.2119e-4,0 0,-4.212e-4 -4.2119e-4,0 0,-0.00168 -4.2119e-4,0 0,-4.225e-4 -4.2118e-4,0 0,-8.424e-4 -4.2119e-4,0 0,-0.00126 z m 0.003792,-0.018114 -4.2257e-4,0 0,4.212e-4 -8.4237e-4,0 0,4.212e-4 -0.004212,0 0,4.212e-4 -4.2119e-4,0 0,4.212e-4 -4.2119e-4,0 0,4.211e-4 -0.002107,0 0,4.212e-4 -4.2119e-4,0 0,4.212e-4 -4.2119e-4,0 0,4.212e-4 -8.4238e-4,0 0,4.212e-4 -4.2119e-4,0 0,8.424e-4 -8.4237e-4,0 0,4.225e-4 -4.2119e-4,0 0,4.199e-4 -4.2119e-4,0 0,4.225e-4 -4.2119e-4,0 0,4.212e-4 -4.2119e-4,0 0,8.424e-4 -4.2119e-4,0 0,4.212e-4 -4.2119e-4,0 0,4.212e-4 -4.2256e-4,0 0,8.423e-4 -4.1982e-4,0 0,8.424e-4 -4.2256e-4,0 0,4.212e-4 -4.2119e-4,0 0,0.00126 -4.2119e-4,0 0,4.212e-4 -4.2119e-4,0 0,0.00169 -4.2119e-4,0 0,0.00337 -4.2119e-4,0 0,0.00337 4.2119e-4,0 0,0.00337 4.2119e-4,0 0,8.424e-4 4.2119e-4,0 0,8.424e-4 4.2119e-4,0 0,0.00126 4.2119e-4,0 0,4.212e-4 4.2256e-4,0 0,8.424e-4 4.1982e-4,0 0,8.438e-4 4.2256e-4,0 0,4.212e-4 4.2119e-4,0 0,4.211e-4 4.2119e-4,0 0,8.424e-4 4.2119e-4,0 0,8.424e-4 8.4238e-4,0 0,4.212e-4 4.2119e-4,0 0,4.212e-4 4.2118e-4,0 0,4.212e-4 8.4238e-4,0 0,4.212e-4 8.4238e-4,0 0,8.423e-4 4.2119e-4,0 0,4.212e-4 0.001264,0 0,8.424e-4 4.2256e-4,0 0,4.226e-4 0.00337,0 0,4.212e-4 4.2118e-4,0 0,4.211e-4 8.4238e-4,0 0,4.212e-4 0.00674,0 0,-4.212e-4 8.4238e-4,0 0,-4.211e-4 4.2119e-4,0 0,-4.212e-4 0.002529,0 0,-4.226e-4 4.2119e-4,0 0,-4.198e-4 4.2119e-4,0 0,-4.226e-4 0.002106,0 0,0.00295 -4.2119e-4,0 0,8.424e-4 -4.2119e-4,0 0,4.212e-4 -4.2119e-4,0 0,8.424e-4 -4.2119e-4,0 0,4.212e-4 -4.2119e-4,0 0,4.211e-4 -4.2119e-4,0 0,4.212e-4 -4.2119e-4,0 0,4.212e-4 -4.2118e-4,0 0,4.212e-4 -4.2257e-4,0 0,4.212e-4 -4.1981e-4,0 0,4.226e-4 -0.00674,0 0,-4.226e-4 -8.4238e-4,0 0,-4.212e-4 -4.2257e-4,0 0,-4.212e-4 -4.2119e-4,0 0,-4.212e-4 -4.2119e-4,0 0,-4.212e-4 -4.2118e-4,0 0,-8.423e-4 -4.2119e-4,0 0,-4.212e-4 -4.2119e-4,0 0,-4.212e-4 -4.2119e-4,0 0,-4.212e-4 -0.005056,0 0,4.212e-4 -0.002948,0 0,4.212e-4 -0.001685,0 0,4.212e-4 -0.001686,0 0,4.212e-4 -4.2119e-4,0 0,0.00253 4.2119e-4,0 0,4.198e-4 4.2256e-4,0 0,8.437e-4 4.1982e-4,0 0,0.00126 4.2256e-4,0 0,4.212e-4 4.2119e-4,0 0,4.212e-4 4.2119e-4,0 0,8.424e-4 4.2119e-4,0 0,4.211e-4 4.2119e-4,0 0,4.212e-4 4.2119e-4,0 0,4.212e-4 4.2119e-4,0 0,4.212e-4 4.2119e-4,0 0,4.212e-4 8.4237e-4,0 0,4.212e-4 4.2119e-4,0 0,4.212e-4 4.2119e-4,0 0,4.225e-4 4.2119e-4,0 0,4.199e-4 0.001686,0 0,4.225e-4 4.1981e-4,0 0,4.212e-4 4.2257e-4,0 0,4.212e-4 0.002948,0 0,4.212e-4 4.2119e-4,0 0,4.212e-4 4.2119e-4,0 0,4.212e-4 0.0122172,0 0,-4.212e-4 8.4238e-4,0 0,-4.212e-4 4.2118e-4,0 0,-4.212e-4 0.002527,0 0,-4.212e-4 4.2119e-4,0 0,-4.212e-4 4.2257e-4,0 0,-4.225e-4 0.001264,0 0,-4.199e-4 4.2119e-4,0 0,-4.225e-4 4.2119e-4,0 0,-4.212e-4 4.2119e-4,0 0,-4.212e-4 8.4237e-4,0 0,-4.212e-4 4.2119e-4,0 0,-4.212e-4 4.2119e-4,0 0,-4.212e-4 4.2119e-4,0 0,-4.212e-4 4.2119e-4,0 0,-4.211e-4 4.2119e-4,0 0,-4.212e-4 4.2119e-4,0 0,-4.212e-4 4.2256e-4,0 0,-4.212e-4 4.1982e-4,0 0,-8.424e-4 4.2256e-4,0 0,-8.424e-4 4.2119e-4,0 0,-4.212e-4 4.2119e-4,0 0,-4.225e-4 4.2119e-4,0 0,-0.00126 4.2119e-4,0 0,-8.424e-4 4.2119e-4,0 0,-4.212e-4 4.2119e-4,0 0,-0.00211 4.2119e-4,0 0,-0.00126 4.2119e-4,0 0,-8.424e-4 4.2118e-4,0 0,-0.00253 4.2119e-4,0 0,-0.00421 4.2119e-4,0 0,-0.008 -4.2119e-4,0 0,-0.00379 -4.2119e-4,0 0,-0.00168 -4.2118e-4,0 0,-0.00126 -4.2119e-4,0 0,-0.00126 -4.2119e-4,0 0,-0.00169 -4.2119e-4,0 0,-4.212e-4 -4.2119e-4,0 0,-8.424e-4 -4.2119e-4,0 0,-0.00126 -4.2119e-4,0 0,-4.212e-4 -4.2119e-4,0 0,-4.212e-4 -4.2119e-4,0 0,-0.00126 -4.2256e-4,0 0,-4.212e-4 -8.4238e-4,0 0,-4.212e-4 -4.2119e-4,0 0,-8.424e-4 -8.4238e-4,0 0,-4.225e-4 -4.2119e-4,0 0,-4.212e-4 -4.2119e-4,0 0,-4.212e-4 -4.2118e-4,0 0,-4.212e-4 -0.001264,0 0,-8.424e-4 -4.2119e-4,0 0,-4.212e-4 -0.002107,0 0,-4.212e-4 -4.2119e-4,0 0,-4.212e-4 -4.2119e-4,0 0,-4.211e-4 -0.003791,0 0,-4.212e-4 -0.001264,0 0,-4.212e-4 -8.4376e-4,0 0,-4.212e-4 -0.00716,0 0,4.212e-4 z m -0.0501311,0.017272 4.2119e-4,0 0,-8.424e-4 4.2119e-4,0 0,-8.424e-4 4.2119e-4,0 0,-0.00126 4.2119e-4,0 0,-4.212e-4 4.2118e-4,0 0,-4.212e-4 4.2119e-4,0 0,-8.438e-4 8.4238e-4,0 0,-4.198e-4 4.2119e-4,0 0,-4.225e-4 4.2119e-4,0 0,-4.212e-4 0.002106,0 0,-4.212e-4 8.4238e-4,0 0,-4.212e-4 0.001686,0 0,4.212e-4 4.2119e-4,0 0,4.212e-4 0.002527,0 0,4.212e-4 4.2119e-4,0 0,4.225e-4 4.2118e-4,0 0,4.198e-4 4.2257e-4,0 0,4.226e-4 4.1981e-4,0 0,4.212e-4 4.2257e-4,0 0,4.212e-4 4.2119e-4,0 0,8.424e-4 4.2119e-4,0 0,8.423e-4 4.2119e-4,0 0,4.212e-4 4.2119e-4,0 0,0.0059 -8.4238e-4,0 0,4.211e-4 -4.2119e-4,0 0,0.00126 -4.2119e-4,0 0,4.212e-4 -4.2257e-4,0 0,4.212e-4 -4.1981e-4,0 0,4.212e-4 -8.4375e-4,0 0,4.212e-4 -4.2119e-4,0 0,4.212e-4 -4.2119e-4,0 0,4.211e-4 -0.002527,0 0,4.212e-4 -0.001264,0 0,-4.212e-4 -0.002529,0 0,-4.211e-4 -8.4238e-4,0 0,-8.424e-4 -8.4238e-4,0 0,-4.212e-4 -4.2119e-4,0 0,-4.212e-4 -4.2119e-4,0 0,-4.212e-4 -4.2119e-4,0 0,-4.212e-4 -4.2118e-4,0 0,-4.212e-4 -4.2119e-4,0 0,-0.00126 -4.2119e-4,0 0,-8.424e-4 -4.2119e-4,0 0,-8.424e-4 -4.2119e-4,0 0,-0.00253 z m 0.00716,-0.01685 -0.001264,0 0,4.212e-4 -0.005475,0 0,4.212e-4 -4.2119e-4,0 0,4.212e-4 -8.4238e-4,0 0,4.212e-4 -0.002107,0 0,4.211e-4 -4.2119e-4,0 0,4.212e-4 -4.2118e-4,0 0,4.212e-4 -0.001685,0 0,8.424e-4 -4.2119e-4,0 0,4.212e-4 -8.4238e-4,0 0,4.226e-4 -8.4238e-4,0 0,4.198e-4 -4.2257e-4,0 0,4.225e-4 -4.1981e-4,0 0,4.212e-4 -4.2256e-4,0 0,4.212e-4 -4.2119e-4,0 0,8.424e-4 -4.2119e-4,0 0,8.424e-4 -4.2119e-4,0 0,4.212e-4 -4.2119e-4,0 0,4.211e-4 -4.2119e-4,0 0,8.424e-4 -4.2119e-4,0 0,4.212e-4 -4.2119e-4,0 0,8.424e-4 -4.2119e-4,0 0,0.00295 -4.2119e-4,0 0,4.212e-4 -4.2118e-4,0 0,8.424e-4 -4.2119e-4,0 0,0.00632 4.2119e-4,0 0,0.00126 4.2118e-4,0 0,4.212e-4 4.2119e-4,0 0,0.00253 4.2119e-4,0 0,8.423e-4 4.2119e-4,0 0,4.226e-4 4.2119e-4,0 0,8.424e-4 4.2119e-4,0 0,4.212e-4 4.2119e-4,0 0,4.212e-4 4.2119e-4,0 0,8.423e-4 4.2119e-4,0 0,8.424e-4 4.2119e-4,0 0,4.212e-4 4.2256e-4,0 0,4.212e-4 4.1981e-4,0 0,4.212e-4 4.2257e-4,0 0,4.212e-4 4.2119e-4,0 0,4.212e-4 8.4238e-4,0 0,4.211e-4 4.2119e-4,0 0,4.212e-4 4.2119e-4,0 0,4.212e-4 0.001264,0 0,8.424e-4 8.4237e-4,0 0,4.226e-4 0.001685,0 0,4.212e-4 4.2119e-4,0 0,4.211e-4 4.2257e-4,0 0,4.212e-4 0.0109523,0 0,-4.212e-4 4.2119e-4,0 0,-8.423e-4 0.001685,0 0,-4.226e-4 8.4375e-4,0 0,-8.424e-4 0.001264,0 0,4.226e-4 4.2119e-4,0 0,0.00295 -4.2119e-4,0 0,8.424e-4 -4.2119e-4,0 0,4.212e-4 -4.2256e-4,0 0,8.424e-4 -4.1982e-4,0 0,8.423e-4 -4.2256e-4,0 0,4.212e-4 -8.4238e-4,0 0,8.424e-4 -4.2119e-4,0 0,4.226e-4 -0.001685,0 0,4.198e-4 -4.2119e-4,0 0,4.225e-4 -4.2119e-4,0 0,4.212e-4 -0.00337,0 0,-4.212e-4 -8.4375e-4,0 0,-4.225e-4 -4.2119e-4,0 0,-4.198e-4 -0.001264,0 0,-4.226e-4 -4.2119e-4,0 0,-8.424e-4 -4.2119e-4,0 0,-4.212e-4 -4.2119e-4,0 0,-4.212e-4 -4.2119e-4,0 0,-4.211e-4 -4.2119e-4,0 0,-4.212e-4 -8.4237e-4,0 0,-4.212e-4 -4.2257e-4,0 0,-4.212e-4 -0.001685,0 0,4.212e-4 -0.001264,0 0,4.212e-4 -0.007583,0 0,4.212e-4 -8.4238e-4,0 0,4.211e-4 -4.2119e-4,0 0,0.00126 4.2119e-4,0 0,8.438e-4 4.2119e-4,0 0,8.423e-4 4.2119e-4,0 0,0.00126 4.2119e-4,0 0,4.212e-4 4.2119e-4,0 0,4.212e-4 4.2119e-4,0 0,8.424e-4 4.2119e-4,0 0,8.424e-4 4.2119e-4,0 0,4.211e-4 4.2256e-4,0 0,4.212e-4 4.1981e-4,0 0,4.212e-4 4.2257e-4,0 0,4.212e-4 8.4238e-4,0 0,4.212e-4 4.2119e-4,0 0,4.212e-4 4.2119e-4,0 0,4.226e-4 8.4237e-4,0 0,4.198e-4 8.4238e-4,0 0,4.225e-4 4.2119e-4,0 0,4.212e-4 8.4238e-4,0 0,4.212e-4 0.002107,0 0,4.212e-4 4.1981e-4,0 0,4.212e-4 4.2257e-4,0 0,4.212e-4 0.005897,0 0,4.212e-4 0.004634,0 0,-4.212e-4 0.004634,0 0,-4.212e-4 4.2119e-4,0 0,-4.212e-4 4.2119e-4,0 0,-4.212e-4 0.002106,0 0,-4.212e-4 4.2119e-4,0 0,-4.212e-4 4.2118e-4,0 0,-4.225e-4 0.001264,0 0,-4.198e-4 8.4238e-4,0 0,-8.438e-4 4.2257e-4,0 0,-4.212e-4 8.4238e-4,0 0,-8.424e-4 4.2118e-4,0 0,-4.212e-4 8.4238e-4,0 0,-8.423e-4 4.2119e-4,0 0,-8.424e-4 4.2119e-4,0 0,-4.212e-4 4.2119e-4,0 0,-4.212e-4 4.2119e-4,0 0,-8.424e-4 4.2119e-4,0 0,-4.212e-4 4.2119e-4,0 0,-4.211e-4 4.2119e-4,0 0,-0.00127 4.2118e-4,0 0,-4.212e-4 4.2119e-4,0 0,-8.424e-4 4.2257e-4,0 0,-0.00211 4.1981e-4,0 0,-8.424e-4 4.2257e-4,0 0,-8.424e-4 4.2119e-4,0 0,-0.00295 4.2119e-4,0 0,-8.423e-4 -4.2119e-4,0 0,-8.424e-4 4.2119e-4,0 0,-0.00168 4.2119e-4,0 0,-0.008 -4.2119e-4,0 0,-0.00379 -4.2119e-4,0 0,-0.00253 -4.2119e-4,0 0,-0.00168 -4.2257e-4,0 0,-8.424e-4 -4.1981e-4,0 0,-0.00169 -4.2257e-4,0 0,-4.212e-4 -4.2119e-4,0 0,-4.212e-4 -4.2118e-4,0 0,-0.00126 -4.2119e-4,0 0,-8.424e-4 -4.2119e-4,0 0,-4.211e-4 -4.2119e-4,0 0,-8.424e-4 -4.2119e-4,0 0,-4.212e-4 -4.2119e-4,0 0,-4.212e-4 -4.2119e-4,0 0,-4.212e-4 -4.2119e-4,0 0,-4.212e-4 -8.4238e-4,0 0,-8.424e-4 -4.2118e-4,0 0,-4.225e-4 -8.4238e-4,0 0,-4.212e-4 -4.2257e-4,0 0,-4.212e-4 -4.2119e-4,0 0,-4.212e-4 -8.4238e-4,0 0,-8.424e-4 -4.2118e-4,0 0,-4.212e-4 -0.002948,0 0,-4.211e-4 -4.2119e-4,0 0,-4.212e-4 -4.2119e-4,0 0,-4.212e-4 -0.005056,0 0,-4.212e-4 -0.002527,0 0,-4.212e-4 -8.4376e-4,0 0,4.212e-4 z m -0.103211,8.424e-4 -4.2119e-4,0 0,4.212e-4 -4.2119e-4,0 0,4.212e-4 -4.2119e-4,0 0,0.011796 0.003371,0 0,4.211e-4 0.001685,0 0,-4.211e-4 0.004212,0 0,4.211e-4 0.001265,0 0,-4.211e-4 0.002527,0 0,4.211e-4 8.4238e-4,0 0,4.212e-4 4.2119e-4,0 0,8.424e-4 4.2119e-4,0 0,0.037071 4.2119e-4,0 0,4.212e-4 8.4238e-4,0 0,4.212e-4 0.001685,0 0,4.212e-4 4.2256e-4,0 0,-4.212e-4 0.0109523,0 0,-0.00126 4.2119e-4,0 0,-0.00211 -4.2119e-4,0 0,-0.00253 4.2119e-4,0 0,-0.032016 8.4238e-4,0 0,-4.212e-4 4.2119e-4,0 0,-8.424e-4 0.001265,0 0,-4.212e-4 0.0122159,0 0,-4.212e-4 4.2119e-4,0 0,-0.00169 4.2256e-4,0 0,-0.00337 -4.2256e-4,0 0,-0.00253 4.2256e-4,0 0,-0.00126 -4.2256e-4,0 0,-0.00295 -4.2119e-4,0 0,-4.212e-4 -4.2119e-4,0 0,-4.212e-4 -0.0425484,0 0,4.212e-4 z m 0.0471828,0 -4.2119e-4,0 0,0.051395 0.002527,0 0,4.212e-4 0.001685,0 0,4.212e-4 0.001265,0 0,-4.212e-4 0.002948,0 0,4.212e-4 0.002106,0 0,-4.212e-4 0.003792,0 0,-4.212e-4 8.4238e-4,0 0,-4.212e-4 4.2119e-4,0 0,-0.023591 4.2119e-4,0 0,-0.00126 -4.2119e-4,0 0,-0.020642 -4.2119e-4,0 0,-8.424e-4 4.2119e-4,0 0,-0.00379 -4.2119e-4,0 0,-4.212e-4 -4.2119e-4,0 0,-8.424e-4 -0.0143232,0 0,4.212e-4 z m 0.181146,0.010531 4.2119e-4,0 0,0.017694 4.2119e-4,0 0,4.212e-4 8.4238e-4,0 0,4.212e-4 0.003371,0 0,4.211e-4 4.2119e-4,0 0,4.212e-4 8.4237e-4,0 0,4.212e-4 4.2119e-4,0 0,4.212e-4 4.2119e-4,0 0,0.00548 -4.2119e-4,0 0,4.212e-4 -0.001264,0 0,4.212e-4 -0.00295,0 0,4.212e-4 -4.2119e-4,0 0,4.212e-4 -0.001264,0 0,4.212e-4 -4.2119e-4,0 0,0.00927 -4.2119e-4,0 0,4.212e-4 -4.2118e-4,0 0,4.226e-4 -4.2119e-4,0 0,4.198e-4 -0.008425,0 0,-4.198e-4 -8.4238e-4,0 0,-0.00127 -4.2257e-4,0 0,-0.00295 4.2257e-4,0 0,-8.424e-4 -4.2257e-4,0 0,-0.00463 -4.2119e-4,0 0,-4.212e-4 -8.4237e-4,0 0,-4.212e-4 -0.002527,0 0,-4.212e-4 -0.002527,0 0,4.212e-4 -0.0155881,0 0,-8.424e-4 -4.2119e-4,0 0,-4.212e-4 -4.2119e-4,0 0,-8.423e-4 -4.2119e-4,0 0,-0.00716 4.2119e-4,0 0,-8.424e-4 4.2119e-4,0 0,-0.00126 4.2119e-4,0 0,-4.199e-4 4.2119e-4,0 0,-4.225e-4 4.2256e-4,0 0,-8.424e-4 4.1981e-4,0 0,-4.212e-4 4.2257e-4,0 0,-4.212e-4 4.2119e-4,0 0,-4.212e-4 4.2119e-4,0 0,-8.423e-4 4.2119e-4,0 0,-4.212e-4 8.4238e-4,0 0,-8.424e-4 4.2118e-4,0 0,-4.212e-4 4.2119e-4,0 0,-4.212e-4 4.2119e-4,0 0,-8.424e-4 4.2119e-4,0 0,-4.212e-4 4.2119e-4,0 0,-4.225e-4 4.2119e-4,0 0,-8.424e-4 8.4238e-4,0 0,-4.212e-4 4.2119e-4,0 0,-8.424e-4 4.2118e-4,0 0,-4.212e-4 4.2257e-4,0 0,-4.211e-4 4.1981e-4,0 0,-8.424e-4 4.2257e-4,0 0,-4.212e-4 4.2119e-4,0 0,-4.212e-4 4.2119e-4,0 0,-4.212e-4 4.2119e-4,0 0,-8.424e-4 8.4237e-4,0 0,-4.212e-4 4.2119e-4,0 0,-8.423e-4 4.2119e-4,0 0,-4.226e-4 4.2119e-4,0 0,-4.198e-4 4.2119e-4,0 0,-8.438e-4 8.4238e-4,0 0,-4.212e-4 4.2119e-4,0 0,-8.423e-4 4.2256e-4,0 0,-4.212e-4 8.4238e-4,0 0,-0.00126 4.2119e-4,0 0,-4.212e-4 4.2119e-4,0 0,-4.212e-4 4.2119e-4,0 0,-4.212e-4 4.2119e-4,0 0,-8.423e-4 8.4238e-4,0 0,-8.438e-4 4.2118e-4,0 0,-8.424e-4 8.4238e-4,0 0,-4.212e-4 4.2119e-4,0 0,-8.423e-4 8.4238e-4,0 0,-8.424e-4 4.2119e-4,0 0,-4.212e-4 0.007162,0 0,-4.212e-4 4.2119e-4,0 0,4.212e-4 0.00295,0 0,4.212e-4 4.2119e-4,0 0,4.212e-4 4.2119e-4,0 0,0.00463 4.2118e-4,0 0,0.00337 -4.2118e-4,0 0,8.424e-4 z m -0.0113749,-0.013058 -4.2119e-4,0 0,4.212e-4 -8.4238e-4,0 0,4.212e-4 -0.001264,0 0,8.423e-4 -4.2119e-4,0 0,4.212e-4 -8.4237e-4,0 0,8.424e-4 -4.2119e-4,0 0,4.212e-4 -4.2119e-4,0 0,4.212e-4 -4.2119e-4,0 0,4.212e-4 -4.2119e-4,0 0,8.423e-4 -4.2257e-4,0 0,4.212e-4 -4.1981e-4,0 0,4.212e-4 -4.2256e-4,0 0,8.424e-4 -4.2119e-4,0 0,4.226e-4 -4.2119e-4,0 0,4.212e-4 -4.2119e-4,0 0,4.211e-4 -4.2119e-4,0 0,4.212e-4 -4.2119e-4,0 0,4.212e-4 -4.2119e-4,0 0,8.424e-4 -4.2119e-4,0 0,4.212e-4 -8.4238e-4,0 0,8.424e-4 -4.2118e-4,0 0,4.212e-4 -4.2119e-4,0 0,4.211e-4 -4.2119e-4,0 0,8.424e-4 -4.2257e-4,0 0,8.438e-4 -4.1981e-4,0 0,4.198e-4 -8.4376e-4,0 0,8.437e-4 -4.2119e-4,0 0,4.212e-4 -4.2118e-4,0 0,4.212e-4 -4.2119e-4,0 0,8.424e-4 -8.4238e-4,0 0,4.212e-4 -4.2119e-4,0 0,8.424e-4 -4.2119e-4,0 0,4.212e-4 -8.4238e-4,0 0,0.00126 -8.4238e-4,0 0,4.212e-4 -4.2118e-4,0 0,8.424e-4 -4.2119e-4,0 0,4.226e-4 -4.2119e-4,0 0,4.198e-4 -4.2257e-4,0 0,4.225e-4 -4.1981e-4,0 0,8.424e-4 -4.2257e-4,0 0,4.212e-4 -4.2119e-4,0 0,4.212e-4 -4.2119e-4,0 0,8.424e-4 -8.4237e-4,0 0,4.212e-4 -4.2119e-4,0 0,8.423e-4 -4.2119e-4,0 0,4.212e-4 -4.2119e-4,0 0,4.212e-4 -4.2119e-4,0 0,8.424e-4 -4.2119e-4,0 0,4.212e-4 -4.2119e-4,0 0,4.212e-4 -4.2119e-4,0 0,0.00126 -4.2119e-4,0 0,0.00211 4.2119e-4,0 0,0.00126 -4.2119e-4,0 0,0.00295 4.2119e-4,0 0,0.00295 -4.2119e-4,0 0,0.00295 4.2119e-4,0 0,0.00126 4.2119e-4,0 0,4.226e-4 0.021906,0 0,0.00126 4.2119e-4,0 0,0.008 8.4238e-4,0 0,8.423e-4 4.2119e-4,0 0,4.212e-4 0.0147444,0 0,-4.212e-4 4.2119e-4,0 0,-4.212e-4 4.2119e-4,0 0,-4.211e-4 4.2119e-4,0 0,-0.00885 4.2256e-4,0 0,-4.198e-4 0.004633,0 0,-4.225e-4 4.2119e-4,0 0,-4.212e-4 4.2119e-4,0 0,-4.212e-4 4.2119e-4,0 0,-8.424e-4 4.2119e-4,0 0,-8.424e-4 -4.2119e-4,0 0,-0.00379 4.2119e-4,0 0,-0.00253 -4.2119e-4,0 0,-8.424e-4 4.2119e-4,0 0,-0.00253 -4.2119e-4,0 0,-0.00169 -8.4238e-4,0 0,-4.198e-4 -0.004212,0 0,-4.226e-4 -4.2257e-4,0 0,-4.212e-4 -4.1981e-4,0 0,-4.212e-4 -4.2256e-4,0 0,-0.025697 -4.2119e-4,0 0,-8.424e-4 -4.2119e-4,0 0,-4.212e-4 -8.4238e-4,0 0,-8.423e-4 -0.0109523,0 0,4.212e-4 -4.2257e-4,0 0,-4.212e-4 -0.001685,0 0,4.212e-4 z m 0.0404424,0.040862 -4.2119e-4,0 0,4.212e-4 -4.2119e-4,0 0,4.212e-4 -4.2119e-4,0 0,4.211e-4 -4.2119e-4,0 0,4.212e-4 -4.2118e-4,0 0,0.00253 -4.2257e-4,0 0,4.212e-4 -4.1981e-4,0 0,4.212e-4 -4.2257e-4,0 0,0.00253 -4.2119e-4,0 0,4.211e-4 -4.2119e-4,0 0,8.424e-4 -4.2119e-4,0 0,0.00127 -4.2119e-4,0 0,4.198e-4 -0.007162,0 0,-4.198e-4 -4.2118e-4,0 0,-0.00337 4.2118e-4,0 0,-4.212e-4 4.2119e-4,0 0,-4.212e-4 4.2119e-4,0 0,-0.00168 4.2119e-4,0 0,-8.423e-4 4.2119e-4,0 0,-8.424e-4 4.2119e-4,0 0,-0.00211 4.2119e-4,0 0,-0.00126 4.2256e-4,0 0,-4.212e-4 4.1982e-4,0 0,-8.424e-4 4.2256e-4,0 0,-0.00253 4.2119e-4,0 0,-4.198e-4 4.2119e-4,0 0,-8.438e-4 4.2119e-4,0 0,-0.00253 4.2119e-4,0 0,-4.212e-4 4.2119e-4,0 0,-4.212e-4 4.2119e-4,0 0,-0.00295 4.2119e-4,0 0,-4.226e-4 4.2118e-4,0 0,-4.211e-4 4.2119e-4,0 0,-0.00253 4.2119e-4,0 0,-4.212e-4 4.2119e-4,0 0,-4.212e-4 4.2119e-4,0 0,-0.00253 4.2257e-4,0 0,-0.00126 8.4237e-4,0 0,-0.00211 4.2119e-4,0 0,-0.00126 4.2119e-4,0 0,-4.212e-4 4.2119e-4,0 0,-0.00126 4.2119e-4,0 0,-0.00169 4.2119e-4,0 0,-8.424e-4 4.2119e-4,0 0,-8.424e-4 4.2119e-4,0 0,-0.00295 4.2119e-4,0 0,-4.212e-4 4.2119e-4,0 0,-4.212e-4 4.2118e-4,0 0,-0.00211 4.2119e-4,0 0,-4.226e-4 4.2119e-4,0 0,-4.212e-4 4.2119e-4,0 0,-0.00168 4.2119e-4,0 0,-4.212e-4 0.002107,0 0,-4.212e-4 0.002948,0 0,4.212e-4 0.005056,0 0,0.00253 4.2119e-4,0 0,4.226e-4 4.2119e-4,0 0,4.198e-4 4.2119e-4,0 0,0.00126 4.2119e-4,0 0,0.00211 4.2119e-4,0 0,4.211e-4 4.2118e-4,0 0,8.424e-4 4.2119e-4,0 0,0.00211 4.2119e-4,0 0,4.199e-4 4.2119e-4,0 0,4.225e-4 4.2119e-4,0 0,0.00337 4.2257e-4,0 0,4.212e-4 4.1981e-4,0 0,4.212e-4 4.2257e-4,0 0,0.00295 4.2118e-4,0 0,4.226e-4 4.2119e-4,0 0,8.424e-4 4.2119e-4,0 0,0.00253 4.2119e-4,0 0,4.212e-4 4.2119e-4,0 0,4.212e-4 4.2119e-4,0 0,0.00253 4.2119e-4,0 0,8.424e-4 4.2119e-4,0 0,4.212e-4 4.2119e-4,0 0,0.00211 4.2119e-4,0 0,8.424e-4 4.2118e-4,0 0,4.212e-4 4.2119e-4,0 0,8.424e-4 4.2119e-4,0 0,0.00253 4.2119e-4,0 0,4.212e-4 4.2119e-4,0 0,8.423e-4 4.2257e-4,0 0,0.00253 4.1981e-4,0 0,4.212e-4 4.2257e-4,0 0,8.423e-4 4.2118e-4,0 0,0.00295 4.2119e-4,0 0,4.212e-4 4.2119e-4,0 0,4.212e-4 4.2119e-4,0 0,0.00253 4.2119e-4,0 0,8.424e-4 4.2119e-4,0 0,0.00126 -4.2119e-4,0 0,4.212e-4 -4.2119e-4,0 0,4.225e-4 -4.2119e-4,0 0,4.199e-4 -0.005898,0 0,-4.199e-4 -0.001264,0 0,-8.437e-4 -4.2119e-4,0 0,-0.00253 -4.2119e-4,0 0,-4.212e-4 -4.2118e-4,0 0,-8.424e-4 -4.2119e-4,0 0,-0.00295 -4.2257e-4,0 0,-4.226e-4 -4.1981e-4,0 0,-4.212e-4 -4.2257e-4,0 0,-0.00126 -4.2119e-4,0 0,-4.211e-4 -8.4238e-4,0 0,-4.212e-4 -0.0168503,0 0,4.212e-4 z m 0.002948,-0.040862 -4.2119e-4,0 0,4.212e-4 -4.2119e-4,0 0,4.212e-4 -4.2119e-4,0 0,4.211e-4 -4.2119e-4,0 0,4.212e-4 -4.2118e-4,0 0,0.00126 -4.2119e-4,0 0,8.424e-4 -4.2119e-4,0 0,4.212e-4 -4.2119e-4,0 0,0.00168 -4.2119e-4,0 0,0.00211 -4.2119e-4,0 0,4.211e-4 -4.2119e-4,0 0,8.424e-4 -4.2119e-4,0 0,0.00211 -4.2256e-4,0 0,4.212e-4 -4.1982e-4,0 0,8.423e-4 -4.2256e-4,0 0,0.00253 -4.2119e-4,0 0,4.212e-4 -4.2119e-4,0 0,8.424e-4 -4.2119e-4,0 0,0.00253 -4.2119e-4,0 0,4.212e-4 -4.2119e-4,0 0,4.212e-4 -4.2119e-4,0 0,0.00253 -4.2119e-4,0 0,8.424e-4 -4.2118e-4,0 0,4.212e-4 -4.2119e-4,0 0,0.00253 -4.2119e-4,0 0,8.424e-4 -4.2119e-4,0 0,4.212e-4 -4.2119e-4,0 0,0.00253 -4.2257e-4,0 0,4.212e-4 -4.1981e-4,0 0,4.212e-4 -4.2257e-4,0 0,0.00126 -4.2118e-4,0 0,8.423e-4 4.2118e-4,0 0,4.212e-4 -4.2118e-4,0 0,0.00126 -4.2119e-4,0 0,4.212e-4 -4.2119e-4,0 0,4.212e-4 -4.2119e-4,0 0,0.00253 -4.2119e-4,0 0,4.212e-4 -4.2119e-4,0 0,4.212e-4 -4.2119e-4,0 0,0.00295 -4.2119e-4,0 0,4.212e-4 -4.2119e-4,0 0,4.212e-4 -4.2119e-4,0 0,0.00295 -4.2118e-4,0 0,4.211e-4 -4.2119e-4,0 0,4.212e-4 -4.2119e-4,0 0,0.00295 -4.2119e-4,0 0,4.211e-4 -4.2119e-4,0 0,4.212e-4 -4.2119e-4,0 0,0.00379 0.0130582,0 0,-4.212e-4 4.2257e-4,0 0,-4.212e-4 4.1981e-4,0 0,-4.212e-4 4.2257e-4,0 0,-8.423e-4 4.2118e-4,0 0,-0.00127 4.2119e-4,0 0,-8.424e-4 4.2119e-4,0 0,-0.00126 4.2119e-4,0 0,-0.00168 4.2119e-4,0 0,-4.212e-4 4.2119e-4,0 0,-8.424e-4 4.2119e-4,0 0,-8.423e-4 8.4238e-4,0 0,-4.212e-4 4.2119e-4,0 0,-4.226e-4 4.2118e-4,0 0,-4.198e-4 0.0113749,0 0,4.198e-4 4.2119e-4,0 0,4.226e-4 8.4238e-4,0 0,4.212e-4 0.001264,0 0,4.212e-4 4.2119e-4,0 0,0.00295 4.2119e-4,0 0,4.212e-4 4.2119e-4,0 0,8.423e-4 4.2119e-4,0 0,0.00295 4.2256e-4,0 0,4.212e-4 8.4238e-4,0 0,8.424e-4 4.2119e-4,0 0,4.212e-4 0.0134794,0 0,-4.212e-4 4.2257e-4,0 0,-0.00211 -4.2257e-4,0 0,-4.198e-4 -4.2119e-4,0 0,-0.00211 -4.2119e-4,0 0,-0.00126 -8.4238e-4,0 0,-8.424e-4 -4.2118e-4,0 0,-0.00253 -4.2119e-4,0 0,-4.226e-4 -4.2119e-4,0 0,-4.198e-4 -4.2119e-4,0 0,-0.00379 -8.4238e-4,0 0,-4.212e-4 -4.2119e-4,0 0,-0.00295 -4.2119e-4,0 0,-4.198e-4 -4.2119e-4,0 0,-4.225e-4 -4.2119e-4,0 0,-0.00295 -4.2118e-4,0 0,-8.423e-4 -8.4238e-4,0 0,-0.00295 -4.2257e-4,0 0,-8.437e-4 -4.2119e-4,0 0,-4.212e-4 -4.2119e-4,0 0,-0.00168 -4.2119e-4,0 0,-0.00126 -4.2118e-4,0 0,-4.212e-4 -4.2119e-4,0 0,-0.00126 -4.2119e-4,0 0,-0.00211 -4.2119e-4,0 0,-4.212e-4 -4.2119e-4,0 0,-8.424e-4 -4.2119e-4,0 0,-0.00211 -4.2119e-4,0 0,-4.212e-4 -4.2119e-4,0 0,-8.424e-4 -4.2119e-4,0 0,-0.00295 -4.2119e-4,0 0,-8.424e-4 -4.2118e-4,0 0,-8.424e-4 -4.2119e-4,0 0,-0.00253 -4.2257e-4,0 0,-4.212e-4 -4.1981e-4,0 0,-4.212e-4 -4.2257e-4,0 0,-0.00295 -4.2119e-4,0 0,-4.212e-4 -4.2119e-4,0 0,-8.423e-4 -4.2119e-4,0 0,-0.00168 -4.2118e-4,0 0,-8.424e-4 -4.2119e-4,0 0,-4.212e-4 -4.2119e-4,0 0,-4.211e-4 -4.2119e-4,0 0,-8.424e-4 -8.4238e-4,0 0,4.212e-4 -4.2119e-4,0 0,4.212e-4 -0.001265,0 0,-4.212e-4 -4.1981e-4,0 0,-4.212e-4 -0.009269,0 0,4.212e-4 z m -0.0665603,0.00253 -4.2119e-4,0 0,4.212e-4 -4.2119e-4,0 0,8.424e-4 -4.2119e-4,0 0,4.212e-4 -4.2119e-4,0 0,4.212e-4 -4.2118e-4,0 0,0.00169 -4.2119e-4,0 0,8.424e-4 -8.4238e-4,0 0,0.00211 -4.2119e-4,0 0,8.424e-4 -4.2257e-4,0 0,4.212e-4 -4.1981e-4,0 0,0.00126 -4.2257e-4,0 0,0.00169 -4.2118e-4,0 0,4.198e-4 -4.2119e-4,0 0,8.437e-4 -4.2119e-4,0 0,0.00126 -4.2119e-4,0 0,4.212e-4 -4.2119e-4,0 0,8.424e-4 -4.2119e-4,0 0,0.00168 -4.2119e-4,0 0,4.212e-4 -4.2119e-4,0 0,0.00126 -4.2119e-4,0 0,0.00169 -4.2119e-4,0 0,4.212e-4 -4.2118e-4,0 0,4.212e-4 -4.2119e-4,0 0,0.00168 -4.2257e-4,0 0,8.423e-4 -4.1981e-4,0 0,4.212e-4 -4.2257e-4,0 0,0.00168 -4.2119e-4,0 0,8.438e-4 -4.2119e-4,0 0,4.198e-4 -4.2119e-4,0 0,0.00126 -4.2118e-4,0 0,0.00126 -4.2119e-4,0 0,8.424e-4 -4.2119e-4,0 0,4.211e-4 -4.2119e-4,0 0,0.00168 -4.2119e-4,0 0,4.212e-4 -4.2119e-4,0 0,8.437e-4 -4.2119e-4,0 0,0.00168 -4.2119e-4,0 0,4.212e-4 -4.2119e-4,0 0,4.212e-4 -4.2119e-4,0 0,0.00211 -4.2118e-4,0 0,4.212e-4 -4.2119e-4,0 0,8.424e-4 -4.2119e-4,0 0,0.00126 -4.2119e-4,0 0,8.423e-4 -4.2257e-4,0 0,4.226e-4 -4.1981e-4,0 0,0.00168 -4.2257e-4,0 0,8.424e-4 -4.2119e-4,0 0,4.211e-4 -4.2118e-4,0 0,0.00126 -4.2119e-4,0 0,0.00126 -4.2119e-4,0 0,8.424e-4 -4.2119e-4,0 0,8.423e-4 -4.2119e-4,0 0,0.00126 -4.2119e-4,0 0,4.212e-4 -4.2119e-4,0 0,8.423e-4 -4.2119e-4,0 0,8.424e-4 4.2119e-4,0 0,4.212e-4 0.003792,0 0,-4.212e-4 4.1981e-4,0 0,-8.424e-4 4.2257e-4,0 0,-4.211e-4 4.2119e-4,0 0,-0.00126 4.2119e-4,0 0,-4.212e-4 4.2119e-4,0 0,-8.424e-4 4.2119e-4,0 0,-0.00169 4.2119e-4,0 0,-8.424e-4 4.2118e-4,0 0,-4.212e-4 4.2119e-4,0 0,-0.00168 4.2119e-4,0 0,-8.424e-4 4.2119e-4,0 0,-4.212e-4 4.2119e-4,0 0,-0.00168 4.2119e-4,0 0,-8.437e-4 4.2119e-4,0 0,-4.212e-4 4.2119e-4,0 0,-8.424e-4 4.2119e-4,0 0,-0.00126 4.2119e-4,0 0,-8.423e-4 4.2118e-4,0 0,-8.424e-4 4.2119e-4,0 0,-0.00168 4.2257e-4,0 0,-4.225e-4 4.1981e-4,0 0,-8.424e-4 4.2257e-4,0 0,-0.00126 4.2119e-4,0 0,-8.424e-4 4.2119e-4,0 0,-4.212e-4 4.2119e-4,0 0,-0.00168 4.2118e-4,0 0,-4.212e-4 4.2119e-4,0 0,-8.424e-4 4.2119e-4,0 0,-0.00211 4.2119e-4,0 0,-4.212e-4 4.2119e-4,0 0,-4.212e-4 4.2119e-4,0 0,-0.00168 4.2119e-4,0 0,-8.424e-4 4.2119e-4,0 0,-4.212e-4 4.2119e-4,0 0,-0.00126 4.2256e-4,0 0,-0.00168 4.1982e-4,0 0,-4.226e-4 4.2256e-4,0 0,-4.212e-4 4.2119e-4,0 0,-0.00211 4.2119e-4,0 0,-4.212e-4 4.2119e-4,0 0,-8.424e-4 4.2119e-4,0 0,-0.00168 4.2119e-4,0 0,-8.423e-4 4.2119e-4,0 0,-8.424e-4 4.2118e-4,0 0,-0.00127 4.2119e-4,0 0,-0.00126 4.2119e-4,0 0,-4.212e-4 4.2119e-4,0 0,-0.00168 4.2119e-4,0 0,-4.212e-4 4.2119e-4,0 0,-8.423e-4 4.2119e-4,0 0,-0.00169 4.2119e-4,0 0,-8.424e-4 4.2119e-4,0 0,-4.211e-4 4.2256e-4,0 0,-0.00126 -4.2256e-4,0 0,-8.424e-4 -4.2119e-4,0 0,-4.212e-4 -0.002106,0 0,4.212e-4 z m 0.0202212,0.026119 -0.006319,0 0,-4.226e-4 -4.2119e-4,0 0,-4.211e-4 4.2119e-4,0 0,-0.00126 4.2119e-4,0 0,-4.212e-4 4.2119e-4,0 0,-4.212e-4 4.2119e-4,0 0,-8.424e-4 8.4237e-4,0 0,-4.212e-4 4.2119e-4,0 0,-8.423e-4 4.2257e-4,0 0,-4.212e-4 8.4238e-4,0 0,-8.424e-4 4.2119e-4,0 0,-4.212e-4 4.2119e-4,0 0,-4.226e-4 4.2118e-4,0 0,-8.423e-4 0.001264,0 0,4.225e-4 4.2119e-4,0 0,0.00674 -4.2119e-4,0 0,8.437e-4 z m 0.001685,-0.015166 -8.4238e-4,0 0,4.198e-4 -4.2119e-4,0 0,4.226e-4 -4.2119e-4,0 0,4.212e-4 -4.2118e-4,0 0,4.212e-4 -4.2119e-4,0 0,4.212e-4 -4.2119e-4,0 0,8.423e-4 -8.4238e-4,0 0,4.212e-4 -4.2119e-4,0 0,8.424e-4 -4.2257e-4,0 0,4.212e-4 -8.4237e-4,0 0,8.424e-4 -4.2119e-4,0 0,4.212e-4 -4.2119e-4,0 0,4.211e-4 -4.2119e-4,0 0,8.424e-4 -8.4238e-4,0 0,4.226e-4 -4.2119e-4,0 0,0.00126 -4.2119e-4,0 0,8.423e-4 -8.4237e-4,0 0,4.212e-4 -4.2119e-4,0 0,8.424e-4 -8.4238e-4,0 0,4.212e-4 -4.2257e-4,0 0,8.424e-4 -4.1981e-4,0 0,4.212e-4 -4.2257e-4,0 0,4.211e-4 -4.2119e-4,0 0,8.424e-4 -8.4237e-4,0 0,4.212e-4 -4.2119e-4,0 0,8.438e-4 -4.2119e-4,0 0,4.198e-4 -4.2119e-4,0 0,8.437e-4 -4.2119e-4,0 0,0.00126 8.4238e-4,0 0,4.212e-4 4.2119e-4,0 0,4.212e-4 4.2119e-4,0 0,4.212e-4 0.011796,0 0,-4.212e-4 8.4237e-4,0 0,-4.212e-4 4.2119e-4,0 0,-4.212e-4 0.001264,0 0,-4.212e-4 4.2119e-4,0 0,-8.424e-4 4.2119e-4,0 0,-0.00295 -4.2119e-4,0 0,-8.423e-4 4.2119e-4,0 0,-0.0059 -4.2119e-4,0 0,-4.211e-4 4.2119e-4,0 0,-0.00463 -4.2119e-4,0 0,-8.424e-4 -4.2119e-4,0 0,-8.424e-4 -4.2119e-4,0 0,-4.225e-4 -8.4237e-4,0 0,4.225e-4 z m 0.0471828,0.013901 4.2119e-4,0 0,-8.424e-4 4.2119e-4,0 0,-8.423e-4 4.2119e-4,0 0,-4.212e-4 4.2119e-4,0 0,-0.00253 4.2118e-4,0 0,-8.423e-4 0.001264,0 0,4.211e-4 8.4237e-4,0 0,8.424e-4 4.2119e-4,0 0,0.00295 4.2119e-4,0 0,8.424e-4 4.2119e-4,0 0,4.212e-4 4.2119e-4,0 0,0.00379 -0.005475,0 0,-4.212e-4 -4.2119e-4,0 0,-4.212e-4 4.2119e-4,0 0,-0.00211 -4.2119e-4,0 0,-8.424e-4 z m 0.002106,-0.013901 -4.2119e-4,0 0,0.00126 -4.2119e-4,0 0,4.212e-4 -4.2119e-4,0 0,8.423e-4 -4.2119e-4,0 0,0.00253 -4.2118e-4,0 0,8.424e-4 -4.2257e-4,0 0,8.423e-4 -4.1981e-4,0 0,0.00295 -4.2257e-4,0 0,4.212e-4 -4.2119e-4,0 0,4.212e-4 -4.2119e-4,0 0,0.00337 -4.2119e-4,0 0,4.212e-4 -4.2119e-4,0 0,4.212e-4 -4.2118e-4,0 0,0.00295 -4.2119e-4,0 0,4.212e-4 -4.2119e-4,0 0,0.00168 4.2119e-4,0 0,4.212e-4 4.2119e-4,0 0,4.212e-4 8.4237e-4,0 0,4.212e-4 4.2119e-4,0 0,4.212e-4 0.0105325,0 0,-8.424e-4 0.001264,0 0,-8.424e-4 4.2119e-4,0 0,-0.00295 -4.2119e-4,0 0,-0.00126 -4.2119e-4,0 0,-4.198e-4 -4.2119e-4,0 0,-8.438e-4 -4.2118e-4,0 0,-0.00253 -4.2119e-4,0 0,-8.424e-4 -4.2119e-4,0 0,-8.424e-4 -4.2257e-4,0 0,-0.00211 -4.1981e-4,0 0,-8.424e-4 -4.2257e-4,0 0,-0.00126 -4.2119e-4,0 0,-0.00337 -4.2119e-4,0 0,-4.212e-4 -4.2118e-4,0 0,-4.212e-4 -4.2119e-4,0 0,-0.00127 -4.2119e-4,0 0,-8.423e-4 -8.4238e-4,0 0,-4.212e-4 -0.001264,0 0,8.437e-4 z m -0.198419,0.00758 -4.1981e-4,0 0,8.424e-4 -4.2257e-4,0 0,0.00126 4.2257e-4,0 0,0.00548 -4.2257e-4,0 0,0.00168 4.2257e-4,0 0,8.424e-4 4.1981e-4,0 0,8.424e-4 4.2257e-4,0 0,4.212e-4 0.002527,0 0,-4.212e-4 0.001264,0 0,4.212e-4 0.003792,0 0,-4.212e-4 0.001685,0 0,4.212e-4 0.001264,0 0,-4.212e-4 8.4237e-4,0 0,-8.424e-4 4.2119e-4,0 0,-0.00126 4.2119e-4,0 0,-0.00253 -4.2119e-4,0 0,-0.00632 -4.2119e-4,0 0,-4.226e-4 -0.011796,0 0,4.226e-4 z"
     class="fil5" /><path
     style="fill:#ed3237"
     inkscape:connector-curvature="0"
     id="path3700"
     d="m 0.152678,0.907178 0.308648,0 0,0.007283 -0.314261,0 C 0.142075,0.91434125 0.1364238,0.908512 0.136293,0.9030806 l 0,-0.122456 0.007283,0 -5.643e-5,0.1176 c -8.121e-5,0.007057 0.004131,0.008778 0.009159,0.008954 z"
     class="fil1" /><path
     style="fill:#ed3237"
     inkscape:connector-curvature="0"
     id="path3702"
     d="m 0.152678,1.15482 0.308648,0 0,0.00728 -0.314261,0 C 0.142075,1.1619803 0.1364238,1.15615 0.136293,1.15072 l 0,-0.122456 0.007283,0 -5.643e-5,0.1176 c -8.121e-5,0.00706 0.004131,0.00878 0.009159,0.00895 z"
     class="fil1" /><path
     style="fill:#ed3237"
     inkscape:connector-curvature="0"
     id="path3704"
     d="m 0.152678,1.39732 0.308648,0 0,0.00728 -0.314261,0 C 0.142075,1.4044803 0.1364238,1.39865 0.136293,1.39322 l 0,-0.122456 0.007283,0 -5.643e-5,0.1176 c -8.121e-5,0.00706 0.004131,0.00878 0.009159,0.00895 z"
     class="fil1" /><path
     style="fill:#ed3237"
     inkscape:connector-curvature="0"
     id="path3706"
     d="m 0.152678,1.65103 0.308648,0 0,0.00728 -0.314261,0 C 0.142075,1.6581903 0.1364238,1.65236 0.136293,1.64693 l 0,-0.122456 0.007283,0 -5.643e-5,0.1176 c -8.121e-5,0.00706 0.004131,0.00878 0.009159,0.00895 z"
     class="fil1" /><path
     style="fill:#ed3237"
     inkscape:connector-curvature="0"
     id="path3708"
     d="m 0.6617,0.907178 -0.009108,0 0,0.007283 0.014721,0 C 0.672303,0.91434125 0.6779542,0.908512 0.678085,0.9030806 l 0,-0.0130926 0,-0.0813941 0,-0.0130926 C 0.67795424,0.7900703 0.672303,0.7842407 0.667313,0.7841209 l -0.106676,0 0,0.007283 0.101063,0 c 0.005028,1.7618e-4 0.00924,0.001897 0.009159,0.008954 l -4.13e-6,0.008237 -5.23e-5,0 2.615e-5,0.0267125 -2.615e-5,0.0546816 5.23e-5,0 4.13e-6,0.008237 C 0.67094021,0.905283 0.666728,0.907004 0.6617,0.90718 Z"
     class="fil1" /><path
     style="fill:#ed3237"
     inkscape:connector-curvature="0"
     id="path3710"
     d="m 0.6617,1.15497 -0.009108,0 0,0.00728 0.014721,0 C 0.672303,1.1621303 0.6779542,1.1563 0.678085,1.15087 l 0,-0.013093 0,-0.081394 0,-0.013093 C 0.67795424,1.03786 0.672303,1.032029 0.667313,1.03191 l -0.106676,0 0,0.00728 0.101063,0 c 0.005028,1.762e-4 0.00924,0.0019 0.009159,0.00895 l -4.13e-6,0.00824 -5.23e-5,0 2.615e-5,0.026712 -2.615e-5,0.054682 5.23e-5,0 4.13e-6,0.00824 c 8.121e-5,0.00706 -0.004131,0.00878 -0.009159,0.00895 z"
     class="fil1" /><path
     style="fill:#ed3237"
     inkscape:connector-curvature="0"
     id="path3712"
     d="m 0.6617,1.39729 -0.009108,0 0,0.00728 0.014721,0 C 0.672303,1.4044503 0.6779542,1.39862 0.678085,1.39319 l 0,-0.013093 0,-0.081394 0,-0.013093 C 0.67795424,1.28018 0.672303,1.274349 0.667313,1.27423 l -0.106676,0 0,0.00728 0.101063,0 c 0.005028,1.762e-4 0.00924,0.0019 0.009159,0.00895 l -4.13e-6,0.00824 -5.23e-5,0 2.615e-5,0.026713 -2.615e-5,0.054682 5.23e-5,0 4.13e-6,0.00824 c 8.121e-5,0.00706 -0.004131,0.00878 -0.009159,0.00895 z"
     class="fil1" /><path
     style="fill:#ed3237"
     inkscape:connector-curvature="0"
     id="path3714"
     d="m 0.6617,1.65223 -0.009108,0 0,0.00728 0.014721,0 C 0.672303,1.6593903 0.6779542,1.65356 0.678085,1.64813 l 0,-0.013093 0,-0.081394 0,-0.013093 C 0.67795424,1.53512 0.672303,1.529289 0.667313,1.52917 l -0.106676,0 0,0.00728 0.101063,0 c 0.005028,1.762e-4 0.00924,0.0019 0.009159,0.00895 l -4.13e-6,0.00824 -5.23e-5,0 2.615e-5,0.026712 -2.615e-5,0.054682 5.23e-5,0 4.13e-6,0.00824 c 8.121e-5,0.00706 -0.004131,0.00878 -0.009159,0.00895 z"
     class="fil1" /><circle
     style="fill:#fefefe;stroke:#373435;stroke-width:0.00242803"
     id="circle3716"
     r="0.087403603"
     cy="1.52852"
     cx="0.56101298"
     class="fil2 str1" /><circle
     style="fill:#fefefe;stroke:#373435;stroke-width:0.00242803"
     id="circle3718"
     r="0.087403603"
     cy="1.28361"
     cx="0.56101298"
     class="fil2 str1" /><circle
     style="fill:#fefefe;stroke:#373435;stroke-width:0.00242803"
     id="circle3720"
     r="0.087403603"
     cy="1.0332299"
     cx="0.56101298"
     class="fil2 str1" /><circle
     style="fill:#fefefe;stroke:#373435;stroke-width:0.00242803"
     id="circle3722"
     r="0.087403603"
     cy="0.78649998"
     cx="0.56101298"
     class="fil2 str1" /><circle
     style="fill:#fefefe;stroke:#373435;stroke-width:0.00242803"
     id="circle3724"
     r="0.0576864"
     cy="0.78649998"
     cx="0.56101298"
     class="fil2 str1" /><circle
     style="fill:#fefefe;stroke:#373435;stroke-width:0.00242803"
     id="circle3726"
     r="0.0576864"
     cy="1.0332299"
     cx="0.56101298"
     class="fil2 str1" /><circle
     style="fill:#fefefe;stroke:#373435;stroke-width:0.00242803"
     id="circle3728"
     r="0.0576864"
     cy="1.28361"
     cx="0.56101298"
     class="fil2 str1" /><circle
     style="fill:#fefefe;stroke:#373435;stroke-width:0.00242803"
     id="circle3730"
     r="0.0576864"
     cy="1.52852"
     cx="0.56101298"
     class="fil2 str1" /><path
     style="fill:none;stroke:#000000;stroke-width:0.00971213;stroke-linejoin:bevel"
     inkscape:connector-curvature="0"
     id="path3732"
     d="m 0.27859,1.21361 0.139846,0 m 0,0 0,0.139846 m 0,0 -0.139846,0 m 0,0 0,-0.139846 m 0,0 0,0 z"
     class="fil6 str3" /><path
     style="fill:none;stroke:#000000;stroke-width:0.00728409;stroke-linejoin:bevel"
     inkscape:connector-curvature="0"
     id="path3734"
     d="m 0.299567,0.986364 0.0978921,0 m 0,0 0,0.0978921 m 0,0 -0.0978921,0 m 0,0 0,-0.0978921 m 0,0 0,0 z"
     class="fil6 str4" /><path
     style="fill:none;stroke:#000000;stroke-width:0.00485606;stroke-linejoin:bevel"
     inkscape:connector-curvature="0"
     id="path3736"
     d="m 0.322292,0.795824 0.0524422,0 m 0,0 0,0.0524422 m 0,0 -0.0524422,0 m 0,0 0,-0.0524422 m 0,0 0,0 z"
     class="fil6 str5" /><circle
     style="fill:#fefefe;stroke:#373435;stroke-width:0.00242803"
     id="circle3738"
     r="0.0541902"
     cy="0.78649998"
     cx="0.14129201"
     class="fil2 str1" /><circle
     style="fill:#fefefe;stroke:#373435;stroke-width:0.00242803"
     id="circle3740"
     r="0.0541902"
     cy="1.03353"
     cx="0.14129201"
     class="fil2 str1" /><circle
     style="fill:#fefefe;stroke:#373435;stroke-width:0.00242803"
     id="circle3742"
     r="0.0541902"
     cy="1.2843699"
     cx="0.14129201"
     class="fil2 str1" /><circle
     style="fill:#fefefe;stroke:#373435;stroke-width:0.00242803"
     id="circle3744"
     r="0.0541902"
     cy="1.53034"
     cx="0.14129201"
     class="fil2 str1" /><path
     style="fill:#ed3237"
     inkscape:connector-curvature="0"
     id="path3746"
     d="m 0.220659,0.700808 0.0512929,0 0,0.007283 -0.056906,0 C 0.2100559,0.70797125 0.2044047,0.702142 0.2042739,0.6967106 l 0,-0.105132 0,-0.0173238 0,-0.149442 c 1.3076e-4,-0.005431 0.005782,-0.0112606 0.010772,-0.0113804 l 0.056906,0 0,0.007283 -0.0512929,0 C 0.215631,0.42089158 0.211419,0.4226124 0.2115,0.4296694 l 5.093e-5,0.144586 5.5e-6,0 -4.13e-6,0.007288 4.13e-6,0.0100356 -8.25e-6,0 L 0.2115,0.691855 c -8.121e-5,0.007057 0.004131,0.008778 0.009159,0.008954 z"
     class="fil1" /><polygon
     style="fill:#fefefe;stroke:#000000;stroke-width:0.00104884;stroke-linejoin:bevel"
     id="polygon3748"
     points="0.444006,0.459341 0.255214,0.459341 0.255214,0.200626 0.444006,0.200626 "
     class="fil2 str0" /><polygon
     style="fill:#ed3237;fill-rule:nonzero"
     id="polygon3750"
     points="0.235887,0.0347041 0.224929,0.0347041 0.224929,0.0608756 0.21419,0.0608756 0.21419,0.0347041 0.20324,0.0347041 0.20324,0.0261179 0.235887,0.0261179 "
     class="fil7" /><path
     style="fill:#ed3237;fill-rule:nonzero"
     inkscape:connector-curvature="0"
     d="M 0.246433,0.0438491 0.237215,0.04287734 c 3.4824e-4,-0.0016104 8.4926e-4,-0.0028809 0.001504,-0.0038031 6.5656e-4,-9.2359e-4 0.001595,-0.0017247 0.002833,-0.0024046 8.823e-4,-4.9277e-4 0.002105,-8.7404e-4 0.00365,-0.0011411 0.001546,-2.6703e-4 0.003221,-4.0468e-4 0.005025,-4.0468e-4 0.002889,0 0.005219,1.6242e-4 0.006968,4.8589e-4 0.001756,3.2346e-4 0.003221,0.0010034 0.004387,0.0020316 8.2586e-4,7.1161e-4 0.001473,0.001715 0.00195,0.0030185 4.6936e-4,0.0013104 7.0474e-4,0.0025492 7.0474e-4,0.0037384 l 0,0.0111202 c 0,0.001181 7.983e-5,0.0021115 2.2573e-4,0.0027831 1.5416e-4,6.717e-4 4.7762e-4,0.0015306 9.869e-4,0.0025739 l -0.009056,0 C 0.25603,0.06022852 0.25579463,0.05973435 0.25568176,0.05939445 0.25556889,0.05905447 0.2554629,0.05852041 0.25535004,0.05779225 c -0.001262,0.0012223 -0.002526,0.0020881 -0.003771,0.0026056 -0.001708,6.9647e-4 -0.00369,0.0010447 -0.005948,0.0010447 -0.003003,0 -0.005286,-6.9648e-4 -0.006846,-0.0020881 -0.001554,-0.0013847 -0.002332,-0.0030997 -0.002332,-0.0051396 0,-0.0019174 5.5883e-4,-0.0034879 0.001683,-0.0047184 0.001125,-0.0012374 0.003189,-0.0021527 0.006208,-0.0027515 0.003626,-7.2814e-4 0.005972,-0.0012374 0.007049,-0.0015292 0.001068,-2.9043e-4 0.002209,-6.7996e-4 0.003407,-0.0011493 0,-0.0011892 -2.4226e-4,-0.0020151 -7.2814e-4,-0.0024927 -4.9414e-4,-4.6937e-4 -0.001352,-7.1162e-4 -0.00259,-7.1162e-4 -0.001577,0 -0.002758,2.5877e-4 -0.003553,7.6117e-4 -6.1389e-4,3.9641e-4 -0.001116,0.0011411 -0.001496,0.0022257 z M 0.2548,0.0489226 C 0.253473,0.04940022 0.252088,0.04982141 0.250657,0.0501848 0.248698,0.05070234 0.247451,0.0512213 0.246934,0.0517223 0.24639168,0.0522481 0.24612466,0.05284 0.24612466,0.0535034 c 0,7.5979e-4 2.6702e-4,0.0013751 7.9282e-4,0.0018609 5.3406e-4,4.7762e-4 0.001312,7.1988e-4 0.00234,7.1988e-4 0.001076,0 0.002072,-2.5877e-4 0.003002,-7.7631e-4 9.2221e-4,-5.258e-4 0.001577,-0.0011658 0.001967,-0.0019105 3.8816e-4,-7.5154e-4 5.7398e-4,-0.0017316 5.7398e-4,-0.002929 l 0,-0.0015457 z"
     class="fil7"
     id="path3752" /><polygon
     style="fill:#ed3237;fill-rule:nonzero"
     points="0.280034,0.0608756 0.270355,0.0608756 0.270355,0.0261179 0.280034,0.0261179 "
     class="fil7"
     id="polygon3754" /><polygon
     style="fill:#ed3237;fill-rule:nonzero"
     points="0.296057,0.0440432 0.303267,0.0356992 0.315147,0.0356992 0.306108,0.0445208 0.315666,0.0608756 0.304781,0.0608756 0.299683,0.0507753 0.296057,0.0543279 0.296057,0.0608756 0.286192,0.0608756 0.286192,0.0261179 0.296057,0.0261179 "
     class="fil7"
     id="polygon3756" /><path
     style="fill:#ed3237;fill-rule:nonzero"
     inkscape:connector-curvature="0"
     d="m 0.315739,0.0483555 c 0,-0.0038348 0.001295,-0.0070074 0.003884,-0.0094919 0.002599,-0.0024927 0.006095,-0.0037398 0.010505,-0.0037398 0.005042,0 0.008853,0.0014659 0.0114272,0.0043867 0.002072,0.0023551 0.003108,0.0052607 0.003108,0.0087073 0,0.0038692 -0.001287,0.0070418 -0.003853,0.0095181 -0.002566,0.0024679 -0.006118,0.0037067 -0.0106577,0.0037067 -0.004047,0 -0.007316,-0.0010282 -0.009817,-0.0030846 C 0.3172675,0.0558171 0.3157385,0.0524834 0.3157385,0.0483554 Z m 0.009671,-2.34e-5 c 0,0.0022491 4.5285e-4,0.0039091 0.001368,0.0049772 9.0569e-4,0.0010764 0.002047,0.0016187 0.003423,0.0016187 0.001392,0 0.002533,-5.3406e-4 0.003423,-0.0015953 8.9881e-4,-0.0010599 0.001343,-0.0027515 0.001343,-0.0050983 0,-0.0021761 -4.5285e-4,-0.0038031 -0.001352,-0.0048712 C 0.33271619,0.0423033 0.3316,0.0417693 0.330273,0.0417693 c -0.001408,0 -0.002574,5.4094e-4 -0.003488,0.0016173 -9.1533e-4,0.0010846 -0.001376,0.0027363 -0.001376,0.0049455 z"
     class="fil7"
     id="path3758" /><g
     inkscape:groupmode="layer"
     id="layer2"
     inkscape:label="Cut"
     style="display:inline" /><g
     inkscape:groupmode="layer"
     id="layer3"
     inkscape:label="Print"
     style="display:inline" /></svg>