999
Inkscape export via "Better DXF Output" (bob@bobcookdev.com)
  0
SECTION
  2
HEADER
  9
$ACADVER
  1
AC1014
  9
$HANDSEED
  5
FFFF
  0
ENDSEC
  0
SECTION
  2
TABLES
  0
TABLE
  2
VPORT
  5
8
330
0
100
AcDbSymbolTable
 70
     4
  0
VPORT
  5
2E
330
8
100
AcDbSymbolTableRecord
100
AcDbViewportTableRecord
  2
*ACTIVE
 70
     0
 10
0.0
 20
0.0
 11
1.0
 21
1.0
 12
4.25
 22
5.5
 13
0.0
 23
0.0
 14
10.0
 24
10.0
 15
10.0
 25
10.0
 16
0.0
 26
0.0
 36
1.0
 17
0.0
 27
0.0
 37
0.0
 40
11
 41
1.24
 42
50.0
 43
0.0
 44
0.0
 50
0.0
 51
0.0
 71
     0
 72
   100
 73
     1
 74
     3
 75
     0
 76
     0
 77
     0
 78
     0
  0
ENDTAB
  0
TABLE
  2
LTYPE
  5
5
330
0
100
AcDbSymbolTable
 70
     1
  0
LTYPE
  5
14
330
5
100
AcDbSymbolTableRecord
100
AcDbLinetypeTableRecord
  2
BYBLOCK
 70
     0
  3

 72
    65
 73
     0
 40
0.0
  0
LTYPE
  5
15
330
5
100
AcDbSymbolTableRecord
100
AcDbLinetypeTableRecord
  2
BYLAYER
 70
     0
  3

 72
    65
 73
     0
 40
0.0
  0
LTYPE
  5
16
330
5
100
AcDbSymbolTableRecord
100
AcDbLinetypeTableRecord
  2
CONTINUOUS
 70
     0
  3
Solid line
 72
    65
 73
     0
 40
0.0
  0
ENDTAB
  0
TABLE
  2
LAYER
  5
2
330
0
100
AcDbSymbolTable
 70
1
  0
LAYER
  5
10
330
2
100
AcDbSymbolTableRecord
100
AcDbLayerTableRecord
  2
0
 70
     0
 62
     7
  6
CONTINUOUS
  0
ENDTAB
  0
TABLE
  2
STYLE
  5
3
330
0
100
AcDbSymbolTable
 70
     1
  0
STYLE
  5
11
330
3
100
AcDbSymbolTableRecord
100
AcDbTextStyleTableRecord
  2
STANDARD
 70
     0
 40
0.0
 41
1.0
 50
0.0
 71
     0
 42
2.5
  3
txt
  4

  0
ENDTAB
  0
TABLE
  2
VIEW
  5
6
330
0
100
AcDbSymbolTable
 70
     0
  0
ENDTAB
  0
TABLE
  2
UCS
  5
7
330
0
100
AcDbSymbolTable
 70
     0
  0
ENDTAB
  0
TABLE
  2
APPID
  5
9
330
0
100
AcDbSymbolTable
 70
     2
  0
APPID
  5
12
330
9
100
AcDbSymbolTableRecord
100
AcDbRegAppTableRecord
  2
ACAD
 70
     0
  0
ENDTAB
  0
TABLE
  2
DIMSTYLE
  5
A
330
0
100
AcDbSymbolTable
 70
     1
  0
DIMSTYLE
105
27
330
A
100
AcDbSymbolTableRecord
100
AcDbDimStyleTableRecord
  2
ISO-25
 70
     0
  3

  4

  5

  6

  7

 40
1.0
 41
2.5
 42
0.625
 43
3.75
 44
1.25
 45
0.0
 46
0.0
 47
0.0
 48
0.0
140
2.5
141
2.5
142
0.0
143
0.03937007874016
144
1.0
145
0.0
146
1.0
147
0.625
 71
     0
 72
     0
 73
     0
 74
     0
 75
     0
 76
     0
 77
     1
 78
     8
170
     0
171
     3
172
     1
173
     0
174
     0
175
     0
176
     0
177
     0
178
     0
270
     2
271
     2
272
     2
273
     2
274
     3
340
11
275
     0
280
     0
281
     0
282
     0
283
     0
284
     8
285
     0
286
     0
287
     3
288
     0
  0
ENDTAB
  0
TABLE
  2
BLOCK_RECORD
  5
1
330
0
100
AcDbSymbolTable
 70
     1
  0
BLOCK_RECORD
  5
1F
330
1
100
AcDbSymbolTableRecord
100
AcDbBlockTableRecord
  2
*MODEL_SPACE
  0
BLOCK_RECORD
  5
1B
330
1
100
AcDbSymbolTableRecord
100
AcDbBlockTableRecord
  2
*PAPER_SPACE
  0
ENDTAB
  0
ENDSEC
  0
SECTION
  2
BLOCKS
  0
BLOCK
  5
20
330
1F
100
AcDbEntity
  8
0
100
AcDbBlockBegin
  2
*MODEL_SPACE
 70
     0
 10
0.0
 20
0.0
 30
0.0
  3
*MODEL_SPACE
  1

  0
ENDBLK
  5
21
330
1F
100
AcDbEntity
  8
0
100
AcDbBlockEnd
  0
BLOCK
  5
1C
330
1B
100
AcDbEntity
 67
     1
  8
0
100
AcDbBlockBegin
  2
*PAPER_SPACE
  1

  0
ENDBLK
  5
1D
330
1B
100
AcDbEntity
 67
     1
  8
0
100
AcDbBlockEnd
  0
ENDSEC
  0
SECTION
  2
ENTITIES
0
LINE
8
Layer 1
62
4
5
100
100
AcDbEntity
100
AcDbLine
10
0.053128
20
128.442687
30
0.0
11
0.053128
21
0.049212
31
0.0
0
LINE
8
Layer 1
62
4
5
101
100
AcDbEntity
100
AcDbLine
10
0.053128
20
0.049212
30
0.0
11
50.747296
21
0.049212
31
0.0
0
LINE
8
Layer 1
62
4
5
102
100
AcDbEntity
100
AcDbLine
10
50.747296
20
0.049212
30
0.0
11
50.747296
21
128.442687
31
0.0
0
LINE
8
Layer 1
62
4
5
103
100
AcDbEntity
100
AcDbLine
10
50.747296
20
128.442687
30
0.0
11
0.053128
21
128.442687
31
0.0
0
LINE
8
Layer 1
62
4
5
104
100
AcDbEntity
100
AcDbLine
10
0.053128
20
128.442687
30
0.0
11
0.053128
21
128.442687
31
0.0
0
LINE
8
Layer 1
62
4
5
105
100
AcDbEntity
100
AcDbLine
10
7.300507
20
127.116463
30
0.0
11
11.059795
21
127.116463
31
0.0
0
LINE
8
Layer 1
62
4
5
106
100
AcDbEntity
100
AcDbLine
10
11.059795
20
127.116463
30
0.0
11
11.651511
21
126.996394
31
0.0
0
LINE
8
Layer 1
62
4
5
107
100
AcDbEntity
100
AcDbLine
10
11.651511
20
126.996394
30
0.0
11
12.136337
21
126.669270
31
0.0
0
LINE
8
Layer 1
62
4
5
108
100
AcDbEntity
100
AcDbLine
10
12.136337
20
126.669270
30
0.0
11
12.464057
21
126.184715
31
0.0
0
LINE
8
Layer 1
62
4
5
109
100
AcDbEntity
100
AcDbLine
10
12.464057
20
126.184715
30
0.0
11
12.584457
21
125.592352
31
0.0
0
LINE
8
Layer 1
62
4
5
10a
100
AcDbEntity
100
AcDbLine
10
12.584457
20
125.592352
30
0.0
11
12.584457
21
125.440768
31
0.0
0
LINE
8
Layer 1
62
4
5
10b
100
AcDbEntity
100
AcDbLine
10
12.584457
20
125.440768
30
0.0
11
12.464060
21
124.848590
31
0.0
0
LINE
8
Layer 1
62
4
5
10c
100
AcDbEntity
100
AcDbLine
10
12.464060
20
124.848590
30
0.0
11
12.136345
21
124.364014
31
0.0
0
LINE
8
Layer 1
62
4
5
10d
100
AcDbEntity
100
AcDbLine
10
12.136345
20
124.364014
30
0.0
11
11.651520
21
124.036788
31
0.0
0
LINE
8
Layer 1
62
4
5
10e
100
AcDbEntity
100
AcDbLine
10
11.651520
20
124.036788
30
0.0
11
11.059795
21
123.916658
31
0.0
0
LINE
8
Layer 1
62
4
5
10f
100
AcDbEntity
100
AcDbLine
10
11.059795
20
123.916658
30
0.0
11
7.300507
21
123.916658
31
0.0
0
LINE
8
Layer 1
62
4
5
110
100
AcDbEntity
100
AcDbLine
10
7.300507
20
123.916658
30
0.0
11
6.708917
21
124.036829
31
0.0
0
LINE
8
Layer 1
62
4
5
111
100
AcDbEntity
100
AcDbLine
10
6.708917
20
124.036829
30
0.0
11
6.224276
21
124.364123
31
0.0
0
LINE
8
Layer 1
62
4
5
112
100
AcDbEntity
100
AcDbLine
10
6.224276
20
124.364123
30
0.0
11
5.896723
21
124.848713
31
0.0
0
LINE
8
Layer 1
62
4
5
113
100
AcDbEntity
100
AcDbLine
10
5.896723
20
124.848713
30
0.0
11
5.776397
21
125.440768
31
0.0
0
LINE
8
Layer 1
62
4
5
114
100
AcDbEntity
100
AcDbLine
10
5.776397
20
125.440768
30
0.0
11
5.776397
21
125.592352
31
0.0
0
LINE
8
Layer 1
62
4
5
115
100
AcDbEntity
100
AcDbLine
10
5.776397
20
125.592352
30
0.0
11
5.896723
21
126.184562
31
0.0
0
LINE
8
Layer 1
62
4
5
116
100
AcDbEntity
100
AcDbLine
10
5.896723
20
126.184562
30
0.0
11
6.224276
21
126.669134
31
0.0
0
LINE
8
Layer 1
62
4
5
117
100
AcDbEntity
100
AcDbLine
10
6.224276
20
126.669134
30
0.0
11
6.708917
21
126.996343
31
0.0
0
LINE
8
Layer 1
62
4
5
118
100
AcDbEntity
100
AcDbLine
10
6.708917
20
126.996343
30
0.0
11
7.300507
21
127.116463
31
0.0
0
LINE
8
Layer 1
62
4
5
119
100
AcDbEntity
100
AcDbLine
10
7.300507
20
127.116463
30
0.0
11
7.300507
21
127.116463
31
0.0
0
LINE
8
Layer 1
62
4
5
11a
100
AcDbEntity
100
AcDbLine
10
18.732712
20
113.846506
30
0.0
11
31.900143
21
113.828867
31
0.0
0
LINE
8
Layer 1
62
4
5
11b
100
AcDbEntity
100
AcDbLine
10
31.900143
20
113.828867
30
0.0
11
31.900143
21
95.493242
31
0.0
0
LINE
8
Layer 1
62
4
5
11c
100
AcDbEntity
100
AcDbLine
10
31.900143
20
95.493242
30
0.0
11
18.785629
21
95.493242
31
0.0
0
LINE
8
Layer 1
62
4
5
11d
100
AcDbEntity
100
AcDbLine
10
18.785629
20
95.493242
30
0.0
11
18.732712
21
113.846506
31
0.0
0
LINE
8
Layer 1
62
4
5
11e
100
AcDbEntity
100
AcDbLine
10
18.732712
20
113.846506
30
0.0
11
18.732712
21
113.846506
31
0.0
0
LINE
8
Layer 1
62
4
5
11f
100
AcDbEntity
100
AcDbLine
10
40.155143
20
113.149770
30
0.0
11
41.497599
21
112.878838
31
0.0
0
LINE
8
Layer 1
62
4
5
120
100
AcDbEntity
100
AcDbLine
10
41.497599
20
112.878838
30
0.0
11
42.593694
21
112.139918
31
0.0
0
LINE
8
Layer 1
62
4
5
121
100
AcDbEntity
100
AcDbLine
10
42.593694
20
112.139918
30
0.0
11
43.332614
21
111.043824
31
0.0
0
LINE
8
Layer 1
62
4
5
122
100
AcDbEntity
100
AcDbLine
10
43.332614
20
111.043824
30
0.0
11
43.603546
21
109.701367
31
0.0
0
LINE
8
Layer 1
62
4
5
123
100
AcDbEntity
100
AcDbLine
10
43.603546
20
109.701367
30
0.0
11
43.332614
21
108.358911
31
0.0
0
LINE
8
Layer 1
62
4
5
124
100
AcDbEntity
100
AcDbLine
10
43.332614
20
108.358911
30
0.0
11
42.593694
21
107.262816
31
0.0
0
LINE
8
Layer 1
62
4
5
125
100
AcDbEntity
100
AcDbLine
10
42.593694
20
107.262816
30
0.0
11
41.497599
21
106.523896
31
0.0
0
LINE
8
Layer 1
62
4
5
126
100
AcDbEntity
100
AcDbLine
10
41.497599
20
106.523896
30
0.0
11
40.155143
21
106.252965
31
0.0
0
LINE
8
Layer 1
62
4
5
127
100
AcDbEntity
100
AcDbLine
10
40.155143
20
106.252965
30
0.0
11
38.812687
21
106.523896
31
0.0
0
LINE
8
Layer 1
62
4
5
128
100
AcDbEntity
100
AcDbLine
10
38.812687
20
106.523896
30
0.0
11
37.716592
21
107.262816
31
0.0
0
LINE
8
Layer 1
62
4
5
129
100
AcDbEntity
100
AcDbLine
10
37.716592
20
107.262816
30
0.0
11
36.977672
21
108.358911
31
0.0
0
LINE
8
Layer 1
62
4
5
12a
100
AcDbEntity
100
AcDbLine
10
36.977672
20
108.358911
30
0.0
11
36.706740
21
109.701367
31
0.0
0
LINE
8
Layer 1
62
4
5
12b
100
AcDbEntity
100
AcDbLine
10
36.706740
20
109.701367
30
0.0
11
36.977672
21
111.043824
31
0.0
0
LINE
8
Layer 1
62
4
5
12c
100
AcDbEntity
100
AcDbLine
10
36.977672
20
111.043824
30
0.0
11
37.716592
21
112.139918
31
0.0
0
LINE
8
Layer 1
62
4
5
12d
100
AcDbEntity
100
AcDbLine
10
37.716592
20
112.139918
30
0.0
11
38.812687
21
112.878838
31
0.0
0
LINE
8
Layer 1
62
4
5
12e
100
AcDbEntity
100
AcDbLine
10
38.812687
20
112.878838
30
0.0
11
40.155143
21
113.149770
31
0.0
0
LINE
8
Layer 1
62
4
5
12f
100
AcDbEntity
100
AcDbLine
10
40.155143
20
113.149770
30
0.0
11
40.155143
21
113.149770
31
0.0
0
LINE
8
Layer 1
62
4
5
130
100
AcDbEntity
100
AcDbLine
10
10.363059
20
113.114492
30
0.0
11
11.706893
21
112.843561
31
0.0
0
LINE
8
Layer 1
62
4
5
131
100
AcDbEntity
100
AcDbLine
10
11.706893
20
112.843561
30
0.0
11
12.806020
21
112.104641
31
0.0
0
LINE
8
Layer 1
62
4
5
132
100
AcDbEntity
100
AcDbLine
10
12.806020
20
112.104641
30
0.0
11
13.547971
21
111.008546
31
0.0
0
LINE
8
Layer 1
62
4
5
133
100
AcDbEntity
100
AcDbLine
10
13.547971
20
111.008546
30
0.0
11
13.820281
21
109.666090
31
0.0
0
LINE
8
Layer 1
62
4
5
134
100
AcDbEntity
100
AcDbLine
10
13.820281
20
109.666090
30
0.0
11
13.547971
21
108.323633
31
0.0
0
LINE
8
Layer 1
62
4
5
135
100
AcDbEntity
100
AcDbLine
10
13.547971
20
108.323633
30
0.0
11
12.806019
21
107.227539
31
0.0
0
LINE
8
Layer 1
62
4
5
136
100
AcDbEntity
100
AcDbLine
10
12.806019
20
107.227539
30
0.0
11
11.706893
21
106.488619
31
0.0
0
LINE
8
Layer 1
62
4
5
137
100
AcDbEntity
100
AcDbLine
10
11.706893
20
106.488619
30
0.0
11
10.363059
21
106.217687
31
0.0
0
LINE
8
Layer 1
62
4
5
138
100
AcDbEntity
100
AcDbLine
10
10.363059
20
106.217687
30
0.0
11
9.020603
21
106.488619
31
0.0
0
LINE
8
Layer 1
62
4
5
139
100
AcDbEntity
100
AcDbLine
10
9.020603
20
106.488619
30
0.0
11
7.924508
21
107.227539
31
0.0
0
LINE
8
Layer 1
62
4
5
13a
100
AcDbEntity
100
AcDbLine
10
7.924508
20
107.227539
30
0.0
11
7.185588
21
108.323633
31
0.0
0
LINE
8
Layer 1
62
4
5
13b
100
AcDbEntity
100
AcDbLine
10
7.185588
20
108.323633
30
0.0
11
6.914656
21
109.666090
31
0.0
0
LINE
8
Layer 1
62
4
5
13c
100
AcDbEntity
100
AcDbLine
10
6.914656
20
109.666090
30
0.0
11
7.185588
21
111.008546
31
0.0
0
LINE
8
Layer 1
62
4
5
13d
100
AcDbEntity
100
AcDbLine
10
7.185588
20
111.008546
30
0.0
11
7.924508
21
112.104641
31
0.0
0
LINE
8
Layer 1
62
4
5
13e
100
AcDbEntity
100
AcDbLine
10
7.924508
20
112.104641
30
0.0
11
9.020603
21
112.843561
31
0.0
0
LINE
8
Layer 1
62
4
5
13f
100
AcDbEntity
100
AcDbLine
10
9.020603
20
112.843561
30
0.0
11
10.363059
21
113.114492
31
0.0
0
LINE
8
Layer 1
62
4
5
140
100
AcDbEntity
100
AcDbLine
10
10.363059
20
113.114492
30
0.0
11
10.363059
21
113.114492
31
0.0
0
LINE
8
Layer 1
62
4
5
141
100
AcDbEntity
100
AcDbLine
10
10.354240
20
99.647201
30
0.0
11
11.504720
21
99.415170
31
0.0
0
LINE
8
Layer 1
62
4
5
142
100
AcDbEntity
100
AcDbLine
10
11.504720
20
99.415170
30
0.0
11
12.443796
21
98.782244
31
0.0
0
LINE
8
Layer 1
62
4
5
143
100
AcDbEntity
100
AcDbLine
10
12.443796
20
98.782244
30
0.0
11
13.076723
21
97.843167
31
0.0
0
LINE
8
Layer 1
62
4
5
144
100
AcDbEntity
100
AcDbLine
10
13.076723
20
97.843167
30
0.0
11
13.308754
21
96.692687
31
0.0
0
LINE
8
Layer 1
62
4
5
145
100
AcDbEntity
100
AcDbLine
10
13.308754
20
96.692687
30
0.0
11
13.076723
21
95.540829
31
0.0
0
LINE
8
Layer 1
62
4
5
146
100
AcDbEntity
100
AcDbLine
10
13.076723
20
95.540829
30
0.0
11
12.443796
21
94.598720
31
0.0
0
LINE
8
Layer 1
62
4
5
147
100
AcDbEntity
100
AcDbLine
10
12.443796
20
94.598720
30
0.0
11
11.504719
21
93.962762
31
0.0
0
LINE
8
Layer 1
62
4
5
148
100
AcDbEntity
100
AcDbLine
10
11.504719
20
93.962762
30
0.0
11
10.354240
21
93.729353
31
0.0
0
LINE
8
Layer 1
62
4
5
149
100
AcDbEntity
100
AcDbLine
10
10.354240
20
93.729353
30
0.0
11
9.203760
21
93.962762
31
0.0
0
LINE
8
Layer 1
62
4
5
14a
100
AcDbEntity
100
AcDbLine
10
9.203760
20
93.962762
30
0.0
11
8.264683
21
94.598720
31
0.0
0
LINE
8
Layer 1
62
4
5
14b
100
AcDbEntity
100
AcDbLine
10
8.264683
20
94.598720
30
0.0
11
7.631756
21
95.540829
31
0.0
0
LINE
8
Layer 1
62
4
5
14c
100
AcDbEntity
100
AcDbLine
10
7.631756
20
95.540829
30
0.0
11
7.399726
21
96.692687
31
0.0
0
LINE
8
Layer 1
62
4
5
14d
100
AcDbEntity
100
AcDbLine
10
7.399726
20
96.692687
30
0.0
11
7.631756
21
97.843167
31
0.0
0
LINE
8
Layer 1
62
4
5
14e
100
AcDbEntity
100
AcDbLine
10
7.631756
20
97.843167
30
0.0
11
8.264683
21
98.782244
31
0.0
0
LINE
8
Layer 1
62
4
5
14f
100
AcDbEntity
100
AcDbLine
10
8.264683
20
98.782244
30
0.0
11
9.203760
21
99.415170
31
0.0
0
LINE
8
Layer 1
62
4
5
150
100
AcDbEntity
100
AcDbLine
10
9.203760
20
99.415170
30
0.0
11
10.354240
21
99.647201
31
0.0
0
LINE
8
Layer 1
62
4
5
151
100
AcDbEntity
100
AcDbLine
10
10.354240
20
99.647201
30
0.0
11
10.354240
21
99.647201
31
0.0
0
LINE
8
Layer 1
62
4
5
152
100
AcDbEntity
100
AcDbLine
10
40.137504
20
99.497270
30
0.0
11
41.287984
21
99.265240
31
0.0
0
LINE
8
Layer 1
62
4
5
153
100
AcDbEntity
100
AcDbLine
10
41.287984
20
99.265240
30
0.0
11
42.227061
21
98.632313
31
0.0
0
LINE
8
Layer 1
62
4
5
154
100
AcDbEntity
100
AcDbLine
10
42.227061
20
98.632313
30
0.0
11
42.859988
21
97.693236
31
0.0
0
LINE
8
Layer 1
62
4
5
155
100
AcDbEntity
100
AcDbLine
10
42.859988
20
97.693236
30
0.0
11
43.092018
21
96.542756
31
0.0
0
LINE
8
Layer 1
62
4
5
156
100
AcDbEntity
100
AcDbLine
10
43.092018
20
96.542756
30
0.0
11
42.859988
21
95.390898
31
0.0
0
LINE
8
Layer 1
62
4
5
157
100
AcDbEntity
100
AcDbLine
10
42.859988
20
95.390898
30
0.0
11
42.227061
21
94.448790
31
0.0
0
LINE
8
Layer 1
62
4
5
158
100
AcDbEntity
100
AcDbLine
10
42.227061
20
94.448790
30
0.0
11
41.287984
21
93.812831
31
0.0
0
LINE
8
Layer 1
62
4
5
159
100
AcDbEntity
100
AcDbLine
10
41.287984
20
93.812831
30
0.0
11
40.137504
21
93.579423
31
0.0
0
LINE
8
Layer 1
62
4
5
15a
100
AcDbEntity
100
AcDbLine
10
40.137504
20
93.579423
30
0.0
11
38.987024
21
93.812831
31
0.0
0
LINE
8
Layer 1
62
4
5
15b
100
AcDbEntity
100
AcDbLine
10
38.987024
20
93.812831
30
0.0
11
38.047947
21
94.448790
31
0.0
0
LINE
8
Layer 1
62
4
5
15c
100
AcDbEntity
100
AcDbLine
10
38.047947
20
94.448790
30
0.0
11
37.415021
21
95.390898
31
0.0
0
LINE
8
Layer 1
62
4
5
15d
100
AcDbEntity
100
AcDbLine
10
37.415021
20
95.390898
30
0.0
11
37.182990
21
96.542756
31
0.0
0
LINE
8
Layer 1
62
4
5
15e
100
AcDbEntity
100
AcDbLine
10
37.182990
20
96.542756
30
0.0
11
37.415021
21
97.693236
31
0.0
0
LINE
8
Layer 1
62
4
5
15f
100
AcDbEntity
100
AcDbLine
10
37.415021
20
97.693236
30
0.0
11
38.047947
21
98.632313
31
0.0
0
LINE
8
Layer 1
62
4
5
160
100
AcDbEntity
100
AcDbLine
10
38.047947
20
98.632313
30
0.0
11
38.987024
21
99.265240
31
0.0
0
LINE
8
Layer 1
62
4
5
161
100
AcDbEntity
100
AcDbLine
10
38.987024
20
99.265240
30
0.0
11
40.137504
21
99.497270
31
0.0
0
LINE
8
Layer 1
62
4
5
162
100
AcDbEntity
100
AcDbLine
10
40.137504
20
99.497270
30
0.0
11
40.137504
21
99.497270
31
0.0
0
LINE
8
Layer 1
62
4
5
163
100
AcDbEntity
100
AcDbLine
10
25.357768
20
91.455591
30
0.0
11
25.847247
21
91.431348
31
0.0
0
LINE
8
Layer 1
62
4
5
164
100
AcDbEntity
100
AcDbLine
10
25.847247
20
91.431348
30
0.0
11
26.327907
21
91.359689
31
0.0
0
LINE
8
Layer 1
62
4
5
165
100
AcDbEntity
100
AcDbLine
10
26.327907
20
91.359689
30
0.0
11
26.797542
21
91.241728
31
0.0
0
LINE
8
Layer 1
62
4
5
166
100
AcDbEntity
100
AcDbLine
10
26.797542
20
91.241728
30
0.0
11
27.252295
21
91.079120
31
0.0
0
LINE
8
Layer 1
62
4
5
167
100
AcDbEntity
100
AcDbLine
10
27.252295
20
91.079120
30
0.0
11
27.688857
21
90.872965
31
0.0
0
LINE
8
Layer 1
62
4
5
168
100
AcDbEntity
100
AcDbLine
10
27.688857
20
90.872965
30
0.0
11
28.103923
21
90.624367
31
0.0
0
LINE
8
Layer 1
62
4
5
169
100
AcDbEntity
100
AcDbLine
10
28.103923
20
90.624367
30
0.0
11
28.495284
21
90.334979
31
0.0
0
LINE
8
Layer 1
62
4
5
16a
100
AcDbEntity
100
AcDbLine
10
28.495284
20
90.334979
30
0.0
11
28.857985
21
90.005905
31
0.0
0
LINE
8
Layer 1
62
4
5
16b
100
AcDbEntity
100
AcDbLine
10
28.857985
20
90.005905
30
0.0
11
29.187062
21
89.643205
31
0.0
0
LINE
8
Layer 1
62
4
5
16c
100
AcDbEntity
100
AcDbLine
10
29.187062
20
89.643205
30
0.0
11
29.476450
21
89.251841
31
0.0
0
LINE
8
Layer 1
62
4
5
16d
100
AcDbEntity
100
AcDbLine
10
29.476450
20
89.251841
30
0.0
11
29.725048
21
88.836777
31
0.0
0
LINE
8
Layer 1
62
4
5
16e
100
AcDbEntity
100
AcDbLine
10
29.725048
20
88.836777
30
0.0
11
29.931203
21
88.400213
31
0.0
0
LINE
8
Layer 1
62
4
5
16f
100
AcDbEntity
100
AcDbLine
10
29.931203
20
88.400213
30
0.0
11
30.093811
21
87.945463
31
0.0
0
LINE
8
Layer 1
62
4
5
170
100
AcDbEntity
100
AcDbLine
10
30.093811
20
87.945463
30
0.0
11
30.211771
21
87.475826
31
0.0
0
LINE
8
Layer 1
62
4
5
171
100
AcDbEntity
100
AcDbLine
10
30.211771
20
87.475826
30
0.0
11
30.283427
21
86.995167
31
0.0
0
LINE
8
Layer 1
62
4
5
172
100
AcDbEntity
100
AcDbLine
10
30.283427
20
86.995167
30
0.0
11
30.307670
21
86.505687
31
0.0
0
LINE
8
Layer 1
62
4
5
173
100
AcDbEntity
100
AcDbLine
10
30.307670
20
86.505687
30
0.0
11
30.283427
21
86.016759
31
0.0
0
LINE
8
Layer 1
62
4
5
174
100
AcDbEntity
100
AcDbLine
10
30.283427
20
86.016759
30
0.0
11
30.211771
21
85.535548
31
0.0
0
LINE
8
Layer 1
62
4
5
175
100
AcDbEntity
100
AcDbLine
10
30.211771
20
85.535548
30
0.0
11
30.093811
21
85.066463
31
0.0
0
LINE
8
Layer 1
62
4
5
176
100
AcDbEntity
100
AcDbLine
10
30.093811
20
85.066463
30
0.0
11
29.931203
21
84.611713
31
0.0
0
LINE
8
Layer 1
62
4
5
177
100
AcDbEntity
100
AcDbLine
10
29.931203
20
84.611713
30
0.0
11
29.725048
21
84.175149
31
0.0
0
LINE
8
Layer 1
62
4
5
178
100
AcDbEntity
100
AcDbLine
10
29.725048
20
84.175149
30
0.0
11
29.476450
21
83.759532
31
0.0
0
LINE
8
Layer 1
62
4
5
179
100
AcDbEntity
100
AcDbLine
10
29.476450
20
83.759532
30
0.0
11
29.187062
21
83.368722
31
0.0
0
LINE
8
Layer 1
62
4
5
17a
100
AcDbEntity
100
AcDbLine
10
29.187062
20
83.368722
30
0.0
11
28.857985
21
83.005471
31
0.0
0
LINE
8
Layer 1
62
4
5
17b
100
AcDbEntity
100
AcDbLine
10
28.857985
20
83.005471
30
0.0
11
28.495284
21
82.676947
31
0.0
0
LINE
8
Layer 1
62
4
5
17c
100
AcDbEntity
100
AcDbLine
10
28.495284
20
82.676947
30
0.0
11
28.103923
21
82.387559
31
0.0
0
LINE
8
Layer 1
62
4
5
17d
100
AcDbEntity
100
AcDbLine
10
28.103923
20
82.387559
30
0.0
11
27.688857
21
82.138961
31
0.0
0
LINE
8
Layer 1
62
4
5
17e
100
AcDbEntity
100
AcDbLine
10
27.688857
20
82.138961
30
0.0
11
27.252295
21
81.932806
31
0.0
0
LINE
8
Layer 1
62
4
5
17f
100
AcDbEntity
100
AcDbLine
10
27.252295
20
81.932806
30
0.0
11
26.797542
21
81.769645
31
0.0
0
LINE
8
Layer 1
62
4
5
180
100
AcDbEntity
100
AcDbLine
10
26.797542
20
81.769645
30
0.0
11
26.327907
21
81.651685
31
0.0
0
LINE
8
Layer 1
62
4
5
181
100
AcDbEntity
100
AcDbLine
10
26.327907
20
81.651685
30
0.0
11
25.847247
21
81.580028
31
0.0
0
LINE
8
Layer 1
62
4
5
182
100
AcDbEntity
100
AcDbLine
10
25.847247
20
81.580028
30
0.0
11
25.357768
21
81.555785
31
0.0
0
LINE
8
Layer 1
62
4
5
183
100
AcDbEntity
100
AcDbLine
10
25.357768
20
81.555785
30
0.0
11
24.851753
21
81.581129
31
0.0
0
LINE
8
Layer 1
62
4
5
184
100
AcDbEntity
100
AcDbLine
10
24.851753
20
81.581129
30
0.0
11
24.360069
21
81.656646
31
0.0
0
LINE
8
Layer 1
62
4
5
185
100
AcDbEntity
100
AcDbLine
10
24.360069
20
81.656646
30
0.0
11
23.886023
21
81.778464
31
0.0
0
LINE
8
Layer 1
62
4
5
186
100
AcDbEntity
100
AcDbLine
10
23.886023
20
81.778464
30
0.0
11
23.431271
21
81.944933
31
0.0
0
LINE
8
Layer 1
62
4
5
187
100
AcDbEntity
100
AcDbLine
10
23.431271
20
81.944933
30
0.0
11
22.998567
21
82.153292
31
0.0
0
LINE
8
Layer 1
62
4
5
188
100
AcDbEntity
100
AcDbLine
10
22.998567
20
82.153292
30
0.0
11
22.590116
21
82.401337
31
0.0
0
LINE
8
Layer 1
62
4
5
189
100
AcDbEntity
100
AcDbLine
10
22.590116
20
82.401337
30
0.0
11
22.209227
21
82.686317
31
0.0
0
LINE
8
Layer 1
62
4
5
18a
100
AcDbEntity
100
AcDbLine
10
22.209227
20
82.686317
30
0.0
11
21.857551
21
83.005471
31
0.0
0
LINE
8
Layer 1
62
4
5
18b
100
AcDbEntity
100
AcDbLine
10
21.857551
20
83.005471
30
0.0
11
21.538398
21
83.357145
31
0.0
0
LINE
8
Layer 1
62
4
5
18c
100
AcDbEntity
100
AcDbLine
10
21.538398
20
83.357145
30
0.0
11
21.253419
21
83.738035
31
0.0
0
LINE
8
Layer 1
62
4
5
18d
100
AcDbEntity
100
AcDbLine
10
21.253419
20
83.738035
30
0.0
11
21.005372
21
84.146487
31
0.0
0
LINE
8
Layer 1
62
4
5
18e
100
AcDbEntity
100
AcDbLine
10
21.005372
20
84.146487
30
0.0
11
20.797013
21
84.579190
31
0.0
0
LINE
8
Layer 1
62
4
5
18f
100
AcDbEntity
100
AcDbLine
10
20.797013
20
84.579190
30
0.0
11
20.630546
21
85.033943
31
0.0
0
LINE
8
Layer 1
62
4
5
190
100
AcDbEntity
100
AcDbLine
10
20.630546
20
85.033943
30
0.0
11
20.508727
21
85.507989
31
0.0
0
LINE
8
Layer 1
62
4
5
191
100
AcDbEntity
100
AcDbLine
10
20.508727
20
85.507989
30
0.0
11
20.433211
21
85.999671
31
0.0
0
LINE
8
Layer 1
62
4
5
192
100
AcDbEntity
100
AcDbLine
10
20.433211
20
85.999671
30
0.0
11
20.407856
21
86.505687
31
0.0
0
LINE
8
Layer 1
62
4
5
193
100
AcDbEntity
100
AcDbLine
10
20.407856
20
86.505687
30
0.0
11
20.433211
21
87.011703
31
0.0
0
LINE
8
Layer 1
62
4
5
194
100
AcDbEntity
100
AcDbLine
10
20.433211
20
87.011703
30
0.0
11
20.508727
21
87.503387
31
0.0
0
LINE
8
Layer 1
62
4
5
195
100
AcDbEntity
100
AcDbLine
10
20.508727
20
87.503387
30
0.0
11
20.630546
21
87.977984
31
0.0
0
LINE
8
Layer 1
62
4
5
196
100
AcDbEntity
100
AcDbLine
10
20.630546
20
87.977984
30
0.0
11
20.797013
21
88.432737
31
0.0
0
LINE
8
Layer 1
62
4
5
197
100
AcDbEntity
100
AcDbLine
10
20.797013
20
88.432737
30
0.0
11
21.005372
21
88.865440
31
0.0
0
LINE
8
Layer 1
62
4
5
198
100
AcDbEntity
100
AcDbLine
10
21.005372
20
88.865440
30
0.0
11
21.253419
21
89.273338
31
0.0
0
LINE
8
Layer 1
62
4
5
199
100
AcDbEntity
100
AcDbLine
10
21.253419
20
89.273338
30
0.0
11
21.538398
21
89.654228
31
0.0
0
LINE
8
Layer 1
62
4
5
19a
100
AcDbEntity
100
AcDbLine
10
21.538398
20
89.654228
30
0.0
11
21.857551
21
90.005905
31
0.0
0
LINE
8
Layer 1
62
4
5
19b
100
AcDbEntity
100
AcDbLine
10
21.857551
20
90.005905
30
0.0
11
22.209227
21
90.325610
31
0.0
0
LINE
8
Layer 1
62
4
5
19c
100
AcDbEntity
100
AcDbLine
10
22.209227
20
90.325610
30
0.0
11
22.590116
21
90.610586
31
0.0
0
LINE
8
Layer 1
62
4
5
19d
100
AcDbEntity
100
AcDbLine
10
22.590116
20
90.610586
30
0.0
11
22.998567
21
90.858634
31
0.0
0
LINE
8
Layer 1
62
4
5
19e
100
AcDbEntity
100
AcDbLine
10
22.998567
20
90.858634
30
0.0
11
23.431271
21
91.066993
31
0.0
0
LINE
8
Layer 1
62
4
5
19f
100
AcDbEntity
100
AcDbLine
10
23.431271
20
91.066993
30
0.0
11
23.886023
21
91.233462
31
0.0
0
LINE
8
Layer 1
62
4
5
1a0
100
AcDbEntity
100
AcDbLine
10
23.886023
20
91.233462
30
0.0
11
24.360069
21
91.355280
31
0.0
0
LINE
8
Layer 1
62
4
5
1a1
100
AcDbEntity
100
AcDbLine
10
24.360069
20
91.355280
30
0.0
11
24.851753
21
91.430244
31
0.0
0
LINE
8
Layer 1
62
4
5
1a2
100
AcDbEntity
100
AcDbLine
10
24.851753
20
91.430244
30
0.0
11
25.357768
21
91.455588
31
0.0
0
LINE
8
Layer 1
62
4
5
1a3
100
AcDbEntity
100
AcDbLine
10
25.357768
20
91.455588
30
0.0
11
25.357768
21
91.455591
31
0.0
0
LINE
8
Layer 1
62
4
5
1a4
100
AcDbEntity
100
AcDbLine
10
40.539891
20
76.525372
30
0.0
11
41.510153
21
76.429462
31
0.0
0
LINE
8
Layer 1
62
4
5
1a5
100
AcDbEntity
100
AcDbLine
10
41.510153
20
76.429462
30
0.0
11
42.434296
21
76.148717
31
0.0
0
LINE
8
Layer 1
62
4
5
1a6
100
AcDbEntity
100
AcDbLine
10
42.434296
20
76.148717
30
0.0
11
43.286348
21
75.693893
31
0.0
0
LINE
8
Layer 1
62
4
5
1a7
100
AcDbEntity
100
AcDbLine
10
43.286348
20
75.693893
30
0.0
11
44.040338
21
75.075745
31
0.0
0
LINE
8
Layer 1
62
4
5
1a8
100
AcDbEntity
100
AcDbLine
10
44.040338
20
75.075745
30
0.0
11
44.658569
21
74.321824
31
0.0
0
LINE
8
Layer 1
62
4
5
1a9
100
AcDbEntity
100
AcDbLine
10
44.658569
20
74.321824
30
0.0
11
45.113488
21
73.469822
31
0.0
0
LINE
8
Layer 1
62
4
5
1aa
100
AcDbEntity
100
AcDbLine
10
45.113488
20
73.469822
30
0.0
11
45.394336
21
72.545711
31
0.0
0
LINE
8
Layer 1
62
4
5
1ab
100
AcDbEntity
100
AcDbLine
10
45.394336
20
72.545711
30
0.0
11
45.490354
21
71.575459
31
0.0
0
LINE
8
Layer 1
62
4
5
1ac
100
AcDbEntity
100
AcDbLine
10
45.490354
20
71.575459
30
0.0
11
45.394336
21
70.605208
31
0.0
0
LINE
8
Layer 1
62
4
5
1ad
100
AcDbEntity
100
AcDbLine
10
45.394336
20
70.605208
30
0.0
11
45.113488
21
69.681096
31
0.0
0
LINE
8
Layer 1
62
4
5
1ae
100
AcDbEntity
100
AcDbLine
10
45.113488
20
69.681096
30
0.0
11
44.658569
21
68.829095
31
0.0
0
LINE
8
Layer 1
62
4
5
1af
100
AcDbEntity
100
AcDbLine
10
44.658569
20
68.829095
30
0.0
11
44.040338
21
68.075174
31
0.0
0
LINE
8
Layer 1
62
4
5
1b0
100
AcDbEntity
100
AcDbLine
10
44.040338
20
68.075174
30
0.0
11
43.286348
21
67.457026
31
0.0
0
LINE
8
Layer 1
62
4
5
1b1
100
AcDbEntity
100
AcDbLine
10
43.286348
20
67.457026
30
0.0
11
42.434296
21
67.002202
31
0.0
0
LINE
8
Layer 1
62
4
5
1b2
100
AcDbEntity
100
AcDbLine
10
42.434296
20
67.002202
30
0.0
11
41.510153
21
66.721457
31
0.0
0
LINE
8
Layer 1
62
4
5
1b3
100
AcDbEntity
100
AcDbLine
10
41.510153
20
66.721457
30
0.0
11
40.539891
21
66.625547
31
0.0
0
LINE
8
Layer 1
62
4
5
1b4
100
AcDbEntity
100
AcDbLine
10
40.539891
20
66.625547
30
0.0
11
39.542319
21
66.726126
31
0.0
0
LINE
8
Layer 1
62
4
5
1b5
100
AcDbEntity
100
AcDbLine
10
39.542319
20
66.726126
30
0.0
11
38.613177
21
67.014559
31
0.0
0
LINE
8
Layer 1
62
4
5
1b6
100
AcDbEntity
100
AcDbLine
10
38.613177
20
67.014559
30
0.0
11
37.772369
21
67.470941
31
0.0
0
LINE
8
Layer 1
62
4
5
1b7
100
AcDbEntity
100
AcDbLine
10
37.772369
20
67.470941
30
0.0
11
37.039800
21
68.075368
31
0.0
0
LINE
8
Layer 1
62
4
5
1b8
100
AcDbEntity
100
AcDbLine
10
37.039800
20
68.075368
30
0.0
11
36.435372
21
68.807938
31
0.0
0
LINE
8
Layer 1
62
4
5
1b9
100
AcDbEntity
100
AcDbLine
10
36.435372
20
68.807938
30
0.0
11
35.978990
21
69.648745
31
0.0
0
LINE
8
Layer 1
62
4
5
1ba
100
AcDbEntity
100
AcDbLine
10
35.978990
20
69.648745
30
0.0
11
35.690558
21
70.577887
31
0.0
0
LINE
8
Layer 1
62
4
5
1bb
100
AcDbEntity
100
AcDbLine
10
35.690558
20
70.577887
30
0.0
11
35.589978
21
71.575459
31
0.0
0
LINE
8
Layer 1
62
4
5
1bc
100
AcDbEntity
100
AcDbLine
10
35.589978
20
71.575459
30
0.0
11
35.690558
21
72.573032
31
0.0
0
LINE
8
Layer 1
62
4
5
1bd
100
AcDbEntity
100
AcDbLine
10
35.690558
20
72.573032
30
0.0
11
35.978990
21
73.502173
31
0.0
0
LINE
8
Layer 1
62
4
5
1be
100
AcDbEntity
100
AcDbLine
10
35.978990
20
73.502173
30
0.0
11
36.435372
21
74.342981
31
0.0
0
LINE
8
Layer 1
62
4
5
1bf
100
AcDbEntity
100
AcDbLine
10
36.435372
20
74.342981
30
0.0
11
37.039800
21
75.075550
31
0.0
0
LINE
8
Layer 1
62
4
5
1c0
100
AcDbEntity
100
AcDbLine
10
37.039800
20
75.075550
30
0.0
11
37.772369
21
75.679978
31
0.0
0
LINE
8
Layer 1
62
4
5
1c1
100
AcDbEntity
100
AcDbLine
10
37.772369
20
75.679978
30
0.0
11
38.613177
21
76.136360
31
0.0
0
LINE
8
Layer 1
62
4
5
1c2
100
AcDbEntity
100
AcDbLine
10
38.613177
20
76.136360
30
0.0
11
39.542319
21
76.424792
31
0.0
0
LINE
8
Layer 1
62
4
5
1c3
100
AcDbEntity
100
AcDbLine
10
39.542319
20
76.424792
30
0.0
11
40.539891
21
76.525372
31
0.0
0
LINE
8
Layer 1
62
4
5
1c4
100
AcDbEntity
100
AcDbLine
10
40.539891
20
76.525372
30
0.0
11
40.539891
21
76.525372
31
0.0
0
LINE
8
Layer 1
62
4
5
1c5
100
AcDbEntity
100
AcDbLine
10
10.257226
20
75.014492
30
0.0
11
11.599682
21
74.743561
31
0.0
0
LINE
8
Layer 1
62
4
5
1c6
100
AcDbEntity
100
AcDbLine
10
11.599682
20
74.743561
30
0.0
11
12.695777
21
74.004641
31
0.0
0
LINE
8
Layer 1
62
4
5
1c7
100
AcDbEntity
100
AcDbLine
10
12.695777
20
74.004641
30
0.0
11
13.434697
21
72.908546
31
0.0
0
LINE
8
Layer 1
62
4
5
1c8
100
AcDbEntity
100
AcDbLine
10
13.434697
20
72.908546
30
0.0
11
13.705629
21
71.566090
31
0.0
0
LINE
8
Layer 1
62
4
5
1c9
100
AcDbEntity
100
AcDbLine
10
13.705629
20
71.566090
30
0.0
11
13.434697
21
70.223633
31
0.0
0
LINE
8
Layer 1
62
4
5
1ca
100
AcDbEntity
100
AcDbLine
10
13.434697
20
70.223633
30
0.0
11
12.695776
21
69.127539
31
0.0
0
LINE
8
Layer 1
62
4
5
1cb
100
AcDbEntity
100
AcDbLine
10
12.695776
20
69.127539
30
0.0
11
11.599681
21
68.388619
31
0.0
0
LINE
8
Layer 1
62
4
5
1cc
100
AcDbEntity
100
AcDbLine
10
11.599681
20
68.388619
30
0.0
11
10.257226
21
68.117687
31
0.0
0
LINE
8
Layer 1
62
4
5
1cd
100
AcDbEntity
100
AcDbLine
10
10.257226
20
68.117687
30
0.0
11
8.914770
21
68.388619
31
0.0
0
LINE
8
Layer 1
62
4
5
1ce
100
AcDbEntity
100
AcDbLine
10
8.914770
20
68.388619
30
0.0
11
7.818675
21
69.127539
31
0.0
0
LINE
8
Layer 1
62
4
5
1cf
100
AcDbEntity
100
AcDbLine
10
7.818675
20
69.127539
30
0.0
11
7.079755
21
70.223633
31
0.0
0
LINE
8
Layer 1
62
4
5
1d0
100
AcDbEntity
100
AcDbLine
10
7.079755
20
70.223633
30
0.0
11
6.808823
21
71.566090
31
0.0
0
LINE
8
Layer 1
62
4
5
1d1
100
AcDbEntity
100
AcDbLine
10
6.808823
20
71.566090
30
0.0
11
7.079755
21
72.908546
31
0.0
0
LINE
8
Layer 1
62
4
5
1d2
100
AcDbEntity
100
AcDbLine
10
7.079755
20
72.908546
30
0.0
11
7.818675
21
74.004641
31
0.0
0
LINE
8
Layer 1
62
4
5
1d3
100
AcDbEntity
100
AcDbLine
10
7.818675
20
74.004641
30
0.0
11
8.914770
21
74.743561
31
0.0
0
LINE
8
Layer 1
62
4
5
1d4
100
AcDbEntity
100
AcDbLine
10
8.914770
20
74.743561
30
0.0
11
10.257226
21
75.014492
31
0.0
0
LINE
8
Layer 1
62
4
5
1d5
100
AcDbEntity
100
AcDbLine
10
10.257226
20
75.014492
30
0.0
11
10.257226
21
75.014492
31
0.0
0
LINE
8
Layer 1
62
4
5
1d6
100
AcDbEntity
100
AcDbLine
10
40.539891
20
58.823093
30
0.0
11
41.510153
21
58.727183
31
0.0
0
LINE
8
Layer 1
62
4
5
1d7
100
AcDbEntity
100
AcDbLine
10
41.510153
20
58.727183
30
0.0
11
42.434296
21
58.446438
31
0.0
0
LINE
8
Layer 1
62
4
5
1d8
100
AcDbEntity
100
AcDbLine
10
42.434296
20
58.446438
30
0.0
11
43.286348
21
57.991614
31
0.0
0
LINE
8
Layer 1
62
4
5
1d9
100
AcDbEntity
100
AcDbLine
10
43.286348
20
57.991614
30
0.0
11
44.040338
21
57.373466
31
0.0
0
LINE
8
Layer 1
62
4
5
1da
100
AcDbEntity
100
AcDbLine
10
44.040338
20
57.373466
30
0.0
11
44.658569
21
56.619545
31
0.0
0
LINE
8
Layer 1
62
4
5
1db
100
AcDbEntity
100
AcDbLine
10
44.658569
20
56.619545
30
0.0
11
45.113488
21
55.767544
31
0.0
0
LINE
8
Layer 1
62
4
5
1dc
100
AcDbEntity
100
AcDbLine
10
45.113488
20
55.767544
30
0.0
11
45.394336
21
54.843432
31
0.0
0
LINE
8
Layer 1
62
4
5
1dd
100
AcDbEntity
100
AcDbLine
10
45.394336
20
54.843432
30
0.0
11
45.490354
21
53.873181
31
0.0
0
LINE
8
Layer 1
62
4
5
1de
100
AcDbEntity
100
AcDbLine
10
45.490354
20
53.873181
30
0.0
11
45.394336
21
52.902929
31
0.0
0
LINE
8
Layer 1
62
4
5
1df
100
AcDbEntity
100
AcDbLine
10
45.394336
20
52.902929
30
0.0
11
45.113488
21
51.978818
31
0.0
0
LINE
8
Layer 1
62
4
5
1e0
100
AcDbEntity
100
AcDbLine
10
45.113488
20
51.978818
30
0.0
11
44.658569
21
51.126816
31
0.0
0
LINE
8
Layer 1
62
4
5
1e1
100
AcDbEntity
100
AcDbLine
10
44.658569
20
51.126816
30
0.0
11
44.040338
21
50.372895
31
0.0
0
LINE
8
Layer 1
62
4
5
1e2
100
AcDbEntity
100
AcDbLine
10
44.040338
20
50.372895
30
0.0
11
43.286348
21
49.754747
31
0.0
0
LINE
8
Layer 1
62
4
5
1e3
100
AcDbEntity
100
AcDbLine
10
43.286348
20
49.754747
30
0.0
11
42.434296
21
49.299923
31
0.0
0
LINE
8
Layer 1
62
4
5
1e4
100
AcDbEntity
100
AcDbLine
10
42.434296
20
49.299923
30
0.0
11
41.510153
21
49.019178
31
0.0
0
LINE
8
Layer 1
62
4
5
1e5
100
AcDbEntity
100
AcDbLine
10
41.510153
20
49.019178
30
0.0
11
40.539891
21
48.923268
31
0.0
0
LINE
8
Layer 1
62
4
5
1e6
100
AcDbEntity
100
AcDbLine
10
40.539891
20
48.923268
30
0.0
11
39.542319
21
49.023847
31
0.0
0
LINE
8
Layer 1
62
4
5
1e7
100
AcDbEntity
100
AcDbLine
10
39.542319
20
49.023847
30
0.0
11
38.613177
21
49.312280
31
0.0
0
LINE
8
Layer 1
62
4
5
1e8
100
AcDbEntity
100
AcDbLine
10
38.613177
20
49.312280
30
0.0
11
37.772369
21
49.768662
31
0.0
0
LINE
8
Layer 1
62
4
5
1e9
100
AcDbEntity
100
AcDbLine
10
37.772369
20
49.768662
30
0.0
11
37.039800
21
50.373090
31
0.0
0
LINE
8
Layer 1
62
4
5
1ea
100
AcDbEntity
100
AcDbLine
10
37.039800
20
50.373090
30
0.0
11
36.435372
21
51.105659
31
0.0
0
LINE
8
Layer 1
62
4
5
1eb
100
AcDbEntity
100
AcDbLine
10
36.435372
20
51.105659
30
0.0
11
35.978990
21
51.946467
31
0.0
0
LINE
8
Layer 1
62
4
5
1ec
100
AcDbEntity
100
AcDbLine
10
35.978990
20
51.946467
30
0.0
11
35.690558
21
52.875608
31
0.0
0
LINE
8
Layer 1
62
4
5
1ed
100
AcDbEntity
100
AcDbLine
10
35.690558
20
52.875608
30
0.0
11
35.589978
21
53.873181
31
0.0
0
LINE
8
Layer 1
62
4
5
1ee
100
AcDbEntity
100
AcDbLine
10
35.589978
20
53.873181
30
0.0
11
35.690558
21
54.870753
31
0.0
0
LINE
8
Layer 1
62
4
5
1ef
100
AcDbEntity
100
AcDbLine
10
35.690558
20
54.870753
30
0.0
11
35.978990
21
55.799895
31
0.0
0
LINE
8
Layer 1
62
4
5
1f0
100
AcDbEntity
100
AcDbLine
10
35.978990
20
55.799895
30
0.0
11
36.435372
21
56.640702
31
0.0
0
LINE
8
Layer 1
62
4
5
1f1
100
AcDbEntity
100
AcDbLine
10
36.435372
20
56.640702
30
0.0
11
37.039800
21
57.373272
31
0.0
0
LINE
8
Layer 1
62
4
5
1f2
100
AcDbEntity
100
AcDbLine
10
37.039800
20
57.373272
30
0.0
11
37.772369
21
57.977699
31
0.0
0
LINE
8
Layer 1
62
4
5
1f3
100
AcDbEntity
100
AcDbLine
10
37.772369
20
57.977699
30
0.0
11
38.613177
21
58.434081
31
0.0
0
LINE
8
Layer 1
62
4
5
1f4
100
AcDbEntity
100
AcDbLine
10
38.613177
20
58.434081
30
0.0
11
39.542319
21
58.722514
31
0.0
0
LINE
8
Layer 1
62
4
5
1f5
100
AcDbEntity
100
AcDbLine
10
39.542319
20
58.722514
30
0.0
11
40.539891
21
58.823093
31
0.0
0
LINE
8
Layer 1
62
4
5
1f6
100
AcDbEntity
100
AcDbLine
10
40.539891
20
58.823093
30
0.0
11
40.539891
21
58.823093
31
0.0
0
LINE
8
Layer 1
62
4
5
1f7
100
AcDbEntity
100
AcDbLine
10
10.707018
20
56.581853
30
0.0
11
12.049473
21
56.310922
31
0.0
0
LINE
8
Layer 1
62
4
5
1f8
100
AcDbEntity
100
AcDbLine
10
12.049473
20
56.310922
30
0.0
11
13.145568
21
55.572002
31
0.0
0
LINE
8
Layer 1
62
4
5
1f9
100
AcDbEntity
100
AcDbLine
10
13.145568
20
55.572002
30
0.0
11
13.884488
21
54.475907
31
0.0
0
LINE
8
Layer 1
62
4
5
1fa
100
AcDbEntity
100
AcDbLine
10
13.884488
20
54.475907
30
0.0
11
14.155420
21
53.133451
31
0.0
0
LINE
8
Layer 1
62
4
5
1fb
100
AcDbEntity
100
AcDbLine
10
14.155420
20
53.133451
30
0.0
11
13.884488
21
51.790994
31
0.0
0
LINE
8
Layer 1
62
4
5
1fc
100
AcDbEntity
100
AcDbLine
10
13.884488
20
51.790994
30
0.0
11
13.145568
21
50.694900
31
0.0
0
LINE
8
Layer 1
62
4
5
1fd
100
AcDbEntity
100
AcDbLine
10
13.145568
20
50.694900
30
0.0
11
12.049473
21
49.955980
31
0.0
0
LINE
8
Layer 1
62
4
5
1fe
100
AcDbEntity
100
AcDbLine
10
12.049473
20
49.955980
30
0.0
11
10.707018
21
49.685048
31
0.0
0
LINE
8
Layer 1
62
4
5
1ff
100
AcDbEntity
100
AcDbLine
10
10.707018
20
49.685048
30
0.0
11
9.364561
21
49.955980
31
0.0
0
LINE
8
Layer 1
62
4
5
200
100
AcDbEntity
100
AcDbLine
10
9.364561
20
49.955980
30
0.0
11
8.268467
21
50.694900
31
0.0
0
LINE
8
Layer 1
62
4
5
201
100
AcDbEntity
100
AcDbLine
10
8.268467
20
50.694900
30
0.0
11
7.529547
21
51.790994
31
0.0
0
LINE
8
Layer 1
62
4
5
202
100
AcDbEntity
100
AcDbLine
10
7.529547
20
51.790994
30
0.0
11
7.258615
21
53.133451
31
0.0
0
LINE
8
Layer 1
62
4
5
203
100
AcDbEntity
100
AcDbLine
10
7.258615
20
53.133451
30
0.0
11
7.529547
21
54.475907
31
0.0
0
LINE
8
Layer 1
62
4
5
204
100
AcDbEntity
100
AcDbLine
10
7.529547
20
54.475907
30
0.0
11
8.268467
21
55.572002
31
0.0
0
LINE
8
Layer 1
62
4
5
205
100
AcDbEntity
100
AcDbLine
10
8.268467
20
55.572002
30
0.0
11
9.364561
21
56.310922
31
0.0
0
LINE
8
Layer 1
62
4
5
206
100
AcDbEntity
100
AcDbLine
10
9.364561
20
56.310922
30
0.0
11
10.707018
21
56.581853
31
0.0
0
LINE
8
Layer 1
62
4
5
207
100
AcDbEntity
100
AcDbLine
10
10.707018
20
56.581853
30
0.0
11
10.707018
21
56.581853
31
0.0
0
LINE
8
Layer 1
62
4
5
208
100
AcDbEntity
100
AcDbLine
10
40.539891
20
40.630786
30
0.0
11
41.510154
21
40.534876
31
0.0
0
LINE
8
Layer 1
62
4
5
209
100
AcDbEntity
100
AcDbLine
10
41.510154
20
40.534876
30
0.0
11
42.434296
21
40.254131
31
0.0
0
LINE
8
Layer 1
62
4
5
20a
100
AcDbEntity
100
AcDbLine
10
42.434296
20
40.254131
30
0.0
11
43.286349
21
39.799306
31
0.0
0
LINE
8
Layer 1
62
4
5
20b
100
AcDbEntity
100
AcDbLine
10
43.286349
20
39.799306
30
0.0
11
44.040339
21
39.181158
31
0.0
0
LINE
8
Layer 1
62
4
5
20c
100
AcDbEntity
100
AcDbLine
10
44.040339
20
39.181158
30
0.0
11
44.658570
21
38.427236
31
0.0
0
LINE
8
Layer 1
62
4
5
20d
100
AcDbEntity
100
AcDbLine
10
44.658570
20
38.427236
30
0.0
11
45.113489
21
37.575235
31
0.0
0
LINE
8
Layer 1
62
4
5
20e
100
AcDbEntity
100
AcDbLine
10
45.113489
20
37.575235
30
0.0
11
45.394336
21
36.651123
31
0.0
0
LINE
8
Layer 1
62
4
5
20f
100
AcDbEntity
100
AcDbLine
10
45.394336
20
36.651123
30
0.0
11
45.490354
21
35.680871
31
0.0
0
LINE
8
Layer 1
62
4
5
210
100
AcDbEntity
100
AcDbLine
10
45.490354
20
35.680871
30
0.0
11
45.394336
21
34.710619
31
0.0
0
LINE
8
Layer 1
62
4
5
211
100
AcDbEntity
100
AcDbLine
10
45.394336
20
34.710619
30
0.0
11
45.113488
21
33.786508
31
0.0
0
LINE
8
Layer 1
62
4
5
212
100
AcDbEntity
100
AcDbLine
10
45.113488
20
33.786508
30
0.0
11
44.658569
21
32.934507
31
0.0
0
LINE
8
Layer 1
62
4
5
213
100
AcDbEntity
100
AcDbLine
10
44.658569
20
32.934507
30
0.0
11
44.040338
21
32.180585
31
0.0
0
LINE
8
Layer 1
62
4
5
214
100
AcDbEntity
100
AcDbLine
10
44.040338
20
32.180585
30
0.0
11
43.286348
21
31.562437
31
0.0
0
LINE
8
Layer 1
62
4
5
215
100
AcDbEntity
100
AcDbLine
10
43.286348
20
31.562437
30
0.0
11
42.434296
21
31.107614
31
0.0
0
LINE
8
Layer 1
62
4
5
216
100
AcDbEntity
100
AcDbLine
10
42.434296
20
31.107614
30
0.0
11
41.510153
21
30.826869
31
0.0
0
LINE
8
Layer 1
62
4
5
217
100
AcDbEntity
100
AcDbLine
10
41.510153
20
30.826869
30
0.0
11
40.539891
21
30.730958
31
0.0
0
LINE
8
Layer 1
62
4
5
218
100
AcDbEntity
100
AcDbLine
10
40.539891
20
30.730958
30
0.0
11
39.542319
21
30.831538
31
0.0
0
LINE
8
Layer 1
62
4
5
219
100
AcDbEntity
100
AcDbLine
10
39.542319
20
30.831538
30
0.0
11
38.613177
21
31.119970
31
0.0
0
LINE
8
Layer 1
62
4
5
21a
100
AcDbEntity
100
AcDbLine
10
38.613177
20
31.119970
30
0.0
11
37.772369
21
31.576352
31
0.0
0
LINE
8
Layer 1
62
4
5
21b
100
AcDbEntity
100
AcDbLine
10
37.772369
20
31.576352
30
0.0
11
37.039800
21
32.180780
31
0.0
0
LINE
8
Layer 1
62
4
5
21c
100
AcDbEntity
100
AcDbLine
10
37.039800
20
32.180780
30
0.0
11
36.435372
21
32.913349
31
0.0
0
LINE
8
Layer 1
62
4
5
21d
100
AcDbEntity
100
AcDbLine
10
36.435372
20
32.913349
30
0.0
11
35.978990
21
33.754157
31
0.0
0
LINE
8
Layer 1
62
4
5
21e
100
AcDbEntity
100
AcDbLine
10
35.978990
20
33.754157
30
0.0
11
35.690558
21
34.683299
31
0.0
0
LINE
8
Layer 1
62
4
5
21f
100
AcDbEntity
100
AcDbLine
10
35.690558
20
34.683299
30
0.0
11
35.589978
21
35.680871
31
0.0
0
LINE
8
Layer 1
62
4
5
220
100
AcDbEntity
100
AcDbLine
10
35.589978
20
35.680871
30
0.0
11
35.690557
21
36.678444
31
0.0
0
LINE
8
Layer 1
62
4
5
221
100
AcDbEntity
100
AcDbLine
10
35.690557
20
36.678444
30
0.0
11
35.978990
21
37.607586
31
0.0
0
LINE
8
Layer 1
62
4
5
222
100
AcDbEntity
100
AcDbLine
10
35.978990
20
37.607586
30
0.0
11
36.435371
21
38.448394
31
0.0
0
LINE
8
Layer 1
62
4
5
223
100
AcDbEntity
100
AcDbLine
10
36.435371
20
38.448394
30
0.0
11
37.039799
21
39.180964
31
0.0
0
LINE
8
Layer 1
62
4
5
224
100
AcDbEntity
100
AcDbLine
10
37.039799
20
39.180964
30
0.0
11
37.772369
21
39.785392
31
0.0
0
LINE
8
Layer 1
62
4
5
225
100
AcDbEntity
100
AcDbLine
10
37.772369
20
39.785392
30
0.0
11
38.613176
21
40.241774
31
0.0
0
LINE
8
Layer 1
62
4
5
226
100
AcDbEntity
100
AcDbLine
10
38.613176
20
40.241774
30
0.0
11
39.542318
21
40.530207
31
0.0
0
LINE
8
Layer 1
62
4
5
227
100
AcDbEntity
100
AcDbLine
10
39.542318
20
40.530207
30
0.0
11
40.539891
21
40.630786
31
0.0
0
LINE
8
Layer 1
62
4
5
228
100
AcDbEntity
100
AcDbLine
10
40.539891
20
40.630786
30
0.0
11
40.539891
21
40.630786
31
0.0
0
LINE
8
Layer 1
62
4
5
229
100
AcDbEntity
100
AcDbLine
10
10.327781
20
39.189909
30
0.0
11
11.670237
21
38.918977
31
0.0
0
LINE
8
Layer 1
62
4
5
22a
100
AcDbEntity
100
AcDbLine
10
11.670237
20
38.918977
30
0.0
11
12.766332
21
38.180057
31
0.0
0
LINE
8
Layer 1
62
4
5
22b
100
AcDbEntity
100
AcDbLine
10
12.766332
20
38.180057
30
0.0
11
13.505252
21
37.083963
31
0.0
0
LINE
8
Layer 1
62
4
5
22c
100
AcDbEntity
100
AcDbLine
10
13.505252
20
37.083963
30
0.0
11
13.776184
21
35.741506
31
0.0
0
LINE
8
Layer 1
62
4
5
22d
100
AcDbEntity
100
AcDbLine
10
13.776184
20
35.741506
30
0.0
11
13.505252
21
34.399050
31
0.0
0
LINE
8
Layer 1
62
4
5
22e
100
AcDbEntity
100
AcDbLine
10
13.505252
20
34.399050
30
0.0
11
12.766332
21
33.302955
31
0.0
0
LINE
8
Layer 1
62
4
5
22f
100
AcDbEntity
100
AcDbLine
10
12.766332
20
33.302955
30
0.0
11
11.670237
21
32.564035
31
0.0
0
LINE
8
Layer 1
62
4
5
230
100
AcDbEntity
100
AcDbLine
10
11.670237
20
32.564035
30
0.0
11
10.327781
21
32.293103
31
0.0
0
LINE
8
Layer 1
62
4
5
231
100
AcDbEntity
100
AcDbLine
10
10.327781
20
32.293103
30
0.0
11
8.985325
21
32.564035
31
0.0
0
LINE
8
Layer 1
62
4
5
232
100
AcDbEntity
100
AcDbLine
10
8.985325
20
32.564035
30
0.0
11
7.889231
21
33.302955
31
0.0
0
LINE
8
Layer 1
62
4
5
233
100
AcDbEntity
100
AcDbLine
10
7.889231
20
33.302955
30
0.0
11
7.150310
21
34.399050
31
0.0
0
LINE
8
Layer 1
62
4
5
234
100
AcDbEntity
100
AcDbLine
10
7.150310
20
34.399050
30
0.0
11
6.879379
21
35.741506
31
0.0
0
LINE
8
Layer 1
62
4
5
235
100
AcDbEntity
100
AcDbLine
10
6.879379
20
35.741506
30
0.0
11
7.150310
21
37.083963
31
0.0
0
LINE
8
Layer 1
62
4
5
236
100
AcDbEntity
100
AcDbLine
10
7.150310
20
37.083963
30
0.0
11
7.889230
21
38.180057
31
0.0
0
LINE
8
Layer 1
62
4
5
237
100
AcDbEntity
100
AcDbLine
10
7.889230
20
38.180057
30
0.0
11
8.985325
21
38.918977
31
0.0
0
LINE
8
Layer 1
62
4
5
238
100
AcDbEntity
100
AcDbLine
10
8.985325
20
38.918977
30
0.0
11
10.327781
21
39.189909
31
0.0
0
LINE
8
Layer 1
62
4
5
239
100
AcDbEntity
100
AcDbLine
10
10.327781
20
39.189909
30
0.0
11
10.327781
21
39.189909
31
0.0
0
LINE
8
Layer 1
62
4
5
23a
100
AcDbEntity
100
AcDbLine
10
31.510984
20
23.480825
30
0.0
11
31.486177
21
11.900880
31
0.0
0
LINE
8
Layer 1
62
4
5
23b
100
AcDbEntity
100
AcDbLine
10
31.486177
20
11.900880
30
0.0
11
18.545847
21
11.900880
31
0.0
0
LINE
8
Layer 1
62
4
5
23c
100
AcDbEntity
100
AcDbLine
10
18.545847
20
11.900880
30
0.0
11
18.545847
21
23.468698
31
0.0
0
LINE
8
Layer 1
62
4
5
23d
100
AcDbEntity
100
AcDbLine
10
18.545847
20
23.468698
30
0.0
11
31.510981
21
23.480833
31
0.0
0
LINE
8
Layer 1
62
4
5
23e
100
AcDbEntity
100
AcDbLine
10
31.510981
20
23.480833
30
0.0
11
31.510984
21
23.480825
31
0.0
0
LINE
8
Layer 1
62
4
5
23f
100
AcDbEntity
100
AcDbLine
10
40.539891
20
22.952759
30
0.0
11
41.510222
21
22.856835
31
0.0
0
LINE
8
Layer 1
62
4
5
240
100
AcDbEntity
100
AcDbLine
10
41.510222
20
22.856835
30
0.0
11
42.434423
21
22.576051
31
0.0
0
LINE
8
Layer 1
62
4
5
241
100
AcDbEntity
100
AcDbLine
10
42.434423
20
22.576051
30
0.0
11
43.286519
21
22.121166
31
0.0
0
LINE
8
Layer 1
62
4
5
242
100
AcDbEntity
100
AcDbLine
10
43.286519
20
22.121166
30
0.0
11
44.040532
21
21.502937
31
0.0
0
LINE
8
Layer 1
62
4
5
243
100
AcDbEntity
100
AcDbLine
10
44.040532
20
21.502937
30
0.0
11
44.658761
21
20.748924
31
0.0
0
LINE
8
Layer 1
62
4
5
244
100
AcDbEntity
100
AcDbLine
10
44.658761
20
20.748924
30
0.0
11
45.113646
21
19.896828
31
0.0
0
LINE
8
Layer 1
62
4
5
245
100
AcDbEntity
100
AcDbLine
10
45.113646
20
19.896828
30
0.0
11
45.394430
21
18.972626
31
0.0
0
LINE
8
Layer 1
62
4
5
246
100
AcDbEntity
100
AcDbLine
10
45.394430
20
18.972626
30
0.0
11
45.490354
21
18.002296
31
0.0
0
LINE
8
Layer 1
62
4
5
247
100
AcDbEntity
100
AcDbLine
10
45.490354
20
18.002296
30
0.0
11
45.394337
21
17.032043
31
0.0
0
LINE
8
Layer 1
62
4
5
248
100
AcDbEntity
100
AcDbLine
10
45.394337
20
17.032043
30
0.0
11
45.113490
21
16.107930
31
0.0
0
LINE
8
Layer 1
62
4
5
249
100
AcDbEntity
100
AcDbLine
10
45.113490
20
16.107930
30
0.0
11
44.658572
21
15.255927
31
0.0
0
LINE
8
Layer 1
62
4
5
24a
100
AcDbEntity
100
AcDbLine
10
44.658572
20
15.255927
30
0.0
11
44.040341
21
14.502005
31
0.0
0
LINE
8
Layer 1
62
4
5
24b
100
AcDbEntity
100
AcDbLine
10
44.040341
20
14.502005
30
0.0
11
43.286350
21
13.883856
31
0.0
0
LINE
8
Layer 1
62
4
5
24c
100
AcDbEntity
100
AcDbLine
10
43.286350
20
13.883856
30
0.0
11
42.434298
21
13.429031
31
0.0
0
LINE
8
Layer 1
62
4
5
24d
100
AcDbEntity
100
AcDbLine
10
42.434298
20
13.429031
30
0.0
11
41.510154
21
13.148285
31
0.0
0
LINE
8
Layer 1
62
4
5
24e
100
AcDbEntity
100
AcDbLine
10
41.510154
20
13.148285
30
0.0
11
40.539891
21
13.052375
31
0.0
0
LINE
8
Layer 1
62
4
5
24f
100
AcDbEntity
100
AcDbLine
10
40.539891
20
13.052375
30
0.0
11
39.542318
21
13.152954
31
0.0
0
LINE
8
Layer 1
62
4
5
250
100
AcDbEntity
100
AcDbLine
10
39.542318
20
13.152954
30
0.0
11
38.613175
21
13.441388
31
0.0
0
LINE
8
Layer 1
62
4
5
251
100
AcDbEntity
100
AcDbLine
10
38.613175
20
13.441388
30
0.0
11
37.772367
21
13.897771
31
0.0
0
LINE
8
Layer 1
62
4
5
252
100
AcDbEntity
100
AcDbLine
10
37.772367
20
13.897771
30
0.0
11
37.039797
21
14.502199
31
0.0
0
LINE
8
Layer 1
62
4
5
253
100
AcDbEntity
100
AcDbLine
10
37.039797
20
14.502199
30
0.0
11
36.435369
21
15.234770
31
0.0
0
LINE
8
Layer 1
62
4
5
254
100
AcDbEntity
100
AcDbLine
10
36.435369
20
15.234770
30
0.0
11
35.978988
21
16.075579
31
0.0
0
LINE
8
Layer 1
62
4
5
255
100
AcDbEntity
100
AcDbLine
10
35.978988
20
16.075579
30
0.0
11
35.690556
21
17.004722
31
0.0
0
LINE
8
Layer 1
62
4
5
256
100
AcDbEntity
100
AcDbLine
10
35.690556
20
17.004722
30
0.0
11
35.589978
21
18.002296
31
0.0
0
LINE
8
Layer 1
62
4
5
257
100
AcDbEntity
100
AcDbLine
10
35.589978
20
18.002296
30
0.0
11
35.685889
21
18.972558
31
0.0
0
LINE
8
Layer 1
62
4
5
258
100
AcDbEntity
100
AcDbLine
10
35.685889
20
18.972558
30
0.0
11
35.966634
21
19.896701
31
0.0
0
LINE
8
Layer 1
62
4
5
259
100
AcDbEntity
100
AcDbLine
10
35.966634
20
19.896701
30
0.0
11
36.421458
21
20.748753
31
0.0
0
LINE
8
Layer 1
62
4
5
25a
100
AcDbEntity
100
AcDbLine
10
36.421458
20
20.748753
30
0.0
11
37.039605
21
21.502743
31
0.0
0
LINE
8
Layer 1
62
4
5
25b
100
AcDbEntity
100
AcDbLine
10
37.039605
20
21.502743
30
0.0
11
37.793527
21
22.120974
31
0.0
0
LINE
8
Layer 1
62
4
5
25c
100
AcDbEntity
100
AcDbLine
10
37.793527
20
22.120974
30
0.0
11
38.645528
21
22.575893
31
0.0
0
LINE
8
Layer 1
62
4
5
25d
100
AcDbEntity
100
AcDbLine
10
38.645528
20
22.575893
30
0.0
11
39.569639
21
22.856740
31
0.0
0
LINE
8
Layer 1
62
4
5
25e
100
AcDbEntity
100
AcDbLine
10
39.569639
20
22.856740
30
0.0
11
40.539891
21
22.952759
31
0.0
0
LINE
8
Layer 1
62
4
5
25f
100
AcDbEntity
100
AcDbLine
10
40.539891
20
22.952759
30
0.0
11
40.539891
21
22.952759
31
0.0
0
LINE
8
Layer 1
62
4
5
260
100
AcDbEntity
100
AcDbLine
10
10.504170
20
21.215881
30
0.0
11
11.846626
21
20.944939
31
0.0
0
LINE
8
Layer 1
62
4
5
261
100
AcDbEntity
100
AcDbLine
10
11.846626
20
20.944939
30
0.0
11
12.942721
21
20.206002
31
0.0
0
LINE
8
Layer 1
62
4
5
262
100
AcDbEntity
100
AcDbLine
10
12.942721
20
20.206002
30
0.0
11
13.681641
21
19.109904
31
0.0
0
LINE
8
Layer 1
62
4
5
263
100
AcDbEntity
100
AcDbLine
10
13.681641
20
19.109904
30
0.0
11
13.952573
21
17.767478
31
0.0
0
LINE
8
Layer 1
62
4
5
264
100
AcDbEntity
100
AcDbLine
10
13.952573
20
17.767478
30
0.0
11
13.681641
21
16.423617
31
0.0
0
LINE
8
Layer 1
62
4
5
265
100
AcDbEntity
100
AcDbLine
10
13.681641
20
16.423617
30
0.0
11
12.942721
21
15.324498
31
0.0
0
LINE
8
Layer 1
62
4
5
266
100
AcDbEntity
100
AcDbLine
10
12.942721
20
15.324498
30
0.0
11
11.846626
21
14.582566
31
0.0
0
LINE
8
Layer 1
62
4
5
267
100
AcDbEntity
100
AcDbLine
10
11.846626
20
14.582566
30
0.0
11
10.504170
21
14.310268
31
0.0
0
LINE
8
Layer 1
62
4
5
268
100
AcDbEntity
100
AcDbLine
10
10.504170
20
14.310268
30
0.0
11
9.160336
21
14.582566
31
0.0
0
LINE
8
Layer 1
62
4
5
269
100
AcDbEntity
100
AcDbLine
10
9.160336
20
14.582566
30
0.0
11
8.061210
21
15.324498
31
0.0
0
LINE
8
Layer 1
62
4
5
26a
100
AcDbEntity
100
AcDbLine
10
8.061210
20
15.324498
30
0.0
11
7.319258
21
16.423617
31
0.0
0
LINE
8
Layer 1
62
4
5
26b
100
AcDbEntity
100
AcDbLine
10
7.319258
20
16.423617
30
0.0
11
7.046948
21
17.767478
31
0.0
0
LINE
8
Layer 1
62
4
5
26c
100
AcDbEntity
100
AcDbLine
10
7.046948
20
17.767478
30
0.0
11
7.319258
21
19.109904
31
0.0
0
LINE
8
Layer 1
62
4
5
26d
100
AcDbEntity
100
AcDbLine
10
7.319258
20
19.109904
30
0.0
11
8.061210
21
20.206002
31
0.0
0
LINE
8
Layer 1
62
4
5
26e
100
AcDbEntity
100
AcDbLine
10
8.061210
20
20.206002
30
0.0
11
9.160336
21
20.944939
31
0.0
0
LINE
8
Layer 1
62
4
5
26f
100
AcDbEntity
100
AcDbLine
10
9.160336
20
20.944939
30
0.0
11
10.504170
21
21.215881
31
0.0
0
LINE
8
Layer 1
62
4
5
270
100
AcDbEntity
100
AcDbLine
10
10.504170
20
21.215881
30
0.0
11
10.504170
21
21.215881
31
0.0
0
LINE
8
Layer 1
62
4
5
271
100
AcDbEntity
100
AcDbLine
10
7.300507
20
4.566432
30
0.0
11
11.059795
21
4.566432
31
0.0
0
LINE
8
Layer 1
62
4
5
272
100
AcDbEntity
100
AcDbLine
10
11.059795
20
4.566432
30
0.0
11
11.651510
21
4.446368
31
0.0
0
LINE
8
Layer 1
62
4
5
273
100
AcDbEntity
100
AcDbLine
10
11.651510
20
4.446368
30
0.0
11
12.136336
21
4.119251
31
0.0
0
LINE
8
Layer 1
62
4
5
274
100
AcDbEntity
100
AcDbLine
10
12.136336
20
4.119251
30
0.0
11
12.464057
21
3.634697
31
0.0
0
LINE
8
Layer 1
62
4
5
275
100
AcDbEntity
100
AcDbLine
10
12.464057
20
3.634697
30
0.0
11
12.584457
21
3.042320
31
0.0
0
LINE
8
Layer 1
62
4
5
276
100
AcDbEntity
100
AcDbLine
10
12.584457
20
3.042320
30
0.0
11
12.584457
21
2.890738
31
0.0
0
LINE
8
Layer 1
62
4
5
277
100
AcDbEntity
100
AcDbLine
10
12.584457
20
2.890738
30
0.0
11
12.464060
21
2.298551
31
0.0
0
LINE
8
Layer 1
62
4
5
278
100
AcDbEntity
100
AcDbLine
10
12.464060
20
2.298551
30
0.0
11
12.136345
21
1.813976
31
0.0
0
LINE
8
Layer 1
62
4
5
279
100
AcDbEntity
100
AcDbLine
10
12.136345
20
1.813976
30
0.0
11
11.651520
21
1.486753
31
0.0
0
LINE
8
Layer 1
62
4
5
27a
100
AcDbEntity
100
AcDbLine
10
11.651520
20
1.486753
30
0.0
11
11.059795
21
1.366625
31
0.0
0
LINE
8
Layer 1
62
4
5
27b
100
AcDbEntity
100
AcDbLine
10
11.059795
20
1.366625
30
0.0
11
7.300507
21
1.366625
31
0.0
0
LINE
8
Layer 1
62
4
5
27c
100
AcDbEntity
100
AcDbLine
10
7.300507
20
1.366625
30
0.0
11
6.708917
21
1.486793
31
0.0
0
LINE
8
Layer 1
62
4
5
27d
100
AcDbEntity
100
AcDbLine
10
6.708917
20
1.486793
30
0.0
11
6.224276
21
1.814081
31
0.0
0
LINE
8
Layer 1
62
4
5
27e
100
AcDbEntity
100
AcDbLine
10
6.224276
20
1.814081
30
0.0
11
5.896723
21
2.298670
31
0.0
0
LINE
8
Layer 1
62
4
5
27f
100
AcDbEntity
100
AcDbLine
10
5.896723
20
2.298670
30
0.0
11
5.776397
21
2.890738
31
0.0
0
LINE
8
Layer 1
62
4
5
280
100
AcDbEntity
100
AcDbLine
10
5.776397
20
2.890738
30
0.0
11
5.776397
21
3.042320
31
0.0
0
LINE
8
Layer 1
62
4
5
281
100
AcDbEntity
100
AcDbLine
10
5.776397
20
3.042320
30
0.0
11
5.896723
21
3.634542
31
0.0
0
LINE
8
Layer 1
62
4
5
282
100
AcDbEntity
100
AcDbLine
10
5.896723
20
3.634542
30
0.0
11
6.224276
21
4.119114
31
0.0
0
LINE
8
Layer 1
62
4
5
283
100
AcDbEntity
100
AcDbLine
10
6.224276
20
4.119114
30
0.0
11
6.708917
21
4.446316
31
0.0
0
LINE
8
Layer 1
62
4
5
284
100
AcDbEntity
100
AcDbLine
10
6.708917
20
4.446316
30
0.0
11
7.300507
21
4.566432
31
0.0
0
LINE
8
Layer 1
62
4
5
285
100
AcDbEntity
100
AcDbLine
10
7.300507
20
4.566432
30
0.0
11
7.300507
21
4.566432
31
0.0
  0
ENDSEC
  0
SECTION
  2
OBJECTS
  0
DICTIONARY
  5
C
330
0
100
AcDbDictionary
  3
ACAD_GROUP
350
D
  3
ACAD_MLINESTYLE
350
17
  0
DICTIONARY
  5
D
330
C
100
AcDbDictionary
  0
DICTIONARY
  5
1A
330
C
100
AcDbDictionary
  0
DICTIONARY
  5
17
330
C
100
AcDbDictionary
  3
STANDARD
350
18
  0
DICTIONARY
  5
19
330
C
100
AcDbDictionary
  0
ENDSEC
  0
EOF
