999
Inkscape export via OpenSCAD DXF Export
  0
SECTION
  2
HEADER
  9
$ACADVER
  1
AC1014
  9
$HANDSEED
  5
FFFF
  9
$MEASUREMENT
 70
     1
  0
ENDSEC
  0
SECTION
  2
TABLES
  0
TABLE
  2
VPORT
  5
8
330
0
100
AcDbSymbolTable
 70
     4
  0
VPORT
  5
2E
330
8
100
AcDbSymbolTableRecord
100
AcDbViewportTableRecord
  2
*ACTIVE
 70
     0
 10
0.0
 20
0.0
 11
1.0
 21
1.0
 12
210.0
 22
148.5
 13
0.0
 23
0.0
 14
10.0
 24
10.0
 15
10.0
 25
10.0
 16
0.0
 26
0.0
 36
1.0
 17
0.0
 27
0.0
 37
0.0
 40
341.0
 41
1.24
 42
50.0
 43
0.0
 44
0.0
 50
0.0
 51
0.0
 71
     0
 72
   100
 73
     1
 74
     3
 75
     0
 76
     0
 77
     0
 78
     0
  0
ENDTAB
  0
TABLE
  2
LTYPE
  5
5
330
0
100
AcDbSymbolTable
 70
     1
  0
LTYPE
  5
14
330
5
100
AcDbSymbolTableRecord
100
AcDbLinetypeTableRecord
  2
BYBLOCK
 70
     0
  3

 72
    65
 73
     0
 40
0.0
  0
LTYPE
  5
15
330
5
100
AcDbSymbolTableRecord
100
AcDbLinetypeTableRecord
  2
BYLAYER
 70
     0
  3

 72
    65
 73
     0
 40
0.0
  0
LTYPE
  5
16
330
5
100
AcDbSymbolTableRecord
100
AcDbLinetypeTableRecord
  2
CONTINUOUS
 70
     0
  3
Solid line
 72
    65
 73
     0
 40
0.0
  0
ENDTAB
  0
TABLE
0
TABLE
2
LAYER
5
2
330
0
100
AcDbSymbolTable
70
1
0
LAYER
5
10
330
2
100
AcDbSymbolTableRecord
100
AcDbLayerTableRecord
2
Layer_1
70
0
62
7
6
CONTINUOUS
0
ENDTAB
0
ENDSEC
  0
ENDTAB
  0
TABLE
  2
STYLE
  5
3
330
0
100
AcDbSymbolTable
 70
     1
  0
STYLE
  5
11
330
3
100
AcDbSymbolTableRecord
100
AcDbTextStyleTableRecord
  2
STANDARD
 70
     0
 40
0.0
 41
1.0
 50
0.0
 71
     0
 42
2.5
  3
txt
  4

  0
ENDTAB
  0
TABLE
  2
VIEW
  5
6
330
0
100
AcDbSymbolTable
 70
     0
  0
ENDTAB
  0
TABLE
  2
UCS
  5
7
330
0
100
AcDbSymbolTable
 70
     0
  0
ENDTAB
  0
TABLE
  2
APPID
  5
9
330
0
100
AcDbSymbolTable
 70
     2
  0
APPID
  5
12
330
9
100
AcDbSymbolTableRecord
100
AcDbRegAppTableRecord
  2
ACAD
 70
     0
  0
ENDTAB
  0
TABLE
  2
DIMSTYLE
  5
A
330
0
100
AcDbSymbolTable
 70
     1
  0
DIMSTYLE
105
27
330
A
100
AcDbSymbolTableRecord
100
AcDbDimStyleTableRecord
  2
ISO-25
 70
     0
  3

  4

  5

  6

  7

 40
1.0
 41
2.5
 42
0.625
 43
3.75
 44
1.25
 45
0.0
 46
0.0
 47
0.0
 48
0.0
140
2.5
141
2.5
142
0.0
143
0.03937007874016
144
1.0
145
0.0
146
1.0
147
0.625
 71
     0
 72
     0
 73
     0
 74
     0
 75
     0
 76
     0
 77
     1
 78
     8
170
     0
171
     3
172
     1
173
     0
174
     0
175
     0
176
     0
177
     0
178
     0
270
     2
271
     2
272
     2
273
     2
274
     3
340
11
275
     0
280
     0
281
     0
282
     0
283
     0
284
     8
285
     0
286
     0
287
     3
288
     0
  0
ENDTAB
  0
TABLE
  2
BLOCK_RECORD
  5
1
330
0
100
AcDbSymbolTable
 70
     1
  0
BLOCK_RECORD
  5
1F
330
1
100
AcDbSymbolTableRecord
100
AcDbBlockTableRecord
  2
*MODEL_SPACE
  0
BLOCK_RECORD
  5
1B
330
1
100
AcDbSymbolTableRecord
100
AcDbBlockTableRecord
  2
*PAPER_SPACE
  0
ENDTAB
  0
ENDSEC
  0
SECTION
  2
BLOCKS
  0
BLOCK
  5
20
330
1F
100
AcDbEntity
  8
0
100
AcDbBlockBegin
  2
*MODEL_SPACE
 70
     0
 10
0.0
 20
0.0
 30
0.0
  3
*MODEL_SPACE
  1

  0
ENDBLK
  5
21
330
1F
100
AcDbEntity
  8
0
100
AcDbBlockEnd
  0
BLOCK
  5
1C
330
1B
100
AcDbEntity
 67
     1
  8
0
100
AcDbBlockBegin
  2
*PAPER_SPACE
  1

  0
ENDBLK
  5
1D
330
1B
100
AcDbEntity
 67
     1
  8
0
100
AcDbBlockEnd
  0
ENDSEC
  0
SECTION
  2
ENTITIES
0
DIMENSION
5
83
100
AcDbEntity
62
256
370
-1
6
ByLayer
1
total_width
3
Standard
70
0
71
5
72
1
41
1.0
100
AcDbAlignedDimension
13
0.052917
23
0.000000
33
0.0
14
50.747083
24
0.000000
34
0.0
50
0.000000
100
AcDbRotatedDimension
0
DIMENSION
5
83
100
AcDbEntity
62
256
370
-1
6
ByLayer
1
total_height
3
Standard
70
0
71
5
72
1
41
1.0
100
AcDbAlignedDimension
13
0.000000
23
0.049306
33
0.0
14
0.000000
24
128.442778
34
0.0
50
90.000000
100
AcDbRotatedDimension
0
DIMENSION
8
Layer_1
5
83
100
AcDbEntity
62
256
370
-1
6
ByLayer
1
Layer_1_width
3
Standard
70
0
71
5
72
1
41
1.0
100
AcDbAlignedDimension
13
0.052917
23
0.000000
33
0.0
14
50.747083
24
0.000000
34
0.0
50
0.000000
100
AcDbRotatedDimension
0
DIMENSION
8
Layer_1
5
83
100
AcDbEntity
62
256
370
-1
6
ByLayer
1
Layer_1_height
3
Standard
70
0
71
5
72
1
41
1.0
100
AcDbAlignedDimension
13
0.000000
23
0.049306
33
0.0
14
0.000000
24
128.442778
34
0.0
50
90.000000
100
AcDbRotatedDimension
62
0
0
LWPOLYLINE
100
AcDbPolyline
8
Layer_1
90
5
70
0
10
0.052917
20
128.442778
30
0.0
10
0.052917
20
0.049306
30
0.0
10
50.747083
20
0.049306
30
0.0
10
50.747083
20
128.442778
30
0.0
10
0.052917
20
128.442778
30
0.0
62
0
0
LWPOLYLINE
100
AcDbPolyline
8
Layer_1
90
22
70
0
10
7.300295
20
127.116553
30
0.0
10
11.059583
20
127.116553
30
0.0
10
11.651299
20
126.996485
30
0.0
10
12.136125
20
126.669361
30
0.0
10
12.463846
20
126.184806
30
0.0
10
12.584245
20
125.592443
30
0.0
10
12.584245
20
125.440859
30
0.0
10
12.463849
20
124.848681
30
0.0
10
12.136133
20
124.364105
30
0.0
10
11.651308
20
124.036879
30
0.0
10
11.059583
20
123.916749
30
0.0
10
7.300295
20
123.916749
30
0.0
10
6.708705
20
124.036920
30
0.0
10
6.224064
20
124.364214
30
0.0
10
5.896511
20
124.848804
30
0.0
10
5.776185
20
125.440859
30
0.0
10
5.776185
20
125.592443
30
0.0
10
5.896511
20
126.184652
30
0.0
10
6.224064
20
126.669225
30
0.0
10
6.708705
20
126.996434
30
0.0
10
7.300295
20
127.116553
30
0.0
10
7.300295
20
127.116553
30
0.0
62
0
0
LWPOLYLINE
100
AcDbPolyline
8
Layer_1
90
5
70
0
10
18.732500
20
113.846597
30
0.0
10
31.900001
20
113.829015
30
0.0
10
31.900001
20
95.493342
30
0.0
10
18.785417
20
95.493342
30
0.0
10
18.732500
20
113.846597
30
0.0
62
0
0
LWPOLYLINE
100
AcDbPolyline
8
Layer_1
90
18
70
0
10
40.154931
20
113.149861
30
0.0
10
41.497387
20
112.878929
30
0.0
10
42.593482
20
112.140009
30
0.0
10
43.332401
20
111.043915
30
0.0
10
43.603333
20
109.701458
30
0.0
10
43.332401
20
108.359002
30
0.0
10
42.593482
20
107.262907
30
0.0
10
41.497387
20
106.523987
30
0.0
10
40.154931
20
106.253056
30
0.0
10
38.812474
20
106.523987
30
0.0
10
37.716380
20
107.262907
30
0.0
10
36.977460
20
108.359002
30
0.0
10
36.706528
20
109.701458
30
0.0
10
36.977460
20
111.043915
30
0.0
10
37.716380
20
112.140009
30
0.0
10
38.812474
20
112.878929
30
0.0
10
40.154931
20
113.149861
30
0.0
10
40.154931
20
113.149861
30
0.0
62
0
0
LWPOLYLINE
100
AcDbPolyline
8
Layer_1
90
18
70
0
10
10.362847
20
113.114583
30
0.0
10
11.706681
20
112.843651
30
0.0
10
12.805808
20
112.104732
30
0.0
10
13.547760
20
111.008637
30
0.0
10
13.820069
20
109.666181
30
0.0
10
13.547760
20
108.323724
30
0.0
10
12.805808
20
107.227630
30
0.0
10
11.706681
20
106.488710
30
0.0
10
10.362847
20
106.217778
30
0.0
10
9.020391
20
106.488710
30
0.0
10
7.924296
20
107.227630
30
0.0
10
7.185376
20
108.323724
30
0.0
10
6.914444
20
109.666181
30
0.0
10
7.185376
20
111.008637
30
0.0
10
7.924296
20
112.104732
30
0.0
10
9.020391
20
112.843651
30
0.0
10
10.362847
20
113.114583
30
0.0
10
10.362847
20
113.114583
30
0.0
62
0
0
LWPOLYLINE
100
AcDbPolyline
8
Layer_1
90
18
70
0
10
10.354028
20
99.647292
30
0.0
10
11.504508
20
99.415261
30
0.0
10
12.443584
20
98.782335
30
0.0
10
13.076511
20
97.843258
30
0.0
10
13.308542
20
96.692778
30
0.0
10
13.076511
20
95.540920
30
0.0
10
12.443584
20
94.598811
30
0.0
10
11.504508
20
93.962853
30
0.0
10
10.354028
20
93.729444
30
0.0
10
9.203548
20
93.962853
30
0.0
10
8.264471
20
94.598811
30
0.0
10
7.631544
20
95.540920
30
0.0
10
7.399514
20
96.692778
30
0.0
10
7.631544
20
97.843258
30
0.0
10
8.264471
20
98.782335
30
0.0
10
9.203548
20
99.415261
30
0.0
10
10.354028
20
99.647292
30
0.0
10
10.354028
20
99.647292
30
0.0
62
0
0
LWPOLYLINE
100
AcDbPolyline
8
Layer_1
90
18
70
0
10
40.137292
20
99.497361
30
0.0
10
41.287772
20
99.265331
30
0.0
10
42.226848
20
98.632404
30
0.0
10
42.859775
20
97.693327
30
0.0
10
43.091806
20
96.542847
30
0.0
10
42.859775
20
95.390989
30
0.0
10
42.226848
20
94.448881
30
0.0
10
41.287772
20
93.812922
30
0.0
10
40.137292
20
93.579514
30
0.0
10
38.986812
20
93.812922
30
0.0
10
38.047735
20
94.448881
30
0.0
10
37.414808
20
95.390989
30
0.0
10
37.182778
20
96.542847
30
0.0
10
37.414808
20
97.693327
30
0.0
10
38.047735
20
98.632404
30
0.0
10
38.986812
20
99.265331
30
0.0
10
40.137292
20
99.497361
30
0.0
10
40.137292
20
99.497361
30
0.0
62
0
0
LWPOLYLINE
100
AcDbPolyline
8
Layer_1
90
35
70
0
10
25.038403
20
92.485903
30
0.0
10
25.347083
20
92.485903
30
0.0
10
26.538571
20
92.365940
30
0.0
10
27.648043
20
92.021842
30
0.0
10
28.651814
20
91.477296
30
0.0
10
29.526197
20
90.755989
30
0.0
10
30.247504
20
89.881606
30
0.0
10
30.792050
20
88.877835
30
0.0
10
31.136148
20
87.768363
30
0.0
10
31.256111
20
86.576875
30
0.0
10
31.136148
20
85.385387
30
0.0
10
30.792050
20
84.275915
30
0.0
10
30.247504
20
83.272144
30
0.0
10
29.526197
20
82.397761
30
0.0
10
28.651814
20
81.676454
30
0.0
10
27.648043
20
81.131908
30
0.0
10
26.538571
20
80.787810
30
0.0
10
25.347083
20
80.667847
30
0.0
10
24.155217
20
80.787810
30
0.0
10
23.044746
20
81.131908
30
0.0
10
22.039562
20
81.676454
30
0.0
10
21.163561
20
82.397761
30
0.0
10
20.440634
20
83.272144
30
0.0
10
19.894675
20
84.275915
30
0.0
10
19.549578
20
85.385387
30
0.0
10
19.429236
20
86.576875
30
0.0
10
19.542114
20
87.732567
30
0.0
10
19.866329
20
88.812512
30
0.0
10
20.380250
20
89.795002
30
0.0
10
21.062248
20
90.658332
30
0.0
10
21.890692
20
91.380793
30
0.0
10
22.843952
20
91.940680
30
0.0
10
23.900399
20
92.316286
30
0.0
10
25.038403
20
92.485903
30
0.0
10
25.038403
20
92.485903
30
0.0
62
0
0
LWPOLYLINE
100
AcDbPolyline
8
Layer_1
90
34
70
0
10
40.631181
20
77.431111
30
0.0
10
41.822668
20
77.310769
30
0.0
10
42.932141
20
76.965672
30
0.0
10
43.935912
20
76.419714
30
0.0
10
44.810294
20
75.696787
30
0.0
10
45.531602
20
74.820785
30
0.0
10
46.076148
20
73.815602
30
0.0
10
46.420245
20
72.705130
30
0.0
10
46.540208
20
71.513264
30
0.0
10
46.420245
20
70.321776
30
0.0
10
46.076148
20
69.212304
30
0.0
10
45.531602
20
68.208533
30
0.0
10
44.810294
20
67.334150
30
0.0
10
43.935912
20
66.612843
30
0.0
10
42.932141
20
66.068297
30
0.0
10
41.822668
20
65.724199
30
0.0
10
40.631181
20
65.604236
30
0.0
10
39.439314
20
65.724199
30
0.0
10
38.328842
20
66.068297
30
0.0
10
37.323659
20
66.612843
30
0.0
10
36.447657
20
67.334150
30
0.0
10
35.724731
20
68.208533
30
0.0
10
35.178772
20
69.212304
30
0.0
10
34.833675
20
70.321776
30
0.0
10
34.713333
20
71.513264
30
0.0
10
34.833675
20
72.705130
30
0.0
10
35.178772
20
73.815602
30
0.0
10
35.724731
20
74.820785
30
0.0
10
36.447657
20
75.696787
30
0.0
10
37.323659
20
76.419714
30
0.0
10
38.328842
20
76.965672
30
0.0
10
39.439314
20
77.310769
30
0.0
10
40.631181
20
77.431111
30
0.0
10
40.631181
20
77.431111
30
0.0
62
0
0
LWPOLYLINE
100
AcDbPolyline
8
Layer_1
90
18
70
0
10
10.257014
20
75.014583
30
0.0
10
11.599470
20
74.743651
30
0.0
10
12.695565
20
74.004732
30
0.0
10
13.434485
20
72.908637
30
0.0
10
13.705417
20
71.566181
30
0.0
10
13.434485
20
70.223724
30
0.0
10
12.695565
20
69.127630
30
0.0
10
11.599470
20
68.388710
30
0.0
10
10.257014
20
68.117778
30
0.0
10
8.914558
20
68.388710
30
0.0
10
7.818463
20
69.127630
30
0.0
10
7.079543
20
70.223724
30
0.0
10
6.808611
20
71.566181
30
0.0
10
7.079543
20
72.908637
30
0.0
10
7.818463
20
74.004732
30
0.0
10
8.914558
20
74.743651
30
0.0
10
10.257014
20
75.014583
30
0.0
10
10.257014
20
75.014583
30
0.0
62
0
0
LWPOLYLINE
100
AcDbPolyline
8
Layer_1
90
34
70
0
10
40.587083
20
59.651111
30
0.0
10
41.778571
20
59.530769
30
0.0
10
42.888043
20
59.185672
30
0.0
10
43.891814
20
58.639714
30
0.0
10
44.766197
20
57.916787
30
0.0
10
45.487504
20
57.040785
30
0.0
10
46.032050
20
56.035602
30
0.0
10
46.376148
20
54.925130
30
0.0
10
46.496111
20
53.733264
30
0.0
10
46.376148
20
52.541776
30
0.0
10
46.032050
20
51.432304
30
0.0
10
45.487504
20
50.428533
30
0.0
10
44.766197
20
49.554150
30
0.0
10
43.891814
20
48.832843
30
0.0
10
42.888043
20
48.288297
30
0.0
10
41.778571
20
47.944199
30
0.0
10
40.587083
20
47.824236
30
0.0
10
39.395217
20
47.944199
30
0.0
10
38.284745
20
48.288297
30
0.0
10
37.279562
20
48.832843
30
0.0
10
36.403560
20
49.554150
30
0.0
10
35.680633
20
50.428533
30
0.0
10
35.134675
20
51.432304
30
0.0
10
34.789578
20
52.541776
30
0.0
10
34.669236
20
53.733264
30
0.0
10
34.789578
20
54.925130
30
0.0
10
35.134675
20
56.035602
30
0.0
10
35.680633
20
57.040785
30
0.0
10
36.403560
20
57.916787
30
0.0
10
37.279562
20
58.639714
30
0.0
10
38.284745
20
59.185672
30
0.0
10
39.395217
20
59.530769
30
0.0
10
40.587083
20
59.651111
30
0.0
10
40.587083
20
59.651111
30
0.0
62
0
0
LWPOLYLINE
100
AcDbPolyline
8
Layer_1
90
18
70
0
10
10.706806
20
56.581944
30
0.0
10
12.049262
20
56.311013
30
0.0
10
13.145356
20
55.572093
30
0.0
10
13.884276
20
54.475998
30
0.0
10
14.155208
20
53.133542
30
0.0
10
13.884276
20
51.791085
30
0.0
10
13.145356
20
50.694991
30
0.0
10
12.049262
20
49.956071
30
0.0
10
10.706806
20
49.685139
30
0.0
10
9.364349
20
49.956071
30
0.0
10
8.268255
20
50.694991
30
0.0
10
7.529335
20
51.791085
30
0.0
10
7.258403
20
53.133542
30
0.0
10
7.529335
20
54.475998
30
0.0
10
8.268255
20
55.572093
30
0.0
10
9.364349
20
56.311013
30
0.0
10
10.706806
20
56.581944
30
0.0
10
10.706806
20
56.581944
30
0.0
62
0
0
LWPOLYLINE
100
AcDbPolyline
8
Layer_1
90
34
70
0
10
40.587083
20
41.571250
30
0.0
10
41.778571
20
41.450908
30
0.0
10
42.888043
20
41.105811
30
0.0
10
43.891814
20
40.559853
30
0.0
10
44.766197
20
39.836926
30
0.0
10
45.487504
20
38.960924
30
0.0
10
46.032050
20
37.955741
30
0.0
10
46.376148
20
36.845269
30
0.0
10
46.496111
20
35.653403
30
0.0
10
46.376148
20
34.461915
30
0.0
10
46.032050
20
33.352443
30
0.0
10
45.487504
20
32.348672
30
0.0
10
44.766197
20
31.474289
30
0.0
10
43.891814
20
30.752982
30
0.0
10
42.888043
20
30.208436
30
0.0
10
41.778571
20
29.864338
30
0.0
10
40.587083
20
29.744375
30
0.0
10
39.395217
20
29.864338
30
0.0
10
38.284745
20
30.208436
30
0.0
10
37.279562
20
30.752982
30
0.0
10
36.403560
20
31.474289
30
0.0
10
35.680633
20
32.348672
30
0.0
10
35.134675
20
33.352443
30
0.0
10
34.789578
20
34.461915
30
0.0
10
34.669236
20
35.653403
30
0.0
10
34.789578
20
36.845269
30
0.0
10
35.134675
20
37.955741
30
0.0
10
35.680633
20
38.960924
30
0.0
10
36.403560
20
39.836926
30
0.0
10
37.279562
20
40.559853
30
0.0
10
38.284745
20
41.105811
30
0.0
10
39.395217
20
41.450908
30
0.0
10
40.587083
20
41.571250
30
0.0
10
40.587083
20
41.571250
30
0.0
62
0
0
LWPOLYLINE
100
AcDbPolyline
8
Layer_1
90
18
70
0
10
10.327569
20
39.190000
30
0.0
10
11.670026
20
38.919068
30
0.0
10
12.766120
20
38.180148
30
0.0
10
13.505040
20
37.084053
30
0.0
10
13.775972
20
35.741597
30
0.0
10
13.505040
20
34.399141
30
0.0
10
12.766120
20
33.303046
30
0.0
10
11.670026
20
32.564126
30
0.0
10
10.327569
20
32.293194
30
0.0
10
8.985113
20
32.564126
30
0.0
10
7.889019
20
33.303046
30
0.0
10
7.150099
20
34.399141
30
0.0
10
6.879167
20
35.741597
30
0.0
10
7.150099
20
37.084053
30
0.0
10
7.889019
20
38.180148
30
0.0
10
8.985113
20
38.919068
30
0.0
10
10.327569
20
39.190000
30
0.0
10
10.327569
20
39.190000
30
0.0
62
0
0
LWPOLYLINE
100
AcDbPolyline
8
Layer_1
90
34
70
0
10
40.692917
20
23.826528
30
0.0
10
41.884404
20
23.706565
30
0.0
10
42.993877
20
23.362466
30
0.0
10
43.997648
20
22.817920
30
0.0
10
44.872030
20
22.096611
30
0.0
10
45.593338
20
21.222229
30
0.0
10
46.137884
20
20.218458
30
0.0
10
46.481981
20
19.108986
30
0.0
10
46.601944
20
17.917500
30
0.0
10
46.481981
20
16.725636
30
0.0
10
46.137884
20
15.615166
30
0.0
10
45.593338
20
14.609984
30
0.0
10
44.872030
20
13.733982
30
0.0
10
43.997648
20
13.011054
30
0.0
10
42.993877
20
12.465092
30
0.0
10
41.884404
20
12.119990
30
0.0
10
40.692917
20
11.999639
30
0.0
10
39.501429
20
12.119981
30
0.0
10
38.391957
20
12.465080
30
0.0
10
37.388186
20
13.011042
30
0.0
10
36.513803
20
13.733972
30
0.0
10
35.792496
20
14.609976
30
0.0
10
35.247950
20
15.615162
30
0.0
10
34.903852
20
16.725634
30
0.0
10
34.783889
20
17.917500
30
0.0
10
34.903852
20
19.108986
30
0.0
10
35.247950
20
20.218458
30
0.0
10
35.792496
20
21.222229
30
0.0
10
36.513803
20
22.096611
30
0.0
10
37.388186
20
22.817920
30
0.0
10
38.391957
20
23.362466
30
0.0
10
39.501429
20
23.706565
30
0.0
10
40.692917
20
23.826528
30
0.0
10
40.692917
20
23.826528
30
0.0
62
0
0
LWPOLYLINE
100
AcDbPolyline
8
Layer_1
90
5
70
0
10
18.545931
20
23.468583
30
0.0
10
31.510989
20
23.481057
30
0.0
10
31.486040
20
11.901143
30
0.0
10
18.545928
20
11.901143
30
0.0
10
18.545931
20
23.468583
30
0.0
62
0
0
LWPOLYLINE
100
AcDbPolyline
8
Layer_1
90
18
70
0
10
10.503958
20
21.215972
30
0.0
10
11.846414
20
20.945030
30
0.0
10
12.942509
20
20.206093
30
0.0
10
13.681429
20
19.109995
30
0.0
10
13.952361
20
17.767569
30
0.0
10
13.681429
20
16.423709
30
0.0
10
12.942509
20
15.324590
30
0.0
10
11.846414
20
14.582659
30
0.0
10
10.503958
20
14.310361
30
0.0
10
9.160124
20
14.582659
30
0.0
10
8.060998
20
15.324590
30
0.0
10
7.319046
20
16.423709
30
0.0
10
7.046736
20
17.767569
30
0.0
10
7.319046
20
19.109995
30
0.0
10
8.060998
20
20.206093
30
0.0
10
9.160124
20
20.945030
30
0.0
10
10.503958
20
21.215972
30
0.0
10
10.503958
20
21.215972
30
0.0
62
0
0
LWPOLYLINE
100
AcDbPolyline
8
Layer_1
90
22
70
0
10
7.300295
20
4.566526
30
0.0
10
11.059583
20
4.566526
30
0.0
10
11.651299
20
4.446462
30
0.0
10
12.136125
20
4.119345
30
0.0
10
12.463846
20
3.634791
30
0.0
10
12.584245
20
3.042413
30
0.0
10
12.584245
20
2.890832
30
0.0
10
12.463849
20
2.298645
30
0.0
10
12.136133
20
1.814069
30
0.0
10
11.651308
20
1.486847
30
0.0
10
11.059583
20
1.366719
30
0.0
10
7.300295
20
1.366719
30
0.0
10
6.708705
20
1.486886
30
0.0
10
6.224064
20
1.814175
30
0.0
10
5.896511
20
2.298764
30
0.0
10
5.776185
20
2.890832
30
0.0
10
5.776185
20
3.042413
30
0.0
10
5.896511
20
3.634636
30
0.0
10
6.224064
20
4.119208
30
0.0
10
6.708705
20
4.446410
30
0.0
10
7.300295
20
4.566526
30
0.0
10
7.300295
20
4.566526
30
0.0
  0
ENDSEC
  0
SECTION
  2
OBJECTS
  0
DICTIONARY
  5
C
330
0
100
AcDbDictionary
  3
ACAD_GROUP
350
D
  3
ACAD_MLINESTYLE
350
17
  0
DICTIONARY
  5
D
330
C
100
AcDbDictionary
  0
DICTIONARY
  5
1A
330
C
100
AcDbDictionary
  0
DICTIONARY
  5
17
330
C
100
AcDbDictionary
  3
STANDARD
350
18
  0
DICTIONARY
  5
19
330
C
100
AcDbDictionary
  0
ENDSEC
  0
EOF
