<?xml version="1.0" encoding="UTF-8" standalone="no"?>
<!-- Created with Inkscape (http://www.inkscape.org/) -->

<svg
   xmlns:dc="http://purl.org/dc/elements/1.1/"
   xmlns:cc="http://creativecommons.org/ns#"
   xmlns:rdf="http://www.w3.org/1999/02/22-rdf-syntax-ns#"
   xmlns:svg="http://www.w3.org/2000/svg"
   xmlns="http://www.w3.org/2000/svg"
   xmlns:sodipodi="http://sodipodi.sourceforge.net/DTD/sodipodi-0.dtd"
   xmlns:inkscape="http://www.inkscape.org/namespaces/inkscape"
   width="210mm"
   height="297mm"
   id="svg2"
   version="1.1"
   inkscape:version="0.48.5 r10040"
   sodipodi:docname="Nouveau document 1">
  <sodipodi:namedview
     id="base"
     pagecolor="#ffffff"
     bordercolor="#666666"
     borderopacity="1.0"
     inkscape:pageopacity="0.0"
     inkscape:pageshadow="2"
     inkscape:zoom="0.98994949"
     inkscape:cx="1365.8045"
     inkscape:cy="621.01525"
     inkscape:document-units="px"
     inkscape:current-layer="layer1"
     showgrid="false"
     inkscape:window-width="1920"
     inkscape:window-height="1032"
     inkscape:window-x="1920"
     inkscape:window-y="0"
     inkscape:window-maximized="1" />
  <defs
     id="defs4" />
  <metadata
     id="metadata7">
    <rdf:RDF>
      <cc:Work
         rdf:about="">
        <dc:format>image/svg+xml</dc:format>
        <dc:type
           rdf:resource="http://purl.org/dc/dcmitype/StillImage" />
        <dc:title></dc:title>
      </cc:Work>
    </rdf:RDF>
  </metadata>
  <g
     id="layer1"
     inkscape:groupmode="layer"
     inkscape:label="Calque 1">
    <path
       id="path3158"
       inkscape:label="part"
       style="stroke:#000000;fill:none"
       d="M 549.212598423,1339.37007873 L 585.555653989,1339.37007873 L 585.555653989,1318.11023622 L 621.874551627,1318.11023622 L 621.874551627,1339.37007873 L 657.774693808,1339.37007873 L 657.774693808,1318.11023622 L 694.093591445,1318.11023622 L 694.093591445,1339.37007873 L 729.993733626,1339.37007873 L 729.993733626,1318.11023622 L 766.312631264,1318.11023622 L 766.312631264,1339.37007873 L 802.212773444,1339.37007873 L 802.212773444,1318.11023622 L 838.531671082,1318.11023622 L 838.531671082,1339.37007873 L 874.431813263,1339.37007873 L 874.431813263,1318.11023622 L 910.7507109,1318.11023622 L 910.7507109,1339.37007873 L 946.650853081,1339.37007873 L 946.650853081,1318.11023622 L 982.969750719,1318.11023622 L 982.969750719,1339.37007873 L 1018.8698929,1339.37007873 L 1018.8698929,1318.11023622 L 1055.18879054,1318.11023622 L 1055.18879054,1339.37007873 L 1091.08893272,1339.37007873 L 1091.08893272,1318.11023622 L 1127.40783036,1318.11023622 L 1127.40783036,1339.37007873 L 1163.30797254,1339.37007873 L 1163.30797254,1318.11023622 L 1199.62687017,1318.11023622 L 1199.62687017,1339.37007873 L 1235.52701235,1339.37007873 L 1235.52701235,1318.11023622 L 1271.84590999,1318.11023622 L 1271.84590999,1339.37007873 L 1307.74605217,1339.37007873 L 1307.74605217,1318.11023622 L 1344.06494981,1318.11023622 L 1344.06494981,1339.37007873 L 1379.96509199,1339.37007873 L 1379.96509199,1318.11023622 L 1416.28398963,1318.11023622 L 1416.28398963,1339.37007873 L 1452.18413181,1339.37007873 L 1452.18413181,1318.11023622 L 1488.50302945,1318.11023622 L 1488.50302945,1339.37007873 L 1524.40317163,1339.37007873 L 1524.40317163,1318.11023622 L 1560.72206927,1318.11023622 L 1560.72206927,1339.37007873 L 1596.62221145,1339.37007873 L 1596.62221145,1318.11023622 L 1632.94110908,1318.11023622 L 1632.94110908,1339.37007873 L 1668.84125126,1339.37007873 L 1668.84125126,1318.11023622 L 1705.1601489,1318.11023622 L 1705.1601489,1339.37007873 L 1741.06029108,1339.37007873 L 1741.06029108,1318.11023622 L 1777.37918872,1318.11023622 L 1777.37918872,1339.37007873 L 1813.2793309,1339.37007873 L 1813.2793309,1318.11023622 L 1849.59822854,1318.11023622 L 1849.59822854,1339.37007873 L 1885.49837072,1339.37007873 L 1885.49837072,1318.11023622 L 1921.81726836,1318.11023622 L 1921.81726836,1339.37007873 L 1957.71741054,1339.37007873 L 1957.71741054,1318.11023622 L 1994.03630818,1318.11023622 L 1994.03630818,1339.37007873 L 2029.93645036,1339.37007873 L 2029.93645036,1318.11023622 L 2066.25534799,1318.11023622 L 2066.25534799,1339.37007873 L 2102.59840356,1339.37007873 " />
    <path
       id="path3160"
       inkscape:label="part"
       style="stroke:#000000;fill:none"
       d="M 2102.59840356,1339.37007873 L 2102.59840356,1361.57902137 L 2081.33856104,1361.57902137 L 2081.33856104,1396.12626546 L 2102.59840356,1396.12626546 L 2102.59840356,1440.037964 L 2081.33856104,1440.037964 L 2081.33856104,1474.58520809 L 2102.59840356,1474.58520809 L 2102.59840356,1518.49690663 L 2081.33856104,1518.49690663 L 2081.33856104,1553.04415072 L 2102.59840356,1553.04415072 L 2102.59840356,1596.95584926 L 2081.33856104,1596.95584926 L 2081.33856104,1631.50309336 L 2102.59840356,1631.50309336 L 2102.59840356,1675.41479189 L 2081.33856104,1675.41479189 L 2081.33856104,1709.96203599 L 2102.59840356,1709.96203599 L 2102.59840356,1753.87373453 L 2081.33856104,1753.87373453 L 2081.33856104,1788.42097862 L 2102.59840356,1788.42097862 L 2102.59840356,1810.62992125 " />
    <path
       id="path3162"
       inkscape:label="part"
       style="stroke:#000000;fill:none"
       d="M 2102.59840356,1810.62992125 L 2066.25534799,1810.62992125 L 2066.25534799,1831.88976377 L 2029.93645036,1831.88976377 L 2029.93645036,1810.62992125 L 1994.03630818,1810.62992125 L 1994.03630818,1831.88976377 L 1957.71741054,1831.88976377 L 1957.71741054,1810.62992125 L 1921.81726836,1810.62992125 L 1921.81726836,1831.88976377 L 1885.49837072,1831.88976377 L 1885.49837072,1810.62992125 L 1849.59822854,1810.62992125 L 1849.59822854,1831.88976377 L 1813.2793309,1831.88976377 L 1813.2793309,1810.62992125 L 1777.37918872,1810.62992125 L 1777.37918872,1831.88976377 L 1741.06029108,1831.88976377 L 1741.06029108,1810.62992125 L 1705.1601489,1810.62992125 L 1705.1601489,1831.88976377 L 1668.84125126,1831.88976377 L 1668.84125126,1810.62992125 L 1632.94110908,1810.62992125 L 1632.94110908,1831.88976377 L 1596.62221145,1831.88976377 L 1596.62221145,1810.62992125 L 1560.72206927,1810.62992125 L 1560.72206927,1831.88976377 L 1524.40317163,1831.88976377 L 1524.40317163,1810.62992125 L 1488.50302945,1810.62992125 L 1488.50302945,1831.88976377 L 1452.18413181,1831.88976377 L 1452.18413181,1810.62992125 L 1416.28398963,1810.62992125 L 1416.28398963,1831.88976377 L 1379.96509199,1831.88976377 L 1379.96509199,1810.62992125 L 1344.06494981,1810.62992125 L 1344.06494981,1831.88976377 L 1307.74605217,1831.88976377 L 1307.74605217,1810.62992125 L 1271.84590999,1810.62992125 L 1271.84590999,1831.88976377 L 1235.52701235,1831.88976377 L 1235.52701235,1810.62992125 L 1199.62687017,1810.62992125 L 1199.62687017,1831.88976377 L 1163.30797254,1831.88976377 L 1163.30797254,1810.62992125 L 1127.40783036,1810.62992125 L 1127.40783036,1831.88976377 L 1091.08893272,1831.88976377 L 1091.08893272,1810.62992125 L 1055.18879054,1810.62992125 L 1055.18879054,1831.88976377 L 1018.8698929,1831.88976377 L 1018.8698929,1810.62992125 L 982.969750719,1810.62992125 L 982.969750719,1831.88976377 L 946.650853081,1831.88976377 L 946.650853081,1810.62992125 L 910.7507109,1810.62992125 L 910.7507109,1831.88976377 L 874.431813263,1831.88976377 L 874.431813263,1810.62992125 L 838.531671082,1810.62992125 L 838.531671082,1831.88976377 L 802.212773444,1831.88976377 L 802.212773444,1810.62992125 L 766.312631264,1810.62992125 L 766.312631264,1831.88976377 L 729.993733626,1831.88976377 L 729.993733626,1810.62992125 L 694.093591445,1810.62992125 L 694.093591445,1831.88976377 L 657.774693808,1831.88976377 L 657.774693808,1810.62992125 L 621.874551627,1810.62992125 L 621.874551627,1831.88976377 L 585.555653989,1831.88976377 L 585.555653989,1810.62992125 L 549.212598423,1810.62992125 " />
    <path
       id="path3164"
       inkscape:label="part"
       style="stroke:#000000;fill:none"
       d="M 549.212598423,1810.62992125 L 549.212598423,1788.42097862 L 570.472440943,1788.42097862 L 570.472440943,1753.87373453 L 549.212598423,1753.87373453 L 549.212598423,1709.96203599 L 570.472440943,1709.96203599 L 570.472440943,1675.41479189 L 549.212598423,1675.41479189 L 549.212598423,1631.50309336 L 570.472440943,1631.50309336 L 570.472440943,1596.95584926 L 549.212598423,1596.95584926 L 549.212598423,1553.04415072 L 570.472440943,1553.04415072 L 570.472440943,1518.49690663 L 549.212598423,1518.49690663 L 549.212598423,1474.58520809 L 570.472440943,1474.58520809 L 570.472440943,1440.037964 L 549.212598423,1440.037964 L 549.212598423,1396.12626546 L 570.472440943,1396.12626546 L 570.472440943,1361.57902137 L 549.212598423,1361.57902137 L 549.212598423,1339.37007873 " />
    <path
       id="path3166"
       inkscape:label="part"
       style="stroke:#000000;fill:none"
       d="M 38.9763779526,570.472440943 L 60.299493813,570.472440943 L 60.299493813,549.212598423 L 96.6183914507,549.212598423 L 96.6183914507,570.472440943 L 138.758436445,570.472440943 L 138.758436445,549.212598423 L 175.077334083,549.212598423 L 175.077334083,570.472440943 L 217.217379077,570.472440943 L 217.217379077,549.212598423 L 253.536276714,549.212598423 L 253.536276714,570.472440943 L 295.676321709,570.472440943 L 295.676321709,549.212598423 L 331.995219346,549.212598423 L 331.995219346,570.472440943 L 374.13526434,570.472440943 L 374.13526434,549.212598423 L 410.454161978,549.212598423 L 410.454161978,570.472440943 L 452.594206972,570.472440943 L 452.594206972,549.212598423 L 488.91310461,549.212598423 L 488.91310461,570.472440943 L 510.23622047,570.472440943 " />
    <path
       id="path3168"
       inkscape:label="part"
       style="stroke:#000000;fill:none"
       d="M 510.23622047,570.472440943 L 510.23622047,584.846993555 L 531.49606299,584.846993555 L 531.49606299,621.165891193 L 510.23622047,621.165891193 L 510.23622047,656.357372939 L 531.49606299,656.357372939 L 531.49606299,692.676270577 L 510.23622047,692.676270577 L 510.23622047,727.867752324 L 531.49606299,727.867752324 L 531.49606299,764.186649961 L 510.23622047,764.186649961 L 510.23622047,799.378131708 L 531.49606299,799.378131708 L 531.49606299,835.697029345 L 510.23622047,835.697029345 L 510.23622047,870.888511092 L 531.49606299,870.888511092 L 531.49606299,907.207408729 L 510.23622047,907.207408729 L 510.23622047,942.398890476 L 531.49606299,942.398890476 L 531.49606299,978.717788113 L 510.23622047,978.717788113 L 510.23622047,1013.90926986 L 531.49606299,1013.90926986 L 531.49606299,1050.2281675 L 510.23622047,1050.2281675 L 510.23622047,1085.41964924 L 531.49606299,1085.41964924 L 531.49606299,1121.73854688 L 510.23622047,1121.73854688 L 510.23622047,1156.93002863 L 531.49606299,1156.93002863 L 531.49606299,1193.24892627 L 510.23622047,1193.24892627 L 510.23622047,1228.44040801 L 531.49606299,1228.44040801 L 531.49606299,1264.75930565 L 510.23622047,1264.75930565 L 510.23622047,1279.13385826 " />
    <path
       id="path3170"
       inkscape:label="part"
       style="stroke:#000000;fill:none"
       d="M 510.23622047,1279.13385826 L 488.91310461,1279.13385826 L 488.91310461,1300.39370078 L 452.594206972,1300.39370078 L 452.594206972,1279.13385826 L 410.454161978,1279.13385826 L 410.454161978,1300.39370078 L 374.13526434,1300.39370078 L 374.13526434,1279.13385826 L 331.995219346,1279.13385826 L 331.995219346,1300.39370078 L 295.676321709,1300.39370078 L 295.676321709,1279.13385826 L 253.536276714,1279.13385826 L 253.536276714,1300.39370078 L 217.217379077,1300.39370078 L 217.217379077,1279.13385826 L 175.077334083,1279.13385826 L 175.077334083,1300.39370078 L 138.758436445,1300.39370078 L 138.758436445,1279.13385826 L 96.6183914507,1279.13385826 L 96.6183914507,1300.39370078 L 60.299493813,1300.39370078 L 60.299493813,1279.13385826 L 38.9763779526,1279.13385826 " />
    <path
       id="path3172"
       inkscape:label="part"
       style="stroke:#000000;fill:none"
       d="M 38.9763779526,1279.13385826 L 38.9763779526,1264.75930565 L 17.716535433,1264.75930565 L 17.716535433,1228.44040801 L 38.9763779526,1228.44040801 L 38.9763779526,1193.24892627 L 17.716535433,1193.24892627 L 17.716535433,1156.93002863 L 38.9763779526,1156.93002863 L 38.9763779526,1121.73854688 L 17.716535433,1121.73854688 L 17.716535433,1085.41964924 L 38.9763779526,1085.41964924 L 38.9763779526,1050.2281675 L 17.716535433,1050.2281675 L 17.716535433,1013.90926986 L 38.9763779526,1013.90926986 L 38.9763779526,978.717788113 L 17.716535433,978.717788113 L 17.716535433,942.398890476 L 38.9763779526,942.398890476 L 38.9763779526,907.207408729 L 17.716535433,907.207408729 L 17.716535433,870.888511092 L 38.9763779526,870.888511092 L 38.9763779526,835.697029345 L 17.716535433,835.697029345 L 17.716535433,799.378131708 L 38.9763779526,799.378131708 L 38.9763779526,764.186649961 L 17.716535433,764.186649961 L 17.716535433,727.867752324 L 38.9763779526,727.867752324 L 38.9763779526,692.676270577 L 17.716535433,692.676270577 L 17.716535433,656.357372939 L 38.9763779526,656.357372939 L 38.9763779526,621.165891193 L 17.716535433,621.165891193 L 17.716535433,584.846993555 L 38.9763779526,584.846993555 L 38.9763779526,570.472440943 " />
    <path
       id="path3174"
       inkscape:label="part"
       style="stroke:#000000;fill:none"
       d="M 549.212598423,549.212598423 L 586.441480761,549.212598423 L 586.441480761,570.472440943 L 620.988724855,570.472440943 L 620.988724855,549.212598423 L 658.660520579,549.212598423 L 658.660520579,570.472440943 L 693.207764674,570.472440943 L 693.207764674,549.212598423 L 730.879560398,549.212598423 L 730.879560398,570.472440943 L 765.426804492,570.472440943 L 765.426804492,549.212598423 L 803.098600216,549.212598423 L 803.098600216,570.472440943 L 837.64584431,570.472440943 L 837.64584431,549.212598423 L 875.317640034,549.212598423 L 875.317640034,570.472440943 L 909.864884129,570.472440943 L 909.864884129,549.212598423 L 947.536679853,549.212598423 L 947.536679853,570.472440943 L 982.083923947,570.472440943 L 982.083923947,549.212598423 L 1019.75571967,549.212598423 L 1019.75571967,570.472440943 L 1054.30296377,570.472440943 L 1054.30296377,549.212598423 L 1091.97475949,549.212598423 L 1091.97475949,570.472440943 L 1126.52200358,570.472440943 L 1126.52200358,549.212598423 L 1164.19379931,549.212598423 L 1164.19379931,570.472440943 L 1198.7410434,570.472440943 L 1198.7410434,549.212598423 L 1236.41283913,549.212598423 L 1236.41283913,570.472440943 L 1270.96008322,570.472440943 L 1270.96008322,549.212598423 L 1308.63187894,549.212598423 L 1308.63187894,570.472440943 L 1343.17912304,570.472440943 L 1343.17912304,549.212598423 L 1380.85091876,549.212598423 L 1380.85091876,570.472440943 L 1415.39816286,570.472440943 L 1415.39816286,549.212598423 L 1453.06995858,549.212598423 L 1453.06995858,570.472440943 L 1487.61720268,570.472440943 L 1487.61720268,549.212598423 L 1525.2889984,549.212598423 L 1525.2889984,570.472440943 L 1559.83624249,570.472440943 L 1559.83624249,549.212598423 L 1597.50803822,549.212598423 L 1597.50803822,570.472440943 L 1632.05528231,570.472440943 L 1632.05528231,549.212598423 L 1669.72707804,549.212598423 L 1669.72707804,570.472440943 L 1704.27432213,570.472440943 L 1704.27432213,549.212598423 L 1741.94611785,549.212598423 L 1741.94611785,570.472440943 L 1776.49336195,570.472440943 L 1776.49336195,549.212598423 L 1814.16515767,549.212598423 L 1814.16515767,570.472440943 L 1848.71240177,570.472440943 L 1848.71240177,549.212598423 L 1886.38419749,549.212598423 L 1886.38419749,570.472440943 L 1920.93144159,570.472440943 L 1920.93144159,549.212598423 L 1958.60323731,549.212598423 L 1958.60323731,570.472440943 L 1993.1504814,570.472440943 L 1993.1504814,549.212598423 L 2030.82227713,549.212598423 L 2030.82227713,570.472440943 L 2065.36952122,570.472440943 L 2065.36952122,549.212598423 L 2102.59840356,549.212598423 " />
    <path
       id="path3176"
       inkscape:label="part"
       style="stroke:#000000;fill:none"
       d="M 2102.59840356,549.212598423 L 2102.59840356,585.732820327 L 2081.33856104,585.732820327 L 2081.33856104,620.280064421 L 2102.59840356,620.280064421 L 2102.59840356,657.243199711 L 2081.33856104,657.243199711 L 2081.33856104,691.790443805 L 2102.59840356,691.790443805 L 2102.59840356,728.753579095 L 2081.33856104,728.753579095 L 2081.33856104,763.30082319 L 2102.59840356,763.30082319 L 2102.59840356,800.263958479 L 2081.33856104,800.263958479 L 2081.33856104,834.811202574 L 2102.59840356,834.811202574 L 2102.59840356,871.774337863 L 2081.33856104,871.774337863 L 2081.33856104,906.321581958 L 2102.59840356,906.321581958 L 2102.59840356,943.284717247 L 2081.33856104,943.284717247 L 2081.33856104,977.831961342 L 2102.59840356,977.831961342 L 2102.59840356,1014.79509663 L 2081.33856104,1014.79509663 L 2081.33856104,1049.34234073 L 2102.59840356,1049.34234073 L 2102.59840356,1086.30547602 L 2081.33856104,1086.30547602 L 2081.33856104,1120.85272011 L 2102.59840356,1120.85272011 L 2102.59840356,1157.8158554 L 2081.33856104,1157.8158554 L 2081.33856104,1192.36309949 L 2102.59840356,1192.36309949 L 2102.59840356,1229.32623478 L 2081.33856104,1229.32623478 L 2081.33856104,1263.87347888 L 2102.59840356,1263.87347888 L 2102.59840356,1300.39370078 " />
    <path
       id="path3178"
       inkscape:label="part"
       style="stroke:#000000;fill:none"
       d="M 2102.59840356,1300.39370078 L 2065.36952122,1300.39370078 L 2065.36952122,1279.13385826 L 2030.82227713,1279.13385826 L 2030.82227713,1300.39370078 L 1993.1504814,1300.39370078 L 1993.1504814,1279.13385826 L 1958.60323731,1279.13385826 L 1958.60323731,1300.39370078 L 1920.93144159,1300.39370078 L 1920.93144159,1279.13385826 L 1886.38419749,1279.13385826 L 1886.38419749,1300.39370078 L 1848.71240177,1300.39370078 L 1848.71240177,1279.13385826 L 1814.16515767,1279.13385826 L 1814.16515767,1300.39370078 L 1776.49336195,1300.39370078 L 1776.49336195,1279.13385826 L 1741.94611785,1279.13385826 L 1741.94611785,1300.39370078 L 1704.27432213,1300.39370078 L 1704.27432213,1279.13385826 L 1669.72707804,1279.13385826 L 1669.72707804,1300.39370078 L 1632.05528231,1300.39370078 L 1632.05528231,1279.13385826 L 1597.50803822,1279.13385826 L 1597.50803822,1300.39370078 L 1559.83624249,1300.39370078 L 1559.83624249,1279.13385826 L 1525.2889984,1279.13385826 L 1525.2889984,1300.39370078 L 1487.61720268,1300.39370078 L 1487.61720268,1279.13385826 L 1453.06995858,1279.13385826 L 1453.06995858,1300.39370078 L 1415.39816286,1300.39370078 L 1415.39816286,1279.13385826 L 1380.85091876,1279.13385826 L 1380.85091876,1300.39370078 L 1343.17912304,1300.39370078 L 1343.17912304,1279.13385826 L 1308.63187894,1279.13385826 L 1308.63187894,1300.39370078 L 1270.96008322,1300.39370078 L 1270.96008322,1279.13385826 L 1236.41283913,1279.13385826 L 1236.41283913,1300.39370078 L 1198.7410434,1300.39370078 L 1198.7410434,1279.13385826 L 1164.19379931,1279.13385826 L 1164.19379931,1300.39370078 L 1126.52200358,1300.39370078 L 1126.52200358,1279.13385826 L 1091.97475949,1279.13385826 L 1091.97475949,1300.39370078 L 1054.30296377,1300.39370078 L 1054.30296377,1279.13385826 L 1019.75571967,1279.13385826 L 1019.75571967,1300.39370078 L 982.083923947,1300.39370078 L 982.083923947,1279.13385826 L 947.536679853,1279.13385826 L 947.536679853,1300.39370078 L 909.864884129,1300.39370078 L 909.864884129,1279.13385826 L 875.317640034,1279.13385826 L 875.317640034,1300.39370078 L 837.64584431,1300.39370078 L 837.64584431,1279.13385826 L 803.098600216,1279.13385826 L 803.098600216,1300.39370078 L 765.426804492,1300.39370078 L 765.426804492,1279.13385826 L 730.879560398,1279.13385826 L 730.879560398,1300.39370078 L 693.207764674,1300.39370078 L 693.207764674,1279.13385826 L 658.660520579,1279.13385826 L 658.660520579,1300.39370078 L 620.988724855,1300.39370078 L 620.988724855,1279.13385826 L 586.441480761,1279.13385826 L 586.441480761,1300.39370078 L 549.212598423,1300.39370078 " />
    <path
       id="path3180"
       inkscape:label="part"
       style="stroke:#000000;fill:none"
       d="M 549.212598423,1300.39370078 L 549.212598423,1263.87347888 L 570.472440943,1263.87347888 L 570.472440943,1229.32623478 L 549.212598423,1229.32623478 L 549.212598423,1192.36309949 L 570.472440943,1192.36309949 L 570.472440943,1157.8158554 L 549.212598423,1157.8158554 L 549.212598423,1120.85272011 L 570.472440943,1120.85272011 L 570.472440943,1086.30547602 L 549.212598423,1086.30547602 L 549.212598423,1049.34234073 L 570.472440943,1049.34234073 L 570.472440943,1014.79509663 L 549.212598423,1014.79509663 L 549.212598423,977.831961342 L 570.472440943,977.831961342 L 570.472440943,943.284717247 L 549.212598423,943.284717247 L 549.212598423,906.321581958 L 570.472440943,906.321581958 L 570.472440943,871.774337863 L 549.212598423,871.774337863 L 549.212598423,834.811202574 L 570.472440943,834.811202574 L 570.472440943,800.263958479 L 549.212598423,800.263958479 L 549.212598423,763.30082319 L 570.472440943,763.30082319 L 570.472440943,728.753579095 L 549.212598423,728.753579095 L 549.212598423,691.790443805 L 570.472440943,691.790443805 L 570.472440943,657.243199711 L 549.212598423,657.243199711 L 549.212598423,620.280064421 L 570.472440943,620.280064421 L 570.472440943,585.732820327 L 549.212598423,585.732820327 L 549.212598423,549.212598423 " />
    <path
       id="path3182"
       inkscape:label="part"
       style="stroke:#000000;fill:none"
       d="M 2141.57478151,570.472440943 L 2162.89789737,570.472440943 L 2162.89789737,549.212598423 L 2199.21679501,549.212598423 L 2199.21679501,570.472440943 L 2241.35684,570.472440943 L 2241.35684,549.212598423 L 2277.67573764,549.212598423 L 2277.67573764,570.472440943 L 2319.81578264,570.472440943 L 2319.81578264,549.212598423 L 2356.13468027,549.212598423 L 2356.13468027,570.472440943 L 2398.27472527,570.472440943 L 2398.27472527,549.212598423 L 2434.59362291,549.212598423 L 2434.59362291,570.472440943 L 2476.7336679,570.472440943 L 2476.7336679,549.212598423 L 2513.05256554,549.212598423 L 2513.05256554,570.472440943 L 2555.19261053,570.472440943 L 2555.19261053,549.212598423 L 2591.51150817,549.212598423 L 2591.51150817,570.472440943 L 2612.83462403,570.472440943 " />
    <path
       id="path3184"
       inkscape:label="part"
       style="stroke:#000000;fill:none"
       d="M 2612.83462403,570.472440943 L 2612.83462403,584.846993555 L 2634.09446655,584.846993555 L 2634.09446655,621.165891193 L 2612.83462403,621.165891193 L 2612.83462403,656.357372939 L 2634.09446655,656.357372939 L 2634.09446655,692.676270577 L 2612.83462403,692.676270577 L 2612.83462403,727.867752324 L 2634.09446655,727.867752324 L 2634.09446655,764.186649961 L 2612.83462403,764.186649961 L 2612.83462403,799.378131708 L 2634.09446655,799.378131708 L 2634.09446655,835.697029345 L 2612.83462403,835.697029345 L 2612.83462403,870.888511092 L 2634.09446655,870.888511092 L 2634.09446655,907.207408729 L 2612.83462403,907.207408729 L 2612.83462403,942.398890476 L 2634.09446655,942.398890476 L 2634.09446655,978.717788113 L 2612.83462403,978.717788113 L 2612.83462403,1013.90926986 L 2634.09446655,1013.90926986 L 2634.09446655,1050.2281675 L 2612.83462403,1050.2281675 L 2612.83462403,1085.41964924 L 2634.09446655,1085.41964924 L 2634.09446655,1121.73854688 L 2612.83462403,1121.73854688 L 2612.83462403,1156.93002863 L 2634.09446655,1156.93002863 L 2634.09446655,1193.24892627 L 2612.83462403,1193.24892627 L 2612.83462403,1228.44040801 L 2634.09446655,1228.44040801 L 2634.09446655,1264.75930565 L 2612.83462403,1264.75930565 L 2612.83462403,1279.13385826 " />
    <path
       id="path3186"
       inkscape:label="part"
       style="stroke:#000000;fill:none"
       d="M 2612.83462403,1279.13385826 L 2591.51150817,1279.13385826 L 2591.51150817,1300.39370078 L 2555.19261053,1300.39370078 L 2555.19261053,1279.13385826 L 2513.05256554,1279.13385826 L 2513.05256554,1300.39370078 L 2476.7336679,1300.39370078 L 2476.7336679,1279.13385826 L 2434.59362291,1279.13385826 L 2434.59362291,1300.39370078 L 2398.27472527,1300.39370078 L 2398.27472527,1279.13385826 L 2356.13468027,1279.13385826 L 2356.13468027,1300.39370078 L 2319.81578264,1300.39370078 L 2319.81578264,1279.13385826 L 2277.67573764,1279.13385826 L 2277.67573764,1300.39370078 L 2241.35684,1300.39370078 L 2241.35684,1279.13385826 L 2199.21679501,1279.13385826 L 2199.21679501,1300.39370078 L 2162.89789737,1300.39370078 L 2162.89789737,1279.13385826 L 2141.57478151,1279.13385826 " />
    <path
       id="path3188"
       inkscape:label="part"
       style="stroke:#000000;fill:none"
       d="M 2141.57478151,1279.13385826 L 2141.57478151,1264.75930565 L 2120.31493899,1264.75930565 L 2120.31493899,1228.44040801 L 2141.57478151,1228.44040801 L 2141.57478151,1193.24892627 L 2120.31493899,1193.24892627 L 2120.31493899,1156.93002863 L 2141.57478151,1156.93002863 L 2141.57478151,1121.73854688 L 2120.31493899,1121.73854688 L 2120.31493899,1085.41964924 L 2141.57478151,1085.41964924 L 2141.57478151,1050.2281675 L 2120.31493899,1050.2281675 L 2120.31493899,1013.90926986 L 2141.57478151,1013.90926986 L 2141.57478151,978.717788113 L 2120.31493899,978.717788113 L 2120.31493899,942.398890476 L 2141.57478151,942.398890476 L 2141.57478151,907.207408729 L 2120.31493899,907.207408729 L 2120.31493899,870.888511092 L 2141.57478151,870.888511092 L 2141.57478151,835.697029345 L 2120.31493899,835.697029345 L 2120.31493899,799.378131708 L 2141.57478151,799.378131708 L 2141.57478151,764.186649961 L 2120.31493899,764.186649961 L 2120.31493899,727.867752324 L 2141.57478151,727.867752324 L 2141.57478151,692.676270577 L 2120.31493899,692.676270577 L 2120.31493899,656.357372939 L 2141.57478151,656.357372939 L 2141.57478151,621.165891193 L 2120.31493899,621.165891193 L 2120.31493899,584.846993555 L 2141.57478151,584.846993555 L 2141.57478151,570.472440943 " />
    <path
       id="path3190"
       inkscape:label="part"
       style="stroke:#000000;fill:none"
       d="M 2651.81100198,549.212598423 L 2689.03988432,549.212598423 L 2689.03988432,570.472440943 L 2723.58712842,570.472440943 L 2723.58712842,549.212598423 L 2761.25892414,549.212598423 L 2761.25892414,570.472440943 L 2795.80616823,570.472440943 L 2795.80616823,549.212598423 L 2833.47796396,549.212598423 L 2833.47796396,570.472440943 L 2868.02520805,570.472440943 L 2868.02520805,549.212598423 L 2905.69700378,549.212598423 L 2905.69700378,570.472440943 L 2940.24424787,570.472440943 L 2940.24424787,549.212598423 L 2977.91604359,549.212598423 L 2977.91604359,570.472440943 L 3012.46328769,570.472440943 L 3012.46328769,549.212598423 L 3050.13508341,549.212598423 L 3050.13508341,570.472440943 L 3084.68232751,570.472440943 L 3084.68232751,549.212598423 L 3122.35412323,549.212598423 L 3122.35412323,570.472440943 L 3156.90136733,570.472440943 L 3156.90136733,549.212598423 L 3194.57316305,549.212598423 L 3194.57316305,570.472440943 L 3229.12040714,570.472440943 L 3229.12040714,549.212598423 L 3266.79220287,549.212598423 L 3266.79220287,570.472440943 L 3301.33944696,570.472440943 L 3301.33944696,549.212598423 L 3339.01124269,549.212598423 L 3339.01124269,570.472440943 L 3373.55848678,570.472440943 L 3373.55848678,549.212598423 L 3411.2302825,549.212598423 L 3411.2302825,570.472440943 L 3445.7775266,570.472440943 L 3445.7775266,549.212598423 L 3483.44932232,549.212598423 L 3483.44932232,570.472440943 L 3517.99656642,570.472440943 L 3517.99656642,549.212598423 L 3555.66836214,549.212598423 L 3555.66836214,570.472440943 L 3590.21560624,570.472440943 L 3590.21560624,549.212598423 L 3627.88740196,549.212598423 L 3627.88740196,570.472440943 L 3662.43464605,570.472440943 L 3662.43464605,549.212598423 L 3700.10644178,549.212598423 L 3700.10644178,570.472440943 L 3734.65368587,570.472440943 L 3734.65368587,549.212598423 L 3772.3254816,549.212598423 L 3772.3254816,570.472440943 L 3806.87272569,570.472440943 L 3806.87272569,549.212598423 L 3844.54452141,549.212598423 L 3844.54452141,570.472440943 L 3879.09176551,570.472440943 L 3879.09176551,549.212598423 L 3916.76356123,549.212598423 L 3916.76356123,570.472440943 L 3951.31080533,570.472440943 L 3951.31080533,549.212598423 L 3988.98260105,549.212598423 L 3988.98260105,570.472440943 L 4023.52984515,570.472440943 L 4023.52984515,549.212598423 L 4061.20164087,549.212598423 L 4061.20164087,570.472440943 L 4095.74888496,570.472440943 L 4095.74888496,549.212598423 L 4133.42068069,549.212598423 L 4133.42068069,570.472440943 L 4167.96792478,570.472440943 L 4167.96792478,549.212598423 L 4205.19680712,549.212598423 " />
    <path
       id="path3192"
       inkscape:label="part"
       style="stroke:#000000;fill:none"
       d="M 4205.19680712,549.212598423 L 4205.19680712,585.732820327 L 4183.9369646,585.732820327 L 4183.9369646,620.280064421 L 4205.19680712,620.280064421 L 4205.19680712,657.243199711 L 4183.9369646,657.243199711 L 4183.9369646,691.790443805 L 4205.19680712,691.790443805 L 4205.19680712,728.753579095 L 4183.9369646,728.753579095 L 4183.9369646,763.30082319 L 4205.19680712,763.30082319 L 4205.19680712,800.263958479 L 4183.9369646,800.263958479 L 4183.9369646,834.811202574 L 4205.19680712,834.811202574 L 4205.19680712,871.774337863 L 4183.9369646,871.774337863 L 4183.9369646,906.321581958 L 4205.19680712,906.321581958 L 4205.19680712,943.284717247 L 4183.9369646,943.284717247 L 4183.9369646,977.831961342 L 4205.19680712,977.831961342 L 4205.19680712,1014.79509663 L 4183.9369646,1014.79509663 L 4183.9369646,1049.34234073 L 4205.19680712,1049.34234073 L 4205.19680712,1086.30547602 L 4183.9369646,1086.30547602 L 4183.9369646,1120.85272011 L 4205.19680712,1120.85272011 L 4205.19680712,1157.8158554 L 4183.9369646,1157.8158554 L 4183.9369646,1192.36309949 L 4205.19680712,1192.36309949 L 4205.19680712,1229.32623478 L 4183.9369646,1229.32623478 L 4183.9369646,1263.87347888 L 4205.19680712,1263.87347888 L 4205.19680712,1300.39370078 " />
    <path
       id="path3194"
       inkscape:label="part"
       style="stroke:#000000;fill:none"
       d="M 4205.19680712,1300.39370078 L 4167.96792478,1300.39370078 L 4167.96792478,1279.13385826 L 4133.42068069,1279.13385826 L 4133.42068069,1300.39370078 L 4095.74888496,1300.39370078 L 4095.74888496,1279.13385826 L 4061.20164087,1279.13385826 L 4061.20164087,1300.39370078 L 4023.52984515,1300.39370078 L 4023.52984515,1279.13385826 L 3988.98260105,1279.13385826 L 3988.98260105,1300.39370078 L 3951.31080533,1300.39370078 L 3951.31080533,1279.13385826 L 3916.76356123,1279.13385826 L 3916.76356123,1300.39370078 L 3879.09176551,1300.39370078 L 3879.09176551,1279.13385826 L 3844.54452141,1279.13385826 L 3844.54452141,1300.39370078 L 3806.87272569,1300.39370078 L 3806.87272569,1279.13385826 L 3772.3254816,1279.13385826 L 3772.3254816,1300.39370078 L 3734.65368587,1300.39370078 L 3734.65368587,1279.13385826 L 3700.10644178,1279.13385826 L 3700.10644178,1300.39370078 L 3662.43464605,1300.39370078 L 3662.43464605,1279.13385826 L 3627.88740196,1279.13385826 L 3627.88740196,1300.39370078 L 3590.21560624,1300.39370078 L 3590.21560624,1279.13385826 L 3555.66836214,1279.13385826 L 3555.66836214,1300.39370078 L 3517.99656642,1300.39370078 L 3517.99656642,1279.13385826 L 3483.44932232,1279.13385826 L 3483.44932232,1300.39370078 L 3445.7775266,1300.39370078 L 3445.7775266,1279.13385826 L 3411.2302825,1279.13385826 L 3411.2302825,1300.39370078 L 3373.55848678,1300.39370078 L 3373.55848678,1279.13385826 L 3339.01124269,1279.13385826 L 3339.01124269,1300.39370078 L 3301.33944696,1300.39370078 L 3301.33944696,1279.13385826 L 3266.79220287,1279.13385826 L 3266.79220287,1300.39370078 L 3229.12040714,1300.39370078 L 3229.12040714,1279.13385826 L 3194.57316305,1279.13385826 L 3194.57316305,1300.39370078 L 3156.90136733,1300.39370078 L 3156.90136733,1279.13385826 L 3122.35412323,1279.13385826 L 3122.35412323,1300.39370078 L 3084.68232751,1300.39370078 L 3084.68232751,1279.13385826 L 3050.13508341,1279.13385826 L 3050.13508341,1300.39370078 L 3012.46328769,1300.39370078 L 3012.46328769,1279.13385826 L 2977.91604359,1279.13385826 L 2977.91604359,1300.39370078 L 2940.24424787,1300.39370078 L 2940.24424787,1279.13385826 L 2905.69700378,1279.13385826 L 2905.69700378,1300.39370078 L 2868.02520805,1300.39370078 L 2868.02520805,1279.13385826 L 2833.47796396,1279.13385826 L 2833.47796396,1300.39370078 L 2795.80616823,1300.39370078 L 2795.80616823,1279.13385826 L 2761.25892414,1279.13385826 L 2761.25892414,1300.39370078 L 2723.58712842,1300.39370078 L 2723.58712842,1279.13385826 L 2689.03988432,1279.13385826 L 2689.03988432,1300.39370078 L 2651.81100198,1300.39370078 " />
    <path
       id="path3196"
       inkscape:label="part"
       style="stroke:#000000;fill:none"
       d="M 2651.81100198,1300.39370078 L 2651.81100198,1263.87347888 L 2673.0708445,1263.87347888 L 2673.0708445,1229.32623478 L 2651.81100198,1229.32623478 L 2651.81100198,1192.36309949 L 2673.0708445,1192.36309949 L 2673.0708445,1157.8158554 L 2651.81100198,1157.8158554 L 2651.81100198,1120.85272011 L 2673.0708445,1120.85272011 L 2673.0708445,1086.30547602 L 2651.81100198,1086.30547602 L 2651.81100198,1049.34234073 L 2673.0708445,1049.34234073 L 2673.0708445,1014.79509663 L 2651.81100198,1014.79509663 L 2651.81100198,977.831961342 L 2673.0708445,977.831961342 L 2673.0708445,943.284717247 L 2651.81100198,943.284717247 L 2651.81100198,906.321581958 L 2673.0708445,906.321581958 L 2673.0708445,871.774337863 L 2651.81100198,871.774337863 L 2651.81100198,834.811202574 L 2673.0708445,834.811202574 L 2673.0708445,800.263958479 L 2651.81100198,800.263958479 L 2651.81100198,763.30082319 L 2673.0708445,763.30082319 L 2673.0708445,728.753579095 L 2651.81100198,728.753579095 L 2651.81100198,691.790443805 L 2673.0708445,691.790443805 L 2673.0708445,657.243199711 L 2651.81100198,657.243199711 L 2651.81100198,620.280064421 L 2673.0708445,620.280064421 L 2673.0708445,585.732820327 L 2651.81100198,585.732820327 L 2651.81100198,549.212598423 " />
    <path
       id="path3198"
       inkscape:label="part"
       style="fill:none;stroke:#000000"
       d="m 548.20245,33.925615 36.34305,0 0,-21.259843 36.3189,0 0,21.259843 35.90014,0 0,-21.259843 36.3189,0 0,21.259843 35.90014,0 0,-21.259843 36.3189,0 0,21.259843 35.90014,0 0,-21.259843 36.3189,0 0,21.259843 35.90014,0 0,-21.259843 36.3189,0 0,21.259843 35.90014,0 0,-21.259843 36.3189,0 0,21.259843 35.9001,0 0,-21.259843 36.3189,0 0,21.259843 35.9001,0 0,-21.259843 36.3189,0 0,21.259843 35.9002,0 0,-21.259843 36.3189,0 0,21.259843 35.9001,0 0,-21.259843 36.3189,0 0,21.259843 35.9002,0 0,-21.259843 36.3188,0 0,21.259843 35.9002,0 0,-21.259843 36.3189,0 0,21.259843 35.9001,0 0,-21.259843 36.3189,0 0,21.259843 35.9002,0 0,-21.259843 36.3189,0 0,21.259843 35.9001,0 0,-21.259843 36.3189,0 0,21.259843 35.9002,0 0,-21.259843 36.3188,0 0,21.259843 35.9002,0 0,-21.259843 36.3189,0 0,21.259843 35.9001,0 0,-21.259843 36.3189,0 0,21.259843 35.9002,0 0,-21.259843 36.3189,0 0,21.259843 35.9001,0 0,-21.259843 36.3189,0 0,21.259843 35.9002,0 0,-21.259843 36.3188,0 0,21.259843 36.3431,0"
       inkscape:connector-curvature="0" />
    <path
       id="path3200"
       inkscape:label="part"
       style="stroke:#000000;fill:none"
       d="M 2102.59840356,38.9763779526 L 2102.59840356,61.1853205847 L 2081.33856104,61.1853205847 L 2081.33856104,95.732564679 L 2102.59840356,95.732564679 L 2102.59840356,139.644263217 L 2081.33856104,139.644263217 L 2081.33856104,174.191507311 L 2102.59840356,174.191507311 L 2102.59840356,218.103205848 L 2081.33856104,218.103205848 L 2081.33856104,252.650449943 L 2102.59840356,252.650449943 L 2102.59840356,296.56214848 L 2081.33856104,296.56214848 L 2081.33856104,331.109392575 L 2102.59840356,331.109392575 L 2102.59840356,375.021091112 L 2081.33856104,375.021091112 L 2081.33856104,409.568335206 L 2102.59840356,409.568335206 L 2102.59840356,453.480033744 L 2081.33856104,453.480033744 L 2081.33856104,488.027277838 L 2102.59840356,488.027277838 L 2102.59840356,510.23622047 " />
    <path
       id="path3202"
       inkscape:label="part"
       style="stroke:#000000;fill:none"
       d="M 2102.59840356,510.23622047 L 2066.25534799,510.23622047 L 2066.25534799,531.49606299 L 2029.93645036,531.49606299 L 2029.93645036,510.23622047 L 1994.03630818,510.23622047 L 1994.03630818,531.49606299 L 1957.71741054,531.49606299 L 1957.71741054,510.23622047 L 1921.81726836,510.23622047 L 1921.81726836,531.49606299 L 1885.49837072,531.49606299 L 1885.49837072,510.23622047 L 1849.59822854,510.23622047 L 1849.59822854,531.49606299 L 1813.2793309,531.49606299 L 1813.2793309,510.23622047 L 1777.37918872,510.23622047 L 1777.37918872,531.49606299 L 1741.06029108,531.49606299 L 1741.06029108,510.23622047 L 1705.1601489,510.23622047 L 1705.1601489,531.49606299 L 1668.84125126,531.49606299 L 1668.84125126,510.23622047 L 1632.94110908,510.23622047 L 1632.94110908,531.49606299 L 1596.62221145,531.49606299 L 1596.62221145,510.23622047 L 1560.72206927,510.23622047 L 1560.72206927,531.49606299 L 1524.40317163,531.49606299 L 1524.40317163,510.23622047 L 1488.50302945,510.23622047 L 1488.50302945,531.49606299 L 1452.18413181,531.49606299 L 1452.18413181,510.23622047 L 1416.28398963,510.23622047 L 1416.28398963,531.49606299 L 1379.96509199,531.49606299 L 1379.96509199,510.23622047 L 1344.06494981,510.23622047 L 1344.06494981,531.49606299 L 1307.74605217,531.49606299 L 1307.74605217,510.23622047 L 1271.84590999,510.23622047 L 1271.84590999,531.49606299 L 1235.52701235,531.49606299 L 1235.52701235,510.23622047 L 1199.62687017,510.23622047 L 1199.62687017,531.49606299 L 1163.30797254,531.49606299 L 1163.30797254,510.23622047 L 1127.40783036,510.23622047 L 1127.40783036,531.49606299 L 1091.08893272,531.49606299 L 1091.08893272,510.23622047 L 1055.18879054,510.23622047 L 1055.18879054,531.49606299 L 1018.8698929,531.49606299 L 1018.8698929,510.23622047 L 982.969750719,510.23622047 L 982.969750719,531.49606299 L 946.650853081,531.49606299 L 946.650853081,510.23622047 L 910.7507109,510.23622047 L 910.7507109,531.49606299 L 874.431813263,531.49606299 L 874.431813263,510.23622047 L 838.531671082,510.23622047 L 838.531671082,531.49606299 L 802.212773444,531.49606299 L 802.212773444,510.23622047 L 766.312631264,510.23622047 L 766.312631264,531.49606299 L 729.993733626,531.49606299 L 729.993733626,510.23622047 L 694.093591445,510.23622047 L 694.093591445,531.49606299 L 657.774693808,531.49606299 L 657.774693808,510.23622047 L 621.874551627,510.23622047 L 621.874551627,531.49606299 L 585.555653989,531.49606299 L 585.555653989,510.23622047 L 549.212598423,510.23622047 " />
    <path
       id="path3204"
       inkscape:label="part"
       style="stroke:#000000;fill:none"
       d="M 549.212598423,510.23622047 L 549.212598423,488.027277838 L 570.472440943,488.027277838 L 570.472440943,453.480033744 L 549.212598423,453.480033744 L 549.212598423,409.568335206 L 570.472440943,409.568335206 L 570.472440943,375.021091112 L 549.212598423,375.021091112 L 549.212598423,331.109392575 L 570.472440943,331.109392575 L 570.472440943,296.56214848 L 549.212598423,296.56214848 L 549.212598423,252.650449943 L 570.472440943,252.650449943 L 570.472440943,218.103205848 L 549.212598423,218.103205848 L 549.212598423,174.191507311 L 570.472440943,174.191507311 L 570.472440943,139.644263217 L 549.212598423,139.644263217 L 549.212598423,95.732564679 L 570.472440943,95.732564679 L 570.472440943,61.1853205847 L 549.212598423,61.1853205847 L 549.212598423,38.9763779526 " />
  </g>
  <g
     id="g3038"
     inkscape:groupmode="layer"
     inkscape:label="newlayer" />
  <g
     inkscape:label="newlayer"
     inkscape:groupmode="layer"
     id="g3122" />
  <g
     id="g3208"
     inkscape:groupmode="layer"
     inkscape:label="newlayer" />
</svg>
