<?xml version="1.0" encoding="UTF-8" standalone="no"?>
<!-- Created with Inkscape (http://www.inkscape.org/) -->

<svg
   xmlns:dc="http://purl.org/dc/elements/1.1/"
   xmlns:cc="http://creativecommons.org/ns#"
   xmlns:rdf="http://www.w3.org/1999/02/22-rdf-syntax-ns#"
   xmlns:svg="http://www.w3.org/2000/svg"
   xmlns="http://www.w3.org/2000/svg"
   xmlns:sodipodi="http://sodipodi.sourceforge.net/DTD/sodipodi-0.dtd"
   xmlns:inkscape="http://www.inkscape.org/namespaces/inkscape"
   sodipodi:docname="panel.dxf"
   inkscape:version="0.48.5 r10040"
   version="1.1"
   id="svg2"
   height="1052.3622"
   width="744.09448">
  <sodipodi:namedview
     id="base"
     pagecolor="#ffffff"
     bordercolor="#666666"
     borderopacity="1.0"
     inkscape:pageopacity="0.0"
     inkscape:pageshadow="2"
     inkscape:zoom="2.16"
     inkscape:cx="92.529565"
     inkscape:cy="393.49267"
     inkscape:document-units="mm"
     inkscape:current-layer="layer1"
     showgrid="false"
     units="mm"
     inkscape:window-width="1440"
     inkscape:window-height="851"
     inkscape:window-x="0"
     inkscape:window-y="0"
     inkscape:window-maximized="1" />
  <defs
     id="defs4" />
  <metadata
     id="metadata7">
    <rdf:RDF>
      <cc:Work
         rdf:about="">
        <dc:format>image/svg+xml</dc:format>
        <dc:type
           rdf:resource="http://purl.org/dc/dcmitype/StillImage" />
        <dc:title></dc:title>
      </cc:Work>
    </rdf:RDF>
  </metadata>
  <g
     transform="translate(0,-2.5390623e-6)"
     id="layer1"
     inkscape:groupmode="layer"
     inkscape:label="Calque 1">
    <path
       id="rect2985"
       transform="translate(0,2.5390623e-6)"
       d="M0.125 597.15625L0.125 1052.25L106.1875 1052.25L106.1875 597.15625L0.125 597.15625L0.125 597.15625M26.6875 601.9375L27.8196827266 602.051987207L28.8748718125 602.380250781L29.8302701172 602.899493652L30.6630805 603.58691875L31.3505058203 604.419729004L31.8697489375 605.375127344L32.1980127109 606.430316699L32.3125 607.5625L32.1980127109 608.693340527L31.8697489375 609.744989844L31.3505058203 610.695383301L30.6630805 611.52245625L29.8302701172 612.204144043L28.8748718125 612.718382031L27.8196827266 613.043105566L26.6875 613.15625L25.5566600469 613.043105566L24.505011 612.718382031L23.5546175781 612.204144043L22.7275445 611.52245625L22.0458564844 610.695383301L21.53161825 609.744989844L21.2068945156 608.693340527L21.09375 607.5625L21.2068945156 606.430316699L21.53161825 605.375127344L22.0458564844 604.419729004L22.7275445 603.58691875L23.5546175781 602.899493652L24.505011 602.380250781L25.5566600469 602.051987207L26.6875 601.9375L26.6875 601.9375M53.3125 634.0625L93.75 634.0625L93.75 678.03125L53.3125 678.03125L53.3125 634.0625L53.3125 634.0625M46.65625 692.75L48.5109016235 692.843853259L50.312371957 693.119298262L52.0514888198 693.567162844L53.7190800313 694.178274844L55.3059734106 694.943462097L56.8029967773 695.853552441L58.2009779507 696.899373713L59.49074475 698.07175375L60.6631249946 699.361520388L61.7089465039 700.759501465L62.6190370972 702.256524817L63.3842245938 703.843418281L63.995336813 705.511009695L64.4432015742 707.250126895L64.7186466968 709.051597717L64.8125 710.90625L64.7186466968 712.760551331L64.4432015742 714.561030332L63.995336813 716.298606394L63.3842245938 717.964198906L62.6190370972 719.548727258L61.7089465039 721.04311084L60.6631249946 722.438269041L59.49074475 723.72512125L58.2009779507 724.894586858L56.8029967773 725.937585254L55.3059734106 726.845035828L53.7190800313 727.607857969L52.0514888198 728.216971067L50.312371957 728.663294512L48.5109016235 728.937747693L46.65625 729.03125L44.8019493286 728.937747693L43.0014708164 728.663294512L41.2638950913 728.216971067L39.5983027812 727.607857969L38.0137745142 726.845035828L36.519390918 725.937585254L35.1242326206 724.894586858L33.83738025 723.72512125L32.6679144341 722.438269041L31.6249158008 721.04311084L30.717464978 719.548727258L29.9546425938 717.964198906L29.3455292759 716.298606394L28.8992056523 714.561030332L28.6247523511 712.760551331L28.53125 710.90625L28.6247523511 709.051597717L28.8992056523 707.250126895L29.3455292759 705.511009695L29.9546425938 703.843418281L30.717464978 702.256524817L31.6249158008 700.759501465L32.6679144341 699.361520388L33.83738025 698.07175375L35.1242326206 696.899373713L36.519390918 695.853552441L38.0137745142 694.943462097L39.5983027812 694.178274844L41.2638950913 693.567162844L43.0014708164 693.119298262L44.8019493286 692.843853259L46.65625 692.75L46.65625 692.75M46.65625 764.34375L48.5109016235 764.437252307L50.312371957 764.711705488L52.0514888198 765.158028933L53.7190800313 765.767142031L55.3059734106 766.529964172L56.8029967773 767.437414746L58.2009779507 768.480413142L59.49074475 769.64987875L60.6631249946 770.936730959L61.7089465039 772.33188916L62.6190370972 773.826272742L63.3842245938 775.410801094L63.995336813 777.076393606L64.4432015742 778.813969668L64.7186466968 780.614448669L64.8125 782.46875L64.7186466968 784.323402283L64.4432015742 786.124873105L63.995336813 787.863990305L63.3842245938 789.531581719L62.6190370972 791.118475183L61.7089465039 792.615498535L60.6631249946 794.013479612L59.49074475 795.30324625L58.2009779507 796.475626287L56.8029967773 797.521447559L55.3059734106 798.431537903L53.7190800313 799.196725156L52.0514888198 799.807837156L50.312371957 800.255701738L48.5109016235 800.531146741L46.65625 800.625L44.8019493286 800.531146741L43.0014708164 800.255701738L41.2638950913 799.807837156L39.5983027812 799.196725156L38.0137745142 798.431537903L36.519390918 797.521447559L35.1242326206 796.475626287L33.83738025 795.30324625L32.6679144341 794.013479612L31.6249158008 792.615498535L30.717464978 791.118475183L29.9546425938 789.531581719L29.3455292759 787.863990305L28.8992056523 786.124873105L28.6247523511 784.323402283L28.53125 782.46875L28.6247523511 780.614448669L28.8992056523 778.813969668L29.3455292759 777.076393606L29.9546425938 775.410801094L30.717464978 773.826272742L31.6249158008 772.33188916L32.6679144341 770.936730959L33.83738025 769.64987875L35.1242326206 768.480413142L36.519390918 767.437414746L38.0137745142 766.529964172L39.5983027812 765.767142031L41.2638950913 765.158028933L43.0014708164 764.711705488L44.8019493286 764.437252307L46.65625 764.34375L46.65625 764.34375M75.125 823.4375L77.3745337813 823.663989512L79.469220875 824.313644844L81.3643414063 825.341746191L83.0151755 826.70357375L84.3770032812 828.354407715L85.405104875 830.249528281L86.0547604063 832.344215645L86.28125 834.59375L86.0547604063 836.843284355L85.405104875 838.937971719L84.3770032812 840.833092285L83.0151755 842.48392625L81.3643414063 843.845753809L79.469220875 844.873855156L77.3745337813 845.523510488L75.125 845.75L72.8754662187 845.523510488L70.780779125 844.873855156L68.8856585937 843.845753809L67.2348245 842.48392625L65.8729967188 840.833092285L64.844895125 838.937971719L64.1952395937 836.843284355L63.96875 834.59375L64.1952395937 832.344215645L64.844895125 830.249528281L65.8729967188 828.354407715L67.2348245 826.70357375L68.8856585937 825.341746191L70.780779125 824.313644844L72.8754662187 823.663989512L75.125 823.4375L75.125 823.4375M75.125 872.9375L77.3745337813 873.163989512L79.469220875 873.813644844L81.3643414063 874.841746191L83.0151755 876.20357375L84.3770032812 877.854407715L85.405104875 879.749528281L86.0547604063 881.844215645L86.28125 884.09375L86.0547604063 886.343284355L85.405104875 888.437971719L84.3770032812 890.333092285L83.0151755 891.98392625L81.3643414063 893.345753809L79.469220875 894.373855156L77.3745337813 895.023510488L75.125 895.25L72.8754662187 895.023510488L70.780779125 894.373855156L68.8856585937 893.345753809L67.2348245 891.98392625L65.8729967188 890.333092285L64.844895125 888.437971719L64.1952395937 886.343284355L63.96875 884.09375L64.1952395937 881.844215645L64.844895125 879.749528281L65.8729967188 877.854407715L67.2348245 876.20357375L68.8856585937 874.841746191L70.780779125 873.813644844L72.8754662187 873.163989512L75.125 872.9375L75.125 872.9375M75.125 922.4375L77.3745337813 922.663989512L79.469220875 923.313644844L81.3643414063 924.341746191L83.0151755 925.70357375L84.3770032812 927.354407715L85.405104875 929.249528281L86.0547604063 931.344215645L86.28125 933.59375L86.0547604063 935.843284355L85.405104875 937.937971719L84.3770032812 939.833092285L83.0151755 941.48392625L81.3643414063 942.845753809L79.469220875 943.873855156L77.3745337813 944.523510488L75.125 944.75L72.8754662187 944.523510488L70.780779125 943.873855156L68.8856585937 942.845753809L67.2348245 941.48392625L65.8729967188 939.833092285L64.844895125 937.937971719L64.1952395937 935.843284355L63.96875 933.59375L64.1952395937 931.344215645L64.844895125 929.249528281L65.8729967188 927.354407715L67.2348245 925.70357375L68.8856585937 924.341746191L70.780779125 923.313644844L72.8754662187 922.663989512L75.125 922.4375L75.125 922.4375M75.125 974.9375L77.3741981504 975.1640375L79.4687277031 975.813809375L81.3638276855 976.842054688L83.014737125 978.2040125L84.3766950488 979.854921875L85.4049404844 981.750021875L86.054712459 983.844551563L86.28125 986.09375L86.054712459 988.342948437L85.4049404844 990.437478125L84.3766950488 992.332578125L83.014737125 993.9834875L81.3638276855 995.345445312L79.4687277031 996.373690625L77.3741981504 997.0234625L75.125 997.25L72.8758018496 997.0234625L70.7812722969 996.373690625L68.8861723145 995.345445312L67.235262875 993.9834875L65.8733049512 992.332578125L64.8450595156 990.437478125L64.195287541 988.342948437L63.96875 986.09375L64.195287541 983.844551563L64.8450595156 981.750021875L65.8733049512 979.854921875L67.235262875 978.2040125L68.8861723145 976.842054688L70.7812722969 975.813809375L72.8758018496 975.1640375L75.125 974.9375L75.125 974.9375M23.5 1036.0L24.6321827266 1036.11314453L25.6873718125 1036.43786875L26.6427701172 1036.95210859L27.4755805 1037.6338L28.1630058203 1038.46087891L28.6822489375 1039.41128125L29.0105127109 1040.46294297L29.125 1041.5938L29.0105127109 1042.72596895L28.6822489375 1043.78115156L28.1630058203 1044.73654902L27.4755805 1045.5693625L26.6427701172 1046.25679316L25.6873718125 1046.77604219L24.6321827266 1047.10431074L23.5 1047.2188L22.3691600469 1047.10431074L21.317511 1046.77604219L20.3671175781 1046.25679316L19.5400445 1045.5693625L18.8583564844 1044.73654902L18.34411825 1043.78115156L18.0193945156 1042.72596895L17.90625 1041.5938L18.0193945156 1040.46294297L18.34411825 1039.41128125L18.8583564844 1038.46087891L19.5400445 1037.6338L20.3671175781 1036.95210859L21.317511 1036.43786875L22.3691600469 1036.11314453L23.5 1036.0L23.5 1036.0"
       style="fill:#ff0000;stroke:#000000;stroke-width:0.24256167000000001;stroke-linecap:square;stroke-linejoin:miter;stroke-miterlimit:4;stroke-opacity:1;stroke-dasharray:none;stroke-dashoffset:0" />
  </g>
</svg>
