G04 EAGLE Gerber RS-274X export*
G75*
%MOMM*%
%FSLAX34Y34*%
%LPD*%
%INTop Copper*%
%IPPOS*%
%AMOC8*
5,1,8,0,0,1.08239X$1,22.5*%
G01*
G04 Define Apertures*
%ADD10R,2.540000X1.270000*%
%ADD11R,1.676400X1.676400*%
%ADD12C,1.524000*%
%ADD13R,1.524000X1.524000*%
%ADD14R,3.500000X1.500000*%
%ADD15P,1.92449X8X22.5*%
%ADD16C,0.152400*%
%ADD17C,0.756400*%
G36*
X229952Y10855D02*
X230194Y11018D01*
X245815Y26639D01*
X245982Y26892D01*
X246038Y27190D01*
X245973Y27486D01*
X245797Y27734D01*
X245539Y27893D01*
X245276Y27940D01*
X245121Y27940D01*
X241387Y29487D01*
X238529Y32345D01*
X236982Y36079D01*
X236982Y37338D01*
X247904Y37338D01*
X247904Y48260D01*
X248285Y48260D01*
X248582Y48320D01*
X248832Y48492D01*
X248996Y48747D01*
X249047Y49022D01*
X249047Y53594D01*
X248987Y53891D01*
X248815Y54141D01*
X248560Y54305D01*
X248285Y54356D01*
X245323Y54356D01*
X241962Y55748D01*
X239390Y58320D01*
X237998Y61681D01*
X237998Y65319D01*
X239390Y68680D01*
X241962Y71252D01*
X245323Y72644D01*
X248285Y72644D01*
X248582Y72704D01*
X248832Y72876D01*
X248996Y73131D01*
X249047Y73406D01*
X249047Y78994D01*
X248987Y79291D01*
X248815Y79541D01*
X248560Y79705D01*
X248285Y79756D01*
X245323Y79756D01*
X241962Y81148D01*
X239390Y83720D01*
X237998Y87081D01*
X237998Y90719D01*
X239390Y94080D01*
X241962Y96652D01*
X245323Y98044D01*
X248285Y98044D01*
X248582Y98104D01*
X248832Y98276D01*
X248996Y98531D01*
X249047Y98806D01*
X249047Y104394D01*
X248987Y104691D01*
X248815Y104941D01*
X248560Y105105D01*
X248285Y105156D01*
X245323Y105156D01*
X241962Y106548D01*
X239390Y109120D01*
X237998Y112481D01*
X237998Y116119D01*
X239390Y119480D01*
X241962Y122052D01*
X245323Y123444D01*
X248285Y123444D01*
X248582Y123504D01*
X248832Y123676D01*
X248996Y123931D01*
X249047Y124206D01*
X249047Y129794D01*
X248987Y130091D01*
X248815Y130341D01*
X248560Y130505D01*
X248285Y130556D01*
X245323Y130556D01*
X241962Y131948D01*
X239390Y134520D01*
X237998Y137881D01*
X237998Y141519D01*
X239390Y144880D01*
X241962Y147452D01*
X245323Y148844D01*
X248285Y148844D01*
X248582Y148904D01*
X248832Y149076D01*
X248996Y149331D01*
X249047Y149606D01*
X249047Y155194D01*
X248987Y155491D01*
X248815Y155741D01*
X248560Y155905D01*
X248285Y155956D01*
X245323Y155956D01*
X241962Y157348D01*
X239390Y159920D01*
X237998Y163281D01*
X237998Y166919D01*
X239390Y170280D01*
X241962Y172852D01*
X245323Y174244D01*
X248285Y174244D01*
X248582Y174304D01*
X248832Y174476D01*
X248996Y174731D01*
X249047Y175006D01*
X249047Y180594D01*
X248987Y180891D01*
X248815Y181141D01*
X248560Y181305D01*
X248285Y181356D01*
X245323Y181356D01*
X241962Y182748D01*
X239390Y185320D01*
X237998Y188681D01*
X237998Y192319D01*
X239390Y195680D01*
X241962Y198252D01*
X245323Y199644D01*
X248285Y199644D01*
X248582Y199704D01*
X248832Y199876D01*
X248996Y200131D01*
X249047Y200406D01*
X249047Y205994D01*
X248987Y206291D01*
X248815Y206541D01*
X248560Y206705D01*
X248285Y206756D01*
X238891Y206756D01*
X237967Y207680D01*
X237938Y207823D01*
X237766Y208073D01*
X237511Y208236D01*
X237212Y208287D01*
X236917Y208217D01*
X236697Y208064D01*
X231109Y202476D01*
X230942Y202223D01*
X230886Y201937D01*
X230886Y77010D01*
X212077Y58201D01*
X211910Y57949D01*
X211854Y57663D01*
X211854Y52989D01*
X210961Y52096D01*
X184299Y52096D01*
X183406Y52989D01*
X183406Y66951D01*
X184299Y67844D01*
X210961Y67844D01*
X211854Y66951D01*
X211854Y66284D01*
X211914Y65986D01*
X212086Y65736D01*
X212341Y65573D01*
X212640Y65522D01*
X212935Y65592D01*
X213155Y65745D01*
X226091Y78681D01*
X226258Y78934D01*
X226314Y79220D01*
X226314Y204147D01*
X237775Y215608D01*
X237942Y215861D01*
X237998Y216147D01*
X237998Y224151D01*
X238891Y225044D01*
X248285Y225044D01*
X248582Y225104D01*
X248832Y225276D01*
X248996Y225531D01*
X249047Y225806D01*
X249047Y248793D01*
X248987Y249090D01*
X248815Y249340D01*
X248560Y249504D01*
X248285Y249555D01*
X166129Y249555D01*
X165832Y249495D01*
X165582Y249323D01*
X165418Y249068D01*
X165368Y248769D01*
X165425Y248501D01*
X167290Y243999D01*
X167290Y237571D01*
X164830Y231631D01*
X160284Y227085D01*
X154344Y224625D01*
X148748Y224625D01*
X148450Y224565D01*
X148200Y224393D01*
X148037Y224138D01*
X147986Y223839D01*
X148056Y223544D01*
X148209Y223324D01*
X154686Y216847D01*
X154686Y204709D01*
X154746Y204412D01*
X154909Y204170D01*
X170338Y188741D01*
X170338Y156811D01*
X170398Y156513D01*
X170561Y156272D01*
X192766Y134067D01*
X193019Y133900D01*
X193305Y133844D01*
X210961Y133844D01*
X211854Y132951D01*
X211854Y118989D01*
X210961Y118096D01*
X184299Y118096D01*
X183406Y118989D01*
X183406Y132951D01*
X184299Y133844D01*
X184683Y133844D01*
X184981Y133904D01*
X185231Y134076D01*
X185394Y134331D01*
X185445Y134630D01*
X185375Y134925D01*
X185222Y135145D01*
X165766Y154601D01*
X165766Y170728D01*
X165706Y171025D01*
X165534Y171275D01*
X165279Y171438D01*
X164980Y171489D01*
X164685Y171420D01*
X164465Y171267D01*
X160284Y167085D01*
X154344Y164625D01*
X147916Y164625D01*
X141976Y167085D01*
X137430Y171631D01*
X134970Y177571D01*
X134970Y183999D01*
X137430Y189939D01*
X141976Y194485D01*
X147916Y196945D01*
X153829Y196945D01*
X154126Y197005D01*
X154376Y197177D01*
X154540Y197432D01*
X154590Y197731D01*
X154521Y198026D01*
X154368Y198246D01*
X150114Y202499D01*
X150114Y214637D01*
X150054Y214935D01*
X149891Y215176D01*
X143713Y221354D01*
X143460Y221521D01*
X143174Y221577D01*
X143174Y221577D01*
X132914Y231836D01*
X132661Y232004D01*
X132363Y232060D01*
X132067Y231994D01*
X131837Y231836D01*
X131761Y231761D01*
X108155Y231761D01*
X107857Y231701D01*
X107616Y231538D01*
X89692Y213614D01*
X82296Y213614D01*
X81999Y213554D01*
X81749Y213382D01*
X81585Y213127D01*
X81534Y212852D01*
X81534Y211586D01*
X75434Y205486D01*
X66806Y205486D01*
X60706Y211586D01*
X60706Y220214D01*
X66806Y226314D01*
X75434Y226314D01*
X81534Y220214D01*
X81534Y218948D01*
X81594Y218651D01*
X81766Y218401D01*
X82021Y218237D01*
X82296Y218186D01*
X87482Y218186D01*
X87780Y218246D01*
X88021Y218409D01*
X100072Y230460D01*
X100240Y230713D01*
X100295Y231011D01*
X100230Y231307D01*
X100055Y231555D01*
X99797Y231714D01*
X99533Y231761D01*
X95499Y231761D01*
X94606Y232654D01*
X94606Y248793D01*
X94546Y249090D01*
X94374Y249340D01*
X94119Y249504D01*
X93844Y249555D01*
X17399Y249555D01*
X17102Y249495D01*
X16852Y249323D01*
X16688Y249068D01*
X16637Y248793D01*
X16637Y226568D01*
X16697Y226271D01*
X16869Y226021D01*
X17124Y225857D01*
X17399Y225806D01*
X27555Y225806D01*
X28448Y224913D01*
X28448Y206887D01*
X27555Y205994D01*
X17399Y205994D01*
X17102Y205934D01*
X16852Y205762D01*
X16688Y205507D01*
X16637Y205232D01*
X16637Y200406D01*
X16697Y200109D01*
X16869Y199859D01*
X17124Y199695D01*
X17399Y199644D01*
X20361Y199644D01*
X23722Y198252D01*
X26294Y195680D01*
X27686Y192319D01*
X27686Y188681D01*
X26294Y185320D01*
X23722Y182748D01*
X20361Y181356D01*
X17399Y181356D01*
X17102Y181296D01*
X16852Y181124D01*
X16688Y180869D01*
X16637Y180594D01*
X16637Y175006D01*
X16697Y174709D01*
X16869Y174459D01*
X17124Y174295D01*
X17399Y174244D01*
X20361Y174244D01*
X23722Y172852D01*
X26294Y170280D01*
X27686Y166919D01*
X27686Y163281D01*
X26294Y159920D01*
X23722Y157348D01*
X20361Y155956D01*
X17399Y155956D01*
X17102Y155896D01*
X16852Y155724D01*
X16688Y155469D01*
X16637Y155194D01*
X16637Y149606D01*
X16697Y149309D01*
X16869Y149059D01*
X17124Y148895D01*
X17399Y148844D01*
X20361Y148844D01*
X23722Y147452D01*
X26294Y144880D01*
X27686Y141519D01*
X27686Y137881D01*
X26294Y134520D01*
X23722Y131948D01*
X20361Y130556D01*
X17399Y130556D01*
X17102Y130496D01*
X16852Y130324D01*
X16688Y130069D01*
X16637Y129794D01*
X16637Y124206D01*
X16697Y123909D01*
X16869Y123659D01*
X17124Y123495D01*
X17399Y123444D01*
X20361Y123444D01*
X23722Y122052D01*
X26294Y119480D01*
X27686Y116119D01*
X27686Y112481D01*
X26294Y109120D01*
X23722Y106548D01*
X20361Y105156D01*
X17399Y105156D01*
X17102Y105096D01*
X16852Y104924D01*
X16688Y104669D01*
X16637Y104394D01*
X16637Y98806D01*
X16697Y98509D01*
X16869Y98259D01*
X17124Y98095D01*
X17399Y98044D01*
X20361Y98044D01*
X23722Y96652D01*
X26294Y94080D01*
X27686Y90719D01*
X27686Y87081D01*
X26294Y83720D01*
X23722Y81148D01*
X20361Y79756D01*
X17399Y79756D01*
X17102Y79696D01*
X16852Y79524D01*
X16688Y79269D01*
X16637Y78994D01*
X16637Y73406D01*
X16697Y73109D01*
X16869Y72859D01*
X17124Y72695D01*
X17399Y72644D01*
X20361Y72644D01*
X23722Y71252D01*
X26294Y68680D01*
X27686Y65319D01*
X27686Y61681D01*
X26682Y59258D01*
X26624Y58960D01*
X26687Y58664D01*
X26847Y58427D01*
X44796Y40479D01*
X45049Y40312D01*
X45335Y40256D01*
X72644Y40256D01*
X72941Y40316D01*
X73191Y40488D01*
X73355Y40743D01*
X73406Y41018D01*
X73406Y44951D01*
X74299Y45844D01*
X100961Y45844D01*
X101854Y44951D01*
X101854Y30989D01*
X100961Y30096D01*
X74299Y30096D01*
X73406Y30989D01*
X73406Y34922D01*
X73346Y35219D01*
X73174Y35469D01*
X72919Y35633D01*
X72644Y35684D01*
X43125Y35684D01*
X23615Y55195D01*
X23362Y55362D01*
X23064Y55418D01*
X22784Y55360D01*
X20361Y54356D01*
X17399Y54356D01*
X17102Y54296D01*
X16852Y54124D01*
X16688Y53869D01*
X16637Y53594D01*
X16637Y49022D01*
X16697Y48725D01*
X16869Y48475D01*
X17124Y48311D01*
X17399Y48260D01*
X17780Y48260D01*
X17780Y27940D01*
X17399Y27940D01*
X17102Y27880D01*
X16852Y27708D01*
X16688Y27453D01*
X16637Y27178D01*
X16637Y11557D01*
X16697Y11260D01*
X16869Y11010D01*
X17124Y10846D01*
X17399Y10795D01*
X229655Y10795D01*
X229952Y10855D01*
G37*
%LPC*%
G36*
X170499Y211761D02*
X169606Y212654D01*
X169606Y228916D01*
X170499Y229809D01*
X206761Y229809D01*
X207654Y228916D01*
X207654Y212654D01*
X206761Y211761D01*
X170499Y211761D01*
G37*
G36*
X95499Y161761D02*
X94606Y162654D01*
X94606Y178916D01*
X95499Y179809D01*
X131761Y179809D01*
X132654Y178916D01*
X132654Y162654D01*
X131761Y161761D01*
X95499Y161761D01*
G37*
G36*
X162902Y83594D02*
X159794Y86702D01*
X159794Y90657D01*
X159734Y90955D01*
X159571Y91196D01*
X127306Y123461D01*
X127053Y123628D01*
X126767Y123684D01*
X102616Y123684D01*
X102319Y123624D01*
X102069Y123452D01*
X101905Y123197D01*
X101854Y122922D01*
X101854Y118989D01*
X100961Y118096D01*
X74299Y118096D01*
X73406Y118989D01*
X73406Y132951D01*
X74299Y133844D01*
X100961Y133844D01*
X101854Y132951D01*
X101854Y129018D01*
X101914Y128721D01*
X102086Y128471D01*
X102341Y128307D01*
X102616Y128256D01*
X128977Y128256D01*
X162804Y94429D01*
X163057Y94262D01*
X163343Y94206D01*
X167298Y94206D01*
X170406Y91098D01*
X170406Y86702D01*
X167298Y83594D01*
X162902Y83594D01*
G37*
G36*
X184299Y96096D02*
X183406Y96989D01*
X183406Y110951D01*
X184299Y111844D01*
X210961Y111844D01*
X211854Y110951D01*
X211854Y96989D01*
X210961Y96096D01*
X184299Y96096D01*
G37*
G36*
X74299Y96096D02*
X73406Y96989D01*
X73406Y110951D01*
X74299Y111844D01*
X100961Y111844D01*
X101854Y110951D01*
X101854Y107018D01*
X101914Y106721D01*
X102086Y106471D01*
X102341Y106307D01*
X102616Y106256D01*
X111137Y106256D01*
X111434Y106316D01*
X111675Y106479D01*
X112102Y106906D01*
X116498Y106906D01*
X119606Y103798D01*
X119606Y99402D01*
X116498Y96294D01*
X112102Y96294D01*
X108994Y99402D01*
X108994Y100922D01*
X108934Y101219D01*
X108762Y101469D01*
X108507Y101633D01*
X108232Y101684D01*
X102616Y101684D01*
X102319Y101624D01*
X102069Y101452D01*
X101905Y101197D01*
X101854Y100922D01*
X101854Y96989D01*
X100961Y96096D01*
X74299Y96096D01*
G37*
G36*
X184299Y74096D02*
X183406Y74989D01*
X183406Y88951D01*
X184299Y89844D01*
X210961Y89844D01*
X211854Y88951D01*
X211854Y74989D01*
X210961Y74096D01*
X184299Y74096D01*
G37*
G36*
X74299Y74096D02*
X73406Y74989D01*
X73406Y88951D01*
X74299Y89844D01*
X100961Y89844D01*
X101854Y88951D01*
X101854Y74989D01*
X100961Y74096D01*
X74299Y74096D01*
G37*
G36*
X74299Y52096D02*
X73406Y52989D01*
X73406Y66951D01*
X74299Y67844D01*
X100961Y67844D01*
X101854Y66951D01*
X101854Y52989D01*
X100961Y52096D01*
X74299Y52096D01*
G37*
G36*
X236982Y38862D02*
X236982Y40121D01*
X238529Y43855D01*
X241387Y46713D01*
X245121Y48260D01*
X246380Y48260D01*
X246380Y38862D01*
X236982Y38862D01*
G37*
G36*
X19304Y38862D02*
X19304Y48260D01*
X20563Y48260D01*
X24297Y46713D01*
X27155Y43855D01*
X28702Y40121D01*
X28702Y38862D01*
X19304Y38862D01*
G37*
G36*
X182390Y38732D02*
X182390Y45372D01*
X183878Y46860D01*
X196868Y46860D01*
X196868Y38732D01*
X182390Y38732D01*
G37*
G36*
X198392Y38732D02*
X198392Y46860D01*
X211382Y46860D01*
X212870Y45372D01*
X212870Y38732D01*
X198392Y38732D01*
G37*
G36*
X19304Y27940D02*
X19304Y37338D01*
X28702Y37338D01*
X28702Y36079D01*
X27155Y32345D01*
X24297Y29487D01*
X20563Y27940D01*
X19304Y27940D01*
G37*
G36*
X198392Y29080D02*
X198392Y37208D01*
X212870Y37208D01*
X212870Y30568D01*
X211382Y29080D01*
X198392Y29080D01*
G37*
G36*
X183878Y29080D02*
X182390Y30568D01*
X182390Y37208D01*
X196868Y37208D01*
X196868Y29080D01*
X183878Y29080D01*
G37*
%LPD*%
D10*
X87630Y125970D03*
X87630Y103970D03*
X87630Y81970D03*
X87630Y59970D03*
X87630Y37970D03*
X197630Y125970D03*
X197630Y103970D03*
X197630Y81970D03*
X197630Y59970D03*
X197630Y37970D03*
D11*
X18542Y215900D03*
D12*
X18542Y190500D03*
X18542Y165100D03*
X18542Y139700D03*
X18542Y114300D03*
X18542Y88900D03*
X18542Y63500D03*
X18542Y38100D03*
X247142Y38100D03*
X247142Y63500D03*
X247142Y88900D03*
X247142Y114300D03*
X247142Y139700D03*
X247142Y165100D03*
X247142Y190500D03*
D13*
X247142Y215900D03*
D14*
X113630Y240785D03*
X188630Y220785D03*
X113630Y170785D03*
D15*
X71120Y215900D03*
D16*
X247142Y38100D02*
X247012Y37970D01*
X197630Y37970D01*
X87630Y37970D02*
X44072Y37970D01*
X18542Y63500D01*
X168052Y155548D02*
X197630Y125970D01*
X152400Y203446D02*
X152400Y215900D01*
X168052Y187794D02*
X168052Y155548D01*
X168052Y187794D02*
X152400Y203446D01*
X152400Y215900D02*
X144437Y223863D01*
X144121Y223863D01*
X127199Y240785D02*
X113630Y240785D01*
X127199Y240785D02*
X144121Y223863D01*
X113630Y240785D02*
X88745Y215900D01*
X71120Y215900D01*
X198294Y60634D02*
X197630Y59970D01*
X198294Y60634D02*
X211277Y60634D01*
X228600Y77957D01*
X228600Y203200D01*
X241300Y215900D01*
X247142Y215900D01*
X111930Y103970D02*
X87630Y103970D01*
X111930Y103970D02*
X114300Y101600D01*
D17*
X114300Y101600D03*
D16*
X128030Y125970D02*
X87630Y125970D01*
X128030Y125970D02*
X165100Y88900D01*
D17*
X165100Y88900D03*
M02*
