G04 EAGLE Gerber RS-274X export*
G75*
%MOMM*%
%FSLAX34Y34*%
%LPD*%
%INSilkscreen Top*%
%IPPOS*%
%AMOC8*
5,1,8,0,0,1.08239X$1,22.5*%
G01*
G04 Define Apertures*
%ADD10C,0.101600*%
%ADD11R,9.525000X12.000000*%
%ADD12C,0.127000*%
G36*
X43942Y210681D02*
X41635Y211588D01*
X41635Y215184D01*
X43942Y216085D01*
X43942Y217177D01*
X36052Y214008D01*
X36052Y212792D01*
X43942Y209572D01*
X43942Y210681D01*
G37*
G36*
X43942Y219068D02*
X38700Y219068D01*
X37765Y219040D01*
X37222Y219012D01*
X43942Y223234D01*
X43942Y224522D01*
X36052Y224522D01*
X36052Y223559D01*
X41226Y223559D01*
X41870Y223576D01*
X42816Y223626D01*
X36052Y219359D01*
X36052Y218116D01*
X43942Y218116D01*
X43942Y219068D01*
G37*
%LPC*%
G36*
X38208Y212921D02*
X37545Y213162D01*
X37015Y213336D01*
X36858Y213386D01*
X37323Y213537D01*
X37785Y213694D01*
X38196Y213851D01*
X40800Y214864D01*
X40800Y211913D01*
X38208Y212921D01*
G37*
%LPD*%
G36*
X43688Y181080D02*
X40412Y181080D01*
X40412Y183539D01*
X43688Y185588D01*
X43688Y186820D01*
X41736Y185534D01*
X40289Y184580D01*
X40243Y184800D01*
X40183Y185007D01*
X40109Y185202D01*
X40021Y185385D01*
X39962Y185484D01*
X39920Y185555D01*
X39805Y185714D01*
X39676Y185860D01*
X39533Y185994D01*
X39379Y186114D01*
X39216Y186219D01*
X39044Y186307D01*
X38864Y186379D01*
X38674Y186435D01*
X38477Y186475D01*
X38270Y186499D01*
X38054Y186507D01*
X37796Y186495D01*
X37552Y186461D01*
X37322Y186405D01*
X37107Y186325D01*
X36907Y186223D01*
X36721Y186099D01*
X36550Y185952D01*
X36394Y185782D01*
X36254Y185591D01*
X36133Y185381D01*
X36031Y185152D01*
X35947Y184904D01*
X35882Y184638D01*
X35835Y184352D01*
X35807Y184047D01*
X35798Y183724D01*
X35798Y180011D01*
X43688Y180011D01*
X43688Y181080D01*
G37*
G36*
X42038Y187939D02*
X42265Y188025D01*
X42477Y188129D01*
X42672Y188253D01*
X42852Y188396D01*
X43017Y188557D01*
X43166Y188738D01*
X43299Y188937D01*
X43416Y189156D01*
X43518Y189393D01*
X43604Y189650D01*
X43675Y189925D01*
X43730Y190219D01*
X43769Y190532D01*
X43792Y190864D01*
X43800Y191215D01*
X43791Y191592D01*
X43763Y191947D01*
X43716Y192281D01*
X43650Y192592D01*
X43566Y192882D01*
X43463Y193150D01*
X43341Y193396D01*
X43201Y193620D01*
X43043Y193821D01*
X42870Y193994D01*
X42682Y194141D01*
X42478Y194261D01*
X42259Y194354D01*
X42025Y194421D01*
X41775Y194461D01*
X41510Y194474D01*
X41301Y194467D01*
X41106Y194444D01*
X40926Y194407D01*
X40759Y194354D01*
X40461Y194211D01*
X40205Y194021D01*
X39988Y193789D01*
X39807Y193520D01*
X39655Y193221D01*
X39524Y192901D01*
X39412Y192563D01*
X39317Y192209D01*
X39146Y191484D01*
X38925Y190578D01*
X38828Y190261D01*
X38740Y190034D01*
X38653Y189862D01*
X38557Y189712D01*
X38452Y189584D01*
X38337Y189476D01*
X38210Y189392D01*
X38068Y189332D01*
X37909Y189295D01*
X37735Y189283D01*
X37585Y189291D01*
X37444Y189314D01*
X37312Y189353D01*
X37191Y189408D01*
X37079Y189478D01*
X36976Y189564D01*
X36883Y189665D01*
X36800Y189782D01*
X36663Y190059D01*
X36565Y190392D01*
X36506Y190781D01*
X36486Y191226D01*
X36504Y191634D01*
X36557Y191995D01*
X36646Y192309D01*
X36769Y192576D01*
X36932Y192800D01*
X37138Y192985D01*
X37387Y193130D01*
X37679Y193237D01*
X37494Y194290D01*
X37256Y194212D01*
X37035Y194120D01*
X36833Y194016D01*
X36648Y193898D01*
X36482Y193766D01*
X36334Y193622D01*
X36204Y193464D01*
X36092Y193293D01*
X35995Y193105D01*
X35912Y192898D01*
X35841Y192670D01*
X35783Y192423D01*
X35738Y192157D01*
X35706Y191870D01*
X35686Y191564D01*
X35680Y191238D01*
X35689Y190887D01*
X35714Y190557D01*
X35757Y190248D01*
X35817Y189960D01*
X35894Y189693D01*
X35989Y189447D01*
X36100Y189222D01*
X36229Y189017D01*
X36373Y188835D01*
X36532Y188678D01*
X36706Y188545D01*
X36894Y188436D01*
X37096Y188351D01*
X37314Y188290D01*
X37545Y188254D01*
X37791Y188242D01*
X38006Y188251D01*
X38208Y188279D01*
X38398Y188325D01*
X38575Y188390D01*
X38741Y188472D01*
X38895Y188571D01*
X39039Y188687D01*
X39172Y188818D01*
X39296Y188971D01*
X39415Y189150D01*
X39527Y189353D01*
X39634Y189583D01*
X39737Y189853D01*
X39841Y190180D01*
X40048Y191002D01*
X40278Y191982D01*
X40397Y192394D01*
X40541Y192744D01*
X40624Y192895D01*
X40719Y193028D01*
X40823Y193142D01*
X40938Y193240D01*
X41068Y193317D01*
X41216Y193372D01*
X41382Y193405D01*
X41566Y193416D01*
X41733Y193407D01*
X41889Y193381D01*
X42035Y193337D01*
X42171Y193275D01*
X42296Y193196D01*
X42411Y193099D01*
X42516Y192985D01*
X42610Y192853D01*
X42693Y192705D01*
X42766Y192542D01*
X42827Y192365D01*
X42877Y192172D01*
X42943Y191743D01*
X42966Y191254D01*
X42945Y190779D01*
X42882Y190357D01*
X42778Y189987D01*
X42632Y189670D01*
X42543Y189530D01*
X42442Y189404D01*
X42329Y189290D01*
X42205Y189188D01*
X42068Y189099D01*
X41920Y189023D01*
X41760Y188959D01*
X41588Y188908D01*
X41795Y187872D01*
X42038Y187939D01*
G37*
G36*
X36671Y197944D02*
X43688Y197944D01*
X43688Y199008D01*
X36671Y199008D01*
X36671Y201719D01*
X35798Y201719D01*
X35798Y195234D01*
X36671Y195234D01*
X36671Y197944D01*
G37*
%LPC*%
G36*
X36654Y181080D02*
X36654Y183617D01*
X36677Y184031D01*
X36745Y184393D01*
X36858Y184704D01*
X36931Y184841D01*
X37016Y184964D01*
X37111Y185074D01*
X37217Y185169D01*
X37333Y185249D01*
X37459Y185315D01*
X37595Y185366D01*
X37742Y185402D01*
X37899Y185424D01*
X38066Y185432D01*
X38239Y185424D01*
X38401Y185403D01*
X38555Y185367D01*
X38698Y185316D01*
X38831Y185251D01*
X38954Y185172D01*
X39068Y185078D01*
X39172Y184970D01*
X39264Y184848D01*
X39344Y184715D01*
X39412Y184569D01*
X39468Y184412D01*
X39511Y184242D01*
X39542Y184061D01*
X39560Y183867D01*
X39566Y183662D01*
X39566Y181080D01*
X36654Y181080D01*
G37*
%LPD*%
G36*
X42292Y165079D02*
X42519Y165165D01*
X42731Y165269D01*
X42926Y165393D01*
X43106Y165536D01*
X43271Y165697D01*
X43420Y165878D01*
X43553Y166077D01*
X43670Y166296D01*
X43772Y166533D01*
X43858Y166790D01*
X43929Y167065D01*
X43984Y167359D01*
X44023Y167672D01*
X44046Y168004D01*
X44054Y168355D01*
X44045Y168732D01*
X44017Y169087D01*
X43970Y169421D01*
X43904Y169732D01*
X43820Y170022D01*
X43717Y170290D01*
X43595Y170536D01*
X43455Y170760D01*
X43297Y170961D01*
X43124Y171134D01*
X42936Y171281D01*
X42732Y171401D01*
X42513Y171494D01*
X42279Y171561D01*
X42029Y171601D01*
X41764Y171614D01*
X41555Y171607D01*
X41360Y171584D01*
X41180Y171547D01*
X41013Y171494D01*
X40715Y171351D01*
X40459Y171161D01*
X40242Y170929D01*
X40061Y170660D01*
X39909Y170361D01*
X39778Y170041D01*
X39666Y169703D01*
X39571Y169349D01*
X39400Y168624D01*
X39179Y167718D01*
X39082Y167401D01*
X38994Y167174D01*
X38907Y167002D01*
X38811Y166852D01*
X38706Y166724D01*
X38591Y166616D01*
X38464Y166532D01*
X38322Y166472D01*
X38163Y166435D01*
X37989Y166423D01*
X37839Y166431D01*
X37698Y166454D01*
X37566Y166493D01*
X37445Y166548D01*
X37333Y166618D01*
X37230Y166704D01*
X37137Y166805D01*
X37054Y166922D01*
X36917Y167199D01*
X36819Y167532D01*
X36760Y167921D01*
X36740Y168366D01*
X36758Y168774D01*
X36811Y169135D01*
X36900Y169449D01*
X37023Y169716D01*
X37186Y169940D01*
X37392Y170125D01*
X37641Y170270D01*
X37933Y170377D01*
X37748Y171430D01*
X37510Y171352D01*
X37289Y171260D01*
X37087Y171156D01*
X36902Y171038D01*
X36736Y170906D01*
X36588Y170762D01*
X36458Y170604D01*
X36346Y170433D01*
X36249Y170245D01*
X36166Y170038D01*
X36095Y169810D01*
X36037Y169563D01*
X35992Y169297D01*
X35960Y169010D01*
X35940Y168704D01*
X35934Y168378D01*
X35943Y168027D01*
X35968Y167697D01*
X36011Y167388D01*
X36071Y167100D01*
X36148Y166833D01*
X36243Y166587D01*
X36354Y166362D01*
X36483Y166157D01*
X36627Y165975D01*
X36786Y165818D01*
X36960Y165685D01*
X37148Y165576D01*
X37350Y165491D01*
X37568Y165430D01*
X37799Y165394D01*
X38045Y165382D01*
X38260Y165391D01*
X38462Y165419D01*
X38652Y165465D01*
X38829Y165530D01*
X38995Y165612D01*
X39149Y165711D01*
X39293Y165827D01*
X39426Y165958D01*
X39550Y166111D01*
X39669Y166290D01*
X39781Y166493D01*
X39888Y166723D01*
X39991Y166993D01*
X40095Y167320D01*
X40302Y168142D01*
X40532Y169122D01*
X40651Y169534D01*
X40795Y169884D01*
X40878Y170035D01*
X40973Y170168D01*
X41077Y170282D01*
X41192Y170380D01*
X41322Y170457D01*
X41470Y170512D01*
X41636Y170545D01*
X41820Y170556D01*
X41987Y170547D01*
X42143Y170521D01*
X42289Y170477D01*
X42425Y170415D01*
X42550Y170336D01*
X42665Y170239D01*
X42770Y170125D01*
X42864Y169993D01*
X42947Y169845D01*
X43020Y169682D01*
X43081Y169505D01*
X43131Y169312D01*
X43197Y168883D01*
X43220Y168394D01*
X43199Y167919D01*
X43136Y167497D01*
X43032Y167127D01*
X42886Y166810D01*
X42797Y166670D01*
X42696Y166544D01*
X42583Y166430D01*
X42459Y166328D01*
X42322Y166239D01*
X42174Y166163D01*
X42014Y166099D01*
X41842Y166048D01*
X42049Y165012D01*
X42292Y165079D01*
G37*
G36*
X40270Y156800D02*
X40569Y156821D01*
X40858Y156857D01*
X41136Y156906D01*
X41403Y156971D01*
X41660Y157049D01*
X41906Y157142D01*
X42142Y157249D01*
X42365Y157369D01*
X42576Y157503D01*
X42773Y157649D01*
X42956Y157809D01*
X43127Y157981D01*
X43284Y158166D01*
X43428Y158365D01*
X43558Y158576D01*
X43675Y158799D01*
X43775Y159032D01*
X43860Y159274D01*
X43930Y159527D01*
X43984Y159790D01*
X44023Y160063D01*
X44046Y160346D01*
X44054Y160640D01*
X44046Y160926D01*
X44021Y161204D01*
X43979Y161473D01*
X43921Y161734D01*
X43846Y161985D01*
X43755Y162228D01*
X43647Y162461D01*
X43522Y162686D01*
X43381Y162901D01*
X43226Y163103D01*
X43055Y163292D01*
X42868Y163470D01*
X42667Y163635D01*
X42450Y163787D01*
X42218Y163928D01*
X41971Y164056D01*
X41534Y163182D01*
X41919Y162961D01*
X42252Y162713D01*
X42534Y162440D01*
X42765Y162142D01*
X42944Y161817D01*
X43072Y161467D01*
X43117Y161283D01*
X43149Y161092D01*
X43168Y160894D01*
X43175Y160690D01*
X43161Y160375D01*
X43120Y160077D01*
X43051Y159795D01*
X42954Y159530D01*
X42830Y159282D01*
X42679Y159050D01*
X42500Y158836D01*
X42293Y158638D01*
X42063Y158460D01*
X41816Y158306D01*
X41551Y158175D01*
X41269Y158068D01*
X40968Y157985D01*
X40650Y157926D01*
X40314Y157891D01*
X39960Y157879D01*
X39603Y157890D01*
X39266Y157924D01*
X38948Y157981D01*
X38649Y158061D01*
X38370Y158163D01*
X38111Y158288D01*
X37871Y158436D01*
X37650Y158607D01*
X37453Y158798D01*
X37282Y159007D01*
X37137Y159235D01*
X37018Y159480D01*
X36926Y159744D01*
X36860Y160026D01*
X36821Y160327D01*
X36808Y160645D01*
X36830Y161048D01*
X36899Y161423D01*
X37012Y161769D01*
X37172Y162087D01*
X37374Y162370D01*
X37617Y162611D01*
X37900Y162811D01*
X38224Y162969D01*
X37888Y163983D01*
X37654Y163876D01*
X37434Y163756D01*
X37229Y163622D01*
X37039Y163473D01*
X36863Y163311D01*
X36703Y163134D01*
X36558Y162944D01*
X36427Y162740D01*
X36311Y162522D01*
X36211Y162291D01*
X36127Y162047D01*
X36057Y161790D01*
X36003Y161521D01*
X35965Y161238D01*
X35942Y160943D01*
X35934Y160634D01*
X35951Y160195D01*
X36001Y159781D01*
X36084Y159392D01*
X36201Y159027D01*
X36352Y158686D01*
X36536Y158370D01*
X36753Y158079D01*
X37004Y157812D01*
X37284Y157573D01*
X37590Y157366D01*
X37921Y157191D01*
X38278Y157047D01*
X38660Y156936D01*
X39068Y156856D01*
X39501Y156808D01*
X39960Y156792D01*
X40270Y156800D01*
G37*
G36*
X42292Y131398D02*
X42519Y131483D01*
X42731Y131588D01*
X42926Y131712D01*
X43106Y131855D01*
X43271Y132016D01*
X43420Y132197D01*
X43553Y132396D01*
X43670Y132615D01*
X43772Y132852D01*
X43858Y133108D01*
X43929Y133384D01*
X43984Y133678D01*
X44023Y133991D01*
X44046Y134323D01*
X44054Y134674D01*
X44045Y135051D01*
X44017Y135406D01*
X43970Y135739D01*
X43904Y136051D01*
X43820Y136341D01*
X43717Y136609D01*
X43595Y136855D01*
X43455Y137079D01*
X43297Y137279D01*
X43124Y137453D01*
X42936Y137600D01*
X42732Y137720D01*
X42513Y137813D01*
X42279Y137880D01*
X42029Y137920D01*
X41764Y137933D01*
X41555Y137926D01*
X41360Y137903D01*
X41180Y137865D01*
X41013Y137813D01*
X40715Y137669D01*
X40459Y137480D01*
X40242Y137248D01*
X40061Y136978D01*
X39909Y136679D01*
X39778Y136360D01*
X39666Y136021D01*
X39571Y135668D01*
X39400Y134943D01*
X39179Y134037D01*
X39082Y133720D01*
X38994Y133492D01*
X38907Y133321D01*
X38811Y133171D01*
X38706Y133042D01*
X38591Y132935D01*
X38464Y132851D01*
X38322Y132790D01*
X38163Y132754D01*
X37989Y132742D01*
X37839Y132750D01*
X37698Y132773D01*
X37566Y132812D01*
X37445Y132867D01*
X37333Y132937D01*
X37230Y133022D01*
X37137Y133124D01*
X37054Y133240D01*
X36917Y133518D01*
X36819Y133851D01*
X36760Y134240D01*
X36740Y134685D01*
X36758Y135093D01*
X36811Y135454D01*
X36900Y135768D01*
X37023Y136035D01*
X37186Y136259D01*
X37392Y136444D01*
X37641Y136589D01*
X37933Y136696D01*
X37748Y137748D01*
X37510Y137670D01*
X37289Y137579D01*
X37087Y137474D01*
X36902Y137356D01*
X36736Y137225D01*
X36588Y137081D01*
X36458Y136923D01*
X36346Y136752D01*
X36249Y136564D01*
X36166Y136356D01*
X36095Y136129D01*
X36037Y135882D01*
X35992Y135615D01*
X35960Y135329D01*
X35940Y135022D01*
X35934Y134696D01*
X35943Y134346D01*
X35968Y134016D01*
X36011Y133707D01*
X36071Y133419D01*
X36148Y133152D01*
X36243Y132906D01*
X36354Y132680D01*
X36483Y132476D01*
X36627Y132294D01*
X36786Y132137D01*
X36960Y132003D01*
X37148Y131894D01*
X37350Y131809D01*
X37568Y131749D01*
X37799Y131713D01*
X38045Y131700D01*
X38260Y131710D01*
X38462Y131737D01*
X38652Y131784D01*
X38829Y131849D01*
X38995Y131931D01*
X39149Y132030D01*
X39293Y132145D01*
X39426Y132277D01*
X39550Y132430D01*
X39669Y132608D01*
X39781Y132812D01*
X39888Y133042D01*
X39991Y133312D01*
X40095Y133639D01*
X40302Y134461D01*
X40532Y135441D01*
X40651Y135853D01*
X40795Y136203D01*
X40878Y136353D01*
X40973Y136486D01*
X41077Y136601D01*
X41192Y136698D01*
X41322Y136776D01*
X41470Y136831D01*
X41636Y136864D01*
X41820Y136875D01*
X41987Y136866D01*
X42143Y136840D01*
X42289Y136796D01*
X42425Y136734D01*
X42550Y136655D01*
X42665Y136558D01*
X42770Y136444D01*
X42864Y136312D01*
X42947Y136164D01*
X43020Y136001D01*
X43081Y135823D01*
X43131Y135631D01*
X43197Y135202D01*
X43220Y134713D01*
X43199Y134238D01*
X43136Y133816D01*
X43032Y133446D01*
X42886Y133128D01*
X42797Y132989D01*
X42696Y132862D01*
X42583Y132748D01*
X42459Y132647D01*
X42322Y132558D01*
X42174Y132482D01*
X42014Y132418D01*
X41842Y132367D01*
X42049Y131331D01*
X42292Y131398D01*
G37*
G36*
X43942Y148727D02*
X40918Y148727D01*
X40134Y149757D01*
X43942Y152910D01*
X43942Y154237D01*
X39479Y150429D01*
X36052Y153789D01*
X36052Y152529D01*
X40005Y148727D01*
X36052Y148727D01*
X36052Y147657D01*
X43942Y147657D01*
X43942Y148727D01*
G37*
G36*
X40270Y139025D02*
X40569Y139046D01*
X40858Y139082D01*
X41136Y139131D01*
X41403Y139196D01*
X41660Y139274D01*
X41906Y139367D01*
X42142Y139474D01*
X42365Y139594D01*
X42576Y139728D01*
X42773Y139874D01*
X42956Y140034D01*
X43127Y140206D01*
X43284Y140391D01*
X43428Y140590D01*
X43558Y140801D01*
X43675Y141024D01*
X43775Y141257D01*
X43860Y141499D01*
X43930Y141752D01*
X43984Y142015D01*
X44023Y142288D01*
X44046Y142571D01*
X44054Y142865D01*
X44046Y143151D01*
X44021Y143429D01*
X43979Y143698D01*
X43921Y143959D01*
X43846Y144210D01*
X43755Y144453D01*
X43647Y144686D01*
X43522Y144911D01*
X43381Y145126D01*
X43226Y145328D01*
X43055Y145517D01*
X42868Y145695D01*
X42667Y145860D01*
X42450Y146012D01*
X42218Y146153D01*
X41971Y146281D01*
X41534Y145407D01*
X41919Y145186D01*
X42252Y144938D01*
X42534Y144665D01*
X42765Y144367D01*
X42944Y144042D01*
X43072Y143692D01*
X43117Y143508D01*
X43149Y143317D01*
X43168Y143119D01*
X43175Y142915D01*
X43161Y142600D01*
X43120Y142302D01*
X43051Y142020D01*
X42954Y141755D01*
X42830Y141507D01*
X42679Y141275D01*
X42500Y141061D01*
X42293Y140863D01*
X42063Y140685D01*
X41816Y140531D01*
X41551Y140400D01*
X41269Y140293D01*
X40968Y140210D01*
X40650Y140151D01*
X40314Y140116D01*
X39960Y140104D01*
X39603Y140115D01*
X39266Y140149D01*
X38948Y140206D01*
X38649Y140286D01*
X38370Y140388D01*
X38111Y140513D01*
X37871Y140661D01*
X37650Y140832D01*
X37453Y141023D01*
X37282Y141232D01*
X37137Y141460D01*
X37018Y141705D01*
X36926Y141969D01*
X36860Y142251D01*
X36821Y142552D01*
X36808Y142870D01*
X36830Y143273D01*
X36899Y143648D01*
X37012Y143994D01*
X37172Y144312D01*
X37374Y144595D01*
X37617Y144836D01*
X37900Y145036D01*
X38224Y145194D01*
X37888Y146208D01*
X37654Y146101D01*
X37434Y145981D01*
X37229Y145847D01*
X37039Y145698D01*
X36863Y145536D01*
X36703Y145359D01*
X36558Y145169D01*
X36427Y144965D01*
X36311Y144747D01*
X36211Y144516D01*
X36127Y144272D01*
X36057Y144015D01*
X36003Y143746D01*
X35965Y143463D01*
X35942Y143168D01*
X35934Y142859D01*
X35951Y142420D01*
X36001Y142006D01*
X36084Y141617D01*
X36201Y141252D01*
X36352Y140911D01*
X36536Y140595D01*
X36753Y140304D01*
X37004Y140037D01*
X37284Y139798D01*
X37590Y139591D01*
X37921Y139416D01*
X38278Y139272D01*
X38660Y139161D01*
X39068Y139081D01*
X39501Y139033D01*
X39960Y139017D01*
X40270Y139025D01*
G37*
G36*
X40266Y118057D02*
X40563Y118078D01*
X40849Y118115D01*
X41126Y118166D01*
X41393Y118231D01*
X41650Y118311D01*
X41898Y118405D01*
X42136Y118514D01*
X42362Y118637D01*
X42575Y118773D01*
X42774Y118922D01*
X42959Y119083D01*
X43130Y119258D01*
X43287Y119446D01*
X43431Y119647D01*
X43561Y119861D01*
X43677Y120087D01*
X43777Y120323D01*
X43862Y120569D01*
X43931Y120826D01*
X43985Y121094D01*
X44023Y121371D01*
X44046Y121660D01*
X44054Y121958D01*
X44046Y122254D01*
X44023Y122540D01*
X43984Y122816D01*
X43929Y123082D01*
X43859Y123339D01*
X43774Y123585D01*
X43672Y123821D01*
X43556Y124047D01*
X43424Y124262D01*
X43279Y124464D01*
X43121Y124653D01*
X42949Y124829D01*
X42764Y124992D01*
X42565Y125143D01*
X42353Y125280D01*
X42128Y125405D01*
X41890Y125516D01*
X41644Y125612D01*
X41387Y125693D01*
X41121Y125760D01*
X40845Y125812D01*
X40560Y125849D01*
X40265Y125871D01*
X39960Y125878D01*
X39655Y125871D01*
X39360Y125849D01*
X39075Y125812D01*
X38800Y125761D01*
X38536Y125696D01*
X38282Y125615D01*
X38038Y125520D01*
X37804Y125411D01*
X37583Y125287D01*
X37375Y125151D01*
X37181Y125001D01*
X37000Y124839D01*
X36833Y124663D01*
X36679Y124475D01*
X36539Y124273D01*
X36413Y124058D01*
X36301Y123832D01*
X36203Y123596D01*
X36121Y123350D01*
X36054Y123094D01*
X36001Y122828D01*
X35964Y122551D01*
X35942Y122265D01*
X35934Y121969D01*
X35951Y121520D01*
X36001Y121096D01*
X36084Y120698D01*
X36201Y120324D01*
X36351Y119977D01*
X36534Y119654D01*
X36751Y119357D01*
X37001Y119085D01*
X37280Y118843D01*
X37586Y118632D01*
X37917Y118454D01*
X38274Y118308D01*
X38657Y118195D01*
X39066Y118114D01*
X39500Y118066D01*
X39960Y118049D01*
X40266Y118057D01*
G37*
G36*
X43942Y113117D02*
X43934Y113398D01*
X43912Y113671D01*
X43874Y113936D01*
X43820Y114192D01*
X43752Y114440D01*
X43668Y114679D01*
X43569Y114910D01*
X43455Y115133D01*
X43326Y115345D01*
X43184Y115545D01*
X43029Y115732D01*
X42861Y115907D01*
X42678Y116070D01*
X42483Y116220D01*
X42274Y116357D01*
X42052Y116483D01*
X41818Y116594D01*
X41575Y116691D01*
X41322Y116773D01*
X41060Y116840D01*
X40788Y116892D01*
X40507Y116929D01*
X40216Y116951D01*
X39916Y116959D01*
X39466Y116942D01*
X39042Y116890D01*
X38645Y116805D01*
X38274Y116686D01*
X37930Y116533D01*
X37612Y116346D01*
X37321Y116125D01*
X37057Y115869D01*
X36821Y115583D01*
X36617Y115268D01*
X36444Y114924D01*
X36303Y114551D01*
X36193Y114150D01*
X36114Y113721D01*
X36067Y113262D01*
X36052Y112775D01*
X36052Y110166D01*
X43942Y110166D01*
X43942Y113117D01*
G37*
%LPC*%
G36*
X39597Y119147D02*
X39255Y119182D01*
X38933Y119240D01*
X38632Y119321D01*
X38352Y119425D01*
X38093Y119552D01*
X37854Y119702D01*
X37636Y119875D01*
X37442Y120069D01*
X37274Y120283D01*
X37131Y120516D01*
X37015Y120768D01*
X36924Y121040D01*
X36859Y121330D01*
X36821Y121640D01*
X36808Y121969D01*
X36821Y122296D01*
X36860Y122603D01*
X36926Y122892D01*
X37018Y123162D01*
X37136Y123412D01*
X37280Y123644D01*
X37451Y123856D01*
X37648Y124050D01*
X37868Y124222D01*
X38107Y124372D01*
X38367Y124499D01*
X38646Y124602D01*
X38945Y124683D01*
X39264Y124740D01*
X39602Y124775D01*
X39960Y124786D01*
X40335Y124775D01*
X40687Y124741D01*
X41017Y124683D01*
X41326Y124604D01*
X41613Y124501D01*
X41878Y124375D01*
X42122Y124227D01*
X42343Y124055D01*
X42541Y123863D01*
X42712Y123650D01*
X42857Y123418D01*
X42975Y123166D01*
X43068Y122894D01*
X43133Y122602D01*
X43173Y122290D01*
X43186Y121958D01*
X43172Y121635D01*
X43132Y121331D01*
X43064Y121044D01*
X42968Y120776D01*
X42846Y120526D01*
X42696Y120293D01*
X42519Y120079D01*
X42315Y119883D01*
X42088Y119708D01*
X41842Y119556D01*
X41576Y119428D01*
X41291Y119323D01*
X40987Y119241D01*
X40664Y119183D01*
X40322Y119148D01*
X39960Y119136D01*
X39597Y119147D01*
G37*
G36*
X36908Y111235D02*
X36908Y112753D01*
X36920Y113123D01*
X36957Y113470D01*
X37017Y113794D01*
X37101Y114096D01*
X37209Y114376D01*
X37342Y114633D01*
X37498Y114868D01*
X37678Y115080D01*
X37882Y115268D01*
X38107Y115431D01*
X38354Y115569D01*
X38623Y115682D01*
X38913Y115770D01*
X39226Y115833D01*
X39560Y115871D01*
X39916Y115883D01*
X40387Y115861D01*
X40826Y115795D01*
X41232Y115685D01*
X41607Y115531D01*
X41944Y115335D01*
X42240Y115101D01*
X42493Y114830D01*
X42704Y114520D01*
X42871Y114178D01*
X42990Y113809D01*
X43061Y113415D01*
X43085Y112994D01*
X43085Y111235D01*
X36908Y111235D01*
G37*
%LPD*%
G36*
X42292Y102188D02*
X42519Y102273D01*
X42731Y102378D01*
X42926Y102502D01*
X43106Y102645D01*
X43271Y102806D01*
X43420Y102987D01*
X43553Y103186D01*
X43670Y103405D01*
X43772Y103642D01*
X43858Y103898D01*
X43929Y104174D01*
X43984Y104468D01*
X44023Y104781D01*
X44046Y105113D01*
X44054Y105464D01*
X44045Y105841D01*
X44017Y106196D01*
X43970Y106529D01*
X43904Y106841D01*
X43820Y107131D01*
X43717Y107399D01*
X43595Y107645D01*
X43455Y107869D01*
X43297Y108069D01*
X43124Y108243D01*
X42936Y108390D01*
X42732Y108510D01*
X42513Y108603D01*
X42279Y108670D01*
X42029Y108710D01*
X41764Y108723D01*
X41555Y108716D01*
X41360Y108693D01*
X41180Y108655D01*
X41013Y108603D01*
X40715Y108459D01*
X40459Y108270D01*
X40242Y108038D01*
X40061Y107768D01*
X39909Y107469D01*
X39778Y107150D01*
X39666Y106811D01*
X39571Y106458D01*
X39400Y105733D01*
X39179Y104827D01*
X39082Y104510D01*
X38994Y104282D01*
X38907Y104111D01*
X38811Y103961D01*
X38706Y103832D01*
X38591Y103725D01*
X38464Y103641D01*
X38322Y103580D01*
X38163Y103544D01*
X37989Y103532D01*
X37839Y103540D01*
X37698Y103563D01*
X37566Y103602D01*
X37445Y103657D01*
X37333Y103727D01*
X37230Y103812D01*
X37137Y103914D01*
X37054Y104030D01*
X36917Y104308D01*
X36819Y104641D01*
X36760Y105030D01*
X36740Y105475D01*
X36758Y105883D01*
X36811Y106244D01*
X36900Y106558D01*
X37023Y106825D01*
X37186Y107049D01*
X37392Y107234D01*
X37641Y107379D01*
X37933Y107486D01*
X37748Y108538D01*
X37510Y108460D01*
X37289Y108369D01*
X37087Y108264D01*
X36902Y108146D01*
X36736Y108015D01*
X36588Y107871D01*
X36458Y107713D01*
X36346Y107542D01*
X36249Y107354D01*
X36166Y107146D01*
X36095Y106919D01*
X36037Y106672D01*
X35992Y106405D01*
X35960Y106119D01*
X35940Y105812D01*
X35934Y105486D01*
X35943Y105136D01*
X35968Y104806D01*
X36011Y104497D01*
X36071Y104209D01*
X36148Y103942D01*
X36243Y103696D01*
X36354Y103470D01*
X36483Y103266D01*
X36627Y103084D01*
X36786Y102927D01*
X36960Y102793D01*
X37148Y102684D01*
X37350Y102599D01*
X37568Y102539D01*
X37799Y102503D01*
X38045Y102490D01*
X38260Y102500D01*
X38462Y102527D01*
X38652Y102574D01*
X38829Y102639D01*
X38995Y102721D01*
X39149Y102820D01*
X39293Y102935D01*
X39426Y103067D01*
X39550Y103220D01*
X39669Y103398D01*
X39781Y103602D01*
X39888Y103832D01*
X39991Y104102D01*
X40095Y104429D01*
X40302Y105251D01*
X40532Y106231D01*
X40651Y106643D01*
X40795Y106993D01*
X40878Y107143D01*
X40973Y107276D01*
X41077Y107391D01*
X41192Y107488D01*
X41322Y107566D01*
X41470Y107621D01*
X41636Y107654D01*
X41820Y107665D01*
X41987Y107656D01*
X42143Y107630D01*
X42289Y107586D01*
X42425Y107524D01*
X42550Y107445D01*
X42665Y107348D01*
X42770Y107234D01*
X42864Y107102D01*
X42947Y106954D01*
X43020Y106791D01*
X43081Y106613D01*
X43131Y106421D01*
X43197Y105992D01*
X43220Y105503D01*
X43199Y105028D01*
X43136Y104606D01*
X43032Y104236D01*
X42886Y103918D01*
X42797Y103779D01*
X42696Y103652D01*
X42583Y103538D01*
X42459Y103437D01*
X42322Y103348D01*
X42174Y103272D01*
X42014Y103208D01*
X41842Y103157D01*
X42049Y102121D01*
X42292Y102188D01*
G37*
G36*
X45212Y91527D02*
X45204Y91808D01*
X45182Y92081D01*
X45144Y92346D01*
X45090Y92602D01*
X45022Y92850D01*
X44938Y93089D01*
X44839Y93320D01*
X44725Y93543D01*
X44596Y93755D01*
X44454Y93955D01*
X44299Y94142D01*
X44131Y94317D01*
X43948Y94480D01*
X43753Y94630D01*
X43544Y94767D01*
X43322Y94893D01*
X43088Y95004D01*
X42845Y95101D01*
X42592Y95183D01*
X42330Y95250D01*
X42058Y95302D01*
X41777Y95339D01*
X41486Y95361D01*
X41186Y95369D01*
X40736Y95352D01*
X40312Y95300D01*
X39915Y95215D01*
X39544Y95096D01*
X39200Y94943D01*
X38882Y94756D01*
X38591Y94535D01*
X38327Y94279D01*
X38091Y93993D01*
X37887Y93678D01*
X37714Y93334D01*
X37573Y92961D01*
X37463Y92560D01*
X37384Y92131D01*
X37337Y91672D01*
X37322Y91185D01*
X37322Y88576D01*
X45212Y88576D01*
X45212Y91527D01*
G37*
%LPC*%
G36*
X38178Y89645D02*
X38178Y91163D01*
X38190Y91533D01*
X38227Y91880D01*
X38287Y92204D01*
X38371Y92506D01*
X38479Y92786D01*
X38612Y93043D01*
X38768Y93278D01*
X38948Y93490D01*
X39152Y93678D01*
X39377Y93841D01*
X39624Y93979D01*
X39893Y94092D01*
X40183Y94180D01*
X40496Y94243D01*
X40830Y94281D01*
X41186Y94293D01*
X41657Y94271D01*
X42096Y94205D01*
X42502Y94095D01*
X42877Y93941D01*
X43214Y93745D01*
X43510Y93511D01*
X43763Y93240D01*
X43974Y92930D01*
X44141Y92588D01*
X44260Y92219D01*
X44331Y91825D01*
X44355Y91404D01*
X44355Y89645D01*
X38178Y89645D01*
G37*
%LPD*%
G36*
X43562Y80598D02*
X43789Y80683D01*
X44001Y80788D01*
X44196Y80912D01*
X44376Y81055D01*
X44541Y81216D01*
X44690Y81397D01*
X44823Y81596D01*
X44940Y81815D01*
X45042Y82052D01*
X45128Y82308D01*
X45199Y82584D01*
X45254Y82878D01*
X45293Y83191D01*
X45316Y83523D01*
X45324Y83874D01*
X45315Y84251D01*
X45287Y84606D01*
X45240Y84939D01*
X45174Y85251D01*
X45090Y85541D01*
X44987Y85809D01*
X44865Y86055D01*
X44725Y86279D01*
X44567Y86479D01*
X44394Y86653D01*
X44206Y86800D01*
X44002Y86920D01*
X43783Y87013D01*
X43549Y87080D01*
X43299Y87120D01*
X43034Y87133D01*
X42825Y87126D01*
X42630Y87103D01*
X42450Y87065D01*
X42283Y87013D01*
X41985Y86869D01*
X41729Y86680D01*
X41512Y86448D01*
X41331Y86178D01*
X41179Y85879D01*
X41048Y85560D01*
X40936Y85221D01*
X40841Y84868D01*
X40670Y84143D01*
X40449Y83237D01*
X40352Y82920D01*
X40264Y82692D01*
X40177Y82521D01*
X40081Y82371D01*
X39976Y82242D01*
X39861Y82135D01*
X39734Y82051D01*
X39592Y81990D01*
X39433Y81954D01*
X39259Y81942D01*
X39109Y81950D01*
X38968Y81973D01*
X38836Y82012D01*
X38715Y82067D01*
X38603Y82137D01*
X38500Y82222D01*
X38407Y82324D01*
X38324Y82440D01*
X38187Y82718D01*
X38089Y83051D01*
X38030Y83440D01*
X38010Y83885D01*
X38028Y84293D01*
X38081Y84654D01*
X38170Y84968D01*
X38293Y85235D01*
X38456Y85459D01*
X38662Y85644D01*
X38911Y85789D01*
X39203Y85896D01*
X39018Y86948D01*
X38780Y86870D01*
X38559Y86779D01*
X38357Y86674D01*
X38172Y86556D01*
X38006Y86425D01*
X37858Y86281D01*
X37728Y86123D01*
X37616Y85952D01*
X37519Y85764D01*
X37436Y85556D01*
X37365Y85329D01*
X37307Y85082D01*
X37262Y84815D01*
X37230Y84529D01*
X37210Y84222D01*
X37204Y83896D01*
X37213Y83546D01*
X37238Y83216D01*
X37281Y82907D01*
X37341Y82619D01*
X37418Y82352D01*
X37513Y82106D01*
X37624Y81880D01*
X37753Y81676D01*
X37897Y81494D01*
X38056Y81337D01*
X38230Y81203D01*
X38418Y81094D01*
X38620Y81009D01*
X38838Y80949D01*
X39069Y80913D01*
X39315Y80900D01*
X39530Y80910D01*
X39732Y80937D01*
X39922Y80984D01*
X40099Y81049D01*
X40265Y81131D01*
X40419Y81230D01*
X40563Y81345D01*
X40696Y81477D01*
X40820Y81630D01*
X40939Y81808D01*
X41051Y82012D01*
X41158Y82242D01*
X41261Y82512D01*
X41365Y82839D01*
X41572Y83661D01*
X41802Y84641D01*
X41921Y85053D01*
X42065Y85403D01*
X42148Y85553D01*
X42243Y85686D01*
X42347Y85801D01*
X42462Y85898D01*
X42592Y85976D01*
X42740Y86031D01*
X42906Y86064D01*
X43090Y86075D01*
X43257Y86066D01*
X43413Y86040D01*
X43559Y85996D01*
X43695Y85934D01*
X43820Y85855D01*
X43935Y85758D01*
X44040Y85644D01*
X44134Y85512D01*
X44217Y85364D01*
X44290Y85201D01*
X44351Y85023D01*
X44401Y84831D01*
X44467Y84402D01*
X44490Y83913D01*
X44469Y83438D01*
X44406Y83016D01*
X44302Y82646D01*
X44156Y82328D01*
X44067Y82189D01*
X43966Y82062D01*
X43853Y81948D01*
X43729Y81847D01*
X43592Y81758D01*
X43444Y81682D01*
X43284Y81618D01*
X43112Y81567D01*
X43319Y80531D01*
X43562Y80598D01*
G37*
G36*
X45212Y98044D02*
X37322Y98044D01*
X37322Y96975D01*
X45212Y96975D01*
X45212Y98044D01*
G37*
G36*
X43441Y59237D02*
X43682Y59298D01*
X43906Y59377D01*
X44114Y59474D01*
X44305Y59589D01*
X44481Y59722D01*
X44640Y59873D01*
X44784Y60043D01*
X44910Y60229D01*
X45020Y60430D01*
X45113Y60646D01*
X45189Y60878D01*
X45248Y61124D01*
X45290Y61386D01*
X45316Y61663D01*
X45324Y61955D01*
X45315Y62268D01*
X45287Y62562D01*
X45240Y62838D01*
X45174Y63095D01*
X45090Y63333D01*
X44987Y63553D01*
X44865Y63755D01*
X44725Y63937D01*
X44567Y64100D01*
X44394Y64241D01*
X44206Y64361D01*
X44002Y64458D01*
X43783Y64534D01*
X43549Y64588D01*
X43299Y64621D01*
X43034Y64632D01*
X42849Y64624D01*
X42672Y64601D01*
X42503Y64563D01*
X42342Y64509D01*
X42189Y64439D01*
X42045Y64355D01*
X41908Y64255D01*
X41779Y64139D01*
X41661Y64010D01*
X41555Y63868D01*
X41462Y63714D01*
X41382Y63548D01*
X41314Y63370D01*
X41258Y63179D01*
X41216Y62977D01*
X41186Y62761D01*
X41163Y62761D01*
X41060Y63141D01*
X40919Y63472D01*
X40740Y63755D01*
X40522Y63991D01*
X40268Y64176D01*
X40127Y64248D01*
X39978Y64308D01*
X39820Y64354D01*
X39653Y64387D01*
X39477Y64407D01*
X39293Y64413D01*
X39053Y64403D01*
X38827Y64372D01*
X38615Y64321D01*
X38416Y64249D01*
X38230Y64156D01*
X38059Y64043D01*
X37900Y63910D01*
X37756Y63755D01*
X37626Y63583D01*
X37514Y63393D01*
X37420Y63188D01*
X37342Y62965D01*
X37282Y62726D01*
X37239Y62471D01*
X37213Y62199D01*
X37204Y61910D01*
X37213Y61645D01*
X37238Y61392D01*
X37280Y61151D01*
X37340Y60923D01*
X37416Y60707D01*
X37510Y60503D01*
X37620Y60311D01*
X37747Y60132D01*
X37890Y59968D01*
X38045Y59823D01*
X38215Y59695D01*
X38397Y59586D01*
X38593Y59494D01*
X38801Y59421D01*
X39024Y59366D01*
X39259Y59329D01*
X39338Y60342D01*
X39044Y60397D01*
X38786Y60496D01*
X38563Y60637D01*
X38374Y60821D01*
X38225Y61043D01*
X38118Y61296D01*
X38054Y61582D01*
X38033Y61899D01*
X38056Y62243D01*
X38125Y62542D01*
X38239Y62796D01*
X38400Y63005D01*
X38600Y63168D01*
X38833Y63284D01*
X39099Y63354D01*
X39399Y63377D01*
X39555Y63370D01*
X39701Y63349D01*
X39839Y63313D01*
X39968Y63263D01*
X40089Y63199D01*
X40201Y63121D01*
X40399Y62921D01*
X40557Y62670D01*
X40670Y62372D01*
X40737Y62027D01*
X40760Y61636D01*
X40760Y61087D01*
X41634Y61087D01*
X41634Y61658D01*
X41656Y62098D01*
X41724Y62484D01*
X41775Y62656D01*
X41837Y62814D01*
X41910Y62958D01*
X41995Y63089D01*
X42090Y63205D01*
X42193Y63306D01*
X42306Y63391D01*
X42427Y63461D01*
X42557Y63515D01*
X42696Y63554D01*
X42843Y63577D01*
X43000Y63585D01*
X43179Y63578D01*
X43347Y63558D01*
X43503Y63524D01*
X43648Y63476D01*
X43782Y63415D01*
X43904Y63341D01*
X44015Y63252D01*
X44114Y63151D01*
X44279Y62913D01*
X44396Y62635D01*
X44466Y62315D01*
X44490Y61955D01*
X44468Y61596D01*
X44402Y61279D01*
X44293Y61002D01*
X44140Y60766D01*
X43943Y60572D01*
X43702Y60419D01*
X43418Y60307D01*
X43090Y60236D01*
X43185Y59194D01*
X43441Y59237D01*
G37*
G36*
X43441Y73268D02*
X43682Y73329D01*
X43906Y73408D01*
X44114Y73505D01*
X44305Y73620D01*
X44481Y73753D01*
X44640Y73905D01*
X44784Y74074D01*
X44910Y74260D01*
X45020Y74461D01*
X45113Y74678D01*
X45189Y74909D01*
X45248Y75156D01*
X45290Y75417D01*
X45316Y75694D01*
X45324Y75986D01*
X45315Y76299D01*
X45287Y76593D01*
X45240Y76869D01*
X45174Y77126D01*
X45090Y77364D01*
X44987Y77584D01*
X44865Y77786D01*
X44725Y77969D01*
X44567Y78131D01*
X44394Y78273D01*
X44206Y78392D01*
X44002Y78490D01*
X43783Y78565D01*
X43549Y78620D01*
X43299Y78652D01*
X43034Y78663D01*
X42849Y78655D01*
X42672Y78632D01*
X42503Y78594D01*
X42342Y78540D01*
X42189Y78471D01*
X42045Y78386D01*
X41908Y78286D01*
X41779Y78170D01*
X41661Y78041D01*
X41555Y77899D01*
X41462Y77746D01*
X41382Y77580D01*
X41314Y77401D01*
X41258Y77211D01*
X41216Y77008D01*
X41186Y76793D01*
X41163Y76793D01*
X41060Y77172D01*
X40919Y77503D01*
X40740Y77787D01*
X40522Y78022D01*
X40268Y78207D01*
X40127Y78280D01*
X39978Y78339D01*
X39820Y78385D01*
X39653Y78418D01*
X39477Y78438D01*
X39293Y78445D01*
X39053Y78434D01*
X38827Y78404D01*
X38615Y78352D01*
X38416Y78280D01*
X38230Y78188D01*
X38059Y78075D01*
X37900Y77941D01*
X37756Y77787D01*
X37626Y77614D01*
X37514Y77425D01*
X37420Y77219D01*
X37342Y76996D01*
X37282Y76758D01*
X37239Y76502D01*
X37213Y76230D01*
X37204Y75942D01*
X37213Y75676D01*
X37238Y75423D01*
X37280Y75182D01*
X37340Y74954D01*
X37416Y74738D01*
X37510Y74534D01*
X37620Y74343D01*
X37747Y74164D01*
X37890Y74000D01*
X38045Y73854D01*
X38215Y73726D01*
X38397Y73617D01*
X38593Y73525D01*
X38801Y73452D01*
X39024Y73397D01*
X39259Y73360D01*
X39338Y74374D01*
X39044Y74429D01*
X38786Y74527D01*
X38563Y74668D01*
X38374Y74852D01*
X38225Y75074D01*
X38118Y75328D01*
X38054Y75613D01*
X38033Y75930D01*
X38056Y76275D01*
X38125Y76574D01*
X38239Y76828D01*
X38400Y77036D01*
X38600Y77199D01*
X38833Y77316D01*
X39099Y77385D01*
X39399Y77409D01*
X39555Y77402D01*
X39701Y77380D01*
X39839Y77345D01*
X39968Y77295D01*
X40089Y77230D01*
X40201Y77152D01*
X40399Y76952D01*
X40557Y76701D01*
X40670Y76403D01*
X40737Y76058D01*
X40760Y75667D01*
X40760Y75118D01*
X41634Y75118D01*
X41634Y75690D01*
X41656Y76130D01*
X41724Y76515D01*
X41775Y76687D01*
X41837Y76845D01*
X41910Y76990D01*
X41995Y77120D01*
X42090Y77236D01*
X42193Y77337D01*
X42306Y77422D01*
X42427Y77492D01*
X42557Y77546D01*
X42696Y77585D01*
X42843Y77608D01*
X43000Y77616D01*
X43179Y77609D01*
X43347Y77589D01*
X43503Y77555D01*
X43648Y77507D01*
X43782Y77446D01*
X43904Y77372D01*
X44015Y77284D01*
X44114Y77182D01*
X44279Y76944D01*
X44396Y76666D01*
X44466Y76347D01*
X44490Y75986D01*
X44468Y75628D01*
X44402Y75310D01*
X44293Y75033D01*
X44140Y74798D01*
X43943Y74603D01*
X43702Y74450D01*
X43418Y74338D01*
X43090Y74267D01*
X43185Y73226D01*
X43441Y73268D01*
G37*
G36*
X45212Y68403D02*
X45212Y69512D01*
X37322Y72732D01*
X37322Y71606D01*
X42877Y69433D01*
X44271Y68963D01*
X42877Y68492D01*
X37322Y66308D01*
X37322Y65183D01*
X45212Y68403D01*
G37*
G36*
X41807Y55004D02*
X44204Y55004D01*
X44204Y55828D01*
X41807Y55828D01*
X41807Y58202D01*
X40990Y58202D01*
X40990Y55828D01*
X38593Y55828D01*
X38593Y55004D01*
X40990Y55004D01*
X40990Y52630D01*
X41807Y52630D01*
X41807Y55004D01*
G37*
G36*
X45212Y46479D02*
X45204Y46761D01*
X45182Y47034D01*
X45144Y47298D01*
X45090Y47555D01*
X45022Y47802D01*
X44938Y48042D01*
X44839Y48273D01*
X44725Y48495D01*
X44596Y48708D01*
X44454Y48907D01*
X44299Y49095D01*
X44131Y49270D01*
X43948Y49432D01*
X43753Y49582D01*
X43544Y49720D01*
X43322Y49845D01*
X43088Y49957D01*
X42845Y50053D01*
X42592Y50135D01*
X42330Y50202D01*
X42058Y50254D01*
X41777Y50291D01*
X41486Y50314D01*
X41186Y50321D01*
X40736Y50304D01*
X40312Y50253D01*
X39915Y50168D01*
X39544Y50049D01*
X39200Y49896D01*
X38882Y49708D01*
X38591Y49487D01*
X38327Y49232D01*
X38091Y48945D01*
X37887Y48630D01*
X37714Y48286D01*
X37573Y47914D01*
X37463Y47513D01*
X37384Y47083D01*
X37337Y46625D01*
X37322Y46138D01*
X37322Y43528D01*
X45212Y43528D01*
X45212Y46479D01*
G37*
%LPC*%
G36*
X38178Y44598D02*
X38178Y46115D01*
X38190Y46485D01*
X38227Y46832D01*
X38287Y47157D01*
X38371Y47459D01*
X38479Y47738D01*
X38612Y47996D01*
X38768Y48230D01*
X38948Y48442D01*
X39152Y48631D01*
X39377Y48794D01*
X39624Y48932D01*
X39893Y49045D01*
X40183Y49133D01*
X40496Y49196D01*
X40830Y49233D01*
X41186Y49246D01*
X41657Y49224D01*
X42096Y49158D01*
X42502Y49047D01*
X42877Y48893D01*
X43214Y48698D01*
X43510Y48464D01*
X43763Y48192D01*
X43974Y47882D01*
X44141Y47540D01*
X44260Y47172D01*
X44331Y46777D01*
X44355Y46356D01*
X44355Y44598D01*
X38178Y44598D01*
G37*
%LPD*%
G36*
X45212Y36199D02*
X39970Y36199D01*
X39035Y36171D01*
X38492Y36143D01*
X45212Y40365D01*
X45212Y41653D01*
X37322Y41653D01*
X37322Y40690D01*
X42496Y40690D01*
X43140Y40707D01*
X44086Y40757D01*
X37322Y36490D01*
X37322Y35247D01*
X45212Y35247D01*
X45212Y36199D01*
G37*
G36*
X41539Y25984D02*
X41837Y26006D01*
X42125Y26043D01*
X42403Y26095D01*
X42670Y26162D01*
X42928Y26243D01*
X43175Y26339D01*
X43412Y26450D01*
X43637Y26575D01*
X43848Y26713D01*
X44046Y26864D01*
X44230Y27029D01*
X44401Y27207D01*
X44558Y27398D01*
X44701Y27602D01*
X44831Y27819D01*
X44947Y28049D01*
X45047Y28289D01*
X45132Y28539D01*
X45201Y28801D01*
X45255Y29073D01*
X45293Y29355D01*
X45316Y29649D01*
X45324Y29953D01*
X45302Y30475D01*
X45236Y30978D01*
X45127Y31462D01*
X44974Y31927D01*
X44781Y32364D01*
X44552Y32766D01*
X44287Y33133D01*
X43986Y33464D01*
X41264Y33464D01*
X41264Y30121D01*
X42160Y30121D01*
X42160Y32478D01*
X43582Y32478D01*
X43774Y32255D01*
X43944Y32000D01*
X44093Y31713D01*
X44221Y31395D01*
X44324Y31054D01*
X44397Y30700D01*
X44441Y30333D01*
X44456Y29953D01*
X44443Y29623D01*
X44402Y29312D01*
X44334Y29019D01*
X44240Y28745D01*
X44118Y28488D01*
X43969Y28251D01*
X43794Y28031D01*
X43591Y27830D01*
X43365Y27651D01*
X43119Y27495D01*
X42853Y27363D01*
X42568Y27255D01*
X42263Y27171D01*
X41939Y27111D01*
X41594Y27075D01*
X41230Y27063D01*
X40866Y27074D01*
X40522Y27108D01*
X40200Y27165D01*
X39898Y27244D01*
X39618Y27345D01*
X39359Y27470D01*
X39121Y27616D01*
X38904Y27786D01*
X38710Y27976D01*
X38542Y28187D01*
X38400Y28418D01*
X38284Y28669D01*
X38194Y28940D01*
X38129Y29231D01*
X38091Y29543D01*
X38078Y29874D01*
X38097Y30296D01*
X38155Y30681D01*
X38251Y31031D01*
X38386Y31344D01*
X38562Y31624D01*
X38785Y31871D01*
X39052Y32087D01*
X39366Y32271D01*
X39063Y33290D01*
X38828Y33174D01*
X38609Y33046D01*
X38407Y32906D01*
X38222Y32754D01*
X38053Y32591D01*
X37901Y32416D01*
X37765Y32229D01*
X37646Y32030D01*
X37543Y31818D01*
X37453Y31591D01*
X37377Y31348D01*
X37315Y31090D01*
X37266Y30816D01*
X37232Y30527D01*
X37211Y30222D01*
X37204Y29902D01*
X37221Y29449D01*
X37270Y29022D01*
X37352Y28621D01*
X37467Y28246D01*
X37615Y27897D01*
X37796Y27575D01*
X38010Y27278D01*
X38257Y27007D01*
X38534Y26766D01*
X38838Y26556D01*
X39169Y26379D01*
X39527Y26234D01*
X39912Y26122D01*
X40324Y26041D01*
X40764Y25993D01*
X41230Y25977D01*
X41539Y25984D01*
G37*
G36*
X222250Y49019D02*
X222242Y49301D01*
X222220Y49574D01*
X222182Y49838D01*
X222128Y50095D01*
X222060Y50342D01*
X221976Y50582D01*
X221877Y50813D01*
X221763Y51035D01*
X221634Y51248D01*
X221492Y51447D01*
X221337Y51635D01*
X221169Y51810D01*
X220986Y51972D01*
X220791Y52122D01*
X220582Y52260D01*
X220360Y52385D01*
X220126Y52497D01*
X219883Y52593D01*
X219630Y52675D01*
X219368Y52742D01*
X219096Y52794D01*
X218815Y52831D01*
X218524Y52854D01*
X218224Y52861D01*
X217774Y52844D01*
X217350Y52793D01*
X216953Y52708D01*
X216582Y52589D01*
X216238Y52436D01*
X215920Y52248D01*
X215629Y52027D01*
X215365Y51772D01*
X215129Y51485D01*
X214925Y51170D01*
X214752Y50826D01*
X214611Y50454D01*
X214501Y50053D01*
X214422Y49623D01*
X214375Y49165D01*
X214360Y48678D01*
X214360Y46068D01*
X222250Y46068D01*
X222250Y49019D01*
G37*
%LPC*%
G36*
X215216Y47138D02*
X215216Y48655D01*
X215228Y49025D01*
X215265Y49372D01*
X215325Y49697D01*
X215409Y49999D01*
X215517Y50278D01*
X215650Y50536D01*
X215806Y50770D01*
X215986Y50982D01*
X216190Y51171D01*
X216415Y51334D01*
X216662Y51472D01*
X216931Y51585D01*
X217221Y51673D01*
X217534Y51736D01*
X217868Y51773D01*
X218224Y51786D01*
X218695Y51764D01*
X219134Y51698D01*
X219540Y51587D01*
X219915Y51433D01*
X220252Y51238D01*
X220548Y51004D01*
X220801Y50732D01*
X221012Y50422D01*
X221179Y50080D01*
X221298Y49712D01*
X221369Y49317D01*
X221393Y48896D01*
X221393Y47138D01*
X215216Y47138D01*
G37*
%LPD*%
G36*
X222250Y38739D02*
X217008Y38739D01*
X216073Y38711D01*
X215530Y38683D01*
X222250Y42905D01*
X222250Y44193D01*
X214360Y44193D01*
X214360Y43230D01*
X219534Y43230D01*
X220178Y43247D01*
X221124Y43297D01*
X214360Y39030D01*
X214360Y37787D01*
X222250Y37787D01*
X222250Y38739D01*
G37*
G36*
X218577Y28524D02*
X218875Y28546D01*
X219163Y28583D01*
X219441Y28635D01*
X219708Y28702D01*
X219966Y28783D01*
X220213Y28879D01*
X220450Y28990D01*
X220675Y29115D01*
X220886Y29253D01*
X221084Y29404D01*
X221268Y29569D01*
X221439Y29747D01*
X221596Y29938D01*
X221739Y30142D01*
X221869Y30359D01*
X221985Y30589D01*
X222085Y30829D01*
X222170Y31079D01*
X222239Y31341D01*
X222293Y31613D01*
X222331Y31895D01*
X222354Y32189D01*
X222362Y32493D01*
X222340Y33015D01*
X222274Y33518D01*
X222165Y34002D01*
X222012Y34467D01*
X221819Y34904D01*
X221590Y35306D01*
X221325Y35673D01*
X221024Y36004D01*
X218302Y36004D01*
X218302Y32661D01*
X219198Y32661D01*
X219198Y35018D01*
X220620Y35018D01*
X220812Y34795D01*
X220982Y34540D01*
X221131Y34253D01*
X221259Y33935D01*
X221362Y33594D01*
X221435Y33240D01*
X221479Y32873D01*
X221494Y32493D01*
X221481Y32163D01*
X221440Y31852D01*
X221372Y31559D01*
X221278Y31285D01*
X221156Y31028D01*
X221007Y30791D01*
X220832Y30571D01*
X220629Y30370D01*
X220403Y30191D01*
X220157Y30035D01*
X219891Y29903D01*
X219606Y29795D01*
X219301Y29711D01*
X218977Y29651D01*
X218632Y29615D01*
X218268Y29603D01*
X217904Y29614D01*
X217560Y29648D01*
X217238Y29705D01*
X216936Y29784D01*
X216656Y29885D01*
X216397Y30010D01*
X216159Y30156D01*
X215942Y30326D01*
X215748Y30516D01*
X215580Y30727D01*
X215438Y30958D01*
X215322Y31209D01*
X215232Y31480D01*
X215167Y31771D01*
X215129Y32083D01*
X215116Y32414D01*
X215135Y32836D01*
X215193Y33221D01*
X215289Y33571D01*
X215424Y33884D01*
X215600Y34164D01*
X215823Y34411D01*
X216090Y34627D01*
X216404Y34811D01*
X216101Y35830D01*
X215866Y35714D01*
X215647Y35586D01*
X215445Y35446D01*
X215260Y35294D01*
X215091Y35131D01*
X214939Y34956D01*
X214803Y34769D01*
X214684Y34570D01*
X214581Y34358D01*
X214491Y34131D01*
X214415Y33888D01*
X214353Y33630D01*
X214304Y33356D01*
X214270Y33067D01*
X214249Y32762D01*
X214242Y32442D01*
X214259Y31989D01*
X214308Y31562D01*
X214390Y31161D01*
X214505Y30786D01*
X214653Y30437D01*
X214834Y30115D01*
X215048Y29818D01*
X215295Y29547D01*
X215572Y29306D01*
X215876Y29096D01*
X216207Y28919D01*
X216565Y28774D01*
X216950Y28662D01*
X217362Y28581D01*
X217802Y28533D01*
X218268Y28517D01*
X218577Y28524D01*
G37*
G36*
X221216Y63079D02*
X221423Y63147D01*
X221618Y63231D01*
X221799Y63330D01*
X221967Y63445D01*
X222121Y63576D01*
X222261Y63722D01*
X222388Y63883D01*
X222501Y64060D01*
X222599Y64249D01*
X222682Y64452D01*
X222750Y64667D01*
X222802Y64897D01*
X222840Y65139D01*
X222862Y65395D01*
X222870Y65664D01*
X222859Y65984D01*
X222825Y66286D01*
X222769Y66571D01*
X222691Y66837D01*
X222590Y67085D01*
X222467Y67315D01*
X222321Y67528D01*
X222153Y67722D01*
X221966Y67896D01*
X221762Y68047D01*
X221541Y68174D01*
X221303Y68279D01*
X221049Y68360D01*
X220779Y68418D01*
X220492Y68453D01*
X220188Y68464D01*
X219920Y68453D01*
X219665Y68421D01*
X219423Y68367D01*
X219194Y68291D01*
X218978Y68194D01*
X218774Y68075D01*
X218584Y67935D01*
X218407Y67773D01*
X218247Y67592D01*
X218108Y67397D01*
X217991Y67187D01*
X217894Y66963D01*
X217820Y66723D01*
X217766Y66469D01*
X217734Y66200D01*
X217724Y65916D01*
X217732Y65678D01*
X217755Y65449D01*
X217795Y65230D01*
X217850Y65022D01*
X217921Y64823D01*
X218007Y64634D01*
X218110Y64455D01*
X218228Y64287D01*
X215724Y64438D01*
X215724Y68005D01*
X214868Y68005D01*
X214868Y63519D01*
X219112Y63256D01*
X219112Y64242D01*
X218970Y64418D01*
X218849Y64595D01*
X218751Y64771D01*
X218676Y64947D01*
X218619Y65127D01*
X218579Y65314D01*
X218555Y65508D01*
X218547Y65709D01*
X218554Y65900D01*
X218576Y66081D01*
X218611Y66252D01*
X218662Y66413D01*
X218726Y66563D01*
X218805Y66704D01*
X218898Y66835D01*
X219006Y66955D01*
X219125Y67063D01*
X219253Y67157D01*
X219391Y67237D01*
X219537Y67302D01*
X219692Y67352D01*
X219855Y67388D01*
X220028Y67410D01*
X220210Y67417D01*
X220419Y67410D01*
X220616Y67388D01*
X220801Y67353D01*
X220975Y67302D01*
X221138Y67238D01*
X221289Y67159D01*
X221429Y67066D01*
X221557Y66958D01*
X221672Y66838D01*
X221771Y66706D01*
X221855Y66564D01*
X221924Y66410D01*
X221978Y66246D01*
X222016Y66071D01*
X222039Y65884D01*
X222047Y65687D01*
X222029Y65372D01*
X221974Y65089D01*
X221882Y64836D01*
X221754Y64616D01*
X221590Y64426D01*
X221388Y64268D01*
X221151Y64141D01*
X220876Y64046D01*
X220994Y63027D01*
X221216Y63079D01*
G37*
G36*
X222758Y72213D02*
X222758Y73322D01*
X214868Y76542D01*
X214868Y75416D01*
X220423Y73243D01*
X221817Y72773D01*
X220423Y72302D01*
X214868Y70118D01*
X214868Y68993D01*
X222758Y72213D01*
G37*
G36*
X219353Y58814D02*
X221750Y58814D01*
X221750Y59638D01*
X219353Y59638D01*
X219353Y62012D01*
X218536Y62012D01*
X218536Y59638D01*
X216139Y59638D01*
X216139Y58814D01*
X218536Y58814D01*
X218536Y56440D01*
X219353Y56440D01*
X219353Y58814D01*
G37*
G36*
X222250Y92797D02*
X222242Y93078D01*
X222220Y93351D01*
X222182Y93616D01*
X222128Y93872D01*
X222060Y94120D01*
X221976Y94359D01*
X221877Y94590D01*
X221763Y94813D01*
X221634Y95025D01*
X221492Y95225D01*
X221337Y95412D01*
X221169Y95587D01*
X220986Y95750D01*
X220791Y95900D01*
X220582Y96037D01*
X220360Y96163D01*
X220126Y96274D01*
X219883Y96371D01*
X219630Y96453D01*
X219368Y96520D01*
X219096Y96572D01*
X218815Y96609D01*
X218524Y96631D01*
X218224Y96639D01*
X217774Y96622D01*
X217350Y96570D01*
X216953Y96485D01*
X216582Y96366D01*
X216238Y96213D01*
X215920Y96026D01*
X215629Y95805D01*
X215365Y95549D01*
X215129Y95263D01*
X214925Y94948D01*
X214752Y94604D01*
X214611Y94231D01*
X214501Y93830D01*
X214422Y93401D01*
X214375Y92942D01*
X214360Y92455D01*
X214360Y89846D01*
X222250Y89846D01*
X222250Y92797D01*
G37*
%LPC*%
G36*
X215216Y90915D02*
X215216Y92433D01*
X215228Y92803D01*
X215265Y93150D01*
X215325Y93474D01*
X215409Y93776D01*
X215517Y94056D01*
X215650Y94313D01*
X215806Y94548D01*
X215986Y94760D01*
X216190Y94948D01*
X216415Y95111D01*
X216662Y95249D01*
X216931Y95362D01*
X217221Y95450D01*
X217534Y95513D01*
X217868Y95551D01*
X218224Y95563D01*
X218695Y95541D01*
X219134Y95475D01*
X219540Y95365D01*
X219915Y95211D01*
X220252Y95015D01*
X220548Y94781D01*
X220801Y94510D01*
X221012Y94200D01*
X221179Y93858D01*
X221298Y93489D01*
X221369Y93095D01*
X221393Y92674D01*
X221393Y90915D01*
X215216Y90915D01*
G37*
%LPD*%
G36*
X222250Y98317D02*
X219943Y99225D01*
X219943Y102820D01*
X222250Y103721D01*
X222250Y104813D01*
X214360Y101644D01*
X214360Y100429D01*
X222250Y97209D01*
X222250Y98317D01*
G37*
G36*
X220600Y81868D02*
X220827Y81953D01*
X221039Y82058D01*
X221234Y82182D01*
X221414Y82325D01*
X221579Y82486D01*
X221728Y82667D01*
X221861Y82866D01*
X221978Y83085D01*
X222080Y83322D01*
X222166Y83578D01*
X222237Y83854D01*
X222292Y84148D01*
X222331Y84461D01*
X222354Y84793D01*
X222362Y85144D01*
X222353Y85521D01*
X222325Y85876D01*
X222278Y86209D01*
X222212Y86521D01*
X222128Y86811D01*
X222025Y87079D01*
X221903Y87325D01*
X221763Y87549D01*
X221605Y87749D01*
X221432Y87923D01*
X221244Y88070D01*
X221040Y88190D01*
X220821Y88283D01*
X220587Y88350D01*
X220337Y88390D01*
X220072Y88403D01*
X219863Y88396D01*
X219668Y88373D01*
X219488Y88335D01*
X219321Y88283D01*
X219023Y88139D01*
X218767Y87950D01*
X218550Y87718D01*
X218369Y87448D01*
X218217Y87149D01*
X218086Y86830D01*
X217974Y86491D01*
X217879Y86138D01*
X217708Y85413D01*
X217487Y84507D01*
X217390Y84190D01*
X217302Y83962D01*
X217215Y83791D01*
X217119Y83641D01*
X217014Y83512D01*
X216899Y83405D01*
X216772Y83321D01*
X216630Y83260D01*
X216471Y83224D01*
X216297Y83212D01*
X216147Y83220D01*
X216006Y83243D01*
X215874Y83282D01*
X215753Y83337D01*
X215641Y83407D01*
X215538Y83492D01*
X215445Y83594D01*
X215362Y83710D01*
X215225Y83988D01*
X215127Y84321D01*
X215068Y84710D01*
X215048Y85155D01*
X215066Y85563D01*
X215119Y85924D01*
X215208Y86238D01*
X215331Y86505D01*
X215494Y86729D01*
X215700Y86914D01*
X215949Y87059D01*
X216241Y87166D01*
X216056Y88218D01*
X215818Y88140D01*
X215597Y88049D01*
X215395Y87944D01*
X215210Y87826D01*
X215044Y87695D01*
X214896Y87551D01*
X214766Y87393D01*
X214654Y87222D01*
X214557Y87034D01*
X214474Y86826D01*
X214403Y86599D01*
X214345Y86352D01*
X214300Y86085D01*
X214268Y85799D01*
X214248Y85492D01*
X214242Y85166D01*
X214251Y84816D01*
X214276Y84486D01*
X214319Y84177D01*
X214379Y83889D01*
X214456Y83622D01*
X214551Y83376D01*
X214662Y83150D01*
X214791Y82946D01*
X214935Y82764D01*
X215094Y82607D01*
X215268Y82473D01*
X215456Y82364D01*
X215658Y82279D01*
X215876Y82219D01*
X216107Y82183D01*
X216353Y82170D01*
X216568Y82180D01*
X216770Y82207D01*
X216960Y82254D01*
X217137Y82319D01*
X217303Y82401D01*
X217457Y82500D01*
X217601Y82615D01*
X217734Y82747D01*
X217858Y82900D01*
X217977Y83078D01*
X218089Y83282D01*
X218196Y83512D01*
X218299Y83782D01*
X218403Y84109D01*
X218610Y84931D01*
X218840Y85911D01*
X218959Y86323D01*
X219103Y86673D01*
X219186Y86823D01*
X219281Y86956D01*
X219385Y87071D01*
X219500Y87168D01*
X219630Y87246D01*
X219778Y87301D01*
X219944Y87334D01*
X220128Y87345D01*
X220295Y87336D01*
X220451Y87310D01*
X220597Y87266D01*
X220733Y87204D01*
X220858Y87125D01*
X220973Y87028D01*
X221078Y86914D01*
X221172Y86782D01*
X221255Y86634D01*
X221328Y86471D01*
X221389Y86293D01*
X221439Y86101D01*
X221505Y85672D01*
X221528Y85183D01*
X221507Y84708D01*
X221444Y84286D01*
X221340Y83916D01*
X221194Y83598D01*
X221105Y83459D01*
X221004Y83332D01*
X220891Y83218D01*
X220767Y83117D01*
X220630Y83028D01*
X220482Y82952D01*
X220322Y82888D01*
X220150Y82837D01*
X220357Y81801D01*
X220600Y81868D01*
G37*
%LPC*%
G36*
X216516Y100557D02*
X215853Y100798D01*
X215323Y100972D01*
X215166Y101022D01*
X215631Y101173D01*
X216093Y101330D01*
X216504Y101487D01*
X219108Y102501D01*
X219108Y99549D01*
X216516Y100557D01*
G37*
%LPD*%
G36*
X221362Y109808D02*
X221589Y109893D01*
X221801Y109998D01*
X221996Y110122D01*
X222176Y110265D01*
X222341Y110426D01*
X222490Y110607D01*
X222623Y110806D01*
X222740Y111025D01*
X222842Y111262D01*
X222928Y111518D01*
X222999Y111794D01*
X223054Y112088D01*
X223093Y112401D01*
X223116Y112733D01*
X223124Y113084D01*
X223115Y113461D01*
X223087Y113816D01*
X223040Y114149D01*
X222974Y114461D01*
X222890Y114751D01*
X222787Y115019D01*
X222665Y115265D01*
X222525Y115489D01*
X222367Y115689D01*
X222194Y115863D01*
X222006Y116010D01*
X221802Y116130D01*
X221583Y116223D01*
X221349Y116290D01*
X221099Y116330D01*
X220834Y116343D01*
X220625Y116336D01*
X220430Y116313D01*
X220250Y116275D01*
X220083Y116223D01*
X219785Y116079D01*
X219529Y115890D01*
X219312Y115658D01*
X219131Y115388D01*
X218979Y115089D01*
X218848Y114770D01*
X218736Y114431D01*
X218641Y114078D01*
X218470Y113353D01*
X218249Y112447D01*
X218152Y112130D01*
X218064Y111902D01*
X217977Y111731D01*
X217881Y111581D01*
X217776Y111452D01*
X217661Y111345D01*
X217534Y111261D01*
X217392Y111200D01*
X217233Y111164D01*
X217059Y111152D01*
X216909Y111160D01*
X216768Y111183D01*
X216636Y111222D01*
X216515Y111277D01*
X216403Y111347D01*
X216300Y111432D01*
X216207Y111534D01*
X216124Y111650D01*
X215987Y111928D01*
X215889Y112261D01*
X215830Y112650D01*
X215810Y113095D01*
X215828Y113503D01*
X215881Y113864D01*
X215970Y114178D01*
X216093Y114445D01*
X216256Y114669D01*
X216462Y114854D01*
X216711Y114999D01*
X217003Y115106D01*
X216818Y116158D01*
X216580Y116080D01*
X216359Y115989D01*
X216157Y115884D01*
X215972Y115766D01*
X215806Y115635D01*
X215658Y115491D01*
X215528Y115333D01*
X215416Y115162D01*
X215319Y114974D01*
X215236Y114766D01*
X215165Y114539D01*
X215107Y114292D01*
X215062Y114025D01*
X215030Y113739D01*
X215010Y113432D01*
X215004Y113106D01*
X215013Y112756D01*
X215038Y112426D01*
X215081Y112117D01*
X215141Y111829D01*
X215218Y111562D01*
X215313Y111316D01*
X215424Y111090D01*
X215553Y110886D01*
X215697Y110704D01*
X215856Y110547D01*
X216030Y110413D01*
X216218Y110304D01*
X216420Y110219D01*
X216638Y110159D01*
X216869Y110123D01*
X217115Y110110D01*
X217330Y110120D01*
X217532Y110147D01*
X217722Y110194D01*
X217899Y110259D01*
X218065Y110341D01*
X218219Y110440D01*
X218363Y110555D01*
X218496Y110687D01*
X218620Y110840D01*
X218739Y111018D01*
X218851Y111222D01*
X218958Y111452D01*
X219061Y111722D01*
X219165Y112049D01*
X219372Y112871D01*
X219602Y113851D01*
X219721Y114263D01*
X219865Y114613D01*
X219948Y114763D01*
X220043Y114896D01*
X220147Y115011D01*
X220262Y115108D01*
X220392Y115186D01*
X220540Y115241D01*
X220706Y115274D01*
X220890Y115285D01*
X221057Y115276D01*
X221213Y115250D01*
X221359Y115206D01*
X221495Y115144D01*
X221620Y115065D01*
X221735Y114968D01*
X221840Y114854D01*
X221934Y114722D01*
X222017Y114574D01*
X222090Y114411D01*
X222151Y114233D01*
X222201Y114041D01*
X222267Y113612D01*
X222290Y113123D01*
X222269Y112648D01*
X222206Y112226D01*
X222102Y111856D01*
X221956Y111538D01*
X221867Y111399D01*
X221766Y111272D01*
X221653Y111158D01*
X221529Y111057D01*
X221392Y110968D01*
X221244Y110892D01*
X221084Y110828D01*
X220912Y110777D01*
X221119Y109741D01*
X221362Y109808D01*
G37*
G36*
X219340Y117435D02*
X219639Y117456D01*
X219928Y117492D01*
X220206Y117541D01*
X220473Y117606D01*
X220730Y117684D01*
X220976Y117777D01*
X221212Y117884D01*
X221435Y118004D01*
X221646Y118138D01*
X221843Y118284D01*
X222026Y118444D01*
X222197Y118616D01*
X222354Y118801D01*
X222498Y119000D01*
X222628Y119211D01*
X222745Y119434D01*
X222845Y119667D01*
X222930Y119909D01*
X223000Y120162D01*
X223054Y120425D01*
X223093Y120698D01*
X223116Y120981D01*
X223124Y121275D01*
X223116Y121561D01*
X223091Y121839D01*
X223049Y122108D01*
X222991Y122369D01*
X222916Y122620D01*
X222825Y122863D01*
X222717Y123096D01*
X222592Y123321D01*
X222451Y123536D01*
X222296Y123738D01*
X222125Y123927D01*
X221938Y124105D01*
X221737Y124270D01*
X221520Y124422D01*
X221288Y124563D01*
X221041Y124691D01*
X220604Y123817D01*
X220989Y123596D01*
X221322Y123348D01*
X221604Y123075D01*
X221835Y122777D01*
X222014Y122452D01*
X222142Y122102D01*
X222187Y121918D01*
X222219Y121727D01*
X222238Y121529D01*
X222245Y121325D01*
X222231Y121010D01*
X222190Y120712D01*
X222121Y120430D01*
X222024Y120165D01*
X221900Y119917D01*
X221749Y119685D01*
X221570Y119471D01*
X221363Y119273D01*
X221133Y119095D01*
X220886Y118941D01*
X220621Y118810D01*
X220339Y118703D01*
X220038Y118620D01*
X219720Y118561D01*
X219384Y118526D01*
X219030Y118514D01*
X218673Y118525D01*
X218336Y118559D01*
X218018Y118616D01*
X217719Y118696D01*
X217440Y118798D01*
X217181Y118923D01*
X216941Y119071D01*
X216720Y119242D01*
X216523Y119433D01*
X216352Y119642D01*
X216207Y119870D01*
X216088Y120115D01*
X215996Y120379D01*
X215930Y120661D01*
X215891Y120962D01*
X215878Y121280D01*
X215900Y121683D01*
X215969Y122058D01*
X216082Y122404D01*
X216242Y122722D01*
X216444Y123005D01*
X216687Y123246D01*
X216970Y123446D01*
X217294Y123604D01*
X216958Y124618D01*
X216724Y124511D01*
X216504Y124391D01*
X216299Y124257D01*
X216109Y124108D01*
X215933Y123946D01*
X215773Y123769D01*
X215628Y123579D01*
X215497Y123375D01*
X215381Y123157D01*
X215281Y122926D01*
X215197Y122682D01*
X215127Y122425D01*
X215073Y122156D01*
X215035Y121873D01*
X215012Y121578D01*
X215004Y121269D01*
X215021Y120830D01*
X215071Y120416D01*
X215154Y120027D01*
X215271Y119662D01*
X215422Y119321D01*
X215606Y119005D01*
X215823Y118714D01*
X216074Y118447D01*
X216354Y118208D01*
X216660Y118001D01*
X216991Y117826D01*
X217348Y117682D01*
X217730Y117571D01*
X218138Y117491D01*
X218571Y117443D01*
X219030Y117427D01*
X219340Y117435D01*
G37*
G36*
X223012Y131124D02*
X222138Y131124D01*
X222138Y127137D01*
X215122Y127137D01*
X215122Y126067D01*
X223012Y126067D01*
X223012Y131124D01*
G37*
G36*
X223012Y141789D02*
X219562Y144208D01*
X223012Y146577D01*
X223012Y147759D01*
X218874Y144830D01*
X215122Y147529D01*
X215122Y146348D01*
X218218Y144214D01*
X215122Y142019D01*
X215122Y140837D01*
X218913Y143609D01*
X223012Y140608D01*
X223012Y141789D01*
G37*
G36*
X215995Y136318D02*
X223012Y136318D01*
X223012Y137382D01*
X215995Y137382D01*
X215995Y140092D01*
X215122Y140092D01*
X215122Y133608D01*
X215995Y133608D01*
X215995Y136318D01*
G37*
G36*
X223774Y160760D02*
X220498Y160760D01*
X220498Y163219D01*
X223774Y165268D01*
X223774Y166500D01*
X221822Y165214D01*
X220375Y164260D01*
X220329Y164480D01*
X220269Y164687D01*
X220195Y164882D01*
X220107Y165065D01*
X220048Y165164D01*
X220006Y165235D01*
X219891Y165394D01*
X219762Y165540D01*
X219619Y165674D01*
X219465Y165794D01*
X219302Y165899D01*
X219130Y165987D01*
X218950Y166059D01*
X218760Y166115D01*
X218563Y166155D01*
X218356Y166179D01*
X218140Y166187D01*
X217882Y166175D01*
X217638Y166141D01*
X217408Y166085D01*
X217193Y166005D01*
X216993Y165903D01*
X216807Y165779D01*
X216636Y165632D01*
X216480Y165462D01*
X216340Y165271D01*
X216219Y165061D01*
X216117Y164832D01*
X216033Y164584D01*
X215968Y164318D01*
X215921Y164032D01*
X215893Y163727D01*
X215884Y163404D01*
X215884Y159691D01*
X223774Y159691D01*
X223774Y160760D01*
G37*
G36*
X223774Y168470D02*
X220324Y170890D01*
X223774Y173258D01*
X223774Y174440D01*
X219636Y171511D01*
X215884Y174210D01*
X215884Y173029D01*
X218980Y170895D01*
X215884Y168700D01*
X215884Y167518D01*
X219675Y170290D01*
X223774Y167289D01*
X223774Y168470D01*
G37*
%LPC*%
G36*
X216740Y160760D02*
X216740Y163297D01*
X216763Y163711D01*
X216831Y164073D01*
X216944Y164384D01*
X217017Y164521D01*
X217102Y164644D01*
X217197Y164754D01*
X217303Y164849D01*
X217419Y164929D01*
X217545Y164995D01*
X217681Y165046D01*
X217828Y165082D01*
X217985Y165104D01*
X218152Y165112D01*
X218325Y165104D01*
X218487Y165083D01*
X218641Y165047D01*
X218784Y164996D01*
X218917Y164931D01*
X219040Y164852D01*
X219154Y164758D01*
X219258Y164650D01*
X219350Y164528D01*
X219430Y164395D01*
X219498Y164249D01*
X219554Y164092D01*
X219597Y163922D01*
X219628Y163741D01*
X219646Y163547D01*
X219652Y163342D01*
X219652Y160760D01*
X216740Y160760D01*
G37*
%LPD*%
G36*
X223774Y190469D02*
X218532Y190469D01*
X217597Y190441D01*
X217054Y190413D01*
X223774Y194635D01*
X223774Y195923D01*
X215884Y195923D01*
X215884Y194960D01*
X221058Y194960D01*
X221702Y194977D01*
X222648Y195027D01*
X215884Y190760D01*
X215884Y189517D01*
X223774Y189517D01*
X223774Y190469D01*
G37*
G36*
X216757Y199825D02*
X223774Y199825D01*
X223774Y200889D01*
X216757Y200889D01*
X216757Y203600D01*
X215884Y203600D01*
X215884Y197115D01*
X216757Y197115D01*
X216757Y199825D01*
G37*
G36*
X223774Y187548D02*
X215884Y187548D01*
X215884Y186478D01*
X223774Y186478D01*
X223774Y187548D01*
G37*
G36*
X223266Y210290D02*
X220192Y210290D01*
X220192Y212609D01*
X220181Y212914D01*
X220150Y213203D01*
X220099Y213476D01*
X220026Y213732D01*
X219934Y213972D01*
X219820Y214196D01*
X219686Y214403D01*
X219531Y214594D01*
X219358Y214765D01*
X219172Y214914D01*
X218971Y215039D01*
X218755Y215142D01*
X218525Y215222D01*
X218281Y215279D01*
X218023Y215313D01*
X217750Y215325D01*
X217475Y215313D01*
X217216Y215279D01*
X216973Y215222D01*
X216746Y215143D01*
X216535Y215040D01*
X216340Y214915D01*
X216161Y214767D01*
X215997Y214597D01*
X215852Y214405D01*
X215725Y214195D01*
X215618Y213967D01*
X215531Y213719D01*
X215463Y213453D01*
X215415Y213168D01*
X215385Y212864D01*
X215376Y212542D01*
X215376Y209221D01*
X223266Y209221D01*
X223266Y210290D01*
G37*
G36*
X223266Y218279D02*
X223266Y219556D01*
X219276Y220652D01*
X217655Y221085D01*
X216568Y221331D01*
X217597Y221558D01*
X218254Y221723D01*
X223266Y223090D01*
X223266Y224367D01*
X215376Y226691D01*
X215376Y225576D01*
X219450Y224444D01*
X221079Y224003D01*
X222129Y223756D01*
X222325Y223706D01*
X221398Y223493D01*
X220287Y223213D01*
X215376Y221841D01*
X215376Y220816D01*
X219216Y219739D01*
X220981Y219262D01*
X222325Y218951D01*
X221342Y218729D01*
X220388Y218487D01*
X215376Y217070D01*
X215376Y215955D01*
X223266Y218279D01*
G37*
G36*
X223266Y228642D02*
X218002Y228642D01*
X216944Y228619D01*
X216322Y228602D01*
X216938Y228787D01*
X217890Y229101D01*
X223266Y231167D01*
X223266Y231918D01*
X217890Y233956D01*
X217215Y234188D01*
X216322Y234449D01*
X217145Y234411D01*
X218002Y234398D01*
X223266Y234398D01*
X223266Y235362D01*
X215376Y235362D01*
X215376Y233990D01*
X220847Y231929D01*
X221421Y231736D01*
X221819Y231617D01*
X222101Y231548D01*
X221555Y231411D01*
X220847Y231195D01*
X215376Y229095D01*
X215376Y227690D01*
X223266Y227690D01*
X223266Y228642D01*
G37*
%LPC*%
G36*
X216232Y210290D02*
X216232Y212413D01*
X216238Y212635D01*
X216256Y212843D01*
X216286Y213037D01*
X216328Y213216D01*
X216382Y213381D01*
X216447Y213532D01*
X216525Y213668D01*
X216615Y213790D01*
X216716Y213898D01*
X216830Y213991D01*
X216955Y214070D01*
X217092Y214135D01*
X217242Y214185D01*
X217403Y214221D01*
X217576Y214242D01*
X217761Y214250D01*
X217953Y214243D01*
X218133Y214222D01*
X218300Y214187D01*
X218455Y214138D01*
X218597Y214075D01*
X218727Y213998D01*
X218845Y213907D01*
X218950Y213802D01*
X219043Y213683D01*
X219123Y213550D01*
X219191Y213403D01*
X219247Y213242D01*
X219290Y213067D01*
X219321Y212878D01*
X219340Y212675D01*
X219346Y212458D01*
X219346Y210290D01*
X216232Y210290D01*
G37*
%LPD*%
D10*
X50038Y4750D02*
X50038Y16434D01*
X53284Y16434D01*
X53397Y16432D01*
X53510Y16426D01*
X53623Y16416D01*
X53736Y16402D01*
X53848Y16385D01*
X53959Y16363D01*
X54069Y16338D01*
X54179Y16308D01*
X54287Y16275D01*
X54394Y16238D01*
X54500Y16198D01*
X54604Y16153D01*
X54707Y16105D01*
X54808Y16054D01*
X54907Y15999D01*
X55004Y15941D01*
X55099Y15879D01*
X55192Y15814D01*
X55282Y15746D01*
X55370Y15675D01*
X55456Y15600D01*
X55539Y15523D01*
X55619Y15443D01*
X55696Y15360D01*
X55771Y15274D01*
X55842Y15186D01*
X55910Y15096D01*
X55975Y15003D01*
X56037Y14908D01*
X56095Y14811D01*
X56150Y14712D01*
X56201Y14611D01*
X56249Y14508D01*
X56294Y14404D01*
X56334Y14298D01*
X56371Y14191D01*
X56404Y14083D01*
X56434Y13973D01*
X56459Y13863D01*
X56481Y13752D01*
X56498Y13640D01*
X56512Y13527D01*
X56522Y13414D01*
X56528Y13301D01*
X56530Y13188D01*
X56528Y13075D01*
X56522Y12962D01*
X56512Y12849D01*
X56498Y12736D01*
X56481Y12624D01*
X56459Y12513D01*
X56434Y12403D01*
X56404Y12293D01*
X56371Y12185D01*
X56334Y12078D01*
X56294Y11972D01*
X56249Y11868D01*
X56201Y11765D01*
X56150Y11664D01*
X56095Y11565D01*
X56037Y11468D01*
X55975Y11373D01*
X55910Y11280D01*
X55842Y11190D01*
X55771Y11102D01*
X55696Y11016D01*
X55619Y10933D01*
X55539Y10853D01*
X55456Y10776D01*
X55370Y10701D01*
X55282Y10630D01*
X55192Y10562D01*
X55099Y10497D01*
X55004Y10435D01*
X54907Y10377D01*
X54808Y10322D01*
X54707Y10271D01*
X54604Y10223D01*
X54500Y10178D01*
X54394Y10138D01*
X54287Y10101D01*
X54179Y10068D01*
X54069Y10038D01*
X53959Y10013D01*
X53848Y9991D01*
X53736Y9974D01*
X53623Y9960D01*
X53510Y9950D01*
X53397Y9944D01*
X53284Y9942D01*
X53284Y9943D02*
X50038Y9943D01*
X60805Y9943D02*
X60805Y7346D01*
X60805Y9943D02*
X60807Y10044D01*
X60813Y10144D01*
X60823Y10244D01*
X60836Y10344D01*
X60854Y10443D01*
X60875Y10542D01*
X60900Y10639D01*
X60929Y10736D01*
X60962Y10831D01*
X60998Y10925D01*
X61038Y11017D01*
X61081Y11108D01*
X61128Y11197D01*
X61178Y11284D01*
X61232Y11370D01*
X61289Y11453D01*
X61349Y11533D01*
X61412Y11612D01*
X61479Y11688D01*
X61548Y11761D01*
X61620Y11831D01*
X61694Y11899D01*
X61771Y11964D01*
X61851Y12025D01*
X61933Y12084D01*
X62017Y12139D01*
X62103Y12191D01*
X62191Y12240D01*
X62281Y12285D01*
X62373Y12327D01*
X62466Y12365D01*
X62561Y12399D01*
X62656Y12430D01*
X62753Y12457D01*
X62851Y12480D01*
X62950Y12500D01*
X63050Y12515D01*
X63150Y12527D01*
X63250Y12535D01*
X63351Y12539D01*
X63451Y12539D01*
X63552Y12535D01*
X63652Y12527D01*
X63752Y12515D01*
X63852Y12500D01*
X63951Y12480D01*
X64049Y12457D01*
X64146Y12430D01*
X64241Y12399D01*
X64336Y12365D01*
X64429Y12327D01*
X64521Y12285D01*
X64611Y12240D01*
X64699Y12191D01*
X64785Y12139D01*
X64869Y12084D01*
X64951Y12025D01*
X65031Y11964D01*
X65108Y11899D01*
X65182Y11831D01*
X65254Y11761D01*
X65323Y11688D01*
X65390Y11612D01*
X65453Y11533D01*
X65513Y11453D01*
X65570Y11370D01*
X65624Y11284D01*
X65674Y11197D01*
X65721Y11108D01*
X65764Y11017D01*
X65804Y10925D01*
X65840Y10831D01*
X65873Y10736D01*
X65902Y10639D01*
X65927Y10542D01*
X65948Y10443D01*
X65966Y10344D01*
X65979Y10244D01*
X65989Y10144D01*
X65995Y10044D01*
X65997Y9943D01*
X65998Y9943D02*
X65998Y7346D01*
X65997Y7346D02*
X65995Y7245D01*
X65989Y7145D01*
X65979Y7045D01*
X65966Y6945D01*
X65948Y6846D01*
X65927Y6747D01*
X65902Y6650D01*
X65873Y6553D01*
X65840Y6458D01*
X65804Y6364D01*
X65764Y6272D01*
X65721Y6181D01*
X65674Y6092D01*
X65624Y6005D01*
X65570Y5919D01*
X65513Y5836D01*
X65453Y5756D01*
X65390Y5677D01*
X65323Y5601D01*
X65254Y5528D01*
X65182Y5458D01*
X65108Y5390D01*
X65031Y5325D01*
X64951Y5264D01*
X64869Y5205D01*
X64785Y5150D01*
X64699Y5098D01*
X64611Y5049D01*
X64521Y5004D01*
X64429Y4962D01*
X64336Y4924D01*
X64241Y4890D01*
X64146Y4859D01*
X64049Y4832D01*
X63951Y4809D01*
X63852Y4789D01*
X63752Y4774D01*
X63652Y4762D01*
X63552Y4754D01*
X63451Y4750D01*
X63351Y4750D01*
X63250Y4754D01*
X63150Y4762D01*
X63050Y4774D01*
X62950Y4789D01*
X62851Y4809D01*
X62753Y4832D01*
X62656Y4859D01*
X62561Y4890D01*
X62466Y4924D01*
X62373Y4962D01*
X62281Y5004D01*
X62191Y5049D01*
X62103Y5098D01*
X62017Y5150D01*
X61933Y5205D01*
X61851Y5264D01*
X61771Y5325D01*
X61694Y5390D01*
X61620Y5458D01*
X61548Y5528D01*
X61479Y5601D01*
X61412Y5677D01*
X61349Y5756D01*
X61289Y5836D01*
X61232Y5919D01*
X61178Y6005D01*
X61128Y6092D01*
X61081Y6181D01*
X61038Y6272D01*
X60998Y6364D01*
X60962Y6458D01*
X60929Y6553D01*
X60900Y6650D01*
X60875Y6747D01*
X60854Y6846D01*
X60836Y6945D01*
X60823Y7045D01*
X60813Y7145D01*
X60807Y7245D01*
X60805Y7346D01*
X70860Y6697D02*
X70860Y16434D01*
X70861Y6697D02*
X70863Y6610D01*
X70869Y6522D01*
X70879Y6436D01*
X70892Y6349D01*
X70910Y6264D01*
X70931Y6179D01*
X70956Y6095D01*
X70985Y6013D01*
X71018Y5932D01*
X71054Y5852D01*
X71093Y5774D01*
X71137Y5698D01*
X71183Y5624D01*
X71233Y5553D01*
X71286Y5483D01*
X71342Y5416D01*
X71401Y5352D01*
X71463Y5290D01*
X71527Y5231D01*
X71594Y5175D01*
X71664Y5122D01*
X71735Y5072D01*
X71809Y5026D01*
X71885Y4982D01*
X71963Y4943D01*
X72043Y4907D01*
X72124Y4874D01*
X72206Y4845D01*
X72290Y4820D01*
X72375Y4799D01*
X72460Y4781D01*
X72547Y4768D01*
X72633Y4758D01*
X72721Y4752D01*
X72808Y4750D01*
X79020Y9294D02*
X81941Y9294D01*
X79020Y9294D02*
X78926Y9292D01*
X78832Y9286D01*
X78739Y9277D01*
X78646Y9263D01*
X78554Y9246D01*
X78462Y9224D01*
X78372Y9200D01*
X78282Y9171D01*
X78194Y9139D01*
X78107Y9103D01*
X78022Y9063D01*
X77939Y9020D01*
X77857Y8974D01*
X77777Y8924D01*
X77700Y8871D01*
X77625Y8815D01*
X77552Y8756D01*
X77481Y8694D01*
X77413Y8629D01*
X77348Y8561D01*
X77286Y8490D01*
X77227Y8417D01*
X77171Y8342D01*
X77118Y8265D01*
X77068Y8185D01*
X77022Y8103D01*
X76979Y8020D01*
X76939Y7935D01*
X76903Y7848D01*
X76871Y7760D01*
X76842Y7670D01*
X76818Y7580D01*
X76796Y7488D01*
X76779Y7396D01*
X76765Y7303D01*
X76756Y7210D01*
X76750Y7116D01*
X76748Y7022D01*
X76750Y6928D01*
X76756Y6834D01*
X76765Y6741D01*
X76779Y6648D01*
X76796Y6556D01*
X76818Y6464D01*
X76842Y6374D01*
X76871Y6284D01*
X76903Y6196D01*
X76939Y6109D01*
X76979Y6024D01*
X77022Y5941D01*
X77068Y5859D01*
X77118Y5779D01*
X77171Y5702D01*
X77227Y5627D01*
X77286Y5554D01*
X77348Y5483D01*
X77413Y5415D01*
X77481Y5350D01*
X77552Y5288D01*
X77625Y5229D01*
X77700Y5173D01*
X77777Y5120D01*
X77857Y5070D01*
X77939Y5024D01*
X78022Y4981D01*
X78107Y4941D01*
X78194Y4905D01*
X78282Y4873D01*
X78372Y4844D01*
X78462Y4820D01*
X78554Y4798D01*
X78646Y4781D01*
X78739Y4767D01*
X78832Y4758D01*
X78926Y4752D01*
X79020Y4750D01*
X81941Y4750D01*
X81941Y10592D01*
X81940Y10592D02*
X81938Y10679D01*
X81932Y10767D01*
X81922Y10853D01*
X81909Y10940D01*
X81891Y11025D01*
X81870Y11110D01*
X81845Y11194D01*
X81816Y11276D01*
X81783Y11357D01*
X81747Y11437D01*
X81708Y11515D01*
X81664Y11591D01*
X81618Y11665D01*
X81568Y11736D01*
X81515Y11806D01*
X81459Y11873D01*
X81400Y11937D01*
X81338Y11999D01*
X81274Y12058D01*
X81207Y12114D01*
X81137Y12167D01*
X81066Y12217D01*
X80992Y12263D01*
X80916Y12307D01*
X80838Y12346D01*
X80758Y12382D01*
X80677Y12415D01*
X80595Y12444D01*
X80511Y12469D01*
X80426Y12490D01*
X80341Y12508D01*
X80254Y12521D01*
X80168Y12531D01*
X80080Y12537D01*
X79993Y12539D01*
X77397Y12539D01*
X86713Y4750D02*
X91906Y12539D01*
X86713Y12539D02*
X91906Y4750D01*
X96167Y4750D02*
X96167Y12539D01*
X95843Y15785D02*
X95843Y16434D01*
X96492Y16434D01*
X96492Y15785D01*
X95843Y15785D01*
X101783Y9294D02*
X105029Y7995D01*
X101783Y9293D02*
X101708Y9326D01*
X101634Y9362D01*
X101562Y9401D01*
X101492Y9444D01*
X101425Y9490D01*
X101359Y9540D01*
X101297Y9592D01*
X101236Y9648D01*
X101179Y9706D01*
X101124Y9767D01*
X101073Y9831D01*
X101025Y9897D01*
X100980Y9966D01*
X100938Y10036D01*
X100900Y10109D01*
X100865Y10183D01*
X100834Y10259D01*
X100807Y10336D01*
X100784Y10415D01*
X100764Y10494D01*
X100749Y10575D01*
X100737Y10656D01*
X100729Y10738D01*
X100725Y10819D01*
X100726Y10901D01*
X100730Y10983D01*
X100738Y11065D01*
X100750Y11146D01*
X100766Y11226D01*
X100786Y11306D01*
X100810Y11384D01*
X100838Y11461D01*
X100869Y11537D01*
X100904Y11611D01*
X100942Y11683D01*
X100984Y11754D01*
X101030Y11822D01*
X101078Y11888D01*
X101130Y11951D01*
X101185Y12012D01*
X101243Y12070D01*
X101303Y12126D01*
X101366Y12178D01*
X101432Y12227D01*
X101500Y12273D01*
X101570Y12315D01*
X101642Y12355D01*
X101716Y12390D01*
X101791Y12422D01*
X101868Y12450D01*
X101946Y12474D01*
X102026Y12495D01*
X102106Y12512D01*
X102187Y12524D01*
X102268Y12533D01*
X102350Y12538D01*
X102432Y12539D01*
X102609Y12535D01*
X102786Y12526D01*
X102963Y12512D01*
X103140Y12495D01*
X103315Y12473D01*
X103491Y12448D01*
X103665Y12417D01*
X103839Y12383D01*
X104012Y12345D01*
X104184Y12302D01*
X104355Y12255D01*
X104525Y12205D01*
X104694Y12150D01*
X104861Y12091D01*
X105026Y12028D01*
X105191Y11961D01*
X105353Y11890D01*
X105029Y7996D02*
X105104Y7963D01*
X105178Y7927D01*
X105250Y7888D01*
X105320Y7845D01*
X105387Y7799D01*
X105453Y7749D01*
X105515Y7697D01*
X105576Y7641D01*
X105633Y7583D01*
X105688Y7522D01*
X105739Y7458D01*
X105787Y7392D01*
X105832Y7323D01*
X105874Y7253D01*
X105912Y7180D01*
X105947Y7106D01*
X105978Y7030D01*
X106005Y6953D01*
X106028Y6874D01*
X106048Y6795D01*
X106063Y6714D01*
X106075Y6633D01*
X106083Y6551D01*
X106087Y6470D01*
X106086Y6388D01*
X106082Y6306D01*
X106074Y6224D01*
X106062Y6143D01*
X106046Y6063D01*
X106026Y5983D01*
X106002Y5905D01*
X105974Y5828D01*
X105943Y5752D01*
X105908Y5678D01*
X105870Y5606D01*
X105828Y5535D01*
X105782Y5467D01*
X105734Y5401D01*
X105682Y5338D01*
X105627Y5277D01*
X105569Y5219D01*
X105509Y5163D01*
X105446Y5111D01*
X105380Y5062D01*
X105312Y5016D01*
X105242Y4974D01*
X105170Y4934D01*
X105096Y4899D01*
X105021Y4867D01*
X104944Y4839D01*
X104866Y4815D01*
X104786Y4794D01*
X104706Y4777D01*
X104625Y4765D01*
X104544Y4756D01*
X104462Y4751D01*
X104380Y4750D01*
X104120Y4757D01*
X103860Y4770D01*
X103600Y4789D01*
X103341Y4814D01*
X103082Y4846D01*
X102825Y4883D01*
X102568Y4927D01*
X102312Y4976D01*
X102058Y5032D01*
X101805Y5093D01*
X101554Y5161D01*
X101304Y5235D01*
X101056Y5314D01*
X100810Y5399D01*
X117379Y4750D02*
X117379Y16434D01*
X120625Y16434D01*
X120738Y16432D01*
X120851Y16426D01*
X120964Y16416D01*
X121077Y16402D01*
X121189Y16385D01*
X121300Y16363D01*
X121410Y16338D01*
X121520Y16308D01*
X121628Y16275D01*
X121735Y16238D01*
X121841Y16198D01*
X121945Y16153D01*
X122048Y16105D01*
X122149Y16054D01*
X122248Y15999D01*
X122345Y15941D01*
X122440Y15879D01*
X122533Y15814D01*
X122623Y15746D01*
X122711Y15675D01*
X122797Y15600D01*
X122880Y15523D01*
X122960Y15443D01*
X123037Y15360D01*
X123112Y15274D01*
X123183Y15186D01*
X123251Y15096D01*
X123316Y15003D01*
X123378Y14908D01*
X123436Y14811D01*
X123491Y14712D01*
X123542Y14611D01*
X123590Y14508D01*
X123635Y14404D01*
X123675Y14298D01*
X123712Y14191D01*
X123745Y14083D01*
X123775Y13973D01*
X123800Y13863D01*
X123822Y13752D01*
X123839Y13640D01*
X123853Y13527D01*
X123863Y13414D01*
X123869Y13301D01*
X123871Y13188D01*
X123869Y13075D01*
X123863Y12962D01*
X123853Y12849D01*
X123839Y12736D01*
X123822Y12624D01*
X123800Y12513D01*
X123775Y12403D01*
X123745Y12293D01*
X123712Y12185D01*
X123675Y12078D01*
X123635Y11972D01*
X123590Y11868D01*
X123542Y11765D01*
X123491Y11664D01*
X123436Y11565D01*
X123378Y11468D01*
X123316Y11373D01*
X123251Y11280D01*
X123183Y11190D01*
X123112Y11102D01*
X123037Y11016D01*
X122960Y10933D01*
X122880Y10853D01*
X122797Y10776D01*
X122711Y10701D01*
X122623Y10630D01*
X122533Y10562D01*
X122440Y10497D01*
X122345Y10435D01*
X122248Y10377D01*
X122149Y10322D01*
X122048Y10271D01*
X121945Y10223D01*
X121841Y10178D01*
X121735Y10138D01*
X121628Y10101D01*
X121520Y10068D01*
X121410Y10038D01*
X121300Y10013D01*
X121189Y9991D01*
X121077Y9974D01*
X120964Y9960D01*
X120851Y9950D01*
X120738Y9944D01*
X120625Y9942D01*
X120625Y9943D02*
X117379Y9943D01*
X121274Y9943D02*
X123870Y4750D01*
X130836Y9294D02*
X133757Y9294D01*
X130836Y9294D02*
X130742Y9292D01*
X130648Y9286D01*
X130555Y9277D01*
X130462Y9263D01*
X130370Y9246D01*
X130278Y9224D01*
X130188Y9200D01*
X130098Y9171D01*
X130010Y9139D01*
X129923Y9103D01*
X129838Y9063D01*
X129755Y9020D01*
X129673Y8974D01*
X129593Y8924D01*
X129516Y8871D01*
X129441Y8815D01*
X129368Y8756D01*
X129297Y8694D01*
X129229Y8629D01*
X129164Y8561D01*
X129102Y8490D01*
X129043Y8417D01*
X128987Y8342D01*
X128934Y8265D01*
X128884Y8185D01*
X128838Y8103D01*
X128795Y8020D01*
X128755Y7935D01*
X128719Y7848D01*
X128687Y7760D01*
X128658Y7670D01*
X128634Y7580D01*
X128612Y7488D01*
X128595Y7396D01*
X128581Y7303D01*
X128572Y7210D01*
X128566Y7116D01*
X128564Y7022D01*
X128566Y6928D01*
X128572Y6834D01*
X128581Y6741D01*
X128595Y6648D01*
X128612Y6556D01*
X128634Y6464D01*
X128658Y6374D01*
X128687Y6284D01*
X128719Y6196D01*
X128755Y6109D01*
X128795Y6024D01*
X128838Y5941D01*
X128884Y5859D01*
X128934Y5779D01*
X128987Y5702D01*
X129043Y5627D01*
X129102Y5554D01*
X129164Y5483D01*
X129229Y5415D01*
X129297Y5350D01*
X129368Y5288D01*
X129441Y5229D01*
X129516Y5173D01*
X129593Y5120D01*
X129673Y5070D01*
X129755Y5024D01*
X129838Y4981D01*
X129923Y4941D01*
X130010Y4905D01*
X130098Y4873D01*
X130188Y4844D01*
X130278Y4820D01*
X130370Y4798D01*
X130462Y4781D01*
X130555Y4767D01*
X130648Y4758D01*
X130742Y4752D01*
X130836Y4750D01*
X133757Y4750D01*
X133757Y10592D01*
X133756Y10592D02*
X133754Y10679D01*
X133748Y10767D01*
X133738Y10853D01*
X133725Y10940D01*
X133707Y11025D01*
X133686Y11110D01*
X133661Y11194D01*
X133632Y11276D01*
X133599Y11357D01*
X133563Y11437D01*
X133524Y11515D01*
X133480Y11591D01*
X133434Y11665D01*
X133384Y11736D01*
X133331Y11806D01*
X133275Y11873D01*
X133216Y11937D01*
X133154Y11999D01*
X133090Y12058D01*
X133023Y12114D01*
X132953Y12167D01*
X132882Y12217D01*
X132808Y12263D01*
X132732Y12307D01*
X132654Y12346D01*
X132574Y12382D01*
X132493Y12415D01*
X132411Y12444D01*
X132327Y12469D01*
X132242Y12490D01*
X132157Y12508D01*
X132070Y12521D01*
X131984Y12531D01*
X131896Y12537D01*
X131809Y12539D01*
X129213Y12539D01*
X144044Y16434D02*
X144044Y4750D01*
X140798Y4750D01*
X140711Y4752D01*
X140623Y4758D01*
X140537Y4768D01*
X140450Y4781D01*
X140365Y4799D01*
X140280Y4820D01*
X140196Y4845D01*
X140114Y4874D01*
X140033Y4907D01*
X139953Y4943D01*
X139875Y4982D01*
X139799Y5026D01*
X139725Y5072D01*
X139654Y5122D01*
X139584Y5175D01*
X139517Y5231D01*
X139453Y5290D01*
X139391Y5352D01*
X139332Y5416D01*
X139276Y5483D01*
X139223Y5553D01*
X139173Y5624D01*
X139127Y5698D01*
X139083Y5774D01*
X139044Y5852D01*
X139008Y5932D01*
X138975Y6013D01*
X138946Y6095D01*
X138921Y6179D01*
X138900Y6264D01*
X138882Y6349D01*
X138869Y6436D01*
X138859Y6522D01*
X138853Y6610D01*
X138851Y6697D01*
X138851Y10592D01*
X138853Y10679D01*
X138859Y10767D01*
X138869Y10853D01*
X138882Y10940D01*
X138900Y11025D01*
X138921Y11110D01*
X138946Y11194D01*
X138975Y11276D01*
X139008Y11357D01*
X139044Y11437D01*
X139083Y11515D01*
X139127Y11591D01*
X139173Y11665D01*
X139223Y11736D01*
X139276Y11806D01*
X139332Y11873D01*
X139391Y11937D01*
X139453Y11999D01*
X139517Y12058D01*
X139584Y12114D01*
X139654Y12167D01*
X139725Y12217D01*
X139799Y12263D01*
X139875Y12307D01*
X139953Y12346D01*
X140033Y12382D01*
X140114Y12415D01*
X140196Y12444D01*
X140280Y12469D01*
X140365Y12490D01*
X140450Y12508D01*
X140537Y12521D01*
X140623Y12531D01*
X140711Y12537D01*
X140798Y12539D01*
X144044Y12539D01*
X149126Y12539D02*
X149126Y4750D01*
X148801Y15785D02*
X148801Y16434D01*
X149451Y16434D01*
X149451Y15785D01*
X148801Y15785D01*
X153769Y9943D02*
X153769Y7346D01*
X153769Y9943D02*
X153771Y10044D01*
X153777Y10144D01*
X153787Y10244D01*
X153800Y10344D01*
X153818Y10443D01*
X153839Y10542D01*
X153864Y10639D01*
X153893Y10736D01*
X153926Y10831D01*
X153962Y10925D01*
X154002Y11017D01*
X154045Y11108D01*
X154092Y11197D01*
X154142Y11284D01*
X154196Y11370D01*
X154253Y11453D01*
X154313Y11533D01*
X154376Y11612D01*
X154443Y11688D01*
X154512Y11761D01*
X154584Y11831D01*
X154658Y11899D01*
X154735Y11964D01*
X154815Y12025D01*
X154897Y12084D01*
X154981Y12139D01*
X155067Y12191D01*
X155155Y12240D01*
X155245Y12285D01*
X155337Y12327D01*
X155430Y12365D01*
X155525Y12399D01*
X155620Y12430D01*
X155717Y12457D01*
X155815Y12480D01*
X155914Y12500D01*
X156014Y12515D01*
X156114Y12527D01*
X156214Y12535D01*
X156315Y12539D01*
X156415Y12539D01*
X156516Y12535D01*
X156616Y12527D01*
X156716Y12515D01*
X156816Y12500D01*
X156915Y12480D01*
X157013Y12457D01*
X157110Y12430D01*
X157205Y12399D01*
X157300Y12365D01*
X157393Y12327D01*
X157485Y12285D01*
X157575Y12240D01*
X157663Y12191D01*
X157749Y12139D01*
X157833Y12084D01*
X157915Y12025D01*
X157995Y11964D01*
X158072Y11899D01*
X158146Y11831D01*
X158218Y11761D01*
X158287Y11688D01*
X158354Y11612D01*
X158417Y11533D01*
X158477Y11453D01*
X158534Y11370D01*
X158588Y11284D01*
X158638Y11197D01*
X158685Y11108D01*
X158728Y11017D01*
X158768Y10925D01*
X158804Y10831D01*
X158837Y10736D01*
X158866Y10639D01*
X158891Y10542D01*
X158912Y10443D01*
X158930Y10344D01*
X158943Y10244D01*
X158953Y10144D01*
X158959Y10044D01*
X158961Y9943D01*
X158961Y7346D01*
X158959Y7245D01*
X158953Y7145D01*
X158943Y7045D01*
X158930Y6945D01*
X158912Y6846D01*
X158891Y6747D01*
X158866Y6650D01*
X158837Y6553D01*
X158804Y6458D01*
X158768Y6364D01*
X158728Y6272D01*
X158685Y6181D01*
X158638Y6092D01*
X158588Y6005D01*
X158534Y5919D01*
X158477Y5836D01*
X158417Y5756D01*
X158354Y5677D01*
X158287Y5601D01*
X158218Y5528D01*
X158146Y5458D01*
X158072Y5390D01*
X157995Y5325D01*
X157915Y5264D01*
X157833Y5205D01*
X157749Y5150D01*
X157663Y5098D01*
X157575Y5049D01*
X157485Y5004D01*
X157393Y4962D01*
X157300Y4924D01*
X157205Y4890D01*
X157110Y4859D01*
X157013Y4832D01*
X156915Y4809D01*
X156816Y4789D01*
X156716Y4774D01*
X156616Y4762D01*
X156516Y4754D01*
X156415Y4750D01*
X156315Y4750D01*
X156214Y4754D01*
X156114Y4762D01*
X156014Y4774D01*
X155914Y4789D01*
X155815Y4809D01*
X155717Y4832D01*
X155620Y4859D01*
X155525Y4890D01*
X155430Y4924D01*
X155337Y4962D01*
X155245Y5004D01*
X155155Y5049D01*
X155067Y5098D01*
X154981Y5150D01*
X154897Y5205D01*
X154815Y5264D01*
X154735Y5325D01*
X154658Y5390D01*
X154584Y5458D01*
X154512Y5528D01*
X154443Y5601D01*
X154376Y5677D01*
X154313Y5756D01*
X154253Y5836D01*
X154196Y5919D01*
X154142Y6005D01*
X154092Y6092D01*
X154045Y6181D01*
X154002Y6272D01*
X153962Y6364D01*
X153926Y6458D01*
X153893Y6553D01*
X153864Y6650D01*
X153839Y6747D01*
X153818Y6846D01*
X153800Y6945D01*
X153787Y7045D01*
X153777Y7145D01*
X153771Y7245D01*
X153769Y7346D01*
X169390Y12539D02*
X171986Y4750D01*
X174582Y12539D01*
X178915Y9943D02*
X178915Y7346D01*
X178915Y9943D02*
X178917Y10044D01*
X178923Y10144D01*
X178933Y10244D01*
X178946Y10344D01*
X178964Y10443D01*
X178985Y10542D01*
X179010Y10639D01*
X179039Y10736D01*
X179072Y10831D01*
X179108Y10925D01*
X179148Y11017D01*
X179191Y11108D01*
X179238Y11197D01*
X179288Y11284D01*
X179342Y11370D01*
X179399Y11453D01*
X179459Y11533D01*
X179522Y11612D01*
X179589Y11688D01*
X179658Y11761D01*
X179730Y11831D01*
X179804Y11899D01*
X179881Y11964D01*
X179961Y12025D01*
X180043Y12084D01*
X180127Y12139D01*
X180213Y12191D01*
X180301Y12240D01*
X180391Y12285D01*
X180483Y12327D01*
X180576Y12365D01*
X180671Y12399D01*
X180766Y12430D01*
X180863Y12457D01*
X180961Y12480D01*
X181060Y12500D01*
X181160Y12515D01*
X181260Y12527D01*
X181360Y12535D01*
X181461Y12539D01*
X181561Y12539D01*
X181662Y12535D01*
X181762Y12527D01*
X181862Y12515D01*
X181962Y12500D01*
X182061Y12480D01*
X182159Y12457D01*
X182256Y12430D01*
X182351Y12399D01*
X182446Y12365D01*
X182539Y12327D01*
X182631Y12285D01*
X182721Y12240D01*
X182809Y12191D01*
X182895Y12139D01*
X182979Y12084D01*
X183061Y12025D01*
X183141Y11964D01*
X183218Y11899D01*
X183292Y11831D01*
X183364Y11761D01*
X183433Y11688D01*
X183500Y11612D01*
X183563Y11533D01*
X183623Y11453D01*
X183680Y11370D01*
X183734Y11284D01*
X183784Y11197D01*
X183831Y11108D01*
X183874Y11017D01*
X183914Y10925D01*
X183950Y10831D01*
X183983Y10736D01*
X184012Y10639D01*
X184037Y10542D01*
X184058Y10443D01*
X184076Y10344D01*
X184089Y10244D01*
X184099Y10144D01*
X184105Y10044D01*
X184107Y9943D01*
X184107Y7346D01*
X184105Y7245D01*
X184099Y7145D01*
X184089Y7045D01*
X184076Y6945D01*
X184058Y6846D01*
X184037Y6747D01*
X184012Y6650D01*
X183983Y6553D01*
X183950Y6458D01*
X183914Y6364D01*
X183874Y6272D01*
X183831Y6181D01*
X183784Y6092D01*
X183734Y6005D01*
X183680Y5919D01*
X183623Y5836D01*
X183563Y5756D01*
X183500Y5677D01*
X183433Y5601D01*
X183364Y5528D01*
X183292Y5458D01*
X183218Y5390D01*
X183141Y5325D01*
X183061Y5264D01*
X182979Y5205D01*
X182895Y5150D01*
X182809Y5098D01*
X182721Y5049D01*
X182631Y5004D01*
X182539Y4962D01*
X182446Y4924D01*
X182351Y4890D01*
X182256Y4859D01*
X182159Y4832D01*
X182061Y4809D01*
X181962Y4789D01*
X181862Y4774D01*
X181762Y4762D01*
X181662Y4754D01*
X181561Y4750D01*
X181461Y4750D01*
X181360Y4754D01*
X181260Y4762D01*
X181160Y4774D01*
X181060Y4789D01*
X180961Y4809D01*
X180863Y4832D01*
X180766Y4859D01*
X180671Y4890D01*
X180576Y4924D01*
X180483Y4962D01*
X180391Y5004D01*
X180301Y5049D01*
X180213Y5098D01*
X180127Y5150D01*
X180043Y5205D01*
X179961Y5264D01*
X179881Y5325D01*
X179804Y5390D01*
X179730Y5458D01*
X179658Y5528D01*
X179589Y5601D01*
X179522Y5677D01*
X179459Y5756D01*
X179399Y5836D01*
X179342Y5919D01*
X179288Y6005D01*
X179238Y6092D01*
X179191Y6181D01*
X179148Y6272D01*
X179108Y6364D01*
X179072Y6458D01*
X179039Y6553D01*
X179010Y6650D01*
X178985Y6747D01*
X178964Y6846D01*
X178946Y6945D01*
X178933Y7045D01*
X178923Y7145D01*
X178917Y7245D01*
X178915Y7346D01*
X188440Y4750D02*
X193632Y12539D01*
X188440Y12539D02*
X193632Y4750D01*
X204173Y13837D02*
X207419Y16434D01*
X207419Y4750D01*
X204173Y4750D02*
X210665Y4750D01*
X215095Y4750D02*
X215095Y5399D01*
X215744Y5399D01*
X215744Y4750D01*
X215095Y4750D01*
X220176Y10592D02*
X220179Y10822D01*
X220187Y11052D01*
X220201Y11281D01*
X220220Y11510D01*
X220245Y11739D01*
X220275Y11966D01*
X220310Y12194D01*
X220351Y12420D01*
X220397Y12645D01*
X220449Y12869D01*
X220506Y13091D01*
X220568Y13313D01*
X220636Y13532D01*
X220709Y13750D01*
X220787Y13967D01*
X220870Y14181D01*
X220958Y14393D01*
X221051Y14603D01*
X221150Y14811D01*
X221149Y14811D02*
X221182Y14901D01*
X221218Y14990D01*
X221258Y15078D01*
X221302Y15163D01*
X221349Y15247D01*
X221399Y15329D01*
X221453Y15409D01*
X221509Y15486D01*
X221569Y15562D01*
X221632Y15635D01*
X221697Y15705D01*
X221766Y15773D01*
X221837Y15837D01*
X221910Y15899D01*
X221986Y15958D01*
X222064Y16014D01*
X222145Y16067D01*
X222227Y16116D01*
X222311Y16162D01*
X222398Y16205D01*
X222485Y16244D01*
X222575Y16280D01*
X222665Y16312D01*
X222757Y16340D01*
X222850Y16365D01*
X222944Y16386D01*
X223038Y16403D01*
X223133Y16417D01*
X223229Y16426D01*
X223325Y16432D01*
X223421Y16434D01*
X223517Y16432D01*
X223613Y16426D01*
X223709Y16417D01*
X223804Y16403D01*
X223898Y16386D01*
X223992Y16365D01*
X224085Y16340D01*
X224177Y16312D01*
X224267Y16280D01*
X224357Y16244D01*
X224444Y16205D01*
X224531Y16162D01*
X224615Y16116D01*
X224697Y16067D01*
X224778Y16014D01*
X224856Y15958D01*
X224932Y15899D01*
X225005Y15837D01*
X225076Y15773D01*
X225145Y15705D01*
X225210Y15635D01*
X225273Y15562D01*
X225333Y15486D01*
X225389Y15409D01*
X225443Y15329D01*
X225493Y15247D01*
X225540Y15163D01*
X225584Y15078D01*
X225624Y14990D01*
X225660Y14901D01*
X225693Y14811D01*
X225792Y14604D01*
X225885Y14394D01*
X225973Y14181D01*
X226056Y13967D01*
X226134Y13751D01*
X226207Y13533D01*
X226275Y13313D01*
X226337Y13092D01*
X226394Y12869D01*
X226446Y12645D01*
X226492Y12420D01*
X226533Y12194D01*
X226568Y11967D01*
X226598Y11739D01*
X226623Y11510D01*
X226642Y11281D01*
X226656Y11052D01*
X226664Y10822D01*
X226667Y10592D01*
X220175Y10592D02*
X220178Y10362D01*
X220186Y10132D01*
X220200Y9903D01*
X220219Y9674D01*
X220244Y9445D01*
X220274Y9217D01*
X220309Y8990D01*
X220350Y8764D01*
X220396Y8539D01*
X220448Y8315D01*
X220505Y8092D01*
X220567Y7871D01*
X220635Y7651D01*
X220708Y7433D01*
X220786Y7217D01*
X220869Y7003D01*
X220957Y6791D01*
X221050Y6580D01*
X221149Y6373D01*
X221182Y6283D01*
X221218Y6194D01*
X221259Y6106D01*
X221302Y6021D01*
X221349Y5937D01*
X221399Y5855D01*
X221453Y5775D01*
X221509Y5698D01*
X221569Y5622D01*
X221632Y5549D01*
X221697Y5479D01*
X221766Y5411D01*
X221837Y5347D01*
X221910Y5285D01*
X221986Y5226D01*
X222064Y5170D01*
X222145Y5117D01*
X222227Y5068D01*
X222311Y5022D01*
X222398Y4979D01*
X222485Y4940D01*
X222575Y4904D01*
X222665Y4872D01*
X222757Y4844D01*
X222850Y4819D01*
X222944Y4798D01*
X223038Y4781D01*
X223133Y4767D01*
X223229Y4758D01*
X223325Y4752D01*
X223421Y4750D01*
X225693Y6373D02*
X225792Y6580D01*
X225885Y6791D01*
X225973Y7003D01*
X226056Y7217D01*
X226134Y7433D01*
X226207Y7651D01*
X226275Y7871D01*
X226337Y8092D01*
X226394Y8315D01*
X226446Y8539D01*
X226492Y8764D01*
X226533Y8990D01*
X226568Y9217D01*
X226598Y9445D01*
X226623Y9674D01*
X226642Y9903D01*
X226656Y10132D01*
X226664Y10362D01*
X226667Y10592D01*
X225693Y6373D02*
X225660Y6283D01*
X225624Y6194D01*
X225584Y6106D01*
X225540Y6021D01*
X225493Y5937D01*
X225443Y5855D01*
X225389Y5775D01*
X225333Y5698D01*
X225273Y5622D01*
X225210Y5549D01*
X225145Y5479D01*
X225076Y5411D01*
X225005Y5347D01*
X224932Y5285D01*
X224856Y5226D01*
X224778Y5170D01*
X224697Y5117D01*
X224615Y5068D01*
X224531Y5022D01*
X224444Y4979D01*
X224357Y4940D01*
X224267Y4904D01*
X224177Y4872D01*
X224085Y4844D01*
X223992Y4819D01*
X223898Y4798D01*
X223804Y4781D01*
X223709Y4767D01*
X223613Y4758D01*
X223517Y4752D01*
X223421Y4750D01*
X220824Y7346D02*
X226017Y13837D01*
D11*
X142875Y80970D03*
D12*
X31242Y25400D02*
X5842Y25400D01*
X31242Y25400D02*
X31242Y203200D01*
X31242Y228600D01*
X5842Y228600D01*
X234442Y203200D02*
X259842Y203200D01*
X234442Y203200D02*
X234442Y228600D01*
X234442Y203200D02*
X234442Y25400D01*
X259842Y25400D01*
X259842Y228600D02*
X234442Y228600D01*
X31242Y203200D02*
X5842Y203200D01*
X177130Y261785D02*
X177130Y288785D01*
X177130Y261785D02*
X181130Y261785D01*
X181130Y148785D01*
X121130Y148785D01*
X121130Y261785D01*
X125130Y261785D01*
X125130Y288785D01*
X177130Y288785D01*
X176530Y261785D02*
X125730Y261785D01*
X71120Y241300D02*
X71120Y228600D01*
X71120Y241300D02*
X71120Y254000D01*
X77470Y254000D02*
X71120Y241300D01*
X64770Y254000D01*
M02*
