G04 EAGLE Gerber RS-274X export*
G75*
%MOMM*%
%FSLAX34Y34*%
%LPD*%
%INSilkscreen Bottom*%
%IPPOS*%
%AMOC8*
5,1,8,0,0,1.08239X$1,22.5*%
G01*
G04 Define Apertures*
%ADD10C,0.304800*%
%ADD11C,0.508000*%
G36*
X115151Y230673D02*
X109229Y230673D01*
X108534Y230657D01*
X107884Y230611D01*
X107279Y230534D01*
X106719Y230425D01*
X106204Y230286D01*
X105733Y230116D01*
X105307Y229916D01*
X104926Y229684D01*
X104590Y229421D01*
X104299Y229128D01*
X104052Y228803D01*
X103851Y228448D01*
X103694Y228061D01*
X103582Y227644D01*
X103515Y227196D01*
X103492Y226717D01*
X103505Y226363D01*
X103543Y226023D01*
X103606Y225698D01*
X103695Y225387D01*
X103808Y225091D01*
X103948Y224809D01*
X104112Y224541D01*
X104302Y224288D01*
X104515Y224053D01*
X104646Y223932D01*
X104749Y223837D01*
X105003Y223642D01*
X105279Y223467D01*
X105576Y223312D01*
X105894Y223178D01*
X106232Y223064D01*
X106592Y222970D01*
X106120Y222899D01*
X105676Y222802D01*
X105260Y222678D01*
X104871Y222529D01*
X104511Y222353D01*
X104178Y222151D01*
X103873Y221923D01*
X103746Y221805D01*
X103596Y221668D01*
X103350Y221392D01*
X103136Y221098D01*
X102955Y220787D01*
X102807Y220458D01*
X102692Y220112D01*
X102610Y219748D01*
X102560Y219367D01*
X102544Y218968D01*
X102550Y218700D01*
X102569Y218439D01*
X102600Y218186D01*
X102643Y217941D01*
X102767Y217473D01*
X102940Y217035D01*
X103163Y216627D01*
X103435Y216249D01*
X103757Y215902D01*
X104128Y215585D01*
X104544Y215301D01*
X104998Y215056D01*
X105491Y214848D01*
X106022Y214678D01*
X106592Y214546D01*
X107201Y214452D01*
X107849Y214395D01*
X108535Y214376D01*
X115151Y214376D01*
X115151Y230673D01*
G37*
G36*
X66178Y235944D02*
X66505Y235964D01*
X66821Y235997D01*
X67127Y236042D01*
X67423Y236101D01*
X67708Y236173D01*
X67982Y236258D01*
X68246Y236356D01*
X68500Y236467D01*
X68743Y236591D01*
X68975Y236728D01*
X69197Y236878D01*
X69409Y237041D01*
X69610Y237217D01*
X69801Y237407D01*
X69981Y237609D01*
X70309Y238050D01*
X70593Y238538D01*
X70834Y239072D01*
X71031Y239652D01*
X71184Y240279D01*
X71293Y240952D01*
X71359Y241672D01*
X71381Y242438D01*
X71359Y243222D01*
X71293Y243956D01*
X71183Y244639D01*
X71030Y245272D01*
X70833Y245854D01*
X70592Y246385D01*
X70307Y246866D01*
X69978Y247296D01*
X69797Y247492D01*
X69606Y247675D01*
X69403Y247846D01*
X69189Y248004D01*
X68965Y248150D01*
X68729Y248283D01*
X68483Y248403D01*
X68225Y248510D01*
X67957Y248605D01*
X67677Y248687D01*
X67387Y248757D01*
X67086Y248814D01*
X66773Y248858D01*
X66450Y248890D01*
X66116Y248909D01*
X65771Y248915D01*
X65418Y248909D01*
X65078Y248890D01*
X64749Y248860D01*
X64431Y248816D01*
X64126Y248761D01*
X63833Y248693D01*
X63551Y248613D01*
X63281Y248520D01*
X63023Y248416D01*
X62777Y248298D01*
X62543Y248169D01*
X62321Y248027D01*
X62110Y247873D01*
X61911Y247706D01*
X61724Y247527D01*
X61549Y247336D01*
X61385Y247132D01*
X61232Y246914D01*
X60957Y246438D01*
X60725Y245907D01*
X60534Y245322D01*
X60386Y244683D01*
X60281Y243989D01*
X60217Y243241D01*
X60196Y242438D01*
X60219Y241643D01*
X60286Y240900D01*
X60399Y240210D01*
X60558Y239573D01*
X60654Y239273D01*
X60761Y238987D01*
X60879Y238714D01*
X61009Y238454D01*
X61151Y238207D01*
X61303Y237974D01*
X61467Y237753D01*
X61642Y237546D01*
X62024Y237169D01*
X62446Y236842D01*
X62910Y236566D01*
X63157Y236447D01*
X63414Y236340D01*
X63682Y236246D01*
X63960Y236164D01*
X64248Y236095D01*
X64546Y236038D01*
X64854Y235994D01*
X65173Y235963D01*
X65501Y235944D01*
X65840Y235938D01*
X66178Y235944D01*
G37*
G36*
X100982Y244104D02*
X100990Y244540D01*
X101013Y244941D01*
X101052Y245308D01*
X101107Y245639D01*
X101177Y245935D01*
X101262Y246196D01*
X101363Y246422D01*
X101480Y246613D01*
X101617Y246776D01*
X101778Y246917D01*
X101965Y247036D01*
X102177Y247134D01*
X102413Y247210D01*
X102675Y247264D01*
X102961Y247297D01*
X103272Y247307D01*
X103604Y247292D01*
X103917Y247244D01*
X104211Y247165D01*
X104485Y247054D01*
X104741Y246912D01*
X104978Y246738D01*
X105196Y246533D01*
X105395Y246295D01*
X105572Y246029D01*
X105726Y245736D01*
X105857Y245417D01*
X105963Y245071D01*
X106046Y244698D01*
X106105Y244299D01*
X106141Y243873D01*
X106152Y243421D01*
X106152Y236169D01*
X108211Y236169D01*
X108211Y244104D01*
X108219Y244540D01*
X108242Y244941D01*
X108281Y245308D01*
X108336Y245639D01*
X108405Y245935D01*
X108491Y246196D01*
X108592Y246422D01*
X108709Y246613D01*
X108845Y246776D01*
X109007Y246917D01*
X109194Y247036D01*
X109405Y247134D01*
X109642Y247210D01*
X109903Y247264D01*
X110190Y247297D01*
X110501Y247307D01*
X110825Y247291D01*
X111132Y247244D01*
X111421Y247164D01*
X111693Y247053D01*
X111947Y246910D01*
X112184Y246735D01*
X112404Y246528D01*
X112606Y246290D01*
X112788Y246022D01*
X112945Y245729D01*
X113079Y245409D01*
X113188Y245064D01*
X113272Y244692D01*
X113333Y244294D01*
X113369Y243871D01*
X113381Y243421D01*
X113381Y236169D01*
X115452Y236169D01*
X115452Y246012D01*
X115469Y247773D01*
X115491Y248335D01*
X115521Y248684D01*
X113555Y248684D01*
X113532Y248371D01*
X113503Y247787D01*
X113462Y246544D01*
X113428Y246544D01*
X113257Y246864D01*
X113080Y247158D01*
X112897Y247428D01*
X112708Y247672D01*
X112512Y247890D01*
X112311Y248084D01*
X112103Y248252D01*
X111889Y248395D01*
X111666Y248517D01*
X111432Y248622D01*
X111185Y248712D01*
X110926Y248785D01*
X110656Y248842D01*
X110373Y248883D01*
X110079Y248907D01*
X109773Y248915D01*
X109426Y248906D01*
X109099Y248880D01*
X108789Y248835D01*
X108499Y248773D01*
X108227Y248694D01*
X107974Y248596D01*
X107739Y248481D01*
X107523Y248348D01*
X107324Y248196D01*
X107141Y248023D01*
X106974Y247829D01*
X106822Y247614D01*
X106686Y247378D01*
X106566Y247121D01*
X106461Y246843D01*
X106372Y246544D01*
X106338Y246544D01*
X106171Y246848D01*
X105997Y247130D01*
X105813Y247390D01*
X105622Y247628D01*
X105422Y247844D01*
X105213Y248038D01*
X104996Y248210D01*
X104770Y248360D01*
X104534Y248490D01*
X104286Y248603D01*
X104026Y248698D01*
X103754Y248776D01*
X103470Y248837D01*
X103173Y248880D01*
X102864Y248906D01*
X102544Y248915D01*
X102086Y248899D01*
X101660Y248851D01*
X101267Y248770D01*
X100906Y248658D01*
X100577Y248513D01*
X100281Y248336D01*
X100017Y248127D01*
X99785Y247886D01*
X99583Y247608D01*
X99408Y247289D01*
X99260Y246928D01*
X99139Y246527D01*
X99045Y246084D01*
X98977Y245600D01*
X98937Y245075D01*
X98924Y244508D01*
X98924Y236169D01*
X100982Y236169D01*
X100982Y244104D01*
G37*
G36*
X76963Y214161D02*
X77649Y214209D01*
X78296Y214290D01*
X78904Y214403D01*
X79472Y214549D01*
X80002Y214727D01*
X80492Y214937D01*
X80943Y215180D01*
X81355Y215455D01*
X81728Y215762D01*
X82062Y216102D01*
X82356Y216474D01*
X82612Y216878D01*
X82828Y217315D01*
X83005Y217784D01*
X83143Y218285D01*
X81004Y218713D01*
X80898Y218358D01*
X80767Y218028D01*
X80609Y217721D01*
X80425Y217440D01*
X80216Y217182D01*
X79980Y216949D01*
X79718Y216740D01*
X79431Y216556D01*
X79116Y216395D01*
X78775Y216255D01*
X78406Y216137D01*
X78011Y216040D01*
X77588Y215965D01*
X77138Y215911D01*
X76661Y215879D01*
X76157Y215868D01*
X75638Y215880D01*
X75149Y215914D01*
X74690Y215971D01*
X74262Y216052D01*
X73865Y216155D01*
X73498Y216281D01*
X73161Y216430D01*
X72855Y216602D01*
X72583Y216797D01*
X72347Y217013D01*
X72147Y217250D01*
X71983Y217509D01*
X71856Y217789D01*
X71766Y218091D01*
X71711Y218415D01*
X71693Y218760D01*
X71716Y219140D01*
X71784Y219482D01*
X71898Y219788D01*
X72057Y220055D01*
X72258Y220293D01*
X72495Y220509D01*
X72770Y220703D01*
X73081Y220876D01*
X73426Y221032D01*
X73804Y221174D01*
X74213Y221303D01*
X74654Y221420D01*
X76678Y221894D01*
X77585Y222108D01*
X78377Y222322D01*
X79051Y222536D01*
X79610Y222750D01*
X80084Y222970D01*
X80505Y223202D01*
X80873Y223447D01*
X81189Y223704D01*
X81461Y223978D01*
X81699Y224275D01*
X81903Y224594D01*
X82074Y224936D01*
X82208Y225302D01*
X82303Y225693D01*
X82361Y226111D01*
X82380Y226555D01*
X82374Y226813D01*
X82355Y227064D01*
X82324Y227306D01*
X82280Y227542D01*
X82155Y227990D01*
X81980Y228409D01*
X81754Y228797D01*
X81479Y229155D01*
X81154Y229484D01*
X80778Y229782D01*
X80356Y230048D01*
X79891Y230278D01*
X79382Y230473D01*
X78831Y230632D01*
X78236Y230756D01*
X77598Y230845D01*
X76917Y230898D01*
X76192Y230916D01*
X75519Y230902D01*
X74886Y230862D01*
X74294Y230796D01*
X73743Y230703D01*
X73233Y230584D01*
X72763Y230437D01*
X72335Y230265D01*
X71947Y230065D01*
X71594Y229834D01*
X71268Y229566D01*
X70969Y229260D01*
X70698Y228916D01*
X70455Y228535D01*
X70238Y228117D01*
X70050Y227661D01*
X69889Y227168D01*
X72063Y226786D01*
X72163Y227099D01*
X72283Y227390D01*
X72423Y227658D01*
X72583Y227904D01*
X72764Y228128D01*
X72965Y228329D01*
X73186Y228509D01*
X73428Y228666D01*
X73691Y228803D01*
X73979Y228922D01*
X74291Y229022D01*
X74628Y229104D01*
X74988Y229168D01*
X75373Y229214D01*
X75782Y229241D01*
X76215Y229250D01*
X76689Y229240D01*
X77135Y229210D01*
X77551Y229159D01*
X77939Y229088D01*
X78297Y228997D01*
X78627Y228886D01*
X78928Y228754D01*
X79199Y228602D01*
X79441Y228431D01*
X79650Y228239D01*
X79827Y228027D01*
X79971Y227796D01*
X80084Y227544D01*
X80164Y227273D01*
X80213Y226982D01*
X80229Y226671D01*
X80222Y226487D01*
X80204Y226311D01*
X80129Y225984D01*
X80004Y225690D01*
X79830Y225427D01*
X79608Y225191D01*
X79342Y224973D01*
X79033Y224775D01*
X78679Y224595D01*
X78210Y224414D01*
X77554Y224214D01*
X76712Y223995D01*
X75683Y223756D01*
X74185Y223403D01*
X73455Y223207D01*
X72757Y222975D01*
X72096Y222705D01*
X71479Y222391D01*
X71191Y222214D01*
X70922Y222018D01*
X70673Y221804D01*
X70444Y221570D01*
X70236Y221316D01*
X70052Y221041D01*
X69892Y220744D01*
X69756Y220425D01*
X69647Y220081D01*
X69569Y219708D01*
X69522Y219306D01*
X69507Y218875D01*
X69514Y218597D01*
X69534Y218327D01*
X69569Y218065D01*
X69617Y217811D01*
X69679Y217565D01*
X69755Y217327D01*
X69844Y217097D01*
X69948Y216874D01*
X70196Y216454D01*
X70499Y216065D01*
X70857Y215708D01*
X71271Y215382D01*
X71734Y215092D01*
X72243Y214841D01*
X72796Y214628D01*
X73395Y214454D01*
X74038Y214319D01*
X74726Y214222D01*
X75460Y214164D01*
X76238Y214145D01*
X76963Y214161D01*
G37*
G36*
X93350Y214156D02*
X93827Y214190D01*
X94287Y214247D01*
X94732Y214327D01*
X95160Y214429D01*
X95573Y214555D01*
X95970Y214703D01*
X96351Y214873D01*
X96713Y215066D01*
X97055Y215279D01*
X97376Y215513D01*
X97675Y215767D01*
X97954Y216042D01*
X98212Y216337D01*
X98448Y216653D01*
X98664Y216990D01*
X98857Y217345D01*
X99023Y217717D01*
X99165Y218106D01*
X99280Y218511D01*
X99370Y218933D01*
X99434Y219371D01*
X99472Y219826D01*
X99485Y220298D01*
X99485Y230673D01*
X97276Y230673D01*
X97276Y220483D01*
X97258Y219942D01*
X97205Y219434D01*
X97117Y218960D01*
X96993Y218520D01*
X96833Y218113D01*
X96639Y217740D01*
X96408Y217400D01*
X96143Y217094D01*
X95844Y216823D01*
X95513Y216588D01*
X95151Y216389D01*
X94758Y216227D01*
X94333Y216100D01*
X93876Y216010D01*
X93389Y215956D01*
X92869Y215937D01*
X92335Y215956D01*
X91832Y216012D01*
X91359Y216106D01*
X90916Y216237D01*
X90504Y216405D01*
X90123Y216611D01*
X89772Y216854D01*
X89452Y217135D01*
X89166Y217451D01*
X88918Y217802D01*
X88708Y218188D01*
X88537Y218608D01*
X88403Y219062D01*
X88308Y219551D01*
X88251Y220075D01*
X88231Y220633D01*
X88231Y230673D01*
X86034Y230673D01*
X86034Y220506D01*
X86047Y220020D01*
X86086Y219551D01*
X86152Y219099D01*
X86244Y218664D01*
X86361Y218246D01*
X86506Y217845D01*
X86676Y217461D01*
X86872Y217094D01*
X87093Y216746D01*
X87335Y216419D01*
X87599Y216114D01*
X87884Y215829D01*
X88192Y215566D01*
X88521Y215323D01*
X88871Y215102D01*
X89243Y214902D01*
X89635Y214725D01*
X90044Y214571D01*
X90470Y214441D01*
X90913Y214334D01*
X91374Y214251D01*
X91851Y214192D01*
X92346Y214157D01*
X92858Y214145D01*
X93350Y214156D01*
G37*
G36*
X86921Y241883D02*
X88447Y240622D01*
X88447Y236169D01*
X90529Y236169D01*
X90529Y253333D01*
X88447Y253333D01*
X88447Y242612D01*
X82953Y248684D01*
X80513Y248684D01*
X85590Y243306D01*
X80247Y236169D01*
X82687Y236169D01*
X86921Y241883D01*
G37*
%LPC*%
G36*
X65412Y237495D02*
X64994Y237551D01*
X64609Y237645D01*
X64257Y237777D01*
X63939Y237946D01*
X63655Y238153D01*
X63404Y238397D01*
X63186Y238679D01*
X62998Y239001D01*
X62834Y239365D01*
X62696Y239772D01*
X62583Y240220D01*
X62495Y240711D01*
X62432Y241245D01*
X62395Y241820D01*
X62382Y242438D01*
X62394Y243064D01*
X62430Y243645D01*
X62490Y244182D01*
X62574Y244675D01*
X62683Y245123D01*
X62815Y245527D01*
X62971Y245887D01*
X63151Y246203D01*
X63360Y246478D01*
X63601Y246716D01*
X63875Y246918D01*
X64182Y247083D01*
X64522Y247212D01*
X64894Y247303D01*
X65299Y247358D01*
X65736Y247377D01*
X66177Y247358D01*
X66587Y247302D01*
X66965Y247208D01*
X67311Y247078D01*
X67625Y246909D01*
X67908Y246703D01*
X68160Y246460D01*
X68379Y246180D01*
X68570Y245859D01*
X68736Y245497D01*
X68876Y245092D01*
X68991Y244646D01*
X69080Y244157D01*
X69144Y243626D01*
X69182Y243053D01*
X69195Y242438D01*
X69182Y241839D01*
X69144Y241277D01*
X69082Y240755D01*
X68994Y240271D01*
X68881Y239825D01*
X68742Y239418D01*
X68579Y239050D01*
X68391Y238720D01*
X68175Y238428D01*
X67931Y238176D01*
X67659Y237962D01*
X67357Y237787D01*
X67027Y237651D01*
X66668Y237554D01*
X66280Y237496D01*
X65864Y237476D01*
X65412Y237495D01*
G37*
G36*
X108651Y216146D02*
X108162Y216157D01*
X107707Y216193D01*
X107287Y216251D01*
X106901Y216334D01*
X106550Y216439D01*
X106233Y216569D01*
X105950Y216721D01*
X105701Y216897D01*
X105484Y217097D01*
X105297Y217320D01*
X105138Y217565D01*
X105007Y217834D01*
X104906Y218126D01*
X104834Y218442D01*
X104791Y218780D01*
X104776Y219141D01*
X104792Y219490D01*
X104839Y219816D01*
X104918Y220120D01*
X105029Y220401D01*
X105171Y220660D01*
X105345Y220896D01*
X105551Y221110D01*
X105788Y221301D01*
X106057Y221470D01*
X106357Y221616D01*
X106689Y221740D01*
X107053Y221841D01*
X107448Y221920D01*
X107875Y221976D01*
X108334Y222010D01*
X108824Y222021D01*
X112942Y222021D01*
X112942Y216146D01*
X108651Y216146D01*
G37*
G36*
X109229Y223745D02*
X108801Y223755D01*
X108400Y223786D01*
X108028Y223838D01*
X107684Y223911D01*
X107367Y224004D01*
X107079Y224119D01*
X106818Y224254D01*
X106586Y224410D01*
X106382Y224587D01*
X106204Y224787D01*
X106054Y225008D01*
X105931Y225253D01*
X105836Y225519D01*
X105768Y225807D01*
X105727Y226118D01*
X105713Y226451D01*
X105727Y226769D01*
X105769Y227063D01*
X105840Y227334D01*
X105938Y227582D01*
X106065Y227806D01*
X106220Y228006D01*
X106404Y228183D01*
X106615Y228336D01*
X106853Y228469D01*
X107117Y228584D01*
X107406Y228682D01*
X107720Y228761D01*
X108059Y228823D01*
X108424Y228868D01*
X108814Y228894D01*
X109229Y228903D01*
X112942Y228903D01*
X112942Y223745D01*
X109229Y223745D01*
G37*
%LPD*%
G36*
X78639Y245769D02*
X78656Y247157D01*
X78709Y248684D01*
X76742Y248684D01*
X76673Y246981D01*
X76650Y246128D01*
X76603Y246128D01*
X76345Y246868D01*
X76209Y247190D01*
X76069Y247481D01*
X75923Y247740D01*
X75773Y247967D01*
X75618Y248162D01*
X75458Y248325D01*
X75288Y248463D01*
X75101Y248583D01*
X74898Y248685D01*
X74678Y248768D01*
X74441Y248832D01*
X74188Y248878D01*
X73918Y248906D01*
X73631Y248915D01*
X73422Y248908D01*
X73212Y248886D01*
X73000Y248850D01*
X72787Y248799D01*
X72787Y246891D01*
X73012Y246942D01*
X73272Y246978D01*
X73567Y246999D01*
X73897Y247007D01*
X74211Y246989D01*
X74506Y246937D01*
X74782Y246850D01*
X75039Y246728D01*
X75277Y246571D01*
X75495Y246379D01*
X75695Y246152D01*
X75875Y245891D01*
X76035Y245596D01*
X76173Y245272D01*
X76291Y244918D01*
X76387Y244533D01*
X76461Y244118D01*
X76515Y243673D01*
X76547Y243198D01*
X76557Y242693D01*
X76557Y236169D01*
X78639Y236169D01*
X78639Y245769D01*
G37*
G36*
X95791Y248684D02*
X93709Y248684D01*
X93709Y236169D01*
X95791Y236169D01*
X95791Y248684D01*
G37*
G36*
X95791Y253333D02*
X93709Y253333D01*
X93709Y251344D01*
X95791Y251344D01*
X95791Y253333D01*
G37*
G36*
X56467Y213159D02*
X62090Y213159D01*
X63509Y209550D01*
X65243Y209550D01*
X60207Y221891D01*
X58306Y221891D01*
X53349Y209550D01*
X55057Y209550D01*
X56467Y213159D01*
G37*
G36*
X50468Y220060D02*
X50424Y219211D01*
X50380Y217748D01*
X50380Y209550D01*
X51869Y209550D01*
X51869Y221891D01*
X49925Y221891D01*
X43251Y211310D01*
X43330Y212791D01*
X43356Y213798D01*
X43356Y221891D01*
X41849Y221891D01*
X41849Y209550D01*
X43864Y209550D01*
X50468Y220060D01*
G37*
%LPC*%
G36*
X56966Y214464D02*
X58551Y218536D01*
X58797Y219180D01*
X59042Y219903D01*
X59278Y220630D01*
X59357Y220384D01*
X59629Y219554D01*
X60005Y218519D01*
X61582Y214464D01*
X56966Y214464D01*
G37*
%LPD*%
G36*
X67179Y189274D02*
X71024Y189274D01*
X71024Y184150D01*
X72697Y184150D01*
X72697Y196491D01*
X66890Y196491D01*
X66383Y196476D01*
X65907Y196432D01*
X65460Y196360D01*
X65043Y196258D01*
X64655Y196126D01*
X64297Y195966D01*
X63969Y195777D01*
X63671Y195558D01*
X63405Y195313D01*
X63175Y195046D01*
X62980Y194756D01*
X62820Y194442D01*
X62696Y194106D01*
X62608Y193747D01*
X62554Y193366D01*
X62537Y192961D01*
X62549Y192624D01*
X62587Y192301D01*
X62649Y191991D01*
X62737Y191695D01*
X62850Y191413D01*
X62987Y191145D01*
X63150Y190890D01*
X63338Y190649D01*
X63548Y190425D01*
X63777Y190224D01*
X64025Y190043D01*
X64136Y189977D01*
X64292Y189885D01*
X64578Y189748D01*
X64883Y189632D01*
X65207Y189539D01*
X65550Y189466D01*
X64058Y187203D01*
X62046Y184150D01*
X63973Y184150D01*
X67179Y189274D01*
G37*
G36*
X55736Y183987D02*
X56256Y184024D01*
X56745Y184085D01*
X57205Y184171D01*
X57636Y184281D01*
X58037Y184416D01*
X58408Y184575D01*
X58750Y184759D01*
X59062Y184967D01*
X59344Y185200D01*
X59597Y185457D01*
X59820Y185739D01*
X60013Y186045D01*
X60177Y186375D01*
X60311Y186731D01*
X60416Y187110D01*
X58796Y187434D01*
X58716Y187166D01*
X58616Y186915D01*
X58497Y186683D01*
X58358Y186470D01*
X58199Y186275D01*
X58021Y186099D01*
X57822Y185941D01*
X57604Y185801D01*
X57367Y185679D01*
X57108Y185573D01*
X56829Y185483D01*
X56529Y185410D01*
X56209Y185353D01*
X55869Y185312D01*
X55508Y185288D01*
X55126Y185280D01*
X54732Y185289D01*
X54362Y185315D01*
X54015Y185358D01*
X53691Y185419D01*
X53390Y185497D01*
X53112Y185593D01*
X52857Y185706D01*
X52625Y185836D01*
X52419Y185983D01*
X52240Y186147D01*
X52089Y186326D01*
X51965Y186522D01*
X51869Y186735D01*
X51800Y186963D01*
X51759Y187208D01*
X51745Y187469D01*
X51762Y187757D01*
X51814Y188017D01*
X51900Y188248D01*
X52021Y188450D01*
X52173Y188631D01*
X52353Y188794D01*
X52560Y188941D01*
X52796Y189072D01*
X53058Y189190D01*
X53343Y189298D01*
X53653Y189396D01*
X53987Y189484D01*
X55520Y189843D01*
X56207Y190005D01*
X56806Y190167D01*
X57317Y190329D01*
X57740Y190491D01*
X58099Y190658D01*
X58418Y190834D01*
X58697Y191019D01*
X58936Y191214D01*
X59142Y191422D01*
X59322Y191646D01*
X59477Y191888D01*
X59606Y192147D01*
X59707Y192424D01*
X59780Y192720D01*
X59823Y193037D01*
X59838Y193373D01*
X59819Y193758D01*
X59762Y194120D01*
X59667Y194459D01*
X59535Y194776D01*
X59364Y195070D01*
X59156Y195342D01*
X58909Y195590D01*
X58625Y195816D01*
X58305Y196018D01*
X57953Y196192D01*
X57568Y196339D01*
X57150Y196460D01*
X56700Y196554D01*
X56217Y196621D01*
X55701Y196661D01*
X55152Y196675D01*
X54642Y196665D01*
X54163Y196634D01*
X53715Y196584D01*
X53297Y196514D01*
X52911Y196423D01*
X52556Y196313D01*
X52231Y196182D01*
X51938Y196031D01*
X51670Y195856D01*
X51423Y195652D01*
X51197Y195421D01*
X50992Y195161D01*
X50807Y194872D01*
X50644Y194555D01*
X50501Y194210D01*
X50379Y193837D01*
X52025Y193548D01*
X52101Y193785D01*
X52192Y194005D01*
X52298Y194208D01*
X52419Y194394D01*
X52556Y194564D01*
X52708Y194716D01*
X52876Y194852D01*
X53059Y194971D01*
X53258Y195075D01*
X53476Y195165D01*
X53713Y195241D01*
X53968Y195303D01*
X54241Y195351D01*
X54532Y195386D01*
X54842Y195407D01*
X55170Y195413D01*
X55529Y195406D01*
X55866Y195383D01*
X56181Y195345D01*
X56475Y195291D01*
X56746Y195222D01*
X56996Y195138D01*
X57223Y195038D01*
X57429Y194923D01*
X57612Y194793D01*
X57770Y194648D01*
X57904Y194487D01*
X58014Y194312D01*
X58099Y194122D01*
X58160Y193916D01*
X58197Y193696D01*
X58209Y193460D01*
X58190Y193188D01*
X58133Y192940D01*
X58039Y192717D01*
X57907Y192519D01*
X57739Y192340D01*
X57538Y192175D01*
X57303Y192024D01*
X57035Y191888D01*
X56680Y191752D01*
X56183Y191600D01*
X55546Y191434D01*
X54767Y191253D01*
X53632Y190986D01*
X53080Y190837D01*
X52551Y190662D01*
X52050Y190457D01*
X51583Y190220D01*
X51365Y190086D01*
X51161Y189937D01*
X50973Y189775D01*
X50799Y189598D01*
X50642Y189406D01*
X50502Y189197D01*
X50381Y188972D01*
X50278Y188731D01*
X50196Y188470D01*
X50137Y188188D01*
X50101Y187883D01*
X50090Y187557D01*
X50111Y187142D01*
X50173Y186751D01*
X50277Y186385D01*
X50424Y186042D01*
X50611Y185723D01*
X50841Y185429D01*
X51112Y185158D01*
X51425Y184912D01*
X51776Y184692D01*
X52161Y184502D01*
X52580Y184341D01*
X53034Y184209D01*
X53521Y184107D01*
X54042Y184033D01*
X54598Y183990D01*
X55187Y183975D01*
X55736Y183987D01*
G37*
G36*
X44620Y195124D02*
X48859Y195124D01*
X48859Y196491D01*
X38716Y196491D01*
X38716Y195124D01*
X42956Y195124D01*
X42956Y184150D01*
X44620Y184150D01*
X44620Y195124D01*
G37*
%LPC*%
G36*
X66986Y190596D02*
X66665Y190606D01*
X66362Y190635D01*
X66078Y190683D01*
X65813Y190751D01*
X65567Y190837D01*
X65340Y190944D01*
X65131Y191069D01*
X64941Y191214D01*
X64772Y191376D01*
X64625Y191553D01*
X64501Y191746D01*
X64399Y191955D01*
X64320Y192179D01*
X64263Y192418D01*
X64230Y192673D01*
X64218Y192944D01*
X64230Y193205D01*
X64264Y193450D01*
X64321Y193680D01*
X64401Y193893D01*
X64504Y194090D01*
X64630Y194271D01*
X64778Y194437D01*
X64950Y194586D01*
X65143Y194718D01*
X65356Y194833D01*
X65589Y194930D01*
X65842Y195010D01*
X66115Y195071D01*
X66409Y195115D01*
X66722Y195142D01*
X67056Y195151D01*
X71024Y195151D01*
X71024Y190596D01*
X66986Y190596D01*
G37*
%LPD*%
G36*
X45830Y158841D02*
X46350Y158878D01*
X46839Y158939D01*
X47299Y159025D01*
X47730Y159135D01*
X48131Y159270D01*
X48502Y159429D01*
X48844Y159613D01*
X49156Y159821D01*
X49438Y160054D01*
X49691Y160311D01*
X49914Y160593D01*
X50107Y160899D01*
X50271Y161229D01*
X50405Y161585D01*
X50510Y161964D01*
X48890Y162288D01*
X48810Y162020D01*
X48710Y161769D01*
X48591Y161537D01*
X48452Y161324D01*
X48293Y161129D01*
X48115Y160953D01*
X47916Y160795D01*
X47698Y160655D01*
X47461Y160533D01*
X47202Y160427D01*
X46923Y160337D01*
X46623Y160264D01*
X46303Y160207D01*
X45963Y160166D01*
X45602Y160142D01*
X45220Y160134D01*
X44826Y160143D01*
X44456Y160169D01*
X44109Y160212D01*
X43785Y160273D01*
X43484Y160351D01*
X43206Y160447D01*
X42951Y160560D01*
X42719Y160690D01*
X42513Y160837D01*
X42334Y161001D01*
X42183Y161180D01*
X42059Y161376D01*
X41963Y161589D01*
X41894Y161817D01*
X41853Y162062D01*
X41839Y162323D01*
X41856Y162611D01*
X41908Y162871D01*
X41994Y163102D01*
X42115Y163304D01*
X42267Y163485D01*
X42447Y163648D01*
X42654Y163795D01*
X42890Y163926D01*
X43152Y164044D01*
X43437Y164152D01*
X43747Y164250D01*
X44081Y164338D01*
X45614Y164697D01*
X46301Y164859D01*
X46900Y165021D01*
X47411Y165183D01*
X47834Y165345D01*
X48193Y165512D01*
X48512Y165688D01*
X48791Y165873D01*
X49030Y166068D01*
X49236Y166276D01*
X49416Y166500D01*
X49571Y166742D01*
X49700Y167001D01*
X49801Y167278D01*
X49874Y167574D01*
X49917Y167891D01*
X49932Y168227D01*
X49913Y168612D01*
X49856Y168974D01*
X49761Y169313D01*
X49629Y169630D01*
X49458Y169924D01*
X49250Y170196D01*
X49003Y170444D01*
X48719Y170670D01*
X48399Y170872D01*
X48047Y171046D01*
X47662Y171193D01*
X47244Y171314D01*
X46794Y171408D01*
X46311Y171475D01*
X45795Y171515D01*
X45246Y171529D01*
X44736Y171519D01*
X44257Y171488D01*
X43809Y171438D01*
X43391Y171368D01*
X43005Y171277D01*
X42650Y171167D01*
X42325Y171036D01*
X42032Y170885D01*
X41764Y170710D01*
X41517Y170506D01*
X41291Y170275D01*
X41086Y170015D01*
X40901Y169726D01*
X40738Y169409D01*
X40595Y169064D01*
X40473Y168691D01*
X42119Y168402D01*
X42195Y168639D01*
X42286Y168859D01*
X42392Y169062D01*
X42513Y169248D01*
X42650Y169418D01*
X42802Y169570D01*
X42970Y169706D01*
X43153Y169825D01*
X43352Y169929D01*
X43570Y170019D01*
X43807Y170095D01*
X44062Y170157D01*
X44335Y170205D01*
X44626Y170240D01*
X44936Y170261D01*
X45264Y170267D01*
X45623Y170260D01*
X45960Y170237D01*
X46275Y170199D01*
X46569Y170145D01*
X46840Y170076D01*
X47090Y169992D01*
X47317Y169892D01*
X47523Y169777D01*
X47706Y169647D01*
X47864Y169502D01*
X47998Y169341D01*
X48108Y169166D01*
X48193Y168976D01*
X48254Y168770D01*
X48291Y168550D01*
X48303Y168314D01*
X48284Y168042D01*
X48227Y167794D01*
X48133Y167571D01*
X48001Y167373D01*
X47833Y167194D01*
X47632Y167029D01*
X47397Y166878D01*
X47129Y166742D01*
X46774Y166606D01*
X46277Y166454D01*
X45640Y166288D01*
X44861Y166107D01*
X43726Y165840D01*
X43174Y165691D01*
X42645Y165516D01*
X42144Y165311D01*
X41677Y165074D01*
X41459Y164940D01*
X41255Y164791D01*
X41067Y164629D01*
X40893Y164452D01*
X40736Y164260D01*
X40596Y164051D01*
X40475Y163826D01*
X40372Y163585D01*
X40290Y163324D01*
X40231Y163042D01*
X40195Y162737D01*
X40184Y162411D01*
X40205Y161996D01*
X40267Y161605D01*
X40371Y161239D01*
X40518Y160896D01*
X40705Y160577D01*
X40935Y160283D01*
X41206Y160012D01*
X41519Y159766D01*
X41870Y159546D01*
X42255Y159356D01*
X42674Y159195D01*
X43128Y159063D01*
X43615Y158961D01*
X44136Y158887D01*
X44692Y158844D01*
X45281Y158829D01*
X45830Y158841D01*
G37*
G36*
X57793Y158841D02*
X58235Y158877D01*
X58662Y158938D01*
X59074Y159023D01*
X59469Y159132D01*
X59849Y159265D01*
X60213Y159422D01*
X60562Y159604D01*
X60892Y159808D01*
X61202Y160033D01*
X61492Y160279D01*
X61761Y160546D01*
X62011Y160833D01*
X62240Y161141D01*
X62449Y161470D01*
X62637Y161820D01*
X62805Y162188D01*
X62950Y162573D01*
X63072Y162975D01*
X63173Y163393D01*
X63251Y163828D01*
X63307Y164279D01*
X63340Y164747D01*
X63351Y165231D01*
X63345Y165595D01*
X63326Y165949D01*
X63295Y166293D01*
X63252Y166627D01*
X63195Y166951D01*
X63127Y167265D01*
X63046Y167569D01*
X62953Y167863D01*
X62847Y168147D01*
X62728Y168421D01*
X62454Y168939D01*
X62131Y169418D01*
X61757Y169856D01*
X61339Y170248D01*
X60883Y170588D01*
X60641Y170738D01*
X60389Y170875D01*
X60128Y170999D01*
X59856Y171110D01*
X59576Y171209D01*
X59286Y171293D01*
X58986Y171365D01*
X58676Y171424D01*
X58357Y171470D01*
X58029Y171503D01*
X57691Y171522D01*
X57343Y171529D01*
X56860Y171517D01*
X56398Y171481D01*
X55956Y171420D01*
X55534Y171336D01*
X55133Y171228D01*
X54751Y171095D01*
X54390Y170939D01*
X54050Y170758D01*
X53730Y170554D01*
X53432Y170326D01*
X53156Y170075D01*
X52902Y169801D01*
X52670Y169504D01*
X52460Y169183D01*
X52272Y168839D01*
X52105Y168472D01*
X53690Y167946D01*
X53806Y168208D01*
X53938Y168453D01*
X54086Y168683D01*
X54250Y168897D01*
X54430Y169095D01*
X54627Y169277D01*
X54841Y169443D01*
X55070Y169593D01*
X55313Y169727D01*
X55567Y169842D01*
X55833Y169940D01*
X56109Y170020D01*
X56396Y170082D01*
X56695Y170127D01*
X57005Y170153D01*
X57325Y170162D01*
X57823Y170142D01*
X58293Y170080D01*
X58734Y169977D01*
X59147Y169833D01*
X59531Y169647D01*
X59887Y169421D01*
X60214Y169153D01*
X60513Y168844D01*
X60780Y168499D01*
X61012Y168124D01*
X61207Y167718D01*
X61367Y167282D01*
X61492Y166815D01*
X61581Y166318D01*
X61634Y165790D01*
X61652Y165231D01*
X61633Y164678D01*
X61578Y164153D01*
X61485Y163655D01*
X61355Y163185D01*
X61188Y162743D01*
X60984Y162329D01*
X60743Y161942D01*
X60465Y161583D01*
X60155Y161260D01*
X59820Y160980D01*
X59457Y160743D01*
X59069Y160549D01*
X58655Y160398D01*
X58215Y160290D01*
X57748Y160225D01*
X57255Y160204D01*
X56936Y160214D01*
X56627Y160244D01*
X56328Y160294D01*
X56039Y160364D01*
X55761Y160455D01*
X55492Y160565D01*
X55233Y160695D01*
X54985Y160845D01*
X54746Y161016D01*
X54517Y161206D01*
X54299Y161417D01*
X54091Y161647D01*
X53892Y161898D01*
X53704Y162169D01*
X53526Y162459D01*
X53358Y162770D01*
X51991Y162087D01*
X52191Y161700D01*
X52411Y161338D01*
X52650Y160999D01*
X52908Y160683D01*
X53185Y160392D01*
X53482Y160125D01*
X53798Y159881D01*
X54133Y159661D01*
X54485Y159466D01*
X54850Y159297D01*
X55230Y159154D01*
X55623Y159037D01*
X56030Y158946D01*
X56451Y158881D01*
X56885Y158842D01*
X57334Y158829D01*
X57793Y158841D01*
G37*
G36*
X69944Y133187D02*
X70463Y133224D01*
X70953Y133285D01*
X71413Y133371D01*
X71843Y133481D01*
X72244Y133616D01*
X72616Y133775D01*
X72957Y133959D01*
X73269Y134167D01*
X73552Y134400D01*
X73804Y134657D01*
X74027Y134939D01*
X74221Y135245D01*
X74385Y135575D01*
X74519Y135931D01*
X74623Y136310D01*
X73003Y136634D01*
X72923Y136366D01*
X72824Y136115D01*
X72704Y135883D01*
X72565Y135670D01*
X72406Y135475D01*
X72228Y135299D01*
X72030Y135141D01*
X71812Y135001D01*
X71574Y134879D01*
X71315Y134773D01*
X71036Y134683D01*
X70737Y134610D01*
X70417Y134553D01*
X70076Y134512D01*
X69715Y134488D01*
X69333Y134480D01*
X68940Y134489D01*
X68569Y134515D01*
X68222Y134558D01*
X67898Y134619D01*
X67597Y134697D01*
X67319Y134793D01*
X67064Y134906D01*
X66833Y135036D01*
X66626Y135183D01*
X66448Y135347D01*
X66296Y135526D01*
X66173Y135722D01*
X66076Y135935D01*
X66008Y136163D01*
X65966Y136408D01*
X65953Y136669D01*
X65970Y136957D01*
X66022Y137217D01*
X66108Y137448D01*
X66228Y137650D01*
X66380Y137831D01*
X66560Y137994D01*
X66768Y138141D01*
X67004Y138272D01*
X67265Y138390D01*
X67551Y138498D01*
X67861Y138596D01*
X68195Y138684D01*
X69727Y139043D01*
X70415Y139205D01*
X71014Y139367D01*
X71525Y139529D01*
X71948Y139691D01*
X72307Y139858D01*
X72625Y140034D01*
X72904Y140219D01*
X73143Y140414D01*
X73349Y140622D01*
X73530Y140846D01*
X73684Y141088D01*
X73813Y141347D01*
X73915Y141624D01*
X73987Y141920D01*
X74031Y142237D01*
X74045Y142573D01*
X74026Y142958D01*
X73970Y143320D01*
X73875Y143659D01*
X73742Y143976D01*
X73572Y144270D01*
X73363Y144542D01*
X73117Y144790D01*
X72832Y145016D01*
X72513Y145218D01*
X72160Y145392D01*
X71775Y145539D01*
X71358Y145660D01*
X70907Y145754D01*
X70424Y145821D01*
X69908Y145861D01*
X69360Y145875D01*
X68850Y145865D01*
X68370Y145834D01*
X67922Y145784D01*
X67505Y145714D01*
X67119Y145623D01*
X66763Y145513D01*
X66439Y145382D01*
X66145Y145231D01*
X65878Y145056D01*
X65631Y144852D01*
X65405Y144621D01*
X65199Y144361D01*
X65015Y144072D01*
X64851Y143755D01*
X64708Y143410D01*
X64586Y143037D01*
X66233Y142748D01*
X66308Y142985D01*
X66399Y143205D01*
X66505Y143408D01*
X66627Y143594D01*
X66764Y143764D01*
X66916Y143916D01*
X67083Y144052D01*
X67266Y144171D01*
X67466Y144275D01*
X67684Y144365D01*
X67920Y144441D01*
X68175Y144503D01*
X68448Y144551D01*
X68739Y144586D01*
X69049Y144607D01*
X69377Y144613D01*
X69736Y144606D01*
X70073Y144583D01*
X70389Y144545D01*
X70682Y144491D01*
X70954Y144422D01*
X71203Y144338D01*
X71431Y144238D01*
X71637Y144123D01*
X71820Y143993D01*
X71978Y143848D01*
X72112Y143687D01*
X72221Y143512D01*
X72307Y143322D01*
X72368Y143116D01*
X72404Y142896D01*
X72416Y142660D01*
X72397Y142388D01*
X72341Y142140D01*
X72246Y141917D01*
X72114Y141719D01*
X71946Y141540D01*
X71745Y141375D01*
X71511Y141224D01*
X71243Y141088D01*
X70887Y140952D01*
X70391Y140800D01*
X69753Y140634D01*
X68974Y140453D01*
X67840Y140186D01*
X67287Y140037D01*
X66758Y139862D01*
X66258Y139657D01*
X65790Y139420D01*
X65572Y139286D01*
X65369Y139137D01*
X65180Y138975D01*
X65007Y138798D01*
X64849Y138606D01*
X64710Y138397D01*
X64589Y138172D01*
X64485Y137931D01*
X64403Y137670D01*
X64344Y137388D01*
X64309Y137083D01*
X64297Y136757D01*
X64318Y136342D01*
X64381Y135951D01*
X64485Y135585D01*
X64631Y135242D01*
X64819Y134923D01*
X65048Y134629D01*
X65320Y134358D01*
X65633Y134112D01*
X65984Y133892D01*
X66369Y133702D01*
X66788Y133541D01*
X67241Y133409D01*
X67728Y133307D01*
X68250Y133233D01*
X68805Y133190D01*
X69395Y133175D01*
X69944Y133187D01*
G37*
G36*
X45776Y139306D02*
X47387Y138080D01*
X47387Y133350D01*
X49060Y133350D01*
X49060Y145691D01*
X47387Y145691D01*
X47387Y139507D01*
X41440Y145691D01*
X39470Y145691D01*
X44725Y140331D01*
X38769Y133350D01*
X40845Y133350D01*
X45776Y139306D01*
G37*
G36*
X57031Y133187D02*
X57474Y133223D01*
X57901Y133284D01*
X58312Y133369D01*
X58708Y133478D01*
X59088Y133611D01*
X59452Y133768D01*
X59800Y133950D01*
X60130Y134154D01*
X60441Y134379D01*
X60730Y134625D01*
X61000Y134892D01*
X61249Y135179D01*
X61478Y135487D01*
X61687Y135816D01*
X61876Y136166D01*
X62043Y136534D01*
X62188Y136919D01*
X62311Y137321D01*
X62411Y137739D01*
X62489Y138174D01*
X62545Y138625D01*
X62578Y139093D01*
X62590Y139577D01*
X62583Y139941D01*
X62565Y140295D01*
X62534Y140639D01*
X62490Y140973D01*
X62434Y141297D01*
X62365Y141611D01*
X62285Y141915D01*
X62191Y142209D01*
X62085Y142493D01*
X61967Y142767D01*
X61693Y143285D01*
X61369Y143764D01*
X60996Y144202D01*
X60578Y144594D01*
X60122Y144934D01*
X59880Y145084D01*
X59628Y145221D01*
X59366Y145345D01*
X59095Y145456D01*
X58814Y145555D01*
X58524Y145639D01*
X58224Y145711D01*
X57915Y145770D01*
X57596Y145816D01*
X57267Y145849D01*
X56929Y145868D01*
X56581Y145875D01*
X56099Y145863D01*
X55636Y145827D01*
X55194Y145766D01*
X54773Y145682D01*
X54371Y145574D01*
X53990Y145441D01*
X53629Y145285D01*
X53288Y145104D01*
X52968Y144900D01*
X52671Y144672D01*
X52395Y144421D01*
X52141Y144147D01*
X51909Y143850D01*
X51698Y143529D01*
X51510Y143185D01*
X51344Y142818D01*
X52929Y142292D01*
X53044Y142554D01*
X53176Y142799D01*
X53324Y143029D01*
X53488Y143243D01*
X53669Y143441D01*
X53866Y143623D01*
X54079Y143789D01*
X54308Y143939D01*
X54552Y144073D01*
X54806Y144188D01*
X55071Y144286D01*
X55347Y144366D01*
X55635Y144428D01*
X55933Y144473D01*
X56243Y144499D01*
X56564Y144508D01*
X57062Y144488D01*
X57532Y144426D01*
X57973Y144323D01*
X58386Y144179D01*
X58770Y143993D01*
X59126Y143767D01*
X59453Y143499D01*
X59752Y143190D01*
X60019Y142845D01*
X60250Y142470D01*
X60446Y142064D01*
X60606Y141628D01*
X60730Y141161D01*
X60819Y140664D01*
X60873Y140136D01*
X60890Y139577D01*
X60872Y139024D01*
X60816Y138499D01*
X60724Y138001D01*
X60594Y137531D01*
X60427Y137089D01*
X60223Y136675D01*
X59982Y136288D01*
X59704Y135929D01*
X59394Y135606D01*
X59058Y135326D01*
X58696Y135089D01*
X58308Y134895D01*
X57893Y134744D01*
X57453Y134636D01*
X56986Y134571D01*
X56494Y134550D01*
X56175Y134560D01*
X55866Y134590D01*
X55567Y134640D01*
X55278Y134710D01*
X54999Y134801D01*
X54730Y134911D01*
X54472Y135041D01*
X54223Y135191D01*
X53984Y135362D01*
X53756Y135552D01*
X53538Y135763D01*
X53329Y135993D01*
X53131Y136244D01*
X52943Y136515D01*
X52764Y136805D01*
X52596Y137116D01*
X51230Y136433D01*
X51430Y136046D01*
X51649Y135684D01*
X51888Y135345D01*
X52146Y135029D01*
X52424Y134738D01*
X52720Y134471D01*
X53036Y134227D01*
X53371Y134007D01*
X53723Y133812D01*
X54089Y133643D01*
X54468Y133500D01*
X54861Y133383D01*
X55268Y133292D01*
X55689Y133227D01*
X56124Y133188D01*
X56573Y133175D01*
X57031Y133187D01*
G37*
G36*
X48243Y108041D02*
X48694Y108077D01*
X49128Y108137D01*
X49546Y108222D01*
X49948Y108330D01*
X50334Y108462D01*
X50703Y108619D01*
X51056Y108800D01*
X51391Y109003D01*
X51705Y109228D01*
X51999Y109474D01*
X52272Y109742D01*
X52526Y110032D01*
X52758Y110342D01*
X52971Y110675D01*
X53162Y111029D01*
X53333Y111401D01*
X53481Y111788D01*
X53605Y112191D01*
X53708Y112608D01*
X53787Y113041D01*
X53844Y113490D01*
X53878Y113953D01*
X53889Y114431D01*
X53883Y114796D01*
X53864Y115151D01*
X53832Y115496D01*
X53788Y115831D01*
X53731Y116155D01*
X53662Y116470D01*
X53579Y116774D01*
X53484Y117069D01*
X53377Y117353D01*
X53257Y117627D01*
X53124Y117891D01*
X52978Y118145D01*
X52649Y118623D01*
X52269Y119060D01*
X51844Y119451D01*
X51617Y119627D01*
X51380Y119790D01*
X51132Y119940D01*
X50875Y120077D01*
X50608Y120201D01*
X50331Y120312D01*
X50044Y120409D01*
X49748Y120494D01*
X49441Y120566D01*
X49124Y120624D01*
X48798Y120670D01*
X48461Y120703D01*
X48115Y120722D01*
X47758Y120729D01*
X47295Y120717D01*
X46848Y120682D01*
X46416Y120623D01*
X46000Y120542D01*
X45600Y120436D01*
X45215Y120307D01*
X44845Y120155D01*
X44492Y119980D01*
X44156Y119782D01*
X43840Y119563D01*
X43545Y119323D01*
X43271Y119061D01*
X43017Y118779D01*
X42783Y118475D01*
X42569Y118150D01*
X42376Y117803D01*
X42205Y117438D01*
X42056Y117057D01*
X41931Y116660D01*
X41828Y116247D01*
X41748Y115817D01*
X41691Y115371D01*
X41656Y114909D01*
X41645Y114431D01*
X41657Y113955D01*
X41691Y113494D01*
X41749Y113047D01*
X41830Y112616D01*
X41934Y112200D01*
X42061Y111799D01*
X42212Y111413D01*
X42385Y111042D01*
X42580Y110689D01*
X42795Y110357D01*
X43031Y110046D01*
X43286Y109756D01*
X43562Y109488D01*
X43857Y109240D01*
X44173Y109014D01*
X44509Y108808D01*
X44863Y108626D01*
X45232Y108467D01*
X45617Y108333D01*
X46018Y108224D01*
X46434Y108138D01*
X46866Y108078D01*
X47313Y108041D01*
X47776Y108029D01*
X48243Y108041D01*
G37*
%LPC*%
G36*
X47257Y109407D02*
X46770Y109469D01*
X46313Y109572D01*
X45887Y109716D01*
X45493Y109901D01*
X45130Y110128D01*
X44797Y110396D01*
X44496Y110705D01*
X44228Y111051D01*
X43996Y111432D01*
X43799Y111847D01*
X43639Y112295D01*
X43514Y112778D01*
X43424Y113295D01*
X43371Y113846D01*
X43353Y114431D01*
X43371Y114992D01*
X43425Y115521D01*
X43515Y116020D01*
X43641Y116487D01*
X43803Y116924D01*
X44001Y117330D01*
X44235Y117705D01*
X44505Y118049D01*
X44807Y118357D01*
X45140Y118623D01*
X45502Y118849D01*
X45894Y119034D01*
X46316Y119178D01*
X46767Y119280D01*
X47248Y119342D01*
X47758Y119362D01*
X48273Y119342D01*
X48758Y119281D01*
X49213Y119180D01*
X49637Y119038D01*
X50032Y118856D01*
X50396Y118633D01*
X50730Y118370D01*
X51034Y118066D01*
X51305Y117726D01*
X51540Y117353D01*
X51739Y116947D01*
X51901Y116509D01*
X52028Y116039D01*
X52118Y115535D01*
X52172Y115000D01*
X52190Y114431D01*
X52172Y113866D01*
X52117Y113331D01*
X52026Y112825D01*
X51898Y112350D01*
X51734Y111905D01*
X51533Y111489D01*
X51295Y111104D01*
X51021Y110748D01*
X50715Y110429D01*
X50380Y110153D01*
X50017Y109918D01*
X49625Y109727D01*
X49205Y109578D01*
X48757Y109472D01*
X48281Y109408D01*
X47776Y109386D01*
X47257Y109407D01*
G37*
%LPD*%
G36*
X74650Y116437D02*
X74630Y117777D01*
X74571Y119065D01*
X74978Y117668D01*
X75166Y117097D01*
X75342Y116612D01*
X78530Y108204D01*
X79704Y108204D01*
X82935Y116612D01*
X83426Y118101D01*
X83715Y119065D01*
X83689Y118092D01*
X83654Y116437D01*
X83654Y108204D01*
X85143Y108204D01*
X85143Y120545D01*
X82944Y120545D01*
X79660Y111988D01*
X79488Y111452D01*
X79323Y110880D01*
X79108Y110026D01*
X79000Y110467D01*
X78815Y111090D01*
X78627Y111671D01*
X78512Y111988D01*
X75289Y120545D01*
X73143Y120545D01*
X73143Y108204D01*
X74650Y108204D01*
X74650Y116437D01*
G37*
G36*
X61213Y108041D02*
X61733Y108078D01*
X62223Y108139D01*
X62683Y108225D01*
X63113Y108335D01*
X63514Y108470D01*
X63885Y108629D01*
X64227Y108813D01*
X64539Y109021D01*
X64821Y109254D01*
X65074Y109511D01*
X65297Y109793D01*
X65491Y110099D01*
X65654Y110429D01*
X65789Y110785D01*
X65893Y111164D01*
X64273Y111488D01*
X64193Y111220D01*
X64093Y110969D01*
X63974Y110737D01*
X63835Y110524D01*
X63676Y110329D01*
X63498Y110153D01*
X63300Y109995D01*
X63082Y109855D01*
X62844Y109733D01*
X62585Y109627D01*
X62306Y109537D01*
X62007Y109464D01*
X61687Y109407D01*
X61346Y109366D01*
X60985Y109342D01*
X60603Y109334D01*
X60210Y109343D01*
X59839Y109369D01*
X59492Y109412D01*
X59168Y109473D01*
X58867Y109551D01*
X58589Y109647D01*
X58334Y109760D01*
X58103Y109890D01*
X57896Y110037D01*
X57717Y110201D01*
X57566Y110380D01*
X57442Y110576D01*
X57346Y110789D01*
X57277Y111017D01*
X57236Y111262D01*
X57222Y111523D01*
X57240Y111811D01*
X57291Y112071D01*
X57377Y112302D01*
X57498Y112504D01*
X57650Y112685D01*
X57830Y112848D01*
X58038Y112995D01*
X58273Y113126D01*
X58535Y113244D01*
X58821Y113352D01*
X59131Y113450D01*
X59464Y113538D01*
X60997Y113897D01*
X61684Y114059D01*
X62284Y114221D01*
X62795Y114383D01*
X63218Y114545D01*
X63576Y114712D01*
X63895Y114888D01*
X64174Y115073D01*
X64413Y115268D01*
X64619Y115476D01*
X64800Y115700D01*
X64954Y115942D01*
X65083Y116201D01*
X65185Y116478D01*
X65257Y116774D01*
X65301Y117091D01*
X65315Y117427D01*
X65296Y117812D01*
X65239Y118174D01*
X65145Y118513D01*
X65012Y118830D01*
X64841Y119124D01*
X64633Y119396D01*
X64386Y119644D01*
X64102Y119870D01*
X63782Y120072D01*
X63430Y120246D01*
X63045Y120393D01*
X62627Y120514D01*
X62177Y120608D01*
X61694Y120675D01*
X61178Y120715D01*
X60629Y120729D01*
X60119Y120719D01*
X59640Y120688D01*
X59192Y120638D01*
X58775Y120568D01*
X58388Y120477D01*
X58033Y120367D01*
X57709Y120236D01*
X57415Y120085D01*
X57147Y119910D01*
X56900Y119706D01*
X56674Y119475D01*
X56469Y119215D01*
X56285Y118926D01*
X56121Y118609D01*
X55978Y118264D01*
X55856Y117891D01*
X57503Y117602D01*
X57578Y117839D01*
X57669Y118059D01*
X57775Y118262D01*
X57897Y118448D01*
X58034Y118618D01*
X58186Y118770D01*
X58353Y118906D01*
X58536Y119025D01*
X58736Y119129D01*
X58954Y119219D01*
X59190Y119295D01*
X59445Y119357D01*
X59718Y119405D01*
X60009Y119440D01*
X60319Y119461D01*
X60647Y119467D01*
X61006Y119460D01*
X61343Y119437D01*
X61658Y119399D01*
X61952Y119345D01*
X62223Y119276D01*
X62473Y119192D01*
X62701Y119092D01*
X62907Y118977D01*
X63089Y118847D01*
X63248Y118702D01*
X63382Y118541D01*
X63491Y118366D01*
X63576Y118176D01*
X63637Y117970D01*
X63674Y117750D01*
X63686Y117514D01*
X63667Y117242D01*
X63611Y116994D01*
X63516Y116771D01*
X63384Y116573D01*
X63216Y116394D01*
X63015Y116229D01*
X62780Y116078D01*
X62512Y115942D01*
X62157Y115806D01*
X61661Y115654D01*
X61023Y115488D01*
X60244Y115307D01*
X59110Y115040D01*
X58557Y114891D01*
X58028Y114716D01*
X57528Y114511D01*
X57060Y114274D01*
X56842Y114140D01*
X56639Y113991D01*
X56450Y113829D01*
X56276Y113652D01*
X56119Y113460D01*
X55980Y113251D01*
X55858Y113026D01*
X55755Y112785D01*
X55673Y112524D01*
X55614Y112242D01*
X55579Y111937D01*
X55567Y111611D01*
X55588Y111196D01*
X55650Y110805D01*
X55755Y110439D01*
X55901Y110096D01*
X56089Y109777D01*
X56318Y109483D01*
X56590Y109212D01*
X56903Y108966D01*
X57254Y108746D01*
X57639Y108556D01*
X58058Y108395D01*
X58511Y108263D01*
X58998Y108161D01*
X59519Y108087D01*
X60075Y108044D01*
X60664Y108029D01*
X61213Y108041D01*
G37*
G36*
X70021Y120545D02*
X68348Y120545D01*
X68348Y108204D01*
X70021Y108204D01*
X70021Y120545D01*
G37*
G36*
X64926Y82387D02*
X65377Y82423D01*
X65812Y82483D01*
X66230Y82568D01*
X66632Y82676D01*
X67017Y82808D01*
X67387Y82965D01*
X67740Y83146D01*
X68074Y83349D01*
X68389Y83574D01*
X68682Y83820D01*
X68956Y84088D01*
X69209Y84378D01*
X69442Y84688D01*
X69654Y85021D01*
X69846Y85375D01*
X70016Y85747D01*
X70164Y86134D01*
X70289Y86537D01*
X70391Y86954D01*
X70471Y87387D01*
X70528Y87836D01*
X70562Y88299D01*
X70573Y88777D01*
X70567Y89142D01*
X70548Y89497D01*
X70516Y89842D01*
X70472Y90177D01*
X70415Y90501D01*
X70345Y90816D01*
X70263Y91120D01*
X70168Y91415D01*
X70060Y91699D01*
X69940Y91973D01*
X69807Y92237D01*
X69662Y92491D01*
X69332Y92969D01*
X68953Y93406D01*
X68528Y93797D01*
X68300Y93973D01*
X68063Y94136D01*
X67816Y94286D01*
X67559Y94423D01*
X67292Y94547D01*
X67015Y94658D01*
X66728Y94755D01*
X66431Y94840D01*
X66124Y94912D01*
X65808Y94970D01*
X65481Y95016D01*
X65145Y95049D01*
X64798Y95068D01*
X64442Y95075D01*
X63979Y95063D01*
X63532Y95028D01*
X63100Y94969D01*
X62684Y94888D01*
X62283Y94782D01*
X61898Y94653D01*
X61529Y94501D01*
X61175Y94326D01*
X60839Y94128D01*
X60524Y93909D01*
X60229Y93669D01*
X59954Y93407D01*
X59700Y93125D01*
X59466Y92821D01*
X59253Y92496D01*
X59060Y92149D01*
X58888Y91784D01*
X58740Y91403D01*
X58614Y91006D01*
X58511Y90593D01*
X58431Y90163D01*
X58374Y89717D01*
X58340Y89255D01*
X58329Y88777D01*
X58340Y88301D01*
X58375Y87840D01*
X58433Y87393D01*
X58514Y86962D01*
X58618Y86546D01*
X58745Y86145D01*
X58895Y85759D01*
X59069Y85388D01*
X59264Y85035D01*
X59479Y84703D01*
X59714Y84392D01*
X59970Y84102D01*
X60245Y83834D01*
X60541Y83586D01*
X60857Y83360D01*
X61193Y83154D01*
X61546Y82972D01*
X61916Y82813D01*
X62301Y82679D01*
X62701Y82570D01*
X63117Y82484D01*
X63549Y82424D01*
X63997Y82387D01*
X64459Y82375D01*
X64926Y82387D01*
G37*
%LPC*%
G36*
X63941Y83753D02*
X63453Y83815D01*
X62996Y83918D01*
X62571Y84062D01*
X62176Y84247D01*
X61813Y84474D01*
X61481Y84742D01*
X61179Y85051D01*
X60912Y85397D01*
X60679Y85778D01*
X60483Y86193D01*
X60322Y86641D01*
X60197Y87124D01*
X60108Y87641D01*
X60054Y88192D01*
X60036Y88777D01*
X60054Y89338D01*
X60108Y89867D01*
X60198Y90366D01*
X60324Y90833D01*
X60486Y91270D01*
X60684Y91676D01*
X60918Y92051D01*
X61188Y92395D01*
X61491Y92703D01*
X61823Y92969D01*
X62186Y93195D01*
X62577Y93380D01*
X62999Y93524D01*
X63450Y93626D01*
X63931Y93688D01*
X64442Y93708D01*
X64957Y93688D01*
X65442Y93627D01*
X65896Y93526D01*
X66321Y93384D01*
X66715Y93202D01*
X67079Y92979D01*
X67414Y92716D01*
X67718Y92412D01*
X67989Y92072D01*
X68223Y91699D01*
X68422Y91293D01*
X68585Y90855D01*
X68711Y90385D01*
X68802Y89881D01*
X68856Y89346D01*
X68874Y88777D01*
X68856Y88212D01*
X68801Y87677D01*
X68709Y87171D01*
X68581Y86696D01*
X68417Y86251D01*
X68216Y85835D01*
X67979Y85450D01*
X67705Y85094D01*
X67398Y84775D01*
X67063Y84499D01*
X66700Y84264D01*
X66309Y84073D01*
X65889Y83924D01*
X65441Y83818D01*
X64964Y83754D01*
X64459Y83732D01*
X63941Y83753D01*
G37*
%LPD*%
G36*
X74396Y90783D02*
X74376Y92123D01*
X74317Y93411D01*
X74724Y92014D01*
X74912Y91443D01*
X75088Y90958D01*
X78276Y82550D01*
X79450Y82550D01*
X82681Y90958D01*
X83172Y92447D01*
X83461Y93411D01*
X83435Y92438D01*
X83400Y90783D01*
X83400Y82550D01*
X84889Y82550D01*
X84889Y94891D01*
X82690Y94891D01*
X79406Y86334D01*
X79234Y85798D01*
X79069Y85226D01*
X78854Y84372D01*
X78746Y84813D01*
X78561Y85436D01*
X78373Y86017D01*
X78258Y86334D01*
X75035Y94891D01*
X72889Y94891D01*
X72889Y82550D01*
X74396Y82550D01*
X74396Y90783D01*
G37*
G36*
X51991Y82387D02*
X52510Y82424D01*
X53000Y82485D01*
X53460Y82571D01*
X53890Y82681D01*
X54291Y82816D01*
X54663Y82975D01*
X55004Y83159D01*
X55316Y83367D01*
X55599Y83600D01*
X55851Y83857D01*
X56074Y84139D01*
X56268Y84445D01*
X56432Y84775D01*
X56566Y85131D01*
X56670Y85510D01*
X55050Y85834D01*
X54970Y85566D01*
X54871Y85315D01*
X54751Y85083D01*
X54612Y84870D01*
X54453Y84675D01*
X54275Y84499D01*
X54077Y84341D01*
X53859Y84201D01*
X53621Y84079D01*
X53362Y83973D01*
X53083Y83883D01*
X52784Y83810D01*
X52464Y83753D01*
X52123Y83712D01*
X51762Y83688D01*
X51380Y83680D01*
X50987Y83689D01*
X50616Y83715D01*
X50269Y83758D01*
X49945Y83819D01*
X49644Y83897D01*
X49366Y83993D01*
X49111Y84106D01*
X48880Y84236D01*
X48673Y84383D01*
X48495Y84547D01*
X48343Y84726D01*
X48220Y84922D01*
X48123Y85135D01*
X48055Y85363D01*
X48013Y85608D01*
X48000Y85869D01*
X48017Y86157D01*
X48069Y86417D01*
X48155Y86648D01*
X48275Y86850D01*
X48427Y87031D01*
X48607Y87194D01*
X48815Y87341D01*
X49051Y87472D01*
X49312Y87590D01*
X49598Y87698D01*
X49908Y87796D01*
X50242Y87884D01*
X51774Y88243D01*
X52462Y88405D01*
X53061Y88567D01*
X53572Y88729D01*
X53995Y88891D01*
X54354Y89058D01*
X54672Y89234D01*
X54951Y89419D01*
X55190Y89614D01*
X55396Y89822D01*
X55577Y90046D01*
X55731Y90288D01*
X55860Y90547D01*
X55962Y90824D01*
X56034Y91120D01*
X56078Y91437D01*
X56092Y91773D01*
X56073Y92158D01*
X56017Y92520D01*
X55922Y92859D01*
X55789Y93176D01*
X55619Y93470D01*
X55410Y93742D01*
X55164Y93990D01*
X54879Y94216D01*
X54560Y94418D01*
X54207Y94592D01*
X53822Y94739D01*
X53405Y94860D01*
X52954Y94954D01*
X52471Y95021D01*
X51955Y95061D01*
X51407Y95075D01*
X50897Y95065D01*
X50417Y95034D01*
X49969Y94984D01*
X49552Y94914D01*
X49166Y94823D01*
X48810Y94713D01*
X48486Y94582D01*
X48192Y94431D01*
X47925Y94256D01*
X47678Y94052D01*
X47452Y93821D01*
X47246Y93561D01*
X47062Y93272D01*
X46898Y92955D01*
X46755Y92610D01*
X46633Y92237D01*
X48280Y91948D01*
X48355Y92185D01*
X48446Y92405D01*
X48552Y92608D01*
X48674Y92794D01*
X48811Y92964D01*
X48963Y93116D01*
X49130Y93252D01*
X49313Y93371D01*
X49513Y93475D01*
X49731Y93565D01*
X49967Y93641D01*
X50222Y93703D01*
X50495Y93751D01*
X50786Y93786D01*
X51096Y93807D01*
X51424Y93813D01*
X51783Y93806D01*
X52120Y93783D01*
X52436Y93745D01*
X52729Y93691D01*
X53001Y93622D01*
X53250Y93538D01*
X53478Y93438D01*
X53684Y93323D01*
X53867Y93193D01*
X54025Y93048D01*
X54159Y92887D01*
X54268Y92712D01*
X54354Y92522D01*
X54415Y92316D01*
X54451Y92096D01*
X54463Y91860D01*
X54444Y91588D01*
X54388Y91340D01*
X54293Y91117D01*
X54161Y90919D01*
X53993Y90740D01*
X53792Y90575D01*
X53558Y90424D01*
X53290Y90288D01*
X52934Y90152D01*
X52438Y90000D01*
X51800Y89834D01*
X51021Y89653D01*
X49887Y89386D01*
X49334Y89237D01*
X48805Y89062D01*
X48305Y88857D01*
X47837Y88620D01*
X47619Y88486D01*
X47416Y88337D01*
X47227Y88175D01*
X47054Y87998D01*
X46896Y87806D01*
X46757Y87597D01*
X46636Y87372D01*
X46532Y87131D01*
X46450Y86870D01*
X46391Y86588D01*
X46356Y86283D01*
X46344Y85957D01*
X46365Y85542D01*
X46428Y85151D01*
X46532Y84785D01*
X46678Y84442D01*
X46866Y84123D01*
X47095Y83829D01*
X47367Y83558D01*
X47680Y83312D01*
X48031Y83092D01*
X48416Y82902D01*
X48835Y82741D01*
X49288Y82609D01*
X49775Y82507D01*
X50297Y82433D01*
X50852Y82390D01*
X51442Y82375D01*
X51991Y82387D01*
G37*
G36*
X43861Y94891D02*
X42188Y94891D01*
X42188Y82550D01*
X43861Y82550D01*
X43861Y94891D01*
G37*
G36*
X49155Y57242D02*
X49588Y57282D01*
X49998Y57348D01*
X50384Y57440D01*
X50746Y57559D01*
X51084Y57704D01*
X51399Y57876D01*
X51690Y58074D01*
X51955Y58298D01*
X52191Y58547D01*
X52400Y58822D01*
X52580Y59122D01*
X52731Y59447D01*
X52855Y59798D01*
X52950Y60173D01*
X53017Y60575D01*
X51388Y60723D01*
X51340Y60458D01*
X51277Y60210D01*
X51197Y59979D01*
X51101Y59766D01*
X50989Y59569D01*
X50862Y59389D01*
X50718Y59227D01*
X50558Y59081D01*
X50382Y58953D01*
X50189Y58842D01*
X49981Y58748D01*
X49757Y58671D01*
X49516Y58611D01*
X49260Y58568D01*
X48987Y58542D01*
X48699Y58534D01*
X48409Y58543D01*
X48135Y58571D01*
X47877Y58616D01*
X47636Y58681D01*
X47410Y58763D01*
X47200Y58864D01*
X47006Y58983D01*
X46829Y59121D01*
X46670Y59276D01*
X46532Y59450D01*
X46415Y59641D01*
X46320Y59850D01*
X46245Y60077D01*
X46192Y60321D01*
X46161Y60583D01*
X46150Y60864D01*
X46162Y61109D01*
X46198Y61340D01*
X46259Y61557D01*
X46344Y61760D01*
X46453Y61950D01*
X46586Y62126D01*
X46743Y62288D01*
X46925Y62436D01*
X47130Y62568D01*
X47356Y62683D01*
X47603Y62780D01*
X47872Y62859D01*
X48163Y62921D01*
X48474Y62965D01*
X48808Y62992D01*
X49163Y63001D01*
X50056Y63001D01*
X50056Y64367D01*
X49198Y64367D01*
X48883Y64376D01*
X48586Y64402D01*
X48308Y64446D01*
X48047Y64508D01*
X47805Y64588D01*
X47581Y64685D01*
X47375Y64800D01*
X47188Y64932D01*
X47021Y65080D01*
X46876Y65242D01*
X46753Y65417D01*
X46652Y65605D01*
X46574Y65807D01*
X46519Y66023D01*
X46485Y66253D01*
X46474Y66495D01*
X46483Y66736D01*
X46510Y66964D01*
X46556Y67179D01*
X46620Y67381D01*
X46701Y67570D01*
X46802Y67746D01*
X46920Y67909D01*
X47056Y68059D01*
X47211Y68193D01*
X47383Y68310D01*
X47573Y68408D01*
X47780Y68489D01*
X48005Y68552D01*
X48248Y68597D01*
X48508Y68623D01*
X48786Y68632D01*
X49041Y68624D01*
X49282Y68599D01*
X49512Y68557D01*
X49729Y68499D01*
X49933Y68424D01*
X50125Y68332D01*
X50305Y68223D01*
X50472Y68098D01*
X50625Y67958D01*
X50760Y67804D01*
X50879Y67636D01*
X50981Y67454D01*
X51067Y67259D01*
X51135Y67050D01*
X51186Y66828D01*
X51221Y66592D01*
X52806Y66714D01*
X52748Y67083D01*
X52662Y67430D01*
X52548Y67757D01*
X52405Y68063D01*
X52233Y68348D01*
X52034Y68613D01*
X51806Y68856D01*
X51550Y69079D01*
X51269Y69278D01*
X50970Y69451D01*
X50651Y69597D01*
X50314Y69716D01*
X49956Y69809D01*
X49580Y69876D01*
X49184Y69915D01*
X48769Y69929D01*
X48317Y69915D01*
X47892Y69875D01*
X47493Y69807D01*
X47119Y69713D01*
X46771Y69592D01*
X46449Y69443D01*
X46153Y69268D01*
X45883Y69066D01*
X45642Y68840D01*
X45433Y68592D01*
X45256Y68324D01*
X45111Y68034D01*
X44998Y67722D01*
X44918Y67390D01*
X44870Y67037D01*
X44854Y66662D01*
X44864Y66373D01*
X44895Y66098D01*
X44947Y65837D01*
X45019Y65590D01*
X45112Y65357D01*
X45226Y65137D01*
X45360Y64931D01*
X45515Y64739D01*
X45690Y64562D01*
X45883Y64399D01*
X46095Y64251D01*
X46326Y64119D01*
X46576Y64001D01*
X46844Y63898D01*
X47131Y63810D01*
X47437Y63736D01*
X47437Y63701D01*
X47101Y63654D01*
X46784Y63588D01*
X46486Y63501D01*
X46207Y63395D01*
X45947Y63269D01*
X45707Y63123D01*
X45485Y62958D01*
X45283Y62773D01*
X45102Y62572D01*
X44946Y62358D01*
X44813Y62132D01*
X44705Y61893D01*
X44620Y61641D01*
X44560Y61377D01*
X44524Y61100D01*
X44512Y60811D01*
X44529Y60396D01*
X44580Y60005D01*
X44665Y59639D01*
X44784Y59296D01*
X44936Y58977D01*
X45123Y58683D01*
X45344Y58412D01*
X45598Y58166D01*
X45884Y57946D01*
X46199Y57756D01*
X46543Y57595D01*
X46916Y57463D01*
X47318Y57361D01*
X47749Y57287D01*
X48210Y57244D01*
X48699Y57229D01*
X49155Y57242D01*
G37*
G36*
X71093Y57242D02*
X71526Y57282D01*
X71935Y57348D01*
X72321Y57440D01*
X72683Y57559D01*
X73021Y57704D01*
X73336Y57876D01*
X73627Y58074D01*
X73892Y58298D01*
X74129Y58547D01*
X74337Y58822D01*
X74517Y59122D01*
X74669Y59447D01*
X74792Y59798D01*
X74887Y60173D01*
X74954Y60575D01*
X73325Y60723D01*
X73278Y60458D01*
X73214Y60210D01*
X73134Y59979D01*
X73039Y59766D01*
X72927Y59569D01*
X72799Y59389D01*
X72655Y59227D01*
X72495Y59081D01*
X72319Y58953D01*
X72127Y58842D01*
X71919Y58748D01*
X71694Y58671D01*
X71454Y58611D01*
X71197Y58568D01*
X70925Y58542D01*
X70636Y58534D01*
X70346Y58543D01*
X70073Y58571D01*
X69815Y58616D01*
X69573Y58681D01*
X69347Y58763D01*
X69138Y58864D01*
X68944Y58983D01*
X68766Y59121D01*
X68607Y59276D01*
X68469Y59450D01*
X68353Y59641D01*
X68257Y59850D01*
X68183Y60077D01*
X68130Y60321D01*
X68098Y60583D01*
X68087Y60864D01*
X68100Y61109D01*
X68136Y61340D01*
X68196Y61557D01*
X68281Y61760D01*
X68390Y61950D01*
X68523Y62126D01*
X68681Y62288D01*
X68863Y62436D01*
X69067Y62568D01*
X69293Y62683D01*
X69541Y62780D01*
X69810Y62859D01*
X70100Y62921D01*
X70412Y62965D01*
X70745Y62992D01*
X71100Y63001D01*
X71994Y63001D01*
X71994Y64367D01*
X71135Y64367D01*
X70820Y64376D01*
X70524Y64402D01*
X70245Y64446D01*
X69985Y64508D01*
X69743Y64588D01*
X69519Y64685D01*
X69313Y64800D01*
X69125Y64932D01*
X68958Y65080D01*
X68813Y65242D01*
X68690Y65417D01*
X68590Y65605D01*
X68512Y65807D01*
X68456Y66023D01*
X68423Y66253D01*
X68411Y66495D01*
X68421Y66736D01*
X68448Y66964D01*
X68493Y67179D01*
X68557Y67381D01*
X68639Y67570D01*
X68739Y67746D01*
X68857Y67909D01*
X68994Y68059D01*
X69148Y68193D01*
X69320Y68310D01*
X69510Y68408D01*
X69718Y68489D01*
X69943Y68552D01*
X70185Y68597D01*
X70446Y68623D01*
X70724Y68632D01*
X70978Y68624D01*
X71220Y68599D01*
X71449Y68557D01*
X71666Y68499D01*
X71871Y68424D01*
X72063Y68332D01*
X72243Y68223D01*
X72410Y68098D01*
X72562Y67958D01*
X72698Y67804D01*
X72817Y67636D01*
X72919Y67454D01*
X73004Y67259D01*
X73072Y67050D01*
X73124Y66828D01*
X73159Y66592D01*
X74744Y66714D01*
X74686Y67083D01*
X74600Y67430D01*
X74485Y67757D01*
X74342Y68063D01*
X74171Y68348D01*
X73971Y68613D01*
X73743Y68856D01*
X73487Y69079D01*
X73207Y69278D01*
X72908Y69451D01*
X72589Y69597D01*
X72251Y69716D01*
X71894Y69809D01*
X71517Y69876D01*
X71121Y69915D01*
X70706Y69929D01*
X70255Y69915D01*
X69830Y69875D01*
X69430Y69807D01*
X69056Y69713D01*
X68709Y69592D01*
X68387Y69443D01*
X68090Y69268D01*
X67820Y69066D01*
X67579Y68840D01*
X67370Y68592D01*
X67193Y68324D01*
X67048Y68034D01*
X66936Y67722D01*
X66855Y67390D01*
X66807Y67037D01*
X66791Y66662D01*
X66801Y66373D01*
X66832Y66098D01*
X66884Y65837D01*
X66956Y65590D01*
X67049Y65357D01*
X67163Y65137D01*
X67297Y64931D01*
X67452Y64739D01*
X67627Y64562D01*
X67821Y64399D01*
X68033Y64251D01*
X68264Y64119D01*
X68513Y64001D01*
X68782Y63898D01*
X69069Y63810D01*
X69375Y63736D01*
X69375Y63701D01*
X69039Y63654D01*
X68721Y63588D01*
X68423Y63501D01*
X68144Y63395D01*
X67885Y63269D01*
X67644Y63123D01*
X67423Y62958D01*
X67220Y62773D01*
X67040Y62572D01*
X66883Y62358D01*
X66751Y62132D01*
X66642Y61893D01*
X66558Y61641D01*
X66498Y61377D01*
X66462Y61100D01*
X66450Y60811D01*
X66467Y60396D01*
X66517Y60005D01*
X66602Y59639D01*
X66721Y59296D01*
X66874Y58977D01*
X67060Y58683D01*
X67281Y58412D01*
X67536Y58166D01*
X67822Y57946D01*
X68137Y57756D01*
X68481Y57595D01*
X68854Y57463D01*
X69256Y57361D01*
X69687Y57287D01*
X70147Y57244D01*
X70636Y57229D01*
X71093Y57242D01*
G37*
G36*
X65590Y69745D02*
X63829Y69745D01*
X60413Y61056D01*
X59678Y58875D01*
X58942Y61056D01*
X55544Y69745D01*
X53783Y69745D01*
X58819Y57404D01*
X60554Y57404D01*
X65590Y69745D01*
G37*
G36*
X81517Y62729D02*
X85230Y62729D01*
X85230Y64008D01*
X81517Y64008D01*
X81517Y67757D01*
X80229Y67757D01*
X80229Y64008D01*
X76515Y64008D01*
X76515Y62729D01*
X80229Y62729D01*
X80229Y58981D01*
X81517Y58981D01*
X81517Y62729D01*
G37*
G36*
X51156Y44091D02*
X47074Y44091D01*
X46688Y44085D01*
X46313Y44066D01*
X45949Y44036D01*
X45596Y43993D01*
X45254Y43937D01*
X44924Y43870D01*
X44605Y43790D01*
X44297Y43698D01*
X44000Y43593D01*
X43714Y43477D01*
X43440Y43348D01*
X43176Y43206D01*
X42924Y43053D01*
X42683Y42887D01*
X42454Y42709D01*
X42235Y42519D01*
X42029Y42317D01*
X41836Y42105D01*
X41656Y41882D01*
X41490Y41650D01*
X41337Y41406D01*
X41197Y41153D01*
X41070Y40889D01*
X40957Y40615D01*
X40858Y40330D01*
X40771Y40035D01*
X40698Y39730D01*
X40638Y39414D01*
X40591Y39088D01*
X40558Y38751D01*
X40538Y38405D01*
X40531Y38047D01*
X40543Y37578D01*
X40578Y37123D01*
X40636Y36682D01*
X40718Y36257D01*
X40822Y35847D01*
X40950Y35452D01*
X41101Y35071D01*
X41276Y34706D01*
X41472Y34358D01*
X41687Y34032D01*
X41922Y33726D01*
X42176Y33441D01*
X42449Y33178D01*
X42742Y32935D01*
X43055Y32713D01*
X43387Y32512D01*
X43735Y32333D01*
X44096Y32179D01*
X44471Y32048D01*
X44858Y31940D01*
X45259Y31857D01*
X45673Y31798D01*
X46100Y31762D01*
X46540Y31750D01*
X51156Y31750D01*
X51156Y44091D01*
G37*
%LPC*%
G36*
X46733Y33090D02*
X46398Y33099D01*
X46074Y33127D01*
X45761Y33174D01*
X45457Y33239D01*
X45164Y33323D01*
X44881Y33425D01*
X44608Y33546D01*
X44346Y33686D01*
X44096Y33843D01*
X43861Y34016D01*
X43641Y34206D01*
X43436Y34413D01*
X43246Y34635D01*
X43071Y34875D01*
X42910Y35130D01*
X42765Y35402D01*
X42636Y35689D01*
X42524Y35988D01*
X42429Y36300D01*
X42351Y36624D01*
X42291Y36961D01*
X42248Y37311D01*
X42222Y37673D01*
X42213Y38047D01*
X42233Y38604D01*
X42292Y39127D01*
X42390Y39615D01*
X42527Y40070D01*
X42704Y40490D01*
X42920Y40876D01*
X43175Y41228D01*
X43470Y41546D01*
X43802Y41829D01*
X44169Y42073D01*
X44571Y42280D01*
X45008Y42450D01*
X45481Y42581D01*
X45988Y42675D01*
X46531Y42732D01*
X47109Y42751D01*
X49483Y42751D01*
X49483Y33090D01*
X46733Y33090D01*
G37*
%LPD*%
G36*
X62692Y42260D02*
X62648Y41411D01*
X62604Y39948D01*
X62604Y31750D01*
X64093Y31750D01*
X64093Y44091D01*
X62149Y44091D01*
X55475Y33510D01*
X55554Y34991D01*
X55580Y35998D01*
X55580Y44091D01*
X54073Y44091D01*
X54073Y31750D01*
X56088Y31750D01*
X62692Y42260D01*
G37*
G36*
X72857Y31587D02*
X73316Y31623D01*
X73758Y31683D01*
X74183Y31768D01*
X74592Y31876D01*
X74984Y32008D01*
X75360Y32165D01*
X75718Y32346D01*
X76058Y32549D01*
X76378Y32773D01*
X76676Y33019D01*
X76954Y33286D01*
X77212Y33574D01*
X77448Y33884D01*
X77664Y34214D01*
X77860Y34566D01*
X78033Y34936D01*
X78184Y35323D01*
X78311Y35725D01*
X78415Y36144D01*
X78496Y36578D01*
X78554Y37028D01*
X78588Y37495D01*
X78600Y37977D01*
X78594Y38348D01*
X78575Y38707D01*
X78543Y39056D01*
X78499Y39395D01*
X78443Y39722D01*
X78373Y40040D01*
X78291Y40346D01*
X78197Y40642D01*
X78090Y40927D01*
X77970Y41202D01*
X77838Y41466D01*
X77693Y41720D01*
X77536Y41963D01*
X77366Y42195D01*
X76988Y42628D01*
X76565Y43014D01*
X76338Y43188D01*
X76101Y43349D01*
X75854Y43496D01*
X75596Y43632D01*
X75328Y43754D01*
X75051Y43863D01*
X74762Y43960D01*
X74464Y44043D01*
X74156Y44114D01*
X73837Y44172D01*
X73508Y44217D01*
X73169Y44249D01*
X72820Y44268D01*
X72460Y44275D01*
X71960Y44264D01*
X71484Y44231D01*
X71031Y44177D01*
X70603Y44102D01*
X70199Y44004D01*
X69819Y43886D01*
X69464Y43745D01*
X69132Y43583D01*
X68821Y43397D01*
X68529Y43185D01*
X68255Y42947D01*
X68000Y42683D01*
X67763Y42393D01*
X67544Y42077D01*
X67343Y41735D01*
X67161Y41367D01*
X68755Y40894D01*
X68893Y41148D01*
X69043Y41384D01*
X69205Y41602D01*
X69380Y41803D01*
X69568Y41985D01*
X69768Y42150D01*
X69980Y42297D01*
X70205Y42427D01*
X70443Y42540D01*
X70695Y42637D01*
X70961Y42720D01*
X71242Y42788D01*
X71536Y42841D01*
X71845Y42878D01*
X72167Y42901D01*
X72504Y42908D01*
X73022Y42888D01*
X73510Y42828D01*
X73965Y42727D01*
X74389Y42585D01*
X74782Y42404D01*
X75143Y42182D01*
X75473Y41919D01*
X75771Y41617D01*
X76036Y41277D01*
X76265Y40905D01*
X76459Y40499D01*
X76618Y40061D01*
X76742Y39589D01*
X76830Y39085D01*
X76883Y38548D01*
X76901Y37977D01*
X76882Y37408D01*
X76826Y36870D01*
X76732Y36362D01*
X76601Y35885D01*
X76432Y35439D01*
X76226Y35024D01*
X75982Y34639D01*
X75701Y34286D01*
X75386Y33968D01*
X75043Y33694D01*
X74672Y33461D01*
X74271Y33271D01*
X73842Y33123D01*
X73384Y33017D01*
X72897Y32954D01*
X72381Y32932D01*
X71787Y32955D01*
X71213Y33024D01*
X70659Y33139D01*
X70126Y33300D01*
X69628Y33501D01*
X69179Y33734D01*
X68780Y34000D01*
X68431Y34299D01*
X68431Y36523D01*
X72119Y36523D01*
X72119Y37925D01*
X66890Y37925D01*
X66890Y33668D01*
X67142Y33426D01*
X67408Y33197D01*
X67688Y32983D01*
X67981Y32782D01*
X68289Y32596D01*
X68610Y32424D01*
X68945Y32266D01*
X69294Y32122D01*
X69654Y31994D01*
X70021Y31883D01*
X70395Y31789D01*
X70777Y31712D01*
X71167Y31652D01*
X71564Y31609D01*
X71969Y31583D01*
X72381Y31575D01*
X72857Y31587D01*
G37*
G36*
X196698Y44091D02*
X192616Y44091D01*
X192230Y44085D01*
X191855Y44066D01*
X191491Y44036D01*
X191138Y43993D01*
X190796Y43937D01*
X190466Y43870D01*
X190147Y43790D01*
X189839Y43698D01*
X189542Y43593D01*
X189256Y43477D01*
X188982Y43348D01*
X188718Y43206D01*
X188466Y43053D01*
X188225Y42887D01*
X187996Y42709D01*
X187777Y42519D01*
X187571Y42317D01*
X187378Y42105D01*
X187198Y41882D01*
X187032Y41650D01*
X186879Y41406D01*
X186739Y41153D01*
X186612Y40889D01*
X186499Y40615D01*
X186400Y40330D01*
X186313Y40035D01*
X186240Y39730D01*
X186180Y39414D01*
X186133Y39088D01*
X186100Y38751D01*
X186080Y38405D01*
X186073Y38047D01*
X186085Y37578D01*
X186120Y37123D01*
X186178Y36682D01*
X186260Y36257D01*
X186364Y35847D01*
X186492Y35452D01*
X186643Y35071D01*
X186818Y34706D01*
X187014Y34358D01*
X187229Y34032D01*
X187464Y33726D01*
X187718Y33441D01*
X187991Y33178D01*
X188284Y32935D01*
X188597Y32713D01*
X188929Y32512D01*
X189277Y32333D01*
X189638Y32179D01*
X190013Y32048D01*
X190400Y31940D01*
X190801Y31857D01*
X191215Y31798D01*
X191642Y31762D01*
X192082Y31750D01*
X196698Y31750D01*
X196698Y44091D01*
G37*
%LPC*%
G36*
X192275Y33090D02*
X191940Y33099D01*
X191616Y33127D01*
X191303Y33174D01*
X190999Y33239D01*
X190706Y33323D01*
X190423Y33425D01*
X190150Y33546D01*
X189888Y33686D01*
X189638Y33843D01*
X189403Y34016D01*
X189183Y34206D01*
X188978Y34413D01*
X188788Y34635D01*
X188613Y34875D01*
X188452Y35130D01*
X188307Y35402D01*
X188178Y35689D01*
X188066Y35988D01*
X187971Y36300D01*
X187893Y36624D01*
X187833Y36961D01*
X187790Y37311D01*
X187764Y37673D01*
X187755Y38047D01*
X187775Y38604D01*
X187834Y39127D01*
X187932Y39615D01*
X188069Y40070D01*
X188246Y40490D01*
X188462Y40876D01*
X188717Y41228D01*
X189012Y41546D01*
X189344Y41829D01*
X189711Y42073D01*
X190113Y42280D01*
X190550Y42450D01*
X191023Y42581D01*
X191530Y42675D01*
X192073Y42732D01*
X192651Y42751D01*
X195025Y42751D01*
X195025Y33090D01*
X192275Y33090D01*
G37*
%LPD*%
G36*
X208234Y42260D02*
X208190Y41411D01*
X208146Y39948D01*
X208146Y31750D01*
X209635Y31750D01*
X209635Y44091D01*
X207691Y44091D01*
X201017Y33510D01*
X201096Y34991D01*
X201122Y35998D01*
X201122Y44091D01*
X199615Y44091D01*
X199615Y31750D01*
X201630Y31750D01*
X208234Y42260D01*
G37*
G36*
X218399Y31587D02*
X218858Y31623D01*
X219300Y31683D01*
X219725Y31768D01*
X220134Y31876D01*
X220526Y32008D01*
X220902Y32165D01*
X221260Y32346D01*
X221600Y32549D01*
X221920Y32773D01*
X222218Y33019D01*
X222496Y33286D01*
X222754Y33574D01*
X222990Y33884D01*
X223206Y34214D01*
X223402Y34566D01*
X223575Y34936D01*
X223726Y35323D01*
X223853Y35725D01*
X223957Y36144D01*
X224038Y36578D01*
X224096Y37028D01*
X224130Y37495D01*
X224142Y37977D01*
X224136Y38348D01*
X224117Y38707D01*
X224085Y39056D01*
X224041Y39395D01*
X223985Y39722D01*
X223915Y40040D01*
X223833Y40346D01*
X223739Y40642D01*
X223632Y40927D01*
X223512Y41202D01*
X223380Y41466D01*
X223235Y41720D01*
X223078Y41963D01*
X222908Y42195D01*
X222530Y42628D01*
X222107Y43014D01*
X221880Y43188D01*
X221643Y43349D01*
X221396Y43496D01*
X221138Y43632D01*
X220870Y43754D01*
X220593Y43863D01*
X220304Y43960D01*
X220006Y44043D01*
X219698Y44114D01*
X219379Y44172D01*
X219050Y44217D01*
X218711Y44249D01*
X218362Y44268D01*
X218002Y44275D01*
X217502Y44264D01*
X217026Y44231D01*
X216573Y44177D01*
X216145Y44102D01*
X215741Y44004D01*
X215361Y43886D01*
X215006Y43745D01*
X214674Y43583D01*
X214363Y43397D01*
X214071Y43185D01*
X213797Y42947D01*
X213542Y42683D01*
X213305Y42393D01*
X213086Y42077D01*
X212885Y41735D01*
X212703Y41367D01*
X214297Y40894D01*
X214435Y41148D01*
X214585Y41384D01*
X214747Y41602D01*
X214922Y41803D01*
X215110Y41985D01*
X215310Y42150D01*
X215522Y42297D01*
X215747Y42427D01*
X215985Y42540D01*
X216237Y42637D01*
X216503Y42720D01*
X216784Y42788D01*
X217078Y42841D01*
X217387Y42878D01*
X217709Y42901D01*
X218046Y42908D01*
X218564Y42888D01*
X219052Y42828D01*
X219507Y42727D01*
X219931Y42585D01*
X220324Y42404D01*
X220685Y42182D01*
X221015Y41919D01*
X221313Y41617D01*
X221578Y41277D01*
X221807Y40905D01*
X222001Y40499D01*
X222160Y40061D01*
X222284Y39589D01*
X222372Y39085D01*
X222425Y38548D01*
X222443Y37977D01*
X222424Y37408D01*
X222368Y36870D01*
X222274Y36362D01*
X222143Y35885D01*
X221974Y35439D01*
X221768Y35024D01*
X221524Y34639D01*
X221243Y34286D01*
X220928Y33968D01*
X220585Y33694D01*
X220214Y33461D01*
X219813Y33271D01*
X219384Y33123D01*
X218926Y33017D01*
X218439Y32954D01*
X217923Y32932D01*
X217329Y32955D01*
X216755Y33024D01*
X216201Y33139D01*
X215668Y33300D01*
X215170Y33501D01*
X214721Y33734D01*
X214322Y34000D01*
X213973Y34299D01*
X213973Y36523D01*
X217661Y36523D01*
X217661Y37925D01*
X212432Y37925D01*
X212432Y33668D01*
X212684Y33426D01*
X212950Y33197D01*
X213230Y32983D01*
X213523Y32782D01*
X213831Y32596D01*
X214152Y32424D01*
X214487Y32266D01*
X214836Y32122D01*
X215196Y31994D01*
X215563Y31883D01*
X215937Y31789D01*
X216319Y31712D01*
X216709Y31652D01*
X217106Y31609D01*
X217511Y31583D01*
X217923Y31575D01*
X218399Y31587D01*
G37*
G36*
X210153Y56987D02*
X210553Y57022D01*
X210932Y57081D01*
X211291Y57163D01*
X211629Y57269D01*
X211946Y57399D01*
X212242Y57552D01*
X212517Y57728D01*
X212770Y57927D01*
X212998Y58147D01*
X213202Y58388D01*
X213382Y58650D01*
X213537Y58933D01*
X213668Y59237D01*
X213775Y59563D01*
X213857Y59909D01*
X212263Y60093D01*
X212194Y59871D01*
X212114Y59664D01*
X212021Y59471D01*
X211915Y59292D01*
X211798Y59128D01*
X211668Y58977D01*
X211526Y58842D01*
X211372Y58720D01*
X211205Y58613D01*
X211027Y58520D01*
X210836Y58441D01*
X210632Y58377D01*
X210417Y58327D01*
X210189Y58291D01*
X209949Y58269D01*
X209697Y58262D01*
X209388Y58274D01*
X209096Y58310D01*
X208822Y58370D01*
X208565Y58454D01*
X208325Y58562D01*
X208102Y58693D01*
X207897Y58849D01*
X207709Y59029D01*
X207540Y59229D01*
X207394Y59448D01*
X207271Y59684D01*
X207170Y59939D01*
X207091Y60211D01*
X207035Y60501D01*
X207002Y60809D01*
X206990Y61135D01*
X207002Y61419D01*
X207036Y61690D01*
X207092Y61946D01*
X207171Y62188D01*
X207273Y62417D01*
X207397Y62631D01*
X207544Y62832D01*
X207713Y63018D01*
X207901Y63187D01*
X208106Y63332D01*
X208326Y63456D01*
X208561Y63557D01*
X208813Y63635D01*
X209080Y63692D01*
X209363Y63725D01*
X209662Y63736D01*
X209976Y63724D01*
X210279Y63686D01*
X210572Y63623D01*
X210853Y63535D01*
X211129Y63417D01*
X211405Y63263D01*
X211681Y63075D01*
X211956Y62852D01*
X213498Y62852D01*
X213086Y69491D01*
X206071Y69491D01*
X206071Y68151D01*
X211650Y68151D01*
X211886Y64236D01*
X211622Y64420D01*
X211343Y64581D01*
X211048Y64716D01*
X210737Y64827D01*
X210410Y64913D01*
X210068Y64975D01*
X209711Y65012D01*
X209338Y65024D01*
X208894Y65007D01*
X208473Y64957D01*
X208075Y64874D01*
X207701Y64757D01*
X207350Y64607D01*
X207021Y64423D01*
X206716Y64206D01*
X206434Y63955D01*
X206181Y63678D01*
X205961Y63381D01*
X205775Y63063D01*
X205623Y62725D01*
X205505Y62367D01*
X205420Y61988D01*
X205369Y61589D01*
X205353Y61170D01*
X205371Y60695D01*
X205425Y60246D01*
X205516Y59822D01*
X205643Y59425D01*
X205806Y59054D01*
X206005Y58708D01*
X206241Y58389D01*
X206513Y58096D01*
X206817Y57833D01*
X207149Y57605D01*
X207510Y57413D01*
X207898Y57255D01*
X208314Y57133D01*
X208759Y57045D01*
X209231Y56992D01*
X209732Y56975D01*
X210153Y56987D01*
G37*
G36*
X204528Y69491D02*
X202767Y69491D01*
X199351Y60802D01*
X198616Y58621D01*
X197880Y60802D01*
X194482Y69491D01*
X192721Y69491D01*
X197757Y57150D01*
X199492Y57150D01*
X204528Y69491D01*
G37*
G36*
X220455Y62475D02*
X224168Y62475D01*
X224168Y63754D01*
X220455Y63754D01*
X220455Y67503D01*
X219167Y67503D01*
X219167Y63754D01*
X215453Y63754D01*
X215453Y62475D01*
X219167Y62475D01*
X219167Y58727D01*
X220455Y58727D01*
X220455Y62475D01*
G37*
G36*
X211635Y94891D02*
X207554Y94891D01*
X207167Y94885D01*
X206792Y94866D01*
X206428Y94836D01*
X206075Y94793D01*
X205734Y94737D01*
X205403Y94670D01*
X205084Y94590D01*
X204776Y94498D01*
X204479Y94393D01*
X204194Y94277D01*
X203919Y94148D01*
X203656Y94006D01*
X203404Y93853D01*
X203163Y93687D01*
X202933Y93509D01*
X202715Y93319D01*
X202508Y93117D01*
X202315Y92905D01*
X202136Y92682D01*
X201969Y92450D01*
X201816Y92206D01*
X201676Y91953D01*
X201550Y91689D01*
X201437Y91415D01*
X201337Y91130D01*
X201251Y90835D01*
X201177Y90530D01*
X201117Y90214D01*
X201071Y89888D01*
X201038Y89551D01*
X201018Y89205D01*
X201011Y88847D01*
X201023Y88378D01*
X201058Y87923D01*
X201116Y87482D01*
X201197Y87057D01*
X201302Y86647D01*
X201430Y86252D01*
X201581Y85871D01*
X201755Y85506D01*
X201951Y85158D01*
X202167Y84832D01*
X202401Y84526D01*
X202655Y84241D01*
X202929Y83978D01*
X203222Y83735D01*
X203534Y83513D01*
X203866Y83312D01*
X204214Y83133D01*
X204576Y82979D01*
X204950Y82848D01*
X205338Y82740D01*
X205738Y82657D01*
X206152Y82598D01*
X206579Y82562D01*
X207019Y82550D01*
X211635Y82550D01*
X211635Y94891D01*
G37*
%LPC*%
G36*
X207212Y83890D02*
X206878Y83899D01*
X206554Y83927D01*
X206240Y83974D01*
X205937Y84039D01*
X205643Y84123D01*
X205360Y84225D01*
X205088Y84346D01*
X204825Y84486D01*
X204576Y84643D01*
X204341Y84816D01*
X204121Y85006D01*
X203916Y85213D01*
X203725Y85435D01*
X203550Y85675D01*
X203390Y85930D01*
X203244Y86202D01*
X203115Y86489D01*
X203003Y86788D01*
X202908Y87100D01*
X202831Y87424D01*
X202770Y87761D01*
X202727Y88111D01*
X202701Y88473D01*
X202693Y88847D01*
X202712Y89404D01*
X202771Y89927D01*
X202869Y90415D01*
X203007Y90870D01*
X203184Y91290D01*
X203400Y91676D01*
X203655Y92028D01*
X203949Y92346D01*
X204281Y92629D01*
X204648Y92873D01*
X205050Y93080D01*
X205488Y93250D01*
X205960Y93381D01*
X206468Y93475D01*
X207011Y93532D01*
X207589Y93551D01*
X209962Y93551D01*
X209962Y83890D01*
X207212Y83890D01*
G37*
%LPD*%
G36*
X191327Y86159D02*
X196950Y86159D01*
X198369Y82550D01*
X200103Y82550D01*
X195067Y94891D01*
X193166Y94891D01*
X188209Y82550D01*
X189917Y82550D01*
X191327Y86159D01*
G37*
G36*
X219550Y82387D02*
X220069Y82424D01*
X220559Y82485D01*
X221019Y82571D01*
X221449Y82681D01*
X221850Y82816D01*
X222222Y82975D01*
X222563Y83159D01*
X222875Y83367D01*
X223158Y83600D01*
X223410Y83857D01*
X223633Y84139D01*
X223827Y84445D01*
X223991Y84775D01*
X224125Y85131D01*
X224229Y85510D01*
X222609Y85834D01*
X222529Y85566D01*
X222430Y85315D01*
X222310Y85083D01*
X222171Y84870D01*
X222012Y84675D01*
X221834Y84499D01*
X221636Y84341D01*
X221418Y84201D01*
X221180Y84079D01*
X220921Y83973D01*
X220642Y83883D01*
X220343Y83810D01*
X220023Y83753D01*
X219682Y83712D01*
X219321Y83688D01*
X218939Y83680D01*
X218546Y83689D01*
X218175Y83715D01*
X217828Y83758D01*
X217504Y83819D01*
X217203Y83897D01*
X216925Y83993D01*
X216670Y84106D01*
X216439Y84236D01*
X216232Y84383D01*
X216054Y84547D01*
X215902Y84726D01*
X215779Y84922D01*
X215682Y85135D01*
X215614Y85363D01*
X215572Y85608D01*
X215559Y85869D01*
X215576Y86157D01*
X215628Y86417D01*
X215714Y86648D01*
X215834Y86850D01*
X215986Y87031D01*
X216166Y87194D01*
X216374Y87341D01*
X216610Y87472D01*
X216871Y87590D01*
X217157Y87698D01*
X217467Y87796D01*
X217801Y87884D01*
X219333Y88243D01*
X220021Y88405D01*
X220620Y88567D01*
X221131Y88729D01*
X221554Y88891D01*
X221913Y89058D01*
X222231Y89234D01*
X222510Y89419D01*
X222749Y89614D01*
X222955Y89822D01*
X223136Y90046D01*
X223290Y90288D01*
X223419Y90547D01*
X223521Y90824D01*
X223593Y91120D01*
X223637Y91437D01*
X223651Y91773D01*
X223632Y92158D01*
X223576Y92520D01*
X223481Y92859D01*
X223348Y93176D01*
X223178Y93470D01*
X222969Y93742D01*
X222723Y93990D01*
X222438Y94216D01*
X222119Y94418D01*
X221766Y94592D01*
X221381Y94739D01*
X220964Y94860D01*
X220513Y94954D01*
X220030Y95021D01*
X219514Y95061D01*
X218966Y95075D01*
X218456Y95065D01*
X217976Y95034D01*
X217528Y94984D01*
X217111Y94914D01*
X216725Y94823D01*
X216369Y94713D01*
X216045Y94582D01*
X215751Y94431D01*
X215484Y94256D01*
X215237Y94052D01*
X215011Y93821D01*
X214805Y93561D01*
X214621Y93272D01*
X214457Y92955D01*
X214314Y92610D01*
X214192Y92237D01*
X215839Y91948D01*
X215914Y92185D01*
X216005Y92405D01*
X216111Y92608D01*
X216233Y92794D01*
X216370Y92964D01*
X216522Y93116D01*
X216689Y93252D01*
X216872Y93371D01*
X217072Y93475D01*
X217290Y93565D01*
X217526Y93641D01*
X217781Y93703D01*
X218054Y93751D01*
X218345Y93786D01*
X218655Y93807D01*
X218983Y93813D01*
X219342Y93806D01*
X219679Y93783D01*
X219995Y93745D01*
X220288Y93691D01*
X220560Y93622D01*
X220809Y93538D01*
X221037Y93438D01*
X221243Y93323D01*
X221426Y93193D01*
X221584Y93048D01*
X221718Y92887D01*
X221827Y92712D01*
X221913Y92522D01*
X221974Y92316D01*
X222010Y92096D01*
X222022Y91860D01*
X222003Y91588D01*
X221947Y91340D01*
X221852Y91117D01*
X221720Y90919D01*
X221552Y90740D01*
X221351Y90575D01*
X221117Y90424D01*
X220849Y90288D01*
X220493Y90152D01*
X219997Y90000D01*
X219359Y89834D01*
X218580Y89653D01*
X217446Y89386D01*
X216893Y89237D01*
X216364Y89062D01*
X215864Y88857D01*
X215396Y88620D01*
X215178Y88486D01*
X214975Y88337D01*
X214786Y88175D01*
X214613Y87998D01*
X214455Y87806D01*
X214316Y87597D01*
X214195Y87372D01*
X214091Y87131D01*
X214009Y86870D01*
X213950Y86588D01*
X213915Y86283D01*
X213903Y85957D01*
X213924Y85542D01*
X213987Y85151D01*
X214091Y84785D01*
X214237Y84442D01*
X214425Y84123D01*
X214654Y83829D01*
X214926Y83558D01*
X215239Y83312D01*
X215590Y83092D01*
X215975Y82902D01*
X216394Y82741D01*
X216847Y82609D01*
X217334Y82507D01*
X217856Y82433D01*
X218411Y82390D01*
X219001Y82375D01*
X219550Y82387D01*
G37*
%LPC*%
G36*
X191826Y87464D02*
X193411Y91536D01*
X193656Y92180D01*
X193902Y92903D01*
X194138Y93630D01*
X194217Y93384D01*
X194489Y92554D01*
X194865Y91519D01*
X196442Y87464D01*
X191826Y87464D01*
G37*
%LPD*%
G36*
X219550Y107787D02*
X220069Y107824D01*
X220559Y107885D01*
X221019Y107971D01*
X221449Y108081D01*
X221850Y108216D01*
X222222Y108375D01*
X222563Y108559D01*
X222875Y108767D01*
X223158Y109000D01*
X223410Y109257D01*
X223633Y109539D01*
X223827Y109845D01*
X223991Y110175D01*
X224125Y110531D01*
X224229Y110910D01*
X222609Y111234D01*
X222529Y110966D01*
X222430Y110715D01*
X222310Y110483D01*
X222171Y110270D01*
X222012Y110075D01*
X221834Y109899D01*
X221636Y109741D01*
X221418Y109601D01*
X221180Y109479D01*
X220921Y109373D01*
X220642Y109283D01*
X220343Y109210D01*
X220023Y109153D01*
X219682Y109112D01*
X219321Y109088D01*
X218939Y109080D01*
X218546Y109089D01*
X218175Y109115D01*
X217828Y109158D01*
X217504Y109219D01*
X217203Y109297D01*
X216925Y109393D01*
X216670Y109506D01*
X216439Y109636D01*
X216232Y109783D01*
X216054Y109947D01*
X215902Y110126D01*
X215779Y110322D01*
X215682Y110535D01*
X215614Y110763D01*
X215572Y111008D01*
X215559Y111269D01*
X215576Y111557D01*
X215628Y111817D01*
X215714Y112048D01*
X215834Y112250D01*
X215986Y112431D01*
X216166Y112594D01*
X216374Y112741D01*
X216610Y112872D01*
X216871Y112990D01*
X217157Y113098D01*
X217467Y113196D01*
X217801Y113284D01*
X219333Y113643D01*
X220021Y113805D01*
X220620Y113967D01*
X221131Y114129D01*
X221554Y114291D01*
X221913Y114458D01*
X222231Y114634D01*
X222510Y114819D01*
X222749Y115014D01*
X222955Y115222D01*
X223136Y115446D01*
X223290Y115688D01*
X223419Y115947D01*
X223521Y116224D01*
X223593Y116520D01*
X223637Y116837D01*
X223651Y117173D01*
X223632Y117558D01*
X223576Y117920D01*
X223481Y118259D01*
X223348Y118576D01*
X223178Y118870D01*
X222969Y119142D01*
X222723Y119390D01*
X222438Y119616D01*
X222119Y119818D01*
X221766Y119992D01*
X221381Y120139D01*
X220964Y120260D01*
X220513Y120354D01*
X220030Y120421D01*
X219514Y120461D01*
X218966Y120475D01*
X218456Y120465D01*
X217976Y120434D01*
X217528Y120384D01*
X217111Y120314D01*
X216725Y120223D01*
X216369Y120113D01*
X216045Y119982D01*
X215751Y119831D01*
X215484Y119656D01*
X215237Y119452D01*
X215011Y119221D01*
X214805Y118961D01*
X214621Y118672D01*
X214457Y118355D01*
X214314Y118010D01*
X214192Y117637D01*
X215839Y117348D01*
X215914Y117585D01*
X216005Y117805D01*
X216111Y118008D01*
X216233Y118194D01*
X216370Y118364D01*
X216522Y118516D01*
X216689Y118652D01*
X216872Y118771D01*
X217072Y118875D01*
X217290Y118965D01*
X217526Y119041D01*
X217781Y119103D01*
X218054Y119151D01*
X218345Y119186D01*
X218655Y119207D01*
X218983Y119213D01*
X219342Y119206D01*
X219679Y119183D01*
X219995Y119145D01*
X220288Y119091D01*
X220560Y119022D01*
X220809Y118938D01*
X221037Y118838D01*
X221243Y118723D01*
X221426Y118593D01*
X221584Y118448D01*
X221718Y118287D01*
X221827Y118112D01*
X221913Y117922D01*
X221974Y117716D01*
X222010Y117496D01*
X222022Y117260D01*
X222003Y116988D01*
X221947Y116740D01*
X221852Y116517D01*
X221720Y116319D01*
X221552Y116140D01*
X221351Y115975D01*
X221117Y115824D01*
X220849Y115688D01*
X220493Y115552D01*
X219997Y115400D01*
X219359Y115234D01*
X218580Y115053D01*
X217446Y114786D01*
X216893Y114637D01*
X216364Y114462D01*
X215864Y114257D01*
X215396Y114020D01*
X215178Y113886D01*
X214975Y113737D01*
X214786Y113575D01*
X214613Y113398D01*
X214455Y113206D01*
X214316Y112997D01*
X214195Y112772D01*
X214091Y112531D01*
X214009Y112270D01*
X213950Y111988D01*
X213915Y111683D01*
X213903Y111357D01*
X213924Y110942D01*
X213987Y110551D01*
X214091Y110185D01*
X214237Y109842D01*
X214425Y109523D01*
X214654Y109229D01*
X214926Y108958D01*
X215239Y108712D01*
X215590Y108492D01*
X215975Y108302D01*
X216394Y108141D01*
X216847Y108009D01*
X217334Y107907D01*
X217856Y107833D01*
X218411Y107790D01*
X219001Y107775D01*
X219550Y107787D01*
G37*
G36*
X206637Y107787D02*
X207080Y107823D01*
X207507Y107884D01*
X207918Y107969D01*
X208314Y108078D01*
X208694Y108211D01*
X209058Y108368D01*
X209406Y108550D01*
X209736Y108754D01*
X210047Y108979D01*
X210336Y109225D01*
X210606Y109492D01*
X210855Y109779D01*
X211084Y110087D01*
X211293Y110416D01*
X211482Y110766D01*
X211649Y111134D01*
X211794Y111519D01*
X211917Y111921D01*
X212017Y112339D01*
X212095Y112774D01*
X212151Y113225D01*
X212184Y113693D01*
X212196Y114177D01*
X212189Y114541D01*
X212171Y114895D01*
X212140Y115239D01*
X212096Y115573D01*
X212040Y115897D01*
X211971Y116211D01*
X211891Y116515D01*
X211797Y116809D01*
X211691Y117093D01*
X211573Y117367D01*
X211299Y117885D01*
X210975Y118364D01*
X210602Y118802D01*
X210184Y119194D01*
X209728Y119534D01*
X209486Y119684D01*
X209234Y119821D01*
X208972Y119945D01*
X208701Y120056D01*
X208420Y120155D01*
X208130Y120239D01*
X207830Y120311D01*
X207521Y120370D01*
X207202Y120416D01*
X206873Y120449D01*
X206535Y120468D01*
X206187Y120475D01*
X205705Y120463D01*
X205242Y120427D01*
X204800Y120366D01*
X204379Y120282D01*
X203977Y120174D01*
X203596Y120041D01*
X203235Y119885D01*
X202894Y119704D01*
X202574Y119500D01*
X202277Y119272D01*
X202001Y119021D01*
X201747Y118747D01*
X201515Y118450D01*
X201304Y118129D01*
X201116Y117785D01*
X200950Y117418D01*
X202535Y116892D01*
X202650Y117154D01*
X202782Y117399D01*
X202930Y117629D01*
X203094Y117843D01*
X203275Y118041D01*
X203472Y118223D01*
X203685Y118389D01*
X203914Y118539D01*
X204158Y118673D01*
X204412Y118788D01*
X204677Y118886D01*
X204953Y118966D01*
X205241Y119028D01*
X205539Y119073D01*
X205849Y119099D01*
X206170Y119108D01*
X206668Y119088D01*
X207138Y119026D01*
X207579Y118923D01*
X207992Y118779D01*
X208376Y118593D01*
X208732Y118367D01*
X209059Y118099D01*
X209358Y117790D01*
X209625Y117445D01*
X209856Y117070D01*
X210052Y116664D01*
X210212Y116228D01*
X210336Y115761D01*
X210425Y115264D01*
X210479Y114736D01*
X210496Y114177D01*
X210478Y113624D01*
X210422Y113099D01*
X210330Y112601D01*
X210200Y112131D01*
X210033Y111689D01*
X209829Y111275D01*
X209588Y110888D01*
X209310Y110529D01*
X209000Y110206D01*
X208664Y109926D01*
X208302Y109689D01*
X207914Y109495D01*
X207499Y109344D01*
X207059Y109236D01*
X206592Y109171D01*
X206100Y109150D01*
X205781Y109160D01*
X205472Y109190D01*
X205173Y109240D01*
X204884Y109310D01*
X204605Y109401D01*
X204336Y109511D01*
X204078Y109641D01*
X203829Y109791D01*
X203590Y109962D01*
X203362Y110152D01*
X203144Y110363D01*
X202935Y110593D01*
X202737Y110844D01*
X202549Y111115D01*
X202370Y111405D01*
X202202Y111716D01*
X200836Y111033D01*
X201036Y110646D01*
X201255Y110284D01*
X201494Y109945D01*
X201752Y109629D01*
X202030Y109338D01*
X202326Y109071D01*
X202642Y108827D01*
X202977Y108607D01*
X203329Y108412D01*
X203695Y108243D01*
X204074Y108100D01*
X204467Y107983D01*
X204874Y107892D01*
X205295Y107827D01*
X205730Y107788D01*
X206179Y107775D01*
X206637Y107787D01*
G37*
G36*
X198666Y120291D02*
X196993Y120291D01*
X196993Y109316D01*
X190757Y109316D01*
X190757Y107950D01*
X198666Y107950D01*
X198666Y120291D01*
G37*
G36*
X208072Y138745D02*
X211856Y133350D01*
X213704Y133350D01*
X209009Y139761D01*
X213345Y145691D01*
X211496Y145691D01*
X208063Y140847D01*
X204726Y145691D01*
X202878Y145691D01*
X207100Y139823D01*
X202519Y133350D01*
X204367Y133350D01*
X208072Y138745D01*
G37*
G36*
X220402Y144324D02*
X224641Y144324D01*
X224641Y145691D01*
X214499Y145691D01*
X214499Y144324D01*
X218738Y144324D01*
X218738Y133350D01*
X220402Y133350D01*
X220402Y144324D01*
G37*
G36*
X217801Y163874D02*
X221646Y163874D01*
X221646Y158750D01*
X223319Y158750D01*
X223319Y171091D01*
X217512Y171091D01*
X217005Y171076D01*
X216529Y171032D01*
X216082Y170960D01*
X215665Y170858D01*
X215277Y170726D01*
X214919Y170566D01*
X214591Y170377D01*
X214293Y170158D01*
X214027Y169913D01*
X213797Y169646D01*
X213602Y169356D01*
X213442Y169042D01*
X213318Y168706D01*
X213230Y168347D01*
X213176Y167966D01*
X213159Y167561D01*
X213171Y167224D01*
X213209Y166901D01*
X213271Y166591D01*
X213359Y166295D01*
X213472Y166013D01*
X213609Y165745D01*
X213772Y165490D01*
X213960Y165249D01*
X214170Y165025D01*
X214399Y164824D01*
X214647Y164643D01*
X214758Y164577D01*
X214914Y164485D01*
X215200Y164348D01*
X215505Y164232D01*
X215829Y164139D01*
X216172Y164066D01*
X214680Y161803D01*
X212668Y158750D01*
X214595Y158750D01*
X217801Y163874D01*
G37*
G36*
X205818Y164145D02*
X209602Y158750D01*
X211450Y158750D01*
X206755Y165161D01*
X211091Y171091D01*
X209242Y171091D01*
X205809Y166247D01*
X202472Y171091D01*
X200624Y171091D01*
X204846Y165223D01*
X200265Y158750D01*
X202113Y158750D01*
X205818Y164145D01*
G37*
%LPC*%
G36*
X217608Y165196D02*
X217287Y165206D01*
X216984Y165235D01*
X216700Y165283D01*
X216435Y165351D01*
X216189Y165437D01*
X215962Y165544D01*
X215753Y165669D01*
X215563Y165814D01*
X215394Y165976D01*
X215247Y166153D01*
X215123Y166346D01*
X215021Y166555D01*
X214942Y166779D01*
X214885Y167018D01*
X214852Y167273D01*
X214840Y167544D01*
X214852Y167805D01*
X214886Y168050D01*
X214943Y168280D01*
X215023Y168493D01*
X215126Y168690D01*
X215252Y168871D01*
X215400Y169037D01*
X215572Y169186D01*
X215765Y169318D01*
X215978Y169433D01*
X216211Y169530D01*
X216464Y169610D01*
X216737Y169671D01*
X217031Y169715D01*
X217344Y169742D01*
X217678Y169751D01*
X221646Y169751D01*
X221646Y165196D01*
X217608Y165196D01*
G37*
%LPD*%
G36*
X216948Y194660D02*
X216905Y193811D01*
X216861Y192348D01*
X216861Y184150D01*
X218350Y184150D01*
X218350Y196491D01*
X216405Y196491D01*
X209731Y185910D01*
X209810Y187391D01*
X209837Y188398D01*
X209837Y196491D01*
X208330Y196491D01*
X208330Y184150D01*
X210345Y184150D01*
X216948Y194660D01*
G37*
G36*
X202242Y195124D02*
X206481Y195124D01*
X206481Y196491D01*
X196338Y196491D01*
X196338Y195124D01*
X200578Y195124D01*
X200578Y184150D01*
X202242Y184150D01*
X202242Y195124D01*
G37*
G36*
X223135Y196491D02*
X221462Y196491D01*
X221462Y184150D01*
X223135Y184150D01*
X223135Y196491D01*
G37*
G36*
X223319Y220621D02*
X218125Y220621D01*
X217620Y220606D01*
X217145Y220560D01*
X216700Y220484D01*
X216283Y220378D01*
X215896Y220241D01*
X215538Y220074D01*
X215210Y219876D01*
X214910Y219649D01*
X214644Y219393D01*
X214412Y219113D01*
X214217Y218807D01*
X214056Y218477D01*
X213932Y218122D01*
X213843Y217742D01*
X213790Y217337D01*
X213772Y216907D01*
X213790Y216480D01*
X213843Y216076D01*
X213933Y215694D01*
X214058Y215335D01*
X214218Y214998D01*
X214415Y214684D01*
X214647Y214392D01*
X214915Y214122D01*
X215213Y213880D01*
X215537Y213670D01*
X215887Y213492D01*
X216262Y213347D01*
X216663Y213234D01*
X217090Y213153D01*
X217542Y213105D01*
X218020Y213088D01*
X221646Y213088D01*
X221646Y208280D01*
X223319Y208280D01*
X223319Y220621D01*
G37*
G36*
X203752Y216119D02*
X204011Y217146D01*
X204366Y218755D01*
X204751Y217056D01*
X205427Y214520D01*
X207142Y208280D01*
X209139Y208280D01*
X212774Y220621D01*
X211031Y220621D01*
X208815Y212782D01*
X208436Y211289D01*
X208088Y209751D01*
X207602Y211853D01*
X207346Y212828D01*
X206856Y214615D01*
X205171Y220621D01*
X203568Y220621D01*
X201423Y212940D01*
X200985Y211201D01*
X200652Y209751D01*
X200573Y210058D01*
X200188Y211700D01*
X199498Y214248D01*
X197727Y220621D01*
X195984Y220621D01*
X199618Y208280D01*
X201615Y208280D01*
X203752Y216119D01*
G37*
G36*
X183951Y216513D02*
X183931Y217853D01*
X183872Y219141D01*
X184279Y217744D01*
X184467Y217173D01*
X184643Y216688D01*
X187831Y208280D01*
X189005Y208280D01*
X192236Y216688D01*
X192727Y218177D01*
X193016Y219141D01*
X192990Y218168D01*
X192955Y216513D01*
X192955Y208280D01*
X194444Y208280D01*
X194444Y220621D01*
X192245Y220621D01*
X188961Y212064D01*
X188789Y211528D01*
X188624Y210956D01*
X188409Y210102D01*
X188301Y210543D01*
X188116Y211166D01*
X187928Y211747D01*
X187813Y212064D01*
X184590Y220621D01*
X182444Y220621D01*
X182444Y208280D01*
X183951Y208280D01*
X183951Y216513D01*
G37*
%LPC*%
G36*
X218256Y214411D02*
X217917Y214421D01*
X217599Y214450D01*
X217304Y214498D01*
X217030Y214566D01*
X216778Y214653D01*
X216548Y214760D01*
X216340Y214885D01*
X216154Y215031D01*
X215990Y215195D01*
X215848Y215379D01*
X215727Y215583D01*
X215629Y215805D01*
X215552Y216047D01*
X215497Y216309D01*
X215464Y216589D01*
X215453Y216890D01*
X215465Y217179D01*
X215498Y217450D01*
X215554Y217702D01*
X215633Y217936D01*
X215734Y218151D01*
X215857Y218347D01*
X216003Y218524D01*
X216172Y218683D01*
X216362Y218823D01*
X216576Y218944D01*
X216811Y219047D01*
X217069Y219131D01*
X217350Y219197D01*
X217653Y219243D01*
X217978Y219271D01*
X218326Y219281D01*
X221646Y219281D01*
X221646Y214411D01*
X218256Y214411D01*
G37*
%LPD*%
D10*
X173482Y231648D02*
X163322Y231648D01*
X151892Y231648D01*
X140462Y231648D01*
X129032Y231648D01*
X173482Y231648D02*
X173482Y216408D01*
X151892Y216408D02*
X151892Y231648D01*
X129032Y231648D02*
X129032Y216408D01*
X163322Y231648D02*
X163322Y248158D01*
X140462Y248158D02*
X140462Y231648D01*
D11*
X161036Y248158D02*
X161038Y248253D01*
X161044Y248348D01*
X161054Y248443D01*
X161068Y248537D01*
X161085Y248630D01*
X161107Y248723D01*
X161132Y248814D01*
X161161Y248905D01*
X161194Y248994D01*
X161231Y249082D01*
X161271Y249168D01*
X161315Y249253D01*
X161362Y249335D01*
X161413Y249416D01*
X161467Y249494D01*
X161524Y249570D01*
X161584Y249644D01*
X161648Y249715D01*
X161714Y249783D01*
X161783Y249848D01*
X161855Y249911D01*
X161929Y249970D01*
X162005Y250027D01*
X162084Y250080D01*
X162165Y250130D01*
X162248Y250176D01*
X162333Y250219D01*
X162420Y250258D01*
X162508Y250294D01*
X162598Y250326D01*
X162688Y250354D01*
X162780Y250379D01*
X162873Y250399D01*
X162967Y250416D01*
X163061Y250429D01*
X163156Y250438D01*
X163251Y250443D01*
X163346Y250444D01*
X163441Y250441D01*
X163536Y250434D01*
X163630Y250423D01*
X163724Y250408D01*
X163817Y250390D01*
X163910Y250367D01*
X164001Y250341D01*
X164091Y250311D01*
X164180Y250277D01*
X164268Y250239D01*
X164353Y250198D01*
X164437Y250153D01*
X164519Y250105D01*
X164599Y250054D01*
X164677Y249999D01*
X164753Y249941D01*
X164826Y249880D01*
X164896Y249816D01*
X164963Y249749D01*
X165028Y249679D01*
X165090Y249607D01*
X165149Y249532D01*
X165204Y249455D01*
X165257Y249376D01*
X165306Y249294D01*
X165351Y249211D01*
X165393Y249125D01*
X165432Y249038D01*
X165466Y248950D01*
X165498Y248860D01*
X165525Y248769D01*
X165548Y248677D01*
X165568Y248584D01*
X165584Y248490D01*
X165596Y248395D01*
X165604Y248301D01*
X165608Y248206D01*
X165608Y248110D01*
X165604Y248015D01*
X165596Y247921D01*
X165584Y247826D01*
X165568Y247732D01*
X165548Y247639D01*
X165525Y247547D01*
X165498Y247456D01*
X165466Y247366D01*
X165432Y247278D01*
X165393Y247191D01*
X165351Y247105D01*
X165306Y247022D01*
X165257Y246940D01*
X165204Y246861D01*
X165149Y246784D01*
X165090Y246709D01*
X165028Y246637D01*
X164963Y246567D01*
X164896Y246500D01*
X164826Y246436D01*
X164753Y246375D01*
X164677Y246317D01*
X164599Y246262D01*
X164519Y246211D01*
X164437Y246163D01*
X164353Y246118D01*
X164268Y246077D01*
X164180Y246039D01*
X164091Y246005D01*
X164001Y245975D01*
X163910Y245949D01*
X163817Y245926D01*
X163724Y245908D01*
X163630Y245893D01*
X163536Y245882D01*
X163441Y245875D01*
X163346Y245872D01*
X163251Y245873D01*
X163156Y245878D01*
X163061Y245887D01*
X162967Y245900D01*
X162873Y245917D01*
X162780Y245937D01*
X162688Y245962D01*
X162598Y245990D01*
X162508Y246022D01*
X162420Y246058D01*
X162333Y246097D01*
X162248Y246140D01*
X162165Y246186D01*
X162084Y246236D01*
X162005Y246289D01*
X161929Y246346D01*
X161855Y246405D01*
X161783Y246468D01*
X161714Y246533D01*
X161648Y246601D01*
X161584Y246672D01*
X161524Y246746D01*
X161467Y246822D01*
X161413Y246900D01*
X161362Y246981D01*
X161315Y247063D01*
X161271Y247148D01*
X161231Y247234D01*
X161194Y247322D01*
X161161Y247411D01*
X161132Y247502D01*
X161107Y247593D01*
X161085Y247686D01*
X161068Y247779D01*
X161054Y247873D01*
X161044Y247968D01*
X161038Y248063D01*
X161036Y248158D01*
X171196Y216408D02*
X171198Y216503D01*
X171204Y216598D01*
X171214Y216693D01*
X171228Y216787D01*
X171245Y216880D01*
X171267Y216973D01*
X171292Y217064D01*
X171321Y217155D01*
X171354Y217244D01*
X171391Y217332D01*
X171431Y217418D01*
X171475Y217503D01*
X171522Y217585D01*
X171573Y217666D01*
X171627Y217744D01*
X171684Y217820D01*
X171744Y217894D01*
X171808Y217965D01*
X171874Y218033D01*
X171943Y218098D01*
X172015Y218161D01*
X172089Y218220D01*
X172165Y218277D01*
X172244Y218330D01*
X172325Y218380D01*
X172408Y218426D01*
X172493Y218469D01*
X172580Y218508D01*
X172668Y218544D01*
X172758Y218576D01*
X172848Y218604D01*
X172940Y218629D01*
X173033Y218649D01*
X173127Y218666D01*
X173221Y218679D01*
X173316Y218688D01*
X173411Y218693D01*
X173506Y218694D01*
X173601Y218691D01*
X173696Y218684D01*
X173790Y218673D01*
X173884Y218658D01*
X173977Y218640D01*
X174070Y218617D01*
X174161Y218591D01*
X174251Y218561D01*
X174340Y218527D01*
X174428Y218489D01*
X174513Y218448D01*
X174597Y218403D01*
X174679Y218355D01*
X174759Y218304D01*
X174837Y218249D01*
X174913Y218191D01*
X174986Y218130D01*
X175056Y218066D01*
X175123Y217999D01*
X175188Y217929D01*
X175250Y217857D01*
X175309Y217782D01*
X175364Y217705D01*
X175417Y217626D01*
X175466Y217544D01*
X175511Y217461D01*
X175553Y217375D01*
X175592Y217288D01*
X175626Y217200D01*
X175658Y217110D01*
X175685Y217019D01*
X175708Y216927D01*
X175728Y216834D01*
X175744Y216740D01*
X175756Y216645D01*
X175764Y216551D01*
X175768Y216456D01*
X175768Y216360D01*
X175764Y216265D01*
X175756Y216171D01*
X175744Y216076D01*
X175728Y215982D01*
X175708Y215889D01*
X175685Y215797D01*
X175658Y215706D01*
X175626Y215616D01*
X175592Y215528D01*
X175553Y215441D01*
X175511Y215355D01*
X175466Y215272D01*
X175417Y215190D01*
X175364Y215111D01*
X175309Y215034D01*
X175250Y214959D01*
X175188Y214887D01*
X175123Y214817D01*
X175056Y214750D01*
X174986Y214686D01*
X174913Y214625D01*
X174837Y214567D01*
X174759Y214512D01*
X174679Y214461D01*
X174597Y214413D01*
X174513Y214368D01*
X174428Y214327D01*
X174340Y214289D01*
X174251Y214255D01*
X174161Y214225D01*
X174070Y214199D01*
X173977Y214176D01*
X173884Y214158D01*
X173790Y214143D01*
X173696Y214132D01*
X173601Y214125D01*
X173506Y214122D01*
X173411Y214123D01*
X173316Y214128D01*
X173221Y214137D01*
X173127Y214150D01*
X173033Y214167D01*
X172940Y214187D01*
X172848Y214212D01*
X172758Y214240D01*
X172668Y214272D01*
X172580Y214308D01*
X172493Y214347D01*
X172408Y214390D01*
X172325Y214436D01*
X172244Y214486D01*
X172165Y214539D01*
X172089Y214596D01*
X172015Y214655D01*
X171943Y214718D01*
X171874Y214783D01*
X171808Y214851D01*
X171744Y214922D01*
X171684Y214996D01*
X171627Y215072D01*
X171573Y215150D01*
X171522Y215231D01*
X171475Y215313D01*
X171431Y215398D01*
X171391Y215484D01*
X171354Y215572D01*
X171321Y215661D01*
X171292Y215752D01*
X171267Y215843D01*
X171245Y215936D01*
X171228Y216029D01*
X171214Y216123D01*
X171204Y216218D01*
X171198Y216313D01*
X171196Y216408D01*
X149606Y216408D02*
X149608Y216503D01*
X149614Y216598D01*
X149624Y216693D01*
X149638Y216787D01*
X149655Y216880D01*
X149677Y216973D01*
X149702Y217064D01*
X149731Y217155D01*
X149764Y217244D01*
X149801Y217332D01*
X149841Y217418D01*
X149885Y217503D01*
X149932Y217585D01*
X149983Y217666D01*
X150037Y217744D01*
X150094Y217820D01*
X150154Y217894D01*
X150218Y217965D01*
X150284Y218033D01*
X150353Y218098D01*
X150425Y218161D01*
X150499Y218220D01*
X150575Y218277D01*
X150654Y218330D01*
X150735Y218380D01*
X150818Y218426D01*
X150903Y218469D01*
X150990Y218508D01*
X151078Y218544D01*
X151168Y218576D01*
X151258Y218604D01*
X151350Y218629D01*
X151443Y218649D01*
X151537Y218666D01*
X151631Y218679D01*
X151726Y218688D01*
X151821Y218693D01*
X151916Y218694D01*
X152011Y218691D01*
X152106Y218684D01*
X152200Y218673D01*
X152294Y218658D01*
X152387Y218640D01*
X152480Y218617D01*
X152571Y218591D01*
X152661Y218561D01*
X152750Y218527D01*
X152838Y218489D01*
X152923Y218448D01*
X153007Y218403D01*
X153089Y218355D01*
X153169Y218304D01*
X153247Y218249D01*
X153323Y218191D01*
X153396Y218130D01*
X153466Y218066D01*
X153533Y217999D01*
X153598Y217929D01*
X153660Y217857D01*
X153719Y217782D01*
X153774Y217705D01*
X153827Y217626D01*
X153876Y217544D01*
X153921Y217461D01*
X153963Y217375D01*
X154002Y217288D01*
X154036Y217200D01*
X154068Y217110D01*
X154095Y217019D01*
X154118Y216927D01*
X154138Y216834D01*
X154154Y216740D01*
X154166Y216645D01*
X154174Y216551D01*
X154178Y216456D01*
X154178Y216360D01*
X154174Y216265D01*
X154166Y216171D01*
X154154Y216076D01*
X154138Y215982D01*
X154118Y215889D01*
X154095Y215797D01*
X154068Y215706D01*
X154036Y215616D01*
X154002Y215528D01*
X153963Y215441D01*
X153921Y215355D01*
X153876Y215272D01*
X153827Y215190D01*
X153774Y215111D01*
X153719Y215034D01*
X153660Y214959D01*
X153598Y214887D01*
X153533Y214817D01*
X153466Y214750D01*
X153396Y214686D01*
X153323Y214625D01*
X153247Y214567D01*
X153169Y214512D01*
X153089Y214461D01*
X153007Y214413D01*
X152923Y214368D01*
X152838Y214327D01*
X152750Y214289D01*
X152661Y214255D01*
X152571Y214225D01*
X152480Y214199D01*
X152387Y214176D01*
X152294Y214158D01*
X152200Y214143D01*
X152106Y214132D01*
X152011Y214125D01*
X151916Y214122D01*
X151821Y214123D01*
X151726Y214128D01*
X151631Y214137D01*
X151537Y214150D01*
X151443Y214167D01*
X151350Y214187D01*
X151258Y214212D01*
X151168Y214240D01*
X151078Y214272D01*
X150990Y214308D01*
X150903Y214347D01*
X150818Y214390D01*
X150735Y214436D01*
X150654Y214486D01*
X150575Y214539D01*
X150499Y214596D01*
X150425Y214655D01*
X150353Y214718D01*
X150284Y214783D01*
X150218Y214851D01*
X150154Y214922D01*
X150094Y214996D01*
X150037Y215072D01*
X149983Y215150D01*
X149932Y215231D01*
X149885Y215313D01*
X149841Y215398D01*
X149801Y215484D01*
X149764Y215572D01*
X149731Y215661D01*
X149702Y215752D01*
X149677Y215843D01*
X149655Y215936D01*
X149638Y216029D01*
X149624Y216123D01*
X149614Y216218D01*
X149608Y216313D01*
X149606Y216408D01*
X126746Y216408D02*
X126748Y216503D01*
X126754Y216598D01*
X126764Y216693D01*
X126778Y216787D01*
X126795Y216880D01*
X126817Y216973D01*
X126842Y217064D01*
X126871Y217155D01*
X126904Y217244D01*
X126941Y217332D01*
X126981Y217418D01*
X127025Y217503D01*
X127072Y217585D01*
X127123Y217666D01*
X127177Y217744D01*
X127234Y217820D01*
X127294Y217894D01*
X127358Y217965D01*
X127424Y218033D01*
X127493Y218098D01*
X127565Y218161D01*
X127639Y218220D01*
X127715Y218277D01*
X127794Y218330D01*
X127875Y218380D01*
X127958Y218426D01*
X128043Y218469D01*
X128130Y218508D01*
X128218Y218544D01*
X128308Y218576D01*
X128398Y218604D01*
X128490Y218629D01*
X128583Y218649D01*
X128677Y218666D01*
X128771Y218679D01*
X128866Y218688D01*
X128961Y218693D01*
X129056Y218694D01*
X129151Y218691D01*
X129246Y218684D01*
X129340Y218673D01*
X129434Y218658D01*
X129527Y218640D01*
X129620Y218617D01*
X129711Y218591D01*
X129801Y218561D01*
X129890Y218527D01*
X129978Y218489D01*
X130063Y218448D01*
X130147Y218403D01*
X130229Y218355D01*
X130309Y218304D01*
X130387Y218249D01*
X130463Y218191D01*
X130536Y218130D01*
X130606Y218066D01*
X130673Y217999D01*
X130738Y217929D01*
X130800Y217857D01*
X130859Y217782D01*
X130914Y217705D01*
X130967Y217626D01*
X131016Y217544D01*
X131061Y217461D01*
X131103Y217375D01*
X131142Y217288D01*
X131176Y217200D01*
X131208Y217110D01*
X131235Y217019D01*
X131258Y216927D01*
X131278Y216834D01*
X131294Y216740D01*
X131306Y216645D01*
X131314Y216551D01*
X131318Y216456D01*
X131318Y216360D01*
X131314Y216265D01*
X131306Y216171D01*
X131294Y216076D01*
X131278Y215982D01*
X131258Y215889D01*
X131235Y215797D01*
X131208Y215706D01*
X131176Y215616D01*
X131142Y215528D01*
X131103Y215441D01*
X131061Y215355D01*
X131016Y215272D01*
X130967Y215190D01*
X130914Y215111D01*
X130859Y215034D01*
X130800Y214959D01*
X130738Y214887D01*
X130673Y214817D01*
X130606Y214750D01*
X130536Y214686D01*
X130463Y214625D01*
X130387Y214567D01*
X130309Y214512D01*
X130229Y214461D01*
X130147Y214413D01*
X130063Y214368D01*
X129978Y214327D01*
X129890Y214289D01*
X129801Y214255D01*
X129711Y214225D01*
X129620Y214199D01*
X129527Y214176D01*
X129434Y214158D01*
X129340Y214143D01*
X129246Y214132D01*
X129151Y214125D01*
X129056Y214122D01*
X128961Y214123D01*
X128866Y214128D01*
X128771Y214137D01*
X128677Y214150D01*
X128583Y214167D01*
X128490Y214187D01*
X128398Y214212D01*
X128308Y214240D01*
X128218Y214272D01*
X128130Y214308D01*
X128043Y214347D01*
X127958Y214390D01*
X127875Y214436D01*
X127794Y214486D01*
X127715Y214539D01*
X127639Y214596D01*
X127565Y214655D01*
X127493Y214718D01*
X127424Y214783D01*
X127358Y214851D01*
X127294Y214922D01*
X127234Y214996D01*
X127177Y215072D01*
X127123Y215150D01*
X127072Y215231D01*
X127025Y215313D01*
X126981Y215398D01*
X126941Y215484D01*
X126904Y215572D01*
X126871Y215661D01*
X126842Y215752D01*
X126817Y215843D01*
X126795Y215936D01*
X126778Y216029D01*
X126764Y216123D01*
X126754Y216218D01*
X126748Y216313D01*
X126746Y216408D01*
X138176Y248158D02*
X138178Y248253D01*
X138184Y248348D01*
X138194Y248443D01*
X138208Y248537D01*
X138225Y248630D01*
X138247Y248723D01*
X138272Y248814D01*
X138301Y248905D01*
X138334Y248994D01*
X138371Y249082D01*
X138411Y249168D01*
X138455Y249253D01*
X138502Y249335D01*
X138553Y249416D01*
X138607Y249494D01*
X138664Y249570D01*
X138724Y249644D01*
X138788Y249715D01*
X138854Y249783D01*
X138923Y249848D01*
X138995Y249911D01*
X139069Y249970D01*
X139145Y250027D01*
X139224Y250080D01*
X139305Y250130D01*
X139388Y250176D01*
X139473Y250219D01*
X139560Y250258D01*
X139648Y250294D01*
X139738Y250326D01*
X139828Y250354D01*
X139920Y250379D01*
X140013Y250399D01*
X140107Y250416D01*
X140201Y250429D01*
X140296Y250438D01*
X140391Y250443D01*
X140486Y250444D01*
X140581Y250441D01*
X140676Y250434D01*
X140770Y250423D01*
X140864Y250408D01*
X140957Y250390D01*
X141050Y250367D01*
X141141Y250341D01*
X141231Y250311D01*
X141320Y250277D01*
X141408Y250239D01*
X141493Y250198D01*
X141577Y250153D01*
X141659Y250105D01*
X141739Y250054D01*
X141817Y249999D01*
X141893Y249941D01*
X141966Y249880D01*
X142036Y249816D01*
X142103Y249749D01*
X142168Y249679D01*
X142230Y249607D01*
X142289Y249532D01*
X142344Y249455D01*
X142397Y249376D01*
X142446Y249294D01*
X142491Y249211D01*
X142533Y249125D01*
X142572Y249038D01*
X142606Y248950D01*
X142638Y248860D01*
X142665Y248769D01*
X142688Y248677D01*
X142708Y248584D01*
X142724Y248490D01*
X142736Y248395D01*
X142744Y248301D01*
X142748Y248206D01*
X142748Y248110D01*
X142744Y248015D01*
X142736Y247921D01*
X142724Y247826D01*
X142708Y247732D01*
X142688Y247639D01*
X142665Y247547D01*
X142638Y247456D01*
X142606Y247366D01*
X142572Y247278D01*
X142533Y247191D01*
X142491Y247105D01*
X142446Y247022D01*
X142397Y246940D01*
X142344Y246861D01*
X142289Y246784D01*
X142230Y246709D01*
X142168Y246637D01*
X142103Y246567D01*
X142036Y246500D01*
X141966Y246436D01*
X141893Y246375D01*
X141817Y246317D01*
X141739Y246262D01*
X141659Y246211D01*
X141577Y246163D01*
X141493Y246118D01*
X141408Y246077D01*
X141320Y246039D01*
X141231Y246005D01*
X141141Y245975D01*
X141050Y245949D01*
X140957Y245926D01*
X140864Y245908D01*
X140770Y245893D01*
X140676Y245882D01*
X140581Y245875D01*
X140486Y245872D01*
X140391Y245873D01*
X140296Y245878D01*
X140201Y245887D01*
X140107Y245900D01*
X140013Y245917D01*
X139920Y245937D01*
X139828Y245962D01*
X139738Y245990D01*
X139648Y246022D01*
X139560Y246058D01*
X139473Y246097D01*
X139388Y246140D01*
X139305Y246186D01*
X139224Y246236D01*
X139145Y246289D01*
X139069Y246346D01*
X138995Y246405D01*
X138923Y246468D01*
X138854Y246533D01*
X138788Y246601D01*
X138724Y246672D01*
X138664Y246746D01*
X138607Y246822D01*
X138553Y246900D01*
X138502Y246981D01*
X138455Y247063D01*
X138411Y247148D01*
X138371Y247234D01*
X138334Y247322D01*
X138301Y247411D01*
X138272Y247502D01*
X138247Y247593D01*
X138225Y247686D01*
X138208Y247779D01*
X138194Y247873D01*
X138184Y247968D01*
X138178Y248063D01*
X138176Y248158D01*
M02*
