<?xml version="1.0" encoding="UTF-8" standalone="no"?>
<svg
   xmlns:dc="http://purl.org/dc/elements/1.1/"
   xmlns:cc="http://creativecommons.org/ns#"
   xmlns:rdf="http://www.w3.org/1999/02/22-rdf-syntax-ns#"
   xmlns:svg="http://www.w3.org/2000/svg"
   xmlns="http://www.w3.org/2000/svg"
   xmlns:sodipodi="http://sodipodi.sourceforge.net/DTD/sodipodi-0.dtd"
   xmlns:inkscape="http://www.inkscape.org/namespaces/inkscape"
   viewBox="0 0 0.5 0.5"
   height="0.5"
   width="0.5"
   xml:space="preserve"
   id="svg2"
   version="1.1"
   sodipodi:docname="mouth2D.svg"
   inkscape:version="0.92.4 (5da689c313, 2019-01-14)"><sodipodi:namedview
     pagecolor="#949494"
     bordercolor="#000000"
     borderopacity="1"
     objecttolerance="10"
     gridtolerance="10"
     guidetolerance="10"
     inkscape:pageopacity="0"
     inkscape:pageshadow="2"
     inkscape:window-width="1800"
     inkscape:window-height="1094"
     id="namedview188"
     showgrid="false"
     inkscape:zoom="0.70710678"
     inkscape:cx="-259.65479"
     inkscape:cy="76.805907"
     inkscape:window-x="3191"
     inkscape:window-y="-9"
     inkscape:window-maximized="1"
     inkscape:current-layer="neutral"
     inkscape:snap-global="true"
     inkscape:snap-bbox="true"
     inkscape:snap-bbox-midpoints="true"
     fit-margin-top="50"
     fit-margin-left="50"
     fit-margin-right="50"
     fit-margin-bottom="50"
     inkscape:snap-page="true"
     inkscape:snap-grids="false"
     inkscape:snap-to-guides="false"
     inkscape:snap-nodes="false"
     borderlayer="true"
     inkscape:pagecheckerboard="false"
     inkscape:showpageshadow="false"
     showguides="true"
     inkscape:guide-bbox="true"><sodipodi:guide
       position="0,540"
       orientation="0,1"
       id="guide9277"
       inkscape:locked="false"
       inkscape:label=""
       inkscape:color="rgb(0,0,255)" /><sodipodi:guide
       position="0,-540"
       orientation="0,1"
       id="guide9279"
       inkscape:locked="false"
       inkscape:label=""
       inkscape:color="rgb(0,0,255)" /><sodipodi:guide
       position="960,0"
       orientation="1,0"
       id="guide9281"
       inkscape:locked="false"
       inkscape:label=""
       inkscape:color="rgb(0,0,255)" /><sodipodi:guide
       position="-920,0"
       orientation="1,0"
       id="guide9285"
       inkscape:locked="false"
       inkscape:label=""
       inkscape:color="rgb(0,0,255)" /><sodipodi:guide
       position="0,0"
       orientation="1,0"
       id="guide9291"
       inkscape:locked="false"
       inkscape:label=""
       inkscape:color="rgb(255,0,0)" /><sodipodi:guide
       position="0,0"
       orientation="0,1"
       id="guide9293"
       inkscape:locked="false"
       inkscape:label=""
       inkscape:color="rgb(255,0,0)" /></sodipodi:namedview><metadata
     id="metadata8"><rdf:RDF><cc:Work
         rdf:about=""><dc:format>image/svg+xml</dc:format><dc:type
           rdf:resource="http://purl.org/dc/dcmitype/StillImage" /><dc:title></dc:title></cc:Work></rdf:RDF></metadata><defs
     id="defs6" /><g
     id="bmp"
     transform="matrix(5.5339212,0,0,5.5339212,0,-1325.3414)"
     style="display:none"><path
       transform="translate(-425.55599,175.21795)"
       id="path80"
       style="display:inline;fill:#f03655;fill-opacity:1;fill-rule:nonzero;stroke:none;stroke-width:0.13333333"
       d="m 450.92532,52.905341 c -15.024,-0.453333 -25.40133,9.274667 -25.36666,9.26 0.0307,0.01467 -10.34534,-9.713333 -25.36934,-9.26 -14.768,-0.292 -74.26799,-1.348 -74.46133,-0.764 2.204,3.945334 9.14533,23.433333 45.22,32.690666 19.69733,5.054667 42.31067,8.350667 54.61067,8.350667 12.29733,0 34.91066,-3.296 54.60533,-8.350667 36.07733,-9.257333 43.01733,-28.745332 45.22666,-32.690666 -0.192,-0.584 -59.69733,0.472 -74.46533,0.764"
       inkscape:connector-curvature="0" /><path
       transform="translate(-425.55599,175.21795)"
       id="path82"
       style="display:inline;fill:#db1b4c;fill-opacity:1;fill-rule:nonzero;stroke:none;stroke-width:0.13333333"
       d="m 450.92532,52.905341 c -15.024,-0.453333 -25.40133,9.274667 -25.36666,9.26 0.0307,0.01467 -10.34534,-9.713333 -25.36934,-9.26 -14.768,-0.292 -74.26799,-1.348 -74.46133,-0.764 1.05067,2.029334 8.696,7.052 18.84933,12.612 5.64,0.133333 12.46134,3.102667 18.072,2.7 -6.05866,-7.586666 15.58,-4.808 23.77067,-4.4 19.13067,0.841333 21.12133,7.742667 39.13867,7.625333 18.01333,0.117334 20.00933,-6.784 39.13466,-7.625333 8.192,-0.408 29.83067,-3.186666 23.77067,4.4 5.61066,0.402667 12.436,-2.566667 18.072,-2.7 10.156,-5.56 17.8,-10.582666 18.85466,-12.612 -0.192,-0.584 -59.69733,0.472 -74.46533,0.764"
       inkscape:connector-curvature="0" /><path
       transform="translate(-425.55599,175.21795)"
       id="path84"
       style="display:inline;fill:#db1b4c;fill-opacity:1;fill-rule:nonzero;stroke:none;stroke-width:0.13333333"
       d="m 491.28932,52.226675 c 1.168,7.841333 -0.56,16.329333 -10.54267,21.542666 -17.78799,9.284 -32.43999,11.117333 -55.18799,11.18 -22.756,-0.06267 -37.404,-1.896 -55.18934,-11.18 -9.98,-5.213333 -11.70933,-13.701333 -10.54533,-21.542666 -17.664,-0.248 -33.99866,-0.390667 -34.096,-0.08533 2.204,3.945334 9.14533,23.433333 45.22,32.690666 19.69733,5.054667 42.31067,8.350667 54.61067,8.350667 12.29733,0 34.91066,-3.296 54.60533,-8.350667 36.07733,-9.257333 43.01733,-28.745332 45.22666,-32.690666 -0.10133,-0.305333 -16.43466,-0.162666 -34.10133,0.08533"
       inkscape:connector-curvature="0" /><path
       transform="translate(-425.55599,175.21795)"
       id="path86"
       style="display:inline;fill:#ff8786;fill-opacity:1;fill-rule:nonzero;stroke:none;stroke-width:0.13333333"
       d="m 432.44932,76.414674 c -0.22,-2.096 4.94134,-1.756 9.91734,-2.401333 4.52533,-0.592 8.84,-2.382667 10.5,-0.441333 1.88,2.209333 -4.16667,4.257333 -10.12134,4.955999 -5.036,0.581334 -10.036,0.206667 -10.296,-2.113333"
       inkscape:connector-curvature="0" /><path
       transform="translate(-425.55599,175.21795)"
       id="path88"
       style="display:inline;fill:#54191f;fill-opacity:1;fill-rule:nonzero;stroke:none;stroke-width:0.13333333"
       d="m 514.35465,51.861341 c -4.09466,0.28 -88.79599,3.828 -88.79599,3.828 0,0 -84.70534,-3.548 -88.796,-3.828 -17.89733,-1.213333 61.06266,14.904 88.796,14.904 27.73066,0 106.69066,-16.117333 88.79599,-14.904"
       inkscape:connector-curvature="0" /><path
       transform="translate(-425.55599,175.21795)"
       id="path90"
       style="display:inline;fill:#f03655;fill-opacity:1;fill-rule:nonzero;stroke:none;stroke-width:0.13333333"
       d="m 466.00266,33.172009 c -23.1,1.265333 -26.71334,11.375999 -40.444,11.338666 -13.72934,0.03733 -17.348,-10.073333 -40.44667,-11.338666 -18.036,-0.988 -52.532,4.113333 -62.84533,17.574666 9.988,7.877333 41.45466,4.145333 65.65333,5.321333 24.15333,1.178667 22.256,8.292 37.63867,8.06 15.38133,0.232 13.48266,-6.881333 37.636,-8.06 24.19599,-1.176 55.67066,2.556 65.65066,-5.321333 -10.308,-13.461333 -44.80533,-18.562666 -62.84266,-17.574666"
       inkscape:connector-curvature="0" /><path
       transform="translate(-425.55599,175.21795)"
       id="path92"
       style="display:inline;fill:#db1b4c;fill-opacity:1;fill-rule:nonzero;stroke:none;stroke-width:0.13333333"
       d="m 517.19865,42.176008 c -8.53333,6.181334 -29.28666,10.813333 -41.75733,9.392 -28.93866,-3.178666 -38.95466,7.442667 -49.88266,7.266667 -10.92934,0.176 -20.94934,-10.445333 -49.88667,-7.266667 -12.468,1.421333 -33.22267,-3.210666 -41.75733,-9.392 -4.97067,2.357334 -9.06667,5.202667 -11.648,8.570667 9.988,7.877333 41.45466,4.145333 65.65333,5.321333 24.15333,1.178667 22.256,8.292 37.63867,8.06 15.38133,0.232 13.48266,-6.881333 37.636,-8.06 24.19599,-1.176 55.67066,2.556 65.65066,-5.321333 -2.57867,-3.368 -6.67467,-6.213333 -11.64667,-8.570667"
       inkscape:connector-curvature="0" /><path
       transform="translate(-425.55599,175.21795)"
       id="path94"
       style="display:inline;fill:#ff8786;fill-opacity:1;fill-rule:nonzero;stroke:none;stroke-width:0.13333333"
       d="m 454.00799,44.764008 c -0.88133,-2.325333 2.41333,-4.756 7.684,-5.273333 4.85867,-0.488 11.40666,2.309333 10.13066,4.750667 -0.848,1.634666 -5.97333,-0.102667 -8.89066,0.172 -4.32533,0.388 -8.06533,2.652 -8.924,0.350666"
       inkscape:connector-curvature="0" /><path
       transform="translate(-425.55599,175.21795)"
       id="path96"
       style="display:inline;fill:#ff8786;fill-opacity:1;fill-rule:nonzero;stroke:none;stroke-width:0.13333333"
       d="m 397.87332,44.384008 c 0.78667,-2.358666 -2.61333,-4.654666 -7.92,-4.956 -4.88933,-0.284 -11.33466,2.781334 -9.96133,5.165334 0.91467,1.598666 5.98267,-0.349334 8.924,-0.193334 4.34667,0.210667 8.18667,2.318667 8.95733,-0.016"
       inkscape:connector-curvature="0" /><path
       transform="translate(-425.55599,175.21795)"
       id="path98"
       style="display:inline;fill:#ff8786;fill-opacity:1;fill-rule:nonzero;stroke:none;stroke-width:0.13333333"
       d="m 449.74799,46.614675 c -0.0267,1.054667 -0.96667,1.884 -2.1,1.856 -1.12667,-0.02533 -2.02667,-0.894667 -2.00933,-1.950667 0.02,-1.054666 0.956,-1.893333 2.09866,-1.866666 1.144,0.02667 2.04134,0.906666 2.01067,1.961333"
       inkscape:connector-curvature="0" /></g><g
     id="u"
     transform="matrix(5.5339212,0,0,5.5339212,0,-1325.3414)"
     style="display:none"><path
       transform="translate(-77.08429,12.969766)"
       id="path100"
       style="display:inline;fill:#54191f;fill-opacity:1;fill-rule:nonzero;stroke:none;stroke-width:0.13333333"
       d="m 76.271865,188.88267 c -21.002533,0 -65.026025,35.068 -65.890092,53.168 -0.8645866,18.09733 32.226626,26.57467 65.890092,26.57467 33.662535,0 66.753465,-8.47734 65.889465,-26.57467 -0.86133,-18.1 -44.887332,-53.168 -65.889465,-53.168"
       inkscape:connector-curvature="0" /><path
       transform="translate(-77.08429,12.969766)"
       id="path102"
       style="display:inline;fill:#ffffff;fill-opacity:1;fill-rule:nonzero;stroke:none;stroke-width:0.13333333"
       d="m 76.548398,201.204 -38.567199,7.172 c 14.7548,8.19467 26.785466,10.244 38.567199,10.244 11.7792,0 23.810402,-2.04933 38.565202,-10.244 l -38.565202,-7.172"
       inkscape:connector-curvature="0" /><path
       transform="translate(-77.08429,12.969766)"
       id="path104"
       style="display:inline;fill:#f03655;fill-opacity:1;fill-rule:nonzero;stroke:none;stroke-width:0.13333333"
       d="M 134.86666,205.00267 C 124.59173,186.33734 115.15,177.57334 104.59733,177.57334 c -10.554132,0 -16.940532,7.63333 -28.325465,7.63333 -11.384933,0 -17.772933,-7.63333 -28.325466,-7.63333 -10.553733,0 -19.993733,8.764 -30.268266,27.42933 C 7.4020798,223.66667 3.9328132,250.532 9.3453064,248.83334 12.955213,247.70667 17.678133,230.736 34.616132,218.86 c 13.9584,-9.78666 25.546933,-11.312 41.655733,-11.312 16.104133,0 27.695335,1.52534 41.653595,11.312 16.9412,11.876 21.6612,28.84667 25.27187,29.97334 5.41467,1.69866 1.94133,-25.16667 -8.33067,-43.83067"
       inkscape:connector-curvature="0" /><path
       transform="translate(-77.08429,12.969766)"
       id="path106"
       style="display:inline;fill:#db1b4c;fill-opacity:1;fill-rule:nonzero;stroke:none;stroke-width:0.13333333"
       d="m 141.87333,221.88 c -1.26933,9.98667 -10.77027,0.76267 -13.4108,-1.68533 -8.6896,-8.04267 -13.35987,-15.88 -25.6928,-19.28533 -9.062932,-2.50267 -15.328532,1.608 -26.497865,1.608 -11.1692,0 -17.4364,-4.11067 -26.4964,-1.608 -12.336933,3.40533 -17.004666,11.24266 -25.693732,19.28533 -2.642667,2.448 -12.14528,11.672 -13.410893,1.68533 C 6.1520798,236.52134 5.4541732,250.052 9.3453064,248.83334 12.955213,247.70667 17.678133,230.736 34.616132,218.86 c 13.9584,-9.78666 25.546933,-11.312 41.655733,-11.312 16.104133,0 27.695335,1.52534 41.653595,11.312 16.9412,11.876 21.6612,28.84667 25.27187,29.97334 3.89067,1.21866 3.18933,-12.312 -1.324,-26.95334"
       inkscape:connector-curvature="0" /><path
       transform="translate(-77.08429,12.969766)"
       id="path108"
       style="display:inline;fill:#ff8786;fill-opacity:1;fill-rule:nonzero;stroke:none;stroke-width:0.13333333"
       d="m 73.725465,273.072 c 0.398533,-3.308 7.2292,-1.89733 12.013066,-2.312 5.252133,-0.45866 11.859867,-4.128 12.436933,-0.404 0.6724,4.344 -6.926,5.92667 -11.4296,6.34 -3.756799,0.33467 -13.530266,0.604 -13.020399,-3.624"
       inkscape:connector-curvature="0" /><path
       transform="translate(-77.08429,12.969766)"
       id="path110"
       style="display:inline;fill:#ff8786;fill-opacity:1;fill-rule:nonzero;stroke:none;stroke-width:0.13333333"
       d="m 97.420798,187.47067 c 0.531333,-1.908 4.800002,-2.348 9.756262,-0.84933 4.55934,1.37733 8.94747,5.524 6.5188,6.78533 -1.6396,0.852 -5.35,-2.12 -8.10733,-2.96667 -4.08547,-1.25866 -8.689066,-1.08533 -8.167732,-2.96933"
       inkscape:connector-curvature="0" /><path
       transform="translate(-77.08429,12.969766)"
       id="path112"
       style="display:inline;fill:#ff8786;fill-opacity:1;fill-rule:nonzero;stroke:none;stroke-width:0.13333333"
       d="m 56.485999,187.96667 c -0.531867,-1.91067 -4.8016,-2.348 -9.757334,-0.84933 -4.560399,1.37866 -8.945866,5.52266 -6.514666,6.784 1.636,0.85066 5.348,-2.11734 8.1068,-2.96667 4.081866,-1.25467 8.6896,-1.084 8.1652,-2.968"
       inkscape:connector-curvature="0" /><path
       transform="translate(-77.08429,12.969766)"
       id="path114"
       style="display:inline;fill:#ff8786;fill-opacity:1;fill-rule:nonzero;stroke:none;stroke-width:0.13333333"
       d="m 92.145331,187.14134 c -0.924,0.28933 -1.754133,0.76666 -2.2552,1.61733 -0.474533,0.80667 -0.06507,2.05333 0.916667,2.24667 0.414533,0.0867 1.921866,-0.18134 2.309866,-0.33734 2.820267,-1.148 1.314,-4.23866 -0.971333,-3.52666"
       inkscape:connector-curvature="0" /><path
       transform="translate(-77.08429,12.969766)"
       id="path116"
       style="display:inline;fill:#d52631;fill-opacity:1;fill-rule:nonzero;stroke:none;stroke-width:0.13333333"
       d="m 76.271865,250.75467 c -24.042133,-8.06 -46.942666,4.80933 -51.682266,7.636 0,0 33.1896,11.02933 51.682266,11.02933 18.489599,0 51.680265,-11.02933 51.680265,-11.02933 -4.7428,-2.82667 -27.6412,-15.696 -51.680265,-7.636"
       inkscape:connector-curvature="0" /><path
       transform="translate(-77.08429,12.969766)"
       id="path118"
       style="display:inline;fill:#b3222a;fill-opacity:1;fill-rule:nonzero;stroke:none;stroke-width:0.13333333"
       d="m 52.448399,260.79467 c -2.183867,-2.87333 -4.267734,-7.55467 -3.014,-11.70667 -12.424533,2.192 -21.9724,7.58667 -24.8448,9.30267 0,0 20.388533,6.77733 38.112533,9.70267 -3.7896,-1.708 -7.698533,-3.93467 -10.253733,-7.29867"
       inkscape:connector-curvature="0" /><path
       transform="translate(-77.08429,12.969766)"
       id="path120"
       style="display:inline;fill:#b3222a;fill-opacity:1;fill-rule:nonzero;stroke:none;stroke-width:0.13333333"
       d="m 100.0932,260.79467 c 2.18386,-2.87333 4.26986,-7.55467 3.01666,-11.70667 12.4204,2.192 21.96987,7.58667 24.84227,9.30267 0,0 -20.39067,6.77733 -38.111999,9.70267 3.7896,-1.708 7.697867,-3.93467 10.253069,-7.29867"
       inkscape:connector-curvature="0" /><path
       transform="translate(-77.08429,12.969766)"
       id="path122"
       style="display:inline;fill:#e9423d;fill-opacity:1;fill-rule:nonzero;stroke:none;stroke-width:0.13333333"
       d="m 90.518798,254.52667 c -1.319334,-1.53067 -5.378667,-0.97867 -7.698,-0.33467 -1.630133,0.44934 -3.1796,1.03067 -4.801467,1.48934 -2.169333,0.604 -5.394799,-0.63334 -7.441733,-1.16934 -1.456266,-0.37733 -9.347866,-1.70933 -8.687466,1.26934 0.633866,2.868 9.375466,5.26266 14.525466,5.15333 6.4068,-0.13467 16.714133,-3.39067 14.1032,-6.408"
       inkscape:connector-curvature="0" /><path
       transform="translate(-77.08429,12.969766)"
       id="path124"
       style="display:inline;fill:#f03655;fill-opacity:1;fill-rule:nonzero;stroke:none;stroke-width:0.13333333"
       d="m 144.892,245.44267 c -2.58667,-0.548 -13.3508,7.80667 -28.68,12.16133 -13.938,3.95734 -28.680269,4.24134 -39.940135,4.24134 -11.257867,0 -26.0016,-0.284 -39.942133,-4.24134 C 21.001066,253.24934 10.237506,244.89467 7.6494798,245.44267 6.3093732,245.72534 5.7713599,256.756 16.762533,268.916 c 16.626533,18.39067 43.694799,19.79467 59.509332,19.79467 15.816133,0 42.883865,-1.404 59.508135,-19.79467 10.98933,-12.16 10.45466,-23.19066 9.112,-23.47333"
       inkscape:connector-curvature="0" /><path
       transform="translate(-77.08429,12.969766)"
       id="path126"
       style="display:inline;fill:#db1b4c;fill-opacity:1;fill-rule:nonzero;stroke:none;stroke-width:0.13333333"
       d="m 144.892,245.44267 c -1.95467,-0.41333 -8.57734,4.25067 -18.30707,8.43467 1.91813,1.42533 3.19267,3.51333 3.3948,6.556 0.4848,7.31866 -10.4344,12.54133 -15.56987,15.06133 -11.6536,5.72667 -24.564529,6.56 -38.137995,6.56 -13.574533,0 -26.483866,-0.83333 -38.136933,-6.56 -5.138533,-2.52 -16.057333,-7.74267 -15.571866,-15.06133 0.200933,-3.04267 1.478133,-5.13067 3.395733,-6.556 -9.730666,-4.184 -16.3556792,-8.848 -18.3093192,-8.43467 -1.3401066,0.28267 -1.8781199,11.31333 9.1130532,23.47333 16.626533,18.39067 43.694799,19.79467 59.509332,19.79467 15.816133,0 42.883865,-1.404 59.508135,-19.79467 10.98933,-12.16 10.45466,-23.19066 9.112,-23.47333"
       inkscape:connector-curvature="0" /><path
       transform="translate(-77.08429,12.969766)"
       id="path128"
       style="display:inline;fill:#ff8786;fill-opacity:1;fill-rule:nonzero;stroke:none;stroke-width:0.13333333"
       d="m 61.613598,271.408 c 0.365067,-3.16266 8.616667,-1.54933 14.344267,-1.71866 6.288,-0.20267 14.100533,-3.304 14.917599,0.26533 0.9464,4.14667 -8.119733,5.25467 -13.511866,5.452 -4.498,0.148 -16.218266,0.0267 -15.75,-3.99867"
       inkscape:connector-curvature="0" /></g><g
     id="fv"
     transform="matrix(5.5339212,0,0,5.5339212,0,-1325.3414)"
     style="display:none"><path
       transform="translate(-253.27402,-10.519823)"
       id="path130"
       style="display:inline;fill:#54191f;fill-opacity:1;fill-rule:nonzero;stroke:none;stroke-width:0.13333333"
       d="m 253.98933,215.44534 c 0,0 -92.21333,1.25066 -88.964,3.772 3.24933,2.52133 14.62,12.888 19.81867,16.97333 l 69.14533,24.204 69.144,-24.204 c 5.20133,-4.08533 16.57066,-14.452 19.81866,-16.97333 3.24933,-2.52134 -88.96266,-3.772 -88.96266,-3.772"
       inkscape:connector-curvature="0" /><path
       transform="translate(-253.27402,-10.519823)"
       id="path132"
       style="display:inline;fill:#ffffff;fill-opacity:1;fill-rule:nonzero;stroke:none;stroke-width:0.13333333"
       d="m 255.22666,217.552 c -27.34933,-0.37866 -54.69867,-0.5 -82.048,-0.51466 -0.628,0.68 -1.25733,1.35333 -1.88,2.07866 -3.68266,4.28 22.75867,17.69067 30.89733,11.00534 2.21867,8.91333 39.58667,12.94 51.79334,12.94 12.20533,0 49.57466,-4.02667 51.79333,-12.94 7.85067,6.44933 33.38933,-5.47334 31.88933,-10.17067 -27.47733,-0.348 -54.956,-2.01733 -82.44533,-2.39867"
       inkscape:connector-curvature="0" /><path
       transform="translate(-253.27402,-10.519823)"
       id="path134"
       style="display:inline;fill:#f03655;fill-opacity:1;fill-rule:nonzero;stroke:none;stroke-width:0.13333333"
       d="m 287.28933,197.024 c -23.20534,1.80134 -21.25334,8.28534 -33.3,7.97067 -12.04667,0.31467 -10.096,-6.16933 -33.30134,-7.97067 -21.67733,-1.684 -62.72933,15.74134 -58.91199,20.84934 8.624,11.53466 41.87066,6.23066 55.15866,5.66666 25.04533,-1.05733 24.68933,6.836 37.05467,6.836 12.36266,0 12.008,-7.89333 37.05466,-6.836 13.288,0.564 46.53467,5.868 55.15733,-5.66666 3.81734,-5.108 -37.23466,-22.53334 -58.91199,-20.84934"
       inkscape:connector-curvature="0" /><path
       transform="translate(-253.27402,-10.519823)"
       id="path136"
       style="display:inline;fill:#db1b4c;fill-opacity:1;fill-rule:nonzero;stroke:none;stroke-width:0.13333333"
       d="m 340.01866,211.23467 c -7.39467,5.76267 -15.544,9.36933 -32.34933,7.14133 -31.95067,-4.23466 -38.912,4.744 -53.68,4.744 -14.768,0 -21.72934,-8.97866 -53.68,-4.744 -16.80533,2.228 -24.95733,-1.37866 -32.35067,-7.14133 -4.70933,2.728 -7.26933,5.18267 -6.18266,6.63867 8.624,11.53466 41.87066,6.23066 55.15866,5.66666 25.04533,-1.05733 24.68933,6.836 37.05467,6.836 12.36266,0 12.008,-7.89333 37.05466,-6.836 13.288,0.564 46.53467,5.868 55.15733,-5.66666 1.08667,-1.456 -1.47333,-3.91067 -6.18266,-6.63867"
       inkscape:connector-curvature="0" /><path
       transform="translate(-253.27402,-10.519823)"
       id="path138"
       style="display:inline;fill:#f03655;fill-opacity:1;fill-rule:nonzero;stroke:none;stroke-width:0.13333333"
       d="m 305.68133,236.536 c -20.15467,11.448 -39.81734,10.988 -51.692,10.89867 -11.87467,0.0893 -31.53867,0.54933 -51.69334,-10.89867 -18.96666,-10.884 -36.60266,-17.98266 -35.89333,-15.31333 4.284,16.14667 17.664,35.94 37.512,45.54667 18.988,9.18533 39.316,5.01733 50.07467,4.97466 10.75866,0.0427 31.08666,4.21067 50.07333,-4.97466 19.848,-9.60667 33.22666,-29.4 37.51333,-45.54667 0.70933,-2.66933 -16.928,4.42933 -35.89466,15.31333"
       inkscape:connector-curvature="0" /><path
       transform="translate(-253.27402,-10.519823)"
       id="path140"
       style="display:inline;fill:#db1b4c;fill-opacity:1;fill-rule:nonzero;stroke:none;stroke-width:0.13333333"
       d="m 308.85733,234.74534 c -3.008,11.27066 -19.904,29.99733 -54.868,30.236 -34.96534,-0.23867 -51.86134,-18.96534 -54.86933,-30.236 -17.71067,-9.85734 -33.38667,-16.04267 -32.71734,-13.52267 4.284,16.14667 17.664,35.94 37.512,45.54667 18.988,9.18533 39.316,5.01733 50.07467,4.97466 10.75866,0.0427 31.08666,4.21067 50.07333,-4.97466 19.848,-9.60667 33.22666,-29.4 37.51333,-45.54667 0.668,-2.52 -15.008,3.66533 -32.71866,13.52267"
       inkscape:connector-curvature="0" /><path
       transform="translate(-253.27402,-10.519823)"
       id="path142"
       style="display:inline;fill:#ff8786;fill-opacity:1;fill-rule:nonzero;stroke:none;stroke-width:0.13333333"
       d="m 252.15199,255.336 c 0.36534,-3.16 8.616,-1.55066 14.344,-1.716 6.288,-0.20266 14.1,-3.304 14.91734,0.26534 0.948,4.14666 -8.11867,5.25733 -13.512,5.452 -4.496,0.14666 -16.21734,0.0293 -15.74934,-4.00134"
       inkscape:connector-curvature="0" /><path
       transform="translate(-253.27402,-10.519823)"
       id="path144"
       style="display:inline;fill:#ff8786;fill-opacity:1;fill-rule:nonzero;stroke:none;stroke-width:0.13333333"
       d="m 282.73333,207.11867 c -0.60267,-2.74133 3.29866,-5.04667 9.00533,-5.06133 5.25067,-0.0173 11.956,3.71066 10.32933,6.36133 -1.096,1.788 -6.45466,-0.65067 -9.63733,-0.66 -4.716,-0.0147 -9.10267,2.06933 -9.69733,-0.64"
       inkscape:connector-curvature="0" /><path
       transform="translate(-253.27402,-10.519823)"
       id="path146"
       style="display:inline;fill:#ff8786;fill-opacity:1;fill-rule:nonzero;stroke:none;stroke-width:0.13333333"
       d="m 231.47866,207.868 c 1.372,-2.67866 -2.608,-5.47866 -9.25467,-6.20266 -6.112,-0.67067 -14.832,2.24 -13.584,5.10533 0.84,1.932 7.67734,0.148 11.38667,0.53467 5.49733,0.572 10.09867,3.21066 11.452,0.56266"
       inkscape:connector-curvature="0" /><path
       transform="translate(-253.27402,-10.519823)"
       id="path148"
       style="display:inline;fill:#ff8786;fill-opacity:1;fill-rule:nonzero;stroke:none;stroke-width:0.13333333"
       d="m 278.77333,209.064 c -0.196,1.18667 -1.34667,1.99467 -2.576,1.80267 -1.224,-0.188 -2.05734,-1.304 -1.86267,-2.49067 0.196,-1.184 1.34933,-1.99333 2.57467,-1.80266 1.228,0.188 2.06133,1.30533 1.864,2.49066"
       inkscape:connector-curvature="0" /></g><g
     id="r"
     transform="matrix(5.5339212,0,0,5.5339212,0,-1325.3414)"
     style="display:none"><path
       transform="translate(-240.65438,-181.66749)"
       id="path150"
       style="display:inline;fill:#54191f;fill-opacity:1;fill-rule:nonzero;stroke:none;stroke-width:0.13333333"
       d="m 163.91066,421.46533 c -3.57866,-8.9136 28.87334,-42.1984 57.11333,-43.15213 28.24134,-0.95053 67.584,0 82.18267,17.13493 14.59333,17.13067 21.892,28.87347 8.88267,39.02494 C 299.07999,444.62786 181.36,464.9388 163.91066,421.46533"
       inkscape:connector-curvature="0" /><path
       transform="translate(-240.65438,-181.66749)"
       id="path152"
       style="display:inline;fill:#ffffff;fill-opacity:1;fill-rule:nonzero;stroke:none;stroke-width:0.13333333"
       d="m 308.98266,421.63307 c -4.18533,0.50146 -49.384,1.00933 -69.05333,1.00933 -19.66934,0 -64.86667,-0.50787 -69.05333,-1.00933 -4.184,-0.50894 12.48533,32.73746 69.05333,31.80146 57.416,-0.95467 73.23866,-32.3104 69.05333,-31.80146"
       inkscape:connector-curvature="0" /><path
       transform="translate(-240.65438,-181.66749)"
       id="path154"
       style="display:inline;fill:#ffffff;fill-opacity:1;fill-rule:nonzero;stroke:none;stroke-width:0.13333333"
       d="m 317.21066,403.89347 c -15.12267,-34.10814 -62.452,-20.14014 -77.268,-20.14014 -14.81867,0 -62.148,-13.968 -77.27066,20.14014 -2.03334,4.5864 11.192,4.54626 15.424,1.94786 4.23466,8.76774 15.724,3.8984 18.44933,1.29747 4.83866,7.7984 30.39333,6.49733 43.39733,6.49733 13.004,0 38.556,1.30107 43.396,-6.49733 2.72133,2.60093 14.212,7.47027 18.44667,-1.29747 4.23333,2.5984 17.46,2.63854 15.42533,-1.94786"
       inkscape:connector-curvature="0" /><path
       transform="translate(-240.65438,-181.66749)"
       id="path156"
       style="display:inline;fill:#f03655;fill-opacity:1;fill-rule:nonzero;stroke:none;stroke-width:0.13333333"
       d="m 324.50533,417.2148 c -14.01334,-6.69213 -17.52667,10.58907 -36.29467,15.59067 -17.06267,4.54626 -33.776,6.82386 -47.55467,6.82386 -13.78133,0 -30.49066,-2.2776 -47.55599,-6.82386 -18.76934,-5.0016 -22.27867,-22.2828 -36.29334,-15.59067 -6.12266,2.924 -2.792,17.2156 10.66267,31.17973 20.348,21.1296 53.82533,22.09627 73.18666,22.09627 19.36,0 52.83334,-0.96667 73.188,-22.09627 13.44934,-13.96413 16.78267,-28.25573 10.66134,-31.17973"
       inkscape:connector-curvature="0" /><path
       transform="translate(-240.65438,-181.66749)"
       id="path158"
       style="display:inline;fill:#db1b4c;fill-opacity:1;fill-rule:nonzero;stroke:none;stroke-width:0.13333333"
       d="m 324.50533,417.2148 c -8.712,-4.15733 -13.364,0.94267 -20.14534,6.6052 12.35467,16.94373 -4.88266,27.66666 -12.896,31.2812 -11.68533,5.26826 -33.42133,9.56146 -50.808,9.56146 -17.38933,0 -39.12533,-4.2932 -50.80933,-9.56146 -8.012,-3.61454 -25.25066,-14.33747 -12.89333,-31.2812 -6.78133,-5.66253 -11.43333,-10.76253 -20.14667,-6.6052 -6.12266,2.924 -2.792,17.2156 10.66267,31.17973 20.348,21.1296 53.82533,22.09627 73.18666,22.09627 19.36,0 52.83334,-0.96667 73.188,-22.09627 13.44934,-13.96413 16.78267,-28.25573 10.66134,-31.17973"
       inkscape:connector-curvature="0" /><path
       transform="translate(-240.65438,-181.66749)"
       id="path160"
       style="display:inline;fill:#f03655;fill-opacity:1;fill-rule:nonzero;stroke:none;stroke-width:0.13333333"
       d="m 314.29599,392.69347 c -16.33066,-22.73614 -26.91466,-32.16014 -38.40666,-32.16014 -11.492,0 -22.83467,8.77067 -35.23334,8.77067 -12.40133,0 -23.74133,-8.77067 -35.232,-8.77067 -11.49333,0 -22.07866,9.424 -38.41199,32.16014 -13.97734,19.45306 -17.26534,30.69586 -11.18667,29.5572 12.09467,-2.27854 21.17067,-10.07334 41.736,-24.3656 15.49066,-10.76667 25.55333,1.30426 43.09466,1.30426 17.53867,0 27.60134,-12.07093 43.096,-1.30426 20.56534,14.29226 29.63867,22.08706 41.736,24.3656 6.07467,1.13866 2.78534,-10.10414 -11.192,-29.5572"
       inkscape:connector-curvature="0" /><path
       transform="translate(-240.65438,-181.66749)"
       id="path162"
       style="display:inline;fill:#db1b4c;fill-opacity:1;fill-rule:nonzero;stroke:none;stroke-width:0.13333333"
       d="m 318.27733,398.46013 c 0,17.6172 -27.48267,-5.96933 -32.65334,-9.548 -19.41733,-13.43213 -33.62933,2.85054 -44.968,2.85054 -11.33866,0 -25.55466,-16.28267 -44.96799,-2.85054 -5.17334,3.57867 -32.65334,27.1652 -32.65334,9.548 -10.55333,15.86667 -12.65466,24.81294 -7.20933,23.79054 12.09467,-2.27854 21.17067,-10.07334 41.736,-24.3656 15.49066,-10.76667 25.55333,1.30426 43.09466,1.30426 17.53867,0 27.60134,-12.07093 43.096,-1.30426 20.56534,14.29226 29.63867,22.08706 41.736,24.3656 5.444,1.0224 3.34134,-7.92387 -7.21066,-23.79054"
       inkscape:connector-curvature="0" /><path
       transform="translate(-240.65438,-181.66749)"
       id="path164"
       style="display:inline;fill:#ff8786;fill-opacity:1;fill-rule:nonzero;stroke:none;stroke-width:0.13333333"
       d="m 260.37066,373.39333 c 0.35867,-2.77466 7.04933,-4.94666 13.372,-4.30933 5.01467,0.50133 9.77867,3.18933 11.11333,5.74 1.504,2.8788 -4.68266,0.91333 -12.40533,0.052 -6.56267,-0.73333 -12.48133,1.6732 -12.08,-1.48267"
       inkscape:connector-curvature="0" /><path
       transform="translate(-240.65438,-181.66749)"
       id="path166"
       style="display:inline;fill:#ff8786;fill-opacity:1;fill-rule:nonzero;stroke:none;stroke-width:0.13333333"
       d="m 196.636,371.07067 c 0.35866,-2.77467 7.04799,-4.94667 13.37199,-4.31067 5.01334,0.50133 9.77867,3.19067 11.11334,5.74 1.504,2.88 -4.684,0.91467 -12.40667,0.052 -6.56267,-0.72933 -12.48133,1.672 -12.07866,-1.48133"
       inkscape:connector-curvature="0" /><path
       transform="translate(-240.65438,-181.66749)"
       id="path168"
       style="display:inline;fill:#ff8786;fill-opacity:1;fill-rule:nonzero;stroke:none;stroke-width:0.13333333"
       d="m 256.35466,375.824 c -0.216,-0.92667 -1.35733,-1.808 -2.37867,-1.45867 -0.98933,0.34134 -1.91466,0.85334 -2.54,1.6708 -1.26666,1.72134 0.25467,3.34787 1.53467,2.9156 0.80533,-0.27866 1.62,-0.5984 2.368,-1.00933 0.776,-0.42653 1.21733,-1.25467 1.016,-2.1184"
       inkscape:connector-curvature="0" /><path
       transform="translate(-240.65438,-181.66749)"
       id="path170"
       style="display:inline;fill:#ff8786;fill-opacity:1;fill-rule:nonzero;stroke:none;stroke-width:0.13333333"
       d="m 239.12266,449.29186 c 0.476,-3.79586 10.56267,-1.95213 17.588,-2.26666 7.70933,-0.35214 17.30267,-4.36774 18.27333,-0.0599 1.13467,5.02813 -9.988,6.59733 -16.59733,6.91973 -5.516,0.26827 -19.87467,0.25894 -19.264,-4.5932"
       inkscape:connector-curvature="0" /></g><g
     id="shchj"
     transform="matrix(5.5339212,0,0,5.5339212,0,-1325.3414)"
     style="display:none"><path
       transform="translate(-646.82537,-188.11801)"
       id="path172"
       style="display:inline;fill:#54191f;fill-opacity:1;fill-rule:nonzero;stroke:none;stroke-width:0.13333333"
       d="m 570.17865,425.39187 c -5.90933,-20.26147 33.46133,-44.78547 55.084,-44.2692 21.62267,0.51346 48.39067,-7.72934 64.86533,3.0864 16.47467,10.81613 35.52,27.28546 31.40134,40.66826 -4.11867,13.39214 -43.75734,34.4948 -87.516,28.31613 -43.76133,-6.17346 -60.23467,-15.44279 -63.83467,-27.80159"
       inkscape:connector-curvature="0" /><path
       transform="translate(-646.82537,-188.11801)"
       id="path174"
       style="display:inline;fill:#ffffff;fill-opacity:1;fill-rule:nonzero;stroke:none;stroke-width:0.13333333"
       d="m 715.41998,427.54653 c -4.24933,0.54694 -50.14,1.0948 -70.11466,1.0948 -19.97067,0 -65.86,-0.54786 -70.11067,-1.0948 -4.25066,-0.552 12.67467,35.66667 70.11067,34.64693 58.296,-1.036 74.364,-35.19893 70.11466,-34.64693"
       inkscape:connector-curvature="0" /><path
       transform="translate(-646.82537,-188.11801)"
       id="path176"
       style="display:inline;fill:#ffffff;fill-opacity:1;fill-rule:nonzero;stroke:none;stroke-width:0.13333333"
       d="m 720.02265,410.0336 c -14.616,-36.89093 -60.38,-21.78547 -74.70267,-21.78547 -14.32666,0 -60.08666,-15.10546 -74.70533,21.78547 -1.97066,4.9624 10.81867,4.91707 14.90934,2.1036 4.09866,9.488 15.20666,4.22027 17.83733,1.40827 4.676,8.43186 29.384,7.02506 41.95866,7.02506 12.572,0 37.27734,1.4068 41.95467,-7.02506 2.63333,2.812 13.74,8.07973 17.83733,-1.40827 4.092,2.81347 16.884,2.8588 14.91067,-2.1036"
       inkscape:connector-curvature="0" /><path
       transform="translate(-646.82537,-188.11801)"
       id="path178"
       style="display:inline;fill:#f03655;fill-opacity:1;fill-rule:nonzero;stroke:none;stroke-width:0.13333333"
       d="m 726.04398,423.808 c -11.94266,-9.05467 -19.004,8.44533 -36.70266,10.91987 -16.27734,2.48693 -31.47067,3.71453 -44.02134,3.7656 -12.55466,-0.0511 -27.74666,-1.27867 -44.01866,-3.7656 -17.70533,-2.47454 -24.75867,-19.97454 -36.71333,-10.91987 -5.208,4.08387 2.02533,19.32813 16.45733,30.91466 21.55733,16.86667 47.92933,12.35467 64.27466,13.16507 16.34267,-0.8104 42.716,3.70413 64.27467,-13.16507 14.43067,-11.59066 21.66533,-26.83079 16.44933,-30.91466"
       inkscape:connector-curvature="0" /><path
       transform="translate(-646.82537,-188.11801)"
       id="path180"
       style="display:inline;fill:#db1b4c;fill-opacity:1;fill-rule:nonzero;stroke:none;stroke-width:0.13333333"
       d="m 726.04398,423.808 c -7.33333,-5.77187 -13.03066,-0.8932 -20.34266,3.9188 8.13866,19.4104 -9.416,27.42386 -16.45334,29.58906 -10.772,3.23067 -29.30666,4.8348 -43.928,5.02654 -14.62666,-0.19174 -33.15866,-1.79587 -43.92933,-5.02654 -7.04133,-2.1652 -24.59333,-10.17866 -16.456,-29.58906 -7.31066,-4.81467 -13.004,-9.69067 -20.34666,-3.9188 -5.208,4.08387 2.02533,19.32813 16.45733,30.91466 21.55733,16.86667 47.92933,12.35467 64.27466,13.16507 16.34267,-0.8104 42.716,3.70413 64.27467,-13.16507 14.43067,-11.59066 21.66533,-26.83079 16.44933,-30.91466"
       inkscape:connector-curvature="0" /><path
       transform="translate(-646.82537,-188.11801)"
       id="path182"
       style="display:inline;fill:#f03655;fill-opacity:1;fill-rule:nonzero;stroke:none;stroke-width:0.13333333"
       d="m 721.34665,396.68933 c -12.29333,-24.80533 -23.748,-33.404 -36.51333,-33.556 -13.01067,0.04 -26.02,8.38134 -39.51334,8.36 -13.496,0.0213 -26.508,-8.32 -39.51466,-8.36 -12.76533,0.152 -24.22533,8.75067 -36.516,33.556 -10.168,21.59894 -9.58267,35.21974 -4.43067,32.68014 10.85067,-4.4468 17.36934,-14.2016 36.476,-29.4844 14.83467,-11.2276 26.404,0.2136 43.98533,0.0776 17.57467,0.13333 29.15067,-11.3052 43.98,-0.0776 19.11334,15.2828 25.63334,25.0376 36.48,29.4844 5.15334,2.5396 5.732,-11.0812 -4.43333,-32.68014"
       inkscape:connector-curvature="0" /><path
       transform="translate(-646.82537,-188.11801)"
       id="path184"
       style="display:inline;fill:#db1b4c;fill-opacity:1;fill-rule:nonzero;stroke:none;stroke-width:0.13333333"
       d="m 724.18265,403.09187 c -3.46533,18.16413 -26.24667,-8.82494 -31.884,-11.95987 -19.13867,-13.8188 -35.63067,1.87867 -46.97867,1.7588 -11.348,0.11987 -27.84,-15.5776 -46.98266,-1.7588 -5.63467,3.13493 -28.42,30.124 -31.884,11.95987 -7.064,17.9016 -6.268,28.5 -1.59467,26.2776 10.85067,-4.4468 17.36934,-14.2016 36.476,-29.4844 14.83467,-11.2276 26.404,0.2136 43.98533,0.0776 17.57467,0.13333 29.15067,-11.3052 43.98,-0.0776 19.11334,15.2828 25.63334,25.0376 36.48,29.4844 4.67067,2.2224 5.464,-8.37867 -1.59733,-26.2776"
       inkscape:connector-curvature="0" /><path
       transform="translate(-646.82537,-188.11801)"
       id="path186"
       style="display:inline;fill:#ff8786;fill-opacity:1;fill-rule:nonzero;stroke:none;stroke-width:0.13333333"
       d="m 666.75332,375.47067 c 0.51333,-2.652 8.00266,-4.70267 14.90933,-4.032 5.47867,0.52 10.39467,3.23333 11.51733,5.77453 1.27867,2.87613 -5.136,0.77347 -13.42533,-0.1744 -7.06667,-0.80267 -13.60667,1.452 -13.00133,-1.56813"
       inkscape:connector-curvature="0" /><path
       transform="translate(-646.82537,-188.11801)"
       id="path188"
       style="display:inline;fill:#ff8786;fill-opacity:1;fill-rule:nonzero;stroke:none;stroke-width:0.13333333"
       d="m 599.40399,373.924 c 0.51466,-2.65467 8.00399,-4.70667 14.91066,-4.03333 5.47867,0.52133 10.39467,3.23466 11.51867,5.772 1.27733,2.87973 -5.13734,0.77453 -13.42667,-0.17067 -7.06533,-0.80267 -13.60666,1.4504 -13.00266,-1.568"
       inkscape:connector-curvature="0" /><path
       transform="translate(-646.82537,-188.11801)"
       id="path190"
       style="display:inline;fill:#ff8786;fill-opacity:1;fill-rule:nonzero;stroke:none;stroke-width:0.13333333"
       d="m 662.28265,377.76947 c -0.19333,-0.888 -1.396,-1.74267 -2.52133,-1.41614 -1.08,0.31454 -2.09867,0.8052 -2.79867,1.5812 -1.412,1.636 0.18133,3.1948 1.56,2.79227 0.87867,-0.25733 1.764,-0.55733 2.58,-0.948 0.85467,-0.39733 1.36267,-1.18173 1.18,-2.00933"
       inkscape:connector-curvature="0" /><path
       transform="translate(-646.82537,-188.11801)"
       id="path192"
       style="display:inline;fill:#ff8786;fill-opacity:1;fill-rule:nonzero;stroke:none;stroke-width:0.13333333"
       d="m 643.96132,447.7028 c 0.40933,-3.6484 9.412,-1.86667 15.656,-1.7948 6.828,0 15.74933,-3.02654 16.22,1.27453 0.50133,4.988 -9.30134,5.3776 -15.05867,5.3828 -4.81467,-0.16253 -17.29867,-0.31987 -16.81733,-4.86253"
       inkscape:connector-curvature="0" /></g><g
     id="ee"
     transform="matrix(5.5339212,0,0,5.5339212,0,-1325.3414)"
     style="display:none"><path
       transform="translate(-644.6038,-1.844074)"
       id="path194"
       style="display:inline;fill:#54191f;fill-opacity:1;fill-rule:nonzero;stroke:none;stroke-width:0.13333333"
       d="m 670.95598,206.916 c -18.40533,0.72267 -25.63866,5.55867 -25.63866,5.55867 0,0 -7.228,-4.836 -25.636,-5.55867 -18.40534,-0.72666 -49.35867,5.98134 -56.696,6.88534 16.364,34.332 82.332,46.23866 82.332,46.23866 0,0 65.97466,-11.90666 82.33466,-46.23866 -7.33066,-0.904 -38.288,-7.612 -56.696,-6.88534"
       inkscape:connector-curvature="0" /><path
       transform="translate(-644.6038,-1.844074)"
       id="path196"
       style="display:inline;fill:#ffffff;fill-opacity:1;fill-rule:nonzero;stroke:none;stroke-width:0.13333333"
       d="m 705.48265,235.024 c -3.62,0.37467 -42.71467,0.75067 -59.72667,0.75067 -17.008,0 -56.10533,-0.376 -59.72533,-0.75067 -3.61866,-0.376 10.796,24.36534 59.72533,23.668 49.66,-0.70666 63.344,-24.044 59.72667,-23.668"
       inkscape:connector-curvature="0" /><path
       transform="translate(-644.6038,-1.844074)"
       id="path198"
       style="display:inline;fill:#ffffff;fill-opacity:1;fill-rule:nonzero;stroke:none;stroke-width:0.13333333"
       d="m 719.65065,210.26534 c -10.00533,-11.44134 -73.888,1.99466 -73.888,1.99466 0,0 -63.87733,-13.436 -73.88133,-1.99466 -2.98,3.408 7.63467,11.24 15.76267,13.236 8.128,1.99333 9.60266,-0.18 9.60266,-0.18 0,0 17.98133,9.428 48.516,9.428 30.54133,0 48.52133,-9.428 48.52133,-9.428 0,0 1.47334,2.17333 9.604,0.18 8.13067,-1.996 18.744,-9.828 15.76267,-13.236"
       inkscape:connector-curvature="0" /><path
       transform="translate(-644.6038,-1.844074)"
       id="path200"
       style="display:inline;fill:#f03655;fill-opacity:1;fill-rule:nonzero;stroke:none;stroke-width:0.13333333"
       d="m 705.48932,228.744 c -5.25467,3.69734 -34.07734,16.99467 -60.172,17.48667 -26.09067,-0.492 -54.916,-13.78933 -60.16933,-17.48667 -6.796,-5.648 -21.144,-17.98266 -23.208,-15.30266 1.40933,6.3 7.28,20.55066 16.61466,30.30666 18.75334,19.596 43.89067,27.128 66.76267,26.74667 22.876,0.38267 48.012,-7.15067 66.76266,-26.748 9.33734,-9.75467 15.20934,-24.00533 16.624,-30.30533 -2.06533,-2.68134 -16.41466,9.65466 -23.21466,15.30266"
       inkscape:connector-curvature="0" /><path
       transform="translate(-644.6038,-1.844074)"
       id="path202"
       style="display:inline;fill:#db1b4c;fill-opacity:1;fill-rule:nonzero;stroke:none;stroke-width:0.13333333"
       d="m 708.83198,226.03867 c 0.40534,13.08133 -15.36933,23.53733 -28.17733,29.51333 -11.32533,5.13467 -27.36533,6.812 -35.33733,6.79867 -7.964,0.0133 -24.00534,-1.664 -35.33334,-6.79867 -12.81066,-5.976 -28.57866,-16.432 -28.17333,-29.51333 -7.63866,-6.652 -17.94133,-14.58133 -19.87066,-12.59733 1.40933,6.3 7.28,20.55066 16.61466,30.30666 18.75334,19.596 43.89067,27.128 66.76267,26.74667 22.876,0.38267 48.012,-7.15067 66.76266,-26.748 9.33734,-9.75467 15.20934,-24.00533 16.624,-30.30533 -1.93333,-1.984 -12.23466,5.94533 -19.872,12.59733"
       inkscape:connector-curvature="0" /><path
       transform="translate(-644.6038,-1.844074)"
       id="path204"
       style="display:inline;fill:#ff8786;fill-opacity:1;fill-rule:nonzero;stroke:none;stroke-width:0.13333333"
       d="m 649.17465,253.00534 c -0.28533,-2.15734 5.43467,-1.83467 10.868,-2.528 4.96,-0.636 9.48667,-2.47334 11.48667,-0.50534 2.29066,2.22134 -4.17334,4.356 -10.80534,5.136 -5.596,0.648 -11.23733,0.29067 -11.54933,-2.10266"
       inkscape:connector-curvature="0" /><path
       transform="translate(-644.6038,-1.844074)"
       id="path206"
       style="display:inline;fill:#f03655;fill-opacity:1;fill-rule:nonzero;stroke:none;stroke-width:0.13333333"
       d="m 728.93065,212.71334 c 2.852,-2.264 -25.27867,-21.208 -45.16,-22.848 -18.296,-1.17734 -21.61867,9.4 -38.45333,9.31466 -16.832,0.0853 -20.15467,-10.492 -38.44534,-9.31466 -19.87999,1.64 -48.01199,20.584 -45.16666,22.848 1.37867,2.292 20.748,6.70266 35.568,5.01733 15.128,-1.88267 23.848,-5.94533 30.51466,-3.59333 6.63334,2.35733 9.75867,5.532 17.52934,5.532 7.776,0 10.90266,-3.17467 17.532,-5.532 6.672,-2.352 15.38666,1.71066 30.52,3.59333 14.81733,1.68533 34.188,-2.72533 35.56133,-5.01733"
       inkscape:connector-curvature="0" /><path
       transform="translate(-644.6038,-1.844074)"
       id="path208"
       style="display:inline;fill:#db1b4c;fill-opacity:1;fill-rule:nonzero;stroke:none;stroke-width:0.13333333"
       d="m 728.93065,212.71334 c 0.50933,-1.21867 -3.00667,-4.716 -9.528,-8.94 -5.29067,5.296 -12.712,8.916 -40.64133,3.45733 -16.54134,-3.13733 -22.52134,7.248 -33.444,7.25067 -10.91867,-0.003 -16.9,-10.388 -33.44134,-7.25067 -27.92799,5.45867 -35.34933,1.83867 -40.63866,-3.45867 -6.51733,4.22667 -10.03733,7.72267 -9.532,8.94134 1.37867,2.292 20.748,6.70266 35.568,5.01733 15.128,-1.88267 23.848,-5.94533 30.51466,-3.59333 6.63334,2.35733 9.75867,5.532 17.52934,5.532 7.776,0 10.90266,-3.17467 17.532,-5.532 6.672,-2.352 15.38666,1.71066 30.52,3.59333 14.81733,1.68533 34.188,-2.72533 35.56133,-5.01733"
       inkscape:connector-curvature="0" /><path
       transform="translate(-644.6038,-1.844074)"
       id="path210"
       style="display:inline;fill:#ff8786;fill-opacity:1;fill-rule:nonzero;stroke:none;stroke-width:0.13333333"
       d="m 669.14132,199.11334 c 0.64266,-2.58267 8.108,-4.65734 14.82133,-4.01734 5.32133,0.49867 9.69333,2.99334 10.29067,5.248 0.67866,2.55467 -5.06,0.75067 -12.86934,-0.007 -6.68133,-0.65067 -13.044,1.69066 -12.24266,-1.224"
       inkscape:connector-curvature="0" /><path
       transform="translate(-644.6038,-1.844074)"
       id="path212"
       style="display:inline;fill:#ff8786;fill-opacity:1;fill-rule:nonzero;stroke:none;stroke-width:0.13333333"
       d="m 625.32532,198.99467 c -0.32934,-2.60133 -7.54534,-5.196 -14.452,-5.03067 -5.45067,0.12134 -10.28667,2.29734 -11.216,4.48 -1.06667,2.472 5.11466,1.06934 13.144,0.88 6.87333,-0.172 12.972,2.61334 12.524,-0.32933"
       inkscape:connector-curvature="0" /><path
       transform="translate(-644.6038,-1.844074)"
       id="path214"
       style="display:inline;fill:#ff8786;fill-opacity:1;fill-rule:nonzero;stroke:none;stroke-width:0.13333333"
       d="m 664.76665,201.44 c -0.12533,-0.84933 -1.22667,-1.63733 -2.30133,-1.28533 -1.03334,0.34 -2.01067,0.844 -2.68534,1.61733 -1.76266,1.84134 0.064,3.10667 1.344,2.66267 0.824,-0.27867 1.656,-0.604 2.432,-1.00133 0.812,-0.41734 1.33867,-1.196 1.21067,-1.99334"
       inkscape:connector-curvature="0" /></g><g
     id="o"
     transform="matrix(5.5339212,0,0,5.5339212,0,-1325.3414)"
     style="display:none"><path
       transform="translate(-240.60802,191.08443)"
       id="path216"
       style="display:inline;fill:#54191f;fill-opacity:1;fill-rule:nonzero;stroke:none;stroke-width:0.13333333"
       d="m 241.32266,17.568009 c -19.51067,0 -47.18533,18.041333 -46.61866,44.017332 0.564,25.974666 27.38933,35.271999 46.61866,35.271999 19.22667,0 46.05333,-9.297333 46.61867,-35.271999 0.56666,-25.975999 -27.11067,-44.017332 -46.61867,-44.017332"
       inkscape:connector-curvature="0" /><path
       transform="translate(-240.60802,191.08443)"
       id="path218"
       style="display:inline;fill:#de2631;fill-opacity:1;fill-rule:nonzero;stroke:none;stroke-width:0.13333333"
       d="m 241.79866,70.980008 c -17.73733,-9.410667 -43.55733,10.109333 -43.55733,16.031999 0,5.925333 20.644,5.229333 43.55733,5.229333 22.91067,0 43.55733,0.696 43.55733,-5.229333 0,-5.922666 -25.81866,-25.442666 -43.55733,-16.031999"
       inkscape:connector-curvature="0" /><path
       transform="translate(-240.60802,191.08443)"
       id="path220"
       style="display:inline;fill:#ce222a;fill-opacity:1;fill-rule:nonzero;stroke:none;stroke-width:0.13333333"
       d="m 218.49599,89.50934 c -4.11333,-4.662666 -5.19466,-11.070666 -2.35733,-16.413332 0.3,-0.569334 0.68667,-1.101334 1.104,-1.617334 -10.55067,4.330667 -19.00133,12.146667 -19.00133,15.533333 0,4.044 9.63733,5.002667 23.02933,5.202667 -0.97467,-0.841334 -1.912,-1.729334 -2.77467,-2.705334"
       inkscape:connector-curvature="0" /><path
       transform="translate(-240.60802,191.08443)"
       id="path222"
       style="display:inline;fill:#ce222a;fill-opacity:1;fill-rule:nonzero;stroke:none;stroke-width:0.13333333"
       d="m 265.09866,89.50934 c 4.116,-4.662666 5.196,-11.070666 2.36133,-16.413332 -0.30533,-0.569334 -0.68666,-1.101334 -1.10666,-1.617334 10.54933,4.330667 19.00266,12.146667 19.00266,15.533333 0,4.044 -9.63733,5.002667 -23.03333,5.202667 0.97467,-0.841334 1.91333,-1.729334 2.776,-2.705334"
       inkscape:connector-curvature="0" /><path
       transform="translate(-240.60802,191.08443)"
       id="path224"
       style="display:inline;fill:#e9423d;fill-opacity:1;fill-rule:nonzero;stroke:none;stroke-width:0.13333333"
       d="m 255.11866,73.709341 c -1.23733,-1.881333 -5.048,-1.201333 -7.224,-0.410667 -1.52667,0.557334 -2.98133,1.273334 -4.50667,1.832 -2.03466,0.750667 -5.06,-0.777333 -6.984,-1.434666 -1.36533,-0.465334 -8.77333,-2.108 -8.152,1.561333 0.59467,3.536 8.8,6.484 13.63334,6.353333 6.01466,-0.162667 15.684,-4.182667 13.23333,-7.901333"
       inkscape:connector-curvature="0" /><path
       transform="translate(-240.60802,191.08443)"
       id="path226"
       style="display:inline;fill:#ffffff;fill-opacity:1;fill-rule:nonzero;stroke:none;stroke-width:0.13333333"
       d="m 240.84666,83.574674 c -4.876,0 -29.65467,0.206667 -29.65467,1.025333 0,0.82 12.47734,11.893333 29.65467,11.893333 17.176,0 29.65467,-11.073333 29.65467,-11.893333 0,-0.818666 -24.78,-1.025333 -29.65467,-1.025333"
       inkscape:connector-curvature="0" /><path
       transform="translate(-240.60802,191.08443)"
       id="path228"
       style="display:inline;fill:#ffffff;fill-opacity:1;fill-rule:nonzero;stroke:none;stroke-width:0.13333333"
       d="m 240.60799,13.449342 c -20.81066,0 -38.028,16.812 -38.028,16.812 0,0 15.016,10.672 38.028,10.672 23.012,0 38.02934,-10.672 38.02934,-10.672 0,0 -17.22,-16.812 -38.02934,-16.812"
       inkscape:connector-curvature="0" /><path
       transform="translate(-240.60802,191.08443)"
       id="path230"
       style="display:inline;fill:#f03655;fill-opacity:1;fill-rule:nonzero;stroke:none;stroke-width:0.13333333"
       d="m 277.05599,71.702674 c -7.23333,10.102667 -26.404,18.044 -35.73333,18.044 -9.32933,0 -28.5,-7.941333 -35.732,-18.044 -10.18266,-14.218666 -14.93733,-18.469333 -14.988,-11.485333 -0.284,37.730666 33.75467,56.049329 50.72,56.049329 16.96667,0 51.004,-18.318663 50.71867,-56.049329 -0.0507,-6.984 -4.808,-2.733333 -14.98534,11.485333"
       inkscape:connector-curvature="0" /><path
       transform="translate(-240.60802,191.08443)"
       id="path232"
       style="display:inline;fill:#db1b4c;fill-opacity:1;fill-rule:nonzero;stroke:none;stroke-width:0.13333333"
       d="m 279.86399,67.856008 c 3.97734,27.906666 -24.26266,42.173332 -38.54133,42.173332 -14.28,0 -42.52133,-14.266666 -38.54267,-42.173332 -8.23866,-11.064 -12.12933,-13.941333 -12.17733,-7.638667 -0.284,37.730666 33.75467,56.049329 50.72,56.049329 16.96667,0 51.004,-18.318663 50.71867,-56.049329 -0.0467,-6.302666 -3.94,-3.425333 -12.17734,7.638667"
       inkscape:connector-curvature="0" /><path
       transform="translate(-240.60802,191.08443)"
       id="path234"
       style="display:inline;fill:#ff8786;fill-opacity:1;fill-rule:nonzero;stroke:none;stroke-width:0.13333333"
       d="m 240.25199,100.66267 c -0.55866,-1.83733 4.22267,-2.30133 8.636,-3.67733 4.02134,-1.250666 7.58134,-3.574666 9.46134,-2.132 2.14133,1.636 -2.964,4.513334 -8.30134,6.096 -4.508,1.336 -9.17733,1.74667 -9.796,-0.28667"
       inkscape:connector-curvature="0" /><path
       transform="translate(-240.60802,191.08443)"
       id="path236"
       style="display:inline;fill:#f03655;fill-opacity:1;fill-rule:nonzero;stroke:none;stroke-width:0.13333333"
       d="m 289.65199,43.678675 c -5.976,-21.465333 -15.81866,-40.191999 -29.18533,-40.191999 -7.71067,0 -13.09733,4.5119999 -19.144,4.5119999 -6.04933,0 -11.43333,-4.5119999 -19.14667,-4.5119999 -13.364,0 -23.20933,18.726666 -29.18399,40.191999 -5.964,21.410666 -1.87734,30.961333 6.04266,13.326666 7.92533,-17.634666 26.44533,-34.654665 42.288,-34.654665 15.84133,0 34.35867,17.019999 42.28667,34.654665 7.92133,17.634667 12.00666,8.084 6.04266,-13.326666"
       inkscape:connector-curvature="0" /><path
       transform="translate(-240.60802,191.08443)"
       id="path238"
       style="display:inline;fill:#db1b4c;fill-opacity:1;fill-rule:nonzero;stroke:none;stroke-width:0.13333333"
       d="m 289.65199,43.678675 c -0.932,-3.349333 -1.96,-6.609333 -3.076,-9.730666 0.368,4.807999 -0.828,6.577333 -5.26,5.422666 -6.64,-1.730667 -12.076,-8.113333 -17.096,-12.302666 -6.87733,-5.742667 -13.86266,-8.408 -22.89733,-8.408 -9.03467,0 -16.01867,2.665333 -22.89733,8.408 -5.02,4.189333 -10.456,10.571999 -17.09467,12.302666 -4.43333,1.154667 -5.62933,-0.614667 -5.26266,-5.422666 -1.11734,3.121333 -2.14534,6.381333 -3.076,9.730666 -5.964,21.410666 -1.87734,30.961333 6.04266,13.326666 7.92533,-17.634666 26.44533,-34.654665 42.288,-34.654665 15.84133,0 34.35867,17.019999 42.28667,34.654665 7.92133,17.634667 12.00666,8.084 6.04266,-13.326666"
       inkscape:connector-curvature="0" /><path
       transform="translate(-240.60802,191.08443)"
       id="path240"
       style="display:inline;fill:#ff8786;fill-opacity:1;fill-rule:nonzero;stroke:none;stroke-width:0.13333333"
       d="m 252.78933,12.658676 c 0.96533,-2.468 5.76933,-3.5426668 9.59333,-2.132 3.03067,1.122666 5.32267,4.190666 5.488,6.672 0.18267,2.804 -3.2,0.204 -7.85067,-1.6 -3.94533,-1.533334 -8.32533,-0.144 -7.23066,-2.94"
       inkscape:connector-curvature="0" /><path
       transform="translate(-240.60802,191.08443)"
       id="path242"
       style="display:inline;fill:#ff8786;fill-opacity:1;fill-rule:nonzero;stroke:none;stroke-width:0.13333333"
       d="m 229.60266,13.134676 c -0.96533,-2.469334 -5.76667,-3.5440002 -9.592,-2.130667 -3.02933,1.12 -5.324,4.190667 -5.48667,6.672 -0.18266,2.804 3.19867,0.204 7.848,-1.601333 3.94534,-1.532 8.32667,-0.142667 7.23067,-2.94"
       inkscape:connector-curvature="0" /><path
       transform="translate(-240.60802,191.08443)"
       id="path244"
       style="display:inline;fill:#ff8786;fill-opacity:1;fill-rule:nonzero;stroke:none;stroke-width:0.13333333"
       d="m 249.83733,12.878676 c 0.172,1.286666 -0.732,2.469333 -2.016,2.638666 -1.28667,0.174667 -2.468,-0.729333 -2.64134,-2.013333 -0.17066,-1.286667 0.732,-2.466667 2.016,-2.64 1.288,-0.172 2.46667,0.729333 2.64134,2.014667"
       inkscape:connector-curvature="0" /></g><g
     id="qw"
     transform="matrix(5.5339212,0,0,5.5339212,0,-1325.3414)"
     style="display:none"><path
       transform="translate(-62.93781,-177.17469)"
       id="path246"
       style="display:inline;fill:#54191f;fill-opacity:1;fill-rule:nonzero;stroke:none;stroke-width:0.13333333"
       d="m 62.939065,377.37733 c -19.510933,0 -47.187465,18.04 -46.620265,44.012 0.564,25.9776 27.390532,35.27187 46.620265,35.27187 19.226533,0 46.052665,-9.29427 46.619335,-35.27187 0.56506,-25.972 -27.110002,-44.012 -46.619335,-44.012"
       inkscape:connector-curvature="0" /><path
       transform="translate(-62.93781,-177.17469)"
       id="path248"
       style="display:inline;fill:#ffffff;fill-opacity:1;fill-rule:nonzero;stroke:none;stroke-width:0.13333333"
       d="m 63.178132,381.12267 c -20.8104,0 -38.030799,16.81346 -38.030799,16.81346 0,0 15.017733,10.67187 38.030799,10.67187 23.009333,0 38.026528,-10.67187 38.026528,-10.67187 0,0 -17.217195,-16.81346 -38.026528,-16.81346"
       inkscape:connector-curvature="0" /><path
       transform="translate(-62.93781,-177.17469)"
       id="path250"
       style="display:inline;fill:#d52631;fill-opacity:1;fill-rule:nonzero;stroke:none;stroke-width:0.13333333"
       d="m 62.462532,430.55067 c -15.750533,-9.41454 -38.677599,10.10786 -38.677599,16.02813 0,5.92666 18.333866,5.23333 38.677599,5.23333 20.343199,0 38.678668,0.69333 38.678668,-5.23333 0,-5.92027 -22.926669,-25.44267 -38.678668,-16.02813"
       inkscape:connector-curvature="0" /><path
       transform="translate(-62.93781,-177.17469)"
       id="path252"
       style="display:inline;fill:#b3222a;fill-opacity:1;fill-rule:nonzero;stroke:none;stroke-width:0.13333333"
       d="m 41.769732,449.07986 c -3.651466,-4.6692 -4.6104,-11.07599 -2.090533,-16.41719 0.2656,-0.5692 0.608267,-1.1 0.9792,-1.61454 -9.3704,4.33067 -16.873466,12.14533 -16.873466,15.53067 0,4.0412 8.557733,5.0052 20.451466,5.2052 -0.866133,-0.84267 -1.697867,-1.73067 -2.466667,-2.70414"
       inkscape:connector-curvature="0" /><path
       transform="translate(-62.93781,-177.17469)"
       id="path254"
       style="display:inline;fill:#b3222a;fill-opacity:1;fill-rule:nonzero;stroke:none;stroke-width:0.13333333"
       d="m 83.152665,449.07986 c 3.653066,-4.6692 4.613999,-11.07599 2.094266,-16.41719 -0.2672,-0.5692 -0.607866,-1.1 -0.979733,-1.61454 9.366666,4.33067 16.874002,12.14533 16.874002,15.53067 0,4.0412 -8.557336,5.0052 -20.454802,5.2052 0.8672,-0.84267 1.7,-1.73067 2.466267,-2.70414"
       inkscape:connector-curvature="0" /><path
       transform="translate(-62.93781,-177.17469)"
       id="path256"
       style="display:inline;fill:#e9423d;fill-opacity:1;fill-rule:nonzero;stroke:none;stroke-width:0.13333333"
       d="m 74.290131,433.27467 c -1.096933,-1.8812 -4.481733,-1.19894 -6.414133,-0.40774 -1.356266,0.55827 -2.647333,1.2744 -4.002,1.83587 -1.807333,0.7412 -4.494266,-0.7828 -6.201066,-1.43907 -1.214133,-0.46093 -7.7912,-2.10773 -7.238533,1.56307 0.528666,3.53693 7.812,6.48387 12.105733,6.3572 5.340533,-0.17187 13.924933,-4.188 11.749999,-7.90933"
       inkscape:connector-curvature="0" /><path
       transform="translate(-62.93781,-177.17469)"
       id="path258"
       style="display:inline;fill:#f03655;fill-opacity:1;fill-rule:nonzero;stroke:none;stroke-width:0.13333333"
       d="m 96.459864,430.42267 c -6.6744,8.88946 -24.674399,14.12279 -33.520799,14.33746 -8.849466,-0.21467 -26.848399,-5.448 -33.522932,-14.33746 -9.435867,-12.6496 -13.9156,-17.53187 -13.9588,-10.39854 -0.312533,39.23333 31.081199,46.66093 47.481732,47.37973 16.397866,-0.7188 47.794265,-8.1464 47.479195,-47.37973 -0.0396,-7.13333 -4.52506,-2.2572 -13.958396,10.39854"
       inkscape:connector-curvature="0" /><path
       transform="translate(-62.93781,-177.17469)"
       id="path260"
       style="display:inline;fill:#db1b4c;fill-opacity:1;fill-rule:nonzero;stroke:none;stroke-width:0.13333333"
       d="M 99.066131,426.98827 C 102.93906,454.28666 76.636931,461.72 62.939065,462.07573 49.238532,461.72 22.936399,454.28666 26.808799,426.98827 19.163066,416.9252 15.496933,413.61587 15.457333,420.02413 c -0.312533,39.23333 31.081199,46.66093 47.481732,47.37973 16.397866,-0.7188 47.794265,-8.1464 47.479195,-47.37973 -0.0371,-6.40826 -3.70786,-3.09893 -11.352129,6.96414"
       inkscape:connector-curvature="0" /><path
       transform="translate(-62.93781,-177.17469)"
       id="path262"
       style="display:inline;fill:#ff8786;fill-opacity:1;fill-rule:nonzero;stroke:none;stroke-width:0.13333333"
       d="m 61.923998,454.08146 c -0.5292,-1.57346 4.004134,-2.00266 8.173867,-3.01773 3.804266,-0.924 7.1532,-2.712 8.931866,-1.3224 2.023867,1.60413 -2.7724,3.64947 -7.822933,4.76933 -4.265066,0.93587 -8.698,1.30147 -9.2828,-0.4292"
       inkscape:connector-curvature="0" /><path
       transform="translate(-62.93781,-177.17469)"
       id="path264"
       style="display:inline;fill:#f03655;fill-opacity:1;fill-rule:nonzero;stroke:none;stroke-width:0.13333333"
       d="m 108.1344,405.08773 c -4.90987,-18.05733 -15.122402,-40.95706 -27.451069,-41.4704 -7.125466,-0.048 -12.064533,6.18534 -17.744266,6.20267 -5.681733,-0.0173 -10.617733,-6.25067 -17.745333,-6.20267 -12.325466,0.51334 -22.543733,23.41307 -27.453599,41.46254 -4.4318,16.89226 -1.948933,30.8656 4.626,18.06666 6.781733,-13.0104 25.446932,-33.00253 40.572932,-33.58533 15.122933,0.5828 33.790666,20.57493 40.569335,33.58533 6.578,12.79894 9.0588,-1.1744 4.626,-18.0588"
       inkscape:connector-curvature="0" /><path
       transform="translate(-62.93781,-177.17469)"
       id="path266"
       style="display:inline;fill:#db1b4c;fill-opacity:1;fill-rule:nonzero;stroke:none;stroke-width:0.13333333"
       d="m 108.1344,405.08773 c -0.774,-2.92653 -1.66987,-5.8516 -2.67507,-8.7516 0.37707,4.93854 -0.52027,7.54787 -4.38173,8.19067 -5.832269,0.912 -11.210936,-5.59747 -16.087469,-10.2964 -6.7136,-6.412 -13.421866,-9.80107 -22.051066,-9.74107 -8.628133,-0.06 -15.3364,3.32907 -22.051599,9.74107 -4.8776,4.69893 -10.2568,11.2084 -16.086933,10.29893 -3.863067,-0.64533 -4.762,-3.25466 -4.3808,-8.1932 -1.006133,2.9 -1.902,5.82507 -2.6796,8.74374 -4.4318,16.89226 -1.948933,30.8656 4.626,18.06666 6.781733,-13.0104 25.446932,-33.00253 40.572932,-33.58533 15.122933,0.5828 33.790666,20.57493 40.569335,33.58533 6.578,12.79894 9.0588,-1.1744 4.626,-18.0588"
       inkscape:connector-curvature="0" /><path
       transform="translate(-62.93781,-177.17469)"
       id="path268"
       style="display:inline;fill:#ff8786;fill-opacity:1;fill-rule:nonzero;stroke:none;stroke-width:0.13333333"
       d="m 74.392665,375.10533 c 0.866666,-3.392 5.321333,-4.91066 8.936,-3.212 2.865066,1.35867 5.115066,5.09334 5.360933,8.21467 0.276,3.53333 -2.976533,0.69747 -7.409333,-1.40253 -3.7532,-1.7844 -7.863067,0.22386 -6.8876,-3.60014"
       inkscape:connector-curvature="0" /><path
       transform="translate(-62.93781,-177.17469)"
       id="path270"
       style="display:inline;fill:#ff8786;fill-opacity:1;fill-rule:nonzero;stroke:none;stroke-width:0.13333333"
       d="m 52.446399,375.81867 c -0.866134,-3.392 -5.320934,-4.91067 -8.937067,-3.212 -2.865066,1.352 -5.112933,5.0936 -5.3588,8.21066 -0.278666,3.53334 2.976534,0.70107 7.407334,-1.40413 3.755733,-1.77347 7.862933,0.2292 6.888533,-3.59453"
       inkscape:connector-curvature="0" /><path
       transform="translate(-62.93781,-177.17469)"
       id="path272"
       style="display:inline;fill:#ff8786;fill-opacity:1;fill-rule:nonzero;stroke:none;stroke-width:0.13333333"
       d="m 71.000532,376.2132 c 0.122933,1.21467 -0.8276,2.40267 -2.1328,2.64693 -1.304667,0.24627 -2.4584,-0.56666 -2.569334,-1.7964 -0.112,-1.22906 0.845867,-2.4144 2.138,-2.64906 1.292267,-0.224 2.435467,0.57866 2.564134,1.79853"
       inkscape:connector-curvature="0" /></g><g
     id="l"
     transform="matrix(5.5339212,0,0,5.5339212,0,-1325.3414)"
     style="display:none"><path
       transform="translate(-438.88799,-175.71271)"
       id="path300"
       style="display:inline;fill:#54191f;fill-opacity:1;fill-rule:nonzero;stroke:none;stroke-width:0.13333333"
       d="m 484.89199,369.456 c -10.664,-5.89067 -32.35467,5.88667 -46.00133,5.88667 -13.648,0 -35.33867,-11.77734 -45.99734,-5.88667 -10.66133,5.88667 -39.656,29.44427 -33.26266,47.11093 6.396,17.6744 63.05466,25.5208 79.26,25.5208 16.204,0 72.85999,-7.8464 79.25733,-25.5208 6.39733,-17.66666 -22.59734,-41.22426 -33.256,-47.11093"
       inkscape:connector-curvature="0" /><path
       transform="translate(-438.88799,-175.71271)"
       id="path302"
       style="display:inline;fill:#d52631;fill-opacity:1;fill-rule:nonzero;stroke:none;stroke-width:0.13333333"
       d="m 480.23999,419.46013 c -7.51867,-18.8 -24.26533,-34.85626 -41.34933,-34.85626 -17.08534,0 -33.83067,16.05626 -41.35067,34.85626 -7.512,18.79734 16.40933,34.1744 41.35067,34.1744 24.94133,0 48.86266,-15.37706 41.34933,-34.1744"
       inkscape:connector-curvature="0" /><path
       transform="translate(-438.88799,-175.71271)"
       id="path304"
       style="display:inline;fill:#c0222a;fill-opacity:1;fill-rule:nonzero;stroke:none;stroke-width:0.13333333"
       d="m 438.89066,417.096 c -2.70934,0 -12.02,15.72133 -19.39867,14.5172 -8.11067,-1.32133 -14.59867,-8.2864 -10.49467,-15.45307 7.38534,-12.8932 24.276,-11.9932 29.89334,-12.69066 5.61733,0.69746 22.50933,-0.20254 29.89333,12.69066 3.85333,6.7276 -2.264,13.2812 -9.992,15.15054 -7.99067,1.93173 -17.47733,-14.21467 -19.90133,-14.21467 z m 41.34933,2.36413 c -7.51867,-18.8 -24.26533,-34.85626 -41.34933,-34.85626 -17.08534,0 -33.83067,16.05626 -41.35067,34.85626 -7.512,18.79734 16.40933,34.1744 41.35067,34.1744 24.94133,0 48.86266,-15.37706 41.34933,-34.1744"
       inkscape:connector-curvature="0" /><path
       transform="translate(-438.88799,-175.71271)"
       id="path306"
       style="display:inline;fill:#ffffff;fill-opacity:1;fill-rule:nonzero;stroke:none;stroke-width:0.13333333"
       d="m 503.70132,426.108 c -3.93467,0.5068 -46.356,1.0172 -64.82,1.0172 -18.46666,0 -60.89066,-0.5104 -64.81866,-1.0172 -3.932,-0.50253 11.71733,32.98133 64.81866,32.036 53.89333,-0.95734 68.744,-32.53853 64.82,-32.036"
       inkscape:connector-curvature="0" /><path
       transform="translate(-438.88799,-175.71271)"
       id="path308"
       style="display:inline;fill:#ffffff;fill-opacity:1;fill-rule:nonzero;stroke:none;stroke-width:0.13333333"
       d="m 474.93999,380.21733 c -11.936,-2.9416 -24.108,7.3532 -36.04933,7.3532 -11.93734,0 -24.11067,-10.2948 -36.04667,-7.3532 -11.94,2.95054 -33.82933,18.97867 -33.82933,18.97867 5.116,5.89173 17.33733,10.14947 25.30133,5.56667 6.53467,2.29066 26.72533,2.61466 44.57467,2.61466 17.848,0 38.03866,-0.324 44.57733,-2.61466 7.96133,4.5828 20.18,0.32506 25.30133,-5.56667 0,0 -21.89333,-16.02813 -33.82933,-18.97867"
       inkscape:connector-curvature="0" /><path
       transform="translate(-438.88799,-175.71271)"
       id="path310"
       style="display:inline;fill:#f03655;fill-opacity:1;fill-rule:nonzero;stroke:none;stroke-width:0.13333333"
       d="m 518.24399,408.87573 c -3.00934,0.36974 -13.78667,14.00934 -31.868,22.52974 -16.39334,7.74626 -33.64133,9.41866 -47.48533,9.37186 -13.84667,0.0468 -31.09467,-1.6256 -47.48934,-9.37186 -18.07866,-8.5204 -28.85866,-22.16 -31.86533,-22.52974 -1.46267,-0.28386 -4.54133,11.67494 6.72667,29.164 17.228,26.85733 52.09066,33.47507 72.628,32.85107 20.54,0.624 55.39999,-5.99374 72.62533,-32.85107 11.26666,-17.48906 8.18933,-29.44786 6.728,-29.164"
       inkscape:connector-curvature="0" /><path
       transform="translate(-438.88799,-175.71271)"
       id="path312"
       style="display:inline;fill:#db1b4c;fill-opacity:1;fill-rule:nonzero;stroke:none;stroke-width:0.13333333"
       d="m 518.24399,408.87573 c -2.232,0.3 -8.56934,7.64534 -18.96667,14.9604 1.23867,1.012 2.33333,2.40107 3.21467,3.96254 3.96933,6.88386 -2.25334,15.57439 -7.53334,20.00933 -7.95733,7.01986 -31.89599,16.0932 -56.06799,15.86413 -24.176,0.22907 -48.108,-8.84427 -56.068,-15.86413 -5.28,-4.43494 -11.50534,-13.12293 -7.536,-20.00933 0.88533,-1.56147 1.97333,-2.95054 3.21466,-3.96254 -10.392,-7.312 -16.73466,-14.6604 -18.96533,-14.9604 -1.46267,-0.28386 -4.54133,11.67494 6.72667,29.164 17.228,26.85733 52.09066,33.47507 72.628,32.85107 20.54,0.624 55.39999,-5.99374 72.62533,-32.85107 11.26666,-17.48906 8.18933,-29.44786 6.728,-29.164"
       inkscape:connector-curvature="0" /><path
       transform="translate(-438.88799,-175.71271)"
       id="path314"
       style="display:inline;fill:#f03655;fill-opacity:1;fill-rule:nonzero;stroke:none;stroke-width:0.13333333"
       d="m 505.77865,378.05067 c -10.17066,-13.00934 -21.196,-19.90667 -33.248,-17.48134 -12.05866,2.28934 -19.39599,8.72534 -33.63999,8.86934 -14.248,-0.144 -21.58134,-6.58 -33.64134,-8.86934 -12.056,-2.42533 -23.07466,4.47867 -33.244,17.48134 -11.148,14.27346 -18.90266,35.86666 -10.51333,31.34013 10.11333,-5.89373 18.72133,-21.48693 39.20933,-21.17493 20.548,-0.32134 25.62267,6.62026 38.18934,6.90253 12.564,-0.28227 17.644,-7.22387 38.19333,-6.90253 20.48133,-0.312 29.09066,15.27866 39.20533,21.17493 8.384,4.52653 0.63333,-17.06667 -10.51067,-31.34013"
       inkscape:connector-curvature="0" /><path
       transform="translate(-438.88799,-175.71271)"
       id="path316"
       style="display:inline;fill:#db1b4c;fill-opacity:1;fill-rule:nonzero;stroke:none;stroke-width:0.13333333"
       d="m 507.00665,379.68507 c 0.064,0.47346 0.10534,0.94533 0.12,1.4256 0.30934,9.60413 -6.60533,7.03066 -12.52666,5.13173 -14.604,-4.74533 -23.52134,-7.53027 -38.53867,-0.0969 -4.692,2.2704 -10.71333,3.59693 -17.17066,3.59426 -6.456,0.003 -12.48134,-1.32386 -17.17067,-3.59426 -15.01867,-7.43067 -23.93467,-4.6484 -38.54133,0.0969 -5.91867,1.9016 -12.836,4.4724 -12.52667,-5.13173 0.0173,-0.48027 0.0587,-0.95214 0.124,-1.4256 -10.476,14.2016 -17.356,34.07506 -9.284,29.70573 10.11333,-5.89373 18.72133,-21.48693 39.20933,-21.17493 20.548,-0.32134 25.62267,6.62026 38.18934,6.90253 12.564,-0.28227 17.644,-7.22387 38.19333,-6.90253 20.48133,-0.312 29.09066,15.27866 39.20533,21.17493 8.07067,4.36667 1.19467,-15.50413 -9.28267,-29.70573"
       inkscape:connector-curvature="0" /><path
       transform="translate(-438.88799,-175.71271)"
       id="path318"
       style="display:inline;fill:#ff8786;fill-opacity:1;fill-rule:nonzero;stroke:none;stroke-width:0.13333333"
       d="m 433.24132,453.99346 c 0.508,-3.67346 8.472,-1.97506 14.06134,-2.67346 6.14933,-0.676 13.644,-5.43494 14.48666,-1.34694 1.02134,4.8188 -7.852,7.34854 -13.18533,7.95627 -4.43467,0.64373 -16.03467,0.8464 -15.36267,-3.93587"
       inkscape:connector-curvature="0" /><path
       transform="translate(-438.88799,-175.71271)"
       id="path320"
       style="display:inline;fill:#ff8786;fill-opacity:1;fill-rule:nonzero;stroke:none;stroke-width:0.13333333"
       d="m 469.65999,371.68667 c 0.38266,-2.208 4.51333,-3.288 9.508,-2.54267 4.58666,0.68933 9.416,4.26133 7.16933,6.20133 -1.528,1.31587 -5.548,-1.212 -8.348,-1.668 -4.164,-0.64666 -8.7,0.18667 -8.32933,-1.99066"
       inkscape:connector-curvature="0" /><path
       transform="translate(-438.88799,-175.71271)"
       id="path322"
       style="display:inline;fill:#ff8786;fill-opacity:1;fill-rule:nonzero;stroke:none;stroke-width:0.13333333"
       d="m 409.77999,371.536 c -0.39467,-2.204 -4.524,-3.24933 -9.51467,-2.47067 -4.57733,0.728 -9.388,4.33734 -7.14133,6.26 1.53467,1.30254 5.53733,-1.25466 8.33867,-1.72933 4.15733,-0.68533 8.69466,0.11067 8.31733,-2.06"
       inkscape:connector-curvature="0" /><path
       transform="translate(-438.88799,-175.71271)"
       id="path324"
       style="display:inline;fill:#ff8786;fill-opacity:1;fill-rule:nonzero;stroke:none;stroke-width:0.13333333"
       d="m 464.43199,372.00533 c -0.89467,0.42667 -1.692,1.056 -2.136,2.05867 -0.41867,0.95467 0.0547,2.30133 1.048,2.40653 0.42,0.0547 1.908,-0.4224 2.28133,-0.64653 2.72533,-1.636 1.00267,-4.88667 -1.19333,-3.81867"
       inkscape:connector-curvature="0" /></g><g
     id="aei"
     transform="matrix(5.5339212,0,0,5.5339212,0,-1325.3414)"
     style="display:none"><path
       transform="translate(-76.27083,187.74976)"
       id="path326"
       style="display:inline;fill:#54191f;fill-opacity:1;fill-rule:nonzero;stroke:none;stroke-width:0.13333333"
       d="m 76.270798,10.784009 c -23.711466,0 -73.4098647,24.689333 -74.3838247,45.477332 -0.97395199,20.789333 36.3796927,46.126669 74.3838247,46.126669 38.005732,0 75.358532,-25.337336 74.383862,-46.126669 C 149.68133,35.473342 99.982798,10.784009 76.270798,10.784009"
       inkscape:connector-curvature="0" /><path
       transform="translate(-76.27083,187.74976)"
       id="path328"
       style="display:inline;fill:#de2631;fill-opacity:1;fill-rule:nonzero;stroke:none;stroke-width:0.13333333"
       d="m 93.162531,66.330674 c -13.6428,-0.974666 -16.891733,2.597334 -16.891733,2.597334 0,0 -3.2484,-3.572 -16.889066,-2.597334 -13.644266,0.974667 -42.219199,12.968 -38.331199,21.113333 6.8208,14.292003 40.279732,14.944003 55.220265,14.944003 14.942266,0 48.398932,-0.652 55.220402,-14.944003 3.88746,-8.145333 -24.68707,-20.138666 -38.328669,-21.113333"
       inkscape:connector-curvature="0" /><path
       transform="translate(-76.27083,187.74976)"
       id="path330"
       style="display:inline;fill:#ce222a;fill-opacity:1;fill-rule:nonzero;stroke:none;stroke-width:0.13333333"
       d="m 107.04786,69.401341 c 6.6548,4.037333 11.1808,9.352 3.82094,15.312 -7.19694,5.823999 -17.953202,7.145333 -26.854269,8.134666 -2.568666,0.284 -5.154133,0.44 -7.743733,0.525333 -2.589067,-0.08533 -5.173866,-0.241333 -7.742666,-0.525333 -8.902667,-0.989333 -19.657333,-2.310667 -26.854666,-8.134666 -7.358934,-5.96 -2.833334,-11.274667 3.821866,-15.312 -13.180266,4.301333 -27.246932,12.173333 -24.444799,18.042666 6.8208,14.292003 40.279732,14.944003 55.220265,14.944003 14.942266,0 48.398932,-0.652 55.220402,-14.944003 2.80346,-5.869333 -11.26467,-13.741333 -24.44334,-18.042666"
       inkscape:connector-curvature="0" /><path
       transform="translate(-76.27083,187.74976)"
       id="path332"
       style="display:inline;fill:#e9423d;fill-opacity:1;fill-rule:nonzero;stroke:none;stroke-width:0.13333333"
       d="m 88.481731,71.148008 c -1.153067,-1.754667 -4.706266,-1.121334 -6.7328,-0.384 -1.422933,0.52 -2.7792,1.189333 -4.1984,1.710666 -1.8984,0.694667 -4.716133,-0.728 -6.510933,-1.338666 -1.272933,-0.434667 -8.1756,-1.968 -7.595866,1.453333 0.5532,3.296 8.1984,6.044 12.704133,5.921333 5.602666,-0.152 14.618799,-3.896 12.333866,-7.362666"
       inkscape:connector-curvature="0" /><path
       transform="translate(-76.27083,187.74976)"
       id="path334"
       style="display:inline;fill:#ffffff;fill-opacity:1;fill-rule:nonzero;stroke:none;stroke-width:0.13333333"
       d="M 140.90933,37.422675 C 116.2224,8.8400092 93.102664,10.784009 76.270798,10.784009 c -16.833333,0 -39.951466,-1.9439998 -64.639545,26.638666 -3.2322932,3.742667 12.018213,8.12 19.163546,2.273333 1.951067,7.796 34.756799,4.872 45.475999,4.872 10.7204,0 43.527602,2.924 45.476132,-4.872 7.14573,5.846667 22.39707,1.469334 19.1624,-2.273333"
       inkscape:connector-curvature="0" /><path
       transform="translate(-76.27083,187.74976)"
       id="path336"
       style="display:inline;fill:#ffffff;fill-opacity:1;fill-rule:nonzero;stroke:none;stroke-width:0.13333333"
       d="m 138.56533,75.462674 c -3.776,0.430667 -44.550266,0.866667 -62.294532,0.866667 -17.741599,0 -58.516132,-0.436 -62.291065,-0.866667 -3.77556,-0.434666 44.925999,27.249336 62.291065,27.249336 17.366666,0 66.069202,-27.684002 62.294532,-27.249336"
       inkscape:connector-curvature="0" /><path
       transform="translate(-76.27083,187.74976)"
       id="path338"
       style="display:inline;fill:#f03655;fill-opacity:1;fill-rule:nonzero;stroke:none;stroke-width:0.13333333"
       d="m 150.952,50.764008 c -3.396,-4.797333 -2.27334,4.650667 -10.29334,13.456 C 125.012,81.386674 98.004664,83.342674 76.270798,83.437341 54.536932,83.342674 27.530666,81.386674 11.883333,64.220008 3.8635466,55.414675 4.9875065,45.966675 1.5916666,50.764008 c -3.4463599,4.836 0.3802134,22.917333 13.7176664,38.022666 13.241733,15.003996 34.434399,20.295996 60.961465,20.295996 26.528132,0 47.721862,-5.292 60.961202,-20.295996 13.33866,-15.105333 17.168,-33.186666 13.72,-38.022666"
       inkscape:connector-curvature="0" /><path
       transform="translate(-76.27083,187.74976)"
       id="path340"
       style="display:inline;fill:#db1b4c;fill-opacity:1;fill-rule:nonzero;stroke:none;stroke-width:0.13333333"
       d="m 150.952,50.764008 c -3.396,-4.797333 -2.27334,4.650667 -10.29334,13.456 -0.34,0.376 -0.716,0.701333 -1.06533,1.058666 -1.85733,18.162667 -13.2308,26.481333 -20.94333,30.236 -14.99067,7.258666 -25.902136,9.609336 -42.379202,9.574666 -16.474399,0.0347 -27.386933,-2.316 -42.377599,-9.574666 C 26.181733,91.760007 14.8084,83.441341 12.9474,65.278674 12.5974,64.921341 12.22292,64.596008 11.883333,64.220008 3.8635466,55.414675 4.9875065,45.966675 1.5916666,50.764008 c -3.4463599,4.836 0.3802134,22.917333 13.7176664,38.022666 13.241733,15.003996 34.434399,20.295996 60.961465,20.295996 26.528132,0 47.721862,-5.292 60.961202,-20.295996 13.33866,-15.105333 17.168,-33.186666 13.72,-38.022666"
       inkscape:connector-curvature="0" /><path
       transform="translate(-76.27083,187.74976)"
       id="path342"
       style="display:inline;fill:#ff8786;fill-opacity:1;fill-rule:nonzero;stroke:none;stroke-width:0.13333333"
       d="m 74.928131,92.52134 c 0.294267,-1.925333 4.695867,-1.433333 9.471867,-1.806666 4.774,-0.374667 8.964,-1.242667 9.636933,0.008 1.670933,3.118666 -4.004133,4.892 -9.3672,5.24 -4.4244,0.274666 -10.150933,-0.74 -9.7416,-3.441334"
       inkscape:connector-curvature="0" /><path
       transform="translate(-76.27083,187.74976)"
       id="path344"
       style="display:inline;fill:#f03655;fill-opacity:1;fill-rule:nonzero;stroke:none;stroke-width:0.13333333"
       d="M 98.430264,0.00667606 C 88.394798,-0.11865727 84.728665,5.0066759 76.270798,5.0146759 67.813598,5.0066759 64.147332,-0.11865727 54.110399,0.00667606 33.048933,0.32800939 -1.7807333,53.134675 0.17812533,53.318675 c 6.81302117,0.485333 44.24214067,-30.152 61.61720667,-29.46 4.6468,0.194667 7.328133,4.265334 14.475466,4.268 7.146933,-0.0027 9.8292,-4.073333 14.4756,-4.268 17.374402,-0.692 54.804262,29.945333 61.617602,29.46 C 154.32133,53.136008 119.4932,0.32800939 98.430264,0.00667606"
       inkscape:connector-curvature="0" /><path
       transform="translate(-76.27083,187.74976)"
       id="path346"
       style="display:inline;fill:#db1b4c;fill-opacity:1;fill-rule:nonzero;stroke:none;stroke-width:0.13333333"
       d="m 136.56266,29.952009 c -0.0293,6.575999 -5.43346,5.566666 -11.4668,3.286666 -11.9516,-4.450666 -21.78906,-16.823999 -34.284929,-13.903999 -4.595866,1.06 -8.183866,6.171999 -14.540133,6.174666 -6.3552,-0.0027 -9.944266,-5.114666 -14.5396,-6.174666 -12.497333,-2.92 -22.331732,9.453333 -34.284799,13.903999 -6.033333,2.28 -11.437599,3.289333 -11.464666,-3.286666 -9.8395465,12.094666 -17.2358996,23.263999 -15.80360767,23.366666 6.81302117,0.485333 44.24214067,-30.152 61.61720667,-29.46 4.6468,0.194667 7.328133,4.265334 14.475466,4.268 7.146933,-0.0027 9.8292,-4.073333 14.4756,-4.268 17.374402,-0.692 54.804262,29.945333 61.617602,29.46 1.43333,-0.102667 -5.964,-11.272 -15.80134,-23.366666"
       inkscape:connector-curvature="0" /><path
       transform="translate(-76.27083,187.74976)"
       id="path348"
       style="display:inline;fill:#ff8786;fill-opacity:1;fill-rule:nonzero;stroke:none;stroke-width:0.13333333"
       d="m 92.634931,7.6160092 c 0.421867,-2.0026666 4.572933,-2.4933333 9.628669,-0.9866666 4.6328,1.3893333 9.60933,5.6533334 7.30773,7.0133334 -1.57493,0.917333 -5.69213,-2.137334 -8.5312,-2.994667 C 96.815064,9.3813425 92.229731,9.5960092 92.634931,7.6160092"
       inkscape:connector-curvature="0" /><path
       transform="translate(-76.27083,187.74976)"
       id="path350"
       style="display:inline;fill:#ff8786;fill-opacity:1;fill-rule:nonzero;stroke:none;stroke-width:0.13333333"
       d="m 60.925465,6.9600092 c -0.427067,-2.0053333 -4.5692,-2.4946666 -9.606666,-0.9826666 -4.6188,1.3919999 -9.566667,5.6546664 -7.269333,7.0146664 1.576533,0.916 5.671866,-2.141333 8.499999,-2.9999999 4.2104,-1.2666666 8.788533,-1.0559999 8.376,-3.0319999"
       inkscape:connector-curvature="0" /><path
       transform="translate(-76.27083,187.74976)"
       id="path352"
       style="display:inline;fill:#ff8786;fill-opacity:1;fill-rule:nonzero;stroke:none;stroke-width:0.13333333"
       d="m 84.451598,8.5080092 c -0.9136,0.304 -1.7344,0.8066666 -2.2156,1.6999998 -0.462,0.845333 -0.02293,2.150667 0.978533,2.353333 0.4224,0.08533 1.199067,0.292 2.328134,-0.365333 2.020933,-1.182667 1.156266,-4.4466665 -1.091067,-3.6879998"
       inkscape:connector-curvature="0" /></g><g
     id="cdgknstxyz"
     transform="matrix(5.5339212,0,0,5.5339212,0,-1325.3414)"
     style="display:none"><path
       transform="translate(-645.31841,177.79282)"
       id="path354"
       style="display:inline;fill:#54191f;fill-opacity:1;fill-rule:nonzero;stroke:none;stroke-width:0.13333333"
       d="m 596.27065,21.424009 c 11.36,-4.588 34.49067,4.585333 49.04,4.585333 14.55467,0 37.67867,-9.173333 49.048,-4.585333 11.36667,4.585333 42.28266,22.929333 35.46133,36.689332 -6.81733,13.758667 -67.232,19.870666 -84.50933,19.870666 -17.272,0 -80.636,-8.407999 -87.46133,-22.165332 -6.81867,-13.758667 27.04933,-29.809333 38.42133,-34.394666"
       inkscape:connector-curvature="0" /><path
       transform="translate(-645.31841,177.79282)"
       id="path356"
       style="display:inline;fill:#ffffff;fill-opacity:1;fill-rule:nonzero;stroke:none;stroke-width:0.13333333"
       d="m 717.23198,61.138675 c -4.35866,0.376 -51.43066,0.748 -71.91466,0.748 -20.48267,0 -67.55067,-0.372 -71.908,-0.748 -4.36,-0.374667 51.86266,23.589332 71.908,23.589332 20.04933,0 76.268,-23.963999 71.91466,-23.589332"
       inkscape:connector-curvature="0" /><path
       transform="translate(-645.31841,177.79282)"
       id="path358"
       style="display:inline;fill:#ffffff;fill-opacity:1;fill-rule:nonzero;stroke:none;stroke-width:0.13333333"
       d="m 721.98932,46.474675 c -29.288,-29.098666 -56.70134,-27.121333 -76.672,-27.121333 -19.96267,0 -47.384,-1.977333 -76.66667,27.121333 -3.836,3.809333 14.25067,8.266666 22.73067,2.312 2.31333,7.938666 41.224,4.964 53.936,4.964 12.716,0 51.63066,2.974666 53.936,-4.964 8.47733,5.954666 26.56933,1.497333 22.736,-2.312"
       inkscape:connector-curvature="0" /><path
       transform="translate(-645.31841,177.79282)"
       id="path360"
       style="display:inline;fill:#f03655;fill-opacity:1;fill-rule:nonzero;stroke:none;stroke-width:0.13333333"
       d="m 596.15865,70.212008 c 25.69467,5.329333 37.51733,4.201333 49.16133,4.201333 11.64134,0 23.468,1.128 49.16134,-4.201333 20.264,-4.204 35.35733,-22.804 39.66666,-19.109333 0,0 -2.152,13.374666 -12.50666,23.310666 -29.16534,28.006669 -53.04,27.518669 -76.32134,27.518669 -23.28666,0 -47.15999,0.488 -76.32799,-27.518669 -10.35067,-9.936 -12.50267,-23.310666 -12.50267,-23.310666 4.31067,-3.694667 19.40667,14.905333 39.66933,19.109333"
       inkscape:connector-curvature="0" /><path
       transform="translate(-645.31841,177.79282)"
       id="path362"
       style="display:inline;fill:#db1b4c;fill-opacity:1;fill-rule:nonzero;stroke:none;stroke-width:0.13333333"
       d="m 579.99999,63.832008 c -2.24934,2.016 7.24933,31.659999 65.31999,31.659999 58.06934,0 67.56667,-29.643999 65.31334,-31.659999 11.94,-6.728 20.448,-15.353333 23.51466,-12.729333 0,0 -2.152,13.374666 -12.50666,23.310666 -29.16534,28.006669 -53.04,27.518669 -76.32134,27.518669 -23.28666,0 -47.15999,0.488 -76.32799,-27.518669 -10.35067,-9.936 -12.50267,-23.310666 -12.50267,-23.310666 3.064,-2.624 11.57733,6.001333 23.51067,12.729333"
       inkscape:connector-curvature="0" /><path
       transform="translate(-645.31841,177.79282)"
       id="path364"
       style="display:inline;fill:#f03655;fill-opacity:1;fill-rule:nonzero;stroke:none;stroke-width:0.13333333"
       d="m 608.68932,7.1533426 c 11.94666,0 22.03066,8.4053334 36.63066,8.4053334 14.59734,0 24.68534,-8.4053334 36.62534,-8.4053334 25.47866,0 62.56799,46.7853324 50.8,44.9693324 -7.432,-1.145334 -33.86534,-21.741333 -51.92,-21.912 -13.408,-0.126666 -15.44,10.190667 -35.50534,10.190667 -20.06666,0 -22.10133,-10.317333 -35.50666,-10.190667 -18.052,0.170667 -44.48933,20.766666 -51.92267,21.912 -11.76666,1.816 25.31867,-44.9693324 50.79867,-44.9693324"
       inkscape:connector-curvature="0" /><path
       transform="translate(-645.31841,177.79282)"
       id="path366"
       style="display:inline;fill:#db1b4c;fill-opacity:1;fill-rule:nonzero;stroke:none;stroke-width:0.13333333"
       d="m 565.29199,34.754675 c 2.28,10.237333 19.64266,-3.06 23.14266,-4.904 7.29734,-3.841333 14.65333,-6.214666 23.15733,-6.24 6.88667,-0.024 17.65867,12.082667 33.728,12.082667 16.068,0 26.83734,-12.106667 33.72267,-12.082667 8.50933,0.02533 15.864,2.398667 23.16133,6.24 3.5,1.844 20.86267,15.141333 23.14267,4.904 8.38933,9.753333 12.52,18.156 7.39867,17.368 -7.432,-1.145334 -33.86534,-21.741333 -51.92,-21.912 -13.408,-0.126666 -15.44,10.190667 -35.50534,10.190667 -20.06666,0 -22.10133,-10.317333 -35.50666,-10.190667 -18.052,0.170667 -44.48933,20.766666 -51.92267,21.912 -5.11466,0.788 -0.98666,-7.614667 7.40134,-17.368"
       inkscape:connector-curvature="0" /><path
       transform="translate(-645.31841,177.79282)"
       id="path368"
       style="display:inline;fill:#ff8786;fill-opacity:1;fill-rule:nonzero;stroke:none;stroke-width:0.13333333"
       d="m 639.96132,83.256007 c 0.476,-2.978666 8.64666,-1.705333 14.37066,-2.082666 6.28134,-0.408 14.18534,-3.717334 14.876,-0.365334 0.804,3.916 -8.284,5.34 -13.67066,5.713334 -4.496,0.304 -16.18667,0.542666 -15.576,-3.265334"
       inkscape:connector-curvature="0" /><path
       transform="translate(-645.31841,177.79282)"
       id="path370"
       style="display:inline;fill:#ff8786;fill-opacity:1;fill-rule:nonzero;stroke:none;stroke-width:0.13333333"
       d="m 672.71465,16.890676 c 0.20133,-1.78 5.12533,-2.876 11.284,-2.372 5.664,0.462666 11.73467,3.401333 9.15733,4.922666 -1.74,1.026667 -6.756,-0.984 -10.19066,-1.278666 -5.076,-0.434667 -10.452,0.484 -10.25067,-1.272"
       inkscape:connector-curvature="0" /><path
       transform="translate(-645.31841,177.79282)"
       id="path372"
       style="display:inline;fill:#ff8786;fill-opacity:1;fill-rule:nonzero;stroke:none;stroke-width:0.13333333"
       d="m 604.01332,16.114676 c 0.20266,-1.78 5.12533,-2.876 11.284,-2.370667 5.66533,0.461333 11.736,3.4 9.15866,4.921333 -1.74,1.026667 -6.756,-0.984 -10.19066,-1.277333 -5.076,-0.436 -10.452,0.482667 -10.252,-1.273333"
       inkscape:connector-curvature="0" /><path
       transform="translate(-645.31841,177.79282)"
       id="path374"
       style="display:inline;fill:#ff8786;fill-opacity:1;fill-rule:nonzero;stroke:none;stroke-width:0.13333333"
       d="m 666.43598,17.474676 c -1.02,0.409333 -1.89333,0.966666 -2.29466,1.806666 -0.38,0.793334 0.37866,1.832 1.57333,1.836 0.508,0.0093 2.22267,-0.478666 2.64267,-0.681333 3.06,-1.485333 0.608,-3.972 -1.92134,-2.961333"
       inkscape:connector-curvature="0" /></g><g
     id="th"
     style="display:none"
     transform="matrix(5.5339212,0,0,5.5339212,0,-39.613651)"><path
       inkscape:connector-curvature="0"
       d="m 496.99999,198.96534 c -10.99734,-5.46934 -33.36933,5.468 -47.444,5.468 -14.07333,0 -36.44533,-10.93734 -47.44267,-5.468 -10.992,5.468 -40.9,27.34133 -34.304,43.74666 6.59467,16.41067 65.036,23.696 81.74667,23.696 16.712,0 75.148,-7.28533 81.74666,-23.696 6.59867,-16.40533 -23.30666,-38.27866 -34.30266,-43.74666"
       style="display:inline;fill:#54191f;fill-opacity:1;fill-rule:nonzero;stroke:none;stroke-width:0.13333333"
       id="path274"
       transform="translate(-451.00341,-229.92075)" /><path
       inkscape:connector-curvature="0"
       d="m 528.97732,242.05067 c -4.81867,0.472 -56.80933,0.944 -79.43066,0.944 -22.63067,0 -74.62134,-0.472 -79.43067,-0.944 -4.81467,-0.472 14.356,30.62133 79.43067,29.74533 66.04133,-0.89066 84.23999,-30.21733 79.43066,-29.74533"
       style="display:inline;fill:#ffffff;fill-opacity:1;fill-rule:nonzero;stroke:none;stroke-width:0.13333333"
       id="path276"
       transform="translate(-451.00341,-229.92075)" /><path
       inkscape:connector-curvature="0"
       d="m 486.73732,203.25067 c -12.31467,-2.732 -24.86533,6.824 -37.18133,6.824 -12.316,0 -24.868,-9.556 -37.18,-6.824 -12.31333,2.73467 -34.892,17.62267 -34.892,17.62267 5.27867,5.46666 17.884,9.416 26.09467,5.16266 6.74666,2.12667 27.56533,2.42934 45.97733,2.42934 18.412,0 39.23333,-0.30267 45.976,-2.42934 8.21066,4.25334 20.81733,0.304 26.096,-5.16266 0,0 -22.58,-14.888 -34.89067,-17.62267"
       style="display:inline;fill:#ffffff;fill-opacity:1;fill-rule:nonzero;stroke:none;stroke-width:0.13333333"
       id="path278"
       transform="translate(-451.00341,-229.92075)" /><path
       inkscape:connector-curvature="0"
       d="m 533.39999,238.30667 c -3.20267,-0.588 -16.524,8.388 -35.5,13.06533 -17.24667,4.256 -34.40933,4.55734 -48.344,4.55734 -13.93067,0 -31.09733,-0.30134 -48.34667,-4.55734 -18.97333,-4.67733 -32.29333,-13.65333 -35.49733,-13.06533 -1.66133,0.30667 -2.324,12.15467 11.27867,25.21867 20.576,19.75733 52.99066,21.264 72.56533,21.264 19.57333,0 51.99066,-1.50667 72.56666,-21.264 13.59734,-13.064 12.93734,-24.912 11.27734,-25.21867"
       style="display:inline;fill:#f03655;fill-opacity:1;fill-rule:nonzero;stroke:none;stroke-width:0.13333333"
       id="path280"
       transform="translate(-451.00341,-229.92075)" /><path
       inkscape:connector-curvature="0"
       d="m 533.39999,238.30667 c -2.34667,-0.42667 -10.144,4.272 -21.59467,8.65867 1.12667,1.248 2.05867,2.828 2.74667,4.52133 3.04666,7.49867 -4.24,14.05333 -9.8,17.152 -8.59734,4.80133 -32.09334,9.23333 -55.196,9.23333 -23.10267,0 -46.59867,-4.432 -55.19867,-9.23333 -5.55733,-3.09867 -12.84533,-9.65333 -9.79333,-17.152 0.68533,-1.69333 1.616,-3.27333 2.74133,-4.52133 -11.45066,-4.38667 -19.24666,-9.08534 -21.59333,-8.65867 -1.66133,0.30667 -2.324,12.15467 11.27867,25.21867 20.576,19.75733 52.99066,21.264 72.56533,21.264 19.57333,0 51.99066,-1.50667 72.56666,-21.264 13.59734,-13.064 12.93734,-24.912 11.27734,-25.21867"
       style="display:inline;fill:#db1b4c;fill-opacity:1;fill-rule:nonzero;stroke:none;stroke-width:0.13333333"
       id="path282"
       transform="translate(-451.00341,-229.92075)" /><path
       inkscape:connector-curvature="0"
       d="m 525.29199,205.64934 c -9.044,-15.16267 -28.33734,-25.94667 -40.96667,-25.54934 -12.62667,0.396 -18.20266,7.464 -34.76933,7.464 -16.56667,0 -22.13867,-7.068 -34.76933,-7.464 -12.62667,-0.39733 -31.92,10.38667 -40.96934,25.54934 -9.96533,16.71066 -13.72533,39.50533 -6.008,32.50666 9.38134,-8.50533 16.272,-26.12666 39.14,-29.46666 22.87467,-3.34267 28.824,3.48133 42.60667,3.48133 13.78133,0 19.73333,-6.824 42.60666,-3.48133 22.86667,3.34 29.75867,20.96133 39.13867,29.46666 7.71867,6.99867 3.96,-15.796 -6.00933,-32.50666"
       style="display:inline;fill:#f03655;fill-opacity:1;fill-rule:nonzero;stroke:none;stroke-width:0.13333333"
       id="path284"
       transform="translate(-451.00341,-229.92075)" /><path
       inkscape:connector-curvature="0"
       d="m 526.37999,207.544 c -0.004,0.46134 -0.0387,0.91867 -0.10134,1.37067 -1.27066,9.06667 -8.27066,4.64 -14.54533,1.44267 -15.39467,-7.836 -25.648,-12.00134 -42.884,-6.14934 -5.35733,1.81734 -12.096,2.80534 -19.29333,2.80534 -7.19733,0 -13.93333,-0.988 -19.29467,-2.80534 -17.236,-5.852 -27.48533,-1.68666 -42.87866,6.14934 -6.27867,3.19733 -13.28,7.624 -14.552,-1.44267 -0.06,-0.452 -0.0907,-0.90933 -0.096,-1.37067 -9.14267,16.476 -12.356,37.348 -4.92534,30.612 9.38134,-8.50533 16.272,-26.12666 39.14,-29.46666 22.87467,-3.34267 28.824,3.48133 42.60667,3.48133 13.78133,0 19.73333,-6.824 42.60666,-3.48133 22.86667,3.34 29.75867,20.96133 39.13867,29.46666 7.43467,6.736 4.22267,-14.136 -4.92133,-30.612"
       style="display:inline;fill:#db1b4c;fill-opacity:1;fill-rule:nonzero;stroke:none;stroke-width:0.13333333"
       id="path286"
       transform="translate(-451.00341,-229.92075)" /><path
       inkscape:connector-curvature="0"
       d="m 444.03066,268.65067 c 0.45866,-3.552 8.3,-2.03733 13.79733,-2.48667 6.032,-0.484 13.624,-4.42933 14.28933,-0.43333 0.768,4.67333 -7.95866,6.36667 -13.12933,6.81333 -4.31867,0.36 -15.54267,0.65334 -14.95733,-3.89333"
       style="display:inline;fill:#ff8786;fill-opacity:1;fill-rule:nonzero;stroke:none;stroke-width:0.13333333"
       id="path288"
       transform="translate(-451.00341,-229.92075)" /><path
       inkscape:connector-curvature="0"
       d="m 485.20932,191.828 c 0.60933,-2.052 5.50933,-2.524 11.20667,-0.912 5.23733,1.476 10.276,5.932 7.48533,7.28534 -1.88533,0.91466 -6.14667,-2.27467 -9.31467,-3.18534 -4.68933,-1.35066 -9.97733,-1.16533 -9.37733,-3.188"
       style="display:inline;fill:#ff8786;fill-opacity:1;fill-rule:nonzero;stroke:none;stroke-width:0.13333333"
       id="path290"
       transform="translate(-451.00341,-229.92075)" /><path
       inkscape:connector-curvature="0"
       d="m 415.80399,191.45734 c -0.60667,-2.048 -5.51333,-2.52 -11.20533,-0.90934 -5.23867,1.48 -10.276,5.932 -7.48534,7.28667 1.88134,0.916 6.14667,-2.27333 9.312,-3.18533 4.692,-1.352 9.98267,-1.16667 9.37867,-3.192"
       style="display:inline;fill:#ff8786;fill-opacity:1;fill-rule:nonzero;stroke:none;stroke-width:0.13333333"
       id="path292"
       transform="translate(-451.00341,-229.92075)" /><path
       inkscape:connector-curvature="0"
       d="m 479.14532,191.47467 c -1.06,0.308 -2.01467,0.82 -2.59067,1.73467 -0.54266,0.86666 -0.0693,2.204 1.056,2.41333 0.47467,0.0933 2.208,-0.19467 2.656,-0.36267 3.24,-1.23333 1.508,-4.55333 -1.12133,-3.78533"
       style="display:inline;fill:#ff8786;fill-opacity:1;fill-rule:nonzero;stroke:none;stroke-width:0.13333333"
       id="path294"
       transform="translate(-451.00341,-229.92075)" /><path
       inkscape:connector-curvature="0"
       d="m 449.21999,228.844 c -22.85733,0.108 -38.26667,11.69734 -42.152,13.68534 0,0 27.18533,2.996 42.32933,2.996 15.14534,0 42.33067,-2.996 42.33067,-2.996 -3.88667,-1.988 -14.90667,-13.816 -42.508,-13.68534"
       style="display:inline;fill:#de2631;fill-opacity:1;fill-rule:nonzero;stroke:none;stroke-width:0.13333333"
       id="path296"
       transform="translate(-451.00341,-229.92075)" /><path
       inkscape:connector-curvature="0"
       d="m 465.81466,234.288 c -1.52534,-1.508 -6.212,-0.96666 -8.89334,-0.328 -1.876,0.444 -3.67066,1.024 -5.54266,1.472 -2.50667,0.6 -6.23067,-0.628 -8.59867,-1.15466 -1.67867,-0.37467 -10.796,-1.692 -10.036,1.25733 0.73333,2.83733 10.832,5.204 16.77867,5.1 7.404,-0.13067 19.30799,-3.36133 16.292,-6.34667"
       style="display:inline;fill:#e9423d;fill-opacity:1;fill-rule:nonzero;stroke:none;stroke-width:0.13333333"
       id="path298"
       transform="translate(-451.00341,-229.92075)" /></g><g
     style="display:inline"
     transform="matrix(5.5339212,0,0,5.5339212,0,-1325.3414)"
     id="neutral"><path
       inkscape:connector-curvature="0"
       d="m -76.64672,234.25501 c -5.90933,-13.42165 33.46133,-29.6669 55.084,-29.32491 21.62267,0.34013 48.39067,-5.12009 64.86533,2.0445 16.47467,7.16485 35.52,18.0745 31.40134,26.93957 -4.11867,8.87125 -43.75734,22.85013 -87.516,18.75724 -43.76133,-4.08944 -60.23467,-10.22965 -63.83467,-18.4164"
       style="display:inline;fill:#54191f;fill-opacity:1;fill-rule:nonzero;stroke:none;stroke-width:0.10851911"
       id="path9295" /><path
       inkscape:connector-curvature="0"
       d="m 68.59461,206.90189 c -4.24933,0.54694 -50.14,1.0948 -70.11466,1.0948 -19.97067,0 -65.86,-0.54786 -70.11067,-1.0948 -4.25066,-0.552 12.67467,35.66667 70.11067,34.64693 58.296,-1.036 74.364,-35.19893 70.11466,-34.64693"
       style="display:inline;fill:#ffffff;fill-opacity:1;fill-rule:nonzero;stroke:none;stroke-width:0.13333333"
       id="path9297"
       inkscape:label="theeth inf" /><path
       inkscape:connector-curvature="0"
       d="m 720.02265,410.0336 c -14.616,-36.89093 -60.38,-21.78547 -74.70267,-21.78547 -14.32666,0 -60.08666,-15.10546 -74.70533,21.78547 -1.97066,4.9624 10.81867,4.91707 14.90934,2.1036 4.09866,9.488 15.20666,4.22027 17.83733,1.40827 4.676,8.43186 29.384,7.02506 41.95866,7.02506 12.572,0 37.27734,1.4068 41.95467,-7.02506 2.63333,2.812 13.74,8.07973 17.83733,-1.40827 4.092,2.81347 16.884,2.8588 14.91067,-2.1036"
       style="display:inline;fill:#ffffff;fill-opacity:1;fill-rule:nonzero;stroke:none;stroke-width:0.13333333"
       id="path9299"
       transform="translate(-646.82537,-188.11801)"
       inkscape:label="theet sup" /><path
       inkscape:connector-curvature="0"
       d="m 69.763127,225.85237 c -11.94266,-7.93352 -9.292964,-2.82251 -29.802714,-8.57654 -19.343983,-3.44318 -27.381812,-0.32315 -39.93248132,-0.27841 -12.55466068,-0.0448 -22.89114168,-2.65366 -42.99644568,0.78952 -14.12758,3.7096 -22.969795,1.40968 -34.924455,9.3432 -5.208,3.57821 -2.319081,9.26831 12.112919,19.42019 21.55733,14.77824 47.92933,10.82491 64.27466,11.53497 16.34267,-0.71006 42.716,3.24548 64.27467,-11.53497 14.43067,-10.1555 15.853132,-22.34483 6.738293,-27.34235"
       style="display:inline;fill:#f03655;fill-opacity:1;fill-rule:nonzero;stroke:none;stroke-width:0.12480596"
       id="path9301"
       sodipodi:nodetypes="ccccccccc" /><path
       inkscape:connector-curvature="0"
       d="m 80.470166,219.18194 c -7.447024,-5.13559 -13.232684,-0.79473 -20.658048,3.48682 8.26484,17.27067 -9.561983,24.40075 -16.708428,26.32727 -10.939007,2.87453 -29.761024,4.30183 -44.6090494,4.47243 -14.8534286,-0.1706 -33.6727436,-1.5979 -44.6103996,-4.47243 -7.150497,-1.92652 -24.974619,-9.0566 -16.71113,-26.32727 -7.424003,-4.28393 -13.205611,-8.62241 -20.66211,-3.48682 -5.288743,3.63369 2.05673,17.19748 16.712481,27.50675 21.891549,15.00736 48.672414,10.99274 65.2711586,11.7138 16.5960424,-0.72106 43.3782584,3.2958 65.2711694,-11.7138 14.654399,-10.31295 22.001224,-23.87306 16.704356,-27.50675"
       style="display:inline;fill:#db1b4c;fill-opacity:1;fill-rule:nonzero;stroke:none;stroke-width:0.12674092"
       id="path9303" /><path
       inkscape:connector-curvature="0"
       d="m 74.52128,202.87782 c -12.29333,-16.8563 -23.748,-22.69947 -36.51333,-22.80276 -13.01067,0.0272 -26.02,5.69548 -39.51334,5.68098 -13.496,0.0145 -26.508,-5.6538 -39.51466,-5.68098 -12.76533,0.10329 -24.22533,5.94646 -36.516,22.80276 -13.745751,15.95519 9.210514,25.01756 14.362514,23.2918 10.595117,-6.08844 5.01948,-0.90709 18.70503,-9.57328 14.83467,-7.62964 25.381786,-1.64372 42.963116,-1.73618 17.57467,0.0906 31.450653,-5.3824 46.279983,2.24728 19.11334,10.38533 10.044569,5.46727 20.891229,12.57793 5.15334,1.72576 25.409628,-4.71908 8.855458,-26.80755"
       style="display:inline;fill:#f03655;fill-opacity:1;fill-rule:nonzero;stroke:none;stroke-width:0.10991256"
       id="path9305"
       sodipodi:nodetypes="ccccccccccc" /><path
       inkscape:connector-curvature="0"
       d="m 77.35728,207.22862 c -3.46533,12.34332 -26.24667,-5.99693 -31.884,-8.12725 -19.13867,-9.39047 -35.63067,1.27664 -46.97867,1.19518 -11.348,0.0815 -27.84,-10.58565 -46.98266,-1.19518 -5.63467,2.13032 -28.42,20.47057 -31.884,8.12725 -7.064,12.16492 -6.268,19.36699 -1.59467,17.85678 10.85067,-3.0218 17.36934,-9.65061 36.476,-20.03594 14.83467,-7.62964 26.404,0.14516 43.98533,0.0527 17.57467,0.0906 29.15067,-7.68238 43.98,-0.0527 19.11334,10.38533 25.122232,15.22527 35.968892,18.24707 4.67067,1.51021 5.975108,-3.9048 -1.086224,-16.06791"
       style="display:inline;fill:#db1b4c;fill-opacity:1;fill-rule:nonzero;stroke:none;stroke-width:0.10991256"
       id="path9307"
       sodipodi:nodetypes="ccccccccccc" /><path
       inkscape:connector-curvature="0"
       d="m 21.972379,189.54228 c 0.51333,-3.50489 8.00266,-6.21506 14.90933,-5.3287 5.47867,0.68723 10.39467,4.27319 11.51733,7.63163 1.27867,3.80112 -5.136,1.02223 -13.42533,-0.23048 -7.06667,-1.06082 -13.60667,1.91898 -13.00133,-2.07245"
       style="display:inline;fill:#ff8786;fill-opacity:1;fill-rule:nonzero;stroke:none;stroke-width:0.15328136"
       id="path9309" /><path
       inkscape:connector-curvature="0"
       d="m -47.676933,189.31359 c 0.51466,-3.50838 8.00399,-6.22029 14.91066,-5.3304 5.47867,0.68897 10.39467,4.27488 11.51867,7.62819 1.27733,3.80581 -5.13734,1.02361 -13.42667,-0.22556 -7.06533,-1.06079 -13.60666,1.91683 -13.00266,-2.07223"
       style="display:inline;fill:#ff8786;fill-opacity:1;fill-rule:nonzero;stroke:none;stroke-width:0.15328036"
       id="path9311" /><path
       inkscape:connector-curvature="0"
       d="m 15.45728,192.38255 c -0.19333,-0.86531 -1.396,-1.69815 -2.52133,-1.37996 -1.08,0.30651 -2.09867,0.78463 -2.79867,1.54081 -1.412,1.5942 0.18133,3.11317 1.56,2.72094 0.87867,-0.25077 1.764,-0.5431 2.58,-0.92379 0.85467,-0.38718 1.36267,-1.15154 1.18,-1.958"
       style="display:inline;fill:#ff8786;fill-opacity:1;fill-rule:nonzero;stroke:none;stroke-width:0.13161916"
       id="path9313" /><path
       inkscape:connector-curvature="0"
       d="m 1.4803615,228.36962 c 0.40933,4.53005 9.4119995,2.31776 15.6559995,2.22852 6.828,0 15.74933,3.75791 16.22,-1.58252 0.50133,-6.19336 -9.30134,-6.67711 -15.05867,-6.68357 -4.81467,0.20181 -17.29866954,0.39717 -16.8173295,6.03757"
       style="display:inline;fill:#ff8786;fill-opacity:1;fill-rule:nonzero;stroke:none;stroke-width:0.14857252"
       id="path9315" /></g><text
     xml:space="preserve"
     style="font-style:normal;font-variant:normal;font-weight:normal;font-stretch:normal;font-size:77.12084198px;line-height:1.25;font-family:Arial;-inkscape-font-specification:Arial;letter-spacing:0px;word-spacing:0px;fill:#000000;fill-opacity:1;stroke:none;stroke-width:1.92802095"
     x="-893.99957"
     y="-569.08759"
     id="text9289"><tspan
       sodipodi:role="line"
       id="tspan9287"
       x="-893.99957"
       y="-569.08759"
       style="stroke-width:1.92802095">Full HD -1920 x 1080</tspan></text>
</svg>