M48
;GenerationSoftware,Autodesk,EAGLE,9.7.0*%
;CreationDate,2021-09-08T05:39:46Z*%
FMAT,2
ICI,OFF
METRIC,TZ,000.000
T4C0.350
T3C0.813
T2C0.889
T1C1.200
%
G90
M71
T1
X15113Y24078
X15113Y18079
T2
X1854Y21590
X1854Y19050
X1854Y16510
X1854Y13970
X1854Y11430
X1854Y8890
X1854Y6350
X1854Y3810
X24714Y3810
X24714Y6350
X24714Y8890
X24714Y11430
X24714Y13970
X24714Y16510
X24714Y19050
X24714Y21590
T3
X7112Y21590
T4
X11430Y10160
X16510Y8890
M30